G04 MADE WITH FRITZING*
G04 WWW.FRITZING.ORG*
G04 DOUBLE SIDED*
G04 HOLES PLATED*
G04 CONTOUR ON CENTER OF CONTOUR VECTOR*
%ASAXBY*%
%FSLAX23Y23*%
%MOIN*%
%OFA0B0*%
%SFA1.0B1.0*%
%ADD10C,0.074000*%
%ADD11C,0.078000*%
%ADD12R,0.078000X0.078000*%
%ADD13R,0.001000X0.001000*%
%LNCOPPER1*%
G90*
G70*
G54D10*
X143Y475D03*
X193Y375D03*
X243Y475D03*
X343Y475D03*
X443Y475D03*
X293Y375D03*
X393Y375D03*
X493Y375D03*
X143Y475D03*
X193Y375D03*
X243Y475D03*
X343Y475D03*
X443Y475D03*
X293Y375D03*
X393Y375D03*
X493Y375D03*
G54D11*
X728Y467D03*
X828Y467D03*
X928Y467D03*
G54D12*
X728Y467D03*
G54D13*
X456Y411D02*
X529Y411D01*
X456Y410D02*
X529Y410D01*
X456Y409D02*
X529Y409D01*
X456Y408D02*
X529Y408D01*
X456Y407D02*
X529Y407D01*
X456Y406D02*
X529Y406D01*
X456Y405D02*
X529Y405D01*
X456Y404D02*
X529Y404D01*
X456Y403D02*
X529Y403D01*
X456Y402D02*
X529Y402D01*
X456Y401D02*
X529Y401D01*
X456Y400D02*
X529Y400D01*
X456Y399D02*
X529Y399D01*
X456Y398D02*
X529Y398D01*
X456Y397D02*
X529Y397D01*
X456Y396D02*
X529Y396D01*
X456Y395D02*
X529Y395D01*
X456Y394D02*
X487Y394D01*
X497Y394D02*
X529Y394D01*
X456Y393D02*
X484Y393D01*
X501Y393D02*
X529Y393D01*
X456Y392D02*
X482Y392D01*
X502Y392D02*
X529Y392D01*
X456Y391D02*
X480Y391D01*
X504Y391D02*
X529Y391D01*
X456Y390D02*
X479Y390D01*
X505Y390D02*
X529Y390D01*
X456Y389D02*
X478Y389D01*
X506Y389D02*
X529Y389D01*
X456Y388D02*
X477Y388D01*
X507Y388D02*
X529Y388D01*
X456Y387D02*
X476Y387D01*
X508Y387D02*
X529Y387D01*
X456Y386D02*
X475Y386D01*
X509Y386D02*
X529Y386D01*
X456Y385D02*
X475Y385D01*
X510Y385D02*
X529Y385D01*
X456Y384D02*
X474Y384D01*
X510Y384D02*
X529Y384D01*
X456Y383D02*
X474Y383D01*
X511Y383D02*
X529Y383D01*
X456Y382D02*
X473Y382D01*
X511Y382D02*
X529Y382D01*
X456Y381D02*
X473Y381D01*
X511Y381D02*
X529Y381D01*
X456Y380D02*
X473Y380D01*
X512Y380D02*
X529Y380D01*
X456Y379D02*
X472Y379D01*
X512Y379D02*
X529Y379D01*
X456Y378D02*
X472Y378D01*
X512Y378D02*
X529Y378D01*
X456Y377D02*
X472Y377D01*
X512Y377D02*
X529Y377D01*
X456Y376D02*
X472Y376D01*
X512Y376D02*
X529Y376D01*
X456Y375D02*
X472Y375D01*
X512Y375D02*
X529Y375D01*
X456Y374D02*
X472Y374D01*
X512Y374D02*
X529Y374D01*
X456Y373D02*
X472Y373D01*
X512Y373D02*
X529Y373D01*
X456Y372D02*
X472Y372D01*
X512Y372D02*
X529Y372D01*
X456Y371D02*
X472Y371D01*
X512Y371D02*
X529Y371D01*
X456Y370D02*
X473Y370D01*
X512Y370D02*
X529Y370D01*
X456Y369D02*
X473Y369D01*
X511Y369D02*
X529Y369D01*
X456Y368D02*
X473Y368D01*
X511Y368D02*
X529Y368D01*
X456Y367D02*
X474Y367D01*
X511Y367D02*
X529Y367D01*
X456Y366D02*
X474Y366D01*
X510Y366D02*
X529Y366D01*
X456Y365D02*
X475Y365D01*
X510Y365D02*
X529Y365D01*
X456Y364D02*
X475Y364D01*
X509Y364D02*
X529Y364D01*
X456Y363D02*
X476Y363D01*
X508Y363D02*
X529Y363D01*
X456Y362D02*
X477Y362D01*
X507Y362D02*
X529Y362D01*
X456Y361D02*
X478Y361D01*
X507Y361D02*
X529Y361D01*
X456Y360D02*
X479Y360D01*
X505Y360D02*
X529Y360D01*
X456Y359D02*
X480Y359D01*
X504Y359D02*
X529Y359D01*
X456Y358D02*
X482Y358D01*
X503Y358D02*
X529Y358D01*
X456Y357D02*
X484Y357D01*
X501Y357D02*
X529Y357D01*
X456Y356D02*
X487Y356D01*
X498Y356D02*
X529Y356D01*
X456Y355D02*
X529Y355D01*
X456Y354D02*
X529Y354D01*
X456Y353D02*
X529Y353D01*
X456Y352D02*
X529Y352D01*
X456Y351D02*
X529Y351D01*
X456Y350D02*
X529Y350D01*
X456Y349D02*
X529Y349D01*
X456Y348D02*
X529Y348D01*
X456Y347D02*
X529Y347D01*
X456Y346D02*
X529Y346D01*
X456Y345D02*
X529Y345D01*
X456Y344D02*
X529Y344D01*
X456Y343D02*
X529Y343D01*
X456Y342D02*
X529Y342D01*
X456Y341D02*
X529Y341D01*
X456Y340D02*
X529Y340D01*
X456Y339D02*
X529Y339D01*
X456Y338D02*
X528Y338D01*
D02*
G04 End of Copper1*
M02*