G04 MADE WITH FRITZING*
G04 WWW.FRITZING.ORG*
G04 DOUBLE SIDED*
G04 HOLES PLATED*
G04 CONTOUR ON CENTER OF CONTOUR VECTOR*
%ASAXBY*%
%FSLAX23Y23*%
%MOIN*%
%OFA0B0*%
%SFA1.0B1.0*%
%ADD10C,0.088000*%
%ADD11C,0.084000*%
%ADD12C,0.135984*%
%ADD13R,0.088000X0.088000*%
%ADD14R,0.001000X0.001000*%
%LNMASK0*%
G90*
G70*
G54D10*
X728Y467D03*
X828Y467D03*
X928Y467D03*
G54D11*
X143Y475D03*
X193Y375D03*
X243Y475D03*
X343Y475D03*
X443Y475D03*
X293Y375D03*
X393Y375D03*
X493Y375D03*
G54D12*
X543Y125D03*
X93Y125D03*
G54D11*
X143Y475D03*
X193Y375D03*
X243Y475D03*
X343Y475D03*
X443Y475D03*
X293Y375D03*
X393Y375D03*
X493Y375D03*
G54D12*
X543Y125D03*
X93Y125D03*
G54D13*
X728Y467D03*
G54D14*
X451Y416D02*
X534Y416D01*
X451Y415D02*
X534Y415D01*
X451Y414D02*
X534Y414D01*
X451Y413D02*
X534Y413D01*
X451Y412D02*
X534Y412D01*
X451Y411D02*
X534Y411D01*
X451Y410D02*
X534Y410D01*
X451Y409D02*
X534Y409D01*
X451Y408D02*
X534Y408D01*
X451Y407D02*
X534Y407D01*
X451Y406D02*
X534Y406D01*
X451Y405D02*
X534Y405D01*
X451Y404D02*
X534Y404D01*
X451Y403D02*
X534Y403D01*
X451Y402D02*
X534Y402D01*
X451Y401D02*
X534Y401D01*
X451Y400D02*
X534Y400D01*
X451Y399D02*
X534Y399D01*
X451Y398D02*
X534Y398D01*
X451Y397D02*
X534Y397D01*
X451Y396D02*
X534Y396D01*
X451Y395D02*
X534Y395D01*
X451Y394D02*
X534Y394D01*
X451Y393D02*
X534Y393D01*
X451Y392D02*
X534Y392D01*
X451Y391D02*
X534Y391D01*
X451Y390D02*
X534Y390D01*
X451Y389D02*
X487Y389D01*
X497Y389D02*
X534Y389D01*
X451Y388D02*
X485Y388D01*
X499Y388D02*
X534Y388D01*
X451Y387D02*
X483Y387D01*
X501Y387D02*
X534Y387D01*
X451Y386D02*
X482Y386D01*
X502Y386D02*
X534Y386D01*
X451Y385D02*
X481Y385D01*
X503Y385D02*
X534Y385D01*
X451Y384D02*
X480Y384D01*
X504Y384D02*
X534Y384D01*
X451Y383D02*
X479Y383D01*
X505Y383D02*
X534Y383D01*
X451Y382D02*
X479Y382D01*
X506Y382D02*
X534Y382D01*
X451Y381D02*
X478Y381D01*
X506Y381D02*
X534Y381D01*
X451Y380D02*
X478Y380D01*
X507Y380D02*
X534Y380D01*
X451Y379D02*
X478Y379D01*
X507Y379D02*
X534Y379D01*
X451Y378D02*
X477Y378D01*
X507Y378D02*
X534Y378D01*
X451Y377D02*
X477Y377D01*
X507Y377D02*
X534Y377D01*
X451Y376D02*
X477Y376D01*
X507Y376D02*
X534Y376D01*
X451Y375D02*
X477Y375D01*
X507Y375D02*
X534Y375D01*
X451Y374D02*
X477Y374D01*
X507Y374D02*
X534Y374D01*
X451Y373D02*
X477Y373D01*
X507Y373D02*
X534Y373D01*
X451Y372D02*
X477Y372D01*
X507Y372D02*
X534Y372D01*
X451Y371D02*
X478Y371D01*
X507Y371D02*
X534Y371D01*
X451Y370D02*
X478Y370D01*
X507Y370D02*
X534Y370D01*
X451Y369D02*
X478Y369D01*
X506Y369D02*
X534Y369D01*
X451Y368D02*
X479Y368D01*
X506Y368D02*
X534Y368D01*
X451Y367D02*
X479Y367D01*
X505Y367D02*
X534Y367D01*
X451Y366D02*
X480Y366D01*
X504Y366D02*
X534Y366D01*
X451Y365D02*
X481Y365D01*
X503Y365D02*
X534Y365D01*
X451Y364D02*
X482Y364D01*
X502Y364D02*
X534Y364D01*
X451Y363D02*
X483Y363D01*
X501Y363D02*
X534Y363D01*
X451Y362D02*
X485Y362D01*
X500Y362D02*
X534Y362D01*
X451Y361D02*
X487Y361D01*
X497Y361D02*
X534Y361D01*
X451Y360D02*
X534Y360D01*
X451Y359D02*
X534Y359D01*
X451Y358D02*
X534Y358D01*
X451Y357D02*
X534Y357D01*
X451Y356D02*
X534Y356D01*
X451Y355D02*
X534Y355D01*
X451Y354D02*
X534Y354D01*
X451Y353D02*
X534Y353D01*
X451Y352D02*
X534Y352D01*
X451Y351D02*
X534Y351D01*
X451Y350D02*
X534Y350D01*
X451Y349D02*
X534Y349D01*
X451Y348D02*
X534Y348D01*
X451Y347D02*
X534Y347D01*
X451Y346D02*
X534Y346D01*
X451Y345D02*
X534Y345D01*
X451Y344D02*
X534Y344D01*
X451Y343D02*
X534Y343D01*
X451Y342D02*
X534Y342D01*
X451Y341D02*
X534Y341D01*
X451Y340D02*
X534Y340D01*
X451Y339D02*
X534Y339D01*
X451Y338D02*
X534Y338D01*
X451Y337D02*
X534Y337D01*
X451Y336D02*
X534Y336D01*
X451Y335D02*
X534Y335D01*
X451Y334D02*
X534Y334D01*
X451Y333D02*
X533Y333D01*
D02*
G04 End of Mask0*
M02*