G04 MADE WITH FRITZING*
G04 WWW.FRITZING.ORG*
G04 DOUBLE SIDED*
G04 HOLES PLATED*
G04 CONTOUR ON CENTER OF CONTOUR VECTOR*
%ASAXBY*%
%FSLAX23Y23*%
%MOIN*%
%OFA0B0*%
%SFA1.0B1.0*%
%ADD10C,0.008000*%
%ADD11R,0.001000X0.001000*%
%LNSILK0*%
G90*
G70*
G54D10*
X797Y18D02*
X797Y530D01*
D02*
X797Y18D02*
X197Y18D01*
D02*
X197Y530D02*
X197Y18D01*
G54D11*
X0Y1123D02*
X1012Y1123D01*
X0Y1122D02*
X1012Y1122D01*
X0Y1121D02*
X1012Y1121D01*
X0Y1120D02*
X1012Y1120D01*
X0Y1119D02*
X1012Y1119D01*
X0Y1118D02*
X1012Y1118D01*
X0Y1117D02*
X1012Y1117D01*
X0Y1116D02*
X1012Y1116D01*
X0Y1115D02*
X7Y1115D01*
X1005Y1115D02*
X1012Y1115D01*
X0Y1114D02*
X7Y1114D01*
X1005Y1114D02*
X1012Y1114D01*
X0Y1113D02*
X7Y1113D01*
X1005Y1113D02*
X1012Y1113D01*
X0Y1112D02*
X7Y1112D01*
X1005Y1112D02*
X1012Y1112D01*
X0Y1111D02*
X7Y1111D01*
X1005Y1111D02*
X1012Y1111D01*
X0Y1110D02*
X7Y1110D01*
X1005Y1110D02*
X1012Y1110D01*
X0Y1109D02*
X7Y1109D01*
X1005Y1109D02*
X1012Y1109D01*
X0Y1108D02*
X7Y1108D01*
X1005Y1108D02*
X1012Y1108D01*
X0Y1107D02*
X7Y1107D01*
X1005Y1107D02*
X1012Y1107D01*
X0Y1106D02*
X7Y1106D01*
X1005Y1106D02*
X1012Y1106D01*
X0Y1105D02*
X7Y1105D01*
X1005Y1105D02*
X1012Y1105D01*
X0Y1104D02*
X7Y1104D01*
X1005Y1104D02*
X1012Y1104D01*
X0Y1103D02*
X7Y1103D01*
X1005Y1103D02*
X1012Y1103D01*
X0Y1102D02*
X7Y1102D01*
X1005Y1102D02*
X1012Y1102D01*
X0Y1101D02*
X7Y1101D01*
X1005Y1101D02*
X1012Y1101D01*
X0Y1100D02*
X7Y1100D01*
X1005Y1100D02*
X1012Y1100D01*
X0Y1099D02*
X7Y1099D01*
X1005Y1099D02*
X1012Y1099D01*
X0Y1098D02*
X7Y1098D01*
X1005Y1098D02*
X1012Y1098D01*
X0Y1097D02*
X7Y1097D01*
X1005Y1097D02*
X1012Y1097D01*
X0Y1096D02*
X7Y1096D01*
X1005Y1096D02*
X1012Y1096D01*
X0Y1095D02*
X7Y1095D01*
X1005Y1095D02*
X1012Y1095D01*
X0Y1094D02*
X7Y1094D01*
X1005Y1094D02*
X1012Y1094D01*
X0Y1093D02*
X7Y1093D01*
X1005Y1093D02*
X1012Y1093D01*
X0Y1092D02*
X7Y1092D01*
X1005Y1092D02*
X1012Y1092D01*
X0Y1091D02*
X7Y1091D01*
X1005Y1091D02*
X1012Y1091D01*
X0Y1090D02*
X7Y1090D01*
X1005Y1090D02*
X1012Y1090D01*
X0Y1089D02*
X7Y1089D01*
X1005Y1089D02*
X1012Y1089D01*
X0Y1088D02*
X7Y1088D01*
X1005Y1088D02*
X1012Y1088D01*
X0Y1087D02*
X7Y1087D01*
X1005Y1087D02*
X1012Y1087D01*
X0Y1086D02*
X7Y1086D01*
X1005Y1086D02*
X1012Y1086D01*
X0Y1085D02*
X7Y1085D01*
X1005Y1085D02*
X1012Y1085D01*
X0Y1084D02*
X7Y1084D01*
X1005Y1084D02*
X1012Y1084D01*
X0Y1083D02*
X7Y1083D01*
X1005Y1083D02*
X1012Y1083D01*
X0Y1082D02*
X7Y1082D01*
X1005Y1082D02*
X1012Y1082D01*
X0Y1081D02*
X7Y1081D01*
X1005Y1081D02*
X1012Y1081D01*
X0Y1080D02*
X7Y1080D01*
X1005Y1080D02*
X1012Y1080D01*
X0Y1079D02*
X7Y1079D01*
X1005Y1079D02*
X1012Y1079D01*
X0Y1078D02*
X7Y1078D01*
X1005Y1078D02*
X1012Y1078D01*
X0Y1077D02*
X7Y1077D01*
X1005Y1077D02*
X1012Y1077D01*
X0Y1076D02*
X7Y1076D01*
X1005Y1076D02*
X1012Y1076D01*
X0Y1075D02*
X7Y1075D01*
X1005Y1075D02*
X1012Y1075D01*
X0Y1074D02*
X7Y1074D01*
X1005Y1074D02*
X1012Y1074D01*
X0Y1073D02*
X7Y1073D01*
X1005Y1073D02*
X1012Y1073D01*
X0Y1072D02*
X7Y1072D01*
X1005Y1072D02*
X1012Y1072D01*
X0Y1071D02*
X7Y1071D01*
X1005Y1071D02*
X1012Y1071D01*
X0Y1070D02*
X7Y1070D01*
X1005Y1070D02*
X1012Y1070D01*
X0Y1069D02*
X7Y1069D01*
X1005Y1069D02*
X1012Y1069D01*
X0Y1068D02*
X7Y1068D01*
X1005Y1068D02*
X1012Y1068D01*
X0Y1067D02*
X7Y1067D01*
X1005Y1067D02*
X1012Y1067D01*
X0Y1066D02*
X7Y1066D01*
X1005Y1066D02*
X1012Y1066D01*
X0Y1065D02*
X7Y1065D01*
X1005Y1065D02*
X1012Y1065D01*
X0Y1064D02*
X7Y1064D01*
X1005Y1064D02*
X1012Y1064D01*
X0Y1063D02*
X7Y1063D01*
X1005Y1063D02*
X1012Y1063D01*
X0Y1062D02*
X7Y1062D01*
X1005Y1062D02*
X1012Y1062D01*
X0Y1061D02*
X7Y1061D01*
X1005Y1061D02*
X1012Y1061D01*
X0Y1060D02*
X7Y1060D01*
X1005Y1060D02*
X1012Y1060D01*
X0Y1059D02*
X7Y1059D01*
X1005Y1059D02*
X1012Y1059D01*
X0Y1058D02*
X7Y1058D01*
X1005Y1058D02*
X1012Y1058D01*
X0Y1057D02*
X7Y1057D01*
X1005Y1057D02*
X1012Y1057D01*
X0Y1056D02*
X7Y1056D01*
X1005Y1056D02*
X1012Y1056D01*
X0Y1055D02*
X7Y1055D01*
X1005Y1055D02*
X1012Y1055D01*
X0Y1054D02*
X7Y1054D01*
X1005Y1054D02*
X1012Y1054D01*
X0Y1053D02*
X7Y1053D01*
X1005Y1053D02*
X1012Y1053D01*
X0Y1052D02*
X7Y1052D01*
X1005Y1052D02*
X1012Y1052D01*
X0Y1051D02*
X7Y1051D01*
X1005Y1051D02*
X1012Y1051D01*
X0Y1050D02*
X7Y1050D01*
X1005Y1050D02*
X1012Y1050D01*
X0Y1049D02*
X7Y1049D01*
X1005Y1049D02*
X1012Y1049D01*
X0Y1048D02*
X7Y1048D01*
X1005Y1048D02*
X1012Y1048D01*
X0Y1047D02*
X7Y1047D01*
X1005Y1047D02*
X1012Y1047D01*
X0Y1046D02*
X7Y1046D01*
X1005Y1046D02*
X1012Y1046D01*
X0Y1045D02*
X7Y1045D01*
X1005Y1045D02*
X1012Y1045D01*
X0Y1044D02*
X7Y1044D01*
X1005Y1044D02*
X1012Y1044D01*
X0Y1043D02*
X7Y1043D01*
X1005Y1043D02*
X1012Y1043D01*
X0Y1042D02*
X7Y1042D01*
X1005Y1042D02*
X1012Y1042D01*
X0Y1041D02*
X7Y1041D01*
X1005Y1041D02*
X1012Y1041D01*
X0Y1040D02*
X7Y1040D01*
X1005Y1040D02*
X1012Y1040D01*
X0Y1039D02*
X7Y1039D01*
X1005Y1039D02*
X1012Y1039D01*
X0Y1038D02*
X7Y1038D01*
X1005Y1038D02*
X1012Y1038D01*
X0Y1037D02*
X7Y1037D01*
X1005Y1037D02*
X1012Y1037D01*
X0Y1036D02*
X7Y1036D01*
X1005Y1036D02*
X1012Y1036D01*
X0Y1035D02*
X7Y1035D01*
X1005Y1035D02*
X1012Y1035D01*
X0Y1034D02*
X7Y1034D01*
X1005Y1034D02*
X1012Y1034D01*
X0Y1033D02*
X7Y1033D01*
X1005Y1033D02*
X1012Y1033D01*
X0Y1032D02*
X7Y1032D01*
X1005Y1032D02*
X1012Y1032D01*
X0Y1031D02*
X7Y1031D01*
X1005Y1031D02*
X1012Y1031D01*
X0Y1030D02*
X7Y1030D01*
X1005Y1030D02*
X1012Y1030D01*
X0Y1029D02*
X7Y1029D01*
X1005Y1029D02*
X1012Y1029D01*
X0Y1028D02*
X7Y1028D01*
X1005Y1028D02*
X1012Y1028D01*
X0Y1027D02*
X7Y1027D01*
X1005Y1027D02*
X1012Y1027D01*
X0Y1026D02*
X7Y1026D01*
X1005Y1026D02*
X1012Y1026D01*
X0Y1025D02*
X7Y1025D01*
X1005Y1025D02*
X1012Y1025D01*
X0Y1024D02*
X7Y1024D01*
X1005Y1024D02*
X1012Y1024D01*
X0Y1023D02*
X7Y1023D01*
X1005Y1023D02*
X1012Y1023D01*
X0Y1022D02*
X7Y1022D01*
X1005Y1022D02*
X1012Y1022D01*
X0Y1021D02*
X7Y1021D01*
X1005Y1021D02*
X1012Y1021D01*
X0Y1020D02*
X7Y1020D01*
X1005Y1020D02*
X1012Y1020D01*
X0Y1019D02*
X7Y1019D01*
X1005Y1019D02*
X1012Y1019D01*
X0Y1018D02*
X7Y1018D01*
X1005Y1018D02*
X1012Y1018D01*
X0Y1017D02*
X7Y1017D01*
X1005Y1017D02*
X1012Y1017D01*
X0Y1016D02*
X7Y1016D01*
X1005Y1016D02*
X1012Y1016D01*
X0Y1015D02*
X7Y1015D01*
X1005Y1015D02*
X1012Y1015D01*
X0Y1014D02*
X7Y1014D01*
X1005Y1014D02*
X1012Y1014D01*
X0Y1013D02*
X7Y1013D01*
X1005Y1013D02*
X1012Y1013D01*
X0Y1012D02*
X7Y1012D01*
X1005Y1012D02*
X1012Y1012D01*
X0Y1011D02*
X7Y1011D01*
X1005Y1011D02*
X1012Y1011D01*
X0Y1010D02*
X7Y1010D01*
X1005Y1010D02*
X1012Y1010D01*
X0Y1009D02*
X7Y1009D01*
X1005Y1009D02*
X1012Y1009D01*
X0Y1008D02*
X7Y1008D01*
X1005Y1008D02*
X1012Y1008D01*
X0Y1007D02*
X7Y1007D01*
X1005Y1007D02*
X1012Y1007D01*
X0Y1006D02*
X7Y1006D01*
X1005Y1006D02*
X1012Y1006D01*
X0Y1005D02*
X7Y1005D01*
X1005Y1005D02*
X1012Y1005D01*
X0Y1004D02*
X7Y1004D01*
X1005Y1004D02*
X1012Y1004D01*
X0Y1003D02*
X7Y1003D01*
X1005Y1003D02*
X1012Y1003D01*
X0Y1002D02*
X7Y1002D01*
X1005Y1002D02*
X1012Y1002D01*
X0Y1001D02*
X7Y1001D01*
X1005Y1001D02*
X1012Y1001D01*
X0Y1000D02*
X7Y1000D01*
X1005Y1000D02*
X1012Y1000D01*
X0Y999D02*
X7Y999D01*
X1005Y999D02*
X1012Y999D01*
X0Y998D02*
X7Y998D01*
X1005Y998D02*
X1012Y998D01*
X0Y997D02*
X7Y997D01*
X1005Y997D02*
X1012Y997D01*
X0Y996D02*
X7Y996D01*
X1005Y996D02*
X1012Y996D01*
X0Y995D02*
X7Y995D01*
X1005Y995D02*
X1012Y995D01*
X0Y994D02*
X7Y994D01*
X1005Y994D02*
X1012Y994D01*
X0Y993D02*
X7Y993D01*
X1005Y993D02*
X1012Y993D01*
X0Y992D02*
X7Y992D01*
X1005Y992D02*
X1012Y992D01*
X0Y991D02*
X7Y991D01*
X1005Y991D02*
X1012Y991D01*
X0Y990D02*
X7Y990D01*
X1005Y990D02*
X1012Y990D01*
X0Y989D02*
X7Y989D01*
X1005Y989D02*
X1012Y989D01*
X0Y988D02*
X7Y988D01*
X1005Y988D02*
X1012Y988D01*
X0Y987D02*
X7Y987D01*
X1005Y987D02*
X1012Y987D01*
X0Y986D02*
X7Y986D01*
X1005Y986D02*
X1012Y986D01*
X0Y985D02*
X7Y985D01*
X1005Y985D02*
X1012Y985D01*
X0Y984D02*
X7Y984D01*
X1005Y984D02*
X1012Y984D01*
X0Y983D02*
X7Y983D01*
X1005Y983D02*
X1012Y983D01*
X0Y982D02*
X7Y982D01*
X1005Y982D02*
X1012Y982D01*
X0Y981D02*
X7Y981D01*
X1005Y981D02*
X1012Y981D01*
X0Y980D02*
X7Y980D01*
X1005Y980D02*
X1012Y980D01*
X0Y979D02*
X7Y979D01*
X1005Y979D02*
X1012Y979D01*
X0Y978D02*
X7Y978D01*
X1005Y978D02*
X1012Y978D01*
X0Y977D02*
X7Y977D01*
X1005Y977D02*
X1012Y977D01*
X0Y976D02*
X7Y976D01*
X1005Y976D02*
X1012Y976D01*
X0Y975D02*
X7Y975D01*
X1005Y975D02*
X1012Y975D01*
X0Y974D02*
X7Y974D01*
X1005Y974D02*
X1012Y974D01*
X0Y973D02*
X7Y973D01*
X1005Y973D02*
X1012Y973D01*
X0Y972D02*
X7Y972D01*
X1005Y972D02*
X1012Y972D01*
X0Y971D02*
X7Y971D01*
X1005Y971D02*
X1012Y971D01*
X0Y970D02*
X7Y970D01*
X1005Y970D02*
X1012Y970D01*
X0Y969D02*
X7Y969D01*
X1005Y969D02*
X1012Y969D01*
X0Y968D02*
X7Y968D01*
X1005Y968D02*
X1012Y968D01*
X0Y967D02*
X7Y967D01*
X1005Y967D02*
X1012Y967D01*
X0Y966D02*
X7Y966D01*
X1005Y966D02*
X1012Y966D01*
X0Y965D02*
X7Y965D01*
X1005Y965D02*
X1012Y965D01*
X0Y964D02*
X7Y964D01*
X1005Y964D02*
X1012Y964D01*
X0Y963D02*
X7Y963D01*
X1005Y963D02*
X1012Y963D01*
X0Y962D02*
X7Y962D01*
X1005Y962D02*
X1012Y962D01*
X0Y961D02*
X7Y961D01*
X1005Y961D02*
X1012Y961D01*
X0Y960D02*
X7Y960D01*
X1005Y960D02*
X1012Y960D01*
X0Y959D02*
X7Y959D01*
X1005Y959D02*
X1012Y959D01*
X0Y958D02*
X7Y958D01*
X1005Y958D02*
X1012Y958D01*
X0Y957D02*
X7Y957D01*
X1005Y957D02*
X1012Y957D01*
X0Y956D02*
X7Y956D01*
X1005Y956D02*
X1012Y956D01*
X0Y955D02*
X7Y955D01*
X1005Y955D02*
X1012Y955D01*
X0Y954D02*
X7Y954D01*
X1005Y954D02*
X1012Y954D01*
X0Y953D02*
X7Y953D01*
X1005Y953D02*
X1012Y953D01*
X0Y952D02*
X7Y952D01*
X1005Y952D02*
X1012Y952D01*
X0Y951D02*
X7Y951D01*
X1005Y951D02*
X1012Y951D01*
X0Y950D02*
X7Y950D01*
X1005Y950D02*
X1012Y950D01*
X0Y949D02*
X7Y949D01*
X1005Y949D02*
X1012Y949D01*
X0Y948D02*
X7Y948D01*
X1005Y948D02*
X1012Y948D01*
X0Y947D02*
X7Y947D01*
X1005Y947D02*
X1012Y947D01*
X0Y946D02*
X7Y946D01*
X1005Y946D02*
X1012Y946D01*
X0Y945D02*
X7Y945D01*
X1005Y945D02*
X1012Y945D01*
X0Y944D02*
X7Y944D01*
X1005Y944D02*
X1012Y944D01*
X0Y943D02*
X7Y943D01*
X1005Y943D02*
X1012Y943D01*
X0Y942D02*
X7Y942D01*
X1005Y942D02*
X1012Y942D01*
X0Y941D02*
X7Y941D01*
X1005Y941D02*
X1012Y941D01*
X0Y940D02*
X7Y940D01*
X1005Y940D02*
X1012Y940D01*
X0Y939D02*
X7Y939D01*
X1005Y939D02*
X1012Y939D01*
X0Y938D02*
X7Y938D01*
X1005Y938D02*
X1012Y938D01*
X0Y937D02*
X7Y937D01*
X1005Y937D02*
X1012Y937D01*
X0Y936D02*
X7Y936D01*
X1005Y936D02*
X1012Y936D01*
X0Y935D02*
X7Y935D01*
X1005Y935D02*
X1012Y935D01*
X0Y934D02*
X7Y934D01*
X1005Y934D02*
X1012Y934D01*
X0Y933D02*
X7Y933D01*
X1005Y933D02*
X1012Y933D01*
X0Y932D02*
X7Y932D01*
X1005Y932D02*
X1012Y932D01*
X0Y931D02*
X7Y931D01*
X1005Y931D02*
X1012Y931D01*
X0Y930D02*
X7Y930D01*
X1005Y930D02*
X1012Y930D01*
X0Y929D02*
X7Y929D01*
X1005Y929D02*
X1012Y929D01*
X0Y928D02*
X7Y928D01*
X1005Y928D02*
X1012Y928D01*
X0Y927D02*
X7Y927D01*
X1005Y927D02*
X1012Y927D01*
X0Y926D02*
X7Y926D01*
X1005Y926D02*
X1012Y926D01*
X0Y925D02*
X7Y925D01*
X1005Y925D02*
X1012Y925D01*
X0Y924D02*
X7Y924D01*
X1005Y924D02*
X1012Y924D01*
X0Y923D02*
X7Y923D01*
X1005Y923D02*
X1012Y923D01*
X0Y922D02*
X7Y922D01*
X1005Y922D02*
X1012Y922D01*
X0Y921D02*
X7Y921D01*
X1005Y921D02*
X1012Y921D01*
X0Y920D02*
X7Y920D01*
X1005Y920D02*
X1012Y920D01*
X0Y919D02*
X7Y919D01*
X1005Y919D02*
X1012Y919D01*
X0Y918D02*
X7Y918D01*
X1005Y918D02*
X1012Y918D01*
X0Y917D02*
X7Y917D01*
X1005Y917D02*
X1012Y917D01*
X0Y916D02*
X7Y916D01*
X1005Y916D02*
X1012Y916D01*
X0Y915D02*
X7Y915D01*
X1005Y915D02*
X1012Y915D01*
X0Y914D02*
X7Y914D01*
X1005Y914D02*
X1012Y914D01*
X0Y913D02*
X7Y913D01*
X1005Y913D02*
X1012Y913D01*
X0Y912D02*
X7Y912D01*
X1005Y912D02*
X1012Y912D01*
X0Y911D02*
X7Y911D01*
X1005Y911D02*
X1012Y911D01*
X0Y910D02*
X7Y910D01*
X1005Y910D02*
X1012Y910D01*
X0Y909D02*
X7Y909D01*
X1005Y909D02*
X1012Y909D01*
X0Y908D02*
X7Y908D01*
X1005Y908D02*
X1012Y908D01*
X0Y907D02*
X7Y907D01*
X1005Y907D02*
X1012Y907D01*
X0Y906D02*
X7Y906D01*
X1005Y906D02*
X1012Y906D01*
X0Y905D02*
X7Y905D01*
X1005Y905D02*
X1012Y905D01*
X0Y904D02*
X7Y904D01*
X1005Y904D02*
X1012Y904D01*
X0Y903D02*
X7Y903D01*
X1005Y903D02*
X1012Y903D01*
X0Y902D02*
X7Y902D01*
X1005Y902D02*
X1012Y902D01*
X0Y901D02*
X7Y901D01*
X1005Y901D02*
X1012Y901D01*
X0Y900D02*
X7Y900D01*
X1005Y900D02*
X1012Y900D01*
X0Y899D02*
X7Y899D01*
X1005Y899D02*
X1012Y899D01*
X0Y898D02*
X7Y898D01*
X1005Y898D02*
X1012Y898D01*
X0Y897D02*
X7Y897D01*
X1005Y897D02*
X1012Y897D01*
X0Y896D02*
X7Y896D01*
X1005Y896D02*
X1012Y896D01*
X0Y895D02*
X7Y895D01*
X1005Y895D02*
X1012Y895D01*
X0Y894D02*
X7Y894D01*
X1005Y894D02*
X1012Y894D01*
X0Y893D02*
X7Y893D01*
X1005Y893D02*
X1012Y893D01*
X0Y892D02*
X7Y892D01*
X1005Y892D02*
X1012Y892D01*
X0Y891D02*
X7Y891D01*
X1005Y891D02*
X1012Y891D01*
X0Y890D02*
X7Y890D01*
X1005Y890D02*
X1012Y890D01*
X0Y889D02*
X7Y889D01*
X1005Y889D02*
X1012Y889D01*
X0Y888D02*
X7Y888D01*
X1005Y888D02*
X1012Y888D01*
X0Y887D02*
X7Y887D01*
X1005Y887D02*
X1012Y887D01*
X0Y886D02*
X7Y886D01*
X1005Y886D02*
X1012Y886D01*
X0Y885D02*
X7Y885D01*
X1005Y885D02*
X1012Y885D01*
X0Y884D02*
X7Y884D01*
X1005Y884D02*
X1012Y884D01*
X0Y883D02*
X7Y883D01*
X1005Y883D02*
X1012Y883D01*
X0Y882D02*
X7Y882D01*
X1005Y882D02*
X1012Y882D01*
X0Y881D02*
X7Y881D01*
X1005Y881D02*
X1012Y881D01*
X0Y880D02*
X7Y880D01*
X1005Y880D02*
X1012Y880D01*
X0Y879D02*
X7Y879D01*
X1005Y879D02*
X1012Y879D01*
X0Y878D02*
X7Y878D01*
X1005Y878D02*
X1012Y878D01*
X0Y877D02*
X7Y877D01*
X1005Y877D02*
X1012Y877D01*
X0Y876D02*
X7Y876D01*
X1005Y876D02*
X1012Y876D01*
X0Y875D02*
X7Y875D01*
X1005Y875D02*
X1012Y875D01*
X0Y874D02*
X7Y874D01*
X1005Y874D02*
X1012Y874D01*
X0Y873D02*
X7Y873D01*
X1005Y873D02*
X1012Y873D01*
X0Y872D02*
X7Y872D01*
X1005Y872D02*
X1012Y872D01*
X0Y871D02*
X7Y871D01*
X1005Y871D02*
X1012Y871D01*
X0Y870D02*
X7Y870D01*
X1005Y870D02*
X1012Y870D01*
X0Y869D02*
X7Y869D01*
X1005Y869D02*
X1012Y869D01*
X0Y868D02*
X7Y868D01*
X1005Y868D02*
X1012Y868D01*
X0Y867D02*
X7Y867D01*
X1005Y867D02*
X1012Y867D01*
X0Y866D02*
X7Y866D01*
X1005Y866D02*
X1012Y866D01*
X0Y865D02*
X7Y865D01*
X1005Y865D02*
X1012Y865D01*
X0Y864D02*
X7Y864D01*
X1005Y864D02*
X1012Y864D01*
X0Y863D02*
X7Y863D01*
X1005Y863D02*
X1012Y863D01*
X0Y862D02*
X7Y862D01*
X1005Y862D02*
X1012Y862D01*
X0Y861D02*
X7Y861D01*
X1005Y861D02*
X1012Y861D01*
X0Y860D02*
X7Y860D01*
X1005Y860D02*
X1012Y860D01*
X0Y859D02*
X7Y859D01*
X1005Y859D02*
X1012Y859D01*
X0Y858D02*
X7Y858D01*
X1005Y858D02*
X1012Y858D01*
X0Y857D02*
X7Y857D01*
X1005Y857D02*
X1012Y857D01*
X0Y856D02*
X7Y856D01*
X1005Y856D02*
X1012Y856D01*
X0Y855D02*
X7Y855D01*
X1005Y855D02*
X1012Y855D01*
X0Y854D02*
X7Y854D01*
X1005Y854D02*
X1012Y854D01*
X0Y853D02*
X7Y853D01*
X1005Y853D02*
X1012Y853D01*
X0Y852D02*
X7Y852D01*
X1005Y852D02*
X1012Y852D01*
X0Y851D02*
X7Y851D01*
X1005Y851D02*
X1012Y851D01*
X0Y850D02*
X7Y850D01*
X1005Y850D02*
X1012Y850D01*
X0Y849D02*
X7Y849D01*
X1005Y849D02*
X1012Y849D01*
X0Y848D02*
X7Y848D01*
X1005Y848D02*
X1012Y848D01*
X0Y847D02*
X7Y847D01*
X1005Y847D02*
X1012Y847D01*
X0Y846D02*
X7Y846D01*
X1005Y846D02*
X1012Y846D01*
X0Y845D02*
X7Y845D01*
X1005Y845D02*
X1012Y845D01*
X0Y844D02*
X7Y844D01*
X1005Y844D02*
X1012Y844D01*
X0Y843D02*
X7Y843D01*
X1005Y843D02*
X1012Y843D01*
X0Y842D02*
X7Y842D01*
X1005Y842D02*
X1012Y842D01*
X0Y841D02*
X7Y841D01*
X1005Y841D02*
X1012Y841D01*
X0Y840D02*
X7Y840D01*
X1005Y840D02*
X1012Y840D01*
X0Y839D02*
X7Y839D01*
X1005Y839D02*
X1012Y839D01*
X0Y838D02*
X7Y838D01*
X1005Y838D02*
X1012Y838D01*
X0Y837D02*
X7Y837D01*
X1005Y837D02*
X1012Y837D01*
X0Y836D02*
X7Y836D01*
X1005Y836D02*
X1012Y836D01*
X0Y835D02*
X7Y835D01*
X1005Y835D02*
X1012Y835D01*
X0Y834D02*
X7Y834D01*
X1005Y834D02*
X1012Y834D01*
X0Y833D02*
X7Y833D01*
X1005Y833D02*
X1012Y833D01*
X0Y832D02*
X7Y832D01*
X1005Y832D02*
X1012Y832D01*
X0Y831D02*
X7Y831D01*
X1005Y831D02*
X1012Y831D01*
X0Y830D02*
X7Y830D01*
X1005Y830D02*
X1012Y830D01*
X0Y829D02*
X7Y829D01*
X1005Y829D02*
X1012Y829D01*
X0Y828D02*
X7Y828D01*
X1005Y828D02*
X1012Y828D01*
X0Y827D02*
X7Y827D01*
X1005Y827D02*
X1012Y827D01*
X0Y826D02*
X7Y826D01*
X1005Y826D02*
X1012Y826D01*
X0Y825D02*
X7Y825D01*
X1005Y825D02*
X1012Y825D01*
X0Y824D02*
X7Y824D01*
X1005Y824D02*
X1012Y824D01*
X0Y823D02*
X7Y823D01*
X1005Y823D02*
X1012Y823D01*
X0Y822D02*
X7Y822D01*
X1005Y822D02*
X1012Y822D01*
X0Y821D02*
X7Y821D01*
X1005Y821D02*
X1012Y821D01*
X0Y820D02*
X7Y820D01*
X1005Y820D02*
X1012Y820D01*
X0Y819D02*
X7Y819D01*
X1005Y819D02*
X1012Y819D01*
X0Y818D02*
X7Y818D01*
X1005Y818D02*
X1012Y818D01*
X0Y817D02*
X7Y817D01*
X1005Y817D02*
X1012Y817D01*
X0Y816D02*
X7Y816D01*
X1005Y816D02*
X1012Y816D01*
X0Y815D02*
X7Y815D01*
X1005Y815D02*
X1012Y815D01*
X0Y814D02*
X7Y814D01*
X1005Y814D02*
X1012Y814D01*
X0Y813D02*
X7Y813D01*
X1005Y813D02*
X1012Y813D01*
X0Y812D02*
X7Y812D01*
X1005Y812D02*
X1012Y812D01*
X0Y811D02*
X7Y811D01*
X1005Y811D02*
X1012Y811D01*
X0Y810D02*
X7Y810D01*
X1005Y810D02*
X1012Y810D01*
X0Y809D02*
X7Y809D01*
X1005Y809D02*
X1012Y809D01*
X0Y808D02*
X7Y808D01*
X1005Y808D02*
X1012Y808D01*
X0Y807D02*
X7Y807D01*
X1005Y807D02*
X1012Y807D01*
X0Y806D02*
X7Y806D01*
X1005Y806D02*
X1012Y806D01*
X0Y805D02*
X7Y805D01*
X1005Y805D02*
X1012Y805D01*
X0Y804D02*
X7Y804D01*
X1005Y804D02*
X1012Y804D01*
X0Y803D02*
X7Y803D01*
X1005Y803D02*
X1012Y803D01*
X0Y802D02*
X7Y802D01*
X1005Y802D02*
X1012Y802D01*
X0Y801D02*
X7Y801D01*
X1005Y801D02*
X1012Y801D01*
X0Y800D02*
X7Y800D01*
X1005Y800D02*
X1012Y800D01*
X0Y799D02*
X7Y799D01*
X1005Y799D02*
X1012Y799D01*
X0Y798D02*
X7Y798D01*
X1005Y798D02*
X1012Y798D01*
X0Y797D02*
X7Y797D01*
X1005Y797D02*
X1012Y797D01*
X0Y796D02*
X7Y796D01*
X1005Y796D02*
X1012Y796D01*
X0Y795D02*
X7Y795D01*
X1005Y795D02*
X1012Y795D01*
X0Y794D02*
X7Y794D01*
X1005Y794D02*
X1012Y794D01*
X0Y793D02*
X7Y793D01*
X1005Y793D02*
X1012Y793D01*
X0Y792D02*
X7Y792D01*
X1005Y792D02*
X1012Y792D01*
X0Y791D02*
X7Y791D01*
X1005Y791D02*
X1012Y791D01*
X0Y790D02*
X7Y790D01*
X1005Y790D02*
X1012Y790D01*
X0Y789D02*
X7Y789D01*
X1005Y789D02*
X1012Y789D01*
X0Y788D02*
X7Y788D01*
X1005Y788D02*
X1012Y788D01*
X0Y787D02*
X7Y787D01*
X1005Y787D02*
X1012Y787D01*
X0Y786D02*
X7Y786D01*
X1005Y786D02*
X1012Y786D01*
X0Y785D02*
X7Y785D01*
X1005Y785D02*
X1012Y785D01*
X0Y784D02*
X7Y784D01*
X1005Y784D02*
X1012Y784D01*
X0Y783D02*
X7Y783D01*
X1005Y783D02*
X1012Y783D01*
X0Y782D02*
X7Y782D01*
X1005Y782D02*
X1012Y782D01*
X0Y781D02*
X7Y781D01*
X1005Y781D02*
X1012Y781D01*
X0Y780D02*
X7Y780D01*
X1005Y780D02*
X1012Y780D01*
X0Y779D02*
X7Y779D01*
X1005Y779D02*
X1012Y779D01*
X0Y778D02*
X7Y778D01*
X1005Y778D02*
X1012Y778D01*
X0Y777D02*
X7Y777D01*
X1005Y777D02*
X1012Y777D01*
X0Y776D02*
X7Y776D01*
X1005Y776D02*
X1012Y776D01*
X0Y775D02*
X7Y775D01*
X1005Y775D02*
X1012Y775D01*
X0Y774D02*
X7Y774D01*
X1005Y774D02*
X1012Y774D01*
X0Y773D02*
X7Y773D01*
X1005Y773D02*
X1012Y773D01*
X0Y772D02*
X7Y772D01*
X1005Y772D02*
X1012Y772D01*
X0Y771D02*
X7Y771D01*
X1005Y771D02*
X1012Y771D01*
X0Y770D02*
X7Y770D01*
X1005Y770D02*
X1012Y770D01*
X0Y769D02*
X7Y769D01*
X1005Y769D02*
X1012Y769D01*
X0Y768D02*
X7Y768D01*
X1005Y768D02*
X1012Y768D01*
X0Y767D02*
X7Y767D01*
X1005Y767D02*
X1012Y767D01*
X0Y766D02*
X7Y766D01*
X1005Y766D02*
X1012Y766D01*
X0Y765D02*
X7Y765D01*
X1005Y765D02*
X1012Y765D01*
X0Y764D02*
X7Y764D01*
X1005Y764D02*
X1012Y764D01*
X0Y763D02*
X7Y763D01*
X1005Y763D02*
X1012Y763D01*
X0Y762D02*
X7Y762D01*
X1005Y762D02*
X1012Y762D01*
X0Y761D02*
X7Y761D01*
X1005Y761D02*
X1012Y761D01*
X0Y760D02*
X7Y760D01*
X1005Y760D02*
X1012Y760D01*
X0Y759D02*
X7Y759D01*
X1005Y759D02*
X1012Y759D01*
X0Y758D02*
X7Y758D01*
X1005Y758D02*
X1012Y758D01*
X0Y757D02*
X7Y757D01*
X1005Y757D02*
X1012Y757D01*
X0Y756D02*
X7Y756D01*
X1005Y756D02*
X1012Y756D01*
X0Y755D02*
X7Y755D01*
X1005Y755D02*
X1012Y755D01*
X0Y754D02*
X7Y754D01*
X1005Y754D02*
X1012Y754D01*
X0Y753D02*
X7Y753D01*
X1005Y753D02*
X1012Y753D01*
X0Y752D02*
X7Y752D01*
X1005Y752D02*
X1012Y752D01*
X0Y751D02*
X7Y751D01*
X1005Y751D02*
X1012Y751D01*
X0Y750D02*
X7Y750D01*
X1005Y750D02*
X1012Y750D01*
X0Y749D02*
X7Y749D01*
X1005Y749D02*
X1012Y749D01*
X0Y748D02*
X7Y748D01*
X1005Y748D02*
X1012Y748D01*
X0Y747D02*
X7Y747D01*
X1005Y747D02*
X1012Y747D01*
X0Y746D02*
X7Y746D01*
X1005Y746D02*
X1012Y746D01*
X0Y745D02*
X7Y745D01*
X1005Y745D02*
X1012Y745D01*
X0Y744D02*
X7Y744D01*
X1005Y744D02*
X1012Y744D01*
X0Y743D02*
X7Y743D01*
X1005Y743D02*
X1012Y743D01*
X0Y742D02*
X7Y742D01*
X1005Y742D02*
X1012Y742D01*
X0Y741D02*
X7Y741D01*
X1005Y741D02*
X1012Y741D01*
X0Y740D02*
X7Y740D01*
X1005Y740D02*
X1012Y740D01*
X0Y739D02*
X7Y739D01*
X1005Y739D02*
X1012Y739D01*
X0Y738D02*
X7Y738D01*
X1005Y738D02*
X1012Y738D01*
X0Y737D02*
X7Y737D01*
X1005Y737D02*
X1012Y737D01*
X0Y736D02*
X7Y736D01*
X1005Y736D02*
X1012Y736D01*
X0Y735D02*
X7Y735D01*
X1005Y735D02*
X1012Y735D01*
X0Y734D02*
X7Y734D01*
X1005Y734D02*
X1012Y734D01*
X0Y733D02*
X7Y733D01*
X1005Y733D02*
X1012Y733D01*
X0Y732D02*
X7Y732D01*
X1005Y732D02*
X1012Y732D01*
X0Y731D02*
X7Y731D01*
X1005Y731D02*
X1012Y731D01*
X0Y730D02*
X7Y730D01*
X1005Y730D02*
X1012Y730D01*
X0Y729D02*
X7Y729D01*
X1005Y729D02*
X1012Y729D01*
X0Y728D02*
X7Y728D01*
X1005Y728D02*
X1012Y728D01*
X0Y727D02*
X7Y727D01*
X1005Y727D02*
X1012Y727D01*
X0Y726D02*
X7Y726D01*
X1005Y726D02*
X1012Y726D01*
X0Y725D02*
X7Y725D01*
X1005Y725D02*
X1012Y725D01*
X0Y724D02*
X7Y724D01*
X1005Y724D02*
X1012Y724D01*
X0Y723D02*
X7Y723D01*
X1005Y723D02*
X1012Y723D01*
X0Y722D02*
X7Y722D01*
X1005Y722D02*
X1012Y722D01*
X0Y721D02*
X7Y721D01*
X1005Y721D02*
X1012Y721D01*
X0Y720D02*
X7Y720D01*
X1005Y720D02*
X1012Y720D01*
X0Y719D02*
X7Y719D01*
X1005Y719D02*
X1012Y719D01*
X0Y718D02*
X7Y718D01*
X1005Y718D02*
X1012Y718D01*
X0Y717D02*
X7Y717D01*
X1005Y717D02*
X1012Y717D01*
X0Y716D02*
X7Y716D01*
X1005Y716D02*
X1012Y716D01*
X0Y715D02*
X7Y715D01*
X1005Y715D02*
X1012Y715D01*
X0Y714D02*
X7Y714D01*
X1005Y714D02*
X1012Y714D01*
X0Y713D02*
X7Y713D01*
X1005Y713D02*
X1012Y713D01*
X0Y712D02*
X7Y712D01*
X1005Y712D02*
X1012Y712D01*
X0Y711D02*
X7Y711D01*
X1005Y711D02*
X1012Y711D01*
X0Y710D02*
X7Y710D01*
X1005Y710D02*
X1012Y710D01*
X0Y709D02*
X7Y709D01*
X1005Y709D02*
X1012Y709D01*
X0Y708D02*
X7Y708D01*
X1005Y708D02*
X1012Y708D01*
X0Y707D02*
X7Y707D01*
X1005Y707D02*
X1012Y707D01*
X0Y706D02*
X7Y706D01*
X1005Y706D02*
X1012Y706D01*
X0Y705D02*
X7Y705D01*
X1005Y705D02*
X1012Y705D01*
X0Y704D02*
X7Y704D01*
X1005Y704D02*
X1012Y704D01*
X0Y703D02*
X7Y703D01*
X1005Y703D02*
X1012Y703D01*
X0Y702D02*
X7Y702D01*
X1005Y702D02*
X1012Y702D01*
X0Y701D02*
X7Y701D01*
X1005Y701D02*
X1012Y701D01*
X0Y700D02*
X7Y700D01*
X1005Y700D02*
X1012Y700D01*
X0Y699D02*
X7Y699D01*
X1005Y699D02*
X1012Y699D01*
X0Y698D02*
X7Y698D01*
X1005Y698D02*
X1012Y698D01*
X0Y697D02*
X7Y697D01*
X1005Y697D02*
X1012Y697D01*
X0Y696D02*
X7Y696D01*
X1005Y696D02*
X1012Y696D01*
X0Y695D02*
X7Y695D01*
X1005Y695D02*
X1012Y695D01*
X0Y694D02*
X7Y694D01*
X1005Y694D02*
X1012Y694D01*
X0Y693D02*
X7Y693D01*
X1005Y693D02*
X1012Y693D01*
X0Y692D02*
X7Y692D01*
X1005Y692D02*
X1012Y692D01*
X0Y691D02*
X7Y691D01*
X1005Y691D02*
X1012Y691D01*
X0Y690D02*
X7Y690D01*
X1005Y690D02*
X1012Y690D01*
X0Y689D02*
X7Y689D01*
X1005Y689D02*
X1012Y689D01*
X0Y688D02*
X7Y688D01*
X1005Y688D02*
X1012Y688D01*
X0Y687D02*
X7Y687D01*
X1005Y687D02*
X1012Y687D01*
X0Y686D02*
X7Y686D01*
X1005Y686D02*
X1012Y686D01*
X0Y685D02*
X7Y685D01*
X1005Y685D02*
X1012Y685D01*
X0Y684D02*
X7Y684D01*
X1005Y684D02*
X1012Y684D01*
X0Y683D02*
X7Y683D01*
X1005Y683D02*
X1012Y683D01*
X0Y682D02*
X7Y682D01*
X1005Y682D02*
X1012Y682D01*
X0Y681D02*
X7Y681D01*
X1005Y681D02*
X1012Y681D01*
X0Y680D02*
X7Y680D01*
X1005Y680D02*
X1012Y680D01*
X0Y679D02*
X7Y679D01*
X1005Y679D02*
X1012Y679D01*
X0Y678D02*
X7Y678D01*
X1005Y678D02*
X1012Y678D01*
X0Y677D02*
X7Y677D01*
X1005Y677D02*
X1012Y677D01*
X0Y676D02*
X7Y676D01*
X1005Y676D02*
X1012Y676D01*
X0Y675D02*
X7Y675D01*
X1005Y675D02*
X1012Y675D01*
X0Y674D02*
X7Y674D01*
X1005Y674D02*
X1012Y674D01*
X0Y673D02*
X7Y673D01*
X1005Y673D02*
X1012Y673D01*
X0Y672D02*
X7Y672D01*
X1005Y672D02*
X1012Y672D01*
X0Y671D02*
X7Y671D01*
X1005Y671D02*
X1012Y671D01*
X0Y670D02*
X7Y670D01*
X1005Y670D02*
X1012Y670D01*
X0Y669D02*
X7Y669D01*
X1005Y669D02*
X1012Y669D01*
X0Y668D02*
X7Y668D01*
X1005Y668D02*
X1012Y668D01*
X0Y667D02*
X7Y667D01*
X1005Y667D02*
X1012Y667D01*
X0Y666D02*
X7Y666D01*
X1005Y666D02*
X1012Y666D01*
X0Y665D02*
X7Y665D01*
X1005Y665D02*
X1012Y665D01*
X0Y664D02*
X7Y664D01*
X1005Y664D02*
X1012Y664D01*
X0Y663D02*
X7Y663D01*
X1005Y663D02*
X1012Y663D01*
X0Y662D02*
X7Y662D01*
X1005Y662D02*
X1012Y662D01*
X0Y661D02*
X7Y661D01*
X1005Y661D02*
X1012Y661D01*
X0Y660D02*
X7Y660D01*
X1005Y660D02*
X1012Y660D01*
X0Y659D02*
X7Y659D01*
X1005Y659D02*
X1012Y659D01*
X0Y658D02*
X7Y658D01*
X1005Y658D02*
X1012Y658D01*
X0Y657D02*
X7Y657D01*
X1005Y657D02*
X1012Y657D01*
X0Y656D02*
X7Y656D01*
X1005Y656D02*
X1012Y656D01*
X0Y655D02*
X7Y655D01*
X1005Y655D02*
X1012Y655D01*
X0Y654D02*
X7Y654D01*
X1005Y654D02*
X1012Y654D01*
X0Y653D02*
X7Y653D01*
X1005Y653D02*
X1012Y653D01*
X0Y652D02*
X7Y652D01*
X1005Y652D02*
X1012Y652D01*
X0Y651D02*
X7Y651D01*
X1005Y651D02*
X1012Y651D01*
X0Y650D02*
X7Y650D01*
X1005Y650D02*
X1012Y650D01*
X0Y649D02*
X7Y649D01*
X1005Y649D02*
X1012Y649D01*
X0Y648D02*
X7Y648D01*
X1005Y648D02*
X1012Y648D01*
X0Y647D02*
X7Y647D01*
X1005Y647D02*
X1012Y647D01*
X0Y646D02*
X7Y646D01*
X1005Y646D02*
X1012Y646D01*
X0Y645D02*
X7Y645D01*
X1005Y645D02*
X1012Y645D01*
X0Y644D02*
X7Y644D01*
X1005Y644D02*
X1012Y644D01*
X0Y643D02*
X7Y643D01*
X1005Y643D02*
X1012Y643D01*
X0Y642D02*
X7Y642D01*
X1005Y642D02*
X1012Y642D01*
X0Y641D02*
X7Y641D01*
X1005Y641D02*
X1012Y641D01*
X0Y640D02*
X7Y640D01*
X1005Y640D02*
X1012Y640D01*
X0Y639D02*
X7Y639D01*
X1005Y639D02*
X1012Y639D01*
X0Y638D02*
X7Y638D01*
X1005Y638D02*
X1012Y638D01*
X0Y637D02*
X7Y637D01*
X1005Y637D02*
X1012Y637D01*
X0Y636D02*
X7Y636D01*
X1005Y636D02*
X1012Y636D01*
X0Y635D02*
X7Y635D01*
X1005Y635D02*
X1012Y635D01*
X0Y634D02*
X7Y634D01*
X1005Y634D02*
X1012Y634D01*
X0Y633D02*
X7Y633D01*
X1005Y633D02*
X1012Y633D01*
X0Y632D02*
X7Y632D01*
X1005Y632D02*
X1012Y632D01*
X0Y631D02*
X7Y631D01*
X1005Y631D02*
X1012Y631D01*
X0Y630D02*
X7Y630D01*
X1005Y630D02*
X1012Y630D01*
X0Y629D02*
X7Y629D01*
X1005Y629D02*
X1012Y629D01*
X0Y628D02*
X7Y628D01*
X1005Y628D02*
X1012Y628D01*
X0Y627D02*
X7Y627D01*
X1005Y627D02*
X1012Y627D01*
X0Y626D02*
X7Y626D01*
X1005Y626D02*
X1012Y626D01*
X0Y625D02*
X7Y625D01*
X1005Y625D02*
X1012Y625D01*
X0Y624D02*
X7Y624D01*
X1005Y624D02*
X1012Y624D01*
X0Y623D02*
X7Y623D01*
X1005Y623D02*
X1012Y623D01*
X0Y622D02*
X7Y622D01*
X1005Y622D02*
X1012Y622D01*
X0Y621D02*
X7Y621D01*
X1005Y621D02*
X1012Y621D01*
X0Y620D02*
X7Y620D01*
X1005Y620D02*
X1012Y620D01*
X0Y619D02*
X7Y619D01*
X1005Y619D02*
X1012Y619D01*
X0Y618D02*
X7Y618D01*
X1005Y618D02*
X1012Y618D01*
X0Y617D02*
X7Y617D01*
X1005Y617D02*
X1012Y617D01*
X0Y616D02*
X7Y616D01*
X1005Y616D02*
X1012Y616D01*
X0Y615D02*
X7Y615D01*
X1005Y615D02*
X1012Y615D01*
X0Y614D02*
X7Y614D01*
X808Y614D02*
X835Y614D01*
X1005Y614D02*
X1012Y614D01*
X0Y613D02*
X7Y613D01*
X808Y613D02*
X837Y613D01*
X1005Y613D02*
X1012Y613D01*
X0Y612D02*
X7Y612D01*
X808Y612D02*
X838Y612D01*
X1005Y612D02*
X1012Y612D01*
X0Y611D02*
X7Y611D01*
X808Y611D02*
X839Y611D01*
X1005Y611D02*
X1012Y611D01*
X0Y610D02*
X7Y610D01*
X808Y610D02*
X840Y610D01*
X1005Y610D02*
X1012Y610D01*
X0Y609D02*
X7Y609D01*
X808Y609D02*
X841Y609D01*
X1005Y609D02*
X1012Y609D01*
X0Y608D02*
X7Y608D01*
X808Y608D02*
X841Y608D01*
X1005Y608D02*
X1012Y608D01*
X0Y607D02*
X7Y607D01*
X808Y607D02*
X814Y607D01*
X834Y607D02*
X841Y607D01*
X1005Y607D02*
X1012Y607D01*
X0Y606D02*
X7Y606D01*
X808Y606D02*
X814Y606D01*
X835Y606D02*
X842Y606D01*
X1005Y606D02*
X1012Y606D01*
X0Y605D02*
X7Y605D01*
X808Y605D02*
X814Y605D01*
X836Y605D02*
X842Y605D01*
X1005Y605D02*
X1012Y605D01*
X0Y604D02*
X7Y604D01*
X808Y604D02*
X814Y604D01*
X836Y604D02*
X842Y604D01*
X1005Y604D02*
X1012Y604D01*
X0Y603D02*
X7Y603D01*
X808Y603D02*
X814Y603D01*
X836Y603D02*
X842Y603D01*
X1005Y603D02*
X1012Y603D01*
X0Y602D02*
X7Y602D01*
X808Y602D02*
X814Y602D01*
X836Y602D02*
X842Y602D01*
X1005Y602D02*
X1012Y602D01*
X0Y601D02*
X7Y601D01*
X808Y601D02*
X814Y601D01*
X836Y601D02*
X842Y601D01*
X1005Y601D02*
X1012Y601D01*
X0Y600D02*
X7Y600D01*
X808Y600D02*
X814Y600D01*
X836Y600D02*
X842Y600D01*
X1005Y600D02*
X1012Y600D01*
X0Y599D02*
X7Y599D01*
X808Y599D02*
X814Y599D01*
X835Y599D02*
X842Y599D01*
X867Y599D02*
X883Y599D01*
X982Y599D02*
X985Y599D01*
X1005Y599D02*
X1013Y599D01*
X0Y598D02*
X7Y598D01*
X808Y598D02*
X814Y598D01*
X835Y598D02*
X842Y598D01*
X865Y598D02*
X885Y598D01*
X983Y598D02*
X987Y598D01*
X0Y597D02*
X7Y597D01*
X808Y597D02*
X815Y597D01*
X833Y597D02*
X841Y597D01*
X864Y597D02*
X886Y597D01*
X983Y597D02*
X988Y597D01*
X0Y596D02*
X7Y596D01*
X808Y596D02*
X841Y596D01*
X863Y596D02*
X887Y596D01*
X983Y596D02*
X989Y596D01*
X0Y595D02*
X7Y595D01*
X808Y595D02*
X840Y595D01*
X862Y595D02*
X889Y595D01*
X984Y595D02*
X989Y595D01*
X0Y594D02*
X7Y594D01*
X808Y594D02*
X840Y594D01*
X861Y594D02*
X889Y594D01*
X984Y594D02*
X990Y594D01*
X0Y593D02*
X7Y593D01*
X808Y593D02*
X839Y593D01*
X860Y593D02*
X890Y593D01*
X984Y593D02*
X990Y593D01*
X0Y592D02*
X7Y592D01*
X808Y592D02*
X837Y592D01*
X860Y592D02*
X868Y592D01*
X882Y592D02*
X890Y592D01*
X985Y592D02*
X991Y592D01*
X0Y591D02*
X7Y591D01*
X808Y591D02*
X836Y591D01*
X859Y591D02*
X867Y591D01*
X884Y591D02*
X890Y591D01*
X985Y591D02*
X991Y591D01*
X0Y590D02*
X7Y590D01*
X808Y590D02*
X832Y590D01*
X859Y590D02*
X866Y590D01*
X885Y590D02*
X890Y590D01*
X985Y590D02*
X991Y590D01*
X0Y589D02*
X7Y589D01*
X808Y589D02*
X814Y589D01*
X821Y589D02*
X828Y589D01*
X859Y589D02*
X865Y589D01*
X885Y589D02*
X890Y589D01*
X985Y589D02*
X991Y589D01*
X0Y588D02*
X7Y588D01*
X808Y588D02*
X814Y588D01*
X821Y588D02*
X828Y588D01*
X858Y588D02*
X864Y588D01*
X886Y588D02*
X890Y588D01*
X986Y588D02*
X991Y588D01*
X0Y587D02*
X7Y587D01*
X808Y587D02*
X814Y587D01*
X822Y587D02*
X829Y587D01*
X858Y587D02*
X864Y587D01*
X886Y587D02*
X889Y587D01*
X986Y587D02*
X991Y587D01*
X0Y586D02*
X7Y586D01*
X808Y586D02*
X814Y586D01*
X822Y586D02*
X830Y586D01*
X858Y586D02*
X864Y586D01*
X886Y586D02*
X889Y586D01*
X986Y586D02*
X991Y586D01*
X0Y585D02*
X7Y585D01*
X808Y585D02*
X814Y585D01*
X823Y585D02*
X830Y585D01*
X858Y585D02*
X864Y585D01*
X886Y585D02*
X889Y585D01*
X986Y585D02*
X991Y585D01*
X0Y584D02*
X7Y584D01*
X808Y584D02*
X814Y584D01*
X824Y584D02*
X831Y584D01*
X858Y584D02*
X864Y584D01*
X886Y584D02*
X889Y584D01*
X986Y584D02*
X991Y584D01*
X0Y583D02*
X7Y583D01*
X808Y583D02*
X814Y583D01*
X824Y583D02*
X831Y583D01*
X858Y583D02*
X864Y583D01*
X886Y583D02*
X889Y583D01*
X986Y583D02*
X991Y583D01*
X0Y582D02*
X7Y582D01*
X808Y582D02*
X814Y582D01*
X825Y582D02*
X832Y582D01*
X858Y582D02*
X889Y582D01*
X986Y582D02*
X991Y582D01*
X0Y581D02*
X7Y581D01*
X808Y581D02*
X814Y581D01*
X825Y581D02*
X833Y581D01*
X858Y581D02*
X889Y581D01*
X986Y581D02*
X991Y581D01*
X0Y580D02*
X7Y580D01*
X808Y580D02*
X814Y580D01*
X826Y580D02*
X833Y580D01*
X858Y580D02*
X889Y580D01*
X986Y580D02*
X991Y580D01*
X0Y579D02*
X7Y579D01*
X808Y579D02*
X814Y579D01*
X827Y579D02*
X834Y579D01*
X858Y579D02*
X889Y579D01*
X986Y579D02*
X991Y579D01*
X0Y578D02*
X7Y578D01*
X808Y578D02*
X814Y578D01*
X827Y578D02*
X834Y578D01*
X858Y578D02*
X889Y578D01*
X986Y578D02*
X991Y578D01*
X0Y577D02*
X7Y577D01*
X808Y577D02*
X814Y577D01*
X828Y577D02*
X835Y577D01*
X858Y577D02*
X889Y577D01*
X986Y577D02*
X991Y577D01*
X1005Y577D02*
X1012Y577D01*
X0Y576D02*
X7Y576D01*
X808Y576D02*
X814Y576D01*
X828Y576D02*
X835Y576D01*
X858Y576D02*
X889Y576D01*
X986Y576D02*
X991Y576D01*
X1005Y576D02*
X1012Y576D01*
X0Y575D02*
X7Y575D01*
X808Y575D02*
X814Y575D01*
X829Y575D02*
X836Y575D01*
X858Y575D02*
X865Y575D01*
X986Y575D02*
X991Y575D01*
X1005Y575D02*
X1012Y575D01*
X0Y574D02*
X7Y574D01*
X808Y574D02*
X814Y574D01*
X829Y574D02*
X837Y574D01*
X858Y574D02*
X864Y574D01*
X986Y574D02*
X992Y574D01*
X1005Y574D02*
X1012Y574D01*
X0Y573D02*
X7Y573D01*
X808Y573D02*
X814Y573D01*
X830Y573D02*
X837Y573D01*
X858Y573D02*
X864Y573D01*
X986Y573D02*
X992Y573D01*
X1005Y573D02*
X1012Y573D01*
X0Y572D02*
X7Y572D01*
X808Y572D02*
X814Y572D01*
X831Y572D02*
X838Y572D01*
X858Y572D02*
X865Y572D01*
X986Y572D02*
X992Y572D01*
X1005Y572D02*
X1012Y572D01*
X0Y571D02*
X7Y571D01*
X808Y571D02*
X814Y571D01*
X831Y571D02*
X838Y571D01*
X859Y571D02*
X865Y571D01*
X985Y571D02*
X992Y571D01*
X1005Y571D02*
X1012Y571D01*
X0Y570D02*
X7Y570D01*
X808Y570D02*
X814Y570D01*
X832Y570D02*
X839Y570D01*
X859Y570D02*
X866Y570D01*
X985Y570D02*
X992Y570D01*
X1005Y570D02*
X1012Y570D01*
X0Y569D02*
X7Y569D01*
X808Y569D02*
X814Y569D01*
X832Y569D02*
X840Y569D01*
X859Y569D02*
X867Y569D01*
X985Y569D02*
X992Y569D01*
X1005Y569D02*
X1012Y569D01*
X0Y568D02*
X7Y568D01*
X808Y568D02*
X814Y568D01*
X833Y568D02*
X840Y568D01*
X860Y568D02*
X869Y568D01*
X985Y568D02*
X992Y568D01*
X1005Y568D02*
X1012Y568D01*
X0Y567D02*
X7Y567D01*
X808Y567D02*
X814Y567D01*
X834Y567D02*
X841Y567D01*
X860Y567D02*
X890Y567D01*
X984Y567D02*
X992Y567D01*
X1005Y567D02*
X1012Y567D01*
X0Y566D02*
X7Y566D01*
X808Y566D02*
X814Y566D01*
X834Y566D02*
X841Y566D01*
X861Y566D02*
X891Y566D01*
X984Y566D02*
X992Y566D01*
X1005Y566D02*
X1012Y566D01*
X0Y565D02*
X7Y565D01*
X808Y565D02*
X814Y565D01*
X835Y565D02*
X842Y565D01*
X862Y565D02*
X891Y565D01*
X984Y565D02*
X992Y565D01*
X1005Y565D02*
X1012Y565D01*
X0Y564D02*
X7Y564D01*
X808Y564D02*
X814Y564D01*
X835Y564D02*
X842Y564D01*
X863Y564D02*
X892Y564D01*
X983Y564D02*
X992Y564D01*
X1005Y564D02*
X1012Y564D01*
X0Y563D02*
X7Y563D01*
X809Y563D02*
X814Y563D01*
X836Y563D02*
X842Y563D01*
X864Y563D02*
X892Y563D01*
X983Y563D02*
X983Y563D01*
X986Y563D02*
X992Y563D01*
X1005Y563D02*
X1012Y563D01*
X0Y562D02*
X7Y562D01*
X809Y562D02*
X814Y562D01*
X837Y562D02*
X841Y562D01*
X866Y562D02*
X891Y562D01*
X987Y562D02*
X991Y562D01*
X1005Y562D02*
X1012Y562D01*
X0Y561D02*
X7Y561D01*
X810Y561D02*
X813Y561D01*
X838Y561D02*
X840Y561D01*
X868Y561D02*
X890Y561D01*
X988Y561D02*
X990Y561D01*
X1005Y561D02*
X1012Y561D01*
X0Y560D02*
X7Y560D01*
X1005Y560D02*
X1012Y560D01*
X0Y559D02*
X7Y559D01*
X1005Y559D02*
X1012Y559D01*
X0Y558D02*
X7Y558D01*
X1005Y558D02*
X1012Y558D01*
X0Y557D02*
X7Y557D01*
X1005Y557D02*
X1012Y557D01*
X0Y556D02*
X7Y556D01*
X1005Y556D02*
X1012Y556D01*
X0Y555D02*
X7Y555D01*
X1005Y555D02*
X1012Y555D01*
X0Y554D02*
X7Y554D01*
X1005Y554D02*
X1012Y554D01*
X0Y553D02*
X7Y553D01*
X1005Y553D02*
X1012Y553D01*
X0Y552D02*
X7Y552D01*
X0Y551D02*
X7Y551D01*
X0Y550D02*
X7Y550D01*
X0Y549D02*
X7Y549D01*
X0Y548D02*
X7Y548D01*
X0Y547D02*
X7Y547D01*
X0Y546D02*
X7Y546D01*
X0Y545D02*
X7Y545D01*
X1005Y545D02*
X1012Y545D01*
X0Y544D02*
X7Y544D01*
X1005Y544D02*
X1012Y544D01*
X0Y543D02*
X7Y543D01*
X1005Y543D02*
X1012Y543D01*
X0Y542D02*
X7Y542D01*
X1005Y542D02*
X1012Y542D01*
X0Y541D02*
X7Y541D01*
X1005Y541D02*
X1012Y541D01*
X0Y540D02*
X7Y540D01*
X1005Y540D02*
X1012Y540D01*
X0Y539D02*
X7Y539D01*
X1005Y539D02*
X1012Y539D01*
X0Y538D02*
X7Y538D01*
X1005Y538D02*
X1012Y538D01*
X0Y537D02*
X7Y537D01*
X1005Y537D02*
X1012Y537D01*
X0Y536D02*
X7Y536D01*
X1005Y536D02*
X1012Y536D01*
X0Y535D02*
X7Y535D01*
X1005Y535D02*
X1012Y535D01*
X0Y534D02*
X7Y534D01*
X194Y534D02*
X798Y534D01*
X1005Y534D02*
X1012Y534D01*
X0Y533D02*
X7Y533D01*
X194Y533D02*
X799Y533D01*
X1005Y533D02*
X1012Y533D01*
X0Y532D02*
X7Y532D01*
X193Y532D02*
X799Y532D01*
X1005Y532D02*
X1012Y532D01*
X0Y531D02*
X7Y531D01*
X193Y531D02*
X799Y531D01*
X1005Y531D02*
X1012Y531D01*
X0Y530D02*
X7Y530D01*
X193Y530D02*
X799Y530D01*
X1005Y530D02*
X1012Y530D01*
X0Y529D02*
X7Y529D01*
X193Y529D02*
X318Y529D01*
X324Y529D02*
X418Y529D01*
X424Y529D02*
X518Y529D01*
X524Y529D02*
X618Y529D01*
X624Y529D02*
X799Y529D01*
X1005Y529D02*
X1012Y529D01*
X0Y528D02*
X7Y528D01*
X194Y528D02*
X311Y528D01*
X331Y528D02*
X411Y528D01*
X431Y528D02*
X511Y528D01*
X531Y528D02*
X611Y528D01*
X631Y528D02*
X798Y528D01*
X1005Y528D02*
X1012Y528D01*
X0Y527D02*
X7Y527D01*
X196Y527D02*
X308Y527D01*
X335Y527D02*
X408Y527D01*
X435Y527D02*
X508Y527D01*
X535Y527D02*
X607Y527D01*
X635Y527D02*
X796Y527D01*
X1005Y527D02*
X1012Y527D01*
X0Y526D02*
X7Y526D01*
X1005Y526D02*
X1012Y526D01*
X0Y525D02*
X7Y525D01*
X1005Y525D02*
X1012Y525D01*
X0Y524D02*
X7Y524D01*
X1005Y524D02*
X1012Y524D01*
X0Y523D02*
X7Y523D01*
X1005Y523D02*
X1012Y523D01*
X0Y522D02*
X7Y522D01*
X1005Y522D02*
X1012Y522D01*
X0Y521D02*
X7Y521D01*
X1005Y521D02*
X1012Y521D01*
X0Y520D02*
X7Y520D01*
X1005Y520D02*
X1012Y520D01*
X0Y519D02*
X7Y519D01*
X1005Y519D02*
X1012Y519D01*
X0Y518D02*
X7Y518D01*
X1005Y518D02*
X1012Y518D01*
X0Y517D02*
X7Y517D01*
X1005Y517D02*
X1012Y517D01*
X0Y516D02*
X7Y516D01*
X1005Y516D02*
X1012Y516D01*
X0Y515D02*
X7Y515D01*
X1005Y515D02*
X1012Y515D01*
X0Y514D02*
X7Y514D01*
X1005Y514D02*
X1012Y514D01*
X0Y513D02*
X7Y513D01*
X1005Y513D02*
X1012Y513D01*
X0Y512D02*
X7Y512D01*
X1005Y512D02*
X1012Y512D01*
X0Y511D02*
X7Y511D01*
X1005Y511D02*
X1012Y511D01*
X0Y510D02*
X7Y510D01*
X1005Y510D02*
X1012Y510D01*
X0Y509D02*
X7Y509D01*
X1005Y509D02*
X1012Y509D01*
X0Y508D02*
X7Y508D01*
X1005Y508D02*
X1012Y508D01*
X0Y507D02*
X7Y507D01*
X1005Y507D02*
X1012Y507D01*
X0Y506D02*
X7Y506D01*
X1005Y506D02*
X1012Y506D01*
X0Y505D02*
X7Y505D01*
X1005Y505D02*
X1012Y505D01*
X0Y504D02*
X7Y504D01*
X1005Y504D02*
X1012Y504D01*
X0Y503D02*
X7Y503D01*
X1005Y503D02*
X1012Y503D01*
X0Y502D02*
X7Y502D01*
X1005Y502D02*
X1012Y502D01*
X0Y501D02*
X7Y501D01*
X1005Y501D02*
X1012Y501D01*
X0Y500D02*
X7Y500D01*
X1005Y500D02*
X1012Y500D01*
X0Y499D02*
X7Y499D01*
X1005Y499D02*
X1012Y499D01*
X0Y498D02*
X7Y498D01*
X1005Y498D02*
X1012Y498D01*
X0Y497D02*
X7Y497D01*
X1005Y497D02*
X1012Y497D01*
X0Y496D02*
X7Y496D01*
X1005Y496D02*
X1012Y496D01*
X0Y495D02*
X7Y495D01*
X1005Y495D02*
X1012Y495D01*
X0Y494D02*
X7Y494D01*
X1005Y494D02*
X1012Y494D01*
X0Y493D02*
X7Y493D01*
X1005Y493D02*
X1012Y493D01*
X0Y492D02*
X7Y492D01*
X1005Y492D02*
X1012Y492D01*
X0Y491D02*
X7Y491D01*
X1005Y491D02*
X1012Y491D01*
X0Y490D02*
X7Y490D01*
X1005Y490D02*
X1012Y490D01*
X0Y489D02*
X7Y489D01*
X1005Y489D02*
X1012Y489D01*
X0Y488D02*
X7Y488D01*
X1005Y488D02*
X1012Y488D01*
X0Y487D02*
X7Y487D01*
X1005Y487D02*
X1012Y487D01*
X0Y486D02*
X7Y486D01*
X1005Y486D02*
X1012Y486D01*
X0Y485D02*
X7Y485D01*
X1005Y485D02*
X1012Y485D01*
X0Y484D02*
X7Y484D01*
X1005Y484D02*
X1012Y484D01*
X0Y483D02*
X7Y483D01*
X1005Y483D02*
X1012Y483D01*
X0Y482D02*
X7Y482D01*
X1005Y482D02*
X1012Y482D01*
X0Y481D02*
X7Y481D01*
X1005Y481D02*
X1012Y481D01*
X0Y480D02*
X7Y480D01*
X1005Y480D02*
X1012Y480D01*
X0Y479D02*
X7Y479D01*
X1005Y479D02*
X1012Y479D01*
X0Y478D02*
X7Y478D01*
X1005Y478D02*
X1012Y478D01*
X0Y477D02*
X7Y477D01*
X1005Y477D02*
X1012Y477D01*
X0Y476D02*
X7Y476D01*
X1005Y476D02*
X1012Y476D01*
X0Y475D02*
X7Y475D01*
X1005Y475D02*
X1012Y475D01*
X0Y474D02*
X7Y474D01*
X1005Y474D02*
X1012Y474D01*
X0Y473D02*
X7Y473D01*
X1005Y473D02*
X1012Y473D01*
X0Y472D02*
X7Y472D01*
X1005Y472D02*
X1012Y472D01*
X0Y471D02*
X7Y471D01*
X1005Y471D02*
X1012Y471D01*
X0Y470D02*
X7Y470D01*
X1005Y470D02*
X1012Y470D01*
X0Y469D02*
X7Y469D01*
X1005Y469D02*
X1012Y469D01*
X0Y468D02*
X7Y468D01*
X1005Y468D02*
X1012Y468D01*
X0Y467D02*
X7Y467D01*
X1005Y467D02*
X1012Y467D01*
X0Y466D02*
X7Y466D01*
X1005Y466D02*
X1012Y466D01*
X0Y465D02*
X7Y465D01*
X1005Y465D02*
X1012Y465D01*
X0Y464D02*
X7Y464D01*
X1005Y464D02*
X1012Y464D01*
X0Y463D02*
X7Y463D01*
X1005Y463D02*
X1012Y463D01*
X0Y462D02*
X7Y462D01*
X1005Y462D02*
X1012Y462D01*
X0Y461D02*
X7Y461D01*
X1005Y461D02*
X1012Y461D01*
X0Y460D02*
X7Y460D01*
X1005Y460D02*
X1012Y460D01*
X0Y459D02*
X7Y459D01*
X1005Y459D02*
X1012Y459D01*
X0Y458D02*
X7Y458D01*
X1005Y458D02*
X1012Y458D01*
X0Y457D02*
X7Y457D01*
X1005Y457D02*
X1012Y457D01*
X0Y456D02*
X7Y456D01*
X1005Y456D02*
X1012Y456D01*
X0Y455D02*
X7Y455D01*
X1005Y455D02*
X1012Y455D01*
X0Y454D02*
X7Y454D01*
X1005Y454D02*
X1012Y454D01*
X0Y453D02*
X7Y453D01*
X1005Y453D02*
X1012Y453D01*
X0Y452D02*
X7Y452D01*
X1005Y452D02*
X1012Y452D01*
X0Y451D02*
X7Y451D01*
X1005Y451D02*
X1012Y451D01*
X0Y450D02*
X7Y450D01*
X1005Y450D02*
X1012Y450D01*
X0Y449D02*
X7Y449D01*
X1005Y449D02*
X1012Y449D01*
X0Y448D02*
X7Y448D01*
X1005Y448D02*
X1012Y448D01*
X0Y447D02*
X7Y447D01*
X1005Y447D02*
X1012Y447D01*
X0Y446D02*
X7Y446D01*
X1005Y446D02*
X1012Y446D01*
X0Y445D02*
X7Y445D01*
X1005Y445D02*
X1012Y445D01*
X0Y444D02*
X7Y444D01*
X1005Y444D02*
X1012Y444D01*
X0Y443D02*
X7Y443D01*
X1005Y443D02*
X1012Y443D01*
X0Y442D02*
X7Y442D01*
X1005Y442D02*
X1012Y442D01*
X0Y441D02*
X7Y441D01*
X1005Y441D02*
X1012Y441D01*
X0Y440D02*
X7Y440D01*
X1005Y440D02*
X1012Y440D01*
X0Y439D02*
X7Y439D01*
X1005Y439D02*
X1012Y439D01*
X0Y438D02*
X7Y438D01*
X1005Y438D02*
X1012Y438D01*
X0Y437D02*
X7Y437D01*
X1005Y437D02*
X1012Y437D01*
X0Y436D02*
X7Y436D01*
X1005Y436D02*
X1012Y436D01*
X0Y435D02*
X7Y435D01*
X1005Y435D02*
X1012Y435D01*
X0Y434D02*
X7Y434D01*
X1005Y434D02*
X1012Y434D01*
X0Y433D02*
X7Y433D01*
X1005Y433D02*
X1012Y433D01*
X0Y432D02*
X7Y432D01*
X1005Y432D02*
X1012Y432D01*
X0Y431D02*
X7Y431D01*
X1005Y431D02*
X1012Y431D01*
X0Y430D02*
X7Y430D01*
X1005Y430D02*
X1012Y430D01*
X0Y429D02*
X7Y429D01*
X1005Y429D02*
X1012Y429D01*
X0Y428D02*
X7Y428D01*
X1005Y428D02*
X1012Y428D01*
X0Y427D02*
X7Y427D01*
X1005Y427D02*
X1012Y427D01*
X0Y426D02*
X7Y426D01*
X1005Y426D02*
X1012Y426D01*
X0Y425D02*
X7Y425D01*
X1005Y425D02*
X1012Y425D01*
X0Y424D02*
X7Y424D01*
X1005Y424D02*
X1012Y424D01*
X0Y423D02*
X7Y423D01*
X1005Y423D02*
X1012Y423D01*
X0Y422D02*
X7Y422D01*
X1005Y422D02*
X1012Y422D01*
X0Y421D02*
X7Y421D01*
X1005Y421D02*
X1012Y421D01*
X0Y420D02*
X7Y420D01*
X1005Y420D02*
X1012Y420D01*
X0Y419D02*
X7Y419D01*
X1005Y419D02*
X1012Y419D01*
X0Y418D02*
X7Y418D01*
X1005Y418D02*
X1012Y418D01*
X0Y417D02*
X7Y417D01*
X1005Y417D02*
X1012Y417D01*
X0Y416D02*
X7Y416D01*
X1005Y416D02*
X1012Y416D01*
X0Y415D02*
X7Y415D01*
X1005Y415D02*
X1012Y415D01*
X0Y414D02*
X7Y414D01*
X1005Y414D02*
X1012Y414D01*
X0Y413D02*
X7Y413D01*
X1005Y413D02*
X1012Y413D01*
X0Y412D02*
X7Y412D01*
X1005Y412D02*
X1012Y412D01*
X0Y411D02*
X7Y411D01*
X1005Y411D02*
X1012Y411D01*
X0Y410D02*
X7Y410D01*
X1005Y410D02*
X1012Y410D01*
X0Y409D02*
X7Y409D01*
X1005Y409D02*
X1012Y409D01*
X0Y408D02*
X7Y408D01*
X1005Y408D02*
X1012Y408D01*
X0Y407D02*
X7Y407D01*
X1005Y407D02*
X1012Y407D01*
X0Y406D02*
X7Y406D01*
X1005Y406D02*
X1012Y406D01*
X0Y405D02*
X7Y405D01*
X1005Y405D02*
X1012Y405D01*
X0Y404D02*
X7Y404D01*
X1005Y404D02*
X1012Y404D01*
X0Y403D02*
X7Y403D01*
X1005Y403D02*
X1012Y403D01*
X0Y402D02*
X7Y402D01*
X1005Y402D02*
X1012Y402D01*
X0Y401D02*
X7Y401D01*
X1005Y401D02*
X1012Y401D01*
X0Y400D02*
X7Y400D01*
X1005Y400D02*
X1012Y400D01*
X0Y399D02*
X7Y399D01*
X1005Y399D02*
X1012Y399D01*
X0Y398D02*
X7Y398D01*
X1005Y398D02*
X1012Y398D01*
X0Y397D02*
X7Y397D01*
X1005Y397D02*
X1012Y397D01*
X0Y396D02*
X7Y396D01*
X1005Y396D02*
X1012Y396D01*
X0Y395D02*
X7Y395D01*
X1005Y395D02*
X1012Y395D01*
X0Y394D02*
X7Y394D01*
X1005Y394D02*
X1012Y394D01*
X0Y393D02*
X7Y393D01*
X1005Y393D02*
X1012Y393D01*
X0Y392D02*
X7Y392D01*
X1005Y392D02*
X1012Y392D01*
X0Y391D02*
X7Y391D01*
X1005Y391D02*
X1012Y391D01*
X0Y390D02*
X7Y390D01*
X1005Y390D02*
X1012Y390D01*
X0Y389D02*
X7Y389D01*
X1005Y389D02*
X1012Y389D01*
X0Y388D02*
X7Y388D01*
X1005Y388D02*
X1012Y388D01*
X0Y387D02*
X7Y387D01*
X1005Y387D02*
X1012Y387D01*
X0Y386D02*
X7Y386D01*
X1005Y386D02*
X1012Y386D01*
X0Y385D02*
X7Y385D01*
X1005Y385D02*
X1012Y385D01*
X0Y384D02*
X7Y384D01*
X1005Y384D02*
X1012Y384D01*
X0Y383D02*
X7Y383D01*
X1005Y383D02*
X1012Y383D01*
X0Y382D02*
X7Y382D01*
X1005Y382D02*
X1012Y382D01*
X0Y381D02*
X7Y381D01*
X1005Y381D02*
X1012Y381D01*
X0Y380D02*
X7Y380D01*
X1005Y380D02*
X1012Y380D01*
X0Y379D02*
X7Y379D01*
X1005Y379D02*
X1012Y379D01*
X0Y378D02*
X7Y378D01*
X1005Y378D02*
X1012Y378D01*
X0Y377D02*
X7Y377D01*
X1005Y377D02*
X1012Y377D01*
X0Y376D02*
X7Y376D01*
X1005Y376D02*
X1012Y376D01*
X0Y375D02*
X7Y375D01*
X1005Y375D02*
X1012Y375D01*
X0Y374D02*
X7Y374D01*
X1005Y374D02*
X1012Y374D01*
X0Y373D02*
X7Y373D01*
X1005Y373D02*
X1012Y373D01*
X0Y372D02*
X7Y372D01*
X1005Y372D02*
X1012Y372D01*
X0Y371D02*
X7Y371D01*
X1005Y371D02*
X1012Y371D01*
X0Y370D02*
X7Y370D01*
X1005Y370D02*
X1012Y370D01*
X0Y369D02*
X7Y369D01*
X1005Y369D02*
X1012Y369D01*
X0Y368D02*
X7Y368D01*
X1005Y368D02*
X1012Y368D01*
X0Y367D02*
X7Y367D01*
X1005Y367D02*
X1012Y367D01*
X0Y366D02*
X7Y366D01*
X1005Y366D02*
X1012Y366D01*
X0Y365D02*
X7Y365D01*
X1005Y365D02*
X1012Y365D01*
X0Y364D02*
X7Y364D01*
X1005Y364D02*
X1012Y364D01*
X0Y363D02*
X7Y363D01*
X1005Y363D02*
X1012Y363D01*
X0Y362D02*
X7Y362D01*
X1005Y362D02*
X1012Y362D01*
X0Y361D02*
X7Y361D01*
X1005Y361D02*
X1012Y361D01*
X0Y360D02*
X7Y360D01*
X1005Y360D02*
X1012Y360D01*
X0Y359D02*
X7Y359D01*
X1005Y359D02*
X1012Y359D01*
X0Y358D02*
X7Y358D01*
X1005Y358D02*
X1012Y358D01*
X0Y357D02*
X7Y357D01*
X1005Y357D02*
X1012Y357D01*
X0Y356D02*
X7Y356D01*
X1005Y356D02*
X1012Y356D01*
X0Y355D02*
X7Y355D01*
X1005Y355D02*
X1012Y355D01*
X0Y354D02*
X7Y354D01*
X1005Y354D02*
X1012Y354D01*
X0Y353D02*
X7Y353D01*
X1005Y353D02*
X1012Y353D01*
X0Y352D02*
X7Y352D01*
X1005Y352D02*
X1012Y352D01*
X0Y351D02*
X7Y351D01*
X1005Y351D02*
X1012Y351D01*
X0Y350D02*
X7Y350D01*
X1005Y350D02*
X1012Y350D01*
X0Y349D02*
X7Y349D01*
X1005Y349D02*
X1012Y349D01*
X0Y348D02*
X7Y348D01*
X1005Y348D02*
X1012Y348D01*
X0Y347D02*
X7Y347D01*
X1005Y347D02*
X1012Y347D01*
X0Y346D02*
X7Y346D01*
X1005Y346D02*
X1012Y346D01*
X0Y345D02*
X7Y345D01*
X1005Y345D02*
X1012Y345D01*
X0Y344D02*
X7Y344D01*
X1005Y344D02*
X1012Y344D01*
X0Y343D02*
X7Y343D01*
X1005Y343D02*
X1012Y343D01*
X0Y342D02*
X7Y342D01*
X1005Y342D02*
X1012Y342D01*
X0Y341D02*
X7Y341D01*
X1005Y341D02*
X1012Y341D01*
X0Y340D02*
X7Y340D01*
X1005Y340D02*
X1012Y340D01*
X0Y339D02*
X7Y339D01*
X1005Y339D02*
X1012Y339D01*
X0Y338D02*
X7Y338D01*
X1005Y338D02*
X1012Y338D01*
X0Y337D02*
X7Y337D01*
X1005Y337D02*
X1012Y337D01*
X0Y336D02*
X7Y336D01*
X1005Y336D02*
X1012Y336D01*
X0Y335D02*
X7Y335D01*
X1005Y335D02*
X1012Y335D01*
X0Y334D02*
X7Y334D01*
X1005Y334D02*
X1012Y334D01*
X0Y333D02*
X7Y333D01*
X1005Y333D02*
X1012Y333D01*
X0Y332D02*
X7Y332D01*
X1005Y332D02*
X1012Y332D01*
X0Y331D02*
X7Y331D01*
X1005Y331D02*
X1012Y331D01*
X0Y330D02*
X7Y330D01*
X1005Y330D02*
X1012Y330D01*
X0Y329D02*
X7Y329D01*
X1005Y329D02*
X1012Y329D01*
X0Y328D02*
X7Y328D01*
X1005Y328D02*
X1012Y328D01*
X0Y327D02*
X7Y327D01*
X1005Y327D02*
X1012Y327D01*
X0Y326D02*
X7Y326D01*
X1005Y326D02*
X1012Y326D01*
X0Y325D02*
X7Y325D01*
X1005Y325D02*
X1012Y325D01*
X0Y324D02*
X7Y324D01*
X1005Y324D02*
X1012Y324D01*
X0Y323D02*
X7Y323D01*
X1005Y323D02*
X1012Y323D01*
X0Y322D02*
X7Y322D01*
X1005Y322D02*
X1012Y322D01*
X0Y321D02*
X7Y321D01*
X1005Y321D02*
X1012Y321D01*
X0Y320D02*
X7Y320D01*
X1005Y320D02*
X1012Y320D01*
X0Y319D02*
X7Y319D01*
X1005Y319D02*
X1012Y319D01*
X0Y318D02*
X7Y318D01*
X1005Y318D02*
X1012Y318D01*
X0Y317D02*
X7Y317D01*
X1005Y317D02*
X1012Y317D01*
X0Y316D02*
X7Y316D01*
X1005Y316D02*
X1012Y316D01*
X0Y315D02*
X7Y315D01*
X1005Y315D02*
X1012Y315D01*
X0Y314D02*
X7Y314D01*
X1005Y314D02*
X1012Y314D01*
X0Y313D02*
X7Y313D01*
X1005Y313D02*
X1012Y313D01*
X0Y312D02*
X7Y312D01*
X1005Y312D02*
X1012Y312D01*
X0Y311D02*
X7Y311D01*
X1005Y311D02*
X1012Y311D01*
X0Y310D02*
X7Y310D01*
X1005Y310D02*
X1012Y310D01*
X0Y309D02*
X7Y309D01*
X1005Y309D02*
X1012Y309D01*
X0Y308D02*
X7Y308D01*
X1005Y308D02*
X1012Y308D01*
X0Y307D02*
X7Y307D01*
X1005Y307D02*
X1012Y307D01*
X0Y306D02*
X7Y306D01*
X1005Y306D02*
X1012Y306D01*
X0Y305D02*
X7Y305D01*
X1005Y305D02*
X1012Y305D01*
X0Y304D02*
X7Y304D01*
X1005Y304D02*
X1012Y304D01*
X0Y303D02*
X7Y303D01*
X1005Y303D02*
X1012Y303D01*
X0Y302D02*
X7Y302D01*
X1005Y302D02*
X1012Y302D01*
X0Y301D02*
X7Y301D01*
X1005Y301D02*
X1012Y301D01*
X0Y300D02*
X7Y300D01*
X1005Y300D02*
X1012Y300D01*
X0Y299D02*
X7Y299D01*
X1005Y299D02*
X1012Y299D01*
X0Y298D02*
X7Y298D01*
X1005Y298D02*
X1012Y298D01*
X0Y297D02*
X7Y297D01*
X1005Y297D02*
X1012Y297D01*
X0Y296D02*
X7Y296D01*
X1005Y296D02*
X1012Y296D01*
X0Y295D02*
X7Y295D01*
X1005Y295D02*
X1012Y295D01*
X0Y294D02*
X7Y294D01*
X1005Y294D02*
X1012Y294D01*
X0Y293D02*
X7Y293D01*
X1005Y293D02*
X1012Y293D01*
X0Y292D02*
X7Y292D01*
X1005Y292D02*
X1012Y292D01*
X0Y291D02*
X7Y291D01*
X1005Y291D02*
X1012Y291D01*
X0Y290D02*
X7Y290D01*
X1005Y290D02*
X1012Y290D01*
X0Y289D02*
X7Y289D01*
X1005Y289D02*
X1012Y289D01*
X0Y288D02*
X7Y288D01*
X1005Y288D02*
X1012Y288D01*
X0Y287D02*
X7Y287D01*
X1005Y287D02*
X1012Y287D01*
X0Y286D02*
X7Y286D01*
X1005Y286D02*
X1012Y286D01*
X0Y285D02*
X7Y285D01*
X1005Y285D02*
X1012Y285D01*
X0Y284D02*
X7Y284D01*
X1005Y284D02*
X1012Y284D01*
X0Y283D02*
X7Y283D01*
X1005Y283D02*
X1012Y283D01*
X0Y282D02*
X7Y282D01*
X1005Y282D02*
X1012Y282D01*
X0Y281D02*
X7Y281D01*
X1005Y281D02*
X1012Y281D01*
X0Y280D02*
X7Y280D01*
X1005Y280D02*
X1012Y280D01*
X0Y279D02*
X7Y279D01*
X1005Y279D02*
X1012Y279D01*
X0Y278D02*
X7Y278D01*
X1005Y278D02*
X1012Y278D01*
X0Y277D02*
X7Y277D01*
X1005Y277D02*
X1012Y277D01*
X0Y276D02*
X7Y276D01*
X1005Y276D02*
X1012Y276D01*
X0Y275D02*
X7Y275D01*
X1005Y275D02*
X1012Y275D01*
X0Y274D02*
X7Y274D01*
X1005Y274D02*
X1012Y274D01*
X0Y273D02*
X7Y273D01*
X1005Y273D02*
X1012Y273D01*
X0Y272D02*
X7Y272D01*
X1005Y272D02*
X1012Y272D01*
X0Y271D02*
X7Y271D01*
X1005Y271D02*
X1012Y271D01*
X0Y270D02*
X7Y270D01*
X1005Y270D02*
X1012Y270D01*
X0Y269D02*
X7Y269D01*
X1005Y269D02*
X1012Y269D01*
X0Y268D02*
X7Y268D01*
X1005Y268D02*
X1012Y268D01*
X0Y267D02*
X7Y267D01*
X1005Y267D02*
X1012Y267D01*
X0Y266D02*
X7Y266D01*
X1005Y266D02*
X1012Y266D01*
X0Y265D02*
X7Y265D01*
X1005Y265D02*
X1012Y265D01*
X0Y264D02*
X7Y264D01*
X1005Y264D02*
X1012Y264D01*
X0Y263D02*
X7Y263D01*
X1005Y263D02*
X1012Y263D01*
X0Y262D02*
X7Y262D01*
X1005Y262D02*
X1012Y262D01*
X0Y261D02*
X7Y261D01*
X1005Y261D02*
X1012Y261D01*
X0Y260D02*
X7Y260D01*
X1005Y260D02*
X1012Y260D01*
X0Y259D02*
X7Y259D01*
X1005Y259D02*
X1012Y259D01*
X0Y258D02*
X7Y258D01*
X1005Y258D02*
X1012Y258D01*
X0Y257D02*
X7Y257D01*
X1005Y257D02*
X1012Y257D01*
X0Y256D02*
X7Y256D01*
X1005Y256D02*
X1012Y256D01*
X0Y255D02*
X7Y255D01*
X1005Y255D02*
X1012Y255D01*
X0Y254D02*
X7Y254D01*
X1005Y254D02*
X1012Y254D01*
X0Y253D02*
X7Y253D01*
X1005Y253D02*
X1012Y253D01*
X0Y252D02*
X7Y252D01*
X1005Y252D02*
X1012Y252D01*
X0Y251D02*
X7Y251D01*
X1005Y251D02*
X1012Y251D01*
X0Y250D02*
X7Y250D01*
X1005Y250D02*
X1012Y250D01*
X0Y249D02*
X7Y249D01*
X1005Y249D02*
X1012Y249D01*
X0Y248D02*
X7Y248D01*
X1005Y248D02*
X1012Y248D01*
X0Y247D02*
X7Y247D01*
X1005Y247D02*
X1012Y247D01*
X0Y246D02*
X7Y246D01*
X1005Y246D02*
X1012Y246D01*
X0Y245D02*
X7Y245D01*
X1005Y245D02*
X1012Y245D01*
X0Y244D02*
X7Y244D01*
X1005Y244D02*
X1012Y244D01*
X0Y243D02*
X7Y243D01*
X1005Y243D02*
X1012Y243D01*
X0Y242D02*
X7Y242D01*
X1005Y242D02*
X1012Y242D01*
X0Y241D02*
X7Y241D01*
X1005Y241D02*
X1012Y241D01*
X0Y240D02*
X7Y240D01*
X1005Y240D02*
X1012Y240D01*
X0Y239D02*
X7Y239D01*
X1005Y239D02*
X1012Y239D01*
X0Y238D02*
X7Y238D01*
X1005Y238D02*
X1012Y238D01*
X0Y237D02*
X7Y237D01*
X1005Y237D02*
X1012Y237D01*
X0Y236D02*
X7Y236D01*
X1005Y236D02*
X1012Y236D01*
X0Y235D02*
X7Y235D01*
X1005Y235D02*
X1012Y235D01*
X0Y234D02*
X7Y234D01*
X1005Y234D02*
X1012Y234D01*
X0Y233D02*
X7Y233D01*
X1005Y233D02*
X1012Y233D01*
X0Y232D02*
X7Y232D01*
X1005Y232D02*
X1012Y232D01*
X0Y231D02*
X7Y231D01*
X1005Y231D02*
X1012Y231D01*
X0Y230D02*
X7Y230D01*
X1005Y230D02*
X1012Y230D01*
X0Y229D02*
X7Y229D01*
X1005Y229D02*
X1012Y229D01*
X0Y228D02*
X7Y228D01*
X1005Y228D02*
X1012Y228D01*
X0Y227D02*
X7Y227D01*
X1005Y227D02*
X1012Y227D01*
X0Y226D02*
X7Y226D01*
X1005Y226D02*
X1012Y226D01*
X0Y225D02*
X7Y225D01*
X1005Y225D02*
X1012Y225D01*
X0Y224D02*
X7Y224D01*
X1005Y224D02*
X1012Y224D01*
X0Y223D02*
X7Y223D01*
X1005Y223D02*
X1012Y223D01*
X0Y222D02*
X7Y222D01*
X1005Y222D02*
X1012Y222D01*
X0Y221D02*
X7Y221D01*
X1005Y221D02*
X1012Y221D01*
X0Y220D02*
X7Y220D01*
X1005Y220D02*
X1012Y220D01*
X0Y219D02*
X7Y219D01*
X1005Y219D02*
X1012Y219D01*
X0Y218D02*
X7Y218D01*
X1005Y218D02*
X1012Y218D01*
X0Y217D02*
X7Y217D01*
X1005Y217D02*
X1012Y217D01*
X0Y216D02*
X7Y216D01*
X1005Y216D02*
X1012Y216D01*
X0Y215D02*
X7Y215D01*
X1005Y215D02*
X1012Y215D01*
X0Y214D02*
X7Y214D01*
X1005Y214D02*
X1012Y214D01*
X0Y213D02*
X7Y213D01*
X1005Y213D02*
X1012Y213D01*
X0Y212D02*
X7Y212D01*
X1005Y212D02*
X1012Y212D01*
X0Y211D02*
X7Y211D01*
X1005Y211D02*
X1012Y211D01*
X0Y210D02*
X7Y210D01*
X1005Y210D02*
X1012Y210D01*
X0Y209D02*
X7Y209D01*
X1005Y209D02*
X1012Y209D01*
X0Y208D02*
X7Y208D01*
X1005Y208D02*
X1012Y208D01*
X0Y207D02*
X7Y207D01*
X1005Y207D02*
X1012Y207D01*
X0Y206D02*
X7Y206D01*
X1005Y206D02*
X1012Y206D01*
X0Y205D02*
X7Y205D01*
X1005Y205D02*
X1012Y205D01*
X0Y204D02*
X7Y204D01*
X1005Y204D02*
X1012Y204D01*
X0Y203D02*
X7Y203D01*
X1005Y203D02*
X1012Y203D01*
X0Y202D02*
X7Y202D01*
X1005Y202D02*
X1012Y202D01*
X0Y201D02*
X7Y201D01*
X1005Y201D02*
X1012Y201D01*
X0Y200D02*
X7Y200D01*
X1005Y200D02*
X1012Y200D01*
X0Y199D02*
X7Y199D01*
X1005Y199D02*
X1012Y199D01*
X0Y198D02*
X7Y198D01*
X1005Y198D02*
X1012Y198D01*
X0Y197D02*
X7Y197D01*
X1005Y197D02*
X1012Y197D01*
X0Y196D02*
X7Y196D01*
X1005Y196D02*
X1012Y196D01*
X0Y195D02*
X7Y195D01*
X1005Y195D02*
X1012Y195D01*
X0Y194D02*
X7Y194D01*
X1005Y194D02*
X1012Y194D01*
X0Y193D02*
X7Y193D01*
X1005Y193D02*
X1012Y193D01*
X0Y192D02*
X7Y192D01*
X1005Y192D02*
X1012Y192D01*
X0Y191D02*
X7Y191D01*
X1005Y191D02*
X1012Y191D01*
X0Y190D02*
X7Y190D01*
X1005Y190D02*
X1012Y190D01*
X0Y189D02*
X7Y189D01*
X1005Y189D02*
X1012Y189D01*
X0Y188D02*
X7Y188D01*
X1005Y188D02*
X1012Y188D01*
X0Y187D02*
X7Y187D01*
X1005Y187D02*
X1012Y187D01*
X0Y186D02*
X7Y186D01*
X1005Y186D02*
X1012Y186D01*
X0Y185D02*
X7Y185D01*
X1005Y185D02*
X1012Y185D01*
X0Y184D02*
X7Y184D01*
X1005Y184D02*
X1012Y184D01*
X0Y183D02*
X7Y183D01*
X1005Y183D02*
X1012Y183D01*
X0Y182D02*
X7Y182D01*
X1005Y182D02*
X1012Y182D01*
X0Y181D02*
X7Y181D01*
X1005Y181D02*
X1012Y181D01*
X0Y180D02*
X7Y180D01*
X1005Y180D02*
X1012Y180D01*
X0Y179D02*
X7Y179D01*
X1005Y179D02*
X1012Y179D01*
X0Y178D02*
X7Y178D01*
X1005Y178D02*
X1012Y178D01*
X0Y177D02*
X7Y177D01*
X1005Y177D02*
X1012Y177D01*
X0Y176D02*
X7Y176D01*
X1005Y176D02*
X1012Y176D01*
X0Y175D02*
X7Y175D01*
X1005Y175D02*
X1012Y175D01*
X0Y174D02*
X7Y174D01*
X1005Y174D02*
X1012Y174D01*
X0Y173D02*
X7Y173D01*
X1005Y173D02*
X1012Y173D01*
X0Y172D02*
X7Y172D01*
X1005Y172D02*
X1012Y172D01*
X0Y171D02*
X7Y171D01*
X1005Y171D02*
X1012Y171D01*
X0Y170D02*
X7Y170D01*
X1005Y170D02*
X1012Y170D01*
X0Y169D02*
X7Y169D01*
X1005Y169D02*
X1012Y169D01*
X0Y168D02*
X7Y168D01*
X1005Y168D02*
X1012Y168D01*
X0Y167D02*
X7Y167D01*
X1005Y167D02*
X1012Y167D01*
X0Y166D02*
X7Y166D01*
X1005Y166D02*
X1012Y166D01*
X0Y165D02*
X7Y165D01*
X1005Y165D02*
X1012Y165D01*
X0Y164D02*
X7Y164D01*
X1005Y164D02*
X1012Y164D01*
X0Y163D02*
X7Y163D01*
X1005Y163D02*
X1012Y163D01*
X0Y162D02*
X7Y162D01*
X1005Y162D02*
X1012Y162D01*
X0Y161D02*
X7Y161D01*
X1005Y161D02*
X1012Y161D01*
X0Y160D02*
X7Y160D01*
X1005Y160D02*
X1012Y160D01*
X0Y159D02*
X7Y159D01*
X1005Y159D02*
X1012Y159D01*
X0Y158D02*
X7Y158D01*
X1005Y158D02*
X1012Y158D01*
X0Y157D02*
X7Y157D01*
X1005Y157D02*
X1012Y157D01*
X0Y156D02*
X7Y156D01*
X1005Y156D02*
X1012Y156D01*
X0Y155D02*
X7Y155D01*
X1005Y155D02*
X1012Y155D01*
X0Y154D02*
X7Y154D01*
X1005Y154D02*
X1012Y154D01*
X0Y153D02*
X7Y153D01*
X1005Y153D02*
X1012Y153D01*
X0Y152D02*
X7Y152D01*
X1005Y152D02*
X1012Y152D01*
X0Y151D02*
X7Y151D01*
X1005Y151D02*
X1012Y151D01*
X0Y150D02*
X7Y150D01*
X1005Y150D02*
X1012Y150D01*
X0Y149D02*
X7Y149D01*
X1005Y149D02*
X1012Y149D01*
X0Y148D02*
X7Y148D01*
X1005Y148D02*
X1012Y148D01*
X0Y147D02*
X7Y147D01*
X1005Y147D02*
X1012Y147D01*
X0Y146D02*
X7Y146D01*
X1005Y146D02*
X1012Y146D01*
X0Y145D02*
X7Y145D01*
X1005Y145D02*
X1012Y145D01*
X0Y144D02*
X7Y144D01*
X1005Y144D02*
X1012Y144D01*
X0Y143D02*
X7Y143D01*
X1005Y143D02*
X1012Y143D01*
X0Y142D02*
X7Y142D01*
X1005Y142D02*
X1012Y142D01*
X0Y141D02*
X7Y141D01*
X1005Y141D02*
X1012Y141D01*
X0Y140D02*
X7Y140D01*
X1005Y140D02*
X1012Y140D01*
X0Y139D02*
X7Y139D01*
X1005Y139D02*
X1012Y139D01*
X0Y138D02*
X7Y138D01*
X1005Y138D02*
X1012Y138D01*
X0Y137D02*
X7Y137D01*
X1005Y137D02*
X1012Y137D01*
X0Y136D02*
X7Y136D01*
X1005Y136D02*
X1012Y136D01*
X0Y135D02*
X7Y135D01*
X1005Y135D02*
X1012Y135D01*
X0Y134D02*
X7Y134D01*
X1005Y134D02*
X1012Y134D01*
X0Y133D02*
X7Y133D01*
X1005Y133D02*
X1012Y133D01*
X0Y132D02*
X7Y132D01*
X1005Y132D02*
X1012Y132D01*
X0Y131D02*
X7Y131D01*
X1005Y131D02*
X1012Y131D01*
X0Y130D02*
X7Y130D01*
X1005Y130D02*
X1012Y130D01*
X0Y129D02*
X7Y129D01*
X1005Y129D02*
X1012Y129D01*
X0Y128D02*
X7Y128D01*
X1005Y128D02*
X1012Y128D01*
X0Y127D02*
X7Y127D01*
X1005Y127D02*
X1012Y127D01*
X0Y126D02*
X7Y126D01*
X1005Y126D02*
X1012Y126D01*
X0Y125D02*
X7Y125D01*
X1005Y125D02*
X1012Y125D01*
X0Y124D02*
X7Y124D01*
X1005Y124D02*
X1012Y124D01*
X0Y123D02*
X7Y123D01*
X1005Y123D02*
X1012Y123D01*
X0Y122D02*
X7Y122D01*
X1005Y122D02*
X1012Y122D01*
X0Y121D02*
X7Y121D01*
X1005Y121D02*
X1012Y121D01*
X0Y120D02*
X7Y120D01*
X1005Y120D02*
X1012Y120D01*
X0Y119D02*
X7Y119D01*
X1005Y119D02*
X1012Y119D01*
X0Y118D02*
X7Y118D01*
X1005Y118D02*
X1012Y118D01*
X0Y117D02*
X7Y117D01*
X1005Y117D02*
X1012Y117D01*
X0Y116D02*
X7Y116D01*
X1005Y116D02*
X1012Y116D01*
X0Y115D02*
X7Y115D01*
X1005Y115D02*
X1012Y115D01*
X0Y114D02*
X7Y114D01*
X1005Y114D02*
X1012Y114D01*
X0Y113D02*
X7Y113D01*
X1005Y113D02*
X1012Y113D01*
X0Y112D02*
X7Y112D01*
X1005Y112D02*
X1012Y112D01*
X0Y111D02*
X7Y111D01*
X1005Y111D02*
X1012Y111D01*
X0Y110D02*
X7Y110D01*
X1005Y110D02*
X1012Y110D01*
X0Y109D02*
X7Y109D01*
X1005Y109D02*
X1012Y109D01*
X0Y108D02*
X7Y108D01*
X1005Y108D02*
X1012Y108D01*
X0Y107D02*
X7Y107D01*
X1005Y107D02*
X1012Y107D01*
X0Y106D02*
X7Y106D01*
X1005Y106D02*
X1012Y106D01*
X0Y105D02*
X7Y105D01*
X1005Y105D02*
X1012Y105D01*
X0Y104D02*
X7Y104D01*
X1005Y104D02*
X1012Y104D01*
X0Y103D02*
X7Y103D01*
X1005Y103D02*
X1012Y103D01*
X0Y102D02*
X7Y102D01*
X1005Y102D02*
X1012Y102D01*
X0Y101D02*
X7Y101D01*
X1005Y101D02*
X1012Y101D01*
X0Y100D02*
X7Y100D01*
X1005Y100D02*
X1012Y100D01*
X0Y99D02*
X7Y99D01*
X1005Y99D02*
X1012Y99D01*
X0Y98D02*
X7Y98D01*
X1005Y98D02*
X1012Y98D01*
X0Y97D02*
X7Y97D01*
X1005Y97D02*
X1012Y97D01*
X0Y96D02*
X7Y96D01*
X1005Y96D02*
X1012Y96D01*
X0Y95D02*
X7Y95D01*
X1005Y95D02*
X1012Y95D01*
X0Y94D02*
X7Y94D01*
X1005Y94D02*
X1012Y94D01*
X0Y93D02*
X7Y93D01*
X1005Y93D02*
X1012Y93D01*
X0Y92D02*
X7Y92D01*
X1005Y92D02*
X1012Y92D01*
X0Y91D02*
X7Y91D01*
X1005Y91D02*
X1012Y91D01*
X0Y90D02*
X7Y90D01*
X1005Y90D02*
X1012Y90D01*
X0Y89D02*
X7Y89D01*
X1005Y89D02*
X1012Y89D01*
X0Y88D02*
X7Y88D01*
X1005Y88D02*
X1012Y88D01*
X0Y87D02*
X7Y87D01*
X1005Y87D02*
X1012Y87D01*
X0Y86D02*
X7Y86D01*
X1005Y86D02*
X1012Y86D01*
X0Y85D02*
X7Y85D01*
X1005Y85D02*
X1012Y85D01*
X0Y84D02*
X7Y84D01*
X1005Y84D02*
X1012Y84D01*
X0Y83D02*
X7Y83D01*
X1005Y83D02*
X1012Y83D01*
X0Y82D02*
X7Y82D01*
X1005Y82D02*
X1012Y82D01*
X0Y81D02*
X7Y81D01*
X1005Y81D02*
X1012Y81D01*
X0Y80D02*
X7Y80D01*
X1005Y80D02*
X1012Y80D01*
X0Y79D02*
X7Y79D01*
X1005Y79D02*
X1012Y79D01*
X0Y78D02*
X7Y78D01*
X1005Y78D02*
X1012Y78D01*
X0Y77D02*
X7Y77D01*
X1005Y77D02*
X1012Y77D01*
X0Y76D02*
X7Y76D01*
X1005Y76D02*
X1012Y76D01*
X0Y75D02*
X7Y75D01*
X1005Y75D02*
X1012Y75D01*
X0Y74D02*
X7Y74D01*
X1005Y74D02*
X1012Y74D01*
X0Y73D02*
X7Y73D01*
X1005Y73D02*
X1012Y73D01*
X0Y72D02*
X7Y72D01*
X1005Y72D02*
X1012Y72D01*
X0Y71D02*
X7Y71D01*
X1005Y71D02*
X1012Y71D01*
X0Y70D02*
X7Y70D01*
X1005Y70D02*
X1012Y70D01*
X0Y69D02*
X7Y69D01*
X1005Y69D02*
X1012Y69D01*
X0Y68D02*
X7Y68D01*
X1005Y68D02*
X1012Y68D01*
X0Y67D02*
X7Y67D01*
X1005Y67D02*
X1012Y67D01*
X0Y66D02*
X7Y66D01*
X1005Y66D02*
X1012Y66D01*
X0Y65D02*
X7Y65D01*
X1005Y65D02*
X1012Y65D01*
X0Y64D02*
X7Y64D01*
X1005Y64D02*
X1012Y64D01*
X0Y63D02*
X7Y63D01*
X1005Y63D02*
X1012Y63D01*
X0Y62D02*
X7Y62D01*
X1005Y62D02*
X1012Y62D01*
X0Y61D02*
X7Y61D01*
X1005Y61D02*
X1012Y61D01*
X0Y60D02*
X7Y60D01*
X1005Y60D02*
X1012Y60D01*
X0Y59D02*
X7Y59D01*
X1005Y59D02*
X1012Y59D01*
X0Y58D02*
X7Y58D01*
X1005Y58D02*
X1012Y58D01*
X0Y57D02*
X7Y57D01*
X1005Y57D02*
X1012Y57D01*
X0Y56D02*
X7Y56D01*
X1005Y56D02*
X1012Y56D01*
X0Y55D02*
X7Y55D01*
X1005Y55D02*
X1012Y55D01*
X0Y54D02*
X7Y54D01*
X1005Y54D02*
X1012Y54D01*
X0Y53D02*
X7Y53D01*
X1005Y53D02*
X1012Y53D01*
X0Y52D02*
X7Y52D01*
X1005Y52D02*
X1012Y52D01*
X0Y51D02*
X7Y51D01*
X1005Y51D02*
X1012Y51D01*
X0Y50D02*
X7Y50D01*
X1005Y50D02*
X1012Y50D01*
X0Y49D02*
X7Y49D01*
X1005Y49D02*
X1012Y49D01*
X0Y48D02*
X7Y48D01*
X1005Y48D02*
X1012Y48D01*
X0Y47D02*
X7Y47D01*
X1005Y47D02*
X1012Y47D01*
X0Y46D02*
X7Y46D01*
X1005Y46D02*
X1012Y46D01*
X0Y45D02*
X7Y45D01*
X1005Y45D02*
X1012Y45D01*
X0Y44D02*
X7Y44D01*
X1005Y44D02*
X1012Y44D01*
X0Y43D02*
X7Y43D01*
X1005Y43D02*
X1012Y43D01*
X0Y42D02*
X7Y42D01*
X1005Y42D02*
X1012Y42D01*
X0Y41D02*
X7Y41D01*
X1005Y41D02*
X1012Y41D01*
X0Y40D02*
X7Y40D01*
X1005Y40D02*
X1012Y40D01*
X0Y39D02*
X7Y39D01*
X1005Y39D02*
X1012Y39D01*
X0Y38D02*
X7Y38D01*
X1005Y38D02*
X1012Y38D01*
X0Y37D02*
X7Y37D01*
X1005Y37D02*
X1012Y37D01*
X0Y36D02*
X7Y36D01*
X1005Y36D02*
X1012Y36D01*
X0Y35D02*
X7Y35D01*
X1005Y35D02*
X1012Y35D01*
X0Y34D02*
X7Y34D01*
X1005Y34D02*
X1012Y34D01*
X0Y33D02*
X7Y33D01*
X1005Y33D02*
X1012Y33D01*
X0Y32D02*
X7Y32D01*
X1005Y32D02*
X1012Y32D01*
X0Y31D02*
X7Y31D01*
X1005Y31D02*
X1012Y31D01*
X0Y30D02*
X7Y30D01*
X1005Y30D02*
X1012Y30D01*
X0Y29D02*
X7Y29D01*
X1005Y29D02*
X1012Y29D01*
X0Y28D02*
X7Y28D01*
X1005Y28D02*
X1012Y28D01*
X0Y27D02*
X7Y27D01*
X1005Y27D02*
X1012Y27D01*
X0Y26D02*
X7Y26D01*
X1005Y26D02*
X1012Y26D01*
X0Y25D02*
X7Y25D01*
X1005Y25D02*
X1012Y25D01*
X0Y24D02*
X7Y24D01*
X1005Y24D02*
X1012Y24D01*
X0Y23D02*
X7Y23D01*
X1005Y23D02*
X1012Y23D01*
X0Y22D02*
X7Y22D01*
X1005Y22D02*
X1012Y22D01*
X0Y21D02*
X7Y21D01*
X1005Y21D02*
X1012Y21D01*
X0Y20D02*
X7Y20D01*
X1005Y20D02*
X1012Y20D01*
X0Y19D02*
X7Y19D01*
X1005Y19D02*
X1012Y19D01*
X0Y18D02*
X7Y18D01*
X1005Y18D02*
X1012Y18D01*
X0Y17D02*
X7Y17D01*
X1005Y17D02*
X1012Y17D01*
X0Y16D02*
X7Y16D01*
X1005Y16D02*
X1012Y16D01*
X0Y15D02*
X7Y15D01*
X1005Y15D02*
X1012Y15D01*
X0Y14D02*
X7Y14D01*
X1005Y14D02*
X1012Y14D01*
X0Y13D02*
X7Y13D01*
X1005Y13D02*
X1012Y13D01*
X0Y12D02*
X7Y12D01*
X1005Y12D02*
X1012Y12D01*
X0Y11D02*
X7Y11D01*
X1005Y11D02*
X1012Y11D01*
X0Y10D02*
X7Y10D01*
X1005Y10D02*
X1012Y10D01*
X0Y9D02*
X1012Y9D01*
X0Y8D02*
X1012Y8D01*
X0Y7D02*
X1012Y7D01*
X0Y6D02*
X1012Y6D01*
X0Y5D02*
X1012Y5D01*
X0Y4D02*
X1012Y4D01*
X0Y3D02*
X1012Y3D01*
X0Y2D02*
X1012Y2D01*
D02*
G04 End of Silk0*
M02*