G04 MADE WITH FRITZING*
G04 WWW.FRITZING.ORG*
G04 DOUBLE SIDED*
G04 HOLES PLATED*
G04 CONTOUR ON CENTER OF CONTOUR VECTOR*
%ASAXBY*%
%FSLAX23Y23*%
%MOIN*%
%OFA0B0*%
%SFA1.0B1.0*%
%ADD10C,0.080000*%
%ADD11C,0.084000*%
%ADD12C,0.135984*%
%ADD13C,0.088000*%
%ADD14C,0.049370*%
%ADD15C,0.096614*%
%ADD16R,0.079972X0.080000*%
%ADD17R,0.088000X0.088000*%
%ADD18R,0.001000X0.001000*%
%LNMASK0*%
G90*
G70*
G54D10*
X2680Y1333D03*
X2680Y1433D03*
X2680Y1533D03*
X2680Y1633D03*
X2680Y1733D03*
X2680Y1833D03*
X2680Y1933D03*
X2680Y2033D03*
X2680Y2133D03*
X2680Y2233D03*
X2680Y2333D03*
X2680Y2433D03*
X2680Y2533D03*
X2680Y2633D03*
X2680Y2733D03*
X2080Y1333D03*
X2080Y1433D03*
X2080Y1533D03*
X2080Y1633D03*
X2080Y1733D03*
X2080Y1833D03*
X2080Y1933D03*
X2080Y2033D03*
X2080Y2133D03*
X2080Y2233D03*
X2080Y2333D03*
X2080Y2433D03*
X2080Y2533D03*
X2080Y2633D03*
X2080Y2733D03*
G54D11*
X3163Y2367D03*
X3263Y2417D03*
X3163Y2467D03*
X3163Y2567D03*
X3163Y2667D03*
X3263Y2517D03*
X3263Y2617D03*
X3263Y2717D03*
G54D12*
X3513Y2767D03*
X3513Y2317D03*
G54D11*
X3163Y2367D03*
X3263Y2417D03*
X3163Y2467D03*
X3163Y2567D03*
X3163Y2667D03*
X3263Y2517D03*
X3263Y2617D03*
X3263Y2717D03*
G54D12*
X3513Y2767D03*
X3513Y2317D03*
G54D11*
X1472Y2734D03*
X1372Y2684D03*
X1472Y2634D03*
X1472Y2534D03*
X1472Y2434D03*
X1372Y2584D03*
X1372Y2484D03*
X1372Y2384D03*
G54D12*
X1122Y2334D03*
X1122Y2784D03*
G54D11*
X1472Y2734D03*
X1372Y2684D03*
X1472Y2634D03*
X1472Y2534D03*
X1472Y2434D03*
X1372Y2584D03*
X1372Y2484D03*
X1372Y2384D03*
G54D12*
X1122Y2334D03*
X1122Y2784D03*
G54D11*
X1461Y1800D03*
X1361Y1750D03*
X1461Y1700D03*
X1461Y1600D03*
X1461Y1500D03*
X1361Y1650D03*
X1361Y1550D03*
X1361Y1450D03*
G54D12*
X1111Y1400D03*
X1111Y1850D03*
G54D11*
X1461Y1800D03*
X1361Y1750D03*
X1461Y1700D03*
X1461Y1600D03*
X1461Y1500D03*
X1361Y1650D03*
X1361Y1550D03*
X1361Y1450D03*
G54D12*
X1111Y1400D03*
X1111Y1850D03*
G54D11*
X3165Y1480D03*
X3265Y1530D03*
X3165Y1580D03*
X3165Y1680D03*
X3165Y1780D03*
X3265Y1630D03*
X3265Y1730D03*
X3265Y1830D03*
G54D12*
X3515Y1880D03*
X3515Y1430D03*
G54D11*
X3165Y1480D03*
X3265Y1530D03*
X3165Y1580D03*
X3165Y1680D03*
X3165Y1780D03*
X3265Y1630D03*
X3265Y1730D03*
X3265Y1830D03*
G54D12*
X3515Y1880D03*
X3515Y1430D03*
G54D11*
X3997Y503D03*
X4047Y403D03*
X4097Y503D03*
X4197Y503D03*
X4297Y503D03*
X4147Y403D03*
X4247Y403D03*
X4347Y403D03*
G54D12*
X4397Y153D03*
X3947Y153D03*
G54D11*
X3997Y503D03*
X4047Y403D03*
X4097Y503D03*
X4197Y503D03*
X4297Y503D03*
X4147Y403D03*
X4247Y403D03*
X4347Y403D03*
G54D12*
X4397Y153D03*
X3947Y153D03*
G54D13*
X3901Y967D03*
X4001Y967D03*
X4101Y967D03*
X4201Y967D03*
X4301Y967D03*
X4401Y967D03*
X4501Y967D03*
X4601Y967D03*
X3901Y967D03*
X4001Y967D03*
X4101Y967D03*
X4201Y967D03*
X4301Y967D03*
X4401Y967D03*
X4501Y967D03*
X4601Y967D03*
G54D14*
X4485Y594D03*
G54D11*
X460Y917D03*
X560Y967D03*
X460Y1017D03*
X460Y1117D03*
X460Y1217D03*
X560Y1067D03*
X560Y1167D03*
X560Y1267D03*
G54D12*
X810Y1317D03*
X810Y867D03*
G54D11*
X460Y917D03*
X560Y967D03*
X460Y1017D03*
X460Y1117D03*
X460Y1217D03*
X560Y1067D03*
X560Y1167D03*
X560Y1267D03*
G54D12*
X810Y1317D03*
X810Y867D03*
G54D13*
X257Y2675D03*
X257Y2575D03*
X257Y2475D03*
X257Y2375D03*
X257Y2675D03*
X257Y2575D03*
X257Y2475D03*
X257Y2375D03*
X5158Y2715D03*
X5258Y2715D03*
X5358Y2715D03*
G54D11*
X5081Y2242D03*
X5131Y2142D03*
X5181Y2242D03*
X5281Y2242D03*
X5381Y2242D03*
X5231Y2142D03*
X5331Y2142D03*
X5431Y2142D03*
G54D12*
X5481Y1892D03*
X5031Y1892D03*
G54D11*
X5081Y2242D03*
X5131Y2142D03*
X5181Y2242D03*
X5281Y2242D03*
X5381Y2242D03*
X5231Y2142D03*
X5331Y2142D03*
X5431Y2142D03*
G54D12*
X5481Y1892D03*
X5031Y1892D03*
G54D13*
X4307Y2673D03*
X4207Y2673D03*
X4107Y2673D03*
X4007Y2673D03*
X4307Y2673D03*
X4207Y2673D03*
X4107Y2673D03*
X4007Y2673D03*
G54D11*
X4001Y2244D03*
X4051Y2144D03*
X4101Y2244D03*
X4201Y2244D03*
X4301Y2244D03*
X4151Y2144D03*
X4251Y2144D03*
X4351Y2144D03*
G54D12*
X4401Y1894D03*
X3951Y1894D03*
G54D11*
X4001Y2244D03*
X4051Y2144D03*
X4101Y2244D03*
X4201Y2244D03*
X4301Y2244D03*
X4151Y2144D03*
X4251Y2144D03*
X4351Y2144D03*
G54D12*
X4401Y1894D03*
X3951Y1894D03*
G54D15*
X4600Y2786D03*
X3767Y2792D03*
X4611Y1867D03*
X3779Y1856D03*
X5704Y1832D03*
X5698Y2335D03*
X4833Y1847D03*
X4842Y2330D03*
X849Y2798D03*
X114Y2809D03*
X126Y856D03*
X843Y1468D03*
X3750Y1133D03*
X4652Y1139D03*
X3750Y98D03*
X4640Y93D03*
G54D16*
X2680Y1333D03*
G54D17*
X3901Y967D03*
X3901Y967D03*
X257Y2675D03*
X257Y2675D03*
X5158Y2715D03*
X4307Y2673D03*
X4307Y2673D03*
G54D18*
X3221Y2759D02*
X3303Y2759D01*
X3221Y2758D02*
X3304Y2758D01*
X3221Y2757D02*
X3304Y2757D01*
X3221Y2756D02*
X3304Y2756D01*
X3221Y2755D02*
X3304Y2755D01*
X3221Y2754D02*
X3304Y2754D01*
X3221Y2753D02*
X3304Y2753D01*
X3221Y2752D02*
X3304Y2752D01*
X3221Y2751D02*
X3304Y2751D01*
X3221Y2750D02*
X3304Y2750D01*
X3221Y2749D02*
X3304Y2749D01*
X3221Y2748D02*
X3304Y2748D01*
X3221Y2747D02*
X3304Y2747D01*
X3221Y2746D02*
X3304Y2746D01*
X3221Y2745D02*
X3304Y2745D01*
X3221Y2744D02*
X3304Y2744D01*
X3221Y2743D02*
X3304Y2743D01*
X3221Y2742D02*
X3304Y2742D01*
X3221Y2741D02*
X3304Y2741D01*
X3221Y2740D02*
X3304Y2740D01*
X3221Y2739D02*
X3304Y2739D01*
X3221Y2738D02*
X3304Y2738D01*
X3221Y2737D02*
X3304Y2737D01*
X3221Y2736D02*
X3304Y2736D01*
X3221Y2735D02*
X3304Y2735D01*
X3221Y2734D02*
X3304Y2734D01*
X3221Y2733D02*
X3304Y2733D01*
X3221Y2732D02*
X3261Y2732D01*
X3263Y2732D02*
X3304Y2732D01*
X3221Y2731D02*
X3256Y2731D01*
X3268Y2731D02*
X3304Y2731D01*
X3221Y2730D02*
X3254Y2730D01*
X3270Y2730D02*
X3304Y2730D01*
X3221Y2729D02*
X3253Y2729D01*
X3271Y2729D02*
X3304Y2729D01*
X3221Y2728D02*
X3251Y2728D01*
X3273Y2728D02*
X3304Y2728D01*
X3221Y2727D02*
X3251Y2727D01*
X3274Y2727D02*
X3304Y2727D01*
X3221Y2726D02*
X3250Y2726D01*
X3274Y2726D02*
X3304Y2726D01*
X3221Y2725D02*
X3249Y2725D01*
X3275Y2725D02*
X3304Y2725D01*
X3221Y2724D02*
X3248Y2724D01*
X3276Y2724D02*
X3304Y2724D01*
X3221Y2723D02*
X3248Y2723D01*
X3276Y2723D02*
X3304Y2723D01*
X3221Y2722D02*
X3248Y2722D01*
X3277Y2722D02*
X3304Y2722D01*
X3221Y2721D02*
X3247Y2721D01*
X3277Y2721D02*
X3304Y2721D01*
X3221Y2720D02*
X3247Y2720D01*
X3277Y2720D02*
X3304Y2720D01*
X3221Y2719D02*
X3247Y2719D01*
X3277Y2719D02*
X3304Y2719D01*
X3221Y2718D02*
X3247Y2718D01*
X3277Y2718D02*
X3304Y2718D01*
X3221Y2717D02*
X3247Y2717D01*
X3277Y2717D02*
X3304Y2717D01*
X3221Y2716D02*
X3247Y2716D01*
X3277Y2716D02*
X3304Y2716D01*
X3221Y2715D02*
X3247Y2715D01*
X3277Y2715D02*
X3304Y2715D01*
X3221Y2714D02*
X3247Y2714D01*
X3277Y2714D02*
X3304Y2714D01*
X3221Y2713D02*
X3248Y2713D01*
X3277Y2713D02*
X3304Y2713D01*
X3221Y2712D02*
X3248Y2712D01*
X3276Y2712D02*
X3304Y2712D01*
X3221Y2711D02*
X3248Y2711D01*
X3276Y2711D02*
X3304Y2711D01*
X3221Y2710D02*
X3249Y2710D01*
X3275Y2710D02*
X3304Y2710D01*
X3221Y2709D02*
X3249Y2709D01*
X3275Y2709D02*
X3304Y2709D01*
X3221Y2708D02*
X3250Y2708D01*
X3274Y2708D02*
X3304Y2708D01*
X3221Y2707D02*
X3251Y2707D01*
X3273Y2707D02*
X3304Y2707D01*
X3221Y2706D02*
X3252Y2706D01*
X3272Y2706D02*
X3304Y2706D01*
X3221Y2705D02*
X3254Y2705D01*
X3271Y2705D02*
X3304Y2705D01*
X3221Y2704D02*
X3255Y2704D01*
X3269Y2704D02*
X3304Y2704D01*
X3221Y2703D02*
X3258Y2703D01*
X3266Y2703D02*
X3304Y2703D01*
X3221Y2702D02*
X3304Y2702D01*
X3221Y2701D02*
X3304Y2701D01*
X3221Y2700D02*
X3304Y2700D01*
X3221Y2699D02*
X3304Y2699D01*
X3221Y2698D02*
X3304Y2698D01*
X3221Y2697D02*
X3304Y2697D01*
X3221Y2696D02*
X3304Y2696D01*
X3221Y2695D02*
X3304Y2695D01*
X3221Y2694D02*
X3304Y2694D01*
X3221Y2693D02*
X3304Y2693D01*
X3221Y2692D02*
X3304Y2692D01*
X3221Y2691D02*
X3304Y2691D01*
X3221Y2690D02*
X3304Y2690D01*
X3221Y2689D02*
X3304Y2689D01*
X3221Y2688D02*
X3304Y2688D01*
X3221Y2687D02*
X3304Y2687D01*
X3221Y2686D02*
X3304Y2686D01*
X3221Y2685D02*
X3304Y2685D01*
X3221Y2684D02*
X3304Y2684D01*
X3221Y2683D02*
X3304Y2683D01*
X3221Y2682D02*
X3304Y2682D01*
X3221Y2681D02*
X3304Y2681D01*
X3221Y2680D02*
X3304Y2680D01*
X3221Y2679D02*
X3304Y2679D01*
X3221Y2678D02*
X3304Y2678D01*
X3221Y2677D02*
X3304Y2677D01*
X3221Y2676D02*
X3304Y2676D01*
X1331Y2426D02*
X1413Y2426D01*
X1330Y2425D02*
X1413Y2425D01*
X1330Y2424D02*
X1413Y2424D01*
X1330Y2423D02*
X1413Y2423D01*
X1330Y2422D02*
X1413Y2422D01*
X1330Y2421D02*
X1413Y2421D01*
X1330Y2420D02*
X1413Y2420D01*
X1330Y2419D02*
X1413Y2419D01*
X1330Y2418D02*
X1413Y2418D01*
X1330Y2417D02*
X1413Y2417D01*
X1330Y2416D02*
X1413Y2416D01*
X1330Y2415D02*
X1413Y2415D01*
X1330Y2414D02*
X1413Y2414D01*
X1330Y2413D02*
X1413Y2413D01*
X1330Y2412D02*
X1413Y2412D01*
X1330Y2411D02*
X1413Y2411D01*
X1330Y2410D02*
X1413Y2410D01*
X1330Y2409D02*
X1413Y2409D01*
X1330Y2408D02*
X1413Y2408D01*
X1330Y2407D02*
X1413Y2407D01*
X1330Y2406D02*
X1413Y2406D01*
X1330Y2405D02*
X1413Y2405D01*
X1330Y2404D02*
X1413Y2404D01*
X1330Y2403D02*
X1413Y2403D01*
X1330Y2402D02*
X1413Y2402D01*
X1330Y2401D02*
X1413Y2401D01*
X1330Y2400D02*
X1413Y2400D01*
X1330Y2399D02*
X1413Y2399D01*
X1330Y2398D02*
X1367Y2398D01*
X1377Y2398D02*
X1413Y2398D01*
X1330Y2397D02*
X1364Y2397D01*
X1379Y2397D02*
X1413Y2397D01*
X1330Y2396D02*
X1363Y2396D01*
X1381Y2396D02*
X1413Y2396D01*
X1330Y2395D02*
X1362Y2395D01*
X1382Y2395D02*
X1413Y2395D01*
X1330Y2394D02*
X1361Y2394D01*
X1383Y2394D02*
X1413Y2394D01*
X1330Y2393D02*
X1360Y2393D01*
X1384Y2393D02*
X1413Y2393D01*
X1330Y2392D02*
X1359Y2392D01*
X1385Y2392D02*
X1413Y2392D01*
X1330Y2391D02*
X1358Y2391D01*
X1385Y2391D02*
X1413Y2391D01*
X1330Y2390D02*
X1358Y2390D01*
X1386Y2390D02*
X1413Y2390D01*
X1330Y2389D02*
X1357Y2389D01*
X1386Y2389D02*
X1413Y2389D01*
X1330Y2388D02*
X1357Y2388D01*
X1386Y2388D02*
X1413Y2388D01*
X1330Y2387D02*
X1357Y2387D01*
X1387Y2387D02*
X1413Y2387D01*
X1330Y2386D02*
X1357Y2386D01*
X1387Y2386D02*
X1413Y2386D01*
X1330Y2385D02*
X1357Y2385D01*
X1387Y2385D02*
X1413Y2385D01*
X1330Y2384D02*
X1357Y2384D01*
X1387Y2384D02*
X1413Y2384D01*
X1330Y2383D02*
X1357Y2383D01*
X1387Y2383D02*
X1413Y2383D01*
X1330Y2382D02*
X1357Y2382D01*
X1387Y2382D02*
X1413Y2382D01*
X1330Y2381D02*
X1357Y2381D01*
X1387Y2381D02*
X1413Y2381D01*
X1330Y2380D02*
X1357Y2380D01*
X1386Y2380D02*
X1413Y2380D01*
X1330Y2379D02*
X1357Y2379D01*
X1386Y2379D02*
X1413Y2379D01*
X1330Y2378D02*
X1358Y2378D01*
X1386Y2378D02*
X1413Y2378D01*
X1330Y2377D02*
X1358Y2377D01*
X1385Y2377D02*
X1413Y2377D01*
X1330Y2376D02*
X1359Y2376D01*
X1385Y2376D02*
X1413Y2376D01*
X1330Y2375D02*
X1360Y2375D01*
X1384Y2375D02*
X1413Y2375D01*
X1330Y2374D02*
X1361Y2374D01*
X1383Y2374D02*
X1413Y2374D01*
X1330Y2373D02*
X1362Y2373D01*
X1382Y2373D02*
X1413Y2373D01*
X1330Y2372D02*
X1363Y2372D01*
X1381Y2372D02*
X1413Y2372D01*
X1330Y2371D02*
X1365Y2371D01*
X1379Y2371D02*
X1413Y2371D01*
X1330Y2370D02*
X1367Y2370D01*
X1377Y2370D02*
X1413Y2370D01*
X1330Y2369D02*
X1413Y2369D01*
X1330Y2368D02*
X1413Y2368D01*
X1330Y2367D02*
X1413Y2367D01*
X1330Y2366D02*
X1413Y2366D01*
X1330Y2365D02*
X1413Y2365D01*
X1330Y2364D02*
X1413Y2364D01*
X1330Y2363D02*
X1413Y2363D01*
X1330Y2362D02*
X1413Y2362D01*
X1330Y2361D02*
X1413Y2361D01*
X1330Y2360D02*
X1413Y2360D01*
X1330Y2359D02*
X1413Y2359D01*
X1330Y2358D02*
X1413Y2358D01*
X1330Y2357D02*
X1413Y2357D01*
X1330Y2356D02*
X1413Y2356D01*
X1330Y2355D02*
X1413Y2355D01*
X1330Y2354D02*
X1413Y2354D01*
X1330Y2353D02*
X1413Y2353D01*
X1330Y2352D02*
X1413Y2352D01*
X1330Y2351D02*
X1413Y2351D01*
X1330Y2350D02*
X1413Y2350D01*
X1330Y2349D02*
X1413Y2349D01*
X1330Y2348D02*
X1413Y2348D01*
X1330Y2347D02*
X1413Y2347D01*
X1330Y2346D02*
X1413Y2346D01*
X1330Y2345D02*
X1413Y2345D01*
X1330Y2344D02*
X1413Y2344D01*
X1330Y2343D02*
X1413Y2343D01*
X4309Y2186D02*
X4392Y2186D01*
X4309Y2185D02*
X4392Y2185D01*
X4309Y2184D02*
X4392Y2184D01*
X5389Y2184D02*
X5472Y2184D01*
X4309Y2183D02*
X4392Y2183D01*
X5389Y2183D02*
X5472Y2183D01*
X4309Y2182D02*
X4392Y2182D01*
X5389Y2182D02*
X5472Y2182D01*
X4309Y2181D02*
X4392Y2181D01*
X5389Y2181D02*
X5472Y2181D01*
X4309Y2180D02*
X4392Y2180D01*
X5389Y2180D02*
X5472Y2180D01*
X4309Y2179D02*
X4392Y2179D01*
X5389Y2179D02*
X5472Y2179D01*
X4309Y2178D02*
X4392Y2178D01*
X5389Y2178D02*
X5472Y2178D01*
X4309Y2177D02*
X4392Y2177D01*
X5389Y2177D02*
X5472Y2177D01*
X4309Y2176D02*
X4392Y2176D01*
X5389Y2176D02*
X5472Y2176D01*
X4309Y2175D02*
X4392Y2175D01*
X5389Y2175D02*
X5472Y2175D01*
X4309Y2174D02*
X4392Y2174D01*
X5389Y2174D02*
X5472Y2174D01*
X4309Y2173D02*
X4392Y2173D01*
X5389Y2173D02*
X5472Y2173D01*
X4309Y2172D02*
X4392Y2172D01*
X5389Y2172D02*
X5472Y2172D01*
X4309Y2171D02*
X4392Y2171D01*
X5389Y2171D02*
X5472Y2171D01*
X4309Y2170D02*
X4392Y2170D01*
X5389Y2170D02*
X5472Y2170D01*
X4309Y2169D02*
X4392Y2169D01*
X5389Y2169D02*
X5472Y2169D01*
X4309Y2168D02*
X4392Y2168D01*
X5389Y2168D02*
X5472Y2168D01*
X4309Y2167D02*
X4392Y2167D01*
X5389Y2167D02*
X5472Y2167D01*
X4309Y2166D02*
X4392Y2166D01*
X5389Y2166D02*
X5472Y2166D01*
X4309Y2165D02*
X4392Y2165D01*
X5389Y2165D02*
X5472Y2165D01*
X4309Y2164D02*
X4392Y2164D01*
X5389Y2164D02*
X5472Y2164D01*
X4309Y2163D02*
X4392Y2163D01*
X5389Y2163D02*
X5472Y2163D01*
X4309Y2162D02*
X4392Y2162D01*
X5389Y2162D02*
X5472Y2162D01*
X4309Y2161D02*
X4392Y2161D01*
X5389Y2161D02*
X5472Y2161D01*
X4309Y2160D02*
X4392Y2160D01*
X5389Y2160D02*
X5472Y2160D01*
X4309Y2159D02*
X4349Y2159D01*
X4352Y2159D02*
X4392Y2159D01*
X5389Y2159D02*
X5472Y2159D01*
X4309Y2158D02*
X4344Y2158D01*
X4357Y2158D02*
X4392Y2158D01*
X5389Y2158D02*
X5472Y2158D01*
X4309Y2157D02*
X4342Y2157D01*
X4359Y2157D02*
X4392Y2157D01*
X5389Y2157D02*
X5427Y2157D01*
X5434Y2157D02*
X5472Y2157D01*
X4309Y2156D02*
X4341Y2156D01*
X4360Y2156D02*
X4392Y2156D01*
X5389Y2156D02*
X5424Y2156D01*
X5437Y2156D02*
X5472Y2156D01*
X4309Y2155D02*
X4340Y2155D01*
X4361Y2155D02*
X4392Y2155D01*
X5389Y2155D02*
X5422Y2155D01*
X5439Y2155D02*
X5472Y2155D01*
X4309Y2154D02*
X4339Y2154D01*
X4362Y2154D02*
X4392Y2154D01*
X5389Y2154D02*
X5421Y2154D01*
X5440Y2154D02*
X5472Y2154D01*
X4309Y2153D02*
X4338Y2153D01*
X4363Y2153D02*
X4392Y2153D01*
X5389Y2153D02*
X5419Y2153D01*
X5441Y2153D02*
X5472Y2153D01*
X4309Y2152D02*
X4337Y2152D01*
X4364Y2152D02*
X4392Y2152D01*
X5389Y2152D02*
X5419Y2152D01*
X5442Y2152D02*
X5472Y2152D01*
X4309Y2151D02*
X4337Y2151D01*
X4364Y2151D02*
X4392Y2151D01*
X5389Y2151D02*
X5418Y2151D01*
X5443Y2151D02*
X5472Y2151D01*
X4309Y2150D02*
X4336Y2150D01*
X4365Y2150D02*
X4392Y2150D01*
X5389Y2150D02*
X5417Y2150D01*
X5444Y2150D02*
X5472Y2150D01*
X4309Y2149D02*
X4336Y2149D01*
X4365Y2149D02*
X4392Y2149D01*
X5389Y2149D02*
X5417Y2149D01*
X5444Y2149D02*
X5472Y2149D01*
X4309Y2148D02*
X4336Y2148D01*
X4365Y2148D02*
X4392Y2148D01*
X5389Y2148D02*
X5416Y2148D01*
X5445Y2148D02*
X5472Y2148D01*
X4309Y2147D02*
X4335Y2147D01*
X4365Y2147D02*
X4392Y2147D01*
X5389Y2147D02*
X5416Y2147D01*
X5445Y2147D02*
X5472Y2147D01*
X4309Y2146D02*
X4335Y2146D01*
X4366Y2146D02*
X4392Y2146D01*
X5389Y2146D02*
X5415Y2146D01*
X5445Y2146D02*
X5472Y2146D01*
X4309Y2145D02*
X4335Y2145D01*
X4366Y2145D02*
X4392Y2145D01*
X5389Y2145D02*
X5415Y2145D01*
X5445Y2145D02*
X5472Y2145D01*
X4309Y2144D02*
X4335Y2144D01*
X4366Y2144D02*
X4392Y2144D01*
X5389Y2144D02*
X5415Y2144D01*
X5445Y2144D02*
X5472Y2144D01*
X4309Y2143D02*
X4335Y2143D01*
X4366Y2143D02*
X4392Y2143D01*
X5389Y2143D02*
X5415Y2143D01*
X5445Y2143D02*
X5472Y2143D01*
X4309Y2142D02*
X4335Y2142D01*
X4365Y2142D02*
X4392Y2142D01*
X5389Y2142D02*
X5415Y2142D01*
X5445Y2142D02*
X5472Y2142D01*
X4309Y2141D02*
X4336Y2141D01*
X4365Y2141D02*
X4392Y2141D01*
X5389Y2141D02*
X5415Y2141D01*
X5445Y2141D02*
X5472Y2141D01*
X4309Y2140D02*
X4336Y2140D01*
X4365Y2140D02*
X4392Y2140D01*
X5389Y2140D02*
X5415Y2140D01*
X5445Y2140D02*
X5472Y2140D01*
X4309Y2139D02*
X4336Y2139D01*
X4365Y2139D02*
X4392Y2139D01*
X5389Y2139D02*
X5416Y2139D01*
X5445Y2139D02*
X5472Y2139D01*
X4309Y2138D02*
X4337Y2138D01*
X4364Y2138D02*
X4392Y2138D01*
X5389Y2138D02*
X5416Y2138D01*
X5445Y2138D02*
X5472Y2138D01*
X4309Y2137D02*
X4337Y2137D01*
X4364Y2137D02*
X4392Y2137D01*
X5389Y2137D02*
X5416Y2137D01*
X5444Y2137D02*
X5472Y2137D01*
X4309Y2136D02*
X4338Y2136D01*
X4363Y2136D02*
X4392Y2136D01*
X5389Y2136D02*
X5417Y2136D01*
X5444Y2136D02*
X5472Y2136D01*
X4309Y2135D02*
X4339Y2135D01*
X4362Y2135D02*
X4392Y2135D01*
X5389Y2135D02*
X5417Y2135D01*
X5443Y2135D02*
X5472Y2135D01*
X4309Y2134D02*
X4340Y2134D01*
X4361Y2134D02*
X4392Y2134D01*
X5389Y2134D02*
X5418Y2134D01*
X5443Y2134D02*
X5472Y2134D01*
X4309Y2133D02*
X4341Y2133D01*
X4360Y2133D02*
X4392Y2133D01*
X5389Y2133D02*
X5419Y2133D01*
X5442Y2133D02*
X5472Y2133D01*
X4309Y2132D02*
X4342Y2132D01*
X4359Y2132D02*
X4392Y2132D01*
X5389Y2132D02*
X5420Y2132D01*
X5441Y2132D02*
X5472Y2132D01*
X4309Y2131D02*
X4344Y2131D01*
X4357Y2131D02*
X4392Y2131D01*
X5389Y2131D02*
X5421Y2131D01*
X5440Y2131D02*
X5472Y2131D01*
X4309Y2130D02*
X4347Y2130D01*
X4354Y2130D02*
X4392Y2130D01*
X5389Y2130D02*
X5422Y2130D01*
X5438Y2130D02*
X5472Y2130D01*
X4309Y2129D02*
X4392Y2129D01*
X5389Y2129D02*
X5424Y2129D01*
X5436Y2129D02*
X5472Y2129D01*
X4309Y2128D02*
X4392Y2128D01*
X5389Y2128D02*
X5429Y2128D01*
X5431Y2128D02*
X5472Y2128D01*
X4309Y2127D02*
X4392Y2127D01*
X5389Y2127D02*
X5472Y2127D01*
X4309Y2126D02*
X4392Y2126D01*
X5389Y2126D02*
X5472Y2126D01*
X4309Y2125D02*
X4392Y2125D01*
X5389Y2125D02*
X5472Y2125D01*
X4309Y2124D02*
X4392Y2124D01*
X5389Y2124D02*
X5472Y2124D01*
X4309Y2123D02*
X4392Y2123D01*
X5389Y2123D02*
X5472Y2123D01*
X4309Y2122D02*
X4392Y2122D01*
X5389Y2122D02*
X5472Y2122D01*
X4309Y2121D02*
X4392Y2121D01*
X5389Y2121D02*
X5472Y2121D01*
X4309Y2120D02*
X4392Y2120D01*
X5389Y2120D02*
X5472Y2120D01*
X4309Y2119D02*
X4392Y2119D01*
X5389Y2119D02*
X5472Y2119D01*
X4309Y2118D02*
X4392Y2118D01*
X5389Y2118D02*
X5472Y2118D01*
X4309Y2117D02*
X4392Y2117D01*
X5389Y2117D02*
X5472Y2117D01*
X4309Y2116D02*
X4392Y2116D01*
X5389Y2116D02*
X5472Y2116D01*
X4309Y2115D02*
X4392Y2115D01*
X5389Y2115D02*
X5472Y2115D01*
X4309Y2114D02*
X4392Y2114D01*
X5389Y2114D02*
X5472Y2114D01*
X4309Y2113D02*
X4392Y2113D01*
X5389Y2113D02*
X5472Y2113D01*
X4309Y2112D02*
X4392Y2112D01*
X5389Y2112D02*
X5472Y2112D01*
X4309Y2111D02*
X4392Y2111D01*
X5389Y2111D02*
X5472Y2111D01*
X4309Y2110D02*
X4392Y2110D01*
X5389Y2110D02*
X5472Y2110D01*
X4309Y2109D02*
X4392Y2109D01*
X5389Y2109D02*
X5472Y2109D01*
X4309Y2108D02*
X4392Y2108D01*
X5389Y2108D02*
X5472Y2108D01*
X4309Y2107D02*
X4392Y2107D01*
X5389Y2107D02*
X5472Y2107D01*
X4309Y2106D02*
X4392Y2106D01*
X5389Y2106D02*
X5472Y2106D01*
X4309Y2105D02*
X4392Y2105D01*
X5389Y2105D02*
X5472Y2105D01*
X4309Y2104D02*
X4392Y2104D01*
X5389Y2104D02*
X5472Y2104D01*
X4309Y2103D02*
X4392Y2103D01*
X5389Y2103D02*
X5472Y2103D01*
X5389Y2102D02*
X5472Y2102D01*
X5389Y2101D02*
X5472Y2101D01*
X3223Y1872D02*
X3306Y1872D01*
X3223Y1871D02*
X3306Y1871D01*
X3223Y1870D02*
X3306Y1870D01*
X3223Y1869D02*
X3306Y1869D01*
X3223Y1868D02*
X3306Y1868D01*
X3223Y1867D02*
X3306Y1867D01*
X3223Y1866D02*
X3306Y1866D01*
X3223Y1865D02*
X3306Y1865D01*
X3223Y1864D02*
X3306Y1864D01*
X3223Y1863D02*
X3306Y1863D01*
X3223Y1862D02*
X3306Y1862D01*
X3223Y1861D02*
X3306Y1861D01*
X3223Y1860D02*
X3306Y1860D01*
X3223Y1859D02*
X3306Y1859D01*
X3223Y1858D02*
X3306Y1858D01*
X3223Y1857D02*
X3306Y1857D01*
X3223Y1856D02*
X3306Y1856D01*
X3223Y1855D02*
X3306Y1855D01*
X3223Y1854D02*
X3306Y1854D01*
X3223Y1853D02*
X3306Y1853D01*
X3223Y1852D02*
X3306Y1852D01*
X3223Y1851D02*
X3306Y1851D01*
X3223Y1850D02*
X3306Y1850D01*
X3223Y1849D02*
X3306Y1849D01*
X3223Y1848D02*
X3306Y1848D01*
X3223Y1847D02*
X3306Y1847D01*
X3223Y1846D02*
X3306Y1846D01*
X3223Y1845D02*
X3263Y1845D01*
X3266Y1845D02*
X3306Y1845D01*
X3223Y1844D02*
X3258Y1844D01*
X3271Y1844D02*
X3306Y1844D01*
X3223Y1843D02*
X3256Y1843D01*
X3273Y1843D02*
X3306Y1843D01*
X3223Y1842D02*
X3255Y1842D01*
X3274Y1842D02*
X3306Y1842D01*
X3223Y1841D02*
X3254Y1841D01*
X3275Y1841D02*
X3306Y1841D01*
X3223Y1840D02*
X3253Y1840D01*
X3276Y1840D02*
X3306Y1840D01*
X3223Y1839D02*
X3252Y1839D01*
X3277Y1839D02*
X3306Y1839D01*
X3223Y1838D02*
X3251Y1838D01*
X3278Y1838D02*
X3306Y1838D01*
X3223Y1837D02*
X3251Y1837D01*
X3278Y1837D02*
X3306Y1837D01*
X3223Y1836D02*
X3250Y1836D01*
X3279Y1836D02*
X3306Y1836D01*
X3223Y1835D02*
X3250Y1835D01*
X3279Y1835D02*
X3306Y1835D01*
X3223Y1834D02*
X3250Y1834D01*
X3279Y1834D02*
X3306Y1834D01*
X3223Y1833D02*
X3250Y1833D01*
X3279Y1833D02*
X3306Y1833D01*
X3223Y1832D02*
X3249Y1832D01*
X3280Y1832D02*
X3306Y1832D01*
X3223Y1831D02*
X3249Y1831D01*
X3280Y1831D02*
X3306Y1831D01*
X3223Y1830D02*
X3249Y1830D01*
X3280Y1830D02*
X3306Y1830D01*
X3223Y1829D02*
X3249Y1829D01*
X3280Y1829D02*
X3306Y1829D01*
X3223Y1828D02*
X3250Y1828D01*
X3279Y1828D02*
X3306Y1828D01*
X3223Y1827D02*
X3250Y1827D01*
X3279Y1827D02*
X3306Y1827D01*
X3223Y1826D02*
X3250Y1826D01*
X3279Y1826D02*
X3306Y1826D01*
X3223Y1825D02*
X3250Y1825D01*
X3279Y1825D02*
X3306Y1825D01*
X3223Y1824D02*
X3251Y1824D01*
X3278Y1824D02*
X3306Y1824D01*
X3223Y1823D02*
X3251Y1823D01*
X3278Y1823D02*
X3306Y1823D01*
X3223Y1822D02*
X3252Y1822D01*
X3277Y1822D02*
X3306Y1822D01*
X3223Y1821D02*
X3253Y1821D01*
X3276Y1821D02*
X3306Y1821D01*
X3223Y1820D02*
X3254Y1820D01*
X3275Y1820D02*
X3306Y1820D01*
X3223Y1819D02*
X3255Y1819D01*
X3274Y1819D02*
X3306Y1819D01*
X3223Y1818D02*
X3256Y1818D01*
X3273Y1818D02*
X3306Y1818D01*
X3223Y1817D02*
X3258Y1817D01*
X3271Y1817D02*
X3306Y1817D01*
X3223Y1816D02*
X3261Y1816D01*
X3268Y1816D02*
X3306Y1816D01*
X3223Y1815D02*
X3306Y1815D01*
X3223Y1814D02*
X3306Y1814D01*
X3223Y1813D02*
X3306Y1813D01*
X3223Y1812D02*
X3306Y1812D01*
X3223Y1811D02*
X3306Y1811D01*
X3223Y1810D02*
X3306Y1810D01*
X3223Y1809D02*
X3306Y1809D01*
X3223Y1808D02*
X3306Y1808D01*
X3223Y1807D02*
X3306Y1807D01*
X3223Y1806D02*
X3306Y1806D01*
X3223Y1805D02*
X3306Y1805D01*
X3223Y1804D02*
X3306Y1804D01*
X3223Y1803D02*
X3306Y1803D01*
X3223Y1802D02*
X3306Y1802D01*
X3223Y1801D02*
X3306Y1801D01*
X3223Y1800D02*
X3306Y1800D01*
X3223Y1799D02*
X3306Y1799D01*
X3223Y1798D02*
X3306Y1798D01*
X3223Y1797D02*
X3306Y1797D01*
X3223Y1796D02*
X3306Y1796D01*
X3223Y1795D02*
X3306Y1795D01*
X3223Y1794D02*
X3306Y1794D01*
X3223Y1793D02*
X3306Y1793D01*
X3223Y1792D02*
X3306Y1792D01*
X3223Y1791D02*
X3306Y1791D01*
X3223Y1790D02*
X3306Y1790D01*
X3223Y1789D02*
X3306Y1789D01*
X1319Y1492D02*
X1402Y1492D01*
X1319Y1491D02*
X1402Y1491D01*
X1319Y1490D02*
X1402Y1490D01*
X1319Y1489D02*
X1402Y1489D01*
X1319Y1488D02*
X1402Y1488D01*
X1319Y1487D02*
X1402Y1487D01*
X1319Y1486D02*
X1402Y1486D01*
X1319Y1485D02*
X1402Y1485D01*
X1319Y1484D02*
X1402Y1484D01*
X1319Y1483D02*
X1402Y1483D01*
X1319Y1482D02*
X1402Y1482D01*
X1319Y1481D02*
X1402Y1481D01*
X1319Y1480D02*
X1402Y1480D01*
X1319Y1479D02*
X1402Y1479D01*
X1319Y1478D02*
X1402Y1478D01*
X1319Y1477D02*
X1402Y1477D01*
X1319Y1476D02*
X1402Y1476D01*
X1319Y1475D02*
X1402Y1475D01*
X1319Y1474D02*
X1402Y1474D01*
X1319Y1473D02*
X1402Y1473D01*
X1319Y1472D02*
X1402Y1472D01*
X1319Y1471D02*
X1402Y1471D01*
X1319Y1470D02*
X1402Y1470D01*
X1319Y1469D02*
X1402Y1469D01*
X1319Y1468D02*
X1402Y1468D01*
X1319Y1467D02*
X1402Y1467D01*
X1319Y1466D02*
X1402Y1466D01*
X1319Y1465D02*
X1358Y1465D01*
X1363Y1465D02*
X1402Y1465D01*
X1319Y1464D02*
X1354Y1464D01*
X1367Y1464D02*
X1402Y1464D01*
X1319Y1463D02*
X1352Y1463D01*
X1369Y1463D02*
X1402Y1463D01*
X1319Y1462D02*
X1351Y1462D01*
X1370Y1462D02*
X1402Y1462D01*
X1319Y1461D02*
X1350Y1461D01*
X1371Y1461D02*
X1402Y1461D01*
X1319Y1460D02*
X1349Y1460D01*
X1372Y1460D02*
X1402Y1460D01*
X1319Y1459D02*
X1348Y1459D01*
X1373Y1459D02*
X1402Y1459D01*
X1319Y1458D02*
X1348Y1458D01*
X1374Y1458D02*
X1402Y1458D01*
X1319Y1457D02*
X1347Y1457D01*
X1374Y1457D02*
X1402Y1457D01*
X1319Y1456D02*
X1347Y1456D01*
X1375Y1456D02*
X1402Y1456D01*
X1319Y1455D02*
X1346Y1455D01*
X1375Y1455D02*
X1402Y1455D01*
X1319Y1454D02*
X1346Y1454D01*
X1375Y1454D02*
X1402Y1454D01*
X1319Y1453D02*
X1346Y1453D01*
X1376Y1453D02*
X1402Y1453D01*
X1319Y1452D02*
X1346Y1452D01*
X1376Y1452D02*
X1402Y1452D01*
X1319Y1451D02*
X1346Y1451D01*
X1376Y1451D02*
X1402Y1451D01*
X1319Y1450D02*
X1346Y1450D01*
X1376Y1450D02*
X1402Y1450D01*
X1319Y1449D02*
X1346Y1449D01*
X1376Y1449D02*
X1402Y1449D01*
X1319Y1448D02*
X1346Y1448D01*
X1376Y1448D02*
X1402Y1448D01*
X1319Y1447D02*
X1346Y1447D01*
X1376Y1447D02*
X1402Y1447D01*
X1319Y1446D02*
X1346Y1446D01*
X1375Y1446D02*
X1402Y1446D01*
X1319Y1445D02*
X1347Y1445D01*
X1375Y1445D02*
X1402Y1445D01*
X1319Y1444D02*
X1347Y1444D01*
X1374Y1444D02*
X1402Y1444D01*
X1319Y1443D02*
X1348Y1443D01*
X1374Y1443D02*
X1402Y1443D01*
X1319Y1442D02*
X1348Y1442D01*
X1373Y1442D02*
X1402Y1442D01*
X1319Y1441D02*
X1349Y1441D01*
X1372Y1441D02*
X1402Y1441D01*
X1319Y1440D02*
X1350Y1440D01*
X1371Y1440D02*
X1402Y1440D01*
X1319Y1439D02*
X1351Y1439D01*
X1370Y1439D02*
X1402Y1439D01*
X1319Y1438D02*
X1352Y1438D01*
X1369Y1438D02*
X1402Y1438D01*
X1319Y1437D02*
X1354Y1437D01*
X1367Y1437D02*
X1402Y1437D01*
X1319Y1436D02*
X1358Y1436D01*
X1364Y1436D02*
X1402Y1436D01*
X1319Y1435D02*
X1402Y1435D01*
X1319Y1434D02*
X1402Y1434D01*
X1319Y1433D02*
X1402Y1433D01*
X1319Y1432D02*
X1402Y1432D01*
X1319Y1431D02*
X1402Y1431D01*
X1319Y1430D02*
X1402Y1430D01*
X1319Y1429D02*
X1402Y1429D01*
X1319Y1428D02*
X1402Y1428D01*
X1319Y1427D02*
X1402Y1427D01*
X1319Y1426D02*
X1402Y1426D01*
X1319Y1425D02*
X1402Y1425D01*
X1319Y1424D02*
X1402Y1424D01*
X1319Y1423D02*
X1402Y1423D01*
X1319Y1422D02*
X1402Y1422D01*
X1319Y1421D02*
X1402Y1421D01*
X1319Y1420D02*
X1402Y1420D01*
X1319Y1419D02*
X1402Y1419D01*
X1319Y1418D02*
X1402Y1418D01*
X1319Y1417D02*
X1402Y1417D01*
X1319Y1416D02*
X1402Y1416D01*
X1319Y1415D02*
X1402Y1415D01*
X1319Y1414D02*
X1402Y1414D01*
X1319Y1413D02*
X1402Y1413D01*
X1319Y1412D02*
X1402Y1412D01*
X1319Y1411D02*
X1402Y1411D01*
X1319Y1410D02*
X1402Y1410D01*
X1319Y1409D02*
X1402Y1409D01*
X518Y1308D02*
X601Y1308D01*
X518Y1307D02*
X601Y1307D01*
X518Y1306D02*
X601Y1306D01*
X518Y1305D02*
X601Y1305D01*
X518Y1304D02*
X601Y1304D01*
X518Y1303D02*
X601Y1303D01*
X518Y1302D02*
X601Y1302D01*
X518Y1301D02*
X601Y1301D01*
X518Y1300D02*
X601Y1300D01*
X518Y1299D02*
X601Y1299D01*
X518Y1298D02*
X601Y1298D01*
X518Y1297D02*
X601Y1297D01*
X518Y1296D02*
X601Y1296D01*
X518Y1295D02*
X601Y1295D01*
X518Y1294D02*
X601Y1294D01*
X518Y1293D02*
X601Y1293D01*
X518Y1292D02*
X601Y1292D01*
X518Y1291D02*
X601Y1291D01*
X518Y1290D02*
X601Y1290D01*
X518Y1289D02*
X601Y1289D01*
X518Y1288D02*
X601Y1288D01*
X518Y1287D02*
X601Y1287D01*
X518Y1286D02*
X601Y1286D01*
X518Y1285D02*
X601Y1285D01*
X518Y1284D02*
X601Y1284D01*
X518Y1283D02*
X601Y1283D01*
X518Y1282D02*
X601Y1282D01*
X518Y1281D02*
X555Y1281D01*
X564Y1281D02*
X601Y1281D01*
X518Y1280D02*
X552Y1280D01*
X567Y1280D02*
X601Y1280D01*
X518Y1279D02*
X550Y1279D01*
X568Y1279D02*
X601Y1279D01*
X518Y1278D02*
X549Y1278D01*
X569Y1278D02*
X601Y1278D01*
X518Y1277D02*
X548Y1277D01*
X571Y1277D02*
X601Y1277D01*
X518Y1276D02*
X547Y1276D01*
X571Y1276D02*
X601Y1276D01*
X518Y1275D02*
X547Y1275D01*
X572Y1275D02*
X601Y1275D01*
X518Y1274D02*
X546Y1274D01*
X573Y1274D02*
X601Y1274D01*
X518Y1273D02*
X545Y1273D01*
X573Y1273D02*
X601Y1273D01*
X518Y1272D02*
X545Y1272D01*
X574Y1272D02*
X601Y1272D01*
X518Y1271D02*
X545Y1271D01*
X574Y1271D02*
X601Y1271D01*
X518Y1270D02*
X544Y1270D01*
X574Y1270D02*
X601Y1270D01*
X518Y1269D02*
X544Y1269D01*
X574Y1269D02*
X601Y1269D01*
X518Y1268D02*
X544Y1268D01*
X574Y1268D02*
X601Y1268D01*
X518Y1267D02*
X544Y1267D01*
X575Y1267D02*
X601Y1267D01*
X518Y1266D02*
X544Y1266D01*
X574Y1266D02*
X601Y1266D01*
X518Y1265D02*
X544Y1265D01*
X574Y1265D02*
X601Y1265D01*
X518Y1264D02*
X544Y1264D01*
X574Y1264D02*
X601Y1264D01*
X518Y1263D02*
X545Y1263D01*
X574Y1263D02*
X601Y1263D01*
X518Y1262D02*
X545Y1262D01*
X574Y1262D02*
X601Y1262D01*
X518Y1261D02*
X545Y1261D01*
X573Y1261D02*
X601Y1261D01*
X518Y1260D02*
X546Y1260D01*
X573Y1260D02*
X601Y1260D01*
X518Y1259D02*
X546Y1259D01*
X572Y1259D02*
X601Y1259D01*
X518Y1258D02*
X547Y1258D01*
X571Y1258D02*
X601Y1258D01*
X518Y1257D02*
X548Y1257D01*
X571Y1257D02*
X601Y1257D01*
X518Y1256D02*
X549Y1256D01*
X570Y1256D02*
X601Y1256D01*
X518Y1255D02*
X550Y1255D01*
X568Y1255D02*
X601Y1255D01*
X518Y1254D02*
X552Y1254D01*
X567Y1254D02*
X601Y1254D01*
X518Y1253D02*
X554Y1253D01*
X565Y1253D02*
X601Y1253D01*
X518Y1252D02*
X601Y1252D01*
X518Y1251D02*
X601Y1251D01*
X518Y1250D02*
X601Y1250D01*
X518Y1249D02*
X601Y1249D01*
X518Y1248D02*
X601Y1248D01*
X518Y1247D02*
X601Y1247D01*
X518Y1246D02*
X601Y1246D01*
X518Y1245D02*
X601Y1245D01*
X518Y1244D02*
X601Y1244D01*
X518Y1243D02*
X601Y1243D01*
X518Y1242D02*
X601Y1242D01*
X518Y1241D02*
X601Y1241D01*
X518Y1240D02*
X601Y1240D01*
X518Y1239D02*
X601Y1239D01*
X518Y1238D02*
X601Y1238D01*
X518Y1237D02*
X601Y1237D01*
X518Y1236D02*
X601Y1236D01*
X518Y1235D02*
X601Y1235D01*
X518Y1234D02*
X601Y1234D01*
X518Y1233D02*
X601Y1233D01*
X518Y1232D02*
X601Y1232D01*
X518Y1231D02*
X601Y1231D01*
X518Y1230D02*
X601Y1230D01*
X518Y1229D02*
X601Y1229D01*
X518Y1228D02*
X601Y1228D01*
X518Y1227D02*
X601Y1227D01*
X518Y1226D02*
X601Y1226D01*
X518Y1225D02*
X600Y1225D01*
X1352Y1154D02*
X1366Y1154D01*
X1452Y1154D02*
X1466Y1154D01*
X3152Y1154D02*
X3166Y1154D01*
X3252Y1154D02*
X3266Y1154D01*
X1348Y1153D02*
X1370Y1153D01*
X1448Y1153D02*
X1469Y1153D01*
X3148Y1153D02*
X3169Y1153D01*
X3248Y1153D02*
X3269Y1153D01*
X1346Y1152D02*
X1372Y1152D01*
X1445Y1152D02*
X1472Y1152D01*
X3145Y1152D02*
X3172Y1152D01*
X3245Y1152D02*
X3272Y1152D01*
X1343Y1151D02*
X1374Y1151D01*
X1443Y1151D02*
X1474Y1151D01*
X3143Y1151D02*
X3174Y1151D01*
X3243Y1151D02*
X3274Y1151D01*
X1342Y1150D02*
X1376Y1150D01*
X1441Y1150D02*
X1476Y1150D01*
X3141Y1150D02*
X3176Y1150D01*
X3241Y1150D02*
X3276Y1150D01*
X1340Y1149D02*
X1378Y1149D01*
X1440Y1149D02*
X1478Y1149D01*
X3140Y1149D02*
X3178Y1149D01*
X3240Y1149D02*
X3278Y1149D01*
X1338Y1148D02*
X1379Y1148D01*
X1438Y1148D02*
X1479Y1148D01*
X3138Y1148D02*
X3179Y1148D01*
X3238Y1148D02*
X3279Y1148D01*
X1337Y1147D02*
X1381Y1147D01*
X1437Y1147D02*
X1481Y1147D01*
X3137Y1147D02*
X3181Y1147D01*
X3237Y1147D02*
X3281Y1147D01*
X1336Y1146D02*
X1382Y1146D01*
X1436Y1146D02*
X1482Y1146D01*
X3136Y1146D02*
X3182Y1146D01*
X3236Y1146D02*
X3282Y1146D01*
X1335Y1145D02*
X1383Y1145D01*
X1435Y1145D02*
X1483Y1145D01*
X3135Y1145D02*
X3183Y1145D01*
X3234Y1145D02*
X3283Y1145D01*
X1334Y1144D02*
X1384Y1144D01*
X1434Y1144D02*
X1484Y1144D01*
X3134Y1144D02*
X3184Y1144D01*
X3233Y1144D02*
X3284Y1144D01*
X1333Y1143D02*
X1385Y1143D01*
X1433Y1143D02*
X1485Y1143D01*
X3133Y1143D02*
X3185Y1143D01*
X3233Y1143D02*
X3285Y1143D01*
X1332Y1142D02*
X1386Y1142D01*
X1432Y1142D02*
X1486Y1142D01*
X3132Y1142D02*
X3186Y1142D01*
X3232Y1142D02*
X3286Y1142D01*
X1331Y1141D02*
X1387Y1141D01*
X1431Y1141D02*
X1487Y1141D01*
X3131Y1141D02*
X3187Y1141D01*
X3231Y1141D02*
X3287Y1141D01*
X1330Y1140D02*
X1387Y1140D01*
X1430Y1140D02*
X1487Y1140D01*
X3130Y1140D02*
X3187Y1140D01*
X3230Y1140D02*
X3287Y1140D01*
X1330Y1139D02*
X1388Y1139D01*
X1430Y1139D02*
X1488Y1139D01*
X3130Y1139D02*
X3188Y1139D01*
X3229Y1139D02*
X3288Y1139D01*
X1329Y1138D02*
X1389Y1138D01*
X1429Y1138D02*
X1489Y1138D01*
X3129Y1138D02*
X3189Y1138D01*
X3229Y1138D02*
X3289Y1138D01*
X1328Y1137D02*
X1389Y1137D01*
X1428Y1137D02*
X1489Y1137D01*
X3128Y1137D02*
X3189Y1137D01*
X3228Y1137D02*
X3289Y1137D01*
X1328Y1136D02*
X1390Y1136D01*
X1428Y1136D02*
X1490Y1136D01*
X3128Y1136D02*
X3190Y1136D01*
X3228Y1136D02*
X3290Y1136D01*
X1327Y1135D02*
X1390Y1135D01*
X1427Y1135D02*
X1490Y1135D01*
X3127Y1135D02*
X3190Y1135D01*
X3227Y1135D02*
X3290Y1135D01*
X1327Y1134D02*
X1391Y1134D01*
X1427Y1134D02*
X1491Y1134D01*
X3127Y1134D02*
X3191Y1134D01*
X3227Y1134D02*
X3291Y1134D01*
X1326Y1133D02*
X1391Y1133D01*
X1426Y1133D02*
X1491Y1133D01*
X3126Y1133D02*
X3191Y1133D01*
X3226Y1133D02*
X3291Y1133D01*
X1326Y1132D02*
X1355Y1132D01*
X1363Y1132D02*
X1392Y1132D01*
X1426Y1132D02*
X1455Y1132D01*
X1463Y1132D02*
X1492Y1132D01*
X3126Y1132D02*
X3155Y1132D01*
X3163Y1132D02*
X3192Y1132D01*
X3226Y1132D02*
X3255Y1132D01*
X3263Y1132D02*
X3292Y1132D01*
X1326Y1131D02*
X1352Y1131D01*
X1366Y1131D02*
X1392Y1131D01*
X1426Y1131D02*
X1452Y1131D01*
X1465Y1131D02*
X1492Y1131D01*
X3126Y1131D02*
X3152Y1131D01*
X3165Y1131D02*
X3192Y1131D01*
X3225Y1131D02*
X3252Y1131D01*
X3265Y1131D02*
X3292Y1131D01*
X1325Y1130D02*
X1351Y1130D01*
X1367Y1130D02*
X1392Y1130D01*
X1425Y1130D02*
X1451Y1130D01*
X1467Y1130D02*
X1492Y1130D01*
X3125Y1130D02*
X3151Y1130D01*
X3167Y1130D02*
X3192Y1130D01*
X3225Y1130D02*
X3250Y1130D01*
X3267Y1130D02*
X3292Y1130D01*
X1325Y1129D02*
X1349Y1129D01*
X1368Y1129D02*
X1393Y1129D01*
X1425Y1129D02*
X1449Y1129D01*
X1468Y1129D02*
X1493Y1129D01*
X3125Y1129D02*
X3149Y1129D01*
X3168Y1129D02*
X3193Y1129D01*
X3225Y1129D02*
X3249Y1129D01*
X3268Y1129D02*
X3293Y1129D01*
X1325Y1128D02*
X1348Y1128D01*
X1369Y1128D02*
X1393Y1128D01*
X1425Y1128D02*
X1448Y1128D01*
X1469Y1128D02*
X1493Y1128D01*
X3125Y1128D02*
X3148Y1128D01*
X3169Y1128D02*
X3193Y1128D01*
X3225Y1128D02*
X3248Y1128D01*
X3269Y1128D02*
X3293Y1128D01*
X1324Y1127D02*
X1348Y1127D01*
X1370Y1127D02*
X1393Y1127D01*
X1424Y1127D02*
X1448Y1127D01*
X1470Y1127D02*
X1493Y1127D01*
X3124Y1127D02*
X3147Y1127D01*
X3170Y1127D02*
X3193Y1127D01*
X3224Y1127D02*
X3247Y1127D01*
X3270Y1127D02*
X3293Y1127D01*
X1324Y1126D02*
X1347Y1126D01*
X1371Y1126D02*
X1394Y1126D01*
X1424Y1126D02*
X1447Y1126D01*
X1471Y1126D02*
X1494Y1126D01*
X3124Y1126D02*
X3147Y1126D01*
X3171Y1126D02*
X3193Y1126D01*
X3224Y1126D02*
X3247Y1126D01*
X3271Y1126D02*
X3293Y1126D01*
X1324Y1125D02*
X1346Y1125D01*
X1372Y1125D02*
X1394Y1125D01*
X1424Y1125D02*
X1446Y1125D01*
X1471Y1125D02*
X1494Y1125D01*
X3124Y1125D02*
X3146Y1125D01*
X3171Y1125D02*
X3194Y1125D01*
X3224Y1125D02*
X3246Y1125D01*
X3271Y1125D02*
X3294Y1125D01*
X1324Y1124D02*
X1346Y1124D01*
X1372Y1124D02*
X1394Y1124D01*
X1424Y1124D02*
X1446Y1124D01*
X1472Y1124D02*
X1494Y1124D01*
X3124Y1124D02*
X3146Y1124D01*
X3172Y1124D02*
X3194Y1124D01*
X3224Y1124D02*
X3246Y1124D01*
X3272Y1124D02*
X3294Y1124D01*
X1324Y1123D02*
X1345Y1123D01*
X1372Y1123D02*
X1394Y1123D01*
X1424Y1123D02*
X1445Y1123D01*
X1472Y1123D02*
X1494Y1123D01*
X3124Y1123D02*
X3145Y1123D01*
X3172Y1123D02*
X3194Y1123D01*
X3224Y1123D02*
X3245Y1123D01*
X3272Y1123D02*
X3294Y1123D01*
X1324Y1122D02*
X1345Y1122D01*
X1373Y1122D02*
X1394Y1122D01*
X1424Y1122D02*
X1445Y1122D01*
X1473Y1122D02*
X1494Y1122D01*
X3123Y1122D02*
X3145Y1122D01*
X3172Y1122D02*
X3194Y1122D01*
X3223Y1122D02*
X3245Y1122D01*
X3272Y1122D02*
X3294Y1122D01*
X1324Y1121D02*
X1345Y1121D01*
X1373Y1121D02*
X1394Y1121D01*
X1423Y1121D02*
X1445Y1121D01*
X1473Y1121D02*
X1494Y1121D01*
X3123Y1121D02*
X3145Y1121D01*
X3173Y1121D02*
X3194Y1121D01*
X3223Y1121D02*
X3245Y1121D01*
X3273Y1121D02*
X3294Y1121D01*
X1323Y1120D02*
X1345Y1120D01*
X1373Y1120D02*
X1394Y1120D01*
X1423Y1120D02*
X1445Y1120D01*
X1473Y1120D02*
X1494Y1120D01*
X3123Y1120D02*
X3145Y1120D01*
X3173Y1120D02*
X3194Y1120D01*
X3223Y1120D02*
X3245Y1120D01*
X3273Y1120D02*
X3294Y1120D01*
X1323Y1119D02*
X1345Y1119D01*
X1373Y1119D02*
X1394Y1119D01*
X1423Y1119D02*
X1445Y1119D01*
X1473Y1119D02*
X1494Y1119D01*
X3123Y1119D02*
X3145Y1119D01*
X3173Y1119D02*
X3194Y1119D01*
X3223Y1119D02*
X3245Y1119D01*
X3273Y1119D02*
X3294Y1119D01*
X1323Y1118D02*
X1345Y1118D01*
X1373Y1118D02*
X1394Y1118D01*
X1423Y1118D02*
X1445Y1118D01*
X1473Y1118D02*
X1494Y1118D01*
X3123Y1118D02*
X3145Y1118D01*
X3173Y1118D02*
X3194Y1118D01*
X3223Y1118D02*
X3245Y1118D01*
X3273Y1118D02*
X3294Y1118D01*
X1324Y1117D02*
X1345Y1117D01*
X1373Y1117D02*
X1394Y1117D01*
X1423Y1117D02*
X1445Y1117D01*
X1473Y1117D02*
X1494Y1117D01*
X3123Y1117D02*
X3145Y1117D01*
X3173Y1117D02*
X3194Y1117D01*
X3223Y1117D02*
X3245Y1117D01*
X3273Y1117D02*
X3294Y1117D01*
X1324Y1116D02*
X1345Y1116D01*
X1373Y1116D02*
X1394Y1116D01*
X1424Y1116D02*
X1445Y1116D01*
X1473Y1116D02*
X1494Y1116D01*
X3123Y1116D02*
X3145Y1116D01*
X3173Y1116D02*
X3194Y1116D01*
X3223Y1116D02*
X3245Y1116D01*
X3272Y1116D02*
X3294Y1116D01*
X1324Y1115D02*
X1345Y1115D01*
X1372Y1115D02*
X1394Y1115D01*
X1424Y1115D02*
X1445Y1115D01*
X1472Y1115D02*
X1494Y1115D01*
X3124Y1115D02*
X3145Y1115D01*
X3172Y1115D02*
X3194Y1115D01*
X3224Y1115D02*
X3245Y1115D01*
X3272Y1115D02*
X3294Y1115D01*
X1324Y1114D02*
X1346Y1114D01*
X1372Y1114D02*
X1394Y1114D01*
X1424Y1114D02*
X1446Y1114D01*
X1472Y1114D02*
X1494Y1114D01*
X3124Y1114D02*
X3146Y1114D01*
X3172Y1114D02*
X3194Y1114D01*
X3224Y1114D02*
X3246Y1114D01*
X3272Y1114D02*
X3294Y1114D01*
X1324Y1113D02*
X1346Y1113D01*
X1372Y1113D02*
X1394Y1113D01*
X1424Y1113D02*
X1446Y1113D01*
X1472Y1113D02*
X1494Y1113D01*
X3124Y1113D02*
X3146Y1113D01*
X3171Y1113D02*
X3194Y1113D01*
X3224Y1113D02*
X3246Y1113D01*
X3271Y1113D02*
X3294Y1113D01*
X1324Y1112D02*
X1347Y1112D01*
X1371Y1112D02*
X1394Y1112D01*
X1424Y1112D02*
X1447Y1112D01*
X1471Y1112D02*
X1494Y1112D01*
X3124Y1112D02*
X3147Y1112D01*
X3171Y1112D02*
X3194Y1112D01*
X3224Y1112D02*
X3247Y1112D01*
X3271Y1112D02*
X3293Y1112D01*
X1324Y1111D02*
X1347Y1111D01*
X1370Y1111D02*
X1393Y1111D01*
X1424Y1111D02*
X1447Y1111D01*
X1470Y1111D02*
X1493Y1111D01*
X3124Y1111D02*
X3147Y1111D01*
X3170Y1111D02*
X3193Y1111D01*
X3224Y1111D02*
X3247Y1111D01*
X3270Y1111D02*
X3293Y1111D01*
X1325Y1110D02*
X1348Y1110D01*
X1369Y1110D02*
X1393Y1110D01*
X1425Y1110D02*
X1448Y1110D01*
X1469Y1110D02*
X1493Y1110D01*
X3125Y1110D02*
X3148Y1110D01*
X3169Y1110D02*
X3193Y1110D01*
X3224Y1110D02*
X3248Y1110D01*
X3269Y1110D02*
X3293Y1110D01*
X1325Y1109D02*
X1349Y1109D01*
X1369Y1109D02*
X1393Y1109D01*
X1425Y1109D02*
X1449Y1109D01*
X1468Y1109D02*
X1493Y1109D01*
X3125Y1109D02*
X3149Y1109D01*
X3168Y1109D02*
X3193Y1109D01*
X3225Y1109D02*
X3249Y1109D01*
X3268Y1109D02*
X3293Y1109D01*
X1325Y1108D02*
X1350Y1108D01*
X1367Y1108D02*
X1393Y1108D01*
X1425Y1108D02*
X1450Y1108D01*
X1467Y1108D02*
X1492Y1108D01*
X3125Y1108D02*
X3150Y1108D01*
X3167Y1108D02*
X3192Y1108D01*
X3225Y1108D02*
X3250Y1108D01*
X3267Y1108D02*
X3292Y1108D01*
X1326Y1107D02*
X1352Y1107D01*
X1366Y1107D02*
X1392Y1107D01*
X1426Y1107D02*
X1452Y1107D01*
X1466Y1107D02*
X1492Y1107D01*
X3125Y1107D02*
X3152Y1107D01*
X3166Y1107D02*
X3192Y1107D01*
X3225Y1107D02*
X3252Y1107D01*
X3266Y1107D02*
X3292Y1107D01*
X1326Y1106D02*
X1354Y1106D01*
X1363Y1106D02*
X1392Y1106D01*
X1426Y1106D02*
X1454Y1106D01*
X1463Y1106D02*
X1492Y1106D01*
X3126Y1106D02*
X3154Y1106D01*
X3163Y1106D02*
X3192Y1106D01*
X3226Y1106D02*
X3254Y1106D01*
X3263Y1106D02*
X3292Y1106D01*
X1326Y1105D02*
X1391Y1105D01*
X1426Y1105D02*
X1491Y1105D01*
X3126Y1105D02*
X3191Y1105D01*
X3226Y1105D02*
X3291Y1105D01*
X1327Y1104D02*
X1391Y1104D01*
X1427Y1104D02*
X1491Y1104D01*
X3127Y1104D02*
X3191Y1104D01*
X3227Y1104D02*
X3291Y1104D01*
X1327Y1103D02*
X1390Y1103D01*
X1427Y1103D02*
X1490Y1103D01*
X3127Y1103D02*
X3190Y1103D01*
X3227Y1103D02*
X3290Y1103D01*
X1328Y1102D02*
X1390Y1102D01*
X1428Y1102D02*
X1490Y1102D01*
X3128Y1102D02*
X3190Y1102D01*
X3228Y1102D02*
X3290Y1102D01*
X1328Y1101D02*
X1389Y1101D01*
X1428Y1101D02*
X1489Y1101D01*
X3128Y1101D02*
X3189Y1101D01*
X3228Y1101D02*
X3289Y1101D01*
X1329Y1100D02*
X1389Y1100D01*
X1429Y1100D02*
X1489Y1100D01*
X3129Y1100D02*
X3189Y1100D01*
X3229Y1100D02*
X3289Y1100D01*
X1330Y1099D02*
X1388Y1099D01*
X1429Y1099D02*
X1488Y1099D01*
X3129Y1099D02*
X3188Y1099D01*
X3229Y1099D02*
X3288Y1099D01*
X1330Y1098D02*
X1388Y1098D01*
X1430Y1098D02*
X1487Y1098D01*
X3130Y1098D02*
X3187Y1098D01*
X3230Y1098D02*
X3287Y1098D01*
X1331Y1097D02*
X1387Y1097D01*
X1431Y1097D02*
X1487Y1097D01*
X3131Y1097D02*
X3187Y1097D01*
X3231Y1097D02*
X3287Y1097D01*
X1332Y1096D02*
X1386Y1096D01*
X1432Y1096D02*
X1486Y1096D01*
X3132Y1096D02*
X3186Y1096D01*
X3232Y1096D02*
X3286Y1096D01*
X1333Y1095D02*
X1385Y1095D01*
X1433Y1095D02*
X1485Y1095D01*
X3132Y1095D02*
X3185Y1095D01*
X3232Y1095D02*
X3285Y1095D01*
X1333Y1094D02*
X1384Y1094D01*
X1433Y1094D02*
X1484Y1094D01*
X3133Y1094D02*
X3184Y1094D01*
X3233Y1094D02*
X3284Y1094D01*
X1335Y1093D02*
X1383Y1093D01*
X1434Y1093D02*
X1483Y1093D01*
X3134Y1093D02*
X3183Y1093D01*
X3234Y1093D02*
X3283Y1093D01*
X1336Y1092D02*
X1382Y1092D01*
X1436Y1092D02*
X1482Y1092D01*
X3136Y1092D02*
X3182Y1092D01*
X3235Y1092D02*
X3282Y1092D01*
X1337Y1091D02*
X1381Y1091D01*
X1437Y1091D02*
X1481Y1091D01*
X3137Y1091D02*
X3181Y1091D01*
X3237Y1091D02*
X3281Y1091D01*
X1338Y1090D02*
X1380Y1090D01*
X1438Y1090D02*
X1480Y1090D01*
X3138Y1090D02*
X3180Y1090D01*
X3238Y1090D02*
X3279Y1090D01*
X1340Y1089D02*
X1378Y1089D01*
X1440Y1089D02*
X1478Y1089D01*
X3139Y1089D02*
X3178Y1089D01*
X3239Y1089D02*
X3278Y1089D01*
X1341Y1088D02*
X1377Y1088D01*
X1441Y1088D02*
X1476Y1088D01*
X3141Y1088D02*
X3176Y1088D01*
X3241Y1088D02*
X3276Y1088D01*
X1343Y1087D02*
X1375Y1087D01*
X1443Y1087D02*
X1475Y1087D01*
X3143Y1087D02*
X3175Y1087D01*
X3243Y1087D02*
X3275Y1087D01*
X1345Y1086D02*
X1373Y1086D01*
X1445Y1086D02*
X1473Y1086D01*
X3145Y1086D02*
X3172Y1086D01*
X3245Y1086D02*
X3272Y1086D01*
X1348Y1085D02*
X1370Y1085D01*
X1448Y1085D02*
X1470Y1085D01*
X3148Y1085D02*
X3170Y1085D01*
X3248Y1085D02*
X3270Y1085D01*
X1351Y1084D02*
X1367Y1084D01*
X1451Y1084D02*
X1467Y1084D01*
X3151Y1084D02*
X3166Y1084D01*
X3251Y1084D02*
X3266Y1084D01*
X1359Y1083D02*
X1359Y1083D01*
X1459Y1083D02*
X1459Y1083D01*
X3159Y1083D02*
X3159Y1083D01*
X3259Y1083D02*
X3259Y1083D01*
X1352Y754D02*
X1366Y754D01*
X1452Y754D02*
X1466Y754D01*
X3152Y754D02*
X3166Y754D01*
X3251Y754D02*
X3266Y754D01*
X1348Y753D02*
X1370Y753D01*
X1448Y753D02*
X1470Y753D01*
X3148Y753D02*
X3170Y753D01*
X3248Y753D02*
X3269Y753D01*
X1345Y752D02*
X1372Y752D01*
X1445Y752D02*
X1472Y752D01*
X3145Y752D02*
X3172Y752D01*
X3245Y752D02*
X3272Y752D01*
X1343Y751D02*
X1374Y751D01*
X1443Y751D02*
X1474Y751D01*
X3143Y751D02*
X3174Y751D01*
X3243Y751D02*
X3274Y751D01*
X1341Y750D02*
X1376Y750D01*
X1441Y750D02*
X1476Y750D01*
X3141Y750D02*
X3176Y750D01*
X3241Y750D02*
X3276Y750D01*
X1340Y749D02*
X1378Y749D01*
X1440Y749D02*
X1478Y749D01*
X3140Y749D02*
X3178Y749D01*
X3240Y749D02*
X3278Y749D01*
X1338Y748D02*
X1379Y748D01*
X1438Y748D02*
X1479Y748D01*
X3138Y748D02*
X3179Y748D01*
X3238Y748D02*
X3279Y748D01*
X1337Y747D02*
X1381Y747D01*
X1437Y747D02*
X1481Y747D01*
X3137Y747D02*
X3181Y747D01*
X3237Y747D02*
X3281Y747D01*
X1336Y746D02*
X1382Y746D01*
X1436Y746D02*
X1482Y746D01*
X3136Y746D02*
X3182Y746D01*
X3236Y746D02*
X3282Y746D01*
X1335Y745D02*
X1383Y745D01*
X1435Y745D02*
X1483Y745D01*
X3135Y745D02*
X3183Y745D01*
X3234Y745D02*
X3283Y745D01*
X1334Y744D02*
X1384Y744D01*
X1434Y744D02*
X1484Y744D01*
X3134Y744D02*
X3184Y744D01*
X3233Y744D02*
X3284Y744D01*
X1333Y743D02*
X1385Y743D01*
X1433Y743D02*
X1485Y743D01*
X3133Y743D02*
X3185Y743D01*
X3233Y743D02*
X3285Y743D01*
X1332Y742D02*
X1386Y742D01*
X1432Y742D02*
X1486Y742D01*
X3132Y742D02*
X3186Y742D01*
X3232Y742D02*
X3286Y742D01*
X1331Y741D02*
X1387Y741D01*
X1431Y741D02*
X1487Y741D01*
X3131Y741D02*
X3187Y741D01*
X3231Y741D02*
X3287Y741D01*
X1330Y740D02*
X1387Y740D01*
X1430Y740D02*
X1487Y740D01*
X3130Y740D02*
X3187Y740D01*
X3230Y740D02*
X3287Y740D01*
X1330Y739D02*
X1388Y739D01*
X1430Y739D02*
X1488Y739D01*
X3129Y739D02*
X3188Y739D01*
X3229Y739D02*
X3288Y739D01*
X1329Y738D02*
X1389Y738D01*
X1429Y738D02*
X1489Y738D01*
X3129Y738D02*
X3189Y738D01*
X3229Y738D02*
X3289Y738D01*
X1328Y737D02*
X1389Y737D01*
X1428Y737D02*
X1489Y737D01*
X3128Y737D02*
X3189Y737D01*
X3228Y737D02*
X3289Y737D01*
X1328Y736D02*
X1390Y736D01*
X1428Y736D02*
X1490Y736D01*
X3128Y736D02*
X3190Y736D01*
X3228Y736D02*
X3290Y736D01*
X1327Y735D02*
X1390Y735D01*
X1427Y735D02*
X1490Y735D01*
X3127Y735D02*
X3190Y735D01*
X3227Y735D02*
X3290Y735D01*
X1327Y734D02*
X1391Y734D01*
X1427Y734D02*
X1491Y734D01*
X3127Y734D02*
X3191Y734D01*
X3227Y734D02*
X3291Y734D01*
X1326Y733D02*
X1391Y733D01*
X1426Y733D02*
X1491Y733D01*
X3126Y733D02*
X3191Y733D01*
X3226Y733D02*
X3291Y733D01*
X1326Y732D02*
X1355Y732D01*
X1363Y732D02*
X1392Y732D01*
X1426Y732D02*
X1455Y732D01*
X1463Y732D02*
X1492Y732D01*
X3126Y732D02*
X3155Y732D01*
X3163Y732D02*
X3192Y732D01*
X3226Y732D02*
X3255Y732D01*
X3263Y732D02*
X3292Y732D01*
X1326Y731D02*
X1352Y731D01*
X1366Y731D02*
X1392Y731D01*
X1426Y731D02*
X1452Y731D01*
X1466Y731D02*
X1492Y731D01*
X3126Y731D02*
X3152Y731D01*
X3165Y731D02*
X3192Y731D01*
X3225Y731D02*
X3252Y731D01*
X3265Y731D02*
X3292Y731D01*
X1325Y730D02*
X1351Y730D01*
X1367Y730D02*
X1393Y730D01*
X1425Y730D02*
X1451Y730D01*
X1467Y730D02*
X1492Y730D01*
X3125Y730D02*
X3150Y730D01*
X3167Y730D02*
X3192Y730D01*
X3225Y730D02*
X3250Y730D01*
X3267Y730D02*
X3292Y730D01*
X1325Y729D02*
X1349Y729D01*
X1368Y729D02*
X1393Y729D01*
X1425Y729D02*
X1449Y729D01*
X1468Y729D02*
X1493Y729D01*
X3125Y729D02*
X3149Y729D01*
X3168Y729D02*
X3193Y729D01*
X3225Y729D02*
X3249Y729D01*
X3268Y729D02*
X3293Y729D01*
X1325Y728D02*
X1348Y728D01*
X1369Y728D02*
X1393Y728D01*
X1425Y728D02*
X1448Y728D01*
X1469Y728D02*
X1493Y728D01*
X3125Y728D02*
X3148Y728D01*
X3169Y728D02*
X3193Y728D01*
X3225Y728D02*
X3248Y728D01*
X3269Y728D02*
X3293Y728D01*
X1324Y727D02*
X1348Y727D01*
X1370Y727D02*
X1393Y727D01*
X1424Y727D02*
X1448Y727D01*
X1470Y727D02*
X1493Y727D01*
X3124Y727D02*
X3147Y727D01*
X3170Y727D02*
X3193Y727D01*
X3224Y727D02*
X3247Y727D01*
X3270Y727D02*
X3293Y727D01*
X1324Y726D02*
X1347Y726D01*
X1371Y726D02*
X1394Y726D01*
X1424Y726D02*
X1447Y726D01*
X1471Y726D02*
X1494Y726D01*
X3124Y726D02*
X3147Y726D01*
X3171Y726D02*
X3193Y726D01*
X3224Y726D02*
X3247Y726D01*
X3271Y726D02*
X3293Y726D01*
X1324Y725D02*
X1346Y725D01*
X1372Y725D02*
X1394Y725D01*
X1424Y725D02*
X1446Y725D01*
X1471Y725D02*
X1494Y725D01*
X3124Y725D02*
X3146Y725D01*
X3171Y725D02*
X3194Y725D01*
X3224Y725D02*
X3246Y725D01*
X3271Y725D02*
X3294Y725D01*
X1324Y724D02*
X1346Y724D01*
X1372Y724D02*
X1394Y724D01*
X1424Y724D02*
X1446Y724D01*
X1472Y724D02*
X1494Y724D01*
X3124Y724D02*
X3146Y724D01*
X3172Y724D02*
X3194Y724D01*
X3224Y724D02*
X3246Y724D01*
X3272Y724D02*
X3294Y724D01*
X1324Y723D02*
X1345Y723D01*
X1372Y723D02*
X1394Y723D01*
X1424Y723D02*
X1445Y723D01*
X1472Y723D02*
X1494Y723D01*
X3124Y723D02*
X3145Y723D01*
X3172Y723D02*
X3194Y723D01*
X3224Y723D02*
X3245Y723D01*
X3272Y723D02*
X3294Y723D01*
X1324Y722D02*
X1345Y722D01*
X1373Y722D02*
X1394Y722D01*
X1424Y722D02*
X1445Y722D01*
X1473Y722D02*
X1494Y722D01*
X3123Y722D02*
X3145Y722D01*
X3173Y722D02*
X3194Y722D01*
X3223Y722D02*
X3245Y722D01*
X3272Y722D02*
X3294Y722D01*
X1324Y721D02*
X1345Y721D01*
X1373Y721D02*
X1394Y721D01*
X1423Y721D02*
X1445Y721D01*
X1473Y721D02*
X1494Y721D01*
X3123Y721D02*
X3145Y721D01*
X3173Y721D02*
X3194Y721D01*
X3223Y721D02*
X3245Y721D01*
X3273Y721D02*
X3294Y721D01*
X1323Y720D02*
X1345Y720D01*
X1373Y720D02*
X1394Y720D01*
X1423Y720D02*
X1445Y720D01*
X1473Y720D02*
X1494Y720D01*
X3123Y720D02*
X3145Y720D01*
X3173Y720D02*
X3194Y720D01*
X3223Y720D02*
X3245Y720D01*
X3273Y720D02*
X3294Y720D01*
X1323Y719D02*
X1345Y719D01*
X1373Y719D02*
X1394Y719D01*
X1423Y719D02*
X1445Y719D01*
X1473Y719D02*
X1494Y719D01*
X3123Y719D02*
X3145Y719D01*
X3173Y719D02*
X3194Y719D01*
X3223Y719D02*
X3245Y719D01*
X3273Y719D02*
X3294Y719D01*
X1323Y718D02*
X1345Y718D01*
X1373Y718D02*
X1394Y718D01*
X1423Y718D02*
X1445Y718D01*
X1473Y718D02*
X1494Y718D01*
X3123Y718D02*
X3145Y718D01*
X3173Y718D02*
X3194Y718D01*
X3223Y718D02*
X3245Y718D01*
X3273Y718D02*
X3294Y718D01*
X1324Y717D02*
X1345Y717D01*
X1373Y717D02*
X1394Y717D01*
X1423Y717D02*
X1445Y717D01*
X1473Y717D02*
X1494Y717D01*
X3123Y717D02*
X3145Y717D01*
X3173Y717D02*
X3194Y717D01*
X3223Y717D02*
X3245Y717D01*
X3273Y717D02*
X3294Y717D01*
X1324Y716D02*
X1345Y716D01*
X1373Y716D02*
X1394Y716D01*
X1424Y716D02*
X1445Y716D01*
X1473Y716D02*
X1494Y716D01*
X3123Y716D02*
X3145Y716D01*
X3173Y716D02*
X3194Y716D01*
X3223Y716D02*
X3245Y716D01*
X3272Y716D02*
X3294Y716D01*
X1324Y715D02*
X1345Y715D01*
X1372Y715D02*
X1394Y715D01*
X1424Y715D02*
X1445Y715D01*
X1472Y715D02*
X1494Y715D01*
X3124Y715D02*
X3145Y715D01*
X3172Y715D02*
X3194Y715D01*
X3224Y715D02*
X3245Y715D01*
X3272Y715D02*
X3294Y715D01*
X1324Y714D02*
X1346Y714D01*
X1372Y714D02*
X1394Y714D01*
X1424Y714D02*
X1446Y714D01*
X1472Y714D02*
X1494Y714D01*
X3124Y714D02*
X3146Y714D01*
X3172Y714D02*
X3194Y714D01*
X3224Y714D02*
X3246Y714D01*
X3272Y714D02*
X3294Y714D01*
X1324Y713D02*
X1346Y713D01*
X1372Y713D02*
X1394Y713D01*
X1424Y713D02*
X1446Y713D01*
X1472Y713D02*
X1494Y713D01*
X3124Y713D02*
X3146Y713D01*
X3171Y713D02*
X3194Y713D01*
X3224Y713D02*
X3246Y713D01*
X3271Y713D02*
X3294Y713D01*
X1324Y712D02*
X1347Y712D01*
X1371Y712D02*
X1394Y712D01*
X1424Y712D02*
X1447Y712D01*
X1471Y712D02*
X1494Y712D01*
X3124Y712D02*
X3147Y712D01*
X3171Y712D02*
X3193Y712D01*
X3224Y712D02*
X3247Y712D01*
X3271Y712D02*
X3293Y712D01*
X1324Y711D02*
X1347Y711D01*
X1370Y711D02*
X1393Y711D01*
X1424Y711D02*
X1447Y711D01*
X1470Y711D02*
X1493Y711D01*
X3124Y711D02*
X3147Y711D01*
X3170Y711D02*
X3193Y711D01*
X3224Y711D02*
X3247Y711D01*
X3270Y711D02*
X3293Y711D01*
X1325Y710D02*
X1348Y710D01*
X1369Y710D02*
X1393Y710D01*
X1425Y710D02*
X1448Y710D01*
X1469Y710D02*
X1493Y710D01*
X3125Y710D02*
X3148Y710D01*
X3169Y710D02*
X3193Y710D01*
X3224Y710D02*
X3248Y710D01*
X3269Y710D02*
X3293Y710D01*
X1325Y709D02*
X1349Y709D01*
X1368Y709D02*
X1393Y709D01*
X1425Y709D02*
X1449Y709D01*
X1468Y709D02*
X1493Y709D01*
X3125Y709D02*
X3149Y709D01*
X3168Y709D02*
X3193Y709D01*
X3225Y709D02*
X3249Y709D01*
X3268Y709D02*
X3293Y709D01*
X1325Y708D02*
X1351Y708D01*
X1367Y708D02*
X1393Y708D01*
X1425Y708D02*
X1450Y708D01*
X1467Y708D02*
X1492Y708D01*
X3125Y708D02*
X3150Y708D01*
X3167Y708D02*
X3192Y708D01*
X3225Y708D02*
X3250Y708D01*
X3267Y708D02*
X3292Y708D01*
X1326Y707D02*
X1352Y707D01*
X1366Y707D02*
X1392Y707D01*
X1426Y707D02*
X1452Y707D01*
X1466Y707D02*
X1492Y707D01*
X3125Y707D02*
X3152Y707D01*
X3166Y707D02*
X3192Y707D01*
X3225Y707D02*
X3252Y707D01*
X3266Y707D02*
X3292Y707D01*
X1326Y706D02*
X1355Y706D01*
X1363Y706D02*
X1392Y706D01*
X1426Y706D02*
X1454Y706D01*
X1463Y706D02*
X1492Y706D01*
X3126Y706D02*
X3154Y706D01*
X3163Y706D02*
X3192Y706D01*
X3226Y706D02*
X3254Y706D01*
X3263Y706D02*
X3292Y706D01*
X1326Y705D02*
X1391Y705D01*
X1426Y705D02*
X1491Y705D01*
X3126Y705D02*
X3191Y705D01*
X3226Y705D02*
X3291Y705D01*
X1327Y704D02*
X1391Y704D01*
X1427Y704D02*
X1491Y704D01*
X3127Y704D02*
X3191Y704D01*
X3227Y704D02*
X3291Y704D01*
X1327Y703D02*
X1390Y703D01*
X1427Y703D02*
X1490Y703D01*
X3127Y703D02*
X3190Y703D01*
X3227Y703D02*
X3290Y703D01*
X1328Y702D02*
X1390Y702D01*
X1428Y702D02*
X1490Y702D01*
X3128Y702D02*
X3190Y702D01*
X3228Y702D02*
X3290Y702D01*
X1328Y701D02*
X1389Y701D01*
X1428Y701D02*
X1489Y701D01*
X3128Y701D02*
X3189Y701D01*
X3228Y701D02*
X3289Y701D01*
X1329Y700D02*
X1389Y700D01*
X1429Y700D02*
X1489Y700D01*
X3129Y700D02*
X3189Y700D01*
X3229Y700D02*
X3289Y700D01*
X1330Y699D02*
X1388Y699D01*
X1429Y699D02*
X1488Y699D01*
X3129Y699D02*
X3188Y699D01*
X3229Y699D02*
X3288Y699D01*
X1330Y698D02*
X1388Y698D01*
X1430Y698D02*
X1487Y698D01*
X3130Y698D02*
X3187Y698D01*
X3230Y698D02*
X3287Y698D01*
X1331Y697D02*
X1387Y697D01*
X1431Y697D02*
X1487Y697D01*
X3131Y697D02*
X3187Y697D01*
X3231Y697D02*
X3287Y697D01*
X1332Y696D02*
X1386Y696D01*
X1432Y696D02*
X1486Y696D01*
X3132Y696D02*
X3186Y696D01*
X3232Y696D02*
X3286Y696D01*
X1333Y695D02*
X1385Y695D01*
X1433Y695D02*
X1485Y695D01*
X3133Y695D02*
X3185Y695D01*
X3232Y695D02*
X3285Y695D01*
X1334Y694D02*
X1384Y694D01*
X1433Y694D02*
X1484Y694D01*
X3133Y694D02*
X3184Y694D01*
X3233Y694D02*
X3284Y694D01*
X1335Y693D02*
X1383Y693D01*
X1435Y693D02*
X1483Y693D01*
X3134Y693D02*
X3183Y693D01*
X3234Y693D02*
X3283Y693D01*
X1336Y692D02*
X1382Y692D01*
X1436Y692D02*
X1482Y692D01*
X3136Y692D02*
X3182Y692D01*
X3236Y692D02*
X3282Y692D01*
X1337Y691D02*
X1381Y691D01*
X1437Y691D02*
X1481Y691D01*
X3137Y691D02*
X3181Y691D01*
X3237Y691D02*
X3281Y691D01*
X1338Y690D02*
X1380Y690D01*
X1438Y690D02*
X1480Y690D01*
X3138Y690D02*
X3179Y690D01*
X3238Y690D02*
X3279Y690D01*
X1340Y689D02*
X1378Y689D01*
X1440Y689D02*
X1478Y689D01*
X3140Y689D02*
X3178Y689D01*
X3239Y689D02*
X3278Y689D01*
X1341Y688D02*
X1376Y688D01*
X1441Y688D02*
X1476Y688D01*
X3141Y688D02*
X3176Y688D01*
X3241Y688D02*
X3276Y688D01*
X1343Y687D02*
X1375Y687D01*
X1443Y687D02*
X1475Y687D01*
X3143Y687D02*
X3174Y687D01*
X3243Y687D02*
X3274Y687D01*
X1345Y686D02*
X1372Y686D01*
X1445Y686D02*
X1472Y686D01*
X3145Y686D02*
X3172Y686D01*
X3245Y686D02*
X3272Y686D01*
X1348Y685D02*
X1370Y685D01*
X1448Y685D02*
X1470Y685D01*
X3148Y685D02*
X3170Y685D01*
X3248Y685D02*
X3270Y685D01*
X1351Y684D02*
X1366Y684D01*
X1451Y684D02*
X1466Y684D01*
X3151Y684D02*
X3166Y684D01*
X3251Y684D02*
X3266Y684D01*
X4305Y445D02*
X4388Y445D01*
X4305Y444D02*
X4388Y444D01*
X4305Y443D02*
X4388Y443D01*
X4305Y442D02*
X4388Y442D01*
X4305Y441D02*
X4388Y441D01*
X4305Y440D02*
X4388Y440D01*
X4305Y439D02*
X4388Y439D01*
X4305Y438D02*
X4388Y438D01*
X4305Y437D02*
X4388Y437D01*
X4305Y436D02*
X4388Y436D01*
X4305Y435D02*
X4388Y435D01*
X4305Y434D02*
X4388Y434D01*
X4305Y433D02*
X4388Y433D01*
X4305Y432D02*
X4388Y432D01*
X4305Y431D02*
X4388Y431D01*
X4305Y430D02*
X4388Y430D01*
X4305Y429D02*
X4388Y429D01*
X4305Y428D02*
X4388Y428D01*
X4305Y427D02*
X4388Y427D01*
X4305Y426D02*
X4388Y426D01*
X4305Y425D02*
X4388Y425D01*
X4305Y424D02*
X4388Y424D01*
X4305Y423D02*
X4388Y423D01*
X4305Y422D02*
X4388Y422D01*
X4305Y421D02*
X4388Y421D01*
X4305Y420D02*
X4388Y420D01*
X4305Y419D02*
X4388Y419D01*
X4305Y418D02*
X4342Y418D01*
X4351Y418D02*
X4388Y418D01*
X4305Y417D02*
X4339Y417D01*
X4354Y417D02*
X4388Y417D01*
X4305Y416D02*
X4337Y416D01*
X4355Y416D02*
X4388Y416D01*
X4305Y415D02*
X4336Y415D01*
X4356Y415D02*
X4388Y415D01*
X4305Y414D02*
X4335Y414D01*
X4357Y414D02*
X4388Y414D01*
X4305Y413D02*
X4334Y413D01*
X4358Y413D02*
X4388Y413D01*
X4305Y412D02*
X4333Y412D01*
X4359Y412D02*
X4388Y412D01*
X4305Y411D02*
X4333Y411D01*
X4360Y411D02*
X4388Y411D01*
X4305Y410D02*
X4332Y410D01*
X4360Y410D02*
X4388Y410D01*
X4305Y409D02*
X4332Y409D01*
X4361Y409D02*
X4388Y409D01*
X4305Y408D02*
X4332Y408D01*
X4361Y408D02*
X4388Y408D01*
X4305Y407D02*
X4331Y407D01*
X4361Y407D02*
X4388Y407D01*
X4305Y406D02*
X4331Y406D01*
X4361Y406D02*
X4388Y406D01*
X4305Y405D02*
X4331Y405D01*
X4361Y405D02*
X4388Y405D01*
X4305Y404D02*
X4331Y404D01*
X4361Y404D02*
X4388Y404D01*
X4305Y403D02*
X4331Y403D01*
X4361Y403D02*
X4388Y403D01*
X4305Y402D02*
X4331Y402D01*
X4361Y402D02*
X4388Y402D01*
X4305Y401D02*
X4331Y401D01*
X4361Y401D02*
X4388Y401D01*
X4305Y400D02*
X4332Y400D01*
X4361Y400D02*
X4388Y400D01*
X4305Y399D02*
X4332Y399D01*
X4361Y399D02*
X4388Y399D01*
X4305Y398D02*
X4332Y398D01*
X4360Y398D02*
X4388Y398D01*
X4305Y397D02*
X4333Y397D01*
X4360Y397D02*
X4388Y397D01*
X4305Y396D02*
X4333Y396D01*
X4359Y396D02*
X4388Y396D01*
X4305Y395D02*
X4334Y395D01*
X4358Y395D02*
X4388Y395D01*
X4305Y394D02*
X4335Y394D01*
X4358Y394D02*
X4388Y394D01*
X4305Y393D02*
X4336Y393D01*
X4357Y393D02*
X4388Y393D01*
X4305Y392D02*
X4337Y392D01*
X4355Y392D02*
X4388Y392D01*
X4305Y391D02*
X4339Y391D01*
X4354Y391D02*
X4388Y391D01*
X4305Y390D02*
X4341Y390D01*
X4351Y390D02*
X4388Y390D01*
X4305Y389D02*
X4388Y389D01*
X4305Y388D02*
X4388Y388D01*
X4305Y387D02*
X4388Y387D01*
X4305Y386D02*
X4388Y386D01*
X4305Y385D02*
X4388Y385D01*
X4305Y384D02*
X4388Y384D01*
X4305Y383D02*
X4388Y383D01*
X4305Y382D02*
X4388Y382D01*
X4305Y381D02*
X4388Y381D01*
X4305Y380D02*
X4388Y380D01*
X4305Y379D02*
X4388Y379D01*
X4305Y378D02*
X4388Y378D01*
X4305Y377D02*
X4388Y377D01*
X4305Y376D02*
X4388Y376D01*
X4305Y375D02*
X4388Y375D01*
X4305Y374D02*
X4388Y374D01*
X4305Y373D02*
X4388Y373D01*
X4305Y372D02*
X4388Y372D01*
X4305Y371D02*
X4388Y371D01*
X4305Y370D02*
X4388Y370D01*
X4305Y369D02*
X4388Y369D01*
X4305Y368D02*
X4388Y368D01*
X4305Y367D02*
X4388Y367D01*
X4305Y366D02*
X4388Y366D01*
X4305Y365D02*
X4388Y365D01*
X4305Y364D02*
X4388Y364D01*
X4305Y363D02*
X4388Y363D01*
X4305Y362D02*
X4387Y362D01*
D02*
G04 End of Mask0*
M02*