; NON-PLATED HOLES START AT T1
; THROUGH (PLATED) HOLES START AT T100
M48
INCH
T1C0.125984
T2C0.086614
T100C0.039370
T101C0.015748
T102C0.048028
T103C0.038000
T104C0.036000
%
T1
X054812Y018923
X043971Y001534
X035152Y018800
X008099Y008665
X039513Y018941
X050312Y018923
X011113Y014000
X044013Y018941
X035128Y027670
X008099Y013165
X035152Y014300
X035128Y023170
X011224Y027837
X039471Y001534
X011224Y023337
X011113Y018500
T2
X037500Y011330
X008485Y027976
X037673Y027918
X046516Y011388
X045996Y027861
X037789Y018555
X056978Y023352
X001260Y008556
X046112Y018671
X057036Y018324
X046401Y000927
X048418Y023301
X001144Y028092
X048334Y018472
X037500Y000984
X008427Y014683
T100
X043513Y021441
X042971Y005034
X013724Y024837
X039971Y005034
X005599Y009665
X014724Y026337
X042513Y021441
X014724Y024337
X040013Y022441
X014724Y025337
X032628Y025170
X005599Y010665
X013724Y023837
X014613Y015000
X040971Y005034
X032628Y024170
X031628Y025670
X014724Y027337
X004599Y011165
X014613Y018000
X013724Y025837
X043013Y022441
X041013Y022441
X004599Y010165
X052312Y021423
X040513Y021441
X032652Y015300
X031652Y014800
X014613Y017000
X013613Y017500
X032652Y018300
X032652Y016300
X031652Y017800
X032652Y017300
X005599Y012665
X031628Y026670
X031628Y024670
X052812Y022423
X040471Y004034
X013613Y016500
X051312Y021423
X043471Y004034
X041971Y005034
X013724Y026837
X032628Y027170
X041471Y004034
X051812Y022423
X042013Y022441
X032628Y026170
X053812Y022423
X031652Y016800
X050812Y022423
X031628Y023670
X054312Y021423
X042471Y004034
X014613Y016000
X031652Y015800
X053312Y021423
X013613Y015500
X041513Y021441
X005599Y011665
X004599Y012165
X004599Y009165
X013613Y014500
T101
X044845Y005935
T102
X014594Y011185
X031595Y011185
X032594Y011185
X013594Y011185
X032594Y007185
X014594Y007185
X013594Y007185
X031595Y007185
T103
X002572Y026747
X041010Y009671
X040010Y009671
X051580Y027145
X002572Y023747
X042074Y026731
X042010Y009671
X052580Y027145
X046010Y009671
X043074Y026731
X039010Y009671
X041074Y026731
X044010Y009671
X045010Y009671
X040074Y026731
X002572Y024747
X002572Y025747
X053580Y027145
X043010Y009671
T104
X026800Y021332
X026800Y018332
X020800Y014332
X020800Y017332
X026800Y015332
X020800Y018332
X020800Y016332
X020800Y013332
X020800Y026332
X026800Y022332
X020800Y021332
X026800Y019332
X026800Y020332
X026800Y017332
X026800Y026332
X026800Y016332
X020800Y022332
X020800Y015332
X026800Y013332
X026800Y025332
X020800Y024332
X026800Y024332
X026800Y014332
X020800Y023332
X026800Y023332
X026800Y027332
X020800Y019332
X020800Y025332
X020800Y027332
X020800Y020332
T00
M30
