G04 MADE WITH FRITZING*
G04 WWW.FRITZING.ORG*
G04 DOUBLE SIDED*
G04 HOLES PLATED*
G04 CONTOUR ON CENTER OF CONTOUR VECTOR*
%ASAXBY*%
%FSLAX23Y23*%
%MOIN*%
%OFA0B0*%
%SFA1.0B1.0*%
%ADD10C,0.070000*%
%ADD11C,0.074000*%
%ADD12C,0.075806*%
%ADD13R,0.069972X0.070000*%
%ADD14R,0.001000X0.001000*%
%LNCOPPER1*%
G90*
G70*
G54D10*
X1676Y1329D03*
X1676Y1429D03*
X1676Y1529D03*
X1676Y1629D03*
X1676Y1729D03*
X1676Y1829D03*
X1676Y1929D03*
X1676Y2029D03*
X1676Y2129D03*
X1676Y2229D03*
X1676Y2329D03*
X1676Y2429D03*
X1676Y2529D03*
X1676Y2629D03*
X1676Y2729D03*
X1076Y1329D03*
X1076Y1429D03*
X1076Y1529D03*
X1076Y1629D03*
X1076Y1729D03*
X1076Y1829D03*
X1076Y1929D03*
X1076Y2029D03*
X1076Y2129D03*
X1076Y2229D03*
X1076Y2329D03*
X1076Y2429D03*
X1076Y2529D03*
X1076Y2629D03*
X1076Y2729D03*
G54D11*
X2161Y1476D03*
X2261Y1526D03*
X2161Y1576D03*
X2161Y1676D03*
X2161Y1776D03*
X2261Y1626D03*
X2261Y1726D03*
X2261Y1826D03*
X2161Y1476D03*
X2261Y1526D03*
X2161Y1576D03*
X2161Y1676D03*
X2161Y1776D03*
X2261Y1626D03*
X2261Y1726D03*
X2261Y1826D03*
G54D12*
X333Y1114D03*
X433Y1114D03*
X333Y714D03*
X433Y714D03*
X2133Y1114D03*
X2233Y1114D03*
X2133Y714D03*
X2233Y714D03*
X333Y1114D03*
X433Y1114D03*
X333Y714D03*
X433Y714D03*
X2133Y1114D03*
X2233Y1114D03*
X2133Y714D03*
X2233Y714D03*
G54D11*
X468Y2730D03*
X368Y2680D03*
X468Y2630D03*
X468Y2530D03*
X468Y2430D03*
X368Y2580D03*
X368Y2480D03*
X368Y2380D03*
X468Y2730D03*
X368Y2680D03*
X468Y2630D03*
X468Y2530D03*
X468Y2430D03*
X368Y2580D03*
X368Y2480D03*
X368Y2380D03*
X457Y1796D03*
X357Y1746D03*
X457Y1696D03*
X457Y1596D03*
X457Y1496D03*
X357Y1646D03*
X357Y1546D03*
X357Y1446D03*
X457Y1796D03*
X357Y1746D03*
X457Y1696D03*
X457Y1596D03*
X457Y1496D03*
X357Y1646D03*
X357Y1546D03*
X357Y1446D03*
X2159Y2363D03*
X2259Y2413D03*
X2159Y2463D03*
X2159Y2563D03*
X2159Y2663D03*
X2259Y2513D03*
X2259Y2613D03*
X2259Y2713D03*
X2159Y2363D03*
X2259Y2413D03*
X2159Y2463D03*
X2159Y2563D03*
X2159Y2663D03*
X2259Y2513D03*
X2259Y2613D03*
X2259Y2713D03*
G54D13*
X1676Y1329D03*
G54D14*
X2222Y2750D02*
X2294Y2750D01*
X2222Y2749D02*
X2295Y2749D01*
X2222Y2748D02*
X2295Y2748D01*
X2222Y2747D02*
X2295Y2747D01*
X2222Y2746D02*
X2295Y2746D01*
X2222Y2745D02*
X2295Y2745D01*
X2222Y2744D02*
X2295Y2744D01*
X2222Y2743D02*
X2295Y2743D01*
X2222Y2742D02*
X2295Y2742D01*
X2222Y2741D02*
X2295Y2741D01*
X2222Y2740D02*
X2295Y2740D01*
X2222Y2739D02*
X2295Y2739D01*
X2222Y2738D02*
X2295Y2738D01*
X2222Y2737D02*
X2295Y2737D01*
X2222Y2736D02*
X2295Y2736D01*
X2222Y2735D02*
X2295Y2735D01*
X2222Y2734D02*
X2295Y2734D01*
X2222Y2733D02*
X2295Y2733D01*
X2222Y2732D02*
X2252Y2732D01*
X2264Y2732D02*
X2295Y2732D01*
X2222Y2731D02*
X2249Y2731D01*
X2267Y2731D02*
X2295Y2731D01*
X2222Y2730D02*
X2247Y2730D01*
X2269Y2730D02*
X2295Y2730D01*
X2222Y2729D02*
X2246Y2729D01*
X2270Y2729D02*
X2295Y2729D01*
X2222Y2728D02*
X2245Y2728D01*
X2271Y2728D02*
X2295Y2728D01*
X2222Y2727D02*
X2244Y2727D01*
X2273Y2727D02*
X2295Y2727D01*
X2222Y2726D02*
X2243Y2726D01*
X2273Y2726D02*
X2295Y2726D01*
X2222Y2725D02*
X2242Y2725D01*
X2274Y2725D02*
X2295Y2725D01*
X2222Y2724D02*
X2241Y2724D01*
X2275Y2724D02*
X2295Y2724D01*
X2222Y2723D02*
X2241Y2723D01*
X2276Y2723D02*
X2295Y2723D01*
X2222Y2722D02*
X2240Y2722D01*
X2276Y2722D02*
X2295Y2722D01*
X2222Y2721D02*
X2240Y2721D01*
X2277Y2721D02*
X2295Y2721D01*
X2222Y2720D02*
X2239Y2720D01*
X2277Y2720D02*
X2295Y2720D01*
X2222Y2719D02*
X2239Y2719D01*
X2277Y2719D02*
X2295Y2719D01*
X2222Y2718D02*
X2239Y2718D01*
X2278Y2718D02*
X2295Y2718D01*
X2222Y2717D02*
X2238Y2717D01*
X2278Y2717D02*
X2295Y2717D01*
X2222Y2716D02*
X2238Y2716D01*
X2278Y2716D02*
X2295Y2716D01*
X2222Y2715D02*
X2238Y2715D01*
X2278Y2715D02*
X2295Y2715D01*
X2222Y2714D02*
X2238Y2714D01*
X2278Y2714D02*
X2295Y2714D01*
X2222Y2713D02*
X2238Y2713D01*
X2278Y2713D02*
X2295Y2713D01*
X2222Y2712D02*
X2238Y2712D01*
X2278Y2712D02*
X2295Y2712D01*
X2222Y2711D02*
X2238Y2711D01*
X2278Y2711D02*
X2295Y2711D01*
X2222Y2710D02*
X2238Y2710D01*
X2278Y2710D02*
X2295Y2710D01*
X2222Y2709D02*
X2238Y2709D01*
X2278Y2709D02*
X2295Y2709D01*
X2222Y2708D02*
X2239Y2708D01*
X2277Y2708D02*
X2295Y2708D01*
X2222Y2707D02*
X2239Y2707D01*
X2277Y2707D02*
X2295Y2707D01*
X2222Y2706D02*
X2239Y2706D01*
X2277Y2706D02*
X2295Y2706D01*
X2222Y2705D02*
X2240Y2705D01*
X2276Y2705D02*
X2295Y2705D01*
X2222Y2704D02*
X2240Y2704D01*
X2276Y2704D02*
X2295Y2704D01*
X2222Y2703D02*
X2241Y2703D01*
X2275Y2703D02*
X2295Y2703D01*
X2222Y2702D02*
X2241Y2702D01*
X2275Y2702D02*
X2295Y2702D01*
X2222Y2701D02*
X2242Y2701D01*
X2274Y2701D02*
X2295Y2701D01*
X2222Y2700D02*
X2243Y2700D01*
X2273Y2700D02*
X2295Y2700D01*
X2222Y2699D02*
X2244Y2699D01*
X2272Y2699D02*
X2295Y2699D01*
X2222Y2698D02*
X2245Y2698D01*
X2271Y2698D02*
X2295Y2698D01*
X2222Y2697D02*
X2246Y2697D01*
X2270Y2697D02*
X2295Y2697D01*
X2222Y2696D02*
X2248Y2696D01*
X2268Y2696D02*
X2295Y2696D01*
X2222Y2695D02*
X2250Y2695D01*
X2266Y2695D02*
X2295Y2695D01*
X2222Y2694D02*
X2253Y2694D01*
X2263Y2694D02*
X2295Y2694D01*
X2222Y2693D02*
X2295Y2693D01*
X2222Y2692D02*
X2295Y2692D01*
X2222Y2691D02*
X2295Y2691D01*
X2222Y2690D02*
X2295Y2690D01*
X2222Y2689D02*
X2295Y2689D01*
X2222Y2688D02*
X2295Y2688D01*
X2222Y2687D02*
X2295Y2687D01*
X2222Y2686D02*
X2295Y2686D01*
X2222Y2685D02*
X2295Y2685D01*
X2222Y2684D02*
X2295Y2684D01*
X2222Y2683D02*
X2295Y2683D01*
X2222Y2682D02*
X2295Y2682D01*
X2222Y2681D02*
X2295Y2681D01*
X2222Y2680D02*
X2295Y2680D01*
X2222Y2679D02*
X2295Y2679D01*
X2222Y2678D02*
X2295Y2678D01*
X2222Y2677D02*
X2295Y2677D01*
X331Y2416D02*
X404Y2416D01*
X331Y2415D02*
X404Y2415D01*
X331Y2414D02*
X404Y2414D01*
X331Y2413D02*
X404Y2413D01*
X331Y2412D02*
X404Y2412D01*
X331Y2411D02*
X404Y2411D01*
X331Y2410D02*
X404Y2410D01*
X331Y2409D02*
X404Y2409D01*
X331Y2408D02*
X404Y2408D01*
X331Y2407D02*
X404Y2407D01*
X331Y2406D02*
X404Y2406D01*
X331Y2405D02*
X404Y2405D01*
X331Y2404D02*
X404Y2404D01*
X331Y2403D02*
X404Y2403D01*
X331Y2402D02*
X404Y2402D01*
X331Y2401D02*
X404Y2401D01*
X331Y2400D02*
X404Y2400D01*
X331Y2399D02*
X363Y2399D01*
X373Y2399D02*
X404Y2399D01*
X331Y2398D02*
X360Y2398D01*
X376Y2398D02*
X404Y2398D01*
X331Y2397D02*
X358Y2397D01*
X378Y2397D02*
X404Y2397D01*
X331Y2396D02*
X356Y2396D01*
X380Y2396D02*
X404Y2396D01*
X331Y2395D02*
X355Y2395D01*
X381Y2395D02*
X404Y2395D01*
X331Y2394D02*
X354Y2394D01*
X382Y2394D02*
X404Y2394D01*
X331Y2393D02*
X353Y2393D01*
X383Y2393D02*
X404Y2393D01*
X331Y2392D02*
X352Y2392D01*
X384Y2392D02*
X404Y2392D01*
X331Y2391D02*
X351Y2391D01*
X385Y2391D02*
X404Y2391D01*
X331Y2390D02*
X351Y2390D01*
X385Y2390D02*
X404Y2390D01*
X331Y2389D02*
X350Y2389D01*
X386Y2389D02*
X404Y2389D01*
X331Y2388D02*
X349Y2388D01*
X386Y2388D02*
X404Y2388D01*
X331Y2387D02*
X349Y2387D01*
X387Y2387D02*
X404Y2387D01*
X331Y2386D02*
X349Y2386D01*
X387Y2386D02*
X404Y2386D01*
X331Y2385D02*
X348Y2385D01*
X387Y2385D02*
X404Y2385D01*
X331Y2384D02*
X348Y2384D01*
X388Y2384D02*
X404Y2384D01*
X331Y2383D02*
X348Y2383D01*
X388Y2383D02*
X404Y2383D01*
X331Y2382D02*
X348Y2382D01*
X388Y2382D02*
X404Y2382D01*
X331Y2381D02*
X348Y2381D01*
X388Y2381D02*
X404Y2381D01*
X331Y2380D02*
X348Y2380D01*
X388Y2380D02*
X404Y2380D01*
X331Y2379D02*
X348Y2379D01*
X388Y2379D02*
X404Y2379D01*
X331Y2378D02*
X348Y2378D01*
X388Y2378D02*
X404Y2378D01*
X331Y2377D02*
X348Y2377D01*
X388Y2377D02*
X404Y2377D01*
X331Y2376D02*
X348Y2376D01*
X388Y2376D02*
X404Y2376D01*
X331Y2375D02*
X348Y2375D01*
X387Y2375D02*
X404Y2375D01*
X331Y2374D02*
X349Y2374D01*
X387Y2374D02*
X404Y2374D01*
X331Y2373D02*
X349Y2373D01*
X387Y2373D02*
X404Y2373D01*
X331Y2372D02*
X349Y2372D01*
X386Y2372D02*
X404Y2372D01*
X331Y2371D02*
X350Y2371D01*
X386Y2371D02*
X404Y2371D01*
X331Y2370D02*
X350Y2370D01*
X385Y2370D02*
X404Y2370D01*
X331Y2369D02*
X351Y2369D01*
X385Y2369D02*
X404Y2369D01*
X331Y2368D02*
X352Y2368D01*
X384Y2368D02*
X404Y2368D01*
X331Y2367D02*
X353Y2367D01*
X383Y2367D02*
X404Y2367D01*
X331Y2366D02*
X353Y2366D01*
X382Y2366D02*
X404Y2366D01*
X331Y2365D02*
X355Y2365D01*
X381Y2365D02*
X404Y2365D01*
X331Y2364D02*
X356Y2364D01*
X380Y2364D02*
X404Y2364D01*
X331Y2363D02*
X357Y2363D01*
X378Y2363D02*
X404Y2363D01*
X331Y2362D02*
X359Y2362D01*
X376Y2362D02*
X404Y2362D01*
X331Y2361D02*
X362Y2361D01*
X373Y2361D02*
X404Y2361D01*
X331Y2360D02*
X404Y2360D01*
X331Y2359D02*
X404Y2359D01*
X331Y2358D02*
X404Y2358D01*
X331Y2357D02*
X404Y2357D01*
X331Y2356D02*
X404Y2356D01*
X331Y2355D02*
X404Y2355D01*
X331Y2354D02*
X404Y2354D01*
X331Y2353D02*
X404Y2353D01*
X331Y2352D02*
X404Y2352D01*
X331Y2351D02*
X404Y2351D01*
X331Y2350D02*
X404Y2350D01*
X331Y2349D02*
X404Y2349D01*
X331Y2348D02*
X404Y2348D01*
X331Y2347D02*
X404Y2347D01*
X331Y2346D02*
X404Y2346D01*
X331Y2345D02*
X404Y2345D01*
X331Y2344D02*
X404Y2344D01*
X332Y2343D02*
X404Y2343D01*
X2224Y1863D02*
X2297Y1863D01*
X2224Y1862D02*
X2297Y1862D01*
X2224Y1861D02*
X2297Y1861D01*
X2224Y1860D02*
X2297Y1860D01*
X2224Y1859D02*
X2297Y1859D01*
X2224Y1858D02*
X2297Y1858D01*
X2224Y1857D02*
X2297Y1857D01*
X2224Y1856D02*
X2297Y1856D01*
X2224Y1855D02*
X2297Y1855D01*
X2224Y1854D02*
X2297Y1854D01*
X2224Y1853D02*
X2297Y1853D01*
X2224Y1852D02*
X2297Y1852D01*
X2224Y1851D02*
X2297Y1851D01*
X2224Y1850D02*
X2297Y1850D01*
X2224Y1849D02*
X2297Y1849D01*
X2224Y1848D02*
X2297Y1848D01*
X2224Y1847D02*
X2297Y1847D01*
X2224Y1846D02*
X2297Y1846D01*
X2224Y1845D02*
X2254Y1845D01*
X2267Y1845D02*
X2297Y1845D01*
X2224Y1844D02*
X2252Y1844D01*
X2269Y1844D02*
X2297Y1844D01*
X2224Y1843D02*
X2250Y1843D01*
X2271Y1843D02*
X2297Y1843D01*
X2224Y1842D02*
X2248Y1842D01*
X2273Y1842D02*
X2297Y1842D01*
X2224Y1841D02*
X2247Y1841D01*
X2274Y1841D02*
X2297Y1841D01*
X2224Y1840D02*
X2246Y1840D01*
X2275Y1840D02*
X2297Y1840D01*
X2224Y1839D02*
X2245Y1839D01*
X2276Y1839D02*
X2297Y1839D01*
X2224Y1838D02*
X2244Y1838D01*
X2277Y1838D02*
X2297Y1838D01*
X2224Y1837D02*
X2244Y1837D01*
X2277Y1837D02*
X2297Y1837D01*
X2224Y1836D02*
X2243Y1836D01*
X2278Y1836D02*
X2297Y1836D01*
X2224Y1835D02*
X2242Y1835D01*
X2279Y1835D02*
X2297Y1835D01*
X2224Y1834D02*
X2242Y1834D01*
X2279Y1834D02*
X2297Y1834D01*
X2224Y1833D02*
X2242Y1833D01*
X2279Y1833D02*
X2297Y1833D01*
X2224Y1832D02*
X2241Y1832D01*
X2280Y1832D02*
X2297Y1832D01*
X2224Y1831D02*
X2241Y1831D01*
X2280Y1831D02*
X2297Y1831D01*
X2224Y1830D02*
X2241Y1830D01*
X2280Y1830D02*
X2297Y1830D01*
X2224Y1829D02*
X2241Y1829D01*
X2280Y1829D02*
X2297Y1829D01*
X2224Y1828D02*
X2241Y1828D01*
X2281Y1828D02*
X2297Y1828D01*
X2224Y1827D02*
X2240Y1827D01*
X2281Y1827D02*
X2297Y1827D01*
X2224Y1826D02*
X2240Y1826D01*
X2281Y1826D02*
X2297Y1826D01*
X2224Y1825D02*
X2240Y1825D01*
X2281Y1825D02*
X2297Y1825D01*
X2224Y1824D02*
X2241Y1824D01*
X2280Y1824D02*
X2297Y1824D01*
X2224Y1823D02*
X2241Y1823D01*
X2280Y1823D02*
X2297Y1823D01*
X2224Y1822D02*
X2241Y1822D01*
X2280Y1822D02*
X2297Y1822D01*
X2224Y1821D02*
X2241Y1821D01*
X2280Y1821D02*
X2297Y1821D01*
X2224Y1820D02*
X2241Y1820D01*
X2280Y1820D02*
X2297Y1820D01*
X2224Y1819D02*
X2242Y1819D01*
X2279Y1819D02*
X2297Y1819D01*
X2224Y1818D02*
X2242Y1818D01*
X2279Y1818D02*
X2297Y1818D01*
X2224Y1817D02*
X2243Y1817D01*
X2278Y1817D02*
X2297Y1817D01*
X2224Y1816D02*
X2243Y1816D01*
X2278Y1816D02*
X2297Y1816D01*
X2224Y1815D02*
X2244Y1815D01*
X2277Y1815D02*
X2297Y1815D01*
X2224Y1814D02*
X2245Y1814D01*
X2276Y1814D02*
X2297Y1814D01*
X2224Y1813D02*
X2246Y1813D01*
X2275Y1813D02*
X2297Y1813D01*
X2224Y1812D02*
X2247Y1812D01*
X2275Y1812D02*
X2297Y1812D01*
X2224Y1811D02*
X2248Y1811D01*
X2273Y1811D02*
X2297Y1811D01*
X2224Y1810D02*
X2249Y1810D01*
X2272Y1810D02*
X2297Y1810D01*
X2224Y1809D02*
X2251Y1809D01*
X2270Y1809D02*
X2297Y1809D01*
X2224Y1808D02*
X2253Y1808D01*
X2268Y1808D02*
X2297Y1808D01*
X2224Y1807D02*
X2256Y1807D01*
X2265Y1807D02*
X2297Y1807D01*
X2224Y1806D02*
X2297Y1806D01*
X2224Y1805D02*
X2297Y1805D01*
X2224Y1804D02*
X2297Y1804D01*
X2224Y1803D02*
X2297Y1803D01*
X2224Y1802D02*
X2297Y1802D01*
X2224Y1801D02*
X2297Y1801D01*
X2224Y1800D02*
X2297Y1800D01*
X2224Y1799D02*
X2297Y1799D01*
X2224Y1798D02*
X2297Y1798D01*
X2224Y1797D02*
X2297Y1797D01*
X2224Y1796D02*
X2297Y1796D01*
X2224Y1795D02*
X2297Y1795D01*
X2224Y1794D02*
X2297Y1794D01*
X2224Y1793D02*
X2297Y1793D01*
X2224Y1792D02*
X2297Y1792D01*
X2224Y1791D02*
X2297Y1791D01*
X2224Y1790D02*
X2297Y1790D01*
X320Y1483D02*
X393Y1483D01*
X320Y1482D02*
X393Y1482D01*
X320Y1481D02*
X393Y1481D01*
X320Y1480D02*
X393Y1480D01*
X320Y1479D02*
X393Y1479D01*
X320Y1478D02*
X393Y1478D01*
X320Y1477D02*
X393Y1477D01*
X320Y1476D02*
X393Y1476D01*
X320Y1475D02*
X393Y1475D01*
X320Y1474D02*
X393Y1474D01*
X320Y1473D02*
X393Y1473D01*
X320Y1472D02*
X393Y1472D01*
X320Y1471D02*
X393Y1471D01*
X320Y1470D02*
X393Y1470D01*
X320Y1469D02*
X393Y1469D01*
X320Y1468D02*
X393Y1468D01*
X320Y1467D02*
X393Y1467D01*
X320Y1466D02*
X393Y1466D01*
X320Y1465D02*
X350Y1465D01*
X363Y1465D02*
X393Y1465D01*
X320Y1464D02*
X348Y1464D01*
X366Y1464D02*
X393Y1464D01*
X320Y1463D02*
X346Y1463D01*
X368Y1463D02*
X393Y1463D01*
X320Y1462D02*
X344Y1462D01*
X369Y1462D02*
X393Y1462D01*
X320Y1461D02*
X343Y1461D01*
X370Y1461D02*
X393Y1461D01*
X320Y1460D02*
X342Y1460D01*
X371Y1460D02*
X393Y1460D01*
X320Y1459D02*
X341Y1459D01*
X372Y1459D02*
X393Y1459D01*
X320Y1458D02*
X340Y1458D01*
X373Y1458D02*
X393Y1458D01*
X320Y1457D02*
X340Y1457D01*
X374Y1457D02*
X393Y1457D01*
X320Y1456D02*
X339Y1456D01*
X374Y1456D02*
X393Y1456D01*
X320Y1455D02*
X339Y1455D01*
X375Y1455D02*
X393Y1455D01*
X320Y1454D02*
X338Y1454D01*
X375Y1454D02*
X393Y1454D01*
X320Y1453D02*
X338Y1453D01*
X376Y1453D02*
X393Y1453D01*
X320Y1452D02*
X337Y1452D01*
X376Y1452D02*
X393Y1452D01*
X320Y1451D02*
X337Y1451D01*
X376Y1451D02*
X393Y1451D01*
X320Y1450D02*
X337Y1450D01*
X377Y1450D02*
X393Y1450D01*
X320Y1449D02*
X337Y1449D01*
X377Y1449D02*
X393Y1449D01*
X320Y1448D02*
X337Y1448D01*
X377Y1448D02*
X393Y1448D01*
X320Y1447D02*
X337Y1447D01*
X377Y1447D02*
X393Y1447D01*
X320Y1446D02*
X337Y1446D01*
X377Y1446D02*
X393Y1446D01*
X320Y1445D02*
X337Y1445D01*
X377Y1445D02*
X393Y1445D01*
X320Y1444D02*
X337Y1444D01*
X377Y1444D02*
X393Y1444D01*
X320Y1443D02*
X337Y1443D01*
X377Y1443D02*
X393Y1443D01*
X320Y1442D02*
X337Y1442D01*
X376Y1442D02*
X393Y1442D01*
X320Y1441D02*
X337Y1441D01*
X376Y1441D02*
X393Y1441D01*
X320Y1440D02*
X338Y1440D01*
X376Y1440D02*
X393Y1440D01*
X320Y1439D02*
X338Y1439D01*
X375Y1439D02*
X393Y1439D01*
X320Y1438D02*
X338Y1438D01*
X375Y1438D02*
X393Y1438D01*
X320Y1437D02*
X339Y1437D01*
X374Y1437D02*
X393Y1437D01*
X320Y1436D02*
X340Y1436D01*
X374Y1436D02*
X393Y1436D01*
X320Y1435D02*
X340Y1435D01*
X373Y1435D02*
X393Y1435D01*
X320Y1434D02*
X341Y1434D01*
X372Y1434D02*
X393Y1434D01*
X320Y1433D02*
X342Y1433D01*
X372Y1433D02*
X393Y1433D01*
X320Y1432D02*
X343Y1432D01*
X371Y1432D02*
X393Y1432D01*
X320Y1431D02*
X344Y1431D01*
X369Y1431D02*
X393Y1431D01*
X320Y1430D02*
X345Y1430D01*
X368Y1430D02*
X393Y1430D01*
X320Y1429D02*
X347Y1429D01*
X366Y1429D02*
X393Y1429D01*
X320Y1428D02*
X349Y1428D01*
X364Y1428D02*
X393Y1428D01*
X320Y1427D02*
X353Y1427D01*
X361Y1427D02*
X393Y1427D01*
X320Y1426D02*
X393Y1426D01*
X320Y1425D02*
X393Y1425D01*
X320Y1424D02*
X393Y1424D01*
X320Y1423D02*
X393Y1423D01*
X320Y1422D02*
X393Y1422D01*
X320Y1421D02*
X393Y1421D01*
X320Y1420D02*
X393Y1420D01*
X320Y1419D02*
X393Y1419D01*
X320Y1418D02*
X393Y1418D01*
X320Y1417D02*
X393Y1417D01*
X320Y1416D02*
X393Y1416D01*
X320Y1415D02*
X393Y1415D01*
X320Y1414D02*
X393Y1414D01*
X320Y1413D02*
X393Y1413D01*
X320Y1412D02*
X393Y1412D01*
X320Y1411D02*
X393Y1411D01*
X320Y1410D02*
X393Y1410D01*
X327Y1145D02*
X339Y1145D01*
X427Y1145D02*
X439Y1145D01*
X2127Y1145D02*
X2139Y1145D01*
X2227Y1145D02*
X2239Y1145D01*
X323Y1144D02*
X343Y1144D01*
X423Y1144D02*
X442Y1144D01*
X2123Y1144D02*
X2142Y1144D01*
X2223Y1144D02*
X2242Y1144D01*
X321Y1143D02*
X345Y1143D01*
X421Y1143D02*
X445Y1143D01*
X2121Y1143D02*
X2145Y1143D01*
X2221Y1143D02*
X2245Y1143D01*
X319Y1142D02*
X347Y1142D01*
X419Y1142D02*
X447Y1142D01*
X2119Y1142D02*
X2147Y1142D01*
X2219Y1142D02*
X2247Y1142D01*
X317Y1141D02*
X349Y1141D01*
X417Y1141D02*
X449Y1141D01*
X2117Y1141D02*
X2149Y1141D01*
X2217Y1141D02*
X2249Y1141D01*
X315Y1140D02*
X350Y1140D01*
X415Y1140D02*
X450Y1140D01*
X2115Y1140D02*
X2150Y1140D01*
X2215Y1140D02*
X2250Y1140D01*
X314Y1139D02*
X352Y1139D01*
X414Y1139D02*
X452Y1139D01*
X2114Y1139D02*
X2152Y1139D01*
X2214Y1139D02*
X2251Y1139D01*
X313Y1138D02*
X353Y1138D01*
X413Y1138D02*
X453Y1138D01*
X2113Y1138D02*
X2153Y1138D01*
X2213Y1138D02*
X2253Y1138D01*
X312Y1137D02*
X354Y1137D01*
X412Y1137D02*
X454Y1137D01*
X2112Y1137D02*
X2154Y1137D01*
X2212Y1137D02*
X2254Y1137D01*
X311Y1136D02*
X355Y1136D01*
X411Y1136D02*
X455Y1136D01*
X2111Y1136D02*
X2155Y1136D01*
X2211Y1136D02*
X2255Y1136D01*
X310Y1135D02*
X356Y1135D01*
X410Y1135D02*
X456Y1135D01*
X2110Y1135D02*
X2156Y1135D01*
X2210Y1135D02*
X2256Y1135D01*
X309Y1134D02*
X357Y1134D01*
X409Y1134D02*
X457Y1134D01*
X2109Y1134D02*
X2157Y1134D01*
X2209Y1134D02*
X2256Y1134D01*
X308Y1133D02*
X329Y1133D01*
X336Y1133D02*
X357Y1133D01*
X408Y1133D02*
X429Y1133D01*
X436Y1133D02*
X457Y1133D01*
X2108Y1133D02*
X2129Y1133D01*
X2136Y1133D02*
X2157Y1133D01*
X2208Y1133D02*
X2229Y1133D01*
X2236Y1133D02*
X2257Y1133D01*
X308Y1132D02*
X326Y1132D01*
X340Y1132D02*
X358Y1132D01*
X408Y1132D02*
X426Y1132D01*
X440Y1132D02*
X458Y1132D01*
X2108Y1132D02*
X2126Y1132D01*
X2140Y1132D02*
X2158Y1132D01*
X2208Y1132D02*
X2226Y1132D01*
X2240Y1132D02*
X2258Y1132D01*
X307Y1131D02*
X324Y1131D01*
X342Y1131D02*
X359Y1131D01*
X407Y1131D02*
X424Y1131D01*
X442Y1131D02*
X459Y1131D01*
X2107Y1131D02*
X2124Y1131D01*
X2142Y1131D02*
X2159Y1131D01*
X2207Y1131D02*
X2223Y1131D01*
X2242Y1131D02*
X2259Y1131D01*
X306Y1130D02*
X322Y1130D01*
X344Y1130D02*
X359Y1130D01*
X406Y1130D02*
X422Y1130D01*
X444Y1130D02*
X459Y1130D01*
X2106Y1130D02*
X2122Y1130D01*
X2144Y1130D02*
X2159Y1130D01*
X2206Y1130D02*
X2222Y1130D01*
X2244Y1130D02*
X2259Y1130D01*
X306Y1129D02*
X321Y1129D01*
X345Y1129D02*
X360Y1129D01*
X406Y1129D02*
X421Y1129D01*
X445Y1129D02*
X460Y1129D01*
X2106Y1129D02*
X2121Y1129D01*
X2145Y1129D02*
X2160Y1129D01*
X2206Y1129D02*
X2220Y1129D01*
X2245Y1129D02*
X2260Y1129D01*
X305Y1128D02*
X319Y1128D01*
X346Y1128D02*
X360Y1128D01*
X405Y1128D02*
X419Y1128D01*
X446Y1128D02*
X460Y1128D01*
X2105Y1128D02*
X2119Y1128D01*
X2146Y1128D02*
X2160Y1128D01*
X2205Y1128D02*
X2219Y1128D01*
X2246Y1128D02*
X2260Y1128D01*
X305Y1127D02*
X319Y1127D01*
X347Y1127D02*
X361Y1127D01*
X405Y1127D02*
X419Y1127D01*
X447Y1127D02*
X461Y1127D01*
X2105Y1127D02*
X2118Y1127D01*
X2147Y1127D02*
X2161Y1127D01*
X2205Y1127D02*
X2218Y1127D01*
X2247Y1127D02*
X2261Y1127D01*
X305Y1126D02*
X318Y1126D01*
X348Y1126D02*
X361Y1126D01*
X405Y1126D02*
X418Y1126D01*
X448Y1126D02*
X461Y1126D01*
X2104Y1126D02*
X2118Y1126D01*
X2148Y1126D02*
X2161Y1126D01*
X2204Y1126D02*
X2218Y1126D01*
X2248Y1126D02*
X2261Y1126D01*
X304Y1125D02*
X317Y1125D01*
X349Y1125D02*
X362Y1125D01*
X404Y1125D02*
X417Y1125D01*
X449Y1125D02*
X462Y1125D01*
X2104Y1125D02*
X2117Y1125D01*
X2149Y1125D02*
X2161Y1125D01*
X2204Y1125D02*
X2217Y1125D01*
X2249Y1125D02*
X2261Y1125D01*
X304Y1124D02*
X316Y1124D01*
X349Y1124D02*
X362Y1124D01*
X404Y1124D02*
X416Y1124D01*
X449Y1124D02*
X462Y1124D01*
X2104Y1124D02*
X2116Y1124D01*
X2149Y1124D02*
X2162Y1124D01*
X2204Y1124D02*
X2216Y1124D01*
X2249Y1124D02*
X2262Y1124D01*
X304Y1123D02*
X316Y1123D01*
X350Y1123D02*
X362Y1123D01*
X404Y1123D02*
X416Y1123D01*
X450Y1123D02*
X462Y1123D01*
X2103Y1123D02*
X2116Y1123D01*
X2150Y1123D02*
X2162Y1123D01*
X2203Y1123D02*
X2216Y1123D01*
X2250Y1123D02*
X2262Y1123D01*
X303Y1122D02*
X315Y1122D01*
X350Y1122D02*
X362Y1122D01*
X403Y1122D02*
X415Y1122D01*
X450Y1122D02*
X462Y1122D01*
X2103Y1122D02*
X2115Y1122D01*
X2150Y1122D02*
X2162Y1122D01*
X2203Y1122D02*
X2215Y1122D01*
X2250Y1122D02*
X2262Y1122D01*
X303Y1121D02*
X315Y1121D01*
X351Y1121D02*
X363Y1121D01*
X403Y1121D02*
X415Y1121D01*
X451Y1121D02*
X463Y1121D01*
X2103Y1121D02*
X2115Y1121D01*
X2151Y1121D02*
X2163Y1121D01*
X2203Y1121D02*
X2215Y1121D01*
X2251Y1121D02*
X2263Y1121D01*
X303Y1120D02*
X315Y1120D01*
X351Y1120D02*
X363Y1120D01*
X403Y1120D02*
X415Y1120D01*
X451Y1120D02*
X463Y1120D01*
X2103Y1120D02*
X2115Y1120D01*
X2151Y1120D02*
X2163Y1120D01*
X2203Y1120D02*
X2215Y1120D01*
X2251Y1120D02*
X2263Y1120D01*
X303Y1119D02*
X314Y1119D01*
X351Y1119D02*
X363Y1119D01*
X403Y1119D02*
X414Y1119D01*
X451Y1119D02*
X463Y1119D01*
X2103Y1119D02*
X2114Y1119D01*
X2151Y1119D02*
X2163Y1119D01*
X2203Y1119D02*
X2214Y1119D01*
X2251Y1119D02*
X2263Y1119D01*
X303Y1118D02*
X314Y1118D01*
X352Y1118D02*
X363Y1118D01*
X403Y1118D02*
X414Y1118D01*
X452Y1118D02*
X463Y1118D01*
X2102Y1118D02*
X2114Y1118D01*
X2151Y1118D02*
X2163Y1118D01*
X2202Y1118D02*
X2214Y1118D01*
X2251Y1118D02*
X2263Y1118D01*
X303Y1117D02*
X314Y1117D01*
X352Y1117D02*
X363Y1117D01*
X402Y1117D02*
X414Y1117D01*
X452Y1117D02*
X463Y1117D01*
X2102Y1117D02*
X2114Y1117D01*
X2152Y1117D02*
X2163Y1117D01*
X2202Y1117D02*
X2214Y1117D01*
X2252Y1117D02*
X2263Y1117D01*
X302Y1116D02*
X314Y1116D01*
X352Y1116D02*
X363Y1116D01*
X402Y1116D02*
X414Y1116D01*
X452Y1116D02*
X463Y1116D01*
X2102Y1116D02*
X2114Y1116D01*
X2152Y1116D02*
X2163Y1116D01*
X2202Y1116D02*
X2214Y1116D01*
X2252Y1116D02*
X2263Y1116D01*
X302Y1115D02*
X314Y1115D01*
X352Y1115D02*
X363Y1115D01*
X402Y1115D02*
X414Y1115D01*
X452Y1115D02*
X463Y1115D01*
X2102Y1115D02*
X2114Y1115D01*
X2152Y1115D02*
X2163Y1115D01*
X2202Y1115D02*
X2214Y1115D01*
X2252Y1115D02*
X2263Y1115D01*
X302Y1114D02*
X314Y1114D01*
X352Y1114D02*
X363Y1114D01*
X402Y1114D02*
X414Y1114D01*
X452Y1114D02*
X463Y1114D01*
X2102Y1114D02*
X2114Y1114D01*
X2152Y1114D02*
X2163Y1114D01*
X2202Y1114D02*
X2214Y1114D01*
X2252Y1114D02*
X2263Y1114D01*
X303Y1113D02*
X314Y1113D01*
X352Y1113D02*
X363Y1113D01*
X402Y1113D02*
X414Y1113D01*
X452Y1113D02*
X463Y1113D01*
X2102Y1113D02*
X2114Y1113D01*
X2152Y1113D02*
X2163Y1113D01*
X2202Y1113D02*
X2214Y1113D01*
X2252Y1113D02*
X2263Y1113D01*
X303Y1112D02*
X314Y1112D01*
X352Y1112D02*
X363Y1112D01*
X403Y1112D02*
X414Y1112D01*
X452Y1112D02*
X463Y1112D01*
X2102Y1112D02*
X2114Y1112D01*
X2151Y1112D02*
X2163Y1112D01*
X2202Y1112D02*
X2214Y1112D01*
X2251Y1112D02*
X2263Y1112D01*
X303Y1111D02*
X314Y1111D01*
X351Y1111D02*
X363Y1111D01*
X403Y1111D02*
X414Y1111D01*
X451Y1111D02*
X463Y1111D01*
X2103Y1111D02*
X2114Y1111D01*
X2151Y1111D02*
X2163Y1111D01*
X2203Y1111D02*
X2214Y1111D01*
X2251Y1111D02*
X2263Y1111D01*
X303Y1110D02*
X315Y1110D01*
X351Y1110D02*
X363Y1110D01*
X403Y1110D02*
X415Y1110D01*
X451Y1110D02*
X463Y1110D01*
X2103Y1110D02*
X2114Y1110D01*
X2151Y1110D02*
X2163Y1110D01*
X2203Y1110D02*
X2214Y1110D01*
X2251Y1110D02*
X2263Y1110D01*
X303Y1109D02*
X315Y1109D01*
X351Y1109D02*
X363Y1109D01*
X403Y1109D02*
X415Y1109D01*
X451Y1109D02*
X463Y1109D01*
X2103Y1109D02*
X2115Y1109D01*
X2151Y1109D02*
X2163Y1109D01*
X2203Y1109D02*
X2215Y1109D01*
X2251Y1109D02*
X2263Y1109D01*
X303Y1108D02*
X315Y1108D01*
X351Y1108D02*
X363Y1108D01*
X403Y1108D02*
X415Y1108D01*
X451Y1108D02*
X463Y1108D01*
X2103Y1108D02*
X2115Y1108D01*
X2150Y1108D02*
X2162Y1108D01*
X2203Y1108D02*
X2215Y1108D01*
X2250Y1108D02*
X2262Y1108D01*
X303Y1107D02*
X316Y1107D01*
X350Y1107D02*
X362Y1107D01*
X403Y1107D02*
X416Y1107D01*
X450Y1107D02*
X462Y1107D01*
X2103Y1107D02*
X2116Y1107D01*
X2150Y1107D02*
X2162Y1107D01*
X2203Y1107D02*
X2215Y1107D01*
X2250Y1107D02*
X2262Y1107D01*
X304Y1106D02*
X316Y1106D01*
X350Y1106D02*
X362Y1106D01*
X404Y1106D02*
X416Y1106D01*
X450Y1106D02*
X462Y1106D01*
X2104Y1106D02*
X2116Y1106D01*
X2149Y1106D02*
X2162Y1106D01*
X2204Y1106D02*
X2216Y1106D01*
X2249Y1106D02*
X2262Y1106D01*
X304Y1105D02*
X317Y1105D01*
X349Y1105D02*
X362Y1105D01*
X404Y1105D02*
X417Y1105D01*
X449Y1105D02*
X462Y1105D01*
X2104Y1105D02*
X2117Y1105D01*
X2149Y1105D02*
X2162Y1105D01*
X2204Y1105D02*
X2217Y1105D01*
X2249Y1105D02*
X2262Y1105D01*
X304Y1104D02*
X317Y1104D01*
X348Y1104D02*
X361Y1104D01*
X404Y1104D02*
X417Y1104D01*
X448Y1104D02*
X461Y1104D01*
X2104Y1104D02*
X2117Y1104D01*
X2148Y1104D02*
X2161Y1104D01*
X2204Y1104D02*
X2217Y1104D01*
X2248Y1104D02*
X2261Y1104D01*
X305Y1103D02*
X318Y1103D01*
X348Y1103D02*
X361Y1103D01*
X405Y1103D02*
X418Y1103D01*
X447Y1103D02*
X461Y1103D01*
X2105Y1103D02*
X2118Y1103D01*
X2147Y1103D02*
X2161Y1103D01*
X2205Y1103D02*
X2218Y1103D01*
X2247Y1103D02*
X2261Y1103D01*
X305Y1102D02*
X319Y1102D01*
X347Y1102D02*
X361Y1102D01*
X405Y1102D02*
X419Y1102D01*
X447Y1102D02*
X461Y1102D01*
X2105Y1102D02*
X2119Y1102D01*
X2147Y1102D02*
X2160Y1102D01*
X2205Y1102D02*
X2219Y1102D01*
X2247Y1102D02*
X2260Y1102D01*
X306Y1101D02*
X320Y1101D01*
X346Y1101D02*
X360Y1101D01*
X406Y1101D02*
X420Y1101D01*
X446Y1101D02*
X460Y1101D01*
X2106Y1101D02*
X2120Y1101D01*
X2146Y1101D02*
X2160Y1101D01*
X2206Y1101D02*
X2220Y1101D01*
X2245Y1101D02*
X2260Y1101D01*
X306Y1100D02*
X321Y1100D01*
X344Y1100D02*
X360Y1100D01*
X406Y1100D02*
X421Y1100D01*
X444Y1100D02*
X460Y1100D01*
X2106Y1100D02*
X2121Y1100D01*
X2144Y1100D02*
X2159Y1100D01*
X2206Y1100D02*
X2221Y1100D01*
X2244Y1100D02*
X2259Y1100D01*
X307Y1099D02*
X323Y1099D01*
X343Y1099D02*
X359Y1099D01*
X407Y1099D02*
X423Y1099D01*
X443Y1099D02*
X459Y1099D01*
X2107Y1099D02*
X2123Y1099D01*
X2143Y1099D02*
X2159Y1099D01*
X2207Y1099D02*
X2223Y1099D01*
X2243Y1099D02*
X2259Y1099D01*
X307Y1098D02*
X325Y1098D01*
X341Y1098D02*
X358Y1098D01*
X407Y1098D02*
X425Y1098D01*
X441Y1098D02*
X458Y1098D01*
X2107Y1098D02*
X2125Y1098D01*
X2141Y1098D02*
X2158Y1098D01*
X2207Y1098D02*
X2225Y1098D01*
X2241Y1098D02*
X2258Y1098D01*
X308Y1097D02*
X328Y1097D01*
X338Y1097D02*
X358Y1097D01*
X408Y1097D02*
X427Y1097D01*
X438Y1097D02*
X458Y1097D01*
X2108Y1097D02*
X2127Y1097D01*
X2138Y1097D02*
X2158Y1097D01*
X2208Y1097D02*
X2227Y1097D01*
X2238Y1097D02*
X2258Y1097D01*
X309Y1096D02*
X357Y1096D01*
X409Y1096D02*
X457Y1096D01*
X2109Y1096D02*
X2157Y1096D01*
X2209Y1096D02*
X2257Y1096D01*
X310Y1095D02*
X356Y1095D01*
X410Y1095D02*
X456Y1095D01*
X2109Y1095D02*
X2156Y1095D01*
X2209Y1095D02*
X2256Y1095D01*
X311Y1094D02*
X355Y1094D01*
X410Y1094D02*
X455Y1094D01*
X2110Y1094D02*
X2155Y1094D01*
X2210Y1094D02*
X2255Y1094D01*
X311Y1093D02*
X354Y1093D01*
X411Y1093D02*
X454Y1093D01*
X2111Y1093D02*
X2154Y1093D01*
X2211Y1093D02*
X2254Y1093D01*
X312Y1092D02*
X353Y1092D01*
X412Y1092D02*
X453Y1092D01*
X2112Y1092D02*
X2153Y1092D01*
X2212Y1092D02*
X2253Y1092D01*
X314Y1091D02*
X352Y1091D01*
X414Y1091D02*
X452Y1091D01*
X2113Y1091D02*
X2152Y1091D01*
X2213Y1091D02*
X2252Y1091D01*
X315Y1090D02*
X351Y1090D01*
X415Y1090D02*
X451Y1090D01*
X2115Y1090D02*
X2151Y1090D01*
X2215Y1090D02*
X2251Y1090D01*
X316Y1089D02*
X350Y1089D01*
X416Y1089D02*
X449Y1089D01*
X2116Y1089D02*
X2149Y1089D01*
X2216Y1089D02*
X2249Y1089D01*
X318Y1088D02*
X348Y1088D01*
X418Y1088D02*
X448Y1088D01*
X2118Y1088D02*
X2148Y1088D01*
X2218Y1088D02*
X2248Y1088D01*
X320Y1087D02*
X346Y1087D01*
X420Y1087D02*
X446Y1087D01*
X2120Y1087D02*
X2146Y1087D01*
X2220Y1087D02*
X2246Y1087D01*
X322Y1086D02*
X344Y1086D01*
X422Y1086D02*
X444Y1086D01*
X2122Y1086D02*
X2144Y1086D01*
X2222Y1086D02*
X2244Y1086D01*
X325Y1085D02*
X341Y1085D01*
X425Y1085D02*
X441Y1085D01*
X2125Y1085D02*
X2141Y1085D01*
X2225Y1085D02*
X2241Y1085D01*
X330Y1084D02*
X336Y1084D01*
X430Y1084D02*
X436Y1084D01*
X2130Y1084D02*
X2136Y1084D01*
X2230Y1084D02*
X2235Y1084D01*
X327Y745D02*
X339Y745D01*
X426Y745D02*
X439Y745D01*
X2126Y745D02*
X2139Y745D01*
X2226Y745D02*
X2239Y745D01*
X323Y744D02*
X343Y744D01*
X423Y744D02*
X443Y744D01*
X2123Y744D02*
X2143Y744D01*
X2223Y744D02*
X2243Y744D01*
X321Y743D02*
X345Y743D01*
X421Y743D02*
X445Y743D01*
X2121Y743D02*
X2145Y743D01*
X2220Y743D02*
X2245Y743D01*
X319Y742D02*
X347Y742D01*
X419Y742D02*
X447Y742D01*
X2118Y742D02*
X2147Y742D01*
X2218Y742D02*
X2247Y742D01*
X317Y741D02*
X349Y741D01*
X417Y741D02*
X449Y741D01*
X2117Y741D02*
X2149Y741D01*
X2217Y741D02*
X2249Y741D01*
X315Y740D02*
X350Y740D01*
X415Y740D02*
X450Y740D01*
X2115Y740D02*
X2150Y740D01*
X2215Y740D02*
X2250Y740D01*
X314Y739D02*
X352Y739D01*
X414Y739D02*
X452Y739D01*
X2114Y739D02*
X2152Y739D01*
X2214Y739D02*
X2252Y739D01*
X313Y738D02*
X353Y738D01*
X413Y738D02*
X453Y738D01*
X2113Y738D02*
X2153Y738D01*
X2213Y738D02*
X2253Y738D01*
X312Y737D02*
X354Y737D01*
X412Y737D02*
X454Y737D01*
X2112Y737D02*
X2154Y737D01*
X2212Y737D02*
X2254Y737D01*
X311Y736D02*
X355Y736D01*
X411Y736D02*
X455Y736D01*
X2111Y736D02*
X2155Y736D01*
X2211Y736D02*
X2255Y736D01*
X310Y735D02*
X356Y735D01*
X410Y735D02*
X456Y735D01*
X2110Y735D02*
X2156Y735D01*
X2210Y735D02*
X2256Y735D01*
X309Y734D02*
X357Y734D01*
X409Y734D02*
X457Y734D01*
X2109Y734D02*
X2157Y734D01*
X2209Y734D02*
X2257Y734D01*
X308Y733D02*
X329Y733D01*
X337Y733D02*
X357Y733D01*
X408Y733D02*
X429Y733D01*
X437Y733D02*
X457Y733D01*
X2108Y733D02*
X2129Y733D01*
X2137Y733D02*
X2157Y733D01*
X2208Y733D02*
X2229Y733D01*
X2237Y733D02*
X2257Y733D01*
X308Y732D02*
X326Y732D01*
X340Y732D02*
X358Y732D01*
X408Y732D02*
X425Y732D01*
X440Y732D02*
X458Y732D01*
X2108Y732D02*
X2125Y732D01*
X2140Y732D02*
X2158Y732D01*
X2207Y732D02*
X2225Y732D01*
X2240Y732D02*
X2258Y732D01*
X307Y731D02*
X324Y731D01*
X342Y731D02*
X359Y731D01*
X407Y731D02*
X423Y731D01*
X442Y731D02*
X459Y731D01*
X2107Y731D02*
X2123Y731D01*
X2142Y731D02*
X2159Y731D01*
X2207Y731D02*
X2223Y731D01*
X2242Y731D02*
X2259Y731D01*
X306Y730D02*
X322Y730D01*
X344Y730D02*
X359Y730D01*
X406Y730D02*
X422Y730D01*
X444Y730D02*
X459Y730D01*
X2106Y730D02*
X2122Y730D01*
X2144Y730D02*
X2159Y730D01*
X2206Y730D02*
X2222Y730D01*
X2244Y730D02*
X2259Y730D01*
X306Y729D02*
X321Y729D01*
X345Y729D02*
X360Y729D01*
X406Y729D02*
X421Y729D01*
X445Y729D02*
X460Y729D01*
X2106Y729D02*
X2120Y729D01*
X2145Y729D02*
X2160Y729D01*
X2206Y729D02*
X2220Y729D01*
X2245Y729D02*
X2260Y729D01*
X305Y728D02*
X319Y728D01*
X346Y728D02*
X360Y728D01*
X405Y728D02*
X419Y728D01*
X446Y728D02*
X460Y728D01*
X2105Y728D02*
X2119Y728D01*
X2146Y728D02*
X2160Y728D01*
X2205Y728D02*
X2219Y728D01*
X2246Y728D02*
X2260Y728D01*
X305Y727D02*
X319Y727D01*
X347Y727D02*
X361Y727D01*
X405Y727D02*
X418Y727D01*
X447Y727D02*
X461Y727D01*
X2105Y727D02*
X2118Y727D01*
X2147Y727D02*
X2161Y727D01*
X2205Y727D02*
X2218Y727D01*
X2247Y727D02*
X2261Y727D01*
X305Y726D02*
X318Y726D01*
X348Y726D02*
X361Y726D01*
X404Y726D02*
X418Y726D01*
X448Y726D02*
X461Y726D01*
X2104Y726D02*
X2118Y726D01*
X2148Y726D02*
X2161Y726D01*
X2204Y726D02*
X2218Y726D01*
X2248Y726D02*
X2261Y726D01*
X304Y725D02*
X317Y725D01*
X349Y725D02*
X362Y725D01*
X404Y725D02*
X417Y725D01*
X449Y725D02*
X462Y725D01*
X2104Y725D02*
X2117Y725D01*
X2149Y725D02*
X2162Y725D01*
X2204Y725D02*
X2217Y725D01*
X2249Y725D02*
X2261Y725D01*
X304Y724D02*
X316Y724D01*
X349Y724D02*
X362Y724D01*
X404Y724D02*
X416Y724D01*
X449Y724D02*
X462Y724D01*
X2104Y724D02*
X2116Y724D01*
X2149Y724D02*
X2162Y724D01*
X2204Y724D02*
X2216Y724D01*
X2249Y724D02*
X2262Y724D01*
X304Y723D02*
X316Y723D01*
X350Y723D02*
X362Y723D01*
X404Y723D02*
X416Y723D01*
X450Y723D02*
X462Y723D01*
X2103Y723D02*
X2116Y723D01*
X2150Y723D02*
X2162Y723D01*
X2203Y723D02*
X2216Y723D01*
X2250Y723D02*
X2262Y723D01*
X303Y722D02*
X315Y722D01*
X350Y722D02*
X362Y722D01*
X403Y722D02*
X415Y722D01*
X450Y722D02*
X462Y722D01*
X2103Y722D02*
X2115Y722D01*
X2150Y722D02*
X2162Y722D01*
X2203Y722D02*
X2215Y722D01*
X2250Y722D02*
X2262Y722D01*
X303Y721D02*
X315Y721D01*
X351Y721D02*
X363Y721D01*
X403Y721D02*
X415Y721D01*
X451Y721D02*
X463Y721D01*
X2103Y721D02*
X2115Y721D01*
X2151Y721D02*
X2163Y721D01*
X2203Y721D02*
X2215Y721D01*
X2251Y721D02*
X2263Y721D01*
X303Y720D02*
X315Y720D01*
X351Y720D02*
X363Y720D01*
X403Y720D02*
X415Y720D01*
X451Y720D02*
X463Y720D01*
X2103Y720D02*
X2115Y720D01*
X2151Y720D02*
X2163Y720D01*
X2203Y720D02*
X2215Y720D01*
X2251Y720D02*
X2263Y720D01*
X303Y719D02*
X314Y719D01*
X351Y719D02*
X363Y719D01*
X403Y719D02*
X414Y719D01*
X451Y719D02*
X463Y719D01*
X2103Y719D02*
X2114Y719D01*
X2151Y719D02*
X2163Y719D01*
X2203Y719D02*
X2214Y719D01*
X2251Y719D02*
X2263Y719D01*
X303Y718D02*
X314Y718D01*
X352Y718D02*
X363Y718D01*
X403Y718D02*
X414Y718D01*
X452Y718D02*
X463Y718D01*
X2102Y718D02*
X2114Y718D01*
X2151Y718D02*
X2163Y718D01*
X2202Y718D02*
X2214Y718D01*
X2251Y718D02*
X2263Y718D01*
X303Y717D02*
X314Y717D01*
X352Y717D02*
X363Y717D01*
X402Y717D02*
X414Y717D01*
X452Y717D02*
X463Y717D01*
X2102Y717D02*
X2114Y717D01*
X2152Y717D02*
X2163Y717D01*
X2202Y717D02*
X2214Y717D01*
X2252Y717D02*
X2263Y717D01*
X302Y716D02*
X314Y716D01*
X352Y716D02*
X363Y716D01*
X402Y716D02*
X414Y716D01*
X452Y716D02*
X463Y716D01*
X2102Y716D02*
X2114Y716D01*
X2152Y716D02*
X2163Y716D01*
X2202Y716D02*
X2214Y716D01*
X2252Y716D02*
X2263Y716D01*
X302Y715D02*
X314Y715D01*
X352Y715D02*
X363Y715D01*
X402Y715D02*
X414Y715D01*
X452Y715D02*
X463Y715D01*
X2102Y715D02*
X2114Y715D01*
X2152Y715D02*
X2163Y715D01*
X2202Y715D02*
X2214Y715D01*
X2252Y715D02*
X2263Y715D01*
X302Y714D02*
X314Y714D01*
X352Y714D02*
X363Y714D01*
X402Y714D02*
X414Y714D01*
X452Y714D02*
X463Y714D01*
X2102Y714D02*
X2114Y714D01*
X2152Y714D02*
X2163Y714D01*
X2202Y714D02*
X2214Y714D01*
X2252Y714D02*
X2263Y714D01*
X303Y713D02*
X314Y713D01*
X352Y713D02*
X363Y713D01*
X402Y713D02*
X414Y713D01*
X452Y713D02*
X463Y713D01*
X2102Y713D02*
X2114Y713D01*
X2152Y713D02*
X2163Y713D01*
X2202Y713D02*
X2214Y713D01*
X2252Y713D02*
X2263Y713D01*
X303Y712D02*
X314Y712D01*
X352Y712D02*
X363Y712D01*
X403Y712D02*
X414Y712D01*
X452Y712D02*
X463Y712D01*
X2102Y712D02*
X2114Y712D01*
X2151Y712D02*
X2163Y712D01*
X2202Y712D02*
X2214Y712D01*
X2251Y712D02*
X2263Y712D01*
X303Y711D02*
X314Y711D01*
X351Y711D02*
X363Y711D01*
X403Y711D02*
X414Y711D01*
X451Y711D02*
X463Y711D01*
X2103Y711D02*
X2114Y711D01*
X2151Y711D02*
X2163Y711D01*
X2203Y711D02*
X2214Y711D01*
X2251Y711D02*
X2263Y711D01*
X303Y710D02*
X315Y710D01*
X351Y710D02*
X363Y710D01*
X403Y710D02*
X415Y710D01*
X451Y710D02*
X463Y710D01*
X2103Y710D02*
X2114Y710D01*
X2151Y710D02*
X2163Y710D01*
X2203Y710D02*
X2214Y710D01*
X2251Y710D02*
X2263Y710D01*
X303Y709D02*
X315Y709D01*
X351Y709D02*
X363Y709D01*
X403Y709D02*
X415Y709D01*
X451Y709D02*
X463Y709D01*
X2103Y709D02*
X2115Y709D01*
X2151Y709D02*
X2163Y709D01*
X2203Y709D02*
X2215Y709D01*
X2251Y709D02*
X2263Y709D01*
X303Y708D02*
X315Y708D01*
X351Y708D02*
X363Y708D01*
X403Y708D02*
X415Y708D01*
X451Y708D02*
X463Y708D01*
X2103Y708D02*
X2115Y708D01*
X2150Y708D02*
X2162Y708D01*
X2203Y708D02*
X2215Y708D01*
X2250Y708D02*
X2262Y708D01*
X303Y707D02*
X316Y707D01*
X350Y707D02*
X362Y707D01*
X403Y707D02*
X416Y707D01*
X450Y707D02*
X462Y707D01*
X2103Y707D02*
X2116Y707D01*
X2150Y707D02*
X2162Y707D01*
X2203Y707D02*
X2215Y707D01*
X2250Y707D02*
X2262Y707D01*
X304Y706D02*
X316Y706D01*
X350Y706D02*
X362Y706D01*
X404Y706D02*
X416Y706D01*
X450Y706D02*
X462Y706D01*
X2104Y706D02*
X2116Y706D01*
X2149Y706D02*
X2162Y706D01*
X2204Y706D02*
X2216Y706D01*
X2249Y706D02*
X2262Y706D01*
X304Y705D02*
X317Y705D01*
X349Y705D02*
X362Y705D01*
X404Y705D02*
X417Y705D01*
X449Y705D02*
X462Y705D01*
X2104Y705D02*
X2117Y705D01*
X2149Y705D02*
X2162Y705D01*
X2204Y705D02*
X2217Y705D01*
X2249Y705D02*
X2262Y705D01*
X304Y704D02*
X317Y704D01*
X348Y704D02*
X361Y704D01*
X404Y704D02*
X417Y704D01*
X448Y704D02*
X461Y704D01*
X2104Y704D02*
X2117Y704D01*
X2148Y704D02*
X2161Y704D01*
X2204Y704D02*
X2217Y704D01*
X2248Y704D02*
X2261Y704D01*
X305Y703D02*
X318Y703D01*
X348Y703D02*
X361Y703D01*
X405Y703D02*
X418Y703D01*
X447Y703D02*
X461Y703D01*
X2105Y703D02*
X2118Y703D01*
X2147Y703D02*
X2161Y703D01*
X2205Y703D02*
X2218Y703D01*
X2247Y703D02*
X2261Y703D01*
X305Y702D02*
X319Y702D01*
X347Y702D02*
X361Y702D01*
X405Y702D02*
X419Y702D01*
X447Y702D02*
X460Y702D01*
X2105Y702D02*
X2119Y702D01*
X2147Y702D02*
X2160Y702D01*
X2205Y702D02*
X2219Y702D01*
X2247Y702D02*
X2260Y702D01*
X306Y701D02*
X320Y701D01*
X346Y701D02*
X360Y701D01*
X406Y701D02*
X420Y701D01*
X446Y701D02*
X460Y701D01*
X2106Y701D02*
X2120Y701D01*
X2145Y701D02*
X2160Y701D01*
X2206Y701D02*
X2220Y701D01*
X2245Y701D02*
X2260Y701D01*
X306Y700D02*
X321Y700D01*
X344Y700D02*
X360Y700D01*
X406Y700D02*
X421Y700D01*
X444Y700D02*
X460Y700D01*
X2106Y700D02*
X2121Y700D01*
X2144Y700D02*
X2159Y700D01*
X2206Y700D02*
X2221Y700D01*
X2244Y700D02*
X2259Y700D01*
X307Y699D02*
X323Y699D01*
X343Y699D02*
X359Y699D01*
X407Y699D02*
X423Y699D01*
X443Y699D02*
X459Y699D01*
X2107Y699D02*
X2123Y699D01*
X2143Y699D02*
X2159Y699D01*
X2207Y699D02*
X2223Y699D01*
X2243Y699D02*
X2259Y699D01*
X307Y698D02*
X325Y698D01*
X341Y698D02*
X358Y698D01*
X407Y698D02*
X425Y698D01*
X441Y698D02*
X458Y698D01*
X2107Y698D02*
X2125Y698D01*
X2141Y698D02*
X2158Y698D01*
X2207Y698D02*
X2225Y698D01*
X2241Y698D02*
X2258Y698D01*
X308Y697D02*
X328Y697D01*
X338Y697D02*
X358Y697D01*
X408Y697D02*
X428Y697D01*
X438Y697D02*
X458Y697D01*
X2108Y697D02*
X2128Y697D01*
X2138Y697D02*
X2158Y697D01*
X2208Y697D02*
X2227Y697D01*
X2238Y697D02*
X2258Y697D01*
X309Y696D02*
X357Y696D01*
X409Y696D02*
X457Y696D01*
X2109Y696D02*
X2157Y696D01*
X2209Y696D02*
X2257Y696D01*
X310Y695D02*
X356Y695D01*
X410Y695D02*
X456Y695D01*
X2110Y695D02*
X2156Y695D01*
X2209Y695D02*
X2256Y695D01*
X311Y694D02*
X355Y694D01*
X410Y694D02*
X455Y694D01*
X2110Y694D02*
X2155Y694D01*
X2210Y694D02*
X2255Y694D01*
X311Y693D02*
X354Y693D01*
X411Y693D02*
X454Y693D01*
X2111Y693D02*
X2154Y693D01*
X2211Y693D02*
X2254Y693D01*
X313Y692D02*
X353Y692D01*
X412Y692D02*
X453Y692D01*
X2112Y692D02*
X2153Y692D01*
X2212Y692D02*
X2253Y692D01*
X314Y691D02*
X352Y691D01*
X414Y691D02*
X452Y691D01*
X2114Y691D02*
X2152Y691D01*
X2213Y691D02*
X2252Y691D01*
X315Y690D02*
X351Y690D01*
X415Y690D02*
X451Y690D01*
X2115Y690D02*
X2151Y690D01*
X2215Y690D02*
X2251Y690D01*
X316Y689D02*
X349Y689D01*
X416Y689D02*
X449Y689D01*
X2116Y689D02*
X2149Y689D01*
X2216Y689D02*
X2249Y689D01*
X318Y688D02*
X348Y688D01*
X418Y688D02*
X448Y688D01*
X2118Y688D02*
X2148Y688D01*
X2218Y688D02*
X2248Y688D01*
X320Y687D02*
X346Y687D01*
X420Y687D02*
X446Y687D01*
X2120Y687D02*
X2146Y687D01*
X2220Y687D02*
X2246Y687D01*
X322Y686D02*
X344Y686D01*
X422Y686D02*
X444Y686D01*
X2122Y686D02*
X2144Y686D01*
X2222Y686D02*
X2243Y686D01*
X325Y685D02*
X341Y685D01*
X425Y685D02*
X441Y685D01*
X2125Y685D02*
X2140Y685D01*
X2225Y685D02*
X2240Y685D01*
X331Y684D02*
X335Y684D01*
X431Y684D02*
X435Y684D01*
X2131Y684D02*
X2135Y684D01*
X2231Y684D02*
X2235Y684D01*
D02*
G04 End of Copper1*
M02*