G04 MADE WITH FRITZING*
G04 WWW.FRITZING.ORG*
G04 DOUBLE SIDED*
G04 HOLES PLATED*
G04 CONTOUR ON CENTER OF CONTOUR VECTOR*
%ASAXBY*%
%FSLAX23Y23*%
%MOIN*%
%OFA0B0*%
%SFA1.0B1.0*%
%ADD10C,0.070000*%
%ADD11C,0.074000*%
%ADD12C,0.075806*%
%ADD13R,0.069972X0.070000*%
%ADD14R,0.001000X0.001000*%
%LNCOPPER1*%
G90*
G70*
G54D10*
X1680Y1333D03*
X1680Y1433D03*
X1680Y1533D03*
X1680Y1633D03*
X1680Y1733D03*
X1680Y1833D03*
X1680Y1933D03*
X1680Y2033D03*
X1680Y2133D03*
X1680Y2233D03*
X1680Y2333D03*
X1680Y2433D03*
X1680Y2533D03*
X1680Y2633D03*
X1680Y2733D03*
X1080Y1333D03*
X1080Y1433D03*
X1080Y1533D03*
X1080Y1633D03*
X1080Y1733D03*
X1080Y1833D03*
X1080Y1933D03*
X1080Y2033D03*
X1080Y2133D03*
X1080Y2233D03*
X1080Y2333D03*
X1080Y2433D03*
X1080Y2533D03*
X1080Y2633D03*
X1080Y2733D03*
G54D11*
X2163Y2367D03*
X2263Y2417D03*
X2163Y2467D03*
X2163Y2567D03*
X2163Y2667D03*
X2263Y2517D03*
X2263Y2617D03*
X2263Y2717D03*
X2163Y2367D03*
X2263Y2417D03*
X2163Y2467D03*
X2163Y2567D03*
X2163Y2667D03*
X2263Y2517D03*
X2263Y2617D03*
X2263Y2717D03*
X473Y2734D03*
X373Y2684D03*
X473Y2634D03*
X473Y2534D03*
X473Y2434D03*
X373Y2584D03*
X373Y2484D03*
X373Y2384D03*
X473Y2734D03*
X373Y2684D03*
X473Y2634D03*
X473Y2534D03*
X473Y2434D03*
X373Y2584D03*
X373Y2484D03*
X373Y2384D03*
X461Y1800D03*
X361Y1750D03*
X461Y1700D03*
X461Y1600D03*
X461Y1500D03*
X361Y1650D03*
X361Y1550D03*
X361Y1450D03*
X461Y1800D03*
X361Y1750D03*
X461Y1700D03*
X461Y1600D03*
X461Y1500D03*
X361Y1650D03*
X361Y1550D03*
X361Y1450D03*
G54D12*
X2260Y1119D03*
X2160Y1119D03*
X2260Y719D03*
X2160Y719D03*
X460Y1119D03*
X360Y1119D03*
X460Y719D03*
X360Y719D03*
G54D11*
X2165Y1480D03*
X2265Y1530D03*
X2165Y1580D03*
X2165Y1680D03*
X2165Y1780D03*
X2265Y1630D03*
X2265Y1730D03*
X2265Y1830D03*
X2165Y1480D03*
X2265Y1530D03*
X2165Y1580D03*
X2165Y1680D03*
X2165Y1780D03*
X2265Y1630D03*
X2265Y1730D03*
X2265Y1830D03*
G54D13*
X1680Y1333D03*
G54D14*
X2226Y2754D02*
X2299Y2754D01*
X2226Y2753D02*
X2299Y2753D01*
X2226Y2752D02*
X2299Y2752D01*
X2226Y2751D02*
X2299Y2751D01*
X2226Y2750D02*
X2299Y2750D01*
X2226Y2749D02*
X2299Y2749D01*
X2226Y2748D02*
X2299Y2748D01*
X2226Y2747D02*
X2299Y2747D01*
X2226Y2746D02*
X2299Y2746D01*
X2226Y2745D02*
X2299Y2745D01*
X2226Y2744D02*
X2299Y2744D01*
X2226Y2743D02*
X2299Y2743D01*
X2226Y2742D02*
X2299Y2742D01*
X2226Y2741D02*
X2299Y2741D01*
X2226Y2740D02*
X2299Y2740D01*
X2226Y2739D02*
X2299Y2739D01*
X2226Y2738D02*
X2299Y2738D01*
X2226Y2737D02*
X2261Y2737D01*
X2263Y2737D02*
X2299Y2737D01*
X2226Y2736D02*
X2256Y2736D01*
X2269Y2736D02*
X2299Y2736D01*
X2226Y2735D02*
X2253Y2735D01*
X2271Y2735D02*
X2299Y2735D01*
X2226Y2734D02*
X2251Y2734D01*
X2273Y2734D02*
X2299Y2734D01*
X2226Y2733D02*
X2250Y2733D01*
X2275Y2733D02*
X2299Y2733D01*
X2226Y2732D02*
X2249Y2732D01*
X2276Y2732D02*
X2299Y2732D01*
X2226Y2731D02*
X2248Y2731D01*
X2277Y2731D02*
X2299Y2731D01*
X2226Y2730D02*
X2247Y2730D01*
X2278Y2730D02*
X2299Y2730D01*
X2226Y2729D02*
X2246Y2729D01*
X2279Y2729D02*
X2299Y2729D01*
X2226Y2728D02*
X2245Y2728D01*
X2279Y2728D02*
X2299Y2728D01*
X2226Y2727D02*
X2245Y2727D01*
X2280Y2727D02*
X2299Y2727D01*
X2226Y2726D02*
X2244Y2726D01*
X2280Y2726D02*
X2299Y2726D01*
X2226Y2725D02*
X2244Y2725D01*
X2281Y2725D02*
X2299Y2725D01*
X2226Y2724D02*
X2243Y2724D01*
X2281Y2724D02*
X2299Y2724D01*
X2226Y2723D02*
X2243Y2723D01*
X2281Y2723D02*
X2299Y2723D01*
X2226Y2722D02*
X2243Y2722D01*
X2282Y2722D02*
X2299Y2722D01*
X2226Y2721D02*
X2242Y2721D01*
X2282Y2721D02*
X2299Y2721D01*
X2226Y2720D02*
X2242Y2720D01*
X2282Y2720D02*
X2299Y2720D01*
X2226Y2719D02*
X2242Y2719D01*
X2282Y2719D02*
X2299Y2719D01*
X2226Y2718D02*
X2242Y2718D01*
X2282Y2718D02*
X2299Y2718D01*
X2226Y2717D02*
X2242Y2717D01*
X2282Y2717D02*
X2299Y2717D01*
X2226Y2716D02*
X2242Y2716D01*
X2282Y2716D02*
X2299Y2716D01*
X2226Y2715D02*
X2242Y2715D01*
X2282Y2715D02*
X2299Y2715D01*
X2226Y2714D02*
X2242Y2714D01*
X2282Y2714D02*
X2299Y2714D01*
X2226Y2713D02*
X2243Y2713D01*
X2282Y2713D02*
X2299Y2713D01*
X2226Y2712D02*
X2243Y2712D01*
X2282Y2712D02*
X2299Y2712D01*
X2226Y2711D02*
X2243Y2711D01*
X2281Y2711D02*
X2299Y2711D01*
X2226Y2710D02*
X2244Y2710D01*
X2281Y2710D02*
X2299Y2710D01*
X2226Y2709D02*
X2244Y2709D01*
X2280Y2709D02*
X2299Y2709D01*
X2226Y2708D02*
X2245Y2708D01*
X2280Y2708D02*
X2299Y2708D01*
X2226Y2707D02*
X2245Y2707D01*
X2279Y2707D02*
X2299Y2707D01*
X2226Y2706D02*
X2246Y2706D01*
X2279Y2706D02*
X2299Y2706D01*
X2226Y2705D02*
X2247Y2705D01*
X2278Y2705D02*
X2299Y2705D01*
X2226Y2704D02*
X2247Y2704D01*
X2277Y2704D02*
X2299Y2704D01*
X2226Y2703D02*
X2248Y2703D01*
X2276Y2703D02*
X2299Y2703D01*
X2226Y2702D02*
X2250Y2702D01*
X2275Y2702D02*
X2299Y2702D01*
X2226Y2701D02*
X2251Y2701D01*
X2274Y2701D02*
X2299Y2701D01*
X2226Y2700D02*
X2253Y2700D01*
X2272Y2700D02*
X2299Y2700D01*
X2226Y2699D02*
X2255Y2699D01*
X2270Y2699D02*
X2299Y2699D01*
X2226Y2698D02*
X2259Y2698D01*
X2266Y2698D02*
X2299Y2698D01*
X2226Y2697D02*
X2299Y2697D01*
X2226Y2696D02*
X2299Y2696D01*
X2226Y2695D02*
X2299Y2695D01*
X2226Y2694D02*
X2299Y2694D01*
X2226Y2693D02*
X2299Y2693D01*
X2226Y2692D02*
X2299Y2692D01*
X2226Y2691D02*
X2299Y2691D01*
X2226Y2690D02*
X2299Y2690D01*
X2226Y2689D02*
X2299Y2689D01*
X2226Y2688D02*
X2299Y2688D01*
X2226Y2687D02*
X2299Y2687D01*
X2226Y2686D02*
X2299Y2686D01*
X2226Y2685D02*
X2299Y2685D01*
X2226Y2684D02*
X2299Y2684D01*
X2226Y2683D02*
X2299Y2683D01*
X2226Y2682D02*
X2299Y2682D01*
X2226Y2681D02*
X2299Y2681D01*
X336Y2421D02*
X408Y2421D01*
X335Y2420D02*
X408Y2420D01*
X335Y2419D02*
X408Y2419D01*
X335Y2418D02*
X408Y2418D01*
X335Y2417D02*
X408Y2417D01*
X335Y2416D02*
X408Y2416D01*
X335Y2415D02*
X408Y2415D01*
X335Y2414D02*
X408Y2414D01*
X335Y2413D02*
X408Y2413D01*
X335Y2412D02*
X408Y2412D01*
X335Y2411D02*
X408Y2411D01*
X335Y2410D02*
X408Y2410D01*
X335Y2409D02*
X408Y2409D01*
X335Y2408D02*
X408Y2408D01*
X335Y2407D02*
X408Y2407D01*
X335Y2406D02*
X408Y2406D01*
X335Y2405D02*
X408Y2405D01*
X335Y2404D02*
X408Y2404D01*
X335Y2403D02*
X366Y2403D01*
X378Y2403D02*
X408Y2403D01*
X335Y2402D02*
X363Y2402D01*
X380Y2402D02*
X408Y2402D01*
X335Y2401D02*
X362Y2401D01*
X382Y2401D02*
X408Y2401D01*
X335Y2400D02*
X360Y2400D01*
X384Y2400D02*
X408Y2400D01*
X335Y2399D02*
X359Y2399D01*
X385Y2399D02*
X408Y2399D01*
X335Y2398D02*
X358Y2398D01*
X386Y2398D02*
X408Y2398D01*
X335Y2397D02*
X357Y2397D01*
X387Y2397D02*
X408Y2397D01*
X335Y2396D02*
X356Y2396D01*
X388Y2396D02*
X408Y2396D01*
X335Y2395D02*
X355Y2395D01*
X389Y2395D02*
X408Y2395D01*
X335Y2394D02*
X355Y2394D01*
X389Y2394D02*
X408Y2394D01*
X335Y2393D02*
X354Y2393D01*
X390Y2393D02*
X408Y2393D01*
X335Y2392D02*
X354Y2392D01*
X390Y2392D02*
X408Y2392D01*
X335Y2391D02*
X353Y2391D01*
X391Y2391D02*
X408Y2391D01*
X335Y2390D02*
X353Y2390D01*
X391Y2390D02*
X408Y2390D01*
X335Y2389D02*
X353Y2389D01*
X391Y2389D02*
X408Y2389D01*
X335Y2388D02*
X352Y2388D01*
X392Y2388D02*
X408Y2388D01*
X335Y2387D02*
X352Y2387D01*
X392Y2387D02*
X408Y2387D01*
X335Y2386D02*
X352Y2386D01*
X392Y2386D02*
X408Y2386D01*
X335Y2385D02*
X352Y2385D01*
X392Y2385D02*
X408Y2385D01*
X335Y2384D02*
X352Y2384D01*
X392Y2384D02*
X408Y2384D01*
X335Y2383D02*
X352Y2383D01*
X392Y2383D02*
X408Y2383D01*
X335Y2382D02*
X352Y2382D01*
X392Y2382D02*
X408Y2382D01*
X335Y2381D02*
X352Y2381D01*
X392Y2381D02*
X408Y2381D01*
X335Y2380D02*
X352Y2380D01*
X392Y2380D02*
X408Y2380D01*
X335Y2379D02*
X353Y2379D01*
X391Y2379D02*
X408Y2379D01*
X335Y2378D02*
X353Y2378D01*
X391Y2378D02*
X408Y2378D01*
X335Y2377D02*
X353Y2377D01*
X391Y2377D02*
X408Y2377D01*
X335Y2376D02*
X354Y2376D01*
X390Y2376D02*
X408Y2376D01*
X335Y2375D02*
X354Y2375D01*
X390Y2375D02*
X408Y2375D01*
X335Y2374D02*
X355Y2374D01*
X389Y2374D02*
X408Y2374D01*
X335Y2373D02*
X355Y2373D01*
X389Y2373D02*
X408Y2373D01*
X335Y2372D02*
X356Y2372D01*
X388Y2372D02*
X408Y2372D01*
X335Y2371D02*
X357Y2371D01*
X387Y2371D02*
X408Y2371D01*
X335Y2370D02*
X358Y2370D01*
X386Y2370D02*
X408Y2370D01*
X335Y2369D02*
X359Y2369D01*
X385Y2369D02*
X408Y2369D01*
X335Y2368D02*
X360Y2368D01*
X384Y2368D02*
X408Y2368D01*
X335Y2367D02*
X362Y2367D01*
X382Y2367D02*
X408Y2367D01*
X335Y2366D02*
X364Y2366D01*
X380Y2366D02*
X408Y2366D01*
X335Y2365D02*
X367Y2365D01*
X377Y2365D02*
X408Y2365D01*
X335Y2364D02*
X408Y2364D01*
X335Y2363D02*
X408Y2363D01*
X335Y2362D02*
X408Y2362D01*
X335Y2361D02*
X408Y2361D01*
X335Y2360D02*
X408Y2360D01*
X335Y2359D02*
X408Y2359D01*
X335Y2358D02*
X408Y2358D01*
X335Y2357D02*
X408Y2357D01*
X335Y2356D02*
X408Y2356D01*
X335Y2355D02*
X408Y2355D01*
X335Y2354D02*
X408Y2354D01*
X335Y2353D02*
X408Y2353D01*
X335Y2352D02*
X408Y2352D01*
X335Y2351D02*
X408Y2351D01*
X335Y2350D02*
X408Y2350D01*
X335Y2349D02*
X408Y2349D01*
X335Y2348D02*
X408Y2348D01*
X2228Y1867D02*
X2301Y1867D01*
X2228Y1866D02*
X2301Y1866D01*
X2228Y1865D02*
X2301Y1865D01*
X2228Y1864D02*
X2301Y1864D01*
X2228Y1863D02*
X2301Y1863D01*
X2228Y1862D02*
X2301Y1862D01*
X2228Y1861D02*
X2301Y1861D01*
X2228Y1860D02*
X2301Y1860D01*
X2228Y1859D02*
X2301Y1859D01*
X2228Y1858D02*
X2301Y1858D01*
X2228Y1857D02*
X2301Y1857D01*
X2228Y1856D02*
X2301Y1856D01*
X2228Y1855D02*
X2301Y1855D01*
X2228Y1854D02*
X2301Y1854D01*
X2228Y1853D02*
X2301Y1853D01*
X2228Y1852D02*
X2301Y1852D01*
X2228Y1851D02*
X2301Y1851D01*
X2228Y1850D02*
X2263Y1850D01*
X2266Y1850D02*
X2301Y1850D01*
X2228Y1849D02*
X2258Y1849D01*
X2271Y1849D02*
X2301Y1849D01*
X2228Y1848D02*
X2256Y1848D01*
X2274Y1848D02*
X2301Y1848D01*
X2228Y1847D02*
X2254Y1847D01*
X2276Y1847D02*
X2301Y1847D01*
X2228Y1846D02*
X2252Y1846D01*
X2277Y1846D02*
X2301Y1846D01*
X2228Y1845D02*
X2251Y1845D01*
X2278Y1845D02*
X2301Y1845D01*
X2228Y1844D02*
X2250Y1844D01*
X2279Y1844D02*
X2301Y1844D01*
X2228Y1843D02*
X2249Y1843D01*
X2280Y1843D02*
X2301Y1843D01*
X2228Y1842D02*
X2248Y1842D01*
X2281Y1842D02*
X2301Y1842D01*
X2228Y1841D02*
X2248Y1841D01*
X2282Y1841D02*
X2301Y1841D01*
X2228Y1840D02*
X2247Y1840D01*
X2282Y1840D02*
X2301Y1840D01*
X2228Y1839D02*
X2247Y1839D01*
X2283Y1839D02*
X2301Y1839D01*
X2228Y1838D02*
X2246Y1838D01*
X2283Y1838D02*
X2301Y1838D01*
X2228Y1837D02*
X2246Y1837D01*
X2284Y1837D02*
X2301Y1837D01*
X2228Y1836D02*
X2245Y1836D01*
X2284Y1836D02*
X2301Y1836D01*
X2228Y1835D02*
X2245Y1835D01*
X2284Y1835D02*
X2301Y1835D01*
X2228Y1834D02*
X2245Y1834D01*
X2284Y1834D02*
X2301Y1834D01*
X2228Y1833D02*
X2245Y1833D01*
X2285Y1833D02*
X2301Y1833D01*
X2228Y1832D02*
X2245Y1832D01*
X2285Y1832D02*
X2301Y1832D01*
X2228Y1831D02*
X2245Y1831D01*
X2285Y1831D02*
X2301Y1831D01*
X2228Y1830D02*
X2245Y1830D01*
X2285Y1830D02*
X2301Y1830D01*
X2228Y1829D02*
X2245Y1829D01*
X2285Y1829D02*
X2301Y1829D01*
X2228Y1828D02*
X2245Y1828D01*
X2285Y1828D02*
X2301Y1828D01*
X2228Y1827D02*
X2245Y1827D01*
X2285Y1827D02*
X2301Y1827D01*
X2228Y1826D02*
X2245Y1826D01*
X2284Y1826D02*
X2301Y1826D01*
X2228Y1825D02*
X2245Y1825D01*
X2284Y1825D02*
X2301Y1825D01*
X2228Y1824D02*
X2246Y1824D01*
X2284Y1824D02*
X2301Y1824D01*
X2228Y1823D02*
X2246Y1823D01*
X2283Y1823D02*
X2301Y1823D01*
X2228Y1822D02*
X2246Y1822D01*
X2283Y1822D02*
X2301Y1822D01*
X2228Y1821D02*
X2247Y1821D01*
X2282Y1821D02*
X2301Y1821D01*
X2228Y1820D02*
X2248Y1820D01*
X2282Y1820D02*
X2301Y1820D01*
X2228Y1819D02*
X2248Y1819D01*
X2281Y1819D02*
X2301Y1819D01*
X2228Y1818D02*
X2249Y1818D01*
X2280Y1818D02*
X2301Y1818D01*
X2228Y1817D02*
X2250Y1817D01*
X2280Y1817D02*
X2301Y1817D01*
X2228Y1816D02*
X2251Y1816D01*
X2278Y1816D02*
X2301Y1816D01*
X2228Y1815D02*
X2252Y1815D01*
X2277Y1815D02*
X2301Y1815D01*
X2228Y1814D02*
X2253Y1814D01*
X2276Y1814D02*
X2301Y1814D01*
X2228Y1813D02*
X2255Y1813D01*
X2274Y1813D02*
X2301Y1813D01*
X2228Y1812D02*
X2257Y1812D01*
X2272Y1812D02*
X2301Y1812D01*
X2228Y1811D02*
X2261Y1811D01*
X2268Y1811D02*
X2301Y1811D01*
X2228Y1810D02*
X2301Y1810D01*
X2228Y1809D02*
X2301Y1809D01*
X2228Y1808D02*
X2301Y1808D01*
X2228Y1807D02*
X2301Y1807D01*
X2228Y1806D02*
X2301Y1806D01*
X2228Y1805D02*
X2301Y1805D01*
X2228Y1804D02*
X2301Y1804D01*
X2228Y1803D02*
X2301Y1803D01*
X2228Y1802D02*
X2301Y1802D01*
X2228Y1801D02*
X2301Y1801D01*
X2228Y1800D02*
X2301Y1800D01*
X2228Y1799D02*
X2301Y1799D01*
X2228Y1798D02*
X2301Y1798D01*
X2228Y1797D02*
X2301Y1797D01*
X2228Y1796D02*
X2301Y1796D01*
X2228Y1795D02*
X2301Y1795D01*
X2228Y1794D02*
X2301Y1794D01*
X324Y1487D02*
X397Y1487D01*
X324Y1486D02*
X397Y1486D01*
X324Y1485D02*
X397Y1485D01*
X324Y1484D02*
X397Y1484D01*
X324Y1483D02*
X397Y1483D01*
X324Y1482D02*
X397Y1482D01*
X324Y1481D02*
X397Y1481D01*
X324Y1480D02*
X397Y1480D01*
X324Y1479D02*
X397Y1479D01*
X324Y1478D02*
X397Y1478D01*
X324Y1477D02*
X397Y1477D01*
X324Y1476D02*
X397Y1476D01*
X324Y1475D02*
X397Y1475D01*
X324Y1474D02*
X397Y1474D01*
X324Y1473D02*
X397Y1473D01*
X324Y1472D02*
X397Y1472D01*
X324Y1471D02*
X397Y1471D01*
X324Y1470D02*
X359Y1470D01*
X363Y1470D02*
X397Y1470D01*
X324Y1469D02*
X354Y1469D01*
X368Y1469D02*
X397Y1469D01*
X324Y1468D02*
X352Y1468D01*
X370Y1468D02*
X397Y1468D01*
X324Y1467D02*
X350Y1467D01*
X372Y1467D02*
X397Y1467D01*
X324Y1466D02*
X348Y1466D01*
X373Y1466D02*
X397Y1466D01*
X324Y1465D02*
X347Y1465D01*
X375Y1465D02*
X397Y1465D01*
X324Y1464D02*
X346Y1464D01*
X376Y1464D02*
X397Y1464D01*
X324Y1463D02*
X345Y1463D01*
X376Y1463D02*
X397Y1463D01*
X324Y1462D02*
X344Y1462D01*
X377Y1462D02*
X397Y1462D01*
X324Y1461D02*
X344Y1461D01*
X378Y1461D02*
X397Y1461D01*
X324Y1460D02*
X343Y1460D01*
X378Y1460D02*
X397Y1460D01*
X324Y1459D02*
X343Y1459D01*
X379Y1459D02*
X397Y1459D01*
X324Y1458D02*
X342Y1458D01*
X380Y1458D02*
X397Y1458D01*
X324Y1457D02*
X342Y1457D01*
X380Y1457D02*
X397Y1457D01*
X324Y1456D02*
X342Y1456D01*
X380Y1456D02*
X397Y1456D01*
X324Y1455D02*
X341Y1455D01*
X380Y1455D02*
X397Y1455D01*
X324Y1454D02*
X341Y1454D01*
X381Y1454D02*
X397Y1454D01*
X324Y1453D02*
X341Y1453D01*
X381Y1453D02*
X397Y1453D01*
X324Y1452D02*
X341Y1452D01*
X381Y1452D02*
X397Y1452D01*
X324Y1451D02*
X341Y1451D01*
X381Y1451D02*
X397Y1451D01*
X324Y1450D02*
X341Y1450D01*
X381Y1450D02*
X397Y1450D01*
X324Y1449D02*
X341Y1449D01*
X381Y1449D02*
X397Y1449D01*
X324Y1448D02*
X341Y1448D01*
X381Y1448D02*
X397Y1448D01*
X324Y1447D02*
X341Y1447D01*
X381Y1447D02*
X397Y1447D01*
X324Y1446D02*
X341Y1446D01*
X380Y1446D02*
X397Y1446D01*
X324Y1445D02*
X342Y1445D01*
X380Y1445D02*
X397Y1445D01*
X324Y1444D02*
X342Y1444D01*
X380Y1444D02*
X397Y1444D01*
X324Y1443D02*
X342Y1443D01*
X380Y1443D02*
X397Y1443D01*
X324Y1442D02*
X343Y1442D01*
X379Y1442D02*
X397Y1442D01*
X324Y1441D02*
X343Y1441D01*
X379Y1441D02*
X397Y1441D01*
X324Y1440D02*
X344Y1440D01*
X378Y1440D02*
X397Y1440D01*
X324Y1439D02*
X344Y1439D01*
X377Y1439D02*
X397Y1439D01*
X324Y1438D02*
X345Y1438D01*
X376Y1438D02*
X397Y1438D01*
X324Y1437D02*
X346Y1437D01*
X376Y1437D02*
X397Y1437D01*
X324Y1436D02*
X347Y1436D01*
X375Y1436D02*
X397Y1436D01*
X324Y1435D02*
X348Y1435D01*
X373Y1435D02*
X397Y1435D01*
X324Y1434D02*
X350Y1434D01*
X372Y1434D02*
X397Y1434D01*
X324Y1433D02*
X351Y1433D01*
X370Y1433D02*
X397Y1433D01*
X324Y1432D02*
X354Y1432D01*
X368Y1432D02*
X397Y1432D01*
X324Y1431D02*
X358Y1431D01*
X363Y1431D02*
X397Y1431D01*
X324Y1430D02*
X397Y1430D01*
X324Y1429D02*
X397Y1429D01*
X324Y1428D02*
X397Y1428D01*
X324Y1427D02*
X397Y1427D01*
X324Y1426D02*
X397Y1426D01*
X324Y1425D02*
X397Y1425D01*
X324Y1424D02*
X397Y1424D01*
X324Y1423D02*
X397Y1423D01*
X324Y1422D02*
X397Y1422D01*
X324Y1421D02*
X397Y1421D01*
X324Y1420D02*
X397Y1420D01*
X324Y1419D02*
X397Y1419D01*
X324Y1418D02*
X397Y1418D01*
X324Y1417D02*
X397Y1417D01*
X324Y1416D02*
X397Y1416D01*
X324Y1415D02*
X397Y1415D01*
X324Y1414D02*
X397Y1414D01*
X352Y1149D02*
X366Y1149D01*
X452Y1149D02*
X466Y1149D01*
X2152Y1149D02*
X2166Y1149D01*
X2252Y1149D02*
X2266Y1149D01*
X349Y1148D02*
X369Y1148D01*
X449Y1148D02*
X469Y1148D01*
X2149Y1148D02*
X2169Y1148D01*
X2249Y1148D02*
X2269Y1148D01*
X347Y1147D02*
X372Y1147D01*
X446Y1147D02*
X471Y1147D01*
X2146Y1147D02*
X2171Y1147D01*
X2246Y1147D02*
X2271Y1147D01*
X345Y1146D02*
X374Y1146D01*
X445Y1146D02*
X473Y1146D01*
X2144Y1146D02*
X2173Y1146D01*
X2244Y1146D02*
X2273Y1146D01*
X343Y1145D02*
X375Y1145D01*
X443Y1145D02*
X475Y1145D01*
X2143Y1145D02*
X2175Y1145D01*
X2243Y1145D02*
X2275Y1145D01*
X341Y1144D02*
X377Y1144D01*
X441Y1144D02*
X477Y1144D01*
X2141Y1144D02*
X2177Y1144D01*
X2241Y1144D02*
X2276Y1144D01*
X340Y1143D02*
X378Y1143D01*
X440Y1143D02*
X478Y1143D01*
X2140Y1143D02*
X2178Y1143D01*
X2240Y1143D02*
X2278Y1143D01*
X339Y1142D02*
X379Y1142D01*
X439Y1142D02*
X479Y1142D01*
X2139Y1142D02*
X2179Y1142D01*
X2239Y1142D02*
X2279Y1142D01*
X338Y1141D02*
X380Y1141D01*
X438Y1141D02*
X480Y1141D01*
X2138Y1141D02*
X2180Y1141D01*
X2238Y1141D02*
X2280Y1141D01*
X337Y1140D02*
X381Y1140D01*
X437Y1140D02*
X481Y1140D01*
X2137Y1140D02*
X2181Y1140D01*
X2237Y1140D02*
X2281Y1140D01*
X336Y1139D02*
X382Y1139D01*
X436Y1139D02*
X482Y1139D01*
X2136Y1139D02*
X2182Y1139D01*
X2236Y1139D02*
X2282Y1139D01*
X335Y1138D02*
X383Y1138D01*
X435Y1138D02*
X483Y1138D01*
X2135Y1138D02*
X2183Y1138D01*
X2235Y1138D02*
X2283Y1138D01*
X334Y1137D02*
X355Y1137D01*
X363Y1137D02*
X384Y1137D01*
X434Y1137D02*
X455Y1137D01*
X463Y1137D02*
X484Y1137D01*
X2134Y1137D02*
X2155Y1137D01*
X2163Y1137D02*
X2184Y1137D01*
X2234Y1137D02*
X2255Y1137D01*
X2263Y1137D02*
X2283Y1137D01*
X334Y1136D02*
X351Y1136D01*
X367Y1136D02*
X384Y1136D01*
X434Y1136D02*
X451Y1136D01*
X467Y1136D02*
X484Y1136D01*
X2134Y1136D02*
X2151Y1136D01*
X2167Y1136D02*
X2184Y1136D01*
X2234Y1136D02*
X2251Y1136D01*
X2266Y1136D02*
X2284Y1136D01*
X333Y1135D02*
X350Y1135D01*
X369Y1135D02*
X385Y1135D01*
X433Y1135D02*
X450Y1135D01*
X469Y1135D02*
X485Y1135D01*
X2133Y1135D02*
X2149Y1135D01*
X2168Y1135D02*
X2185Y1135D01*
X2233Y1135D02*
X2249Y1135D01*
X2268Y1135D02*
X2285Y1135D01*
X333Y1134D02*
X348Y1134D01*
X370Y1134D02*
X386Y1134D01*
X432Y1134D02*
X448Y1134D01*
X470Y1134D02*
X486Y1134D01*
X2132Y1134D02*
X2148Y1134D01*
X2170Y1134D02*
X2185Y1134D01*
X2232Y1134D02*
X2248Y1134D01*
X2270Y1134D02*
X2285Y1134D01*
X332Y1133D02*
X347Y1133D01*
X371Y1133D02*
X386Y1133D01*
X432Y1133D02*
X447Y1133D01*
X471Y1133D02*
X486Y1133D01*
X2132Y1133D02*
X2147Y1133D01*
X2171Y1133D02*
X2186Y1133D01*
X2232Y1133D02*
X2246Y1133D01*
X2271Y1133D02*
X2286Y1133D01*
X332Y1132D02*
X345Y1132D01*
X373Y1132D02*
X387Y1132D01*
X431Y1132D02*
X445Y1132D01*
X473Y1132D02*
X487Y1132D01*
X2131Y1132D02*
X2145Y1132D01*
X2173Y1132D02*
X2186Y1132D01*
X2231Y1132D02*
X2245Y1132D01*
X2272Y1132D02*
X2286Y1132D01*
X331Y1131D02*
X345Y1131D01*
X373Y1131D02*
X387Y1131D01*
X431Y1131D02*
X445Y1131D01*
X473Y1131D02*
X487Y1131D01*
X2131Y1131D02*
X2145Y1131D01*
X2173Y1131D02*
X2187Y1131D01*
X2231Y1131D02*
X2244Y1131D01*
X2273Y1131D02*
X2287Y1131D01*
X331Y1130D02*
X344Y1130D01*
X374Y1130D02*
X387Y1130D01*
X431Y1130D02*
X444Y1130D01*
X474Y1130D02*
X487Y1130D01*
X2131Y1130D02*
X2144Y1130D01*
X2174Y1130D02*
X2187Y1130D01*
X2230Y1130D02*
X2244Y1130D01*
X2274Y1130D02*
X2287Y1130D01*
X330Y1129D02*
X343Y1129D01*
X375Y1129D02*
X388Y1129D01*
X430Y1129D02*
X443Y1129D01*
X475Y1129D02*
X488Y1129D01*
X2130Y1129D02*
X2143Y1129D01*
X2175Y1129D02*
X2188Y1129D01*
X2230Y1129D02*
X2243Y1129D01*
X2275Y1129D02*
X2288Y1129D01*
X330Y1128D02*
X343Y1128D01*
X376Y1128D02*
X388Y1128D01*
X430Y1128D02*
X442Y1128D01*
X476Y1128D02*
X488Y1128D01*
X2130Y1128D02*
X2142Y1128D01*
X2175Y1128D02*
X2188Y1128D01*
X2230Y1128D02*
X2242Y1128D01*
X2275Y1128D02*
X2288Y1128D01*
X330Y1127D02*
X342Y1127D01*
X376Y1127D02*
X388Y1127D01*
X430Y1127D02*
X442Y1127D01*
X476Y1127D02*
X488Y1127D01*
X2130Y1127D02*
X2142Y1127D01*
X2176Y1127D02*
X2188Y1127D01*
X2230Y1127D02*
X2242Y1127D01*
X2276Y1127D02*
X2288Y1127D01*
X329Y1126D02*
X341Y1126D01*
X377Y1126D02*
X389Y1126D01*
X429Y1126D02*
X441Y1126D01*
X477Y1126D02*
X489Y1126D01*
X2129Y1126D02*
X2141Y1126D01*
X2177Y1126D02*
X2189Y1126D01*
X2229Y1126D02*
X2241Y1126D01*
X2276Y1126D02*
X2288Y1126D01*
X329Y1125D02*
X341Y1125D01*
X377Y1125D02*
X389Y1125D01*
X429Y1125D02*
X441Y1125D01*
X477Y1125D02*
X489Y1125D01*
X2129Y1125D02*
X2141Y1125D01*
X2177Y1125D02*
X2189Y1125D01*
X2229Y1125D02*
X2241Y1125D01*
X2277Y1125D02*
X2289Y1125D01*
X329Y1124D02*
X341Y1124D01*
X377Y1124D02*
X389Y1124D01*
X429Y1124D02*
X441Y1124D01*
X477Y1124D02*
X489Y1124D01*
X2129Y1124D02*
X2141Y1124D01*
X2177Y1124D02*
X2189Y1124D01*
X2229Y1124D02*
X2241Y1124D01*
X2277Y1124D02*
X2289Y1124D01*
X329Y1123D02*
X341Y1123D01*
X378Y1123D02*
X389Y1123D01*
X429Y1123D02*
X440Y1123D01*
X478Y1123D02*
X489Y1123D01*
X2129Y1123D02*
X2140Y1123D01*
X2177Y1123D02*
X2189Y1123D01*
X2229Y1123D02*
X2240Y1123D01*
X2277Y1123D02*
X2289Y1123D01*
X329Y1122D02*
X340Y1122D01*
X378Y1122D02*
X389Y1122D01*
X429Y1122D02*
X440Y1122D01*
X478Y1122D02*
X489Y1122D01*
X2129Y1122D02*
X2140Y1122D01*
X2178Y1122D02*
X2189Y1122D01*
X2229Y1122D02*
X2240Y1122D01*
X2278Y1122D02*
X2289Y1122D01*
X329Y1121D02*
X340Y1121D01*
X378Y1121D02*
X389Y1121D01*
X429Y1121D02*
X440Y1121D01*
X478Y1121D02*
X489Y1121D01*
X2129Y1121D02*
X2140Y1121D01*
X2178Y1121D02*
X2189Y1121D01*
X2229Y1121D02*
X2240Y1121D01*
X2278Y1121D02*
X2289Y1121D01*
X329Y1120D02*
X340Y1120D01*
X378Y1120D02*
X389Y1120D01*
X429Y1120D02*
X440Y1120D01*
X478Y1120D02*
X489Y1120D01*
X2129Y1120D02*
X2140Y1120D01*
X2178Y1120D02*
X2189Y1120D01*
X2228Y1120D02*
X2240Y1120D01*
X2278Y1120D02*
X2289Y1120D01*
X329Y1119D02*
X340Y1119D01*
X378Y1119D02*
X389Y1119D01*
X429Y1119D02*
X440Y1119D01*
X478Y1119D02*
X489Y1119D01*
X2128Y1119D02*
X2140Y1119D01*
X2178Y1119D02*
X2189Y1119D01*
X2228Y1119D02*
X2240Y1119D01*
X2278Y1119D02*
X2289Y1119D01*
X329Y1118D02*
X340Y1118D01*
X378Y1118D02*
X389Y1118D01*
X429Y1118D02*
X440Y1118D01*
X478Y1118D02*
X489Y1118D01*
X2129Y1118D02*
X2140Y1118D01*
X2178Y1118D02*
X2189Y1118D01*
X2228Y1118D02*
X2240Y1118D01*
X2278Y1118D02*
X2289Y1118D01*
X329Y1117D02*
X340Y1117D01*
X378Y1117D02*
X389Y1117D01*
X429Y1117D02*
X440Y1117D01*
X478Y1117D02*
X489Y1117D01*
X2129Y1117D02*
X2140Y1117D01*
X2178Y1117D02*
X2189Y1117D01*
X2229Y1117D02*
X2240Y1117D01*
X2278Y1117D02*
X2289Y1117D01*
X329Y1116D02*
X340Y1116D01*
X378Y1116D02*
X389Y1116D01*
X429Y1116D02*
X440Y1116D01*
X478Y1116D02*
X489Y1116D01*
X2129Y1116D02*
X2140Y1116D01*
X2178Y1116D02*
X2189Y1116D01*
X2229Y1116D02*
X2240Y1116D01*
X2278Y1116D02*
X2289Y1116D01*
X329Y1115D02*
X340Y1115D01*
X378Y1115D02*
X389Y1115D01*
X429Y1115D02*
X440Y1115D01*
X478Y1115D02*
X489Y1115D01*
X2129Y1115D02*
X2140Y1115D01*
X2178Y1115D02*
X2189Y1115D01*
X2229Y1115D02*
X2240Y1115D01*
X2277Y1115D02*
X2289Y1115D01*
X329Y1114D02*
X341Y1114D01*
X377Y1114D02*
X389Y1114D01*
X429Y1114D02*
X441Y1114D01*
X477Y1114D02*
X489Y1114D01*
X2129Y1114D02*
X2141Y1114D01*
X2177Y1114D02*
X2189Y1114D01*
X2229Y1114D02*
X2241Y1114D01*
X2277Y1114D02*
X2289Y1114D01*
X329Y1113D02*
X341Y1113D01*
X377Y1113D02*
X389Y1113D01*
X429Y1113D02*
X441Y1113D01*
X477Y1113D02*
X489Y1113D01*
X2129Y1113D02*
X2141Y1113D01*
X2177Y1113D02*
X2189Y1113D01*
X2229Y1113D02*
X2241Y1113D01*
X2277Y1113D02*
X2289Y1113D01*
X329Y1112D02*
X341Y1112D01*
X377Y1112D02*
X389Y1112D01*
X429Y1112D02*
X441Y1112D01*
X477Y1112D02*
X489Y1112D01*
X2129Y1112D02*
X2141Y1112D01*
X2177Y1112D02*
X2189Y1112D01*
X2229Y1112D02*
X2241Y1112D01*
X2277Y1112D02*
X2289Y1112D01*
X330Y1111D02*
X342Y1111D01*
X376Y1111D02*
X388Y1111D01*
X430Y1111D02*
X442Y1111D01*
X476Y1111D02*
X488Y1111D01*
X2130Y1111D02*
X2142Y1111D01*
X2176Y1111D02*
X2188Y1111D01*
X2229Y1111D02*
X2242Y1111D01*
X2276Y1111D02*
X2288Y1111D01*
X330Y1110D02*
X342Y1110D01*
X376Y1110D02*
X388Y1110D01*
X430Y1110D02*
X442Y1110D01*
X476Y1110D02*
X488Y1110D01*
X2130Y1110D02*
X2142Y1110D01*
X2176Y1110D02*
X2188Y1110D01*
X2230Y1110D02*
X2242Y1110D01*
X2276Y1110D02*
X2288Y1110D01*
X330Y1109D02*
X343Y1109D01*
X375Y1109D02*
X388Y1109D01*
X430Y1109D02*
X443Y1109D01*
X475Y1109D02*
X488Y1109D01*
X2130Y1109D02*
X2143Y1109D01*
X2175Y1109D02*
X2188Y1109D01*
X2230Y1109D02*
X2243Y1109D01*
X2275Y1109D02*
X2288Y1109D01*
X331Y1108D02*
X344Y1108D01*
X374Y1108D02*
X387Y1108D01*
X431Y1108D02*
X444Y1108D01*
X474Y1108D02*
X487Y1108D01*
X2130Y1108D02*
X2144Y1108D01*
X2174Y1108D02*
X2187Y1108D01*
X2230Y1108D02*
X2244Y1108D01*
X2274Y1108D02*
X2287Y1108D01*
X331Y1107D02*
X345Y1107D01*
X374Y1107D02*
X387Y1107D01*
X431Y1107D02*
X444Y1107D01*
X474Y1107D02*
X487Y1107D01*
X2131Y1107D02*
X2144Y1107D01*
X2174Y1107D02*
X2187Y1107D01*
X2231Y1107D02*
X2244Y1107D01*
X2273Y1107D02*
X2287Y1107D01*
X331Y1106D02*
X345Y1106D01*
X373Y1106D02*
X387Y1106D01*
X431Y1106D02*
X445Y1106D01*
X473Y1106D02*
X487Y1106D01*
X2131Y1106D02*
X2145Y1106D01*
X2173Y1106D02*
X2187Y1106D01*
X2231Y1106D02*
X2245Y1106D01*
X2273Y1106D02*
X2286Y1106D01*
X332Y1105D02*
X346Y1105D01*
X372Y1105D02*
X386Y1105D01*
X432Y1105D02*
X446Y1105D01*
X472Y1105D02*
X486Y1105D01*
X2132Y1105D02*
X2146Y1105D01*
X2172Y1105D02*
X2186Y1105D01*
X2232Y1105D02*
X2246Y1105D01*
X2271Y1105D02*
X2286Y1105D01*
X332Y1104D02*
X348Y1104D01*
X370Y1104D02*
X386Y1104D01*
X432Y1104D02*
X448Y1104D01*
X470Y1104D02*
X486Y1104D01*
X2132Y1104D02*
X2148Y1104D01*
X2170Y1104D02*
X2186Y1104D01*
X2232Y1104D02*
X2248Y1104D01*
X2270Y1104D02*
X2285Y1104D01*
X333Y1103D02*
X349Y1103D01*
X369Y1103D02*
X385Y1103D01*
X433Y1103D02*
X449Y1103D01*
X469Y1103D02*
X485Y1103D01*
X2133Y1103D02*
X2149Y1103D01*
X2169Y1103D02*
X2185Y1103D01*
X2233Y1103D02*
X2249Y1103D01*
X2269Y1103D02*
X2285Y1103D01*
X334Y1102D02*
X351Y1102D01*
X367Y1102D02*
X384Y1102D01*
X434Y1102D02*
X451Y1102D01*
X467Y1102D02*
X484Y1102D01*
X2134Y1102D02*
X2151Y1102D01*
X2167Y1102D02*
X2184Y1102D01*
X2233Y1102D02*
X2251Y1102D01*
X2267Y1102D02*
X2284Y1102D01*
X334Y1101D02*
X354Y1101D01*
X364Y1101D02*
X384Y1101D01*
X434Y1101D02*
X454Y1101D01*
X464Y1101D02*
X484Y1101D01*
X2134Y1101D02*
X2154Y1101D01*
X2164Y1101D02*
X2184Y1101D01*
X2234Y1101D02*
X2254Y1101D01*
X2264Y1101D02*
X2284Y1101D01*
X335Y1100D02*
X383Y1100D01*
X435Y1100D02*
X483Y1100D01*
X2135Y1100D02*
X2183Y1100D01*
X2235Y1100D02*
X2283Y1100D01*
X336Y1099D02*
X382Y1099D01*
X436Y1099D02*
X482Y1099D01*
X2136Y1099D02*
X2182Y1099D01*
X2236Y1099D02*
X2282Y1099D01*
X337Y1098D02*
X381Y1098D01*
X437Y1098D02*
X481Y1098D01*
X2137Y1098D02*
X2181Y1098D01*
X2237Y1098D02*
X2281Y1098D01*
X338Y1097D02*
X380Y1097D01*
X438Y1097D02*
X480Y1097D01*
X2138Y1097D02*
X2180Y1097D01*
X2238Y1097D02*
X2280Y1097D01*
X339Y1096D02*
X379Y1096D01*
X439Y1096D02*
X479Y1096D01*
X2139Y1096D02*
X2179Y1096D01*
X2239Y1096D02*
X2279Y1096D01*
X340Y1095D02*
X378Y1095D01*
X440Y1095D02*
X478Y1095D01*
X2140Y1095D02*
X2178Y1095D01*
X2240Y1095D02*
X2278Y1095D01*
X341Y1094D02*
X377Y1094D01*
X441Y1094D02*
X477Y1094D01*
X2141Y1094D02*
X2177Y1094D01*
X2241Y1094D02*
X2277Y1094D01*
X343Y1093D02*
X375Y1093D01*
X443Y1093D02*
X475Y1093D01*
X2143Y1093D02*
X2175Y1093D01*
X2242Y1093D02*
X2275Y1093D01*
X344Y1092D02*
X374Y1092D01*
X444Y1092D02*
X474Y1092D01*
X2144Y1092D02*
X2174Y1092D01*
X2244Y1092D02*
X2274Y1092D01*
X346Y1091D02*
X372Y1091D01*
X446Y1091D02*
X472Y1091D01*
X2146Y1091D02*
X2172Y1091D01*
X2246Y1091D02*
X2272Y1091D01*
X349Y1090D02*
X370Y1090D01*
X449Y1090D02*
X469Y1090D01*
X2148Y1090D02*
X2169Y1090D01*
X2248Y1090D02*
X2269Y1090D01*
X352Y1089D02*
X366Y1089D01*
X452Y1089D02*
X466Y1089D01*
X2152Y1089D02*
X2166Y1089D01*
X2252Y1089D02*
X2266Y1089D01*
X359Y1088D02*
X359Y1088D01*
X459Y1088D02*
X459Y1088D01*
X2159Y1088D02*
X2159Y1088D01*
X2259Y1088D02*
X2259Y1088D01*
X352Y749D02*
X366Y749D01*
X452Y749D02*
X466Y749D01*
X2152Y749D02*
X2166Y749D01*
X2252Y749D02*
X2266Y749D01*
X349Y748D02*
X369Y748D01*
X449Y748D02*
X469Y748D01*
X2149Y748D02*
X2169Y748D01*
X2249Y748D02*
X2269Y748D01*
X346Y747D02*
X372Y747D01*
X446Y747D02*
X472Y747D01*
X2146Y747D02*
X2171Y747D01*
X2246Y747D02*
X2271Y747D01*
X344Y746D02*
X374Y746D01*
X444Y746D02*
X474Y746D01*
X2144Y746D02*
X2173Y746D01*
X2244Y746D02*
X2273Y746D01*
X343Y745D02*
X375Y745D01*
X443Y745D02*
X475Y745D01*
X2143Y745D02*
X2175Y745D01*
X2243Y745D02*
X2275Y745D01*
X341Y744D02*
X377Y744D01*
X441Y744D02*
X477Y744D01*
X2141Y744D02*
X2177Y744D01*
X2241Y744D02*
X2277Y744D01*
X340Y743D02*
X378Y743D01*
X440Y743D02*
X478Y743D01*
X2140Y743D02*
X2178Y743D01*
X2240Y743D02*
X2278Y743D01*
X339Y742D02*
X379Y742D01*
X439Y742D02*
X479Y742D01*
X2139Y742D02*
X2179Y742D01*
X2239Y742D02*
X2279Y742D01*
X338Y741D02*
X380Y741D01*
X438Y741D02*
X480Y741D01*
X2138Y741D02*
X2180Y741D01*
X2238Y741D02*
X2280Y741D01*
X337Y740D02*
X381Y740D01*
X437Y740D02*
X481Y740D01*
X2137Y740D02*
X2181Y740D01*
X2237Y740D02*
X2281Y740D01*
X336Y739D02*
X382Y739D01*
X436Y739D02*
X482Y739D01*
X2136Y739D02*
X2182Y739D01*
X2236Y739D02*
X2282Y739D01*
X335Y738D02*
X383Y738D01*
X435Y738D02*
X483Y738D01*
X2135Y738D02*
X2183Y738D01*
X2235Y738D02*
X2283Y738D01*
X334Y737D02*
X355Y737D01*
X364Y737D02*
X384Y737D01*
X434Y737D02*
X454Y737D01*
X464Y737D02*
X484Y737D01*
X2134Y737D02*
X2154Y737D01*
X2163Y737D02*
X2184Y737D01*
X2234Y737D02*
X2254Y737D01*
X2263Y737D02*
X2283Y737D01*
X334Y736D02*
X351Y736D01*
X367Y736D02*
X384Y736D01*
X434Y736D02*
X451Y736D01*
X467Y736D02*
X484Y736D01*
X2134Y736D02*
X2151Y736D01*
X2167Y736D02*
X2184Y736D01*
X2234Y736D02*
X2251Y736D01*
X2267Y736D02*
X2284Y736D01*
X333Y735D02*
X349Y735D01*
X369Y735D02*
X385Y735D01*
X433Y735D02*
X449Y735D01*
X469Y735D02*
X485Y735D01*
X2133Y735D02*
X2149Y735D01*
X2169Y735D02*
X2185Y735D01*
X2233Y735D02*
X2249Y735D01*
X2268Y735D02*
X2285Y735D01*
X333Y734D02*
X348Y734D01*
X370Y734D02*
X386Y734D01*
X432Y734D02*
X448Y734D01*
X470Y734D02*
X486Y734D01*
X2132Y734D02*
X2148Y734D01*
X2170Y734D02*
X2185Y734D01*
X2232Y734D02*
X2248Y734D01*
X2270Y734D02*
X2285Y734D01*
X332Y733D02*
X347Y733D01*
X371Y733D02*
X386Y733D01*
X432Y733D02*
X447Y733D01*
X471Y733D02*
X486Y733D01*
X2132Y733D02*
X2146Y733D01*
X2171Y733D02*
X2186Y733D01*
X2232Y733D02*
X2246Y733D01*
X2271Y733D02*
X2286Y733D01*
X331Y732D02*
X345Y732D01*
X373Y732D02*
X387Y732D01*
X431Y732D02*
X445Y732D01*
X473Y732D02*
X487Y732D01*
X2131Y732D02*
X2145Y732D01*
X2173Y732D02*
X2186Y732D01*
X2231Y732D02*
X2245Y732D01*
X2272Y732D02*
X2286Y732D01*
X331Y731D02*
X345Y731D01*
X374Y731D02*
X387Y731D01*
X431Y731D02*
X445Y731D01*
X473Y731D02*
X487Y731D01*
X2131Y731D02*
X2144Y731D01*
X2173Y731D02*
X2187Y731D01*
X2231Y731D02*
X2244Y731D01*
X2273Y731D02*
X2287Y731D01*
X331Y730D02*
X344Y730D01*
X374Y730D02*
X387Y730D01*
X431Y730D02*
X444Y730D01*
X474Y730D02*
X487Y730D01*
X2131Y730D02*
X2144Y730D01*
X2174Y730D02*
X2187Y730D01*
X2230Y730D02*
X2244Y730D01*
X2274Y730D02*
X2287Y730D01*
X330Y729D02*
X343Y729D01*
X375Y729D02*
X388Y729D01*
X430Y729D02*
X443Y729D01*
X475Y729D02*
X488Y729D01*
X2130Y729D02*
X2143Y729D01*
X2175Y729D02*
X2188Y729D01*
X2230Y729D02*
X2243Y729D01*
X2275Y729D02*
X2288Y729D01*
X330Y728D02*
X342Y728D01*
X376Y728D02*
X388Y728D01*
X430Y728D02*
X442Y728D01*
X476Y728D02*
X488Y728D01*
X2130Y728D02*
X2142Y728D01*
X2176Y728D02*
X2188Y728D01*
X2230Y728D02*
X2242Y728D01*
X2275Y728D02*
X2288Y728D01*
X330Y727D02*
X342Y727D01*
X376Y727D02*
X388Y727D01*
X430Y727D02*
X442Y727D01*
X476Y727D02*
X488Y727D01*
X2130Y727D02*
X2142Y727D01*
X2176Y727D02*
X2188Y727D01*
X2229Y727D02*
X2242Y727D01*
X2276Y727D02*
X2288Y727D01*
X329Y726D02*
X341Y726D01*
X377Y726D02*
X389Y726D01*
X429Y726D02*
X441Y726D01*
X477Y726D02*
X489Y726D01*
X2129Y726D02*
X2141Y726D01*
X2177Y726D02*
X2189Y726D01*
X2229Y726D02*
X2241Y726D01*
X2276Y726D02*
X2288Y726D01*
X329Y725D02*
X341Y725D01*
X377Y725D02*
X389Y725D01*
X429Y725D02*
X441Y725D01*
X477Y725D02*
X489Y725D01*
X2129Y725D02*
X2141Y725D01*
X2177Y725D02*
X2189Y725D01*
X2229Y725D02*
X2241Y725D01*
X2277Y725D02*
X2289Y725D01*
X329Y724D02*
X341Y724D01*
X377Y724D02*
X389Y724D01*
X429Y724D02*
X441Y724D01*
X477Y724D02*
X489Y724D01*
X2129Y724D02*
X2141Y724D01*
X2177Y724D02*
X2189Y724D01*
X2229Y724D02*
X2241Y724D01*
X2277Y724D02*
X2289Y724D01*
X329Y723D02*
X341Y723D01*
X378Y723D02*
X389Y723D01*
X429Y723D02*
X440Y723D01*
X478Y723D02*
X489Y723D01*
X2129Y723D02*
X2140Y723D01*
X2177Y723D02*
X2189Y723D01*
X2229Y723D02*
X2240Y723D01*
X2277Y723D02*
X2289Y723D01*
X329Y722D02*
X340Y722D01*
X378Y722D02*
X389Y722D01*
X429Y722D02*
X440Y722D01*
X478Y722D02*
X489Y722D01*
X2129Y722D02*
X2140Y722D01*
X2178Y722D02*
X2189Y722D01*
X2229Y722D02*
X2240Y722D01*
X2278Y722D02*
X2289Y722D01*
X329Y721D02*
X340Y721D01*
X378Y721D02*
X389Y721D01*
X429Y721D02*
X440Y721D01*
X478Y721D02*
X489Y721D01*
X2129Y721D02*
X2140Y721D01*
X2178Y721D02*
X2189Y721D01*
X2229Y721D02*
X2240Y721D01*
X2278Y721D02*
X2289Y721D01*
X329Y720D02*
X340Y720D01*
X378Y720D02*
X389Y720D01*
X429Y720D02*
X440Y720D01*
X478Y720D02*
X489Y720D01*
X2129Y720D02*
X2140Y720D01*
X2178Y720D02*
X2189Y720D01*
X2228Y720D02*
X2240Y720D01*
X2278Y720D02*
X2289Y720D01*
X329Y719D02*
X340Y719D01*
X378Y719D02*
X389Y719D01*
X429Y719D02*
X440Y719D01*
X478Y719D02*
X489Y719D01*
X2128Y719D02*
X2140Y719D01*
X2178Y719D02*
X2189Y719D01*
X2228Y719D02*
X2240Y719D01*
X2278Y719D02*
X2289Y719D01*
X329Y718D02*
X340Y718D01*
X378Y718D02*
X389Y718D01*
X429Y718D02*
X440Y718D01*
X478Y718D02*
X489Y718D01*
X2129Y718D02*
X2140Y718D01*
X2178Y718D02*
X2189Y718D01*
X2228Y718D02*
X2240Y718D01*
X2278Y718D02*
X2289Y718D01*
X329Y717D02*
X340Y717D01*
X378Y717D02*
X389Y717D01*
X429Y717D02*
X440Y717D01*
X478Y717D02*
X489Y717D01*
X2129Y717D02*
X2140Y717D01*
X2178Y717D02*
X2189Y717D01*
X2229Y717D02*
X2240Y717D01*
X2278Y717D02*
X2289Y717D01*
X329Y716D02*
X340Y716D01*
X378Y716D02*
X389Y716D01*
X429Y716D02*
X440Y716D01*
X478Y716D02*
X489Y716D01*
X2129Y716D02*
X2140Y716D01*
X2178Y716D02*
X2189Y716D01*
X2229Y716D02*
X2240Y716D01*
X2278Y716D02*
X2289Y716D01*
X329Y715D02*
X340Y715D01*
X378Y715D02*
X389Y715D01*
X429Y715D02*
X440Y715D01*
X478Y715D02*
X489Y715D01*
X2129Y715D02*
X2140Y715D01*
X2178Y715D02*
X2189Y715D01*
X2229Y715D02*
X2240Y715D01*
X2277Y715D02*
X2289Y715D01*
X329Y714D02*
X341Y714D01*
X377Y714D02*
X389Y714D01*
X429Y714D02*
X441Y714D01*
X477Y714D02*
X489Y714D01*
X2129Y714D02*
X2141Y714D01*
X2177Y714D02*
X2189Y714D01*
X2229Y714D02*
X2241Y714D01*
X2277Y714D02*
X2289Y714D01*
X329Y713D02*
X341Y713D01*
X377Y713D02*
X389Y713D01*
X429Y713D02*
X441Y713D01*
X477Y713D02*
X489Y713D01*
X2129Y713D02*
X2141Y713D01*
X2177Y713D02*
X2189Y713D01*
X2229Y713D02*
X2241Y713D01*
X2277Y713D02*
X2289Y713D01*
X329Y712D02*
X341Y712D01*
X377Y712D02*
X389Y712D01*
X429Y712D02*
X441Y712D01*
X477Y712D02*
X489Y712D01*
X2129Y712D02*
X2141Y712D01*
X2177Y712D02*
X2189Y712D01*
X2229Y712D02*
X2241Y712D01*
X2277Y712D02*
X2289Y712D01*
X330Y711D02*
X342Y711D01*
X376Y711D02*
X388Y711D01*
X430Y711D02*
X442Y711D01*
X476Y711D02*
X488Y711D01*
X2130Y711D02*
X2142Y711D01*
X2176Y711D02*
X2188Y711D01*
X2229Y711D02*
X2242Y711D01*
X2276Y711D02*
X2288Y711D01*
X330Y710D02*
X342Y710D01*
X376Y710D02*
X388Y710D01*
X430Y710D02*
X442Y710D01*
X476Y710D02*
X488Y710D01*
X2130Y710D02*
X2142Y710D01*
X2176Y710D02*
X2188Y710D01*
X2230Y710D02*
X2242Y710D01*
X2275Y710D02*
X2288Y710D01*
X330Y709D02*
X343Y709D01*
X375Y709D02*
X388Y709D01*
X430Y709D02*
X443Y709D01*
X475Y709D02*
X488Y709D01*
X2130Y709D02*
X2143Y709D01*
X2175Y709D02*
X2188Y709D01*
X2230Y709D02*
X2243Y709D01*
X2275Y709D02*
X2288Y709D01*
X331Y708D02*
X344Y708D01*
X374Y708D02*
X387Y708D01*
X431Y708D02*
X444Y708D01*
X474Y708D02*
X487Y708D01*
X2131Y708D02*
X2144Y708D01*
X2174Y708D02*
X2187Y708D01*
X2230Y708D02*
X2244Y708D01*
X2274Y708D02*
X2287Y708D01*
X331Y707D02*
X345Y707D01*
X374Y707D02*
X387Y707D01*
X431Y707D02*
X444Y707D01*
X474Y707D02*
X487Y707D01*
X2131Y707D02*
X2144Y707D01*
X2173Y707D02*
X2187Y707D01*
X2231Y707D02*
X2244Y707D01*
X2273Y707D02*
X2287Y707D01*
X331Y706D02*
X345Y706D01*
X373Y706D02*
X387Y706D01*
X431Y706D02*
X445Y706D01*
X473Y706D02*
X487Y706D01*
X2131Y706D02*
X2145Y706D01*
X2173Y706D02*
X2187Y706D01*
X2231Y706D02*
X2245Y706D01*
X2273Y706D02*
X2286Y706D01*
X332Y705D02*
X347Y705D01*
X372Y705D02*
X386Y705D01*
X432Y705D02*
X446Y705D01*
X472Y705D02*
X486Y705D01*
X2132Y705D02*
X2146Y705D01*
X2171Y705D02*
X2186Y705D01*
X2232Y705D02*
X2246Y705D01*
X2271Y705D02*
X2286Y705D01*
X332Y704D02*
X348Y704D01*
X370Y704D02*
X386Y704D01*
X432Y704D02*
X448Y704D01*
X470Y704D02*
X486Y704D01*
X2132Y704D02*
X2148Y704D01*
X2170Y704D02*
X2186Y704D01*
X2232Y704D02*
X2248Y704D01*
X2270Y704D02*
X2285Y704D01*
X333Y703D02*
X349Y703D01*
X369Y703D02*
X385Y703D01*
X433Y703D02*
X449Y703D01*
X469Y703D02*
X485Y703D01*
X2133Y703D02*
X2149Y703D01*
X2169Y703D02*
X2185Y703D01*
X2233Y703D02*
X2249Y703D01*
X2269Y703D02*
X2285Y703D01*
X334Y702D02*
X351Y702D01*
X367Y702D02*
X384Y702D01*
X434Y702D02*
X451Y702D01*
X467Y702D02*
X484Y702D01*
X2134Y702D02*
X2151Y702D01*
X2167Y702D02*
X2184Y702D01*
X2233Y702D02*
X2251Y702D01*
X2267Y702D02*
X2284Y702D01*
X334Y701D02*
X354Y701D01*
X364Y701D02*
X384Y701D01*
X434Y701D02*
X454Y701D01*
X464Y701D02*
X484Y701D01*
X2134Y701D02*
X2154Y701D01*
X2164Y701D02*
X2184Y701D01*
X2234Y701D02*
X2254Y701D01*
X2264Y701D02*
X2284Y701D01*
X335Y700D02*
X383Y700D01*
X435Y700D02*
X483Y700D01*
X2135Y700D02*
X2183Y700D01*
X2235Y700D02*
X2283Y700D01*
X336Y699D02*
X382Y699D01*
X436Y699D02*
X482Y699D01*
X2136Y699D02*
X2182Y699D01*
X2236Y699D02*
X2282Y699D01*
X337Y698D02*
X381Y698D01*
X437Y698D02*
X481Y698D01*
X2137Y698D02*
X2181Y698D01*
X2237Y698D02*
X2281Y698D01*
X338Y697D02*
X380Y697D01*
X438Y697D02*
X480Y697D01*
X2138Y697D02*
X2180Y697D01*
X2238Y697D02*
X2280Y697D01*
X339Y696D02*
X379Y696D01*
X439Y696D02*
X479Y696D01*
X2139Y696D02*
X2179Y696D01*
X2239Y696D02*
X2279Y696D01*
X340Y695D02*
X378Y695D01*
X440Y695D02*
X478Y695D01*
X2140Y695D02*
X2178Y695D01*
X2240Y695D02*
X2278Y695D01*
X341Y694D02*
X377Y694D01*
X441Y694D02*
X477Y694D01*
X2141Y694D02*
X2177Y694D01*
X2241Y694D02*
X2277Y694D01*
X343Y693D02*
X375Y693D01*
X443Y693D02*
X475Y693D01*
X2143Y693D02*
X2175Y693D01*
X2243Y693D02*
X2275Y693D01*
X344Y692D02*
X374Y692D01*
X444Y692D02*
X474Y692D01*
X2144Y692D02*
X2174Y692D01*
X2244Y692D02*
X2274Y692D01*
X346Y691D02*
X372Y691D01*
X446Y691D02*
X472Y691D01*
X2146Y691D02*
X2172Y691D01*
X2246Y691D02*
X2272Y691D01*
X349Y690D02*
X369Y690D01*
X449Y690D02*
X469Y690D01*
X2149Y690D02*
X2169Y690D01*
X2249Y690D02*
X2269Y690D01*
X352Y689D02*
X366Y689D01*
X452Y689D02*
X466Y689D01*
X2152Y689D02*
X2166Y689D01*
X2252Y689D02*
X2266Y689D01*
D02*
G04 End of Copper1*
M02*