G04 MADE WITH FRITZING*
G04 WWW.FRITZING.ORG*
G04 DOUBLE SIDED*
G04 HOLES PLATED*
G04 CONTOUR ON CENTER OF CONTOUR VECTOR*
%ASAXBY*%
%FSLAX23Y23*%
%MOIN*%
%OFA0B0*%
%SFA1.0B1.0*%
%ADD10R,2.629220X2.889240X2.613220X2.873240*%
%ADD11C,0.008000*%
%ADD12R,0.001000X0.001000*%
%LNSILK1*%
G90*
G70*
G54D11*
X4Y2885D02*
X2625Y2885D01*
X2625Y4D01*
X4Y4D01*
X4Y2885D01*
D02*
G54D12*
X1026Y2879D02*
X1725Y2879D01*
X1026Y2878D02*
X1725Y2878D01*
X1026Y2877D02*
X1725Y2877D01*
X1026Y2876D02*
X1725Y2876D01*
X1026Y2875D02*
X1725Y2875D01*
X1026Y2874D02*
X1725Y2874D01*
X1026Y2873D02*
X1725Y2873D01*
X1026Y2872D02*
X1725Y2872D01*
X1026Y2871D02*
X1033Y2871D01*
X1718Y2871D02*
X1725Y2871D01*
X1026Y2870D02*
X1033Y2870D01*
X1718Y2870D02*
X1725Y2870D01*
X1026Y2869D02*
X1033Y2869D01*
X1718Y2869D02*
X1725Y2869D01*
X1026Y2868D02*
X1033Y2868D01*
X1718Y2868D02*
X1725Y2868D01*
X1026Y2867D02*
X1033Y2867D01*
X1718Y2867D02*
X1725Y2867D01*
X1026Y2866D02*
X1033Y2866D01*
X1718Y2866D02*
X1725Y2866D01*
X1026Y2865D02*
X1033Y2865D01*
X1718Y2865D02*
X1725Y2865D01*
X1026Y2864D02*
X1033Y2864D01*
X1718Y2864D02*
X1725Y2864D01*
X1026Y2863D02*
X1033Y2863D01*
X1718Y2863D02*
X1725Y2863D01*
X1026Y2862D02*
X1033Y2862D01*
X1718Y2862D02*
X1725Y2862D01*
X1026Y2861D02*
X1033Y2861D01*
X1718Y2861D02*
X1725Y2861D01*
X1026Y2860D02*
X1033Y2860D01*
X1718Y2860D02*
X1725Y2860D01*
X1026Y2859D02*
X1033Y2859D01*
X1718Y2859D02*
X1725Y2859D01*
X1026Y2858D02*
X1033Y2858D01*
X1718Y2858D02*
X1725Y2858D01*
X1026Y2857D02*
X1033Y2857D01*
X1718Y2857D02*
X1725Y2857D01*
X1026Y2856D02*
X1033Y2856D01*
X1718Y2856D02*
X1725Y2856D01*
X1026Y2855D02*
X1033Y2855D01*
X1718Y2855D02*
X1725Y2855D01*
X1026Y2854D02*
X1033Y2854D01*
X1718Y2854D02*
X1725Y2854D01*
X1026Y2853D02*
X1033Y2853D01*
X1718Y2853D02*
X1725Y2853D01*
X1026Y2852D02*
X1033Y2852D01*
X1718Y2852D02*
X1725Y2852D01*
X1026Y2851D02*
X1033Y2851D01*
X1718Y2851D02*
X1725Y2851D01*
X1026Y2850D02*
X1033Y2850D01*
X1718Y2850D02*
X1725Y2850D01*
X1026Y2849D02*
X1033Y2849D01*
X1718Y2849D02*
X1725Y2849D01*
X1026Y2848D02*
X1033Y2848D01*
X1718Y2848D02*
X1725Y2848D01*
X1026Y2847D02*
X1033Y2847D01*
X1718Y2847D02*
X1725Y2847D01*
X1026Y2846D02*
X1033Y2846D01*
X1718Y2846D02*
X1725Y2846D01*
X1026Y2845D02*
X1033Y2845D01*
X1718Y2845D02*
X1725Y2845D01*
X1026Y2844D02*
X1033Y2844D01*
X1718Y2844D02*
X1725Y2844D01*
X1026Y2843D02*
X1033Y2843D01*
X1718Y2843D02*
X1725Y2843D01*
X1026Y2842D02*
X1033Y2842D01*
X1718Y2842D02*
X1725Y2842D01*
X1026Y2841D02*
X1033Y2841D01*
X1718Y2841D02*
X1725Y2841D01*
X1026Y2840D02*
X1033Y2840D01*
X1718Y2840D02*
X1725Y2840D01*
X1026Y2839D02*
X1033Y2839D01*
X1718Y2839D02*
X1725Y2839D01*
X1026Y2838D02*
X1033Y2838D01*
X1718Y2838D02*
X1725Y2838D01*
X1026Y2837D02*
X1033Y2837D01*
X1718Y2837D02*
X1725Y2837D01*
X1026Y2836D02*
X1033Y2836D01*
X1718Y2836D02*
X1725Y2836D01*
X1026Y2835D02*
X1033Y2835D01*
X1718Y2835D02*
X1725Y2835D01*
X1026Y2834D02*
X1033Y2834D01*
X1718Y2834D02*
X1725Y2834D01*
X1026Y2833D02*
X1033Y2833D01*
X1718Y2833D02*
X1725Y2833D01*
X1026Y2832D02*
X1033Y2832D01*
X1718Y2832D02*
X1725Y2832D01*
X1026Y2831D02*
X1033Y2831D01*
X1718Y2831D02*
X1725Y2831D01*
X1026Y2830D02*
X1033Y2830D01*
X1718Y2830D02*
X1725Y2830D01*
X1026Y2829D02*
X1033Y2829D01*
X1718Y2829D02*
X1725Y2829D01*
X1026Y2828D02*
X1033Y2828D01*
X1718Y2828D02*
X1725Y2828D01*
X1026Y2827D02*
X1033Y2827D01*
X1718Y2827D02*
X1725Y2827D01*
X1026Y2826D02*
X1033Y2826D01*
X1718Y2826D02*
X1725Y2826D01*
X1026Y2825D02*
X1033Y2825D01*
X1718Y2825D02*
X1725Y2825D01*
X1026Y2824D02*
X1033Y2824D01*
X1718Y2824D02*
X1725Y2824D01*
X1026Y2823D02*
X1033Y2823D01*
X1718Y2823D02*
X1725Y2823D01*
X1026Y2822D02*
X1033Y2822D01*
X1718Y2822D02*
X1725Y2822D01*
X1026Y2821D02*
X1033Y2821D01*
X1718Y2821D02*
X1725Y2821D01*
X1026Y2820D02*
X1033Y2820D01*
X1718Y2820D02*
X1725Y2820D01*
X1026Y2819D02*
X1033Y2819D01*
X1718Y2819D02*
X1725Y2819D01*
X1026Y2818D02*
X1033Y2818D01*
X1718Y2818D02*
X1725Y2818D01*
X1026Y2817D02*
X1033Y2817D01*
X1718Y2817D02*
X1725Y2817D01*
X1026Y2816D02*
X1033Y2816D01*
X1718Y2816D02*
X1725Y2816D01*
X1026Y2815D02*
X1033Y2815D01*
X1718Y2815D02*
X1725Y2815D01*
X1026Y2814D02*
X1033Y2814D01*
X1718Y2814D02*
X1725Y2814D01*
X1026Y2813D02*
X1033Y2813D01*
X1718Y2813D02*
X1725Y2813D01*
X1026Y2812D02*
X1033Y2812D01*
X1718Y2812D02*
X1725Y2812D01*
X1026Y2811D02*
X1033Y2811D01*
X1718Y2811D02*
X1725Y2811D01*
X1026Y2810D02*
X1033Y2810D01*
X1718Y2810D02*
X1725Y2810D01*
X1026Y2809D02*
X1033Y2809D01*
X1718Y2809D02*
X1725Y2809D01*
X1026Y2808D02*
X1033Y2808D01*
X1718Y2808D02*
X1725Y2808D01*
X1026Y2807D02*
X1033Y2807D01*
X1718Y2807D02*
X1725Y2807D01*
X1026Y2806D02*
X1033Y2806D01*
X1718Y2806D02*
X1725Y2806D01*
X1026Y2805D02*
X1033Y2805D01*
X1718Y2805D02*
X1725Y2805D01*
X1026Y2804D02*
X1033Y2804D01*
X1718Y2804D02*
X1725Y2804D01*
X1026Y2803D02*
X1033Y2803D01*
X1718Y2803D02*
X1725Y2803D01*
X1026Y2802D02*
X1033Y2802D01*
X1718Y2802D02*
X1725Y2802D01*
X1026Y2801D02*
X1033Y2801D01*
X1718Y2801D02*
X1725Y2801D01*
X1026Y2800D02*
X1033Y2800D01*
X1718Y2800D02*
X1725Y2800D01*
X1026Y2799D02*
X1033Y2799D01*
X1718Y2799D02*
X1725Y2799D01*
X1026Y2798D02*
X1033Y2798D01*
X1718Y2798D02*
X1725Y2798D01*
X1026Y2797D02*
X1033Y2797D01*
X1718Y2797D02*
X1725Y2797D01*
X1026Y2796D02*
X1033Y2796D01*
X1718Y2796D02*
X1725Y2796D01*
X1026Y2795D02*
X1033Y2795D01*
X1718Y2795D02*
X1725Y2795D01*
X1026Y2794D02*
X1033Y2794D01*
X1718Y2794D02*
X1725Y2794D01*
X1026Y2793D02*
X1033Y2793D01*
X1718Y2793D02*
X1725Y2793D01*
X1026Y2792D02*
X1033Y2792D01*
X1718Y2792D02*
X1725Y2792D01*
X1026Y2791D02*
X1033Y2791D01*
X1718Y2791D02*
X1725Y2791D01*
X1026Y2790D02*
X1033Y2790D01*
X1718Y2790D02*
X1725Y2790D01*
X1026Y2789D02*
X1033Y2789D01*
X1718Y2789D02*
X1725Y2789D01*
X1026Y2788D02*
X1033Y2788D01*
X1718Y2788D02*
X1725Y2788D01*
X1026Y2787D02*
X1033Y2787D01*
X1718Y2787D02*
X1725Y2787D01*
X1026Y2786D02*
X1033Y2786D01*
X1718Y2786D02*
X1725Y2786D01*
X1026Y2785D02*
X1033Y2785D01*
X1718Y2785D02*
X1725Y2785D01*
X1026Y2784D02*
X1033Y2784D01*
X1718Y2784D02*
X1725Y2784D01*
X1026Y2783D02*
X1033Y2783D01*
X1718Y2783D02*
X1725Y2783D01*
X1026Y2782D02*
X1033Y2782D01*
X1718Y2782D02*
X1725Y2782D01*
X1026Y2781D02*
X1033Y2781D01*
X1718Y2781D02*
X1725Y2781D01*
X1026Y2780D02*
X1033Y2780D01*
X1718Y2780D02*
X1725Y2780D01*
X1026Y2779D02*
X1033Y2779D01*
X1718Y2779D02*
X1725Y2779D01*
X1026Y2778D02*
X1033Y2778D01*
X1718Y2778D02*
X1725Y2778D01*
X1026Y2777D02*
X1033Y2777D01*
X1718Y2777D02*
X1725Y2777D01*
X1026Y2776D02*
X1033Y2776D01*
X1718Y2776D02*
X1725Y2776D01*
X1026Y2775D02*
X1033Y2775D01*
X1718Y2775D02*
X1725Y2775D01*
X1026Y2774D02*
X1033Y2774D01*
X1718Y2774D02*
X1725Y2774D01*
X1026Y2773D02*
X1033Y2773D01*
X1718Y2773D02*
X1725Y2773D01*
X1026Y2772D02*
X1033Y2772D01*
X1718Y2772D02*
X1725Y2772D01*
X1026Y2771D02*
X1033Y2771D01*
X1718Y2771D02*
X1725Y2771D01*
X1026Y2770D02*
X1033Y2770D01*
X1718Y2770D02*
X1725Y2770D01*
X1026Y2769D02*
X1033Y2769D01*
X1718Y2769D02*
X1725Y2769D01*
X1026Y2768D02*
X1033Y2768D01*
X1718Y2768D02*
X1725Y2768D01*
X1026Y2767D02*
X1033Y2767D01*
X1718Y2767D02*
X1725Y2767D01*
X1026Y2766D02*
X1033Y2766D01*
X1718Y2766D02*
X1725Y2766D01*
X1026Y2765D02*
X1033Y2765D01*
X1718Y2765D02*
X1725Y2765D01*
X1026Y2764D02*
X1033Y2764D01*
X1718Y2764D02*
X1725Y2764D01*
X1026Y2763D02*
X1033Y2763D01*
X1718Y2763D02*
X1725Y2763D01*
X1026Y2762D02*
X1033Y2762D01*
X1718Y2762D02*
X1725Y2762D01*
X1026Y2761D02*
X1033Y2761D01*
X1718Y2761D02*
X1725Y2761D01*
X1026Y2760D02*
X1033Y2760D01*
X1718Y2760D02*
X1725Y2760D01*
X1026Y2759D02*
X1033Y2759D01*
X1718Y2759D02*
X1725Y2759D01*
X1026Y2758D02*
X1033Y2758D01*
X1718Y2758D02*
X1725Y2758D01*
X1026Y2757D02*
X1033Y2757D01*
X1718Y2757D02*
X1725Y2757D01*
X1026Y2756D02*
X1033Y2756D01*
X1718Y2756D02*
X1725Y2756D01*
X1026Y2755D02*
X1033Y2755D01*
X1718Y2755D02*
X1725Y2755D01*
X1026Y2754D02*
X1033Y2754D01*
X1718Y2754D02*
X1725Y2754D01*
X1026Y2753D02*
X1033Y2753D01*
X1718Y2753D02*
X1725Y2753D01*
X1026Y2752D02*
X1033Y2752D01*
X1718Y2752D02*
X1725Y2752D01*
X1026Y2751D02*
X1033Y2751D01*
X1718Y2751D02*
X1725Y2751D01*
X1026Y2750D02*
X1033Y2750D01*
X1718Y2750D02*
X1725Y2750D01*
X1026Y2749D02*
X1033Y2749D01*
X1718Y2749D02*
X1725Y2749D01*
X1026Y2748D02*
X1033Y2748D01*
X1718Y2748D02*
X1725Y2748D01*
X1026Y2747D02*
X1033Y2747D01*
X1718Y2747D02*
X1725Y2747D01*
X1026Y2746D02*
X1033Y2746D01*
X1718Y2746D02*
X1725Y2746D01*
X1026Y2745D02*
X1033Y2745D01*
X1718Y2745D02*
X1725Y2745D01*
X1026Y2744D02*
X1033Y2744D01*
X1718Y2744D02*
X1725Y2744D01*
X1026Y2743D02*
X1033Y2743D01*
X1718Y2743D02*
X1725Y2743D01*
X1026Y2742D02*
X1033Y2742D01*
X1718Y2742D02*
X1725Y2742D01*
X1026Y2741D02*
X1033Y2741D01*
X1718Y2741D02*
X1725Y2741D01*
X1026Y2740D02*
X1033Y2740D01*
X1718Y2740D02*
X1725Y2740D01*
X1026Y2739D02*
X1033Y2739D01*
X1718Y2739D02*
X1725Y2739D01*
X1026Y2738D02*
X1033Y2738D01*
X1718Y2738D02*
X1725Y2738D01*
X1026Y2737D02*
X1033Y2737D01*
X1718Y2737D02*
X1725Y2737D01*
X1026Y2736D02*
X1033Y2736D01*
X1718Y2736D02*
X1725Y2736D01*
X1026Y2735D02*
X1033Y2735D01*
X1718Y2735D02*
X1725Y2735D01*
X1026Y2734D02*
X1033Y2734D01*
X1718Y2734D02*
X1725Y2734D01*
X1026Y2733D02*
X1033Y2733D01*
X1718Y2733D02*
X1725Y2733D01*
X1026Y2732D02*
X1033Y2732D01*
X1718Y2732D02*
X1725Y2732D01*
X1026Y2731D02*
X1033Y2731D01*
X1718Y2731D02*
X1725Y2731D01*
X1026Y2730D02*
X1033Y2730D01*
X1718Y2730D02*
X1725Y2730D01*
X1026Y2729D02*
X1033Y2729D01*
X1718Y2729D02*
X1725Y2729D01*
X1026Y2728D02*
X1033Y2728D01*
X1718Y2728D02*
X1725Y2728D01*
X1026Y2727D02*
X1033Y2727D01*
X1718Y2727D02*
X1725Y2727D01*
X1026Y2726D02*
X1033Y2726D01*
X1718Y2726D02*
X1725Y2726D01*
X1026Y2725D02*
X1033Y2725D01*
X1718Y2725D02*
X1725Y2725D01*
X1026Y2724D02*
X1033Y2724D01*
X1718Y2724D02*
X1725Y2724D01*
X1026Y2723D02*
X1033Y2723D01*
X1718Y2723D02*
X1725Y2723D01*
X1026Y2722D02*
X1033Y2722D01*
X1718Y2722D02*
X1725Y2722D01*
X1026Y2721D02*
X1033Y2721D01*
X1718Y2721D02*
X1725Y2721D01*
X1026Y2720D02*
X1033Y2720D01*
X1718Y2720D02*
X1725Y2720D01*
X1026Y2719D02*
X1033Y2719D01*
X1718Y2719D02*
X1725Y2719D01*
X1026Y2718D02*
X1033Y2718D01*
X1718Y2718D02*
X1725Y2718D01*
X1026Y2717D02*
X1033Y2717D01*
X1718Y2717D02*
X1725Y2717D01*
X1026Y2716D02*
X1033Y2716D01*
X1718Y2716D02*
X1725Y2716D01*
X1026Y2715D02*
X1033Y2715D01*
X1718Y2715D02*
X1725Y2715D01*
X1026Y2714D02*
X1033Y2714D01*
X1718Y2714D02*
X1725Y2714D01*
X1026Y2713D02*
X1033Y2713D01*
X1718Y2713D02*
X1725Y2713D01*
X1026Y2712D02*
X1033Y2712D01*
X1718Y2712D02*
X1725Y2712D01*
X1026Y2711D02*
X1033Y2711D01*
X1718Y2711D02*
X1725Y2711D01*
X1026Y2710D02*
X1033Y2710D01*
X1718Y2710D02*
X1725Y2710D01*
X1026Y2709D02*
X1033Y2709D01*
X1718Y2709D02*
X1725Y2709D01*
X1026Y2708D02*
X1033Y2708D01*
X1718Y2708D02*
X1725Y2708D01*
X1026Y2707D02*
X1033Y2707D01*
X1718Y2707D02*
X1725Y2707D01*
X1026Y2706D02*
X1033Y2706D01*
X1718Y2706D02*
X1725Y2706D01*
X1026Y2705D02*
X1033Y2705D01*
X1718Y2705D02*
X1725Y2705D01*
X1026Y2704D02*
X1033Y2704D01*
X1718Y2704D02*
X1725Y2704D01*
X1026Y2703D02*
X1033Y2703D01*
X1718Y2703D02*
X1725Y2703D01*
X1026Y2702D02*
X1033Y2702D01*
X1718Y2702D02*
X1725Y2702D01*
X1026Y2701D02*
X1033Y2701D01*
X1718Y2701D02*
X1725Y2701D01*
X1026Y2700D02*
X1033Y2700D01*
X1718Y2700D02*
X1725Y2700D01*
X1026Y2699D02*
X1033Y2699D01*
X1718Y2699D02*
X1725Y2699D01*
X1026Y2698D02*
X1033Y2698D01*
X1718Y2698D02*
X1725Y2698D01*
X1026Y2697D02*
X1033Y2697D01*
X1718Y2697D02*
X1725Y2697D01*
X1026Y2696D02*
X1033Y2696D01*
X1718Y2696D02*
X1725Y2696D01*
X1026Y2695D02*
X1033Y2695D01*
X1718Y2695D02*
X1725Y2695D01*
X1026Y2694D02*
X1033Y2694D01*
X1718Y2694D02*
X1725Y2694D01*
X1026Y2693D02*
X1033Y2693D01*
X1718Y2693D02*
X1725Y2693D01*
X1026Y2692D02*
X1033Y2692D01*
X1718Y2692D02*
X1725Y2692D01*
X1026Y2691D02*
X1033Y2691D01*
X1718Y2691D02*
X1725Y2691D01*
X1026Y2690D02*
X1033Y2690D01*
X1718Y2690D02*
X1725Y2690D01*
X1026Y2689D02*
X1033Y2689D01*
X1718Y2689D02*
X1725Y2689D01*
X1026Y2688D02*
X1033Y2688D01*
X1718Y2688D02*
X1725Y2688D01*
X1026Y2687D02*
X1033Y2687D01*
X1718Y2687D02*
X1725Y2687D01*
X1026Y2686D02*
X1033Y2686D01*
X1718Y2686D02*
X1725Y2686D01*
X1026Y2685D02*
X1033Y2685D01*
X1718Y2685D02*
X1725Y2685D01*
X1026Y2684D02*
X1033Y2684D01*
X1718Y2684D02*
X1725Y2684D01*
X1026Y2683D02*
X1033Y2683D01*
X1718Y2683D02*
X1725Y2683D01*
X1026Y2682D02*
X1033Y2682D01*
X1718Y2682D02*
X1725Y2682D01*
X1026Y2681D02*
X1033Y2681D01*
X1718Y2681D02*
X1725Y2681D01*
X1026Y2680D02*
X1033Y2680D01*
X1718Y2680D02*
X1725Y2680D01*
X1026Y2679D02*
X1033Y2679D01*
X1718Y2679D02*
X1725Y2679D01*
X1026Y2678D02*
X1033Y2678D01*
X1718Y2678D02*
X1725Y2678D01*
X1026Y2677D02*
X1033Y2677D01*
X1718Y2677D02*
X1725Y2677D01*
X1026Y2676D02*
X1033Y2676D01*
X1718Y2676D02*
X1725Y2676D01*
X1026Y2675D02*
X1033Y2675D01*
X1718Y2675D02*
X1725Y2675D01*
X1026Y2674D02*
X1033Y2674D01*
X1718Y2674D02*
X1725Y2674D01*
X1026Y2673D02*
X1033Y2673D01*
X1718Y2673D02*
X1725Y2673D01*
X1026Y2672D02*
X1033Y2672D01*
X1718Y2672D02*
X1725Y2672D01*
X1026Y2671D02*
X1033Y2671D01*
X1718Y2671D02*
X1725Y2671D01*
X1026Y2670D02*
X1033Y2670D01*
X1718Y2670D02*
X1725Y2670D01*
X1026Y2669D02*
X1033Y2669D01*
X1718Y2669D02*
X1725Y2669D01*
X1026Y2668D02*
X1033Y2668D01*
X1718Y2668D02*
X1725Y2668D01*
X1026Y2667D02*
X1033Y2667D01*
X1718Y2667D02*
X1725Y2667D01*
X1026Y2666D02*
X1033Y2666D01*
X1718Y2666D02*
X1725Y2666D01*
X1026Y2665D02*
X1033Y2665D01*
X1718Y2665D02*
X1725Y2665D01*
X1026Y2664D02*
X1033Y2664D01*
X1718Y2664D02*
X1725Y2664D01*
X1026Y2663D02*
X1033Y2663D01*
X1718Y2663D02*
X1725Y2663D01*
X1026Y2662D02*
X1033Y2662D01*
X1718Y2662D02*
X1725Y2662D01*
X1026Y2661D02*
X1033Y2661D01*
X1718Y2661D02*
X1725Y2661D01*
X1026Y2660D02*
X1033Y2660D01*
X1718Y2660D02*
X1725Y2660D01*
X1026Y2659D02*
X1033Y2659D01*
X1718Y2659D02*
X1725Y2659D01*
X1026Y2658D02*
X1033Y2658D01*
X1718Y2658D02*
X1725Y2658D01*
X1026Y2657D02*
X1033Y2657D01*
X1718Y2657D02*
X1725Y2657D01*
X1026Y2656D02*
X1033Y2656D01*
X1718Y2656D02*
X1725Y2656D01*
X1026Y2655D02*
X1033Y2655D01*
X1718Y2655D02*
X1725Y2655D01*
X1026Y2654D02*
X1033Y2654D01*
X1718Y2654D02*
X1725Y2654D01*
X1026Y2653D02*
X1033Y2653D01*
X1718Y2653D02*
X1725Y2653D01*
X1026Y2652D02*
X1033Y2652D01*
X1718Y2652D02*
X1725Y2652D01*
X1026Y2651D02*
X1033Y2651D01*
X1718Y2651D02*
X1725Y2651D01*
X1026Y2650D02*
X1033Y2650D01*
X1718Y2650D02*
X1725Y2650D01*
X1026Y2649D02*
X1033Y2649D01*
X1718Y2649D02*
X1725Y2649D01*
X1026Y2648D02*
X1033Y2648D01*
X1718Y2648D02*
X1725Y2648D01*
X1026Y2647D02*
X1033Y2647D01*
X1718Y2647D02*
X1725Y2647D01*
X1026Y2646D02*
X1033Y2646D01*
X1718Y2646D02*
X1725Y2646D01*
X1026Y2645D02*
X1033Y2645D01*
X1718Y2645D02*
X1725Y2645D01*
X1026Y2644D02*
X1033Y2644D01*
X1718Y2644D02*
X1725Y2644D01*
X1026Y2643D02*
X1033Y2643D01*
X1718Y2643D02*
X1725Y2643D01*
X1026Y2642D02*
X1033Y2642D01*
X1718Y2642D02*
X1725Y2642D01*
X1026Y2641D02*
X1033Y2641D01*
X1718Y2641D02*
X1725Y2641D01*
X1026Y2640D02*
X1033Y2640D01*
X1718Y2640D02*
X1725Y2640D01*
X1026Y2639D02*
X1033Y2639D01*
X1718Y2639D02*
X1725Y2639D01*
X1026Y2638D02*
X1033Y2638D01*
X1718Y2638D02*
X1725Y2638D01*
X1026Y2637D02*
X1033Y2637D01*
X1718Y2637D02*
X1725Y2637D01*
X1026Y2636D02*
X1033Y2636D01*
X1718Y2636D02*
X1725Y2636D01*
X1026Y2635D02*
X1033Y2635D01*
X1718Y2635D02*
X1725Y2635D01*
X1026Y2634D02*
X1033Y2634D01*
X1718Y2634D02*
X1725Y2634D01*
X1026Y2633D02*
X1033Y2633D01*
X1718Y2633D02*
X1725Y2633D01*
X1026Y2632D02*
X1033Y2632D01*
X1718Y2632D02*
X1725Y2632D01*
X1026Y2631D02*
X1033Y2631D01*
X1718Y2631D02*
X1725Y2631D01*
X1026Y2630D02*
X1033Y2630D01*
X1718Y2630D02*
X1725Y2630D01*
X1026Y2629D02*
X1033Y2629D01*
X1718Y2629D02*
X1725Y2629D01*
X1026Y2628D02*
X1033Y2628D01*
X1718Y2628D02*
X1725Y2628D01*
X1026Y2627D02*
X1033Y2627D01*
X1718Y2627D02*
X1725Y2627D01*
X1026Y2626D02*
X1033Y2626D01*
X1718Y2626D02*
X1725Y2626D01*
X1026Y2625D02*
X1033Y2625D01*
X1718Y2625D02*
X1725Y2625D01*
X1026Y2624D02*
X1033Y2624D01*
X1718Y2624D02*
X1725Y2624D01*
X1026Y2623D02*
X1033Y2623D01*
X1718Y2623D02*
X1725Y2623D01*
X1026Y2622D02*
X1033Y2622D01*
X1718Y2622D02*
X1725Y2622D01*
X1026Y2621D02*
X1033Y2621D01*
X1718Y2621D02*
X1725Y2621D01*
X1026Y2620D02*
X1033Y2620D01*
X1718Y2620D02*
X1725Y2620D01*
X1026Y2619D02*
X1033Y2619D01*
X1718Y2619D02*
X1725Y2619D01*
X1026Y2618D02*
X1033Y2618D01*
X1718Y2618D02*
X1725Y2618D01*
X1026Y2617D02*
X1033Y2617D01*
X1718Y2617D02*
X1725Y2617D01*
X1026Y2616D02*
X1033Y2616D01*
X1718Y2616D02*
X1725Y2616D01*
X1026Y2615D02*
X1033Y2615D01*
X1718Y2615D02*
X1725Y2615D01*
X1026Y2614D02*
X1033Y2614D01*
X1718Y2614D02*
X1725Y2614D01*
X1026Y2613D02*
X1033Y2613D01*
X1718Y2613D02*
X1725Y2613D01*
X1026Y2612D02*
X1033Y2612D01*
X1718Y2612D02*
X1725Y2612D01*
X1026Y2611D02*
X1033Y2611D01*
X1718Y2611D02*
X1725Y2611D01*
X1026Y2610D02*
X1033Y2610D01*
X1718Y2610D02*
X1725Y2610D01*
X1026Y2609D02*
X1033Y2609D01*
X1718Y2609D02*
X1725Y2609D01*
X1026Y2608D02*
X1033Y2608D01*
X1718Y2608D02*
X1725Y2608D01*
X1026Y2607D02*
X1033Y2607D01*
X1718Y2607D02*
X1725Y2607D01*
X1026Y2606D02*
X1033Y2606D01*
X1718Y2606D02*
X1725Y2606D01*
X1026Y2605D02*
X1033Y2605D01*
X1718Y2605D02*
X1725Y2605D01*
X1026Y2604D02*
X1033Y2604D01*
X1718Y2604D02*
X1725Y2604D01*
X1026Y2603D02*
X1033Y2603D01*
X1718Y2603D02*
X1725Y2603D01*
X1026Y2602D02*
X1033Y2602D01*
X1718Y2602D02*
X1725Y2602D01*
X499Y2601D02*
X499Y2601D01*
X1026Y2601D02*
X1033Y2601D01*
X1718Y2601D02*
X1725Y2601D01*
X498Y2600D02*
X499Y2600D01*
X1026Y2600D02*
X1033Y2600D01*
X1718Y2600D02*
X1725Y2600D01*
X497Y2599D02*
X499Y2599D01*
X1026Y2599D02*
X1033Y2599D01*
X1718Y2599D02*
X1725Y2599D01*
X496Y2598D02*
X499Y2598D01*
X1026Y2598D02*
X1033Y2598D01*
X1718Y2598D02*
X1725Y2598D01*
X494Y2597D02*
X499Y2597D01*
X1026Y2597D02*
X1033Y2597D01*
X1718Y2597D02*
X1725Y2597D01*
X493Y2596D02*
X499Y2596D01*
X1026Y2596D02*
X1033Y2596D01*
X1718Y2596D02*
X1725Y2596D01*
X493Y2595D02*
X499Y2595D01*
X1026Y2595D02*
X1033Y2595D01*
X1718Y2595D02*
X1725Y2595D01*
X446Y2594D02*
X446Y2594D01*
X493Y2594D02*
X499Y2594D01*
X1026Y2594D02*
X1033Y2594D01*
X1718Y2594D02*
X1725Y2594D01*
X446Y2593D02*
X447Y2593D01*
X493Y2593D02*
X499Y2593D01*
X1026Y2593D02*
X1033Y2593D01*
X1718Y2593D02*
X1725Y2593D01*
X446Y2592D02*
X449Y2592D01*
X493Y2592D02*
X499Y2592D01*
X1026Y2592D02*
X1033Y2592D01*
X1718Y2592D02*
X1725Y2592D01*
X446Y2591D02*
X452Y2591D01*
X493Y2591D02*
X499Y2591D01*
X1026Y2591D02*
X1033Y2591D01*
X1718Y2591D02*
X1725Y2591D01*
X446Y2590D02*
X452Y2590D01*
X493Y2590D02*
X499Y2590D01*
X1026Y2590D02*
X1033Y2590D01*
X1718Y2590D02*
X1725Y2590D01*
X446Y2589D02*
X451Y2589D01*
X494Y2589D02*
X498Y2589D01*
X1026Y2589D02*
X1033Y2589D01*
X1718Y2589D02*
X1725Y2589D01*
X448Y2588D02*
X450Y2588D01*
X495Y2588D02*
X497Y2588D01*
X1026Y2588D02*
X1033Y2588D01*
X1718Y2588D02*
X1725Y2588D01*
X1026Y2587D02*
X1033Y2587D01*
X1718Y2587D02*
X1725Y2587D01*
X1026Y2586D02*
X1033Y2586D01*
X1718Y2586D02*
X1725Y2586D01*
X1026Y2585D02*
X1033Y2585D01*
X1718Y2585D02*
X1725Y2585D01*
X1026Y2584D02*
X1033Y2584D01*
X1718Y2584D02*
X1725Y2584D01*
X1026Y2583D02*
X1033Y2583D01*
X1718Y2583D02*
X1725Y2583D01*
X1026Y2582D02*
X1033Y2582D01*
X1718Y2582D02*
X1725Y2582D01*
X1026Y2581D02*
X1033Y2581D01*
X1718Y2581D02*
X1725Y2581D01*
X1026Y2580D02*
X1033Y2580D01*
X1718Y2580D02*
X1725Y2580D01*
X1026Y2579D02*
X1033Y2579D01*
X1718Y2579D02*
X1725Y2579D01*
X1026Y2578D02*
X1033Y2578D01*
X1718Y2578D02*
X1725Y2578D01*
X1026Y2577D02*
X1033Y2577D01*
X1718Y2577D02*
X1725Y2577D01*
X1026Y2576D02*
X1033Y2576D01*
X1718Y2576D02*
X1725Y2576D01*
X1026Y2575D02*
X1033Y2575D01*
X1718Y2575D02*
X1725Y2575D01*
X1026Y2574D02*
X1033Y2574D01*
X1718Y2574D02*
X1725Y2574D01*
X1026Y2573D02*
X1033Y2573D01*
X1718Y2573D02*
X1725Y2573D01*
X490Y2572D02*
X491Y2572D01*
X1026Y2572D02*
X1033Y2572D01*
X1718Y2572D02*
X1725Y2572D01*
X488Y2571D02*
X493Y2571D01*
X1026Y2571D02*
X1033Y2571D01*
X1718Y2571D02*
X1725Y2571D01*
X487Y2570D02*
X495Y2570D01*
X1026Y2570D02*
X1033Y2570D01*
X1718Y2570D02*
X1725Y2570D01*
X487Y2569D02*
X496Y2569D01*
X1026Y2569D02*
X1033Y2569D01*
X1718Y2569D02*
X1725Y2569D01*
X487Y2568D02*
X497Y2568D01*
X1026Y2568D02*
X1033Y2568D01*
X1718Y2568D02*
X1725Y2568D01*
X488Y2567D02*
X497Y2567D01*
X1026Y2567D02*
X1033Y2567D01*
X1718Y2567D02*
X1725Y2567D01*
X490Y2566D02*
X498Y2566D01*
X1026Y2566D02*
X1033Y2566D01*
X1718Y2566D02*
X1725Y2566D01*
X491Y2565D02*
X498Y2565D01*
X1026Y2565D02*
X1033Y2565D01*
X1718Y2565D02*
X1725Y2565D01*
X493Y2564D02*
X499Y2564D01*
X1026Y2564D02*
X1033Y2564D01*
X1718Y2564D02*
X1725Y2564D01*
X494Y2563D02*
X499Y2563D01*
X1026Y2563D02*
X1033Y2563D01*
X1718Y2563D02*
X1725Y2563D01*
X495Y2562D02*
X499Y2562D01*
X1026Y2562D02*
X1033Y2562D01*
X1718Y2562D02*
X1725Y2562D01*
X496Y2561D02*
X499Y2561D01*
X1026Y2561D02*
X1033Y2561D01*
X1718Y2561D02*
X1725Y2561D01*
X498Y2560D02*
X499Y2560D01*
X1026Y2560D02*
X1033Y2560D01*
X1718Y2560D02*
X1725Y2560D01*
X499Y2559D02*
X499Y2559D01*
X1026Y2559D02*
X1033Y2559D01*
X1718Y2559D02*
X1725Y2559D01*
X499Y2558D02*
X499Y2558D01*
X1026Y2558D02*
X1033Y2558D01*
X1718Y2558D02*
X1725Y2558D01*
X1026Y2557D02*
X1033Y2557D01*
X1718Y2557D02*
X1725Y2557D01*
X1026Y2556D02*
X1033Y2556D01*
X1718Y2556D02*
X1725Y2556D01*
X1026Y2555D02*
X1033Y2555D01*
X1718Y2555D02*
X1725Y2555D01*
X1026Y2554D02*
X1033Y2554D01*
X1718Y2554D02*
X1725Y2554D01*
X1026Y2553D02*
X1033Y2553D01*
X1718Y2553D02*
X1725Y2553D01*
X1026Y2552D02*
X1033Y2552D01*
X1718Y2552D02*
X1725Y2552D01*
X1026Y2551D02*
X1033Y2551D01*
X1718Y2551D02*
X1725Y2551D01*
X1026Y2550D02*
X1033Y2550D01*
X1718Y2550D02*
X1725Y2550D01*
X1026Y2549D02*
X1033Y2549D01*
X1718Y2549D02*
X1725Y2549D01*
X1026Y2548D02*
X1033Y2548D01*
X1718Y2548D02*
X1725Y2548D01*
X1026Y2547D02*
X1033Y2547D01*
X1718Y2547D02*
X1725Y2547D01*
X1026Y2546D02*
X1033Y2546D01*
X1718Y2546D02*
X1725Y2546D01*
X1026Y2545D02*
X1033Y2545D01*
X1718Y2545D02*
X1725Y2545D01*
X1026Y2544D02*
X1033Y2544D01*
X1718Y2544D02*
X1725Y2544D01*
X1026Y2543D02*
X1033Y2543D01*
X1718Y2543D02*
X1725Y2543D01*
X1026Y2542D02*
X1033Y2542D01*
X1718Y2542D02*
X1725Y2542D01*
X1026Y2541D02*
X1033Y2541D01*
X1718Y2541D02*
X1725Y2541D01*
X1026Y2540D02*
X1033Y2540D01*
X1718Y2540D02*
X1725Y2540D01*
X1026Y2539D02*
X1033Y2539D01*
X1718Y2539D02*
X1725Y2539D01*
X1026Y2538D02*
X1033Y2538D01*
X1718Y2538D02*
X1725Y2538D01*
X1026Y2537D02*
X1033Y2537D01*
X1718Y2537D02*
X1725Y2537D01*
X1026Y2536D02*
X1033Y2536D01*
X1718Y2536D02*
X1725Y2536D01*
X1026Y2535D02*
X1033Y2535D01*
X1718Y2535D02*
X1725Y2535D01*
X1026Y2534D02*
X1033Y2534D01*
X1718Y2534D02*
X1725Y2534D01*
X1026Y2533D02*
X1033Y2533D01*
X1718Y2533D02*
X1725Y2533D01*
X1026Y2532D02*
X1033Y2532D01*
X1718Y2532D02*
X1725Y2532D01*
X1026Y2531D02*
X1033Y2531D01*
X1718Y2531D02*
X1725Y2531D01*
X1026Y2530D02*
X1033Y2530D01*
X1718Y2530D02*
X1725Y2530D01*
X1026Y2529D02*
X1033Y2529D01*
X1718Y2529D02*
X1725Y2529D01*
X1026Y2528D02*
X1033Y2528D01*
X1718Y2528D02*
X1725Y2528D01*
X1026Y2527D02*
X1033Y2527D01*
X1718Y2527D02*
X1725Y2527D01*
X1026Y2526D02*
X1033Y2526D01*
X1718Y2526D02*
X1725Y2526D01*
X1026Y2525D02*
X1033Y2525D01*
X1718Y2525D02*
X1725Y2525D01*
X1026Y2524D02*
X1033Y2524D01*
X1718Y2524D02*
X1725Y2524D01*
X1026Y2523D02*
X1033Y2523D01*
X1718Y2523D02*
X1725Y2523D01*
X1026Y2522D02*
X1033Y2522D01*
X1718Y2522D02*
X1725Y2522D01*
X1026Y2521D02*
X1033Y2521D01*
X1718Y2521D02*
X1725Y2521D01*
X1026Y2520D02*
X1033Y2520D01*
X1718Y2520D02*
X1725Y2520D01*
X1026Y2519D02*
X1033Y2519D01*
X1718Y2519D02*
X1725Y2519D01*
X1026Y2518D02*
X1033Y2518D01*
X1718Y2518D02*
X1725Y2518D01*
X1026Y2517D02*
X1033Y2517D01*
X1718Y2517D02*
X1725Y2517D01*
X1026Y2516D02*
X1033Y2516D01*
X1718Y2516D02*
X1725Y2516D01*
X1026Y2515D02*
X1033Y2515D01*
X1718Y2515D02*
X1725Y2515D01*
X1026Y2514D02*
X1033Y2514D01*
X1718Y2514D02*
X1725Y2514D01*
X1026Y2513D02*
X1033Y2513D01*
X1718Y2513D02*
X1725Y2513D01*
X1026Y2512D02*
X1033Y2512D01*
X1718Y2512D02*
X1725Y2512D01*
X1026Y2511D02*
X1033Y2511D01*
X1718Y2511D02*
X1725Y2511D01*
X1026Y2510D02*
X1033Y2510D01*
X1718Y2510D02*
X1725Y2510D01*
X1026Y2509D02*
X1033Y2509D01*
X1718Y2509D02*
X1725Y2509D01*
X1026Y2508D02*
X1033Y2508D01*
X1718Y2508D02*
X1725Y2508D01*
X1026Y2507D02*
X1033Y2507D01*
X1718Y2507D02*
X1725Y2507D01*
X1026Y2506D02*
X1033Y2506D01*
X1718Y2506D02*
X1725Y2506D01*
X1026Y2505D02*
X1033Y2505D01*
X1718Y2505D02*
X1725Y2505D01*
X1026Y2504D02*
X1033Y2504D01*
X1718Y2504D02*
X1725Y2504D01*
X1026Y2503D02*
X1033Y2503D01*
X1718Y2503D02*
X1725Y2503D01*
X1026Y2502D02*
X1033Y2502D01*
X1718Y2502D02*
X1725Y2502D01*
X1026Y2501D02*
X1033Y2501D01*
X1718Y2501D02*
X1725Y2501D01*
X1026Y2500D02*
X1033Y2500D01*
X1718Y2500D02*
X1725Y2500D01*
X1026Y2499D02*
X1033Y2499D01*
X1718Y2499D02*
X1725Y2499D01*
X1026Y2498D02*
X1033Y2498D01*
X1718Y2498D02*
X1725Y2498D01*
X1026Y2497D02*
X1033Y2497D01*
X1718Y2497D02*
X1725Y2497D01*
X1026Y2496D02*
X1033Y2496D01*
X1718Y2496D02*
X1725Y2496D01*
X1026Y2495D02*
X1033Y2495D01*
X1718Y2495D02*
X1725Y2495D01*
X490Y2494D02*
X497Y2494D01*
X1026Y2494D02*
X1033Y2494D01*
X1718Y2494D02*
X1725Y2494D01*
X488Y2493D02*
X498Y2493D01*
X1026Y2493D02*
X1033Y2493D01*
X1718Y2493D02*
X1725Y2493D01*
X486Y2492D02*
X499Y2492D01*
X1026Y2492D02*
X1033Y2492D01*
X1718Y2492D02*
X1725Y2492D01*
X484Y2491D02*
X499Y2491D01*
X1026Y2491D02*
X1033Y2491D01*
X1718Y2491D02*
X1725Y2491D01*
X481Y2490D02*
X499Y2490D01*
X1026Y2490D02*
X1033Y2490D01*
X1718Y2490D02*
X1725Y2490D01*
X477Y2489D02*
X498Y2489D01*
X1026Y2489D02*
X1033Y2489D01*
X1718Y2489D02*
X1725Y2489D01*
X462Y2488D02*
X466Y2488D01*
X470Y2488D02*
X497Y2488D01*
X1026Y2488D02*
X1033Y2488D01*
X1718Y2488D02*
X1725Y2488D01*
X1026Y2487D02*
X1033Y2487D01*
X1718Y2487D02*
X1725Y2487D01*
X1026Y2486D02*
X1033Y2486D01*
X1718Y2486D02*
X1725Y2486D01*
X1026Y2485D02*
X1033Y2485D01*
X1718Y2485D02*
X1725Y2485D01*
X1026Y2484D02*
X1033Y2484D01*
X1718Y2484D02*
X1725Y2484D01*
X1026Y2483D02*
X1033Y2483D01*
X1718Y2483D02*
X1725Y2483D01*
X1026Y2482D02*
X1033Y2482D01*
X1718Y2482D02*
X1725Y2482D01*
X1026Y2481D02*
X1033Y2481D01*
X1718Y2481D02*
X1725Y2481D01*
X1026Y2480D02*
X1033Y2480D01*
X1718Y2480D02*
X1725Y2480D01*
X1026Y2479D02*
X1033Y2479D01*
X1718Y2479D02*
X1725Y2479D01*
X1026Y2478D02*
X1033Y2478D01*
X1718Y2478D02*
X1725Y2478D01*
X1026Y2477D02*
X1033Y2477D01*
X1718Y2477D02*
X1725Y2477D01*
X1026Y2476D02*
X1033Y2476D01*
X1718Y2476D02*
X1725Y2476D01*
X1026Y2475D02*
X1033Y2475D01*
X1718Y2475D02*
X1725Y2475D01*
X1026Y2474D02*
X1033Y2474D01*
X1718Y2474D02*
X1725Y2474D01*
X1026Y2473D02*
X1033Y2473D01*
X1718Y2473D02*
X1725Y2473D01*
X491Y2472D02*
X496Y2472D01*
X1026Y2472D02*
X1033Y2472D01*
X1718Y2472D02*
X1725Y2472D01*
X477Y2471D02*
X498Y2471D01*
X1026Y2471D02*
X1033Y2471D01*
X1718Y2471D02*
X1725Y2471D01*
X481Y2470D02*
X499Y2470D01*
X1026Y2470D02*
X1033Y2470D01*
X1718Y2470D02*
X1725Y2470D01*
X484Y2469D02*
X499Y2469D01*
X1026Y2469D02*
X1033Y2469D01*
X1718Y2469D02*
X1725Y2469D01*
X486Y2468D02*
X499Y2468D01*
X1026Y2468D02*
X1033Y2468D01*
X1718Y2468D02*
X1725Y2468D01*
X488Y2467D02*
X498Y2467D01*
X1026Y2467D02*
X1033Y2467D01*
X1718Y2467D02*
X1725Y2467D01*
X490Y2466D02*
X498Y2466D01*
X1026Y2466D02*
X1033Y2466D01*
X1718Y2466D02*
X1725Y2466D01*
X491Y2465D02*
X496Y2465D01*
X1026Y2465D02*
X1033Y2465D01*
X1718Y2465D02*
X1725Y2465D01*
X493Y2464D02*
X496Y2464D01*
X1026Y2464D02*
X1033Y2464D01*
X1718Y2464D02*
X1725Y2464D01*
X494Y2463D02*
X497Y2463D01*
X1026Y2463D02*
X1033Y2463D01*
X1718Y2463D02*
X1725Y2463D01*
X495Y2462D02*
X497Y2462D01*
X1026Y2462D02*
X1033Y2462D01*
X1718Y2462D02*
X1725Y2462D01*
X496Y2461D02*
X498Y2461D01*
X1026Y2461D02*
X1033Y2461D01*
X1718Y2461D02*
X1725Y2461D01*
X498Y2460D02*
X498Y2460D01*
X1026Y2460D02*
X1033Y2460D01*
X1718Y2460D02*
X1725Y2460D01*
X499Y2459D02*
X499Y2459D01*
X1026Y2459D02*
X1033Y2459D01*
X1718Y2459D02*
X1725Y2459D01*
X499Y2458D02*
X499Y2458D01*
X1026Y2458D02*
X1033Y2458D01*
X1718Y2458D02*
X1725Y2458D01*
X1026Y2457D02*
X1033Y2457D01*
X1718Y2457D02*
X1725Y2457D01*
X1026Y2456D02*
X1033Y2456D01*
X1718Y2456D02*
X1725Y2456D01*
X1026Y2455D02*
X1033Y2455D01*
X1718Y2455D02*
X1725Y2455D01*
X1026Y2454D02*
X1033Y2454D01*
X1718Y2454D02*
X1725Y2454D01*
X1026Y2453D02*
X1033Y2453D01*
X1718Y2453D02*
X1725Y2453D01*
X1026Y2452D02*
X1033Y2452D01*
X1718Y2452D02*
X1725Y2452D01*
X1026Y2451D02*
X1033Y2451D01*
X1718Y2451D02*
X1725Y2451D01*
X1026Y2450D02*
X1033Y2450D01*
X1718Y2450D02*
X1725Y2450D01*
X1026Y2449D02*
X1033Y2449D01*
X1718Y2449D02*
X1725Y2449D01*
X1026Y2448D02*
X1033Y2448D01*
X1718Y2448D02*
X1725Y2448D01*
X1026Y2447D02*
X1033Y2447D01*
X1718Y2447D02*
X1725Y2447D01*
X1026Y2446D02*
X1033Y2446D01*
X1718Y2446D02*
X1725Y2446D01*
X1026Y2445D02*
X1033Y2445D01*
X1718Y2445D02*
X1725Y2445D01*
X1026Y2444D02*
X1033Y2444D01*
X1718Y2444D02*
X1725Y2444D01*
X1026Y2443D02*
X1033Y2443D01*
X1718Y2443D02*
X1725Y2443D01*
X1026Y2442D02*
X1033Y2442D01*
X1718Y2442D02*
X1725Y2442D01*
X1026Y2441D02*
X1033Y2441D01*
X1718Y2441D02*
X1725Y2441D01*
X1026Y2440D02*
X1033Y2440D01*
X1718Y2440D02*
X1725Y2440D01*
X1026Y2439D02*
X1033Y2439D01*
X1718Y2439D02*
X1725Y2439D01*
X1026Y2438D02*
X1033Y2438D01*
X1718Y2438D02*
X1725Y2438D01*
X1026Y2437D02*
X1033Y2437D01*
X1718Y2437D02*
X1725Y2437D01*
X1026Y2436D02*
X1033Y2436D01*
X1718Y2436D02*
X1725Y2436D01*
X1026Y2435D02*
X1033Y2435D01*
X1718Y2435D02*
X1725Y2435D01*
X1026Y2434D02*
X1033Y2434D01*
X1718Y2434D02*
X1725Y2434D01*
X1026Y2433D02*
X1033Y2433D01*
X1718Y2433D02*
X1725Y2433D01*
X1026Y2432D02*
X1033Y2432D01*
X1718Y2432D02*
X1725Y2432D01*
X1026Y2431D02*
X1033Y2431D01*
X1718Y2431D02*
X1725Y2431D01*
X1026Y2430D02*
X1033Y2430D01*
X1718Y2430D02*
X1725Y2430D01*
X1026Y2429D02*
X1033Y2429D01*
X1718Y2429D02*
X1725Y2429D01*
X1026Y2428D02*
X1033Y2428D01*
X1718Y2428D02*
X1725Y2428D01*
X1026Y2427D02*
X1033Y2427D01*
X1718Y2427D02*
X1725Y2427D01*
X1026Y2426D02*
X1033Y2426D01*
X1718Y2426D02*
X1725Y2426D01*
X1026Y2425D02*
X1033Y2425D01*
X1718Y2425D02*
X1725Y2425D01*
X1026Y2424D02*
X1033Y2424D01*
X1718Y2424D02*
X1725Y2424D01*
X1026Y2423D02*
X1033Y2423D01*
X1718Y2423D02*
X1725Y2423D01*
X1026Y2422D02*
X1033Y2422D01*
X1718Y2422D02*
X1725Y2422D01*
X1026Y2421D02*
X1033Y2421D01*
X1718Y2421D02*
X1725Y2421D01*
X1026Y2420D02*
X1033Y2420D01*
X1718Y2420D02*
X1725Y2420D01*
X1026Y2419D02*
X1033Y2419D01*
X1718Y2419D02*
X1725Y2419D01*
X1026Y2418D02*
X1033Y2418D01*
X1718Y2418D02*
X1725Y2418D01*
X1026Y2417D02*
X1033Y2417D01*
X1718Y2417D02*
X1725Y2417D01*
X1026Y2416D02*
X1033Y2416D01*
X1718Y2416D02*
X1725Y2416D01*
X1026Y2415D02*
X1033Y2415D01*
X1718Y2415D02*
X1725Y2415D01*
X1026Y2414D02*
X1033Y2414D01*
X1718Y2414D02*
X1725Y2414D01*
X1026Y2413D02*
X1033Y2413D01*
X1718Y2413D02*
X1725Y2413D01*
X1026Y2412D02*
X1033Y2412D01*
X1718Y2412D02*
X1725Y2412D01*
X1026Y2411D02*
X1033Y2411D01*
X1718Y2411D02*
X1725Y2411D01*
X1026Y2410D02*
X1033Y2410D01*
X1718Y2410D02*
X1725Y2410D01*
X1026Y2409D02*
X1033Y2409D01*
X1718Y2409D02*
X1725Y2409D01*
X1026Y2408D02*
X1033Y2408D01*
X1718Y2408D02*
X1725Y2408D01*
X1026Y2407D02*
X1033Y2407D01*
X1718Y2407D02*
X1725Y2407D01*
X1026Y2406D02*
X1033Y2406D01*
X1718Y2406D02*
X1725Y2406D01*
X1026Y2405D02*
X1033Y2405D01*
X1718Y2405D02*
X1725Y2405D01*
X1026Y2404D02*
X1033Y2404D01*
X1718Y2404D02*
X1725Y2404D01*
X1026Y2403D02*
X1033Y2403D01*
X1718Y2403D02*
X1725Y2403D01*
X1026Y2402D02*
X1033Y2402D01*
X1718Y2402D02*
X1725Y2402D01*
X1026Y2401D02*
X1033Y2401D01*
X1718Y2401D02*
X1725Y2401D01*
X1026Y2400D02*
X1033Y2400D01*
X1718Y2400D02*
X1725Y2400D01*
X1026Y2399D02*
X1033Y2399D01*
X1718Y2399D02*
X1725Y2399D01*
X1026Y2398D02*
X1033Y2398D01*
X1718Y2398D02*
X1725Y2398D01*
X1026Y2397D02*
X1033Y2397D01*
X1718Y2397D02*
X1725Y2397D01*
X1026Y2396D02*
X1033Y2396D01*
X1718Y2396D02*
X1725Y2396D01*
X1026Y2395D02*
X1033Y2395D01*
X1718Y2395D02*
X1725Y2395D01*
X446Y2394D02*
X446Y2394D01*
X490Y2394D02*
X497Y2394D01*
X1026Y2394D02*
X1033Y2394D01*
X1718Y2394D02*
X1725Y2394D01*
X446Y2393D02*
X447Y2393D01*
X488Y2393D02*
X498Y2393D01*
X1026Y2393D02*
X1033Y2393D01*
X1718Y2393D02*
X1725Y2393D01*
X446Y2392D02*
X449Y2392D01*
X486Y2392D02*
X499Y2392D01*
X1026Y2392D02*
X1033Y2392D01*
X1718Y2392D02*
X1725Y2392D01*
X446Y2391D02*
X452Y2391D01*
X484Y2391D02*
X499Y2391D01*
X1026Y2391D02*
X1033Y2391D01*
X1718Y2391D02*
X1725Y2391D01*
X446Y2390D02*
X454Y2390D01*
X481Y2390D02*
X499Y2390D01*
X1026Y2390D02*
X1033Y2390D01*
X1718Y2390D02*
X1725Y2390D01*
X446Y2389D02*
X458Y2389D01*
X477Y2389D02*
X498Y2389D01*
X1026Y2389D02*
X1033Y2389D01*
X1718Y2389D02*
X1725Y2389D01*
X446Y2388D02*
X466Y2388D01*
X470Y2388D02*
X497Y2388D01*
X1026Y2388D02*
X1033Y2388D01*
X1718Y2388D02*
X1725Y2388D01*
X1026Y2387D02*
X1033Y2387D01*
X1718Y2387D02*
X1725Y2387D01*
X1026Y2386D02*
X1033Y2386D01*
X1718Y2386D02*
X1725Y2386D01*
X1026Y2385D02*
X1033Y2385D01*
X1718Y2385D02*
X1725Y2385D01*
X1026Y2384D02*
X1033Y2384D01*
X1718Y2384D02*
X1725Y2384D01*
X1026Y2383D02*
X1033Y2383D01*
X1718Y2383D02*
X1725Y2383D01*
X1026Y2382D02*
X1033Y2382D01*
X1718Y2382D02*
X1725Y2382D01*
X1026Y2381D02*
X1033Y2381D01*
X1718Y2381D02*
X1725Y2381D01*
X1026Y2380D02*
X1033Y2380D01*
X1718Y2380D02*
X1725Y2380D01*
X1026Y2379D02*
X1033Y2379D01*
X1718Y2379D02*
X1725Y2379D01*
X1026Y2378D02*
X1033Y2378D01*
X1718Y2378D02*
X1725Y2378D01*
X1026Y2377D02*
X1033Y2377D01*
X1718Y2377D02*
X1725Y2377D01*
X1026Y2376D02*
X1033Y2376D01*
X1718Y2376D02*
X1725Y2376D01*
X1026Y2375D02*
X1033Y2375D01*
X1718Y2375D02*
X1725Y2375D01*
X1026Y2374D02*
X1033Y2374D01*
X1718Y2374D02*
X1725Y2374D01*
X1026Y2373D02*
X1033Y2373D01*
X1718Y2373D02*
X1725Y2373D01*
X1026Y2372D02*
X1033Y2372D01*
X1718Y2372D02*
X1725Y2372D01*
X1026Y2371D02*
X1033Y2371D01*
X1718Y2371D02*
X1725Y2371D01*
X1026Y2370D02*
X1033Y2370D01*
X1718Y2370D02*
X1725Y2370D01*
X1026Y2369D02*
X1033Y2369D01*
X1718Y2369D02*
X1725Y2369D01*
X1026Y2368D02*
X1033Y2368D01*
X1718Y2368D02*
X1725Y2368D01*
X1026Y2367D02*
X1033Y2367D01*
X1718Y2367D02*
X1725Y2367D01*
X1026Y2366D02*
X1033Y2366D01*
X1718Y2366D02*
X1725Y2366D01*
X1026Y2365D02*
X1033Y2365D01*
X1718Y2365D02*
X1725Y2365D01*
X1026Y2364D02*
X1033Y2364D01*
X1718Y2364D02*
X1725Y2364D01*
X1026Y2363D02*
X1033Y2363D01*
X1718Y2363D02*
X1725Y2363D01*
X1026Y2362D02*
X1033Y2362D01*
X1718Y2362D02*
X1725Y2362D01*
X1026Y2361D02*
X1033Y2361D01*
X1718Y2361D02*
X1725Y2361D01*
X1026Y2360D02*
X1033Y2360D01*
X1718Y2360D02*
X1725Y2360D01*
X1026Y2359D02*
X1033Y2359D01*
X1718Y2359D02*
X1725Y2359D01*
X1026Y2358D02*
X1033Y2358D01*
X1718Y2358D02*
X1725Y2358D01*
X1026Y2357D02*
X1033Y2357D01*
X1718Y2357D02*
X1725Y2357D01*
X1026Y2356D02*
X1033Y2356D01*
X1718Y2356D02*
X1725Y2356D01*
X1026Y2355D02*
X1033Y2355D01*
X1718Y2355D02*
X1725Y2355D01*
X1026Y2354D02*
X1033Y2354D01*
X1718Y2354D02*
X1725Y2354D01*
X1026Y2353D02*
X1033Y2353D01*
X1718Y2353D02*
X1725Y2353D01*
X1026Y2352D02*
X1033Y2352D01*
X1718Y2352D02*
X1725Y2352D01*
X1026Y2351D02*
X1033Y2351D01*
X1718Y2351D02*
X1725Y2351D01*
X1026Y2350D02*
X1033Y2350D01*
X1718Y2350D02*
X1725Y2350D01*
X1026Y2349D02*
X1033Y2349D01*
X1718Y2349D02*
X1725Y2349D01*
X1026Y2348D02*
X1033Y2348D01*
X1718Y2348D02*
X1725Y2348D01*
X1026Y2347D02*
X1033Y2347D01*
X1718Y2347D02*
X1725Y2347D01*
X1026Y2346D02*
X1033Y2346D01*
X1718Y2346D02*
X1725Y2346D01*
X1026Y2345D02*
X1033Y2345D01*
X1718Y2345D02*
X1725Y2345D01*
X1026Y2344D02*
X1033Y2344D01*
X1718Y2344D02*
X1725Y2344D01*
X1026Y2343D02*
X1033Y2343D01*
X1718Y2343D02*
X1725Y2343D01*
X1026Y2342D02*
X1033Y2342D01*
X1718Y2342D02*
X1725Y2342D01*
X1026Y2341D02*
X1033Y2341D01*
X1718Y2341D02*
X1725Y2341D01*
X1026Y2340D02*
X1033Y2340D01*
X1718Y2340D02*
X1725Y2340D01*
X1026Y2339D02*
X1033Y2339D01*
X1718Y2339D02*
X1725Y2339D01*
X1026Y2338D02*
X1033Y2338D01*
X1718Y2338D02*
X1725Y2338D01*
X1026Y2337D02*
X1033Y2337D01*
X1718Y2337D02*
X1725Y2337D01*
X1026Y2336D02*
X1033Y2336D01*
X1718Y2336D02*
X1725Y2336D01*
X1026Y2335D02*
X1033Y2335D01*
X1718Y2335D02*
X1725Y2335D01*
X1026Y2334D02*
X1033Y2334D01*
X1718Y2334D02*
X1725Y2334D01*
X1026Y2333D02*
X1033Y2333D01*
X1718Y2333D02*
X1725Y2333D01*
X1026Y2332D02*
X1033Y2332D01*
X1718Y2332D02*
X1725Y2332D01*
X1026Y2331D02*
X1033Y2331D01*
X1718Y2331D02*
X1725Y2331D01*
X1026Y2330D02*
X1033Y2330D01*
X1718Y2330D02*
X1725Y2330D01*
X1026Y2329D02*
X1033Y2329D01*
X1718Y2329D02*
X1725Y2329D01*
X1026Y2328D02*
X1033Y2328D01*
X1718Y2328D02*
X1725Y2328D01*
X1026Y2327D02*
X1033Y2327D01*
X1718Y2327D02*
X1725Y2327D01*
X1026Y2326D02*
X1033Y2326D01*
X1718Y2326D02*
X1725Y2326D01*
X1026Y2325D02*
X1033Y2325D01*
X1718Y2325D02*
X1725Y2325D01*
X1026Y2324D02*
X1033Y2324D01*
X1718Y2324D02*
X1725Y2324D01*
X1026Y2323D02*
X1033Y2323D01*
X1718Y2323D02*
X1725Y2323D01*
X1026Y2322D02*
X1033Y2322D01*
X1718Y2322D02*
X1725Y2322D01*
X1026Y2321D02*
X1033Y2321D01*
X1718Y2321D02*
X1725Y2321D01*
X1026Y2320D02*
X1033Y2320D01*
X1718Y2320D02*
X1725Y2320D01*
X1026Y2319D02*
X1033Y2319D01*
X1718Y2319D02*
X1725Y2319D01*
X1026Y2318D02*
X1033Y2318D01*
X1718Y2318D02*
X1725Y2318D01*
X1026Y2317D02*
X1033Y2317D01*
X1718Y2317D02*
X1725Y2317D01*
X1026Y2316D02*
X1033Y2316D01*
X1718Y2316D02*
X1725Y2316D01*
X1026Y2315D02*
X1033Y2315D01*
X1718Y2315D02*
X1725Y2315D01*
X1026Y2314D02*
X1033Y2314D01*
X1718Y2314D02*
X1725Y2314D01*
X1026Y2313D02*
X1033Y2313D01*
X1718Y2313D02*
X1725Y2313D01*
X1026Y2312D02*
X1033Y2312D01*
X1718Y2312D02*
X1725Y2312D01*
X1026Y2311D02*
X1033Y2311D01*
X1718Y2311D02*
X1725Y2311D01*
X1026Y2310D02*
X1033Y2310D01*
X1718Y2310D02*
X1725Y2310D01*
X1026Y2309D02*
X1033Y2309D01*
X1718Y2309D02*
X1725Y2309D01*
X1026Y2308D02*
X1033Y2308D01*
X1718Y2308D02*
X1725Y2308D01*
X1026Y2307D02*
X1033Y2307D01*
X1718Y2307D02*
X1725Y2307D01*
X1026Y2306D02*
X1033Y2306D01*
X1718Y2306D02*
X1725Y2306D01*
X1026Y2305D02*
X1033Y2305D01*
X1718Y2305D02*
X1725Y2305D01*
X1026Y2304D02*
X1033Y2304D01*
X1718Y2304D02*
X1725Y2304D01*
X1026Y2303D02*
X1033Y2303D01*
X1718Y2303D02*
X1725Y2303D01*
X1026Y2302D02*
X1033Y2302D01*
X1718Y2302D02*
X1725Y2302D01*
X1026Y2301D02*
X1033Y2301D01*
X1718Y2301D02*
X1725Y2301D01*
X1026Y2300D02*
X1033Y2300D01*
X1718Y2300D02*
X1725Y2300D01*
X1026Y2299D02*
X1033Y2299D01*
X1718Y2299D02*
X1725Y2299D01*
X1026Y2298D02*
X1033Y2298D01*
X1718Y2298D02*
X1725Y2298D01*
X1026Y2297D02*
X1033Y2297D01*
X1718Y2297D02*
X1725Y2297D01*
X1026Y2296D02*
X1033Y2296D01*
X1718Y2296D02*
X1725Y2296D01*
X1026Y2295D02*
X1033Y2295D01*
X1718Y2295D02*
X1725Y2295D01*
X1026Y2294D02*
X1033Y2294D01*
X1718Y2294D02*
X1725Y2294D01*
X1026Y2293D02*
X1033Y2293D01*
X1718Y2293D02*
X1725Y2293D01*
X1026Y2292D02*
X1033Y2292D01*
X1718Y2292D02*
X1725Y2292D01*
X1026Y2291D02*
X1033Y2291D01*
X1718Y2291D02*
X1725Y2291D01*
X1026Y2290D02*
X1033Y2290D01*
X1718Y2290D02*
X1725Y2290D01*
X1026Y2289D02*
X1033Y2289D01*
X1718Y2289D02*
X1725Y2289D01*
X1026Y2288D02*
X1033Y2288D01*
X1718Y2288D02*
X1725Y2288D01*
X1026Y2287D02*
X1033Y2287D01*
X1718Y2287D02*
X1725Y2287D01*
X1026Y2286D02*
X1033Y2286D01*
X1718Y2286D02*
X1725Y2286D01*
X1026Y2285D02*
X1033Y2285D01*
X1718Y2285D02*
X1725Y2285D01*
X1026Y2284D02*
X1033Y2284D01*
X1718Y2284D02*
X1725Y2284D01*
X1026Y2283D02*
X1033Y2283D01*
X1718Y2283D02*
X1725Y2283D01*
X1026Y2282D02*
X1033Y2282D01*
X1718Y2282D02*
X1725Y2282D01*
X1026Y2281D02*
X1033Y2281D01*
X1718Y2281D02*
X1725Y2281D01*
X1026Y2280D02*
X1033Y2280D01*
X1718Y2280D02*
X1725Y2280D01*
X1026Y2279D02*
X1033Y2279D01*
X1718Y2279D02*
X1725Y2279D01*
X1026Y2278D02*
X1033Y2278D01*
X1718Y2278D02*
X1725Y2278D01*
X1026Y2277D02*
X1033Y2277D01*
X1718Y2277D02*
X1725Y2277D01*
X1026Y2276D02*
X1033Y2276D01*
X1718Y2276D02*
X1725Y2276D01*
X1026Y2275D02*
X1033Y2275D01*
X1718Y2275D02*
X1725Y2275D01*
X1026Y2274D02*
X1033Y2274D01*
X1718Y2274D02*
X1725Y2274D01*
X1026Y2273D02*
X1033Y2273D01*
X1718Y2273D02*
X1725Y2273D01*
X1026Y2272D02*
X1033Y2272D01*
X1718Y2272D02*
X1725Y2272D01*
X1026Y2271D02*
X1033Y2271D01*
X1718Y2271D02*
X1725Y2271D01*
X1026Y2270D02*
X1033Y2270D01*
X1718Y2270D02*
X1725Y2270D01*
X1026Y2269D02*
X1033Y2269D01*
X1718Y2269D02*
X1725Y2269D01*
X1026Y2268D02*
X1033Y2268D01*
X1718Y2268D02*
X1725Y2268D01*
X1026Y2267D02*
X1033Y2267D01*
X1718Y2267D02*
X1725Y2267D01*
X1026Y2266D02*
X1033Y2266D01*
X1718Y2266D02*
X1725Y2266D01*
X1026Y2265D02*
X1033Y2265D01*
X1718Y2265D02*
X1725Y2265D01*
X1026Y2264D02*
X1033Y2264D01*
X1718Y2264D02*
X1725Y2264D01*
X1026Y2263D02*
X1033Y2263D01*
X1718Y2263D02*
X1725Y2263D01*
X1026Y2262D02*
X1033Y2262D01*
X1718Y2262D02*
X1725Y2262D01*
X1026Y2261D02*
X1033Y2261D01*
X1718Y2261D02*
X1725Y2261D01*
X1026Y2260D02*
X1033Y2260D01*
X1718Y2260D02*
X1725Y2260D01*
X1026Y2259D02*
X1033Y2259D01*
X1718Y2259D02*
X1725Y2259D01*
X1026Y2258D02*
X1033Y2258D01*
X1718Y2258D02*
X1725Y2258D01*
X1026Y2257D02*
X1033Y2257D01*
X1718Y2257D02*
X1725Y2257D01*
X1026Y2256D02*
X1033Y2256D01*
X1718Y2256D02*
X1725Y2256D01*
X1026Y2255D02*
X1033Y2255D01*
X1718Y2255D02*
X1725Y2255D01*
X1026Y2254D02*
X1033Y2254D01*
X1718Y2254D02*
X1725Y2254D01*
X1026Y2253D02*
X1033Y2253D01*
X1718Y2253D02*
X1725Y2253D01*
X1026Y2252D02*
X1033Y2252D01*
X1718Y2252D02*
X1725Y2252D01*
X1026Y2251D02*
X1033Y2251D01*
X1718Y2251D02*
X1725Y2251D01*
X1026Y2250D02*
X1033Y2250D01*
X1718Y2250D02*
X1725Y2250D01*
X1026Y2249D02*
X1033Y2249D01*
X1718Y2249D02*
X1725Y2249D01*
X1026Y2248D02*
X1033Y2248D01*
X1718Y2248D02*
X1725Y2248D01*
X1026Y2247D02*
X1033Y2247D01*
X1718Y2247D02*
X1725Y2247D01*
X1026Y2246D02*
X1033Y2246D01*
X1718Y2246D02*
X1725Y2246D01*
X1026Y2245D02*
X1033Y2245D01*
X1718Y2245D02*
X1725Y2245D01*
X1026Y2244D02*
X1033Y2244D01*
X1718Y2244D02*
X1725Y2244D01*
X1026Y2243D02*
X1033Y2243D01*
X1718Y2243D02*
X1725Y2243D01*
X1026Y2242D02*
X1033Y2242D01*
X1718Y2242D02*
X1725Y2242D01*
X1026Y2241D02*
X1033Y2241D01*
X1718Y2241D02*
X1725Y2241D01*
X1026Y2240D02*
X1033Y2240D01*
X1718Y2240D02*
X1725Y2240D01*
X1026Y2239D02*
X1033Y2239D01*
X1718Y2239D02*
X1725Y2239D01*
X1026Y2238D02*
X1033Y2238D01*
X1718Y2238D02*
X1725Y2238D01*
X1026Y2237D02*
X1033Y2237D01*
X1718Y2237D02*
X1725Y2237D01*
X1026Y2236D02*
X1033Y2236D01*
X1718Y2236D02*
X1725Y2236D01*
X1026Y2235D02*
X1033Y2235D01*
X1718Y2235D02*
X1725Y2235D01*
X1026Y2234D02*
X1033Y2234D01*
X1718Y2234D02*
X1725Y2234D01*
X1026Y2233D02*
X1033Y2233D01*
X1718Y2233D02*
X1725Y2233D01*
X1026Y2232D02*
X1033Y2232D01*
X1718Y2232D02*
X1725Y2232D01*
X1026Y2231D02*
X1033Y2231D01*
X1718Y2231D02*
X1725Y2231D01*
X1026Y2230D02*
X1033Y2230D01*
X1718Y2230D02*
X1725Y2230D01*
X1026Y2229D02*
X1033Y2229D01*
X1718Y2229D02*
X1725Y2229D01*
X1026Y2228D02*
X1033Y2228D01*
X1718Y2228D02*
X1725Y2228D01*
X1026Y2227D02*
X1033Y2227D01*
X1718Y2227D02*
X1725Y2227D01*
X1026Y2226D02*
X1033Y2226D01*
X1718Y2226D02*
X1725Y2226D01*
X1026Y2225D02*
X1033Y2225D01*
X1718Y2225D02*
X1725Y2225D01*
X1026Y2224D02*
X1033Y2224D01*
X1718Y2224D02*
X1725Y2224D01*
X1026Y2223D02*
X1033Y2223D01*
X1718Y2223D02*
X1725Y2223D01*
X1026Y2222D02*
X1033Y2222D01*
X1718Y2222D02*
X1725Y2222D01*
X1026Y2221D02*
X1033Y2221D01*
X1718Y2221D02*
X1725Y2221D01*
X1026Y2220D02*
X1033Y2220D01*
X1718Y2220D02*
X1725Y2220D01*
X1026Y2219D02*
X1033Y2219D01*
X1718Y2219D02*
X1725Y2219D01*
X1026Y2218D02*
X1033Y2218D01*
X1718Y2218D02*
X1725Y2218D01*
X1026Y2217D02*
X1033Y2217D01*
X1718Y2217D02*
X1725Y2217D01*
X1026Y2216D02*
X1033Y2216D01*
X1718Y2216D02*
X1725Y2216D01*
X1026Y2215D02*
X1033Y2215D01*
X1718Y2215D02*
X1725Y2215D01*
X1026Y2214D02*
X1033Y2214D01*
X1718Y2214D02*
X1725Y2214D01*
X1026Y2213D02*
X1033Y2213D01*
X1718Y2213D02*
X1725Y2213D01*
X1026Y2212D02*
X1033Y2212D01*
X1718Y2212D02*
X1725Y2212D01*
X1026Y2211D02*
X1033Y2211D01*
X1718Y2211D02*
X1725Y2211D01*
X1026Y2210D02*
X1033Y2210D01*
X1718Y2210D02*
X1725Y2210D01*
X1026Y2209D02*
X1033Y2209D01*
X1718Y2209D02*
X1725Y2209D01*
X1026Y2208D02*
X1033Y2208D01*
X1718Y2208D02*
X1725Y2208D01*
X1026Y2207D02*
X1033Y2207D01*
X1718Y2207D02*
X1725Y2207D01*
X1026Y2206D02*
X1033Y2206D01*
X1718Y2206D02*
X1725Y2206D01*
X1026Y2205D02*
X1033Y2205D01*
X1718Y2205D02*
X1725Y2205D01*
X1026Y2204D02*
X1033Y2204D01*
X1718Y2204D02*
X1725Y2204D01*
X1026Y2203D02*
X1033Y2203D01*
X1718Y2203D02*
X1725Y2203D01*
X1026Y2202D02*
X1033Y2202D01*
X1718Y2202D02*
X1725Y2202D01*
X1026Y2201D02*
X1033Y2201D01*
X1718Y2201D02*
X1725Y2201D01*
X1026Y2200D02*
X1033Y2200D01*
X1718Y2200D02*
X1725Y2200D01*
X1026Y2199D02*
X1033Y2199D01*
X1718Y2199D02*
X1725Y2199D01*
X1026Y2198D02*
X1033Y2198D01*
X1718Y2198D02*
X1725Y2198D01*
X1026Y2197D02*
X1033Y2197D01*
X1718Y2197D02*
X1725Y2197D01*
X1026Y2196D02*
X1033Y2196D01*
X1718Y2196D02*
X1725Y2196D01*
X1026Y2195D02*
X1033Y2195D01*
X1718Y2195D02*
X1725Y2195D01*
X1026Y2194D02*
X1033Y2194D01*
X1718Y2194D02*
X1725Y2194D01*
X1026Y2193D02*
X1033Y2193D01*
X1718Y2193D02*
X1725Y2193D01*
X1026Y2192D02*
X1033Y2192D01*
X1718Y2192D02*
X1725Y2192D01*
X1026Y2191D02*
X1033Y2191D01*
X1718Y2191D02*
X1725Y2191D01*
X1026Y2190D02*
X1033Y2190D01*
X1718Y2190D02*
X1725Y2190D01*
X1026Y2189D02*
X1033Y2189D01*
X1718Y2189D02*
X1725Y2189D01*
X1026Y2188D02*
X1033Y2188D01*
X1718Y2188D02*
X1725Y2188D01*
X1026Y2187D02*
X1033Y2187D01*
X1718Y2187D02*
X1725Y2187D01*
X1026Y2186D02*
X1033Y2186D01*
X1718Y2186D02*
X1725Y2186D01*
X1026Y2185D02*
X1033Y2185D01*
X1718Y2185D02*
X1725Y2185D01*
X1026Y2184D02*
X1033Y2184D01*
X1718Y2184D02*
X1725Y2184D01*
X1026Y2183D02*
X1033Y2183D01*
X1718Y2183D02*
X1725Y2183D01*
X1026Y2182D02*
X1033Y2182D01*
X1718Y2182D02*
X1725Y2182D01*
X1026Y2181D02*
X1033Y2181D01*
X1718Y2181D02*
X1725Y2181D01*
X1026Y2180D02*
X1033Y2180D01*
X1718Y2180D02*
X1725Y2180D01*
X1026Y2179D02*
X1033Y2179D01*
X1718Y2179D02*
X1725Y2179D01*
X1026Y2178D02*
X1033Y2178D01*
X1718Y2178D02*
X1725Y2178D01*
X1026Y2177D02*
X1033Y2177D01*
X1718Y2177D02*
X1725Y2177D01*
X1026Y2176D02*
X1033Y2176D01*
X1718Y2176D02*
X1725Y2176D01*
X1026Y2175D02*
X1033Y2175D01*
X1718Y2175D02*
X1725Y2175D01*
X1026Y2174D02*
X1033Y2174D01*
X1718Y2174D02*
X1725Y2174D01*
X1026Y2173D02*
X1033Y2173D01*
X1718Y2173D02*
X1725Y2173D01*
X1026Y2172D02*
X1033Y2172D01*
X1718Y2172D02*
X1725Y2172D01*
X1026Y2171D02*
X1033Y2171D01*
X1718Y2171D02*
X1725Y2171D01*
X1026Y2170D02*
X1033Y2170D01*
X1718Y2170D02*
X1725Y2170D01*
X1026Y2169D02*
X1033Y2169D01*
X1718Y2169D02*
X1725Y2169D01*
X1026Y2168D02*
X1033Y2168D01*
X1718Y2168D02*
X1725Y2168D01*
X1026Y2167D02*
X1033Y2167D01*
X1718Y2167D02*
X1725Y2167D01*
X1026Y2166D02*
X1033Y2166D01*
X1718Y2166D02*
X1725Y2166D01*
X1026Y2165D02*
X1033Y2165D01*
X1718Y2165D02*
X1725Y2165D01*
X1026Y2164D02*
X1033Y2164D01*
X1718Y2164D02*
X1725Y2164D01*
X1026Y2163D02*
X1033Y2163D01*
X1718Y2163D02*
X1725Y2163D01*
X1026Y2162D02*
X1033Y2162D01*
X1718Y2162D02*
X1725Y2162D01*
X1026Y2161D02*
X1033Y2161D01*
X1718Y2161D02*
X1725Y2161D01*
X1026Y2160D02*
X1033Y2160D01*
X1718Y2160D02*
X1725Y2160D01*
X1026Y2159D02*
X1033Y2159D01*
X1718Y2159D02*
X1725Y2159D01*
X1026Y2158D02*
X1033Y2158D01*
X1718Y2158D02*
X1725Y2158D01*
X1026Y2157D02*
X1033Y2157D01*
X1718Y2157D02*
X1725Y2157D01*
X1026Y2156D02*
X1033Y2156D01*
X1718Y2156D02*
X1725Y2156D01*
X1026Y2155D02*
X1033Y2155D01*
X1718Y2155D02*
X1725Y2155D01*
X1026Y2154D02*
X1033Y2154D01*
X1718Y2154D02*
X1725Y2154D01*
X1026Y2153D02*
X1033Y2153D01*
X1718Y2153D02*
X1725Y2153D01*
X1026Y2152D02*
X1033Y2152D01*
X1718Y2152D02*
X1725Y2152D01*
X1026Y2151D02*
X1033Y2151D01*
X1718Y2151D02*
X1725Y2151D01*
X1026Y2150D02*
X1033Y2150D01*
X1718Y2150D02*
X1725Y2150D01*
X1026Y2149D02*
X1033Y2149D01*
X1718Y2149D02*
X1725Y2149D01*
X1026Y2148D02*
X1033Y2148D01*
X1718Y2148D02*
X1725Y2148D01*
X1026Y2147D02*
X1033Y2147D01*
X1718Y2147D02*
X1725Y2147D01*
X1026Y2146D02*
X1033Y2146D01*
X1718Y2146D02*
X1725Y2146D01*
X1026Y2145D02*
X1033Y2145D01*
X1718Y2145D02*
X1725Y2145D01*
X1026Y2144D02*
X1033Y2144D01*
X1718Y2144D02*
X1725Y2144D01*
X1026Y2143D02*
X1033Y2143D01*
X1718Y2143D02*
X1725Y2143D01*
X1026Y2142D02*
X1033Y2142D01*
X1718Y2142D02*
X1725Y2142D01*
X1026Y2141D02*
X1033Y2141D01*
X1718Y2141D02*
X1725Y2141D01*
X1026Y2140D02*
X1033Y2140D01*
X1718Y2140D02*
X1725Y2140D01*
X1026Y2139D02*
X1033Y2139D01*
X1718Y2139D02*
X1725Y2139D01*
X1026Y2138D02*
X1033Y2138D01*
X1718Y2138D02*
X1725Y2138D01*
X1026Y2137D02*
X1033Y2137D01*
X1718Y2137D02*
X1725Y2137D01*
X1026Y2136D02*
X1033Y2136D01*
X1718Y2136D02*
X1725Y2136D01*
X1026Y2135D02*
X1033Y2135D01*
X1718Y2135D02*
X1725Y2135D01*
X1026Y2134D02*
X1033Y2134D01*
X1718Y2134D02*
X1725Y2134D01*
X1026Y2133D02*
X1033Y2133D01*
X1718Y2133D02*
X1725Y2133D01*
X1026Y2132D02*
X1033Y2132D01*
X1718Y2132D02*
X1725Y2132D01*
X1026Y2131D02*
X1033Y2131D01*
X1718Y2131D02*
X1725Y2131D01*
X1026Y2130D02*
X1033Y2130D01*
X1718Y2130D02*
X1725Y2130D01*
X1026Y2129D02*
X1033Y2129D01*
X1718Y2129D02*
X1725Y2129D01*
X1026Y2128D02*
X1033Y2128D01*
X1718Y2128D02*
X1725Y2128D01*
X1026Y2127D02*
X1033Y2127D01*
X1718Y2127D02*
X1725Y2127D01*
X1026Y2126D02*
X1033Y2126D01*
X1718Y2126D02*
X1725Y2126D01*
X1026Y2125D02*
X1033Y2125D01*
X1718Y2125D02*
X1725Y2125D01*
X1026Y2124D02*
X1033Y2124D01*
X1718Y2124D02*
X1725Y2124D01*
X1026Y2123D02*
X1033Y2123D01*
X1718Y2123D02*
X1725Y2123D01*
X1026Y2122D02*
X1033Y2122D01*
X1718Y2122D02*
X1725Y2122D01*
X1026Y2121D02*
X1033Y2121D01*
X1718Y2121D02*
X1725Y2121D01*
X1026Y2120D02*
X1033Y2120D01*
X1718Y2120D02*
X1725Y2120D01*
X1026Y2119D02*
X1033Y2119D01*
X1718Y2119D02*
X1725Y2119D01*
X1026Y2118D02*
X1033Y2118D01*
X1718Y2118D02*
X1725Y2118D01*
X1026Y2117D02*
X1033Y2117D01*
X1718Y2117D02*
X1725Y2117D01*
X1026Y2116D02*
X1033Y2116D01*
X1718Y2116D02*
X1725Y2116D01*
X1026Y2115D02*
X1033Y2115D01*
X1718Y2115D02*
X1725Y2115D01*
X1026Y2114D02*
X1033Y2114D01*
X1718Y2114D02*
X1725Y2114D01*
X1026Y2113D02*
X1033Y2113D01*
X1718Y2113D02*
X1725Y2113D01*
X1026Y2112D02*
X1033Y2112D01*
X1718Y2112D02*
X1725Y2112D01*
X1026Y2111D02*
X1033Y2111D01*
X1718Y2111D02*
X1725Y2111D01*
X1026Y2110D02*
X1033Y2110D01*
X1718Y2110D02*
X1725Y2110D01*
X1026Y2109D02*
X1033Y2109D01*
X1718Y2109D02*
X1725Y2109D01*
X1026Y2108D02*
X1033Y2108D01*
X1718Y2108D02*
X1725Y2108D01*
X1026Y2107D02*
X1033Y2107D01*
X1718Y2107D02*
X1725Y2107D01*
X1026Y2106D02*
X1033Y2106D01*
X1718Y2106D02*
X1725Y2106D01*
X1026Y2105D02*
X1033Y2105D01*
X1718Y2105D02*
X1725Y2105D01*
X1026Y2104D02*
X1033Y2104D01*
X1718Y2104D02*
X1725Y2104D01*
X1026Y2103D02*
X1033Y2103D01*
X1718Y2103D02*
X1725Y2103D01*
X1026Y2102D02*
X1033Y2102D01*
X1718Y2102D02*
X1725Y2102D01*
X1026Y2101D02*
X1033Y2101D01*
X1718Y2101D02*
X1725Y2101D01*
X1026Y2100D02*
X1033Y2100D01*
X1718Y2100D02*
X1725Y2100D01*
X1026Y2099D02*
X1033Y2099D01*
X1718Y2099D02*
X1725Y2099D01*
X1026Y2098D02*
X1033Y2098D01*
X1718Y2098D02*
X1725Y2098D01*
X1026Y2097D02*
X1033Y2097D01*
X1718Y2097D02*
X1725Y2097D01*
X1026Y2096D02*
X1033Y2096D01*
X1718Y2096D02*
X1725Y2096D01*
X1026Y2095D02*
X1033Y2095D01*
X1718Y2095D02*
X1725Y2095D01*
X1026Y2094D02*
X1033Y2094D01*
X1718Y2094D02*
X1725Y2094D01*
X1026Y2093D02*
X1033Y2093D01*
X1718Y2093D02*
X1725Y2093D01*
X1026Y2092D02*
X1033Y2092D01*
X1718Y2092D02*
X1725Y2092D01*
X1026Y2091D02*
X1033Y2091D01*
X1718Y2091D02*
X1725Y2091D01*
X1026Y2090D02*
X1033Y2090D01*
X1718Y2090D02*
X1725Y2090D01*
X1026Y2089D02*
X1033Y2089D01*
X1718Y2089D02*
X1725Y2089D01*
X1026Y2088D02*
X1033Y2088D01*
X1718Y2088D02*
X1725Y2088D01*
X1026Y2087D02*
X1033Y2087D01*
X1718Y2087D02*
X1725Y2087D01*
X1026Y2086D02*
X1033Y2086D01*
X1718Y2086D02*
X1725Y2086D01*
X1026Y2085D02*
X1033Y2085D01*
X1718Y2085D02*
X1725Y2085D01*
X1026Y2084D02*
X1033Y2084D01*
X1718Y2084D02*
X1725Y2084D01*
X1026Y2083D02*
X1033Y2083D01*
X1718Y2083D02*
X1725Y2083D01*
X1026Y2082D02*
X1033Y2082D01*
X1718Y2082D02*
X1725Y2082D01*
X1026Y2081D02*
X1033Y2081D01*
X1718Y2081D02*
X1725Y2081D01*
X1026Y2080D02*
X1033Y2080D01*
X1718Y2080D02*
X1725Y2080D01*
X1026Y2079D02*
X1033Y2079D01*
X1718Y2079D02*
X1725Y2079D01*
X1026Y2078D02*
X1033Y2078D01*
X1718Y2078D02*
X1725Y2078D01*
X1026Y2077D02*
X1033Y2077D01*
X1718Y2077D02*
X1725Y2077D01*
X1026Y2076D02*
X1033Y2076D01*
X1718Y2076D02*
X1725Y2076D01*
X1026Y2075D02*
X1033Y2075D01*
X1718Y2075D02*
X1725Y2075D01*
X1026Y2074D02*
X1033Y2074D01*
X1718Y2074D02*
X1725Y2074D01*
X1026Y2073D02*
X1033Y2073D01*
X1718Y2073D02*
X1725Y2073D01*
X1026Y2072D02*
X1033Y2072D01*
X1718Y2072D02*
X1725Y2072D01*
X1026Y2071D02*
X1033Y2071D01*
X1718Y2071D02*
X1725Y2071D01*
X1026Y2070D02*
X1033Y2070D01*
X1718Y2070D02*
X1725Y2070D01*
X1026Y2069D02*
X1033Y2069D01*
X1718Y2069D02*
X1725Y2069D01*
X1026Y2068D02*
X1033Y2068D01*
X1718Y2068D02*
X1725Y2068D01*
X1026Y2067D02*
X1033Y2067D01*
X1718Y2067D02*
X1725Y2067D01*
X1026Y2066D02*
X1033Y2066D01*
X1718Y2066D02*
X1725Y2066D01*
X1026Y2065D02*
X1033Y2065D01*
X1718Y2065D02*
X1725Y2065D01*
X1026Y2064D02*
X1033Y2064D01*
X1718Y2064D02*
X1725Y2064D01*
X1026Y2063D02*
X1033Y2063D01*
X1718Y2063D02*
X1725Y2063D01*
X1026Y2062D02*
X1033Y2062D01*
X1718Y2062D02*
X1725Y2062D01*
X1026Y2061D02*
X1033Y2061D01*
X1718Y2061D02*
X1725Y2061D01*
X1026Y2060D02*
X1033Y2060D01*
X1718Y2060D02*
X1725Y2060D01*
X1026Y2059D02*
X1033Y2059D01*
X1718Y2059D02*
X1725Y2059D01*
X1026Y2058D02*
X1033Y2058D01*
X1718Y2058D02*
X1725Y2058D01*
X1026Y2057D02*
X1033Y2057D01*
X1718Y2057D02*
X1725Y2057D01*
X1026Y2056D02*
X1033Y2056D01*
X1718Y2056D02*
X1725Y2056D01*
X1026Y2055D02*
X1033Y2055D01*
X1718Y2055D02*
X1725Y2055D01*
X1026Y2054D02*
X1033Y2054D01*
X1718Y2054D02*
X1725Y2054D01*
X1026Y2053D02*
X1033Y2053D01*
X1718Y2053D02*
X1725Y2053D01*
X1026Y2052D02*
X1033Y2052D01*
X1718Y2052D02*
X1725Y2052D01*
X1026Y2051D02*
X1033Y2051D01*
X1718Y2051D02*
X1725Y2051D01*
X1026Y2050D02*
X1033Y2050D01*
X1718Y2050D02*
X1725Y2050D01*
X1026Y2049D02*
X1033Y2049D01*
X1718Y2049D02*
X1725Y2049D01*
X1026Y2048D02*
X1033Y2048D01*
X1718Y2048D02*
X1725Y2048D01*
X1026Y2047D02*
X1033Y2047D01*
X1718Y2047D02*
X1725Y2047D01*
X1026Y2046D02*
X1033Y2046D01*
X1718Y2046D02*
X1725Y2046D01*
X1026Y2045D02*
X1033Y2045D01*
X1718Y2045D02*
X1725Y2045D01*
X1026Y2044D02*
X1033Y2044D01*
X1718Y2044D02*
X1725Y2044D01*
X1026Y2043D02*
X1033Y2043D01*
X1718Y2043D02*
X1725Y2043D01*
X1026Y2042D02*
X1033Y2042D01*
X1718Y2042D02*
X1725Y2042D01*
X1026Y2041D02*
X1033Y2041D01*
X1718Y2041D02*
X1725Y2041D01*
X1026Y2040D02*
X1033Y2040D01*
X1718Y2040D02*
X1725Y2040D01*
X1026Y2039D02*
X1033Y2039D01*
X1718Y2039D02*
X1725Y2039D01*
X1026Y2038D02*
X1033Y2038D01*
X1718Y2038D02*
X1725Y2038D01*
X1026Y2037D02*
X1033Y2037D01*
X1718Y2037D02*
X1725Y2037D01*
X1026Y2036D02*
X1033Y2036D01*
X1718Y2036D02*
X1725Y2036D01*
X1026Y2035D02*
X1033Y2035D01*
X1718Y2035D02*
X1725Y2035D01*
X1026Y2034D02*
X1033Y2034D01*
X1718Y2034D02*
X1725Y2034D01*
X1026Y2033D02*
X1033Y2033D01*
X1718Y2033D02*
X1725Y2033D01*
X1026Y2032D02*
X1033Y2032D01*
X1718Y2032D02*
X1725Y2032D01*
X1026Y2031D02*
X1033Y2031D01*
X1718Y2031D02*
X1725Y2031D01*
X1026Y2030D02*
X1033Y2030D01*
X1718Y2030D02*
X1725Y2030D01*
X1026Y2029D02*
X1033Y2029D01*
X1718Y2029D02*
X1725Y2029D01*
X1026Y2028D02*
X1033Y2028D01*
X1718Y2028D02*
X1725Y2028D01*
X1026Y2027D02*
X1033Y2027D01*
X1718Y2027D02*
X1725Y2027D01*
X1026Y2026D02*
X1033Y2026D01*
X1718Y2026D02*
X1725Y2026D01*
X1026Y2025D02*
X1033Y2025D01*
X1718Y2025D02*
X1725Y2025D01*
X1026Y2024D02*
X1033Y2024D01*
X1718Y2024D02*
X1725Y2024D01*
X1026Y2023D02*
X1033Y2023D01*
X1718Y2023D02*
X1725Y2023D01*
X1026Y2022D02*
X1033Y2022D01*
X1718Y2022D02*
X1725Y2022D01*
X1026Y2021D02*
X1033Y2021D01*
X1718Y2021D02*
X1725Y2021D01*
X1026Y2020D02*
X1033Y2020D01*
X1718Y2020D02*
X1725Y2020D01*
X1026Y2019D02*
X1033Y2019D01*
X1718Y2019D02*
X1725Y2019D01*
X1026Y2018D02*
X1033Y2018D01*
X1718Y2018D02*
X1725Y2018D01*
X1026Y2017D02*
X1033Y2017D01*
X1718Y2017D02*
X1725Y2017D01*
X1026Y2016D02*
X1033Y2016D01*
X1718Y2016D02*
X1725Y2016D01*
X1026Y2015D02*
X1033Y2015D01*
X1718Y2015D02*
X1725Y2015D01*
X1026Y2014D02*
X1033Y2014D01*
X1718Y2014D02*
X1725Y2014D01*
X1026Y2013D02*
X1033Y2013D01*
X1718Y2013D02*
X1725Y2013D01*
X1026Y2012D02*
X1033Y2012D01*
X1718Y2012D02*
X1725Y2012D01*
X1026Y2011D02*
X1033Y2011D01*
X1718Y2011D02*
X1725Y2011D01*
X1026Y2010D02*
X1033Y2010D01*
X1718Y2010D02*
X1725Y2010D01*
X1026Y2009D02*
X1033Y2009D01*
X1718Y2009D02*
X1725Y2009D01*
X1026Y2008D02*
X1033Y2008D01*
X1718Y2008D02*
X1725Y2008D01*
X1026Y2007D02*
X1033Y2007D01*
X1718Y2007D02*
X1725Y2007D01*
X1026Y2006D02*
X1033Y2006D01*
X1718Y2006D02*
X1725Y2006D01*
X1026Y2005D02*
X1033Y2005D01*
X1718Y2005D02*
X1725Y2005D01*
X1026Y2004D02*
X1033Y2004D01*
X1718Y2004D02*
X1725Y2004D01*
X1026Y2003D02*
X1033Y2003D01*
X1718Y2003D02*
X1725Y2003D01*
X1026Y2002D02*
X1033Y2002D01*
X1718Y2002D02*
X1725Y2002D01*
X1026Y2001D02*
X1033Y2001D01*
X1718Y2001D02*
X1725Y2001D01*
X1026Y2000D02*
X1033Y2000D01*
X1718Y2000D02*
X1725Y2000D01*
X1026Y1999D02*
X1033Y1999D01*
X1718Y1999D02*
X1725Y1999D01*
X1026Y1998D02*
X1033Y1998D01*
X1718Y1998D02*
X1725Y1998D01*
X1026Y1997D02*
X1033Y1997D01*
X1718Y1997D02*
X1725Y1997D01*
X1026Y1996D02*
X1033Y1996D01*
X1718Y1996D02*
X1725Y1996D01*
X1026Y1995D02*
X1033Y1995D01*
X1718Y1995D02*
X1725Y1995D01*
X1026Y1994D02*
X1033Y1994D01*
X1718Y1994D02*
X1725Y1994D01*
X1026Y1993D02*
X1033Y1993D01*
X1718Y1993D02*
X1725Y1993D01*
X1026Y1992D02*
X1033Y1992D01*
X1718Y1992D02*
X1725Y1992D01*
X1026Y1991D02*
X1033Y1991D01*
X1718Y1991D02*
X1725Y1991D01*
X1026Y1990D02*
X1033Y1990D01*
X1718Y1990D02*
X1725Y1990D01*
X1026Y1989D02*
X1033Y1989D01*
X1718Y1989D02*
X1725Y1989D01*
X1026Y1988D02*
X1033Y1988D01*
X1718Y1988D02*
X1725Y1988D01*
X1026Y1987D02*
X1033Y1987D01*
X1718Y1987D02*
X1725Y1987D01*
X1026Y1986D02*
X1033Y1986D01*
X1718Y1986D02*
X1725Y1986D01*
X1026Y1985D02*
X1033Y1985D01*
X1718Y1985D02*
X1725Y1985D01*
X1026Y1984D02*
X1033Y1984D01*
X1718Y1984D02*
X1725Y1984D01*
X1026Y1983D02*
X1033Y1983D01*
X1718Y1983D02*
X1725Y1983D01*
X1026Y1982D02*
X1033Y1982D01*
X1718Y1982D02*
X1725Y1982D01*
X1026Y1981D02*
X1033Y1981D01*
X1718Y1981D02*
X1725Y1981D01*
X1026Y1980D02*
X1033Y1980D01*
X1718Y1980D02*
X1725Y1980D01*
X1026Y1979D02*
X1033Y1979D01*
X1718Y1979D02*
X1725Y1979D01*
X1026Y1978D02*
X1033Y1978D01*
X1718Y1978D02*
X1725Y1978D01*
X1026Y1977D02*
X1033Y1977D01*
X1718Y1977D02*
X1725Y1977D01*
X1026Y1976D02*
X1033Y1976D01*
X1718Y1976D02*
X1725Y1976D01*
X1026Y1975D02*
X1033Y1975D01*
X1718Y1975D02*
X1725Y1975D01*
X1026Y1974D02*
X1033Y1974D01*
X1718Y1974D02*
X1725Y1974D01*
X1026Y1973D02*
X1033Y1973D01*
X1718Y1973D02*
X1725Y1973D01*
X1026Y1972D02*
X1033Y1972D01*
X1718Y1972D02*
X1725Y1972D01*
X1026Y1971D02*
X1033Y1971D01*
X1718Y1971D02*
X1725Y1971D01*
X1026Y1970D02*
X1033Y1970D01*
X1718Y1970D02*
X1725Y1970D01*
X1026Y1969D02*
X1033Y1969D01*
X1718Y1969D02*
X1725Y1969D01*
X1026Y1968D02*
X1033Y1968D01*
X1718Y1968D02*
X1725Y1968D01*
X1026Y1967D02*
X1033Y1967D01*
X1718Y1967D02*
X1725Y1967D01*
X1026Y1966D02*
X1033Y1966D01*
X1718Y1966D02*
X1725Y1966D01*
X1026Y1965D02*
X1033Y1965D01*
X1718Y1965D02*
X1725Y1965D01*
X1026Y1964D02*
X1033Y1964D01*
X1718Y1964D02*
X1725Y1964D01*
X1026Y1963D02*
X1033Y1963D01*
X1718Y1963D02*
X1725Y1963D01*
X1026Y1962D02*
X1033Y1962D01*
X1718Y1962D02*
X1725Y1962D01*
X1026Y1961D02*
X1033Y1961D01*
X1718Y1961D02*
X1725Y1961D01*
X1026Y1960D02*
X1033Y1960D01*
X1718Y1960D02*
X1725Y1960D01*
X1026Y1959D02*
X1033Y1959D01*
X1718Y1959D02*
X1725Y1959D01*
X1026Y1958D02*
X1033Y1958D01*
X1718Y1958D02*
X1725Y1958D01*
X1026Y1957D02*
X1033Y1957D01*
X1718Y1957D02*
X1725Y1957D01*
X1026Y1956D02*
X1033Y1956D01*
X1718Y1956D02*
X1725Y1956D01*
X1026Y1955D02*
X1033Y1955D01*
X1718Y1955D02*
X1725Y1955D01*
X1026Y1954D02*
X1033Y1954D01*
X1718Y1954D02*
X1725Y1954D01*
X1026Y1953D02*
X1033Y1953D01*
X1718Y1953D02*
X1725Y1953D01*
X1026Y1952D02*
X1033Y1952D01*
X1718Y1952D02*
X1725Y1952D01*
X1026Y1951D02*
X1033Y1951D01*
X1718Y1951D02*
X1725Y1951D01*
X1026Y1950D02*
X1033Y1950D01*
X1718Y1950D02*
X1725Y1950D01*
X1026Y1949D02*
X1033Y1949D01*
X1718Y1949D02*
X1725Y1949D01*
X1026Y1948D02*
X1033Y1948D01*
X1718Y1948D02*
X1725Y1948D01*
X1026Y1947D02*
X1033Y1947D01*
X1718Y1947D02*
X1725Y1947D01*
X1026Y1946D02*
X1033Y1946D01*
X1718Y1946D02*
X1725Y1946D01*
X1026Y1945D02*
X1033Y1945D01*
X1718Y1945D02*
X1725Y1945D01*
X1026Y1944D02*
X1033Y1944D01*
X1718Y1944D02*
X1725Y1944D01*
X1026Y1943D02*
X1033Y1943D01*
X1718Y1943D02*
X1725Y1943D01*
X1026Y1942D02*
X1033Y1942D01*
X1718Y1942D02*
X1725Y1942D01*
X1026Y1941D02*
X1033Y1941D01*
X1718Y1941D02*
X1725Y1941D01*
X1026Y1940D02*
X1033Y1940D01*
X1718Y1940D02*
X1725Y1940D01*
X1026Y1939D02*
X1033Y1939D01*
X1718Y1939D02*
X1725Y1939D01*
X1026Y1938D02*
X1033Y1938D01*
X1718Y1938D02*
X1725Y1938D01*
X1026Y1937D02*
X1033Y1937D01*
X1718Y1937D02*
X1725Y1937D01*
X1026Y1936D02*
X1033Y1936D01*
X1718Y1936D02*
X1725Y1936D01*
X1026Y1935D02*
X1033Y1935D01*
X1718Y1935D02*
X1725Y1935D01*
X1026Y1934D02*
X1033Y1934D01*
X1718Y1934D02*
X1725Y1934D01*
X1026Y1933D02*
X1033Y1933D01*
X1718Y1933D02*
X1725Y1933D01*
X1026Y1932D02*
X1033Y1932D01*
X1718Y1932D02*
X1725Y1932D01*
X1026Y1931D02*
X1033Y1931D01*
X1718Y1931D02*
X1725Y1931D01*
X1026Y1930D02*
X1033Y1930D01*
X1718Y1930D02*
X1725Y1930D01*
X1026Y1929D02*
X1033Y1929D01*
X1718Y1929D02*
X1725Y1929D01*
X1026Y1928D02*
X1033Y1928D01*
X1718Y1928D02*
X1725Y1928D01*
X1026Y1927D02*
X1033Y1927D01*
X1718Y1927D02*
X1725Y1927D01*
X1026Y1926D02*
X1033Y1926D01*
X1718Y1926D02*
X1725Y1926D01*
X1026Y1925D02*
X1033Y1925D01*
X1718Y1925D02*
X1725Y1925D01*
X1026Y1924D02*
X1033Y1924D01*
X1718Y1924D02*
X1725Y1924D01*
X1026Y1923D02*
X1033Y1923D01*
X1718Y1923D02*
X1725Y1923D01*
X1026Y1922D02*
X1033Y1922D01*
X1718Y1922D02*
X1725Y1922D01*
X1026Y1921D02*
X1033Y1921D01*
X1718Y1921D02*
X1725Y1921D01*
X1026Y1920D02*
X1033Y1920D01*
X1718Y1920D02*
X1725Y1920D01*
X1026Y1919D02*
X1033Y1919D01*
X1718Y1919D02*
X1725Y1919D01*
X1026Y1918D02*
X1033Y1918D01*
X1718Y1918D02*
X1725Y1918D01*
X1026Y1917D02*
X1033Y1917D01*
X1718Y1917D02*
X1725Y1917D01*
X1026Y1916D02*
X1033Y1916D01*
X1718Y1916D02*
X1725Y1916D01*
X1026Y1915D02*
X1033Y1915D01*
X1718Y1915D02*
X1725Y1915D01*
X1026Y1914D02*
X1033Y1914D01*
X1718Y1914D02*
X1725Y1914D01*
X1026Y1913D02*
X1033Y1913D01*
X1718Y1913D02*
X1725Y1913D01*
X1026Y1912D02*
X1033Y1912D01*
X1718Y1912D02*
X1725Y1912D01*
X1026Y1911D02*
X1033Y1911D01*
X1718Y1911D02*
X1725Y1911D01*
X1026Y1910D02*
X1033Y1910D01*
X1718Y1910D02*
X1725Y1910D01*
X1026Y1909D02*
X1033Y1909D01*
X1718Y1909D02*
X1725Y1909D01*
X1026Y1908D02*
X1033Y1908D01*
X1718Y1908D02*
X1725Y1908D01*
X1026Y1907D02*
X1033Y1907D01*
X1718Y1907D02*
X1725Y1907D01*
X1026Y1906D02*
X1033Y1906D01*
X1718Y1906D02*
X1725Y1906D01*
X1026Y1905D02*
X1033Y1905D01*
X1718Y1905D02*
X1725Y1905D01*
X1026Y1904D02*
X1033Y1904D01*
X1718Y1904D02*
X1725Y1904D01*
X1026Y1903D02*
X1033Y1903D01*
X1718Y1903D02*
X1725Y1903D01*
X1026Y1902D02*
X1033Y1902D01*
X1718Y1902D02*
X1725Y1902D01*
X1026Y1901D02*
X1033Y1901D01*
X1718Y1901D02*
X1725Y1901D01*
X1026Y1900D02*
X1033Y1900D01*
X1718Y1900D02*
X1725Y1900D01*
X1026Y1899D02*
X1033Y1899D01*
X1718Y1899D02*
X1725Y1899D01*
X1026Y1898D02*
X1033Y1898D01*
X1718Y1898D02*
X1725Y1898D01*
X1026Y1897D02*
X1033Y1897D01*
X1718Y1897D02*
X1725Y1897D01*
X1026Y1896D02*
X1033Y1896D01*
X1718Y1896D02*
X1725Y1896D01*
X1026Y1895D02*
X1033Y1895D01*
X1718Y1895D02*
X1725Y1895D01*
X1026Y1894D02*
X1033Y1894D01*
X1718Y1894D02*
X1725Y1894D01*
X1026Y1893D02*
X1033Y1893D01*
X1718Y1893D02*
X1725Y1893D01*
X1026Y1892D02*
X1033Y1892D01*
X1718Y1892D02*
X1725Y1892D01*
X1026Y1891D02*
X1033Y1891D01*
X1718Y1891D02*
X1725Y1891D01*
X1026Y1890D02*
X1033Y1890D01*
X1718Y1890D02*
X1725Y1890D01*
X1026Y1889D02*
X1033Y1889D01*
X1718Y1889D02*
X1725Y1889D01*
X1026Y1888D02*
X1033Y1888D01*
X1718Y1888D02*
X1725Y1888D01*
X1026Y1887D02*
X1033Y1887D01*
X1718Y1887D02*
X1725Y1887D01*
X1026Y1886D02*
X1033Y1886D01*
X1718Y1886D02*
X1725Y1886D01*
X1026Y1885D02*
X1033Y1885D01*
X1718Y1885D02*
X1725Y1885D01*
X1026Y1884D02*
X1033Y1884D01*
X1718Y1884D02*
X1725Y1884D01*
X1026Y1883D02*
X1033Y1883D01*
X1718Y1883D02*
X1725Y1883D01*
X1026Y1882D02*
X1033Y1882D01*
X1718Y1882D02*
X1725Y1882D01*
X1026Y1881D02*
X1033Y1881D01*
X1718Y1881D02*
X1725Y1881D01*
X1026Y1880D02*
X1033Y1880D01*
X1718Y1880D02*
X1725Y1880D01*
X1026Y1879D02*
X1033Y1879D01*
X1718Y1879D02*
X1725Y1879D01*
X1026Y1878D02*
X1033Y1878D01*
X1718Y1878D02*
X1725Y1878D01*
X1026Y1877D02*
X1033Y1877D01*
X1718Y1877D02*
X1725Y1877D01*
X1026Y1876D02*
X1033Y1876D01*
X1718Y1876D02*
X1725Y1876D01*
X1026Y1875D02*
X1033Y1875D01*
X1718Y1875D02*
X1725Y1875D01*
X1026Y1874D02*
X1033Y1874D01*
X1718Y1874D02*
X1725Y1874D01*
X1026Y1873D02*
X1033Y1873D01*
X1718Y1873D02*
X1725Y1873D01*
X1026Y1872D02*
X1033Y1872D01*
X1718Y1872D02*
X1725Y1872D01*
X1026Y1871D02*
X1033Y1871D01*
X1718Y1871D02*
X1725Y1871D01*
X1026Y1870D02*
X1033Y1870D01*
X1718Y1870D02*
X1725Y1870D01*
X1026Y1869D02*
X1033Y1869D01*
X1718Y1869D02*
X1725Y1869D01*
X1026Y1868D02*
X1033Y1868D01*
X1718Y1868D02*
X1725Y1868D01*
X1026Y1867D02*
X1033Y1867D01*
X1718Y1867D02*
X1725Y1867D01*
X1026Y1866D02*
X1033Y1866D01*
X1718Y1866D02*
X1725Y1866D01*
X1026Y1865D02*
X1033Y1865D01*
X1718Y1865D02*
X1725Y1865D01*
X1026Y1864D02*
X1033Y1864D01*
X1718Y1864D02*
X1725Y1864D01*
X1026Y1863D02*
X1033Y1863D01*
X1718Y1863D02*
X1725Y1863D01*
X1026Y1862D02*
X1033Y1862D01*
X1718Y1862D02*
X1725Y1862D01*
X1026Y1861D02*
X1033Y1861D01*
X1718Y1861D02*
X1725Y1861D01*
X1026Y1860D02*
X1033Y1860D01*
X1718Y1860D02*
X1725Y1860D01*
X1026Y1859D02*
X1033Y1859D01*
X1718Y1859D02*
X1725Y1859D01*
X1026Y1858D02*
X1033Y1858D01*
X1718Y1858D02*
X1725Y1858D01*
X1026Y1857D02*
X1033Y1857D01*
X1718Y1857D02*
X1725Y1857D01*
X1026Y1856D02*
X1033Y1856D01*
X1718Y1856D02*
X1725Y1856D01*
X1026Y1855D02*
X1033Y1855D01*
X1718Y1855D02*
X1725Y1855D01*
X1026Y1854D02*
X1033Y1854D01*
X1718Y1854D02*
X1725Y1854D01*
X1026Y1853D02*
X1033Y1853D01*
X1718Y1853D02*
X1725Y1853D01*
X1026Y1852D02*
X1033Y1852D01*
X1718Y1852D02*
X1725Y1852D01*
X1026Y1851D02*
X1033Y1851D01*
X1718Y1851D02*
X1725Y1851D01*
X1026Y1850D02*
X1033Y1850D01*
X1718Y1850D02*
X1725Y1850D01*
X1026Y1849D02*
X1033Y1849D01*
X1718Y1849D02*
X1725Y1849D01*
X1026Y1848D02*
X1033Y1848D01*
X1718Y1848D02*
X1725Y1848D01*
X1026Y1847D02*
X1033Y1847D01*
X1718Y1847D02*
X1725Y1847D01*
X1026Y1846D02*
X1033Y1846D01*
X1718Y1846D02*
X1725Y1846D01*
X1026Y1845D02*
X1033Y1845D01*
X1718Y1845D02*
X1725Y1845D01*
X1026Y1844D02*
X1033Y1844D01*
X1718Y1844D02*
X1725Y1844D01*
X1026Y1843D02*
X1033Y1843D01*
X1718Y1843D02*
X1725Y1843D01*
X1026Y1842D02*
X1033Y1842D01*
X1718Y1842D02*
X1725Y1842D01*
X1026Y1841D02*
X1033Y1841D01*
X1718Y1841D02*
X1725Y1841D01*
X1026Y1840D02*
X1033Y1840D01*
X1718Y1840D02*
X1725Y1840D01*
X1026Y1839D02*
X1033Y1839D01*
X1718Y1839D02*
X1725Y1839D01*
X1026Y1838D02*
X1033Y1838D01*
X1718Y1838D02*
X1725Y1838D01*
X1026Y1837D02*
X1033Y1837D01*
X1718Y1837D02*
X1725Y1837D01*
X1026Y1836D02*
X1033Y1836D01*
X1718Y1836D02*
X1725Y1836D01*
X1026Y1835D02*
X1033Y1835D01*
X1718Y1835D02*
X1725Y1835D01*
X1026Y1834D02*
X1033Y1834D01*
X1718Y1834D02*
X1725Y1834D01*
X1026Y1833D02*
X1033Y1833D01*
X1718Y1833D02*
X1725Y1833D01*
X1026Y1832D02*
X1033Y1832D01*
X1718Y1832D02*
X1725Y1832D01*
X1026Y1831D02*
X1033Y1831D01*
X1718Y1831D02*
X1725Y1831D01*
X1026Y1830D02*
X1033Y1830D01*
X1718Y1830D02*
X1725Y1830D01*
X1026Y1829D02*
X1033Y1829D01*
X1718Y1829D02*
X1725Y1829D01*
X1026Y1828D02*
X1033Y1828D01*
X1718Y1828D02*
X1725Y1828D01*
X1026Y1827D02*
X1033Y1827D01*
X1718Y1827D02*
X1725Y1827D01*
X1026Y1826D02*
X1033Y1826D01*
X1718Y1826D02*
X1725Y1826D01*
X1026Y1825D02*
X1033Y1825D01*
X1718Y1825D02*
X1725Y1825D01*
X1026Y1824D02*
X1033Y1824D01*
X1718Y1824D02*
X1725Y1824D01*
X1026Y1823D02*
X1033Y1823D01*
X1718Y1823D02*
X1725Y1823D01*
X1026Y1822D02*
X1033Y1822D01*
X1718Y1822D02*
X1725Y1822D01*
X1026Y1821D02*
X1033Y1821D01*
X1718Y1821D02*
X1725Y1821D01*
X1026Y1820D02*
X1033Y1820D01*
X1718Y1820D02*
X1725Y1820D01*
X1026Y1819D02*
X1033Y1819D01*
X1718Y1819D02*
X1725Y1819D01*
X1026Y1818D02*
X1033Y1818D01*
X1718Y1818D02*
X1725Y1818D01*
X1026Y1817D02*
X1033Y1817D01*
X1718Y1817D02*
X1725Y1817D01*
X1026Y1816D02*
X1033Y1816D01*
X1718Y1816D02*
X1725Y1816D01*
X1026Y1815D02*
X1033Y1815D01*
X1718Y1815D02*
X1725Y1815D01*
X1026Y1814D02*
X1033Y1814D01*
X1718Y1814D02*
X1725Y1814D01*
X1026Y1813D02*
X1033Y1813D01*
X1718Y1813D02*
X1725Y1813D01*
X1026Y1812D02*
X1033Y1812D01*
X1718Y1812D02*
X1725Y1812D01*
X1026Y1811D02*
X1033Y1811D01*
X1718Y1811D02*
X1725Y1811D01*
X1026Y1810D02*
X1033Y1810D01*
X1718Y1810D02*
X1725Y1810D01*
X1026Y1809D02*
X1033Y1809D01*
X1718Y1809D02*
X1725Y1809D01*
X1026Y1808D02*
X1033Y1808D01*
X1718Y1808D02*
X1725Y1808D01*
X1026Y1807D02*
X1033Y1807D01*
X1718Y1807D02*
X1725Y1807D01*
X1026Y1806D02*
X1033Y1806D01*
X1718Y1806D02*
X1725Y1806D01*
X1026Y1805D02*
X1033Y1805D01*
X1718Y1805D02*
X1725Y1805D01*
X1026Y1804D02*
X1033Y1804D01*
X1718Y1804D02*
X1725Y1804D01*
X1026Y1803D02*
X1033Y1803D01*
X1718Y1803D02*
X1725Y1803D01*
X1026Y1802D02*
X1033Y1802D01*
X1718Y1802D02*
X1725Y1802D01*
X1026Y1801D02*
X1033Y1801D01*
X1718Y1801D02*
X1725Y1801D01*
X1026Y1800D02*
X1033Y1800D01*
X1718Y1800D02*
X1725Y1800D01*
X1026Y1799D02*
X1033Y1799D01*
X1718Y1799D02*
X1725Y1799D01*
X1026Y1798D02*
X1033Y1798D01*
X1718Y1798D02*
X1725Y1798D01*
X1026Y1797D02*
X1033Y1797D01*
X1718Y1797D02*
X1725Y1797D01*
X1026Y1796D02*
X1033Y1796D01*
X1718Y1796D02*
X1725Y1796D01*
X1026Y1795D02*
X1033Y1795D01*
X1718Y1795D02*
X1725Y1795D01*
X1026Y1794D02*
X1033Y1794D01*
X1718Y1794D02*
X1725Y1794D01*
X1026Y1793D02*
X1033Y1793D01*
X1718Y1793D02*
X1725Y1793D01*
X1026Y1792D02*
X1033Y1792D01*
X1718Y1792D02*
X1725Y1792D01*
X1026Y1791D02*
X1033Y1791D01*
X1718Y1791D02*
X1725Y1791D01*
X1026Y1790D02*
X1033Y1790D01*
X1718Y1790D02*
X1725Y1790D01*
X1026Y1789D02*
X1033Y1789D01*
X1718Y1789D02*
X1725Y1789D01*
X1026Y1788D02*
X1033Y1788D01*
X1718Y1788D02*
X1725Y1788D01*
X1026Y1787D02*
X1033Y1787D01*
X1718Y1787D02*
X1725Y1787D01*
X1026Y1786D02*
X1033Y1786D01*
X1718Y1786D02*
X1725Y1786D01*
X1026Y1785D02*
X1033Y1785D01*
X1718Y1785D02*
X1725Y1785D01*
X1026Y1784D02*
X1033Y1784D01*
X1718Y1784D02*
X1725Y1784D01*
X1026Y1783D02*
X1033Y1783D01*
X1718Y1783D02*
X1725Y1783D01*
X1026Y1782D02*
X1033Y1782D01*
X1718Y1782D02*
X1725Y1782D01*
X1026Y1781D02*
X1033Y1781D01*
X1718Y1781D02*
X1725Y1781D01*
X1026Y1780D02*
X1033Y1780D01*
X1718Y1780D02*
X1725Y1780D01*
X1026Y1779D02*
X1033Y1779D01*
X1718Y1779D02*
X1725Y1779D01*
X1026Y1778D02*
X1033Y1778D01*
X1718Y1778D02*
X1725Y1778D01*
X1026Y1777D02*
X1033Y1777D01*
X1718Y1777D02*
X1725Y1777D01*
X1026Y1776D02*
X1033Y1776D01*
X1718Y1776D02*
X1725Y1776D01*
X1026Y1775D02*
X1033Y1775D01*
X1718Y1775D02*
X1725Y1775D01*
X1026Y1774D02*
X1033Y1774D01*
X1718Y1774D02*
X1725Y1774D01*
X1026Y1773D02*
X1033Y1773D01*
X1718Y1773D02*
X1725Y1773D01*
X1026Y1772D02*
X1033Y1772D01*
X1718Y1772D02*
X1725Y1772D01*
X1026Y1771D02*
X1033Y1771D01*
X1718Y1771D02*
X1725Y1771D01*
X1026Y1770D02*
X1033Y1770D01*
X1718Y1770D02*
X1725Y1770D01*
X1026Y1769D02*
X1033Y1769D01*
X1718Y1769D02*
X1725Y1769D01*
X1026Y1768D02*
X1033Y1768D01*
X1718Y1768D02*
X1725Y1768D01*
X1026Y1767D02*
X1033Y1767D01*
X1718Y1767D02*
X1725Y1767D01*
X1026Y1766D02*
X1033Y1766D01*
X1718Y1766D02*
X1725Y1766D01*
X1026Y1765D02*
X1033Y1765D01*
X1718Y1765D02*
X1725Y1765D01*
X1026Y1764D02*
X1033Y1764D01*
X1718Y1764D02*
X1725Y1764D01*
X1026Y1763D02*
X1033Y1763D01*
X1718Y1763D02*
X1725Y1763D01*
X1026Y1762D02*
X1033Y1762D01*
X1718Y1762D02*
X1725Y1762D01*
X1026Y1761D02*
X1033Y1761D01*
X1718Y1761D02*
X1725Y1761D01*
X1026Y1760D02*
X1033Y1760D01*
X1718Y1760D02*
X1725Y1760D01*
X1026Y1759D02*
X1033Y1759D01*
X1718Y1759D02*
X1725Y1759D01*
X1026Y1758D02*
X1033Y1758D01*
X1718Y1758D02*
X1725Y1758D01*
X1026Y1757D02*
X1033Y1757D01*
X1718Y1757D02*
X1725Y1757D01*
X1026Y1756D02*
X1033Y1756D01*
X1718Y1756D02*
X1725Y1756D01*
X1026Y1755D02*
X1033Y1755D01*
X1718Y1755D02*
X1725Y1755D01*
X1026Y1754D02*
X1033Y1754D01*
X1718Y1754D02*
X1725Y1754D01*
X1026Y1753D02*
X1033Y1753D01*
X1718Y1753D02*
X1725Y1753D01*
X1026Y1752D02*
X1033Y1752D01*
X1718Y1752D02*
X1725Y1752D01*
X1026Y1751D02*
X1033Y1751D01*
X1718Y1751D02*
X1725Y1751D01*
X1026Y1750D02*
X1033Y1750D01*
X1718Y1750D02*
X1725Y1750D01*
X1026Y1749D02*
X1033Y1749D01*
X1718Y1749D02*
X1725Y1749D01*
X1026Y1748D02*
X1033Y1748D01*
X1718Y1748D02*
X1725Y1748D01*
X1026Y1747D02*
X1033Y1747D01*
X1718Y1747D02*
X1725Y1747D01*
X1026Y1746D02*
X1033Y1746D01*
X1718Y1746D02*
X1725Y1746D01*
X1026Y1745D02*
X1033Y1745D01*
X1718Y1745D02*
X1725Y1745D01*
X1026Y1744D02*
X1033Y1744D01*
X1718Y1744D02*
X1725Y1744D01*
X1026Y1743D02*
X1033Y1743D01*
X1718Y1743D02*
X1725Y1743D01*
X1026Y1742D02*
X1033Y1742D01*
X1718Y1742D02*
X1725Y1742D01*
X1026Y1741D02*
X1033Y1741D01*
X1718Y1741D02*
X1725Y1741D01*
X1026Y1740D02*
X1033Y1740D01*
X1718Y1740D02*
X1725Y1740D01*
X1026Y1739D02*
X1033Y1739D01*
X1718Y1739D02*
X1725Y1739D01*
X1026Y1738D02*
X1033Y1738D01*
X1718Y1738D02*
X1725Y1738D01*
X1026Y1737D02*
X1033Y1737D01*
X1718Y1737D02*
X1725Y1737D01*
X1026Y1736D02*
X1033Y1736D01*
X1718Y1736D02*
X1725Y1736D01*
X1026Y1735D02*
X1033Y1735D01*
X1718Y1735D02*
X1725Y1735D01*
X1026Y1734D02*
X1033Y1734D01*
X1718Y1734D02*
X1725Y1734D01*
X1026Y1733D02*
X1033Y1733D01*
X1718Y1733D02*
X1725Y1733D01*
X1026Y1732D02*
X1033Y1732D01*
X1718Y1732D02*
X1725Y1732D01*
X1026Y1731D02*
X1033Y1731D01*
X1718Y1731D02*
X1725Y1731D01*
X1026Y1730D02*
X1033Y1730D01*
X1718Y1730D02*
X1725Y1730D01*
X1026Y1729D02*
X1033Y1729D01*
X1718Y1729D02*
X1725Y1729D01*
X1026Y1728D02*
X1033Y1728D01*
X1718Y1728D02*
X1725Y1728D01*
X1026Y1727D02*
X1033Y1727D01*
X1718Y1727D02*
X1725Y1727D01*
X1026Y1726D02*
X1033Y1726D01*
X1718Y1726D02*
X1725Y1726D01*
X1026Y1725D02*
X1033Y1725D01*
X1718Y1725D02*
X1725Y1725D01*
X1026Y1724D02*
X1033Y1724D01*
X1718Y1724D02*
X1725Y1724D01*
X1026Y1723D02*
X1033Y1723D01*
X1718Y1723D02*
X1725Y1723D01*
X1026Y1722D02*
X1033Y1722D01*
X1718Y1722D02*
X1725Y1722D01*
X1026Y1721D02*
X1033Y1721D01*
X1718Y1721D02*
X1725Y1721D01*
X1026Y1720D02*
X1033Y1720D01*
X1718Y1720D02*
X1725Y1720D01*
X1026Y1719D02*
X1033Y1719D01*
X1718Y1719D02*
X1725Y1719D01*
X1026Y1718D02*
X1033Y1718D01*
X1718Y1718D02*
X1725Y1718D01*
X1026Y1717D02*
X1033Y1717D01*
X1718Y1717D02*
X1725Y1717D01*
X1026Y1716D02*
X1033Y1716D01*
X1718Y1716D02*
X1725Y1716D01*
X1026Y1715D02*
X1033Y1715D01*
X1718Y1715D02*
X1725Y1715D01*
X1026Y1714D02*
X1033Y1714D01*
X1718Y1714D02*
X1725Y1714D01*
X1026Y1713D02*
X1033Y1713D01*
X1718Y1713D02*
X1725Y1713D01*
X1026Y1712D02*
X1033Y1712D01*
X1718Y1712D02*
X1725Y1712D01*
X1026Y1711D02*
X1033Y1711D01*
X1718Y1711D02*
X1725Y1711D01*
X1026Y1710D02*
X1033Y1710D01*
X1718Y1710D02*
X1725Y1710D01*
X1026Y1709D02*
X1033Y1709D01*
X1718Y1709D02*
X1725Y1709D01*
X1026Y1708D02*
X1033Y1708D01*
X1718Y1708D02*
X1725Y1708D01*
X1026Y1707D02*
X1033Y1707D01*
X1718Y1707D02*
X1725Y1707D01*
X1026Y1706D02*
X1033Y1706D01*
X1718Y1706D02*
X1725Y1706D01*
X1026Y1705D02*
X1033Y1705D01*
X1718Y1705D02*
X1725Y1705D01*
X1026Y1704D02*
X1033Y1704D01*
X1718Y1704D02*
X1725Y1704D01*
X1026Y1703D02*
X1033Y1703D01*
X1718Y1703D02*
X1725Y1703D01*
X1026Y1702D02*
X1033Y1702D01*
X1718Y1702D02*
X1725Y1702D01*
X1026Y1701D02*
X1033Y1701D01*
X1718Y1701D02*
X1725Y1701D01*
X1026Y1700D02*
X1033Y1700D01*
X1718Y1700D02*
X1725Y1700D01*
X1026Y1699D02*
X1033Y1699D01*
X1718Y1699D02*
X1725Y1699D01*
X1026Y1698D02*
X1033Y1698D01*
X1718Y1698D02*
X1725Y1698D01*
X1026Y1697D02*
X1033Y1697D01*
X1718Y1697D02*
X1725Y1697D01*
X1026Y1696D02*
X1033Y1696D01*
X1718Y1696D02*
X1725Y1696D01*
X1026Y1695D02*
X1033Y1695D01*
X1718Y1695D02*
X1725Y1695D01*
X1026Y1694D02*
X1033Y1694D01*
X1718Y1694D02*
X1725Y1694D01*
X1026Y1693D02*
X1033Y1693D01*
X1718Y1693D02*
X1725Y1693D01*
X1026Y1692D02*
X1033Y1692D01*
X1718Y1692D02*
X1725Y1692D01*
X1026Y1691D02*
X1033Y1691D01*
X1718Y1691D02*
X1725Y1691D01*
X1026Y1690D02*
X1033Y1690D01*
X1718Y1690D02*
X1725Y1690D01*
X1026Y1689D02*
X1033Y1689D01*
X1718Y1689D02*
X1725Y1689D01*
X1026Y1688D02*
X1033Y1688D01*
X1718Y1688D02*
X1725Y1688D01*
X1026Y1687D02*
X1033Y1687D01*
X1718Y1687D02*
X1725Y1687D01*
X1026Y1686D02*
X1033Y1686D01*
X1718Y1686D02*
X1725Y1686D01*
X1026Y1685D02*
X1033Y1685D01*
X1718Y1685D02*
X1725Y1685D01*
X1026Y1684D02*
X1033Y1684D01*
X1718Y1684D02*
X1725Y1684D01*
X1026Y1683D02*
X1033Y1683D01*
X1718Y1683D02*
X1725Y1683D01*
X1026Y1682D02*
X1033Y1682D01*
X1718Y1682D02*
X1725Y1682D01*
X1026Y1681D02*
X1033Y1681D01*
X1718Y1681D02*
X1725Y1681D01*
X1026Y1680D02*
X1033Y1680D01*
X1718Y1680D02*
X1725Y1680D01*
X1026Y1679D02*
X1033Y1679D01*
X1718Y1679D02*
X1725Y1679D01*
X1026Y1678D02*
X1033Y1678D01*
X1718Y1678D02*
X1725Y1678D01*
X1026Y1677D02*
X1033Y1677D01*
X1718Y1677D02*
X1725Y1677D01*
X1026Y1676D02*
X1033Y1676D01*
X1718Y1676D02*
X1725Y1676D01*
X1026Y1675D02*
X1033Y1675D01*
X1718Y1675D02*
X1725Y1675D01*
X1026Y1674D02*
X1033Y1674D01*
X1718Y1674D02*
X1725Y1674D01*
X1026Y1673D02*
X1033Y1673D01*
X1718Y1673D02*
X1725Y1673D01*
X1026Y1672D02*
X1033Y1672D01*
X1718Y1672D02*
X1725Y1672D01*
X1026Y1671D02*
X1033Y1671D01*
X1718Y1671D02*
X1725Y1671D01*
X1026Y1670D02*
X1033Y1670D01*
X1718Y1670D02*
X1725Y1670D01*
X1026Y1669D02*
X1033Y1669D01*
X1718Y1669D02*
X1725Y1669D01*
X1026Y1668D02*
X1033Y1668D01*
X1718Y1668D02*
X1725Y1668D01*
X1026Y1667D02*
X1033Y1667D01*
X1718Y1667D02*
X1725Y1667D01*
X1026Y1666D02*
X1033Y1666D01*
X1718Y1666D02*
X1725Y1666D01*
X1026Y1665D02*
X1033Y1665D01*
X1718Y1665D02*
X1725Y1665D01*
X1026Y1664D02*
X1033Y1664D01*
X1718Y1664D02*
X1725Y1664D01*
X1026Y1663D02*
X1033Y1663D01*
X1718Y1663D02*
X1725Y1663D01*
X1026Y1662D02*
X1033Y1662D01*
X1718Y1662D02*
X1725Y1662D01*
X1026Y1661D02*
X1033Y1661D01*
X1718Y1661D02*
X1725Y1661D01*
X1026Y1660D02*
X1033Y1660D01*
X1718Y1660D02*
X1725Y1660D01*
X1026Y1659D02*
X1033Y1659D01*
X1718Y1659D02*
X1725Y1659D01*
X1026Y1658D02*
X1033Y1658D01*
X1718Y1658D02*
X1725Y1658D01*
X1026Y1657D02*
X1033Y1657D01*
X1718Y1657D02*
X1725Y1657D01*
X1026Y1656D02*
X1033Y1656D01*
X1718Y1656D02*
X1725Y1656D01*
X1026Y1655D02*
X1033Y1655D01*
X1718Y1655D02*
X1725Y1655D01*
X1026Y1654D02*
X1033Y1654D01*
X1718Y1654D02*
X1725Y1654D01*
X1026Y1653D02*
X1033Y1653D01*
X1718Y1653D02*
X1725Y1653D01*
X1026Y1652D02*
X1033Y1652D01*
X1718Y1652D02*
X1725Y1652D01*
X1026Y1651D02*
X1033Y1651D01*
X1718Y1651D02*
X1725Y1651D01*
X1026Y1650D02*
X1033Y1650D01*
X1718Y1650D02*
X1725Y1650D01*
X1026Y1649D02*
X1033Y1649D01*
X1718Y1649D02*
X1725Y1649D01*
X1026Y1648D02*
X1033Y1648D01*
X1718Y1648D02*
X1725Y1648D01*
X1026Y1647D02*
X1033Y1647D01*
X1718Y1647D02*
X1725Y1647D01*
X1026Y1646D02*
X1033Y1646D01*
X1718Y1646D02*
X1725Y1646D01*
X1026Y1645D02*
X1033Y1645D01*
X1718Y1645D02*
X1725Y1645D01*
X1026Y1644D02*
X1033Y1644D01*
X1718Y1644D02*
X1725Y1644D01*
X1026Y1643D02*
X1033Y1643D01*
X1718Y1643D02*
X1725Y1643D01*
X1026Y1642D02*
X1033Y1642D01*
X1718Y1642D02*
X1725Y1642D01*
X1026Y1641D02*
X1033Y1641D01*
X1718Y1641D02*
X1725Y1641D01*
X1026Y1640D02*
X1033Y1640D01*
X1718Y1640D02*
X1725Y1640D01*
X1026Y1639D02*
X1033Y1639D01*
X1718Y1639D02*
X1725Y1639D01*
X1026Y1638D02*
X1033Y1638D01*
X1718Y1638D02*
X1725Y1638D01*
X1026Y1637D02*
X1033Y1637D01*
X1718Y1637D02*
X1725Y1637D01*
X1026Y1636D02*
X1033Y1636D01*
X1718Y1636D02*
X1725Y1636D01*
X1026Y1635D02*
X1033Y1635D01*
X1718Y1635D02*
X1725Y1635D01*
X1026Y1634D02*
X1033Y1634D01*
X1718Y1634D02*
X1725Y1634D01*
X1026Y1633D02*
X1033Y1633D01*
X1718Y1633D02*
X1725Y1633D01*
X1026Y1632D02*
X1033Y1632D01*
X1718Y1632D02*
X1725Y1632D01*
X1026Y1631D02*
X1033Y1631D01*
X1718Y1631D02*
X1725Y1631D01*
X1026Y1630D02*
X1033Y1630D01*
X1718Y1630D02*
X1725Y1630D01*
X1026Y1629D02*
X1033Y1629D01*
X1718Y1629D02*
X1725Y1629D01*
X1026Y1628D02*
X1033Y1628D01*
X1718Y1628D02*
X1725Y1628D01*
X1026Y1627D02*
X1033Y1627D01*
X1718Y1627D02*
X1725Y1627D01*
X1026Y1626D02*
X1033Y1626D01*
X1718Y1626D02*
X1725Y1626D01*
X1026Y1625D02*
X1033Y1625D01*
X1718Y1625D02*
X1725Y1625D01*
X1026Y1624D02*
X1033Y1624D01*
X1718Y1624D02*
X1725Y1624D01*
X1026Y1623D02*
X1033Y1623D01*
X1718Y1623D02*
X1725Y1623D01*
X1026Y1622D02*
X1033Y1622D01*
X1718Y1622D02*
X1725Y1622D01*
X1026Y1621D02*
X1033Y1621D01*
X1718Y1621D02*
X1725Y1621D01*
X1026Y1620D02*
X1033Y1620D01*
X1718Y1620D02*
X1725Y1620D01*
X1026Y1619D02*
X1033Y1619D01*
X1718Y1619D02*
X1725Y1619D01*
X1026Y1618D02*
X1033Y1618D01*
X1718Y1618D02*
X1725Y1618D01*
X1026Y1617D02*
X1033Y1617D01*
X1718Y1617D02*
X1725Y1617D01*
X1026Y1616D02*
X1033Y1616D01*
X1718Y1616D02*
X1725Y1616D01*
X1026Y1615D02*
X1033Y1615D01*
X1718Y1615D02*
X1725Y1615D01*
X1026Y1614D02*
X1033Y1614D01*
X1718Y1614D02*
X1725Y1614D01*
X1026Y1613D02*
X1033Y1613D01*
X1718Y1613D02*
X1725Y1613D01*
X1026Y1612D02*
X1033Y1612D01*
X1718Y1612D02*
X1725Y1612D01*
X1026Y1611D02*
X1033Y1611D01*
X1718Y1611D02*
X1725Y1611D01*
X1026Y1610D02*
X1033Y1610D01*
X1718Y1610D02*
X1725Y1610D01*
X1026Y1609D02*
X1033Y1609D01*
X1718Y1609D02*
X1725Y1609D01*
X1026Y1608D02*
X1033Y1608D01*
X1718Y1608D02*
X1725Y1608D01*
X1026Y1607D02*
X1033Y1607D01*
X1718Y1607D02*
X1725Y1607D01*
X1026Y1606D02*
X1033Y1606D01*
X1718Y1606D02*
X1725Y1606D01*
X1026Y1605D02*
X1033Y1605D01*
X1718Y1605D02*
X1725Y1605D01*
X1026Y1604D02*
X1033Y1604D01*
X1718Y1604D02*
X1725Y1604D01*
X1026Y1603D02*
X1033Y1603D01*
X1718Y1603D02*
X1725Y1603D01*
X1026Y1602D02*
X1033Y1602D01*
X1718Y1602D02*
X1725Y1602D01*
X1026Y1601D02*
X1033Y1601D01*
X1718Y1601D02*
X1725Y1601D01*
X1026Y1600D02*
X1033Y1600D01*
X1718Y1600D02*
X1725Y1600D01*
X1026Y1599D02*
X1033Y1599D01*
X1718Y1599D02*
X1725Y1599D01*
X1026Y1598D02*
X1033Y1598D01*
X1718Y1598D02*
X1725Y1598D01*
X1026Y1597D02*
X1033Y1597D01*
X1718Y1597D02*
X1725Y1597D01*
X1026Y1596D02*
X1033Y1596D01*
X1718Y1596D02*
X1725Y1596D01*
X1026Y1595D02*
X1033Y1595D01*
X1718Y1595D02*
X1725Y1595D01*
X1026Y1594D02*
X1033Y1594D01*
X1718Y1594D02*
X1725Y1594D01*
X1026Y1593D02*
X1033Y1593D01*
X1718Y1593D02*
X1725Y1593D01*
X1026Y1592D02*
X1033Y1592D01*
X1718Y1592D02*
X1725Y1592D01*
X1026Y1591D02*
X1033Y1591D01*
X1718Y1591D02*
X1725Y1591D01*
X1026Y1590D02*
X1033Y1590D01*
X1718Y1590D02*
X1725Y1590D01*
X1026Y1589D02*
X1033Y1589D01*
X1718Y1589D02*
X1725Y1589D01*
X1026Y1588D02*
X1033Y1588D01*
X1718Y1588D02*
X1725Y1588D01*
X1026Y1587D02*
X1033Y1587D01*
X1718Y1587D02*
X1725Y1587D01*
X1026Y1586D02*
X1033Y1586D01*
X1718Y1586D02*
X1725Y1586D01*
X1026Y1585D02*
X1033Y1585D01*
X1718Y1585D02*
X1725Y1585D01*
X1026Y1584D02*
X1033Y1584D01*
X1718Y1584D02*
X1725Y1584D01*
X1026Y1583D02*
X1033Y1583D01*
X1718Y1583D02*
X1725Y1583D01*
X1026Y1582D02*
X1033Y1582D01*
X1718Y1582D02*
X1725Y1582D01*
X1026Y1581D02*
X1033Y1581D01*
X1718Y1581D02*
X1725Y1581D01*
X1026Y1580D02*
X1033Y1580D01*
X1718Y1580D02*
X1725Y1580D01*
X1026Y1579D02*
X1033Y1579D01*
X1718Y1579D02*
X1725Y1579D01*
X1026Y1578D02*
X1033Y1578D01*
X1718Y1578D02*
X1725Y1578D01*
X1026Y1577D02*
X1033Y1577D01*
X1718Y1577D02*
X1725Y1577D01*
X1026Y1576D02*
X1033Y1576D01*
X1718Y1576D02*
X1725Y1576D01*
X1026Y1575D02*
X1033Y1575D01*
X1718Y1575D02*
X1725Y1575D01*
X1026Y1574D02*
X1033Y1574D01*
X1718Y1574D02*
X1725Y1574D01*
X1026Y1573D02*
X1033Y1573D01*
X1718Y1573D02*
X1725Y1573D01*
X1026Y1572D02*
X1033Y1572D01*
X1718Y1572D02*
X1725Y1572D01*
X1026Y1571D02*
X1033Y1571D01*
X1718Y1571D02*
X1725Y1571D01*
X1026Y1570D02*
X1033Y1570D01*
X1718Y1570D02*
X1725Y1570D01*
X1026Y1569D02*
X1033Y1569D01*
X1718Y1569D02*
X1725Y1569D01*
X1026Y1568D02*
X1033Y1568D01*
X1718Y1568D02*
X1725Y1568D01*
X1026Y1567D02*
X1033Y1567D01*
X1718Y1567D02*
X1725Y1567D01*
X1026Y1566D02*
X1033Y1566D01*
X1718Y1566D02*
X1725Y1566D01*
X1026Y1565D02*
X1033Y1565D01*
X1718Y1565D02*
X1725Y1565D01*
X1026Y1564D02*
X1033Y1564D01*
X1718Y1564D02*
X1725Y1564D01*
X1026Y1563D02*
X1033Y1563D01*
X1718Y1563D02*
X1725Y1563D01*
X1026Y1562D02*
X1033Y1562D01*
X1718Y1562D02*
X1725Y1562D01*
X1026Y1561D02*
X1033Y1561D01*
X1718Y1561D02*
X1725Y1561D01*
X1026Y1560D02*
X1033Y1560D01*
X1718Y1560D02*
X1725Y1560D01*
X1026Y1559D02*
X1033Y1559D01*
X1718Y1559D02*
X1725Y1559D01*
X1026Y1558D02*
X1033Y1558D01*
X1718Y1558D02*
X1725Y1558D01*
X1026Y1557D02*
X1033Y1557D01*
X1718Y1557D02*
X1725Y1557D01*
X1026Y1556D02*
X1033Y1556D01*
X1718Y1556D02*
X1725Y1556D01*
X1026Y1555D02*
X1033Y1555D01*
X1718Y1555D02*
X1725Y1555D01*
X1026Y1554D02*
X1033Y1554D01*
X1718Y1554D02*
X1725Y1554D01*
X1026Y1553D02*
X1033Y1553D01*
X1718Y1553D02*
X1725Y1553D01*
X1026Y1552D02*
X1033Y1552D01*
X1718Y1552D02*
X1725Y1552D01*
X1026Y1551D02*
X1033Y1551D01*
X1718Y1551D02*
X1725Y1551D01*
X1026Y1550D02*
X1033Y1550D01*
X1718Y1550D02*
X1725Y1550D01*
X1026Y1549D02*
X1033Y1549D01*
X1718Y1549D02*
X1725Y1549D01*
X1026Y1548D02*
X1033Y1548D01*
X1718Y1548D02*
X1725Y1548D01*
X1026Y1547D02*
X1033Y1547D01*
X1718Y1547D02*
X1725Y1547D01*
X1026Y1546D02*
X1033Y1546D01*
X1718Y1546D02*
X1725Y1546D01*
X1026Y1545D02*
X1033Y1545D01*
X1718Y1545D02*
X1725Y1545D01*
X1026Y1544D02*
X1033Y1544D01*
X1718Y1544D02*
X1725Y1544D01*
X1026Y1543D02*
X1033Y1543D01*
X1718Y1543D02*
X1725Y1543D01*
X1026Y1542D02*
X1033Y1542D01*
X1718Y1542D02*
X1725Y1542D01*
X1026Y1541D02*
X1033Y1541D01*
X1718Y1541D02*
X1725Y1541D01*
X1026Y1540D02*
X1033Y1540D01*
X1718Y1540D02*
X1725Y1540D01*
X1026Y1539D02*
X1033Y1539D01*
X1718Y1539D02*
X1725Y1539D01*
X1026Y1538D02*
X1033Y1538D01*
X1718Y1538D02*
X1725Y1538D01*
X1026Y1537D02*
X1033Y1537D01*
X1718Y1537D02*
X1725Y1537D01*
X1026Y1536D02*
X1033Y1536D01*
X1718Y1536D02*
X1725Y1536D01*
X1026Y1535D02*
X1033Y1535D01*
X1718Y1535D02*
X1725Y1535D01*
X1026Y1534D02*
X1033Y1534D01*
X1718Y1534D02*
X1725Y1534D01*
X1026Y1533D02*
X1033Y1533D01*
X1718Y1533D02*
X1725Y1533D01*
X1026Y1532D02*
X1033Y1532D01*
X1718Y1532D02*
X1725Y1532D01*
X1026Y1531D02*
X1033Y1531D01*
X1718Y1531D02*
X1725Y1531D01*
X1026Y1530D02*
X1033Y1530D01*
X1718Y1530D02*
X1725Y1530D01*
X1026Y1529D02*
X1033Y1529D01*
X1718Y1529D02*
X1725Y1529D01*
X1026Y1528D02*
X1033Y1528D01*
X1718Y1528D02*
X1725Y1528D01*
X1026Y1527D02*
X1033Y1527D01*
X1718Y1527D02*
X1725Y1527D01*
X1026Y1526D02*
X1033Y1526D01*
X1718Y1526D02*
X1725Y1526D01*
X1026Y1525D02*
X1033Y1525D01*
X1718Y1525D02*
X1725Y1525D01*
X1026Y1524D02*
X1033Y1524D01*
X1718Y1524D02*
X1725Y1524D01*
X1026Y1523D02*
X1033Y1523D01*
X1718Y1523D02*
X1725Y1523D01*
X1026Y1522D02*
X1033Y1522D01*
X1718Y1522D02*
X1725Y1522D01*
X1026Y1521D02*
X1033Y1521D01*
X1718Y1521D02*
X1725Y1521D01*
X1026Y1520D02*
X1033Y1520D01*
X1718Y1520D02*
X1725Y1520D01*
X1026Y1519D02*
X1033Y1519D01*
X1718Y1519D02*
X1725Y1519D01*
X1026Y1518D02*
X1033Y1518D01*
X1718Y1518D02*
X1725Y1518D01*
X1026Y1517D02*
X1033Y1517D01*
X1718Y1517D02*
X1725Y1517D01*
X1026Y1516D02*
X1033Y1516D01*
X1718Y1516D02*
X1725Y1516D01*
X1026Y1515D02*
X1033Y1515D01*
X1718Y1515D02*
X1725Y1515D01*
X1026Y1514D02*
X1033Y1514D01*
X1718Y1514D02*
X1725Y1514D01*
X1026Y1513D02*
X1033Y1513D01*
X1718Y1513D02*
X1725Y1513D01*
X1026Y1512D02*
X1033Y1512D01*
X1718Y1512D02*
X1725Y1512D01*
X1026Y1511D02*
X1033Y1511D01*
X1718Y1511D02*
X1725Y1511D01*
X1026Y1510D02*
X1033Y1510D01*
X1718Y1510D02*
X1725Y1510D01*
X1026Y1509D02*
X1033Y1509D01*
X1718Y1509D02*
X1725Y1509D01*
X1026Y1508D02*
X1033Y1508D01*
X1718Y1508D02*
X1725Y1508D01*
X1026Y1507D02*
X1033Y1507D01*
X1718Y1507D02*
X1725Y1507D01*
X1026Y1506D02*
X1033Y1506D01*
X1718Y1506D02*
X1725Y1506D01*
X1026Y1505D02*
X1033Y1505D01*
X1718Y1505D02*
X1725Y1505D01*
X1026Y1504D02*
X1033Y1504D01*
X1718Y1504D02*
X1725Y1504D01*
X1026Y1503D02*
X1033Y1503D01*
X1718Y1503D02*
X1725Y1503D01*
X1026Y1502D02*
X1033Y1502D01*
X1718Y1502D02*
X1725Y1502D01*
X1026Y1501D02*
X1033Y1501D01*
X1718Y1501D02*
X1725Y1501D01*
X1026Y1500D02*
X1033Y1500D01*
X1718Y1500D02*
X1725Y1500D01*
X1026Y1499D02*
X1033Y1499D01*
X1718Y1499D02*
X1725Y1499D01*
X1026Y1498D02*
X1033Y1498D01*
X1718Y1498D02*
X1725Y1498D01*
X1026Y1497D02*
X1033Y1497D01*
X1718Y1497D02*
X1725Y1497D01*
X1026Y1496D02*
X1033Y1496D01*
X1718Y1496D02*
X1725Y1496D01*
X1026Y1495D02*
X1033Y1495D01*
X1718Y1495D02*
X1725Y1495D01*
X1026Y1494D02*
X1033Y1494D01*
X1718Y1494D02*
X1725Y1494D01*
X1026Y1493D02*
X1033Y1493D01*
X1718Y1493D02*
X1725Y1493D01*
X1026Y1492D02*
X1033Y1492D01*
X1718Y1492D02*
X1725Y1492D01*
X1026Y1491D02*
X1033Y1491D01*
X1718Y1491D02*
X1725Y1491D01*
X1026Y1490D02*
X1033Y1490D01*
X1718Y1490D02*
X1725Y1490D01*
X1026Y1489D02*
X1033Y1489D01*
X1718Y1489D02*
X1725Y1489D01*
X1026Y1488D02*
X1033Y1488D01*
X1718Y1488D02*
X1725Y1488D01*
X1026Y1487D02*
X1033Y1487D01*
X1718Y1487D02*
X1725Y1487D01*
X1026Y1486D02*
X1033Y1486D01*
X1718Y1486D02*
X1725Y1486D01*
X1026Y1485D02*
X1033Y1485D01*
X1718Y1485D02*
X1725Y1485D01*
X1026Y1484D02*
X1033Y1484D01*
X1718Y1484D02*
X1725Y1484D01*
X1026Y1483D02*
X1033Y1483D01*
X1718Y1483D02*
X1725Y1483D01*
X1026Y1482D02*
X1033Y1482D01*
X1718Y1482D02*
X1725Y1482D01*
X1026Y1481D02*
X1033Y1481D01*
X1718Y1481D02*
X1725Y1481D01*
X1026Y1480D02*
X1033Y1480D01*
X1718Y1480D02*
X1725Y1480D01*
X1026Y1479D02*
X1033Y1479D01*
X1718Y1479D02*
X1725Y1479D01*
X1026Y1478D02*
X1033Y1478D01*
X1718Y1478D02*
X1725Y1478D01*
X1026Y1477D02*
X1033Y1477D01*
X1718Y1477D02*
X1725Y1477D01*
X1026Y1476D02*
X1033Y1476D01*
X1718Y1476D02*
X1725Y1476D01*
X1026Y1475D02*
X1033Y1475D01*
X1718Y1475D02*
X1725Y1475D01*
X1026Y1474D02*
X1033Y1474D01*
X1718Y1474D02*
X1725Y1474D01*
X1026Y1473D02*
X1033Y1473D01*
X1718Y1473D02*
X1725Y1473D01*
X1026Y1472D02*
X1033Y1472D01*
X1718Y1472D02*
X1725Y1472D01*
X1026Y1471D02*
X1033Y1471D01*
X1718Y1471D02*
X1725Y1471D01*
X1026Y1470D02*
X1033Y1470D01*
X1718Y1470D02*
X1725Y1470D01*
X1026Y1469D02*
X1033Y1469D01*
X1718Y1469D02*
X1725Y1469D01*
X1026Y1468D02*
X1033Y1468D01*
X1718Y1468D02*
X1725Y1468D01*
X1026Y1467D02*
X1033Y1467D01*
X1718Y1467D02*
X1725Y1467D01*
X1026Y1466D02*
X1033Y1466D01*
X1718Y1466D02*
X1725Y1466D01*
X1026Y1465D02*
X1033Y1465D01*
X1718Y1465D02*
X1725Y1465D01*
X1026Y1464D02*
X1033Y1464D01*
X1718Y1464D02*
X1725Y1464D01*
X1026Y1463D02*
X1033Y1463D01*
X1718Y1463D02*
X1725Y1463D01*
X1026Y1462D02*
X1033Y1462D01*
X1718Y1462D02*
X1725Y1462D01*
X1026Y1461D02*
X1033Y1461D01*
X1718Y1461D02*
X1725Y1461D01*
X1026Y1460D02*
X1033Y1460D01*
X1718Y1460D02*
X1725Y1460D01*
X1026Y1459D02*
X1033Y1459D01*
X1718Y1459D02*
X1725Y1459D01*
X1026Y1458D02*
X1033Y1458D01*
X1718Y1458D02*
X1725Y1458D01*
X1026Y1457D02*
X1033Y1457D01*
X1718Y1457D02*
X1725Y1457D01*
X1026Y1456D02*
X1033Y1456D01*
X1718Y1456D02*
X1725Y1456D01*
X1026Y1455D02*
X1033Y1455D01*
X1718Y1455D02*
X1725Y1455D01*
X1026Y1454D02*
X1033Y1454D01*
X1718Y1454D02*
X1725Y1454D01*
X1026Y1453D02*
X1033Y1453D01*
X1718Y1453D02*
X1725Y1453D01*
X1026Y1452D02*
X1033Y1452D01*
X1718Y1452D02*
X1725Y1452D01*
X1026Y1451D02*
X1033Y1451D01*
X1718Y1451D02*
X1725Y1451D01*
X1026Y1450D02*
X1033Y1450D01*
X1718Y1450D02*
X1725Y1450D01*
X1026Y1449D02*
X1033Y1449D01*
X1718Y1449D02*
X1725Y1449D01*
X1026Y1448D02*
X1033Y1448D01*
X1718Y1448D02*
X1725Y1448D01*
X1026Y1447D02*
X1033Y1447D01*
X1718Y1447D02*
X1725Y1447D01*
X1026Y1446D02*
X1033Y1446D01*
X1718Y1446D02*
X1725Y1446D01*
X1026Y1445D02*
X1033Y1445D01*
X1718Y1445D02*
X1725Y1445D01*
X1026Y1444D02*
X1033Y1444D01*
X1718Y1444D02*
X1725Y1444D01*
X1026Y1443D02*
X1033Y1443D01*
X1718Y1443D02*
X1725Y1443D01*
X1026Y1442D02*
X1033Y1442D01*
X1718Y1442D02*
X1725Y1442D01*
X1026Y1441D02*
X1033Y1441D01*
X1718Y1441D02*
X1725Y1441D01*
X1026Y1440D02*
X1033Y1440D01*
X1718Y1440D02*
X1725Y1440D01*
X1026Y1439D02*
X1033Y1439D01*
X1718Y1439D02*
X1725Y1439D01*
X1026Y1438D02*
X1033Y1438D01*
X1718Y1438D02*
X1725Y1438D01*
X1026Y1437D02*
X1033Y1437D01*
X1718Y1437D02*
X1725Y1437D01*
X1026Y1436D02*
X1033Y1436D01*
X1718Y1436D02*
X1725Y1436D01*
X1026Y1435D02*
X1033Y1435D01*
X1718Y1435D02*
X1725Y1435D01*
X1026Y1434D02*
X1033Y1434D01*
X1718Y1434D02*
X1725Y1434D01*
X1026Y1433D02*
X1033Y1433D01*
X1718Y1433D02*
X1725Y1433D01*
X1026Y1432D02*
X1033Y1432D01*
X1718Y1432D02*
X1725Y1432D01*
X1026Y1431D02*
X1033Y1431D01*
X1718Y1431D02*
X1725Y1431D01*
X1026Y1430D02*
X1033Y1430D01*
X1718Y1430D02*
X1725Y1430D01*
X1026Y1429D02*
X1033Y1429D01*
X1718Y1429D02*
X1725Y1429D01*
X1026Y1428D02*
X1033Y1428D01*
X1718Y1428D02*
X1725Y1428D01*
X1026Y1427D02*
X1033Y1427D01*
X1718Y1427D02*
X1725Y1427D01*
X1026Y1426D02*
X1033Y1426D01*
X1718Y1426D02*
X1725Y1426D01*
X1026Y1425D02*
X1033Y1425D01*
X1718Y1425D02*
X1725Y1425D01*
X1026Y1424D02*
X1033Y1424D01*
X1718Y1424D02*
X1725Y1424D01*
X1026Y1423D02*
X1033Y1423D01*
X1718Y1423D02*
X1725Y1423D01*
X1026Y1422D02*
X1033Y1422D01*
X1718Y1422D02*
X1725Y1422D01*
X1026Y1421D02*
X1033Y1421D01*
X1718Y1421D02*
X1725Y1421D01*
X1026Y1420D02*
X1033Y1420D01*
X1718Y1420D02*
X1725Y1420D01*
X1026Y1419D02*
X1033Y1419D01*
X1718Y1419D02*
X1725Y1419D01*
X1026Y1418D02*
X1033Y1418D01*
X1718Y1418D02*
X1725Y1418D01*
X1026Y1417D02*
X1033Y1417D01*
X1718Y1417D02*
X1725Y1417D01*
X1026Y1416D02*
X1033Y1416D01*
X1718Y1416D02*
X1725Y1416D01*
X1026Y1415D02*
X1033Y1415D01*
X1718Y1415D02*
X1725Y1415D01*
X1026Y1414D02*
X1033Y1414D01*
X1718Y1414D02*
X1725Y1414D01*
X1026Y1413D02*
X1033Y1413D01*
X1718Y1413D02*
X1725Y1413D01*
X1026Y1412D02*
X1033Y1412D01*
X1718Y1412D02*
X1725Y1412D01*
X1026Y1411D02*
X1033Y1411D01*
X1718Y1411D02*
X1725Y1411D01*
X1026Y1410D02*
X1033Y1410D01*
X1718Y1410D02*
X1725Y1410D01*
X1026Y1409D02*
X1033Y1409D01*
X1718Y1409D02*
X1725Y1409D01*
X1026Y1408D02*
X1033Y1408D01*
X1718Y1408D02*
X1725Y1408D01*
X1026Y1407D02*
X1033Y1407D01*
X1718Y1407D02*
X1725Y1407D01*
X1026Y1406D02*
X1033Y1406D01*
X1718Y1406D02*
X1725Y1406D01*
X1026Y1405D02*
X1033Y1405D01*
X1718Y1405D02*
X1725Y1405D01*
X1026Y1404D02*
X1033Y1404D01*
X1718Y1404D02*
X1725Y1404D01*
X1026Y1403D02*
X1033Y1403D01*
X1718Y1403D02*
X1725Y1403D01*
X1026Y1402D02*
X1033Y1402D01*
X1718Y1402D02*
X1725Y1402D01*
X1026Y1401D02*
X1033Y1401D01*
X1718Y1401D02*
X1725Y1401D01*
X1026Y1400D02*
X1033Y1400D01*
X1718Y1400D02*
X1725Y1400D01*
X1026Y1399D02*
X1033Y1399D01*
X1718Y1399D02*
X1725Y1399D01*
X1026Y1398D02*
X1033Y1398D01*
X1718Y1398D02*
X1725Y1398D01*
X1026Y1397D02*
X1033Y1397D01*
X1718Y1397D02*
X1725Y1397D01*
X1026Y1396D02*
X1033Y1396D01*
X1718Y1396D02*
X1725Y1396D01*
X1026Y1395D02*
X1033Y1395D01*
X1718Y1395D02*
X1725Y1395D01*
X1026Y1394D02*
X1033Y1394D01*
X1718Y1394D02*
X1725Y1394D01*
X1026Y1393D02*
X1033Y1393D01*
X1718Y1393D02*
X1725Y1393D01*
X1026Y1392D02*
X1033Y1392D01*
X1718Y1392D02*
X1725Y1392D01*
X1026Y1391D02*
X1033Y1391D01*
X1718Y1391D02*
X1725Y1391D01*
X1026Y1390D02*
X1033Y1390D01*
X1718Y1390D02*
X1725Y1390D01*
X1026Y1389D02*
X1033Y1389D01*
X1718Y1389D02*
X1725Y1389D01*
X1026Y1388D02*
X1033Y1388D01*
X1718Y1388D02*
X1725Y1388D01*
X1026Y1387D02*
X1033Y1387D01*
X1718Y1387D02*
X1725Y1387D01*
X1026Y1386D02*
X1033Y1386D01*
X1718Y1386D02*
X1725Y1386D01*
X1026Y1385D02*
X1033Y1385D01*
X1718Y1385D02*
X1725Y1385D01*
X1026Y1384D02*
X1033Y1384D01*
X1718Y1384D02*
X1725Y1384D01*
X1026Y1383D02*
X1033Y1383D01*
X1718Y1383D02*
X1725Y1383D01*
X1026Y1382D02*
X1033Y1382D01*
X1718Y1382D02*
X1725Y1382D01*
X1026Y1381D02*
X1033Y1381D01*
X1718Y1381D02*
X1725Y1381D01*
X1026Y1380D02*
X1033Y1380D01*
X1718Y1380D02*
X1725Y1380D01*
X1026Y1379D02*
X1033Y1379D01*
X1718Y1379D02*
X1725Y1379D01*
X1026Y1378D02*
X1033Y1378D01*
X1718Y1378D02*
X1725Y1378D01*
X1026Y1377D02*
X1033Y1377D01*
X1718Y1377D02*
X1725Y1377D01*
X1026Y1376D02*
X1033Y1376D01*
X1718Y1376D02*
X1725Y1376D01*
X1026Y1375D02*
X1033Y1375D01*
X1718Y1375D02*
X1725Y1375D01*
X1026Y1374D02*
X1033Y1374D01*
X1718Y1374D02*
X1725Y1374D01*
X1026Y1373D02*
X1033Y1373D01*
X1718Y1373D02*
X1725Y1373D01*
X1026Y1372D02*
X1033Y1372D01*
X1718Y1372D02*
X1725Y1372D01*
X1026Y1371D02*
X1033Y1371D01*
X1718Y1371D02*
X1725Y1371D01*
X1026Y1370D02*
X1033Y1370D01*
X1718Y1370D02*
X1725Y1370D01*
X1026Y1369D02*
X1033Y1369D01*
X1718Y1369D02*
X1725Y1369D01*
X1026Y1368D02*
X1033Y1368D01*
X1718Y1368D02*
X1725Y1368D01*
X1026Y1367D02*
X1033Y1367D01*
X1718Y1367D02*
X1725Y1367D01*
X1026Y1366D02*
X1033Y1366D01*
X1718Y1366D02*
X1725Y1366D01*
X1026Y1365D02*
X1033Y1365D01*
X1718Y1365D02*
X1725Y1365D01*
X1026Y1364D02*
X1033Y1364D01*
X1718Y1364D02*
X1725Y1364D01*
X1026Y1363D02*
X1033Y1363D01*
X1718Y1363D02*
X1725Y1363D01*
X1026Y1362D02*
X1033Y1362D01*
X1718Y1362D02*
X1725Y1362D01*
X1026Y1361D02*
X1033Y1361D01*
X1718Y1361D02*
X1725Y1361D01*
X1026Y1360D02*
X1033Y1360D01*
X1718Y1360D02*
X1725Y1360D01*
X1026Y1359D02*
X1033Y1359D01*
X1718Y1359D02*
X1725Y1359D01*
X1026Y1358D02*
X1033Y1358D01*
X1718Y1358D02*
X1725Y1358D01*
X1026Y1357D02*
X1033Y1357D01*
X1718Y1357D02*
X1725Y1357D01*
X1026Y1356D02*
X1033Y1356D01*
X1718Y1356D02*
X1725Y1356D01*
X1026Y1355D02*
X1033Y1355D01*
X1718Y1355D02*
X1725Y1355D01*
X1026Y1354D02*
X1033Y1354D01*
X1718Y1354D02*
X1725Y1354D01*
X1026Y1353D02*
X1033Y1353D01*
X1718Y1353D02*
X1725Y1353D01*
X1026Y1352D02*
X1033Y1352D01*
X1718Y1352D02*
X1725Y1352D01*
X1026Y1351D02*
X1033Y1351D01*
X1718Y1351D02*
X1725Y1351D01*
X1026Y1350D02*
X1033Y1350D01*
X1718Y1350D02*
X1725Y1350D01*
X1026Y1349D02*
X1033Y1349D01*
X1718Y1349D02*
X1725Y1349D01*
X1026Y1348D02*
X1033Y1348D01*
X1718Y1348D02*
X1725Y1348D01*
X1026Y1347D02*
X1033Y1347D01*
X1718Y1347D02*
X1725Y1347D01*
X1026Y1346D02*
X1033Y1346D01*
X1718Y1346D02*
X1725Y1346D01*
X1026Y1345D02*
X1033Y1345D01*
X1718Y1345D02*
X1725Y1345D01*
X1026Y1344D02*
X1033Y1344D01*
X1718Y1344D02*
X1725Y1344D01*
X1026Y1343D02*
X1033Y1343D01*
X1718Y1343D02*
X1725Y1343D01*
X1026Y1342D02*
X1033Y1342D01*
X1718Y1342D02*
X1725Y1342D01*
X1026Y1341D02*
X1033Y1341D01*
X1718Y1341D02*
X1725Y1341D01*
X1026Y1340D02*
X1033Y1340D01*
X1718Y1340D02*
X1725Y1340D01*
X1026Y1339D02*
X1033Y1339D01*
X1718Y1339D02*
X1725Y1339D01*
X1026Y1338D02*
X1033Y1338D01*
X1718Y1338D02*
X1725Y1338D01*
X1026Y1337D02*
X1033Y1337D01*
X1718Y1337D02*
X1725Y1337D01*
X1026Y1336D02*
X1033Y1336D01*
X1718Y1336D02*
X1725Y1336D01*
X1026Y1335D02*
X1033Y1335D01*
X1718Y1335D02*
X1725Y1335D01*
X1026Y1334D02*
X1033Y1334D01*
X1718Y1334D02*
X1725Y1334D01*
X1026Y1333D02*
X1033Y1333D01*
X1718Y1333D02*
X1725Y1333D01*
X1026Y1332D02*
X1033Y1332D01*
X1718Y1332D02*
X1725Y1332D01*
X1026Y1331D02*
X1033Y1331D01*
X1718Y1331D02*
X1725Y1331D01*
X1026Y1330D02*
X1033Y1330D01*
X1718Y1330D02*
X1725Y1330D01*
X1026Y1329D02*
X1033Y1329D01*
X1718Y1329D02*
X1725Y1329D01*
X1026Y1328D02*
X1033Y1328D01*
X1718Y1328D02*
X1725Y1328D01*
X1026Y1327D02*
X1033Y1327D01*
X1718Y1327D02*
X1725Y1327D01*
X1026Y1326D02*
X1033Y1326D01*
X1718Y1326D02*
X1725Y1326D01*
X1026Y1325D02*
X1033Y1325D01*
X1718Y1325D02*
X1725Y1325D01*
X1026Y1324D02*
X1033Y1324D01*
X1718Y1324D02*
X1725Y1324D01*
X1026Y1323D02*
X1033Y1323D01*
X1718Y1323D02*
X1725Y1323D01*
X1026Y1322D02*
X1033Y1322D01*
X1718Y1322D02*
X1725Y1322D01*
X1026Y1321D02*
X1033Y1321D01*
X1718Y1321D02*
X1725Y1321D01*
X1026Y1320D02*
X1033Y1320D01*
X1718Y1320D02*
X1725Y1320D01*
X1026Y1319D02*
X1033Y1319D01*
X1718Y1319D02*
X1725Y1319D01*
X1026Y1318D02*
X1033Y1318D01*
X1718Y1318D02*
X1725Y1318D01*
X1026Y1317D02*
X1033Y1317D01*
X1718Y1317D02*
X1725Y1317D01*
X1026Y1316D02*
X1033Y1316D01*
X1718Y1316D02*
X1725Y1316D01*
X1026Y1315D02*
X1033Y1315D01*
X1718Y1315D02*
X1725Y1315D01*
X1026Y1314D02*
X1033Y1314D01*
X1718Y1314D02*
X1725Y1314D01*
X1026Y1313D02*
X1033Y1313D01*
X1718Y1313D02*
X1725Y1313D01*
X1026Y1312D02*
X1033Y1312D01*
X1718Y1312D02*
X1725Y1312D01*
X1026Y1311D02*
X1033Y1311D01*
X1718Y1311D02*
X1725Y1311D01*
X1026Y1310D02*
X1033Y1310D01*
X1718Y1310D02*
X1725Y1310D01*
X1026Y1309D02*
X1033Y1309D01*
X1718Y1309D02*
X1725Y1309D01*
X1026Y1308D02*
X1033Y1308D01*
X1718Y1308D02*
X1725Y1308D01*
X1026Y1307D02*
X1033Y1307D01*
X1718Y1307D02*
X1725Y1307D01*
X1026Y1306D02*
X1033Y1306D01*
X1718Y1306D02*
X1725Y1306D01*
X1026Y1305D02*
X1033Y1305D01*
X1718Y1305D02*
X1725Y1305D01*
X1026Y1304D02*
X1033Y1304D01*
X1718Y1304D02*
X1725Y1304D01*
X1026Y1303D02*
X1033Y1303D01*
X1718Y1303D02*
X1725Y1303D01*
X1026Y1302D02*
X1033Y1302D01*
X1718Y1302D02*
X1725Y1302D01*
X1026Y1301D02*
X1033Y1301D01*
X1718Y1301D02*
X1725Y1301D01*
X1026Y1300D02*
X1033Y1300D01*
X1718Y1300D02*
X1725Y1300D01*
X1026Y1299D02*
X1033Y1299D01*
X1718Y1299D02*
X1725Y1299D01*
X1026Y1298D02*
X1033Y1298D01*
X1718Y1298D02*
X1725Y1298D01*
X1026Y1297D02*
X1033Y1297D01*
X1718Y1297D02*
X1725Y1297D01*
X1026Y1296D02*
X1033Y1296D01*
X1718Y1296D02*
X1725Y1296D01*
X1026Y1295D02*
X1033Y1295D01*
X1718Y1295D02*
X1725Y1295D01*
X1026Y1294D02*
X1033Y1294D01*
X1718Y1294D02*
X1725Y1294D01*
X1026Y1293D02*
X1033Y1293D01*
X1718Y1293D02*
X1725Y1293D01*
X1026Y1292D02*
X1033Y1292D01*
X1718Y1292D02*
X1725Y1292D01*
X1026Y1291D02*
X1033Y1291D01*
X1718Y1291D02*
X1725Y1291D01*
X1026Y1290D02*
X1033Y1290D01*
X1718Y1290D02*
X1725Y1290D01*
X1026Y1289D02*
X1033Y1289D01*
X1718Y1289D02*
X1725Y1289D01*
X1026Y1288D02*
X1033Y1288D01*
X1718Y1288D02*
X1725Y1288D01*
X1026Y1287D02*
X1033Y1287D01*
X1718Y1287D02*
X1725Y1287D01*
X1026Y1286D02*
X1033Y1286D01*
X1718Y1286D02*
X1725Y1286D01*
X1026Y1285D02*
X1033Y1285D01*
X1718Y1285D02*
X1725Y1285D01*
X1026Y1284D02*
X1033Y1284D01*
X1718Y1284D02*
X1725Y1284D01*
X1026Y1283D02*
X1033Y1283D01*
X1718Y1283D02*
X1725Y1283D01*
X1026Y1282D02*
X1033Y1282D01*
X1718Y1282D02*
X1725Y1282D01*
X1026Y1281D02*
X1033Y1281D01*
X1718Y1281D02*
X1725Y1281D01*
X1026Y1280D02*
X1033Y1280D01*
X1718Y1280D02*
X1725Y1280D01*
X1026Y1279D02*
X1033Y1279D01*
X1718Y1279D02*
X1725Y1279D01*
X1026Y1278D02*
X1033Y1278D01*
X1718Y1278D02*
X1725Y1278D01*
X1026Y1277D02*
X1033Y1277D01*
X1718Y1277D02*
X1725Y1277D01*
X1026Y1276D02*
X1033Y1276D01*
X1718Y1276D02*
X1725Y1276D01*
X1026Y1275D02*
X1033Y1275D01*
X1718Y1275D02*
X1725Y1275D01*
X1026Y1274D02*
X1033Y1274D01*
X1718Y1274D02*
X1725Y1274D01*
X1026Y1273D02*
X1033Y1273D01*
X1718Y1273D02*
X1725Y1273D01*
X1026Y1272D02*
X1033Y1272D01*
X1718Y1272D02*
X1725Y1272D01*
X1026Y1271D02*
X1033Y1271D01*
X1718Y1271D02*
X1725Y1271D01*
X1026Y1270D02*
X1033Y1270D01*
X1718Y1270D02*
X1725Y1270D01*
X1026Y1269D02*
X1033Y1269D01*
X1718Y1269D02*
X1725Y1269D01*
X1026Y1268D02*
X1033Y1268D01*
X1718Y1268D02*
X1725Y1268D01*
X1026Y1267D02*
X1033Y1267D01*
X1718Y1267D02*
X1725Y1267D01*
X1026Y1266D02*
X1033Y1266D01*
X1718Y1266D02*
X1725Y1266D01*
X1026Y1265D02*
X1033Y1265D01*
X1718Y1265D02*
X1725Y1265D01*
X1026Y1264D02*
X1033Y1264D01*
X1718Y1264D02*
X1725Y1264D01*
X1026Y1263D02*
X1033Y1263D01*
X1718Y1263D02*
X1725Y1263D01*
X1026Y1262D02*
X1033Y1262D01*
X1718Y1262D02*
X1725Y1262D01*
X1026Y1261D02*
X1033Y1261D01*
X1718Y1261D02*
X1725Y1261D01*
X1026Y1260D02*
X1033Y1260D01*
X1718Y1260D02*
X1725Y1260D01*
X1026Y1259D02*
X1033Y1259D01*
X1718Y1259D02*
X1725Y1259D01*
X1026Y1258D02*
X1033Y1258D01*
X1718Y1258D02*
X1725Y1258D01*
X1026Y1257D02*
X1033Y1257D01*
X1718Y1257D02*
X1725Y1257D01*
X1026Y1256D02*
X1033Y1256D01*
X1718Y1256D02*
X1725Y1256D01*
X1026Y1255D02*
X1033Y1255D01*
X1718Y1255D02*
X1725Y1255D01*
X1026Y1254D02*
X1033Y1254D01*
X1718Y1254D02*
X1725Y1254D01*
X1026Y1253D02*
X1033Y1253D01*
X1718Y1253D02*
X1725Y1253D01*
X1026Y1252D02*
X1033Y1252D01*
X1718Y1252D02*
X1725Y1252D01*
X1026Y1251D02*
X1033Y1251D01*
X1718Y1251D02*
X1725Y1251D01*
X1026Y1250D02*
X1033Y1250D01*
X1718Y1250D02*
X1725Y1250D01*
X1026Y1249D02*
X1033Y1249D01*
X1718Y1249D02*
X1725Y1249D01*
X1026Y1248D02*
X1033Y1248D01*
X1718Y1248D02*
X1725Y1248D01*
X1026Y1247D02*
X1033Y1247D01*
X1718Y1247D02*
X1725Y1247D01*
X1026Y1246D02*
X1033Y1246D01*
X1718Y1246D02*
X1725Y1246D01*
X1026Y1245D02*
X1033Y1245D01*
X1718Y1245D02*
X1725Y1245D01*
X1026Y1244D02*
X1033Y1244D01*
X1718Y1244D02*
X1725Y1244D01*
X1026Y1243D02*
X1033Y1243D01*
X1718Y1243D02*
X1725Y1243D01*
X1026Y1242D02*
X1033Y1242D01*
X1718Y1242D02*
X1725Y1242D01*
X1026Y1241D02*
X1033Y1241D01*
X1718Y1241D02*
X1725Y1241D01*
X1026Y1240D02*
X1033Y1240D01*
X1718Y1240D02*
X1725Y1240D01*
X1026Y1239D02*
X1033Y1239D01*
X1718Y1239D02*
X1725Y1239D01*
X1026Y1238D02*
X1033Y1238D01*
X1718Y1238D02*
X1725Y1238D01*
X1026Y1237D02*
X1033Y1237D01*
X1718Y1237D02*
X1725Y1237D01*
X1026Y1236D02*
X1033Y1236D01*
X1718Y1236D02*
X1725Y1236D01*
X1026Y1235D02*
X1033Y1235D01*
X1718Y1235D02*
X1725Y1235D01*
X1026Y1234D02*
X1033Y1234D01*
X1718Y1234D02*
X1725Y1234D01*
X1026Y1233D02*
X1033Y1233D01*
X1718Y1233D02*
X1725Y1233D01*
X1026Y1232D02*
X1033Y1232D01*
X1718Y1232D02*
X1725Y1232D01*
X1026Y1231D02*
X1033Y1231D01*
X1718Y1231D02*
X1725Y1231D01*
X1026Y1230D02*
X1033Y1230D01*
X1718Y1230D02*
X1725Y1230D01*
X1026Y1229D02*
X1033Y1229D01*
X1718Y1229D02*
X1725Y1229D01*
X1026Y1228D02*
X1033Y1228D01*
X1718Y1228D02*
X1725Y1228D01*
X1026Y1227D02*
X1033Y1227D01*
X1718Y1227D02*
X1725Y1227D01*
X1026Y1226D02*
X1033Y1226D01*
X1718Y1226D02*
X1725Y1226D01*
X1026Y1225D02*
X1033Y1225D01*
X1718Y1225D02*
X1725Y1225D01*
X1026Y1224D02*
X1033Y1224D01*
X1718Y1224D02*
X1725Y1224D01*
X1026Y1223D02*
X1033Y1223D01*
X1718Y1223D02*
X1725Y1223D01*
X1026Y1222D02*
X1033Y1222D01*
X1718Y1222D02*
X1725Y1222D01*
X1026Y1221D02*
X1033Y1221D01*
X1718Y1221D02*
X1725Y1221D01*
X1026Y1220D02*
X1033Y1220D01*
X1718Y1220D02*
X1725Y1220D01*
X1026Y1219D02*
X1033Y1219D01*
X1718Y1219D02*
X1725Y1219D01*
X1026Y1218D02*
X1033Y1218D01*
X1718Y1218D02*
X1725Y1218D01*
X1026Y1217D02*
X1033Y1217D01*
X1718Y1217D02*
X1725Y1217D01*
X1026Y1216D02*
X1033Y1216D01*
X1718Y1216D02*
X1725Y1216D01*
X1026Y1215D02*
X1033Y1215D01*
X1718Y1215D02*
X1725Y1215D01*
X1026Y1214D02*
X1033Y1214D01*
X1718Y1214D02*
X1725Y1214D01*
X1026Y1213D02*
X1033Y1213D01*
X1718Y1213D02*
X1725Y1213D01*
X1026Y1212D02*
X1033Y1212D01*
X1718Y1212D02*
X1725Y1212D01*
X1026Y1211D02*
X1033Y1211D01*
X1718Y1211D02*
X1725Y1211D01*
X1026Y1210D02*
X1033Y1210D01*
X1718Y1210D02*
X1725Y1210D01*
X1026Y1209D02*
X1033Y1209D01*
X1718Y1209D02*
X1725Y1209D01*
X1026Y1208D02*
X1033Y1208D01*
X1718Y1208D02*
X1725Y1208D01*
X1026Y1207D02*
X1033Y1207D01*
X1718Y1207D02*
X1725Y1207D01*
X1026Y1206D02*
X1033Y1206D01*
X1718Y1206D02*
X1725Y1206D01*
X1026Y1205D02*
X1033Y1205D01*
X1718Y1205D02*
X1725Y1205D01*
X1026Y1204D02*
X1033Y1204D01*
X1718Y1204D02*
X1725Y1204D01*
X1026Y1203D02*
X1033Y1203D01*
X1718Y1203D02*
X1725Y1203D01*
X1026Y1202D02*
X1033Y1202D01*
X1718Y1202D02*
X1725Y1202D01*
X1026Y1201D02*
X1033Y1201D01*
X1718Y1201D02*
X1725Y1201D01*
X1026Y1200D02*
X1033Y1200D01*
X1718Y1200D02*
X1725Y1200D01*
X1026Y1199D02*
X1033Y1199D01*
X1718Y1199D02*
X1725Y1199D01*
X1026Y1198D02*
X1033Y1198D01*
X1718Y1198D02*
X1725Y1198D01*
X1026Y1197D02*
X1033Y1197D01*
X1718Y1197D02*
X1725Y1197D01*
X1026Y1196D02*
X1033Y1196D01*
X1718Y1196D02*
X1725Y1196D01*
X1026Y1195D02*
X1033Y1195D01*
X1718Y1195D02*
X1725Y1195D01*
X1026Y1194D02*
X1033Y1194D01*
X1718Y1194D02*
X1725Y1194D01*
X1026Y1193D02*
X1033Y1193D01*
X1718Y1193D02*
X1725Y1193D01*
X1026Y1192D02*
X1033Y1192D01*
X1718Y1192D02*
X1725Y1192D01*
X1026Y1191D02*
X1033Y1191D01*
X1718Y1191D02*
X1725Y1191D01*
X1026Y1190D02*
X1033Y1190D01*
X1718Y1190D02*
X1725Y1190D01*
X1026Y1189D02*
X1033Y1189D01*
X1718Y1189D02*
X1725Y1189D01*
X1026Y1188D02*
X1033Y1188D01*
X1718Y1188D02*
X1725Y1188D01*
X1026Y1187D02*
X1725Y1187D01*
X1026Y1186D02*
X1725Y1186D01*
X1026Y1185D02*
X1725Y1185D01*
X1026Y1184D02*
X1725Y1184D01*
X1026Y1183D02*
X1725Y1183D01*
X1026Y1182D02*
X1725Y1182D01*
X1026Y1181D02*
X1725Y1181D01*
X1026Y1180D02*
X1725Y1180D01*
D02*
G04 End of Silk1*
M02*