; NON-PLATED HOLES START AT T1
; THROUGH (PLATED) HOLES START AT T100
M48
INCH
T1C0.125984
T100C0.039370
T101C0.048028
T102C0.036000
%
T1
X001183Y027796
X025087Y027629
X025112Y018759
X025087Y023129
X001072Y013959
X001072Y018459
X025112Y014259
X001183Y023296
T100
X004683Y024296
X022587Y024129
X004572Y014959
X022587Y026129
X003683Y024796
X003683Y025796
X004683Y026296
X022612Y016259
X004683Y025296
X021587Y023629
X003572Y017459
X004572Y017959
X003683Y026796
X004683Y027296
X003572Y016459
X021587Y026629
X021612Y017759
X022587Y025129
X022612Y015259
X022612Y017259
X004572Y016959
X003572Y015459
X021612Y016759
X003683Y023796
X022587Y027129
X022612Y018259
X021587Y024629
X021587Y025629
X021612Y015759
X021612Y014759
X003572Y014459
X004572Y015959
T101
X021334Y011143
X003334Y007143
X004333Y011143
X004333Y007143
X022334Y007143
X022334Y011143
X021334Y007143
X003334Y011143
T102
X016759Y021291
X010759Y023291
X010759Y022291
X016759Y019291
X010759Y015291
X010759Y013291
X010759Y016291
X016759Y015291
X016759Y014291
X010759Y027291
X010759Y019291
X016759Y026291
X016759Y013291
X016759Y016291
X010759Y020291
X010759Y021291
X016759Y022291
X016759Y027291
X016759Y023291
X010759Y014291
X016759Y018291
X010759Y025291
X016759Y025291
X010759Y026291
X010759Y024291
X016759Y020291
X010759Y017291
X016759Y017291
X010759Y018291
X016759Y024291
T00
M30
