G04 MADE WITH FRITZING*
G04 WWW.FRITZING.ORG*
G04 DOUBLE SIDED*
G04 HOLES PLATED*
G04 CONTOUR ON CENTER OF CONTOUR VECTOR*
%ASAXBY*%
%FSLAX23Y23*%
%MOIN*%
%OFA0B0*%
%SFA1.0B1.0*%
%ADD10C,0.080000*%
%ADD11C,0.084000*%
%ADD12C,0.135984*%
%ADD13R,0.079972X0.080000*%
%ADD14R,0.001000X0.001000*%
%LNMASK1*%
G90*
G70*
G54D10*
X1676Y1329D03*
X1676Y1429D03*
X1676Y1529D03*
X1676Y1629D03*
X1676Y1729D03*
X1676Y1829D03*
X1676Y1929D03*
X1676Y2029D03*
X1676Y2129D03*
X1676Y2229D03*
X1676Y2329D03*
X1676Y2429D03*
X1676Y2529D03*
X1676Y2629D03*
X1676Y2729D03*
X1076Y1329D03*
X1076Y1429D03*
X1076Y1529D03*
X1076Y1629D03*
X1076Y1729D03*
X1076Y1829D03*
X1076Y1929D03*
X1076Y2029D03*
X1076Y2129D03*
X1076Y2229D03*
X1076Y2329D03*
X1076Y2429D03*
X1076Y2529D03*
X1076Y2629D03*
X1076Y2729D03*
G54D11*
X2161Y1476D03*
X2261Y1526D03*
X2161Y1576D03*
X2161Y1676D03*
X2161Y1776D03*
X2261Y1626D03*
X2261Y1726D03*
X2261Y1826D03*
G54D12*
X2511Y1876D03*
X2511Y1426D03*
G54D11*
X2161Y1476D03*
X2261Y1526D03*
X2161Y1576D03*
X2161Y1676D03*
X2161Y1776D03*
X2261Y1626D03*
X2261Y1726D03*
X2261Y1826D03*
G54D12*
X2511Y1876D03*
X2511Y1426D03*
G54D11*
X468Y2730D03*
X368Y2680D03*
X468Y2630D03*
X468Y2530D03*
X468Y2430D03*
X368Y2580D03*
X368Y2480D03*
X368Y2380D03*
G54D12*
X118Y2330D03*
X118Y2780D03*
G54D11*
X468Y2730D03*
X368Y2680D03*
X468Y2630D03*
X468Y2530D03*
X468Y2430D03*
X368Y2580D03*
X368Y2480D03*
X368Y2380D03*
G54D12*
X118Y2330D03*
X118Y2780D03*
G54D11*
X457Y1796D03*
X357Y1746D03*
X457Y1696D03*
X457Y1596D03*
X457Y1496D03*
X357Y1646D03*
X357Y1546D03*
X357Y1446D03*
G54D12*
X107Y1396D03*
X107Y1846D03*
G54D11*
X457Y1796D03*
X357Y1746D03*
X457Y1696D03*
X457Y1596D03*
X457Y1496D03*
X357Y1646D03*
X357Y1546D03*
X357Y1446D03*
G54D12*
X107Y1396D03*
X107Y1846D03*
G54D11*
X2159Y2363D03*
X2259Y2413D03*
X2159Y2463D03*
X2159Y2563D03*
X2159Y2663D03*
X2259Y2513D03*
X2259Y2613D03*
X2259Y2713D03*
G54D12*
X2509Y2763D03*
X2509Y2313D03*
G54D11*
X2159Y2363D03*
X2259Y2413D03*
X2159Y2463D03*
X2159Y2563D03*
X2159Y2663D03*
X2259Y2513D03*
X2259Y2613D03*
X2259Y2713D03*
G54D12*
X2509Y2763D03*
X2509Y2313D03*
G54D13*
X1676Y1329D03*
G54D14*
X2217Y2755D02*
X2299Y2755D01*
X2217Y2754D02*
X2300Y2754D01*
X2217Y2753D02*
X2300Y2753D01*
X2217Y2752D02*
X2300Y2752D01*
X2217Y2751D02*
X2300Y2751D01*
X2217Y2750D02*
X2300Y2750D01*
X2217Y2749D02*
X2300Y2749D01*
X2217Y2748D02*
X2300Y2748D01*
X2217Y2747D02*
X2300Y2747D01*
X2217Y2746D02*
X2300Y2746D01*
X2217Y2745D02*
X2300Y2745D01*
X2217Y2744D02*
X2300Y2744D01*
X2217Y2743D02*
X2300Y2743D01*
X2217Y2742D02*
X2300Y2742D01*
X2217Y2741D02*
X2300Y2741D01*
X2217Y2740D02*
X2300Y2740D01*
X2217Y2739D02*
X2300Y2739D01*
X2217Y2738D02*
X2300Y2738D01*
X2217Y2737D02*
X2300Y2737D01*
X2217Y2736D02*
X2300Y2736D01*
X2217Y2735D02*
X2300Y2735D01*
X2217Y2734D02*
X2300Y2734D01*
X2217Y2733D02*
X2300Y2733D01*
X2217Y2732D02*
X2300Y2732D01*
X2217Y2731D02*
X2300Y2731D01*
X2217Y2730D02*
X2300Y2730D01*
X2217Y2729D02*
X2300Y2729D01*
X2217Y2728D02*
X2300Y2728D01*
X2217Y2727D02*
X2252Y2727D01*
X2264Y2727D02*
X2300Y2727D01*
X2217Y2726D02*
X2250Y2726D01*
X2266Y2726D02*
X2300Y2726D01*
X2217Y2725D02*
X2249Y2725D01*
X2267Y2725D02*
X2300Y2725D01*
X2217Y2724D02*
X2248Y2724D01*
X2269Y2724D02*
X2300Y2724D01*
X2217Y2723D02*
X2247Y2723D01*
X2269Y2723D02*
X2300Y2723D01*
X2217Y2722D02*
X2246Y2722D01*
X2270Y2722D02*
X2300Y2722D01*
X2217Y2721D02*
X2245Y2721D01*
X2271Y2721D02*
X2300Y2721D01*
X2217Y2720D02*
X2245Y2720D01*
X2272Y2720D02*
X2300Y2720D01*
X2217Y2719D02*
X2244Y2719D01*
X2272Y2719D02*
X2300Y2719D01*
X2217Y2718D02*
X2244Y2718D01*
X2272Y2718D02*
X2300Y2718D01*
X2217Y2717D02*
X2243Y2717D01*
X2273Y2717D02*
X2300Y2717D01*
X2217Y2716D02*
X2243Y2716D01*
X2273Y2716D02*
X2300Y2716D01*
X2217Y2715D02*
X2243Y2715D01*
X2273Y2715D02*
X2300Y2715D01*
X2217Y2714D02*
X2243Y2714D01*
X2273Y2714D02*
X2300Y2714D01*
X2217Y2713D02*
X2243Y2713D01*
X2273Y2713D02*
X2300Y2713D01*
X2217Y2712D02*
X2243Y2712D01*
X2273Y2712D02*
X2300Y2712D01*
X2217Y2711D02*
X2243Y2711D01*
X2273Y2711D02*
X2300Y2711D01*
X2217Y2710D02*
X2243Y2710D01*
X2273Y2710D02*
X2300Y2710D01*
X2217Y2709D02*
X2244Y2709D01*
X2273Y2709D02*
X2300Y2709D01*
X2217Y2708D02*
X2244Y2708D01*
X2272Y2708D02*
X2300Y2708D01*
X2217Y2707D02*
X2244Y2707D01*
X2272Y2707D02*
X2300Y2707D01*
X2217Y2706D02*
X2245Y2706D01*
X2271Y2706D02*
X2300Y2706D01*
X2217Y2705D02*
X2245Y2705D01*
X2271Y2705D02*
X2300Y2705D01*
X2217Y2704D02*
X2246Y2704D01*
X2270Y2704D02*
X2300Y2704D01*
X2217Y2703D02*
X2247Y2703D01*
X2269Y2703D02*
X2300Y2703D01*
X2217Y2702D02*
X2248Y2702D01*
X2268Y2702D02*
X2300Y2702D01*
X2217Y2701D02*
X2249Y2701D01*
X2267Y2701D02*
X2300Y2701D01*
X2217Y2700D02*
X2251Y2700D01*
X2265Y2700D02*
X2300Y2700D01*
X2217Y2699D02*
X2254Y2699D01*
X2262Y2699D02*
X2300Y2699D01*
X2217Y2698D02*
X2300Y2698D01*
X2217Y2697D02*
X2300Y2697D01*
X2217Y2696D02*
X2300Y2696D01*
X2217Y2695D02*
X2300Y2695D01*
X2217Y2694D02*
X2300Y2694D01*
X2217Y2693D02*
X2300Y2693D01*
X2217Y2692D02*
X2300Y2692D01*
X2217Y2691D02*
X2300Y2691D01*
X2217Y2690D02*
X2300Y2690D01*
X2217Y2689D02*
X2300Y2689D01*
X2217Y2688D02*
X2300Y2688D01*
X2217Y2687D02*
X2300Y2687D01*
X2217Y2686D02*
X2300Y2686D01*
X2217Y2685D02*
X2300Y2685D01*
X2217Y2684D02*
X2300Y2684D01*
X2217Y2683D02*
X2300Y2683D01*
X2217Y2682D02*
X2300Y2682D01*
X2217Y2681D02*
X2300Y2681D01*
X2217Y2680D02*
X2300Y2680D01*
X2217Y2679D02*
X2300Y2679D01*
X2217Y2678D02*
X2300Y2678D01*
X2217Y2677D02*
X2300Y2677D01*
X2217Y2676D02*
X2300Y2676D01*
X2217Y2675D02*
X2300Y2675D01*
X2217Y2674D02*
X2300Y2674D01*
X2217Y2673D02*
X2300Y2673D01*
X2217Y2672D02*
X2300Y2672D01*
X326Y2421D02*
X409Y2421D01*
X326Y2420D02*
X409Y2420D01*
X326Y2419D02*
X409Y2419D01*
X326Y2418D02*
X409Y2418D01*
X326Y2417D02*
X409Y2417D01*
X326Y2416D02*
X409Y2416D01*
X326Y2415D02*
X409Y2415D01*
X326Y2414D02*
X409Y2414D01*
X326Y2413D02*
X409Y2413D01*
X326Y2412D02*
X409Y2412D01*
X326Y2411D02*
X409Y2411D01*
X326Y2410D02*
X409Y2410D01*
X326Y2409D02*
X409Y2409D01*
X326Y2408D02*
X409Y2408D01*
X326Y2407D02*
X409Y2407D01*
X326Y2406D02*
X409Y2406D01*
X326Y2405D02*
X409Y2405D01*
X326Y2404D02*
X409Y2404D01*
X326Y2403D02*
X409Y2403D01*
X326Y2402D02*
X409Y2402D01*
X326Y2401D02*
X409Y2401D01*
X326Y2400D02*
X409Y2400D01*
X326Y2399D02*
X409Y2399D01*
X326Y2398D02*
X409Y2398D01*
X326Y2397D02*
X409Y2397D01*
X326Y2396D02*
X409Y2396D01*
X326Y2395D02*
X409Y2395D01*
X326Y2394D02*
X363Y2394D01*
X373Y2394D02*
X409Y2394D01*
X326Y2393D02*
X361Y2393D01*
X375Y2393D02*
X409Y2393D01*
X326Y2392D02*
X359Y2392D01*
X377Y2392D02*
X409Y2392D01*
X326Y2391D02*
X358Y2391D01*
X378Y2391D02*
X409Y2391D01*
X326Y2390D02*
X357Y2390D01*
X379Y2390D02*
X409Y2390D01*
X326Y2389D02*
X356Y2389D01*
X380Y2389D02*
X409Y2389D01*
X326Y2388D02*
X355Y2388D01*
X381Y2388D02*
X409Y2388D01*
X326Y2387D02*
X354Y2387D01*
X381Y2387D02*
X409Y2387D01*
X326Y2386D02*
X354Y2386D01*
X382Y2386D02*
X409Y2386D01*
X326Y2385D02*
X354Y2385D01*
X382Y2385D02*
X409Y2385D01*
X326Y2384D02*
X353Y2384D01*
X382Y2384D02*
X409Y2384D01*
X326Y2383D02*
X353Y2383D01*
X383Y2383D02*
X409Y2383D01*
X326Y2382D02*
X353Y2382D01*
X383Y2382D02*
X409Y2382D01*
X326Y2381D02*
X353Y2381D01*
X383Y2381D02*
X409Y2381D01*
X326Y2380D02*
X353Y2380D01*
X383Y2380D02*
X409Y2380D01*
X326Y2379D02*
X353Y2379D01*
X383Y2379D02*
X409Y2379D01*
X326Y2378D02*
X353Y2378D01*
X383Y2378D02*
X409Y2378D01*
X326Y2377D02*
X353Y2377D01*
X383Y2377D02*
X409Y2377D01*
X326Y2376D02*
X353Y2376D01*
X383Y2376D02*
X409Y2376D01*
X326Y2375D02*
X353Y2375D01*
X382Y2375D02*
X409Y2375D01*
X326Y2374D02*
X354Y2374D01*
X382Y2374D02*
X409Y2374D01*
X326Y2373D02*
X354Y2373D01*
X381Y2373D02*
X409Y2373D01*
X326Y2372D02*
X355Y2372D01*
X381Y2372D02*
X409Y2372D01*
X326Y2371D02*
X356Y2371D01*
X380Y2371D02*
X409Y2371D01*
X326Y2370D02*
X357Y2370D01*
X379Y2370D02*
X409Y2370D01*
X326Y2369D02*
X358Y2369D01*
X378Y2369D02*
X409Y2369D01*
X326Y2368D02*
X359Y2368D01*
X377Y2368D02*
X409Y2368D01*
X326Y2367D02*
X360Y2367D01*
X375Y2367D02*
X409Y2367D01*
X326Y2366D02*
X363Y2366D01*
X373Y2366D02*
X409Y2366D01*
X326Y2365D02*
X409Y2365D01*
X326Y2364D02*
X409Y2364D01*
X326Y2363D02*
X409Y2363D01*
X326Y2362D02*
X409Y2362D01*
X326Y2361D02*
X409Y2361D01*
X326Y2360D02*
X409Y2360D01*
X326Y2359D02*
X409Y2359D01*
X326Y2358D02*
X409Y2358D01*
X326Y2357D02*
X409Y2357D01*
X326Y2356D02*
X409Y2356D01*
X326Y2355D02*
X409Y2355D01*
X326Y2354D02*
X409Y2354D01*
X326Y2353D02*
X409Y2353D01*
X326Y2352D02*
X409Y2352D01*
X326Y2351D02*
X409Y2351D01*
X326Y2350D02*
X409Y2350D01*
X326Y2349D02*
X409Y2349D01*
X326Y2348D02*
X409Y2348D01*
X326Y2347D02*
X409Y2347D01*
X326Y2346D02*
X409Y2346D01*
X326Y2345D02*
X409Y2345D01*
X326Y2344D02*
X409Y2344D01*
X326Y2343D02*
X409Y2343D01*
X326Y2342D02*
X409Y2342D01*
X326Y2341D02*
X409Y2341D01*
X326Y2340D02*
X409Y2340D01*
X326Y2339D02*
X409Y2339D01*
X327Y2338D02*
X409Y2338D01*
X2219Y1868D02*
X2302Y1868D01*
X2219Y1867D02*
X2302Y1867D01*
X2219Y1866D02*
X2302Y1866D01*
X2219Y1865D02*
X2302Y1865D01*
X2219Y1864D02*
X2302Y1864D01*
X2219Y1863D02*
X2302Y1863D01*
X2219Y1862D02*
X2302Y1862D01*
X2219Y1861D02*
X2302Y1861D01*
X2219Y1860D02*
X2302Y1860D01*
X2219Y1859D02*
X2302Y1859D01*
X2219Y1858D02*
X2302Y1858D01*
X2219Y1857D02*
X2302Y1857D01*
X2219Y1856D02*
X2302Y1856D01*
X2219Y1855D02*
X2302Y1855D01*
X2219Y1854D02*
X2302Y1854D01*
X2219Y1853D02*
X2302Y1853D01*
X2219Y1852D02*
X2302Y1852D01*
X2219Y1851D02*
X2302Y1851D01*
X2219Y1850D02*
X2302Y1850D01*
X2219Y1849D02*
X2302Y1849D01*
X2219Y1848D02*
X2302Y1848D01*
X2219Y1847D02*
X2302Y1847D01*
X2219Y1846D02*
X2302Y1846D01*
X2219Y1845D02*
X2302Y1845D01*
X2219Y1844D02*
X2302Y1844D01*
X2219Y1843D02*
X2302Y1843D01*
X2219Y1842D02*
X2302Y1842D01*
X2219Y1841D02*
X2302Y1841D01*
X2219Y1840D02*
X2255Y1840D01*
X2266Y1840D02*
X2302Y1840D01*
X2219Y1839D02*
X2253Y1839D01*
X2268Y1839D02*
X2302Y1839D01*
X2219Y1838D02*
X2251Y1838D01*
X2270Y1838D02*
X2302Y1838D01*
X2219Y1837D02*
X2250Y1837D01*
X2271Y1837D02*
X2302Y1837D01*
X2219Y1836D02*
X2249Y1836D01*
X2272Y1836D02*
X2302Y1836D01*
X2219Y1835D02*
X2248Y1835D01*
X2273Y1835D02*
X2302Y1835D01*
X2219Y1834D02*
X2248Y1834D01*
X2274Y1834D02*
X2302Y1834D01*
X2219Y1833D02*
X2247Y1833D01*
X2274Y1833D02*
X2302Y1833D01*
X2219Y1832D02*
X2246Y1832D01*
X2275Y1832D02*
X2302Y1832D01*
X2219Y1831D02*
X2246Y1831D01*
X2275Y1831D02*
X2302Y1831D01*
X2219Y1830D02*
X2246Y1830D01*
X2275Y1830D02*
X2302Y1830D01*
X2219Y1829D02*
X2246Y1829D01*
X2275Y1829D02*
X2302Y1829D01*
X2219Y1828D02*
X2245Y1828D01*
X2276Y1828D02*
X2302Y1828D01*
X2219Y1827D02*
X2245Y1827D01*
X2276Y1827D02*
X2302Y1827D01*
X2219Y1826D02*
X2245Y1826D01*
X2276Y1826D02*
X2302Y1826D01*
X2219Y1825D02*
X2245Y1825D01*
X2276Y1825D02*
X2302Y1825D01*
X2219Y1824D02*
X2246Y1824D01*
X2276Y1824D02*
X2302Y1824D01*
X2219Y1823D02*
X2246Y1823D01*
X2275Y1823D02*
X2302Y1823D01*
X2219Y1822D02*
X2246Y1822D01*
X2275Y1822D02*
X2302Y1822D01*
X2219Y1821D02*
X2246Y1821D01*
X2275Y1821D02*
X2302Y1821D01*
X2219Y1820D02*
X2247Y1820D01*
X2274Y1820D02*
X2302Y1820D01*
X2219Y1819D02*
X2247Y1819D01*
X2274Y1819D02*
X2302Y1819D01*
X2219Y1818D02*
X2248Y1818D01*
X2273Y1818D02*
X2302Y1818D01*
X2219Y1817D02*
X2249Y1817D01*
X2272Y1817D02*
X2302Y1817D01*
X2219Y1816D02*
X2250Y1816D01*
X2271Y1816D02*
X2302Y1816D01*
X2219Y1815D02*
X2251Y1815D01*
X2270Y1815D02*
X2302Y1815D01*
X2219Y1814D02*
X2252Y1814D01*
X2269Y1814D02*
X2302Y1814D01*
X2219Y1813D02*
X2254Y1813D01*
X2267Y1813D02*
X2302Y1813D01*
X2219Y1812D02*
X2256Y1812D01*
X2265Y1812D02*
X2302Y1812D01*
X2219Y1811D02*
X2302Y1811D01*
X2219Y1810D02*
X2302Y1810D01*
X2219Y1809D02*
X2302Y1809D01*
X2219Y1808D02*
X2302Y1808D01*
X2219Y1807D02*
X2302Y1807D01*
X2219Y1806D02*
X2302Y1806D01*
X2219Y1805D02*
X2302Y1805D01*
X2219Y1804D02*
X2302Y1804D01*
X2219Y1803D02*
X2302Y1803D01*
X2219Y1802D02*
X2302Y1802D01*
X2219Y1801D02*
X2302Y1801D01*
X2219Y1800D02*
X2302Y1800D01*
X2219Y1799D02*
X2302Y1799D01*
X2219Y1798D02*
X2302Y1798D01*
X2219Y1797D02*
X2302Y1797D01*
X2219Y1796D02*
X2302Y1796D01*
X2219Y1795D02*
X2302Y1795D01*
X2219Y1794D02*
X2302Y1794D01*
X2219Y1793D02*
X2302Y1793D01*
X2219Y1792D02*
X2302Y1792D01*
X2219Y1791D02*
X2302Y1791D01*
X2219Y1790D02*
X2302Y1790D01*
X2219Y1789D02*
X2302Y1789D01*
X2219Y1788D02*
X2302Y1788D01*
X2219Y1787D02*
X2302Y1787D01*
X2219Y1786D02*
X2302Y1786D01*
X2219Y1785D02*
X2302Y1785D01*
X315Y1488D02*
X398Y1488D01*
X315Y1487D02*
X398Y1487D01*
X315Y1486D02*
X398Y1486D01*
X315Y1485D02*
X398Y1485D01*
X315Y1484D02*
X398Y1484D01*
X315Y1483D02*
X398Y1483D01*
X315Y1482D02*
X398Y1482D01*
X315Y1481D02*
X398Y1481D01*
X315Y1480D02*
X398Y1480D01*
X315Y1479D02*
X398Y1479D01*
X315Y1478D02*
X398Y1478D01*
X315Y1477D02*
X398Y1477D01*
X315Y1476D02*
X398Y1476D01*
X315Y1475D02*
X398Y1475D01*
X315Y1474D02*
X398Y1474D01*
X315Y1473D02*
X398Y1473D01*
X315Y1472D02*
X398Y1472D01*
X315Y1471D02*
X398Y1471D01*
X315Y1470D02*
X398Y1470D01*
X315Y1469D02*
X398Y1469D01*
X315Y1468D02*
X398Y1468D01*
X315Y1467D02*
X398Y1467D01*
X315Y1466D02*
X398Y1466D01*
X315Y1465D02*
X398Y1465D01*
X315Y1464D02*
X398Y1464D01*
X315Y1463D02*
X398Y1463D01*
X315Y1462D02*
X398Y1462D01*
X315Y1461D02*
X398Y1461D01*
X315Y1460D02*
X351Y1460D01*
X363Y1460D02*
X398Y1460D01*
X315Y1459D02*
X349Y1459D01*
X365Y1459D02*
X398Y1459D01*
X315Y1458D02*
X347Y1458D01*
X366Y1458D02*
X398Y1458D01*
X315Y1457D02*
X346Y1457D01*
X367Y1457D02*
X398Y1457D01*
X315Y1456D02*
X345Y1456D01*
X368Y1456D02*
X398Y1456D01*
X315Y1455D02*
X344Y1455D01*
X369Y1455D02*
X398Y1455D01*
X315Y1454D02*
X344Y1454D01*
X370Y1454D02*
X398Y1454D01*
X315Y1453D02*
X343Y1453D01*
X370Y1453D02*
X398Y1453D01*
X315Y1452D02*
X343Y1452D01*
X371Y1452D02*
X398Y1452D01*
X315Y1451D02*
X342Y1451D01*
X371Y1451D02*
X398Y1451D01*
X315Y1450D02*
X342Y1450D01*
X371Y1450D02*
X398Y1450D01*
X315Y1449D02*
X342Y1449D01*
X372Y1449D02*
X398Y1449D01*
X315Y1448D02*
X342Y1448D01*
X372Y1448D02*
X398Y1448D01*
X315Y1447D02*
X342Y1447D01*
X372Y1447D02*
X398Y1447D01*
X315Y1446D02*
X342Y1446D01*
X372Y1446D02*
X398Y1446D01*
X315Y1445D02*
X342Y1445D01*
X372Y1445D02*
X398Y1445D01*
X315Y1444D02*
X342Y1444D01*
X372Y1444D02*
X398Y1444D01*
X315Y1443D02*
X342Y1443D01*
X372Y1443D02*
X398Y1443D01*
X315Y1442D02*
X342Y1442D01*
X371Y1442D02*
X398Y1442D01*
X315Y1441D02*
X342Y1441D01*
X371Y1441D02*
X398Y1441D01*
X315Y1440D02*
X343Y1440D01*
X371Y1440D02*
X398Y1440D01*
X315Y1439D02*
X343Y1439D01*
X370Y1439D02*
X398Y1439D01*
X315Y1438D02*
X344Y1438D01*
X369Y1438D02*
X398Y1438D01*
X315Y1437D02*
X345Y1437D01*
X369Y1437D02*
X398Y1437D01*
X315Y1436D02*
X346Y1436D01*
X368Y1436D02*
X398Y1436D01*
X315Y1435D02*
X347Y1435D01*
X366Y1435D02*
X398Y1435D01*
X315Y1434D02*
X348Y1434D01*
X365Y1434D02*
X398Y1434D01*
X315Y1433D02*
X350Y1433D01*
X363Y1433D02*
X398Y1433D01*
X315Y1432D02*
X353Y1432D01*
X361Y1432D02*
X398Y1432D01*
X315Y1431D02*
X398Y1431D01*
X315Y1430D02*
X398Y1430D01*
X315Y1429D02*
X398Y1429D01*
X315Y1428D02*
X398Y1428D01*
X315Y1427D02*
X398Y1427D01*
X315Y1426D02*
X398Y1426D01*
X315Y1425D02*
X398Y1425D01*
X315Y1424D02*
X398Y1424D01*
X315Y1423D02*
X398Y1423D01*
X315Y1422D02*
X398Y1422D01*
X315Y1421D02*
X398Y1421D01*
X315Y1420D02*
X398Y1420D01*
X315Y1419D02*
X398Y1419D01*
X315Y1418D02*
X398Y1418D01*
X315Y1417D02*
X398Y1417D01*
X315Y1416D02*
X398Y1416D01*
X315Y1415D02*
X398Y1415D01*
X315Y1414D02*
X398Y1414D01*
X315Y1413D02*
X398Y1413D01*
X315Y1412D02*
X398Y1412D01*
X315Y1411D02*
X398Y1411D01*
X315Y1410D02*
X398Y1410D01*
X315Y1409D02*
X398Y1409D01*
X315Y1408D02*
X398Y1408D01*
X315Y1407D02*
X398Y1407D01*
X315Y1406D02*
X398Y1406D01*
X315Y1405D02*
X398Y1405D01*
X326Y1150D02*
X339Y1150D01*
X426Y1150D02*
X439Y1150D01*
X2126Y1150D02*
X2139Y1150D01*
X2226Y1150D02*
X2239Y1150D01*
X323Y1149D02*
X343Y1149D01*
X423Y1149D02*
X443Y1149D01*
X2123Y1149D02*
X2143Y1149D01*
X2223Y1149D02*
X2243Y1149D01*
X320Y1148D02*
X346Y1148D01*
X420Y1148D02*
X446Y1148D01*
X2120Y1148D02*
X2146Y1148D01*
X2220Y1148D02*
X2246Y1148D01*
X318Y1147D02*
X348Y1147D01*
X418Y1147D02*
X448Y1147D01*
X2118Y1147D02*
X2148Y1147D01*
X2218Y1147D02*
X2248Y1147D01*
X316Y1146D02*
X350Y1146D01*
X416Y1146D02*
X450Y1146D01*
X2116Y1146D02*
X2150Y1146D01*
X2216Y1146D02*
X2250Y1146D01*
X314Y1145D02*
X352Y1145D01*
X414Y1145D02*
X452Y1145D01*
X2114Y1145D02*
X2152Y1145D01*
X2214Y1145D02*
X2252Y1145D01*
X313Y1144D02*
X353Y1144D01*
X413Y1144D02*
X453Y1144D01*
X2112Y1144D02*
X2153Y1144D01*
X2212Y1144D02*
X2253Y1144D01*
X311Y1143D02*
X355Y1143D01*
X411Y1143D02*
X455Y1143D01*
X2111Y1143D02*
X2154Y1143D01*
X2211Y1143D02*
X2254Y1143D01*
X310Y1142D02*
X356Y1142D01*
X410Y1142D02*
X456Y1142D01*
X2110Y1142D02*
X2156Y1142D01*
X2210Y1142D02*
X2256Y1142D01*
X309Y1141D02*
X357Y1141D01*
X409Y1141D02*
X457Y1141D01*
X2109Y1141D02*
X2157Y1141D01*
X2209Y1141D02*
X2257Y1141D01*
X308Y1140D02*
X358Y1140D01*
X408Y1140D02*
X458Y1140D01*
X2108Y1140D02*
X2158Y1140D01*
X2208Y1140D02*
X2258Y1140D01*
X307Y1139D02*
X359Y1139D01*
X407Y1139D02*
X459Y1139D01*
X2107Y1139D02*
X2159Y1139D01*
X2207Y1139D02*
X2259Y1139D01*
X306Y1138D02*
X360Y1138D01*
X406Y1138D02*
X460Y1138D01*
X2106Y1138D02*
X2160Y1138D01*
X2206Y1138D02*
X2260Y1138D01*
X305Y1137D02*
X361Y1137D01*
X405Y1137D02*
X461Y1137D01*
X2105Y1137D02*
X2160Y1137D01*
X2205Y1137D02*
X2260Y1137D01*
X304Y1136D02*
X361Y1136D01*
X404Y1136D02*
X461Y1136D01*
X2104Y1136D02*
X2161Y1136D01*
X2204Y1136D02*
X2261Y1136D01*
X304Y1135D02*
X362Y1135D01*
X404Y1135D02*
X462Y1135D01*
X2104Y1135D02*
X2162Y1135D01*
X2204Y1135D02*
X2262Y1135D01*
X303Y1134D02*
X363Y1134D01*
X403Y1134D02*
X463Y1134D01*
X2103Y1134D02*
X2163Y1134D01*
X2203Y1134D02*
X2263Y1134D01*
X303Y1133D02*
X363Y1133D01*
X402Y1133D02*
X463Y1133D01*
X2102Y1133D02*
X2163Y1133D01*
X2202Y1133D02*
X2263Y1133D01*
X302Y1132D02*
X364Y1132D01*
X402Y1132D02*
X464Y1132D01*
X2102Y1132D02*
X2164Y1132D01*
X2202Y1132D02*
X2264Y1132D01*
X301Y1131D02*
X364Y1131D01*
X401Y1131D02*
X464Y1131D01*
X2101Y1131D02*
X2164Y1131D01*
X2201Y1131D02*
X2264Y1131D01*
X301Y1130D02*
X365Y1130D01*
X401Y1130D02*
X465Y1130D01*
X2101Y1130D02*
X2165Y1130D01*
X2201Y1130D02*
X2265Y1130D01*
X300Y1129D02*
X365Y1129D01*
X400Y1129D02*
X465Y1129D01*
X2100Y1129D02*
X2165Y1129D01*
X2200Y1129D02*
X2265Y1129D01*
X300Y1128D02*
X329Y1128D01*
X336Y1128D02*
X366Y1128D01*
X400Y1128D02*
X429Y1128D01*
X436Y1128D02*
X466Y1128D01*
X2100Y1128D02*
X2129Y1128D01*
X2136Y1128D02*
X2166Y1128D01*
X2200Y1128D02*
X2229Y1128D01*
X2236Y1128D02*
X2266Y1128D01*
X300Y1127D02*
X327Y1127D01*
X339Y1127D02*
X366Y1127D01*
X400Y1127D02*
X426Y1127D01*
X439Y1127D02*
X466Y1127D01*
X2100Y1127D02*
X2126Y1127D01*
X2139Y1127D02*
X2166Y1127D01*
X2200Y1127D02*
X2226Y1127D01*
X2239Y1127D02*
X2266Y1127D01*
X299Y1126D02*
X325Y1126D01*
X341Y1126D02*
X366Y1126D01*
X399Y1126D02*
X425Y1126D01*
X441Y1126D02*
X466Y1126D01*
X2099Y1126D02*
X2125Y1126D01*
X2141Y1126D02*
X2166Y1126D01*
X2199Y1126D02*
X2225Y1126D01*
X2241Y1126D02*
X2266Y1126D01*
X299Y1125D02*
X324Y1125D01*
X342Y1125D02*
X367Y1125D01*
X399Y1125D02*
X424Y1125D01*
X442Y1125D02*
X467Y1125D01*
X2099Y1125D02*
X2123Y1125D01*
X2142Y1125D02*
X2167Y1125D01*
X2199Y1125D02*
X2223Y1125D01*
X2242Y1125D02*
X2267Y1125D01*
X299Y1124D02*
X323Y1124D01*
X343Y1124D02*
X367Y1124D01*
X399Y1124D02*
X422Y1124D01*
X443Y1124D02*
X467Y1124D01*
X2099Y1124D02*
X2122Y1124D01*
X2143Y1124D02*
X2167Y1124D01*
X2199Y1124D02*
X2222Y1124D01*
X2243Y1124D02*
X2267Y1124D01*
X298Y1123D02*
X322Y1123D01*
X344Y1123D02*
X367Y1123D01*
X398Y1123D02*
X422Y1123D01*
X444Y1123D02*
X467Y1123D01*
X2098Y1123D02*
X2122Y1123D01*
X2144Y1123D02*
X2167Y1123D01*
X2198Y1123D02*
X2222Y1123D01*
X2244Y1123D02*
X2267Y1123D01*
X298Y1122D02*
X321Y1122D01*
X345Y1122D02*
X368Y1122D01*
X398Y1122D02*
X421Y1122D01*
X445Y1122D02*
X468Y1122D01*
X2098Y1122D02*
X2121Y1122D01*
X2145Y1122D02*
X2167Y1122D01*
X2198Y1122D02*
X2221Y1122D01*
X2245Y1122D02*
X2267Y1122D01*
X298Y1121D02*
X320Y1121D01*
X345Y1121D02*
X368Y1121D01*
X398Y1121D02*
X420Y1121D01*
X445Y1121D02*
X468Y1121D01*
X2098Y1121D02*
X2120Y1121D01*
X2145Y1121D02*
X2168Y1121D01*
X2198Y1121D02*
X2220Y1121D01*
X2245Y1121D02*
X2268Y1121D01*
X298Y1120D02*
X320Y1120D01*
X346Y1120D02*
X368Y1120D01*
X398Y1120D02*
X420Y1120D01*
X446Y1120D02*
X468Y1120D01*
X2098Y1120D02*
X2120Y1120D01*
X2146Y1120D02*
X2168Y1120D01*
X2198Y1120D02*
X2220Y1120D01*
X2246Y1120D02*
X2268Y1120D01*
X298Y1119D02*
X320Y1119D01*
X346Y1119D02*
X368Y1119D01*
X398Y1119D02*
X419Y1119D01*
X446Y1119D02*
X468Y1119D01*
X2098Y1119D02*
X2119Y1119D01*
X2146Y1119D02*
X2168Y1119D01*
X2198Y1119D02*
X2219Y1119D01*
X2246Y1119D02*
X2268Y1119D01*
X298Y1118D02*
X319Y1118D01*
X347Y1118D02*
X368Y1118D01*
X398Y1118D02*
X419Y1118D01*
X446Y1118D02*
X468Y1118D01*
X2097Y1118D02*
X2119Y1118D01*
X2146Y1118D02*
X2168Y1118D01*
X2197Y1118D02*
X2219Y1118D01*
X2246Y1118D02*
X2268Y1118D01*
X298Y1117D02*
X319Y1117D01*
X347Y1117D02*
X368Y1117D01*
X398Y1117D02*
X419Y1117D01*
X447Y1117D02*
X468Y1117D01*
X2097Y1117D02*
X2119Y1117D01*
X2147Y1117D02*
X2168Y1117D01*
X2197Y1117D02*
X2219Y1117D01*
X2247Y1117D02*
X2268Y1117D01*
X298Y1116D02*
X319Y1116D01*
X347Y1116D02*
X368Y1116D01*
X397Y1116D02*
X419Y1116D01*
X447Y1116D02*
X468Y1116D01*
X2097Y1116D02*
X2119Y1116D01*
X2147Y1116D02*
X2168Y1116D01*
X2197Y1116D02*
X2219Y1116D01*
X2247Y1116D02*
X2268Y1116D01*
X297Y1115D02*
X319Y1115D01*
X347Y1115D02*
X368Y1115D01*
X397Y1115D02*
X419Y1115D01*
X447Y1115D02*
X468Y1115D01*
X2097Y1115D02*
X2119Y1115D01*
X2147Y1115D02*
X2168Y1115D01*
X2197Y1115D02*
X2219Y1115D01*
X2247Y1115D02*
X2268Y1115D01*
X297Y1114D02*
X319Y1114D01*
X347Y1114D02*
X368Y1114D01*
X397Y1114D02*
X419Y1114D01*
X447Y1114D02*
X468Y1114D01*
X2097Y1114D02*
X2119Y1114D01*
X2147Y1114D02*
X2168Y1114D01*
X2197Y1114D02*
X2219Y1114D01*
X2247Y1114D02*
X2268Y1114D01*
X298Y1113D02*
X319Y1113D01*
X347Y1113D02*
X368Y1113D01*
X397Y1113D02*
X419Y1113D01*
X447Y1113D02*
X468Y1113D01*
X2097Y1113D02*
X2119Y1113D01*
X2147Y1113D02*
X2168Y1113D01*
X2197Y1113D02*
X2219Y1113D01*
X2247Y1113D02*
X2268Y1113D01*
X298Y1112D02*
X319Y1112D01*
X347Y1112D02*
X368Y1112D01*
X398Y1112D02*
X419Y1112D01*
X447Y1112D02*
X468Y1112D01*
X2097Y1112D02*
X2119Y1112D01*
X2147Y1112D02*
X2168Y1112D01*
X2197Y1112D02*
X2219Y1112D01*
X2246Y1112D02*
X2268Y1112D01*
X298Y1111D02*
X319Y1111D01*
X346Y1111D02*
X368Y1111D01*
X398Y1111D02*
X419Y1111D01*
X446Y1111D02*
X468Y1111D01*
X2098Y1111D02*
X2119Y1111D01*
X2146Y1111D02*
X2168Y1111D01*
X2198Y1111D02*
X2219Y1111D01*
X2246Y1111D02*
X2268Y1111D01*
X298Y1110D02*
X320Y1110D01*
X346Y1110D02*
X368Y1110D01*
X398Y1110D02*
X420Y1110D01*
X446Y1110D02*
X468Y1110D01*
X2098Y1110D02*
X2120Y1110D01*
X2146Y1110D02*
X2168Y1110D01*
X2198Y1110D02*
X2220Y1110D01*
X2246Y1110D02*
X2268Y1110D01*
X298Y1109D02*
X320Y1109D01*
X346Y1109D02*
X368Y1109D01*
X398Y1109D02*
X420Y1109D01*
X446Y1109D02*
X468Y1109D01*
X2098Y1109D02*
X2120Y1109D01*
X2146Y1109D02*
X2168Y1109D01*
X2198Y1109D02*
X2220Y1109D01*
X2245Y1109D02*
X2268Y1109D01*
X298Y1108D02*
X321Y1108D01*
X345Y1108D02*
X368Y1108D01*
X398Y1108D02*
X421Y1108D01*
X445Y1108D02*
X468Y1108D01*
X2098Y1108D02*
X2121Y1108D01*
X2145Y1108D02*
X2168Y1108D01*
X2198Y1108D02*
X2220Y1108D01*
X2245Y1108D02*
X2267Y1108D01*
X298Y1107D02*
X321Y1107D01*
X344Y1107D02*
X367Y1107D01*
X398Y1107D02*
X421Y1107D01*
X444Y1107D02*
X467Y1107D01*
X2098Y1107D02*
X2121Y1107D01*
X2144Y1107D02*
X2167Y1107D01*
X2198Y1107D02*
X2221Y1107D01*
X2244Y1107D02*
X2267Y1107D01*
X299Y1106D02*
X322Y1106D01*
X344Y1106D02*
X367Y1106D01*
X399Y1106D02*
X422Y1106D01*
X444Y1106D02*
X467Y1106D01*
X2099Y1106D02*
X2122Y1106D01*
X2143Y1106D02*
X2167Y1106D01*
X2198Y1106D02*
X2222Y1106D01*
X2243Y1106D02*
X2267Y1106D01*
X299Y1105D02*
X323Y1105D01*
X343Y1105D02*
X367Y1105D01*
X399Y1105D02*
X423Y1105D01*
X443Y1105D02*
X467Y1105D01*
X2099Y1105D02*
X2123Y1105D01*
X2143Y1105D02*
X2167Y1105D01*
X2199Y1105D02*
X2223Y1105D01*
X2242Y1105D02*
X2267Y1105D01*
X299Y1104D02*
X324Y1104D01*
X341Y1104D02*
X367Y1104D01*
X399Y1104D02*
X424Y1104D01*
X441Y1104D02*
X467Y1104D01*
X2099Y1104D02*
X2124Y1104D01*
X2141Y1104D02*
X2166Y1104D01*
X2199Y1104D02*
X2224Y1104D01*
X2241Y1104D02*
X2266Y1104D01*
X300Y1103D02*
X326Y1103D01*
X340Y1103D02*
X366Y1103D01*
X400Y1103D02*
X426Y1103D01*
X440Y1103D02*
X466Y1103D01*
X2099Y1103D02*
X2126Y1103D01*
X2140Y1103D02*
X2166Y1103D01*
X2199Y1103D02*
X2226Y1103D01*
X2240Y1103D02*
X2266Y1103D01*
X300Y1102D02*
X328Y1102D01*
X338Y1102D02*
X366Y1102D01*
X400Y1102D02*
X428Y1102D01*
X438Y1102D02*
X466Y1102D01*
X2100Y1102D02*
X2128Y1102D01*
X2138Y1102D02*
X2166Y1102D01*
X2200Y1102D02*
X2228Y1102D01*
X2238Y1102D02*
X2266Y1102D01*
X300Y1101D02*
X365Y1101D01*
X400Y1101D02*
X465Y1101D01*
X2100Y1101D02*
X2165Y1101D01*
X2200Y1101D02*
X2265Y1101D01*
X301Y1100D02*
X365Y1100D01*
X401Y1100D02*
X465Y1100D01*
X2101Y1100D02*
X2165Y1100D01*
X2201Y1100D02*
X2265Y1100D01*
X301Y1099D02*
X365Y1099D01*
X401Y1099D02*
X465Y1099D01*
X2101Y1099D02*
X2164Y1099D01*
X2201Y1099D02*
X2264Y1099D01*
X302Y1098D02*
X364Y1098D01*
X402Y1098D02*
X464Y1098D01*
X2102Y1098D02*
X2164Y1098D01*
X2202Y1098D02*
X2264Y1098D01*
X302Y1097D02*
X364Y1097D01*
X402Y1097D02*
X463Y1097D01*
X2102Y1097D02*
X2163Y1097D01*
X2202Y1097D02*
X2263Y1097D01*
X303Y1096D02*
X363Y1096D01*
X403Y1096D02*
X463Y1096D01*
X2103Y1096D02*
X2163Y1096D01*
X2203Y1096D02*
X2263Y1096D01*
X303Y1095D02*
X362Y1095D01*
X403Y1095D02*
X462Y1095D01*
X2103Y1095D02*
X2162Y1095D01*
X2203Y1095D02*
X2262Y1095D01*
X304Y1094D02*
X362Y1094D01*
X404Y1094D02*
X462Y1094D01*
X2104Y1094D02*
X2162Y1094D01*
X2204Y1094D02*
X2261Y1094D01*
X305Y1093D02*
X361Y1093D01*
X405Y1093D02*
X461Y1093D01*
X2105Y1093D02*
X2161Y1093D01*
X2205Y1093D02*
X2261Y1093D01*
X306Y1092D02*
X360Y1092D01*
X406Y1092D02*
X460Y1092D01*
X2106Y1092D02*
X2160Y1092D01*
X2205Y1092D02*
X2260Y1092D01*
X306Y1091D02*
X359Y1091D01*
X406Y1091D02*
X459Y1091D01*
X2106Y1091D02*
X2159Y1091D01*
X2206Y1091D02*
X2259Y1091D01*
X307Y1090D02*
X358Y1090D01*
X407Y1090D02*
X458Y1090D01*
X2107Y1090D02*
X2158Y1090D01*
X2207Y1090D02*
X2258Y1090D01*
X308Y1089D02*
X357Y1089D01*
X408Y1089D02*
X457Y1089D01*
X2108Y1089D02*
X2157Y1089D01*
X2208Y1089D02*
X2257Y1089D01*
X309Y1088D02*
X356Y1088D01*
X409Y1088D02*
X456Y1088D01*
X2109Y1088D02*
X2156Y1088D01*
X2209Y1088D02*
X2256Y1088D01*
X311Y1087D02*
X355Y1087D01*
X411Y1087D02*
X455Y1087D01*
X2111Y1087D02*
X2155Y1087D01*
X2210Y1087D02*
X2255Y1087D01*
X312Y1086D02*
X354Y1086D01*
X412Y1086D02*
X454Y1086D01*
X2112Y1086D02*
X2154Y1086D01*
X2212Y1086D02*
X2254Y1086D01*
X313Y1085D02*
X352Y1085D01*
X413Y1085D02*
X452Y1085D01*
X2113Y1085D02*
X2152Y1085D01*
X2213Y1085D02*
X2252Y1085D01*
X315Y1084D02*
X351Y1084D01*
X415Y1084D02*
X451Y1084D01*
X2115Y1084D02*
X2151Y1084D01*
X2215Y1084D02*
X2251Y1084D01*
X317Y1083D02*
X349Y1083D01*
X417Y1083D02*
X449Y1083D01*
X2117Y1083D02*
X2149Y1083D01*
X2217Y1083D02*
X2249Y1083D01*
X319Y1082D02*
X347Y1082D01*
X419Y1082D02*
X447Y1082D01*
X2119Y1082D02*
X2147Y1082D01*
X2219Y1082D02*
X2247Y1082D01*
X321Y1081D02*
X344Y1081D01*
X421Y1081D02*
X444Y1081D01*
X2121Y1081D02*
X2144Y1081D01*
X2221Y1081D02*
X2244Y1081D01*
X325Y1080D02*
X341Y1080D01*
X425Y1080D02*
X441Y1080D01*
X2125Y1080D02*
X2141Y1080D01*
X2225Y1080D02*
X2241Y1080D01*
X330Y1079D02*
X336Y1079D01*
X430Y1079D02*
X436Y1079D01*
X2130Y1079D02*
X2136Y1079D01*
X2230Y1079D02*
X2235Y1079D01*
X326Y750D02*
X340Y750D01*
X426Y750D02*
X440Y750D01*
X2126Y750D02*
X2139Y750D01*
X2226Y750D02*
X2239Y750D01*
X323Y749D02*
X343Y749D01*
X422Y749D02*
X443Y749D01*
X2122Y749D02*
X2143Y749D01*
X2222Y749D02*
X2243Y749D01*
X320Y748D02*
X346Y748D01*
X420Y748D02*
X446Y748D01*
X2120Y748D02*
X2146Y748D01*
X2220Y748D02*
X2246Y748D01*
X318Y747D02*
X348Y747D01*
X418Y747D02*
X448Y747D01*
X2118Y747D02*
X2148Y747D01*
X2217Y747D02*
X2248Y747D01*
X316Y746D02*
X350Y746D01*
X416Y746D02*
X450Y746D01*
X2116Y746D02*
X2150Y746D01*
X2216Y746D02*
X2250Y746D01*
X314Y745D02*
X352Y745D01*
X414Y745D02*
X452Y745D01*
X2114Y745D02*
X2152Y745D01*
X2214Y745D02*
X2252Y745D01*
X313Y744D02*
X353Y744D01*
X412Y744D02*
X453Y744D01*
X2112Y744D02*
X2153Y744D01*
X2212Y744D02*
X2253Y744D01*
X311Y743D02*
X355Y743D01*
X411Y743D02*
X455Y743D01*
X2111Y743D02*
X2155Y743D01*
X2211Y743D02*
X2254Y743D01*
X310Y742D02*
X356Y742D01*
X410Y742D02*
X456Y742D01*
X2110Y742D02*
X2156Y742D01*
X2210Y742D02*
X2256Y742D01*
X309Y741D02*
X357Y741D01*
X409Y741D02*
X457Y741D01*
X2109Y741D02*
X2157Y741D01*
X2209Y741D02*
X2257Y741D01*
X308Y740D02*
X358Y740D01*
X408Y740D02*
X458Y740D01*
X2108Y740D02*
X2158Y740D01*
X2208Y740D02*
X2258Y740D01*
X307Y739D02*
X359Y739D01*
X407Y739D02*
X459Y739D01*
X2107Y739D02*
X2159Y739D01*
X2207Y739D02*
X2259Y739D01*
X306Y738D02*
X360Y738D01*
X406Y738D02*
X460Y738D01*
X2106Y738D02*
X2160Y738D01*
X2206Y738D02*
X2260Y738D01*
X305Y737D02*
X361Y737D01*
X405Y737D02*
X461Y737D01*
X2105Y737D02*
X2161Y737D01*
X2205Y737D02*
X2260Y737D01*
X304Y736D02*
X361Y736D01*
X404Y736D02*
X461Y736D01*
X2104Y736D02*
X2161Y736D01*
X2204Y736D02*
X2261Y736D01*
X304Y735D02*
X362Y735D01*
X404Y735D02*
X462Y735D01*
X2104Y735D02*
X2162Y735D01*
X2204Y735D02*
X2262Y735D01*
X303Y734D02*
X363Y734D01*
X403Y734D02*
X463Y734D01*
X2103Y734D02*
X2163Y734D01*
X2203Y734D02*
X2263Y734D01*
X302Y733D02*
X363Y733D01*
X402Y733D02*
X463Y733D01*
X2102Y733D02*
X2163Y733D01*
X2202Y733D02*
X2263Y733D01*
X302Y732D02*
X364Y732D01*
X402Y732D02*
X464Y732D01*
X2102Y732D02*
X2164Y732D01*
X2202Y732D02*
X2264Y732D01*
X301Y731D02*
X364Y731D01*
X401Y731D02*
X464Y731D01*
X2101Y731D02*
X2164Y731D01*
X2201Y731D02*
X2264Y731D01*
X301Y730D02*
X365Y730D01*
X401Y730D02*
X465Y730D01*
X2101Y730D02*
X2165Y730D01*
X2201Y730D02*
X2265Y730D01*
X300Y729D02*
X365Y729D01*
X400Y729D02*
X465Y729D01*
X2100Y729D02*
X2165Y729D01*
X2200Y729D02*
X2265Y729D01*
X300Y728D02*
X329Y728D01*
X337Y728D02*
X366Y728D01*
X400Y728D02*
X429Y728D01*
X436Y728D02*
X466Y728D01*
X2100Y728D02*
X2129Y728D01*
X2136Y728D02*
X2166Y728D01*
X2200Y728D02*
X2229Y728D01*
X2236Y728D02*
X2266Y728D01*
X300Y727D02*
X326Y727D01*
X339Y727D02*
X366Y727D01*
X400Y727D02*
X426Y727D01*
X439Y727D02*
X466Y727D01*
X2100Y727D02*
X2126Y727D01*
X2139Y727D02*
X2166Y727D01*
X2200Y727D02*
X2226Y727D01*
X2239Y727D02*
X2266Y727D01*
X299Y726D02*
X325Y726D01*
X341Y726D02*
X366Y726D01*
X399Y726D02*
X425Y726D01*
X441Y726D02*
X466Y726D01*
X2099Y726D02*
X2125Y726D01*
X2141Y726D02*
X2166Y726D01*
X2199Y726D02*
X2225Y726D01*
X2241Y726D02*
X2266Y726D01*
X299Y725D02*
X324Y725D01*
X342Y725D02*
X367Y725D01*
X399Y725D02*
X423Y725D01*
X442Y725D02*
X467Y725D01*
X2099Y725D02*
X2123Y725D01*
X2142Y725D02*
X2167Y725D01*
X2199Y725D02*
X2223Y725D01*
X2242Y725D02*
X2267Y725D01*
X299Y724D02*
X322Y724D01*
X343Y724D02*
X367Y724D01*
X399Y724D02*
X422Y724D01*
X443Y724D02*
X467Y724D01*
X2099Y724D02*
X2122Y724D01*
X2143Y724D02*
X2167Y724D01*
X2199Y724D02*
X2222Y724D01*
X2243Y724D02*
X2267Y724D01*
X298Y723D02*
X322Y723D01*
X344Y723D02*
X367Y723D01*
X398Y723D02*
X422Y723D01*
X444Y723D02*
X467Y723D01*
X2098Y723D02*
X2122Y723D01*
X2144Y723D02*
X2167Y723D01*
X2198Y723D02*
X2221Y723D01*
X2244Y723D02*
X2267Y723D01*
X298Y722D02*
X321Y722D01*
X345Y722D02*
X368Y722D01*
X398Y722D02*
X421Y722D01*
X445Y722D02*
X468Y722D01*
X2098Y722D02*
X2121Y722D01*
X2145Y722D02*
X2167Y722D01*
X2198Y722D02*
X2221Y722D01*
X2245Y722D02*
X2267Y722D01*
X298Y721D02*
X320Y721D01*
X345Y721D02*
X368Y721D01*
X398Y721D02*
X420Y721D01*
X445Y721D02*
X468Y721D01*
X2098Y721D02*
X2120Y721D01*
X2145Y721D02*
X2168Y721D01*
X2198Y721D02*
X2220Y721D01*
X2245Y721D02*
X2268Y721D01*
X298Y720D02*
X320Y720D01*
X346Y720D02*
X368Y720D01*
X398Y720D02*
X420Y720D01*
X446Y720D02*
X468Y720D01*
X2098Y720D02*
X2120Y720D01*
X2146Y720D02*
X2168Y720D01*
X2198Y720D02*
X2220Y720D01*
X2246Y720D02*
X2268Y720D01*
X298Y719D02*
X320Y719D01*
X346Y719D02*
X368Y719D01*
X398Y719D02*
X419Y719D01*
X446Y719D02*
X468Y719D01*
X2098Y719D02*
X2119Y719D01*
X2146Y719D02*
X2168Y719D01*
X2198Y719D02*
X2219Y719D01*
X2246Y719D02*
X2268Y719D01*
X298Y718D02*
X319Y718D01*
X347Y718D02*
X368Y718D01*
X398Y718D02*
X419Y718D01*
X447Y718D02*
X468Y718D01*
X2097Y718D02*
X2119Y718D01*
X2146Y718D02*
X2168Y718D01*
X2197Y718D02*
X2219Y718D01*
X2246Y718D02*
X2268Y718D01*
X298Y717D02*
X319Y717D01*
X347Y717D02*
X368Y717D01*
X398Y717D02*
X419Y717D01*
X447Y717D02*
X468Y717D01*
X2097Y717D02*
X2119Y717D01*
X2147Y717D02*
X2168Y717D01*
X2197Y717D02*
X2219Y717D01*
X2247Y717D02*
X2268Y717D01*
X298Y716D02*
X319Y716D01*
X347Y716D02*
X368Y716D01*
X397Y716D02*
X419Y716D01*
X447Y716D02*
X468Y716D01*
X2097Y716D02*
X2119Y716D01*
X2147Y716D02*
X2168Y716D01*
X2197Y716D02*
X2219Y716D01*
X2247Y716D02*
X2268Y716D01*
X297Y715D02*
X319Y715D01*
X347Y715D02*
X368Y715D01*
X397Y715D02*
X419Y715D01*
X447Y715D02*
X468Y715D01*
X2097Y715D02*
X2119Y715D01*
X2147Y715D02*
X2168Y715D01*
X2197Y715D02*
X2219Y715D01*
X2247Y715D02*
X2268Y715D01*
X297Y714D02*
X319Y714D01*
X347Y714D02*
X368Y714D01*
X397Y714D02*
X419Y714D01*
X447Y714D02*
X468Y714D01*
X2097Y714D02*
X2119Y714D01*
X2147Y714D02*
X2168Y714D01*
X2197Y714D02*
X2219Y714D01*
X2247Y714D02*
X2268Y714D01*
X298Y713D02*
X319Y713D01*
X347Y713D02*
X368Y713D01*
X397Y713D02*
X419Y713D01*
X447Y713D02*
X468Y713D01*
X2097Y713D02*
X2119Y713D01*
X2147Y713D02*
X2168Y713D01*
X2197Y713D02*
X2219Y713D01*
X2247Y713D02*
X2268Y713D01*
X298Y712D02*
X319Y712D01*
X347Y712D02*
X368Y712D01*
X398Y712D02*
X419Y712D01*
X447Y712D02*
X468Y712D01*
X2097Y712D02*
X2119Y712D01*
X2147Y712D02*
X2168Y712D01*
X2197Y712D02*
X2219Y712D01*
X2246Y712D02*
X2268Y712D01*
X298Y711D02*
X319Y711D01*
X346Y711D02*
X368Y711D01*
X398Y711D02*
X419Y711D01*
X446Y711D02*
X468Y711D01*
X2098Y711D02*
X2119Y711D01*
X2146Y711D02*
X2168Y711D01*
X2198Y711D02*
X2219Y711D01*
X2246Y711D02*
X2268Y711D01*
X298Y710D02*
X320Y710D01*
X346Y710D02*
X368Y710D01*
X398Y710D02*
X420Y710D01*
X446Y710D02*
X468Y710D01*
X2098Y710D02*
X2120Y710D01*
X2146Y710D02*
X2168Y710D01*
X2198Y710D02*
X2220Y710D01*
X2246Y710D02*
X2268Y710D01*
X298Y709D02*
X320Y709D01*
X346Y709D02*
X368Y709D01*
X398Y709D02*
X420Y709D01*
X446Y709D02*
X468Y709D01*
X2098Y709D02*
X2120Y709D01*
X2146Y709D02*
X2168Y709D01*
X2198Y709D02*
X2220Y709D01*
X2245Y709D02*
X2268Y709D01*
X298Y708D02*
X321Y708D01*
X345Y708D02*
X368Y708D01*
X398Y708D02*
X421Y708D01*
X445Y708D02*
X468Y708D01*
X2098Y708D02*
X2121Y708D01*
X2145Y708D02*
X2168Y708D01*
X2198Y708D02*
X2221Y708D01*
X2245Y708D02*
X2267Y708D01*
X298Y707D02*
X321Y707D01*
X344Y707D02*
X367Y707D01*
X398Y707D02*
X421Y707D01*
X444Y707D02*
X467Y707D01*
X2098Y707D02*
X2121Y707D01*
X2144Y707D02*
X2167Y707D01*
X2198Y707D02*
X2221Y707D01*
X2244Y707D02*
X2267Y707D01*
X299Y706D02*
X322Y706D01*
X344Y706D02*
X367Y706D01*
X399Y706D02*
X422Y706D01*
X444Y706D02*
X467Y706D01*
X2099Y706D02*
X2122Y706D01*
X2143Y706D02*
X2167Y706D01*
X2198Y706D02*
X2222Y706D01*
X2243Y706D02*
X2267Y706D01*
X299Y705D02*
X323Y705D01*
X343Y705D02*
X367Y705D01*
X399Y705D02*
X423Y705D01*
X443Y705D02*
X467Y705D01*
X2099Y705D02*
X2123Y705D01*
X2143Y705D02*
X2167Y705D01*
X2199Y705D02*
X2223Y705D01*
X2242Y705D02*
X2267Y705D01*
X299Y704D02*
X324Y704D01*
X341Y704D02*
X367Y704D01*
X399Y704D02*
X424Y704D01*
X441Y704D02*
X467Y704D01*
X2099Y704D02*
X2124Y704D01*
X2141Y704D02*
X2166Y704D01*
X2199Y704D02*
X2224Y704D01*
X2241Y704D02*
X2266Y704D01*
X300Y703D02*
X326Y703D01*
X340Y703D02*
X366Y703D01*
X400Y703D02*
X426Y703D01*
X440Y703D02*
X466Y703D01*
X2099Y703D02*
X2126Y703D01*
X2140Y703D02*
X2166Y703D01*
X2199Y703D02*
X2226Y703D01*
X2240Y703D02*
X2266Y703D01*
X300Y702D02*
X328Y702D01*
X338Y702D02*
X366Y702D01*
X400Y702D02*
X428Y702D01*
X438Y702D02*
X466Y702D01*
X2100Y702D02*
X2128Y702D01*
X2138Y702D02*
X2166Y702D01*
X2200Y702D02*
X2228Y702D01*
X2238Y702D02*
X2266Y702D01*
X300Y701D02*
X365Y701D01*
X400Y701D02*
X465Y701D01*
X2100Y701D02*
X2165Y701D01*
X2200Y701D02*
X2265Y701D01*
X301Y700D02*
X365Y700D01*
X401Y700D02*
X465Y700D01*
X2101Y700D02*
X2165Y700D01*
X2201Y700D02*
X2265Y700D01*
X301Y699D02*
X365Y699D01*
X401Y699D02*
X464Y699D01*
X2101Y699D02*
X2164Y699D01*
X2201Y699D02*
X2264Y699D01*
X302Y698D02*
X364Y698D01*
X402Y698D02*
X464Y698D01*
X2102Y698D02*
X2164Y698D01*
X2202Y698D02*
X2264Y698D01*
X302Y697D02*
X364Y697D01*
X402Y697D02*
X463Y697D01*
X2102Y697D02*
X2163Y697D01*
X2202Y697D02*
X2263Y697D01*
X303Y696D02*
X363Y696D01*
X403Y696D02*
X463Y696D01*
X2103Y696D02*
X2163Y696D01*
X2203Y696D02*
X2263Y696D01*
X303Y695D02*
X362Y695D01*
X403Y695D02*
X462Y695D01*
X2103Y695D02*
X2162Y695D01*
X2203Y695D02*
X2262Y695D01*
X304Y694D02*
X362Y694D01*
X404Y694D02*
X462Y694D01*
X2104Y694D02*
X2162Y694D01*
X2204Y694D02*
X2261Y694D01*
X305Y693D02*
X361Y693D01*
X405Y693D02*
X461Y693D01*
X2105Y693D02*
X2161Y693D01*
X2205Y693D02*
X2261Y693D01*
X306Y692D02*
X360Y692D01*
X406Y692D02*
X460Y692D01*
X2106Y692D02*
X2160Y692D01*
X2205Y692D02*
X2260Y692D01*
X307Y691D02*
X359Y691D01*
X406Y691D02*
X459Y691D01*
X2106Y691D02*
X2159Y691D01*
X2206Y691D02*
X2259Y691D01*
X307Y690D02*
X358Y690D01*
X407Y690D02*
X458Y690D01*
X2107Y690D02*
X2158Y690D01*
X2207Y690D02*
X2258Y690D01*
X308Y689D02*
X357Y689D01*
X408Y689D02*
X457Y689D01*
X2108Y689D02*
X2157Y689D01*
X2208Y689D02*
X2257Y689D01*
X310Y688D02*
X356Y688D01*
X409Y688D02*
X456Y688D01*
X2109Y688D02*
X2156Y688D01*
X2209Y688D02*
X2256Y688D01*
X311Y687D02*
X355Y687D01*
X411Y687D02*
X455Y687D01*
X2111Y687D02*
X2155Y687D01*
X2211Y687D02*
X2255Y687D01*
X312Y686D02*
X354Y686D01*
X412Y686D02*
X454Y686D01*
X2112Y686D02*
X2154Y686D01*
X2212Y686D02*
X2254Y686D01*
X313Y685D02*
X352Y685D01*
X413Y685D02*
X452Y685D01*
X2113Y685D02*
X2152Y685D01*
X2213Y685D02*
X2252Y685D01*
X315Y684D02*
X351Y684D01*
X415Y684D02*
X451Y684D01*
X2115Y684D02*
X2151Y684D01*
X2215Y684D02*
X2251Y684D01*
X317Y683D02*
X349Y683D01*
X417Y683D02*
X449Y683D01*
X2117Y683D02*
X2149Y683D01*
X2217Y683D02*
X2249Y683D01*
X319Y682D02*
X347Y682D01*
X419Y682D02*
X447Y682D01*
X2119Y682D02*
X2147Y682D01*
X2219Y682D02*
X2247Y682D01*
X322Y681D02*
X344Y681D01*
X422Y681D02*
X444Y681D01*
X2121Y681D02*
X2144Y681D01*
X2221Y681D02*
X2244Y681D01*
X325Y680D02*
X341Y680D01*
X425Y680D02*
X441Y680D01*
X2125Y680D02*
X2141Y680D01*
X2225Y680D02*
X2241Y680D01*
X331Y679D02*
X335Y679D01*
X431Y679D02*
X435Y679D01*
X2131Y679D02*
X2135Y679D01*
X2231Y679D02*
X2235Y679D01*
D02*
G04 End of Mask1*
M02*