G04 MADE WITH FRITZING*
G04 WWW.FRITZING.ORG*
G04 DOUBLE SIDED*
G04 HOLES PLATED*
G04 CONTOUR ON CENTER OF CONTOUR VECTOR*
%ASAXBY*%
%FSLAX23Y23*%
%MOIN*%
%OFA0B0*%
%SFA1.0B1.0*%
%ADD10C,0.080000*%
%ADD11C,0.084000*%
%ADD12C,0.135984*%
%ADD13R,0.079972X0.080000*%
%ADD14R,0.001000X0.001000*%
%LNMASK1*%
G90*
G70*
G54D10*
X1680Y1333D03*
X1680Y1433D03*
X1680Y1533D03*
X1680Y1633D03*
X1680Y1733D03*
X1680Y1833D03*
X1680Y1933D03*
X1680Y2033D03*
X1680Y2133D03*
X1680Y2233D03*
X1680Y2333D03*
X1680Y2433D03*
X1680Y2533D03*
X1680Y2633D03*
X1680Y2733D03*
X1080Y1333D03*
X1080Y1433D03*
X1080Y1533D03*
X1080Y1633D03*
X1080Y1733D03*
X1080Y1833D03*
X1080Y1933D03*
X1080Y2033D03*
X1080Y2133D03*
X1080Y2233D03*
X1080Y2333D03*
X1080Y2433D03*
X1080Y2533D03*
X1080Y2633D03*
X1080Y2733D03*
G54D11*
X2163Y2367D03*
X2263Y2417D03*
X2163Y2467D03*
X2163Y2567D03*
X2163Y2667D03*
X2263Y2517D03*
X2263Y2617D03*
X2263Y2717D03*
G54D12*
X2513Y2767D03*
X2513Y2317D03*
G54D11*
X2163Y2367D03*
X2263Y2417D03*
X2163Y2467D03*
X2163Y2567D03*
X2163Y2667D03*
X2263Y2517D03*
X2263Y2617D03*
X2263Y2717D03*
G54D12*
X2513Y2767D03*
X2513Y2317D03*
G54D11*
X473Y2734D03*
X373Y2684D03*
X473Y2634D03*
X473Y2534D03*
X473Y2434D03*
X373Y2584D03*
X373Y2484D03*
X373Y2384D03*
G54D12*
X123Y2334D03*
X123Y2784D03*
G54D11*
X473Y2734D03*
X373Y2684D03*
X473Y2634D03*
X473Y2534D03*
X473Y2434D03*
X373Y2584D03*
X373Y2484D03*
X373Y2384D03*
G54D12*
X123Y2334D03*
X123Y2784D03*
G54D11*
X461Y1800D03*
X361Y1750D03*
X461Y1700D03*
X461Y1600D03*
X461Y1500D03*
X361Y1650D03*
X361Y1550D03*
X361Y1450D03*
G54D12*
X111Y1400D03*
X111Y1850D03*
G54D11*
X461Y1800D03*
X361Y1750D03*
X461Y1700D03*
X461Y1600D03*
X461Y1500D03*
X361Y1650D03*
X361Y1550D03*
X361Y1450D03*
G54D12*
X111Y1400D03*
X111Y1850D03*
G54D11*
X2165Y1480D03*
X2265Y1530D03*
X2165Y1580D03*
X2165Y1680D03*
X2165Y1780D03*
X2265Y1630D03*
X2265Y1730D03*
X2265Y1830D03*
G54D12*
X2515Y1880D03*
X2515Y1430D03*
G54D11*
X2165Y1480D03*
X2265Y1530D03*
X2165Y1580D03*
X2165Y1680D03*
X2165Y1780D03*
X2265Y1630D03*
X2265Y1730D03*
X2265Y1830D03*
G54D12*
X2515Y1880D03*
X2515Y1430D03*
G54D13*
X1680Y1333D03*
G54D14*
X2221Y2759D02*
X2304Y2759D01*
X2221Y2758D02*
X2304Y2758D01*
X2221Y2757D02*
X2304Y2757D01*
X2221Y2756D02*
X2304Y2756D01*
X2221Y2755D02*
X2304Y2755D01*
X2221Y2754D02*
X2304Y2754D01*
X2221Y2753D02*
X2304Y2753D01*
X2221Y2752D02*
X2304Y2752D01*
X2221Y2751D02*
X2304Y2751D01*
X2221Y2750D02*
X2304Y2750D01*
X2221Y2749D02*
X2304Y2749D01*
X2221Y2748D02*
X2304Y2748D01*
X2221Y2747D02*
X2304Y2747D01*
X2221Y2746D02*
X2304Y2746D01*
X2221Y2745D02*
X2304Y2745D01*
X2221Y2744D02*
X2304Y2744D01*
X2221Y2743D02*
X2304Y2743D01*
X2221Y2742D02*
X2304Y2742D01*
X2221Y2741D02*
X2304Y2741D01*
X2221Y2740D02*
X2304Y2740D01*
X2221Y2739D02*
X2304Y2739D01*
X2221Y2738D02*
X2304Y2738D01*
X2221Y2737D02*
X2304Y2737D01*
X2221Y2736D02*
X2304Y2736D01*
X2221Y2735D02*
X2304Y2735D01*
X2221Y2734D02*
X2304Y2734D01*
X2221Y2733D02*
X2304Y2733D01*
X2221Y2732D02*
X2261Y2732D01*
X2263Y2732D02*
X2304Y2732D01*
X2221Y2731D02*
X2256Y2731D01*
X2268Y2731D02*
X2304Y2731D01*
X2221Y2730D02*
X2254Y2730D01*
X2270Y2730D02*
X2304Y2730D01*
X2221Y2729D02*
X2253Y2729D01*
X2272Y2729D02*
X2304Y2729D01*
X2221Y2728D02*
X2252Y2728D01*
X2273Y2728D02*
X2304Y2728D01*
X2221Y2727D02*
X2251Y2727D01*
X2274Y2727D02*
X2304Y2727D01*
X2221Y2726D02*
X2250Y2726D01*
X2275Y2726D02*
X2304Y2726D01*
X2221Y2725D02*
X2249Y2725D01*
X2275Y2725D02*
X2304Y2725D01*
X2221Y2724D02*
X2249Y2724D01*
X2276Y2724D02*
X2304Y2724D01*
X2221Y2723D02*
X2248Y2723D01*
X2276Y2723D02*
X2304Y2723D01*
X2221Y2722D02*
X2248Y2722D01*
X2277Y2722D02*
X2304Y2722D01*
X2221Y2721D02*
X2247Y2721D01*
X2277Y2721D02*
X2304Y2721D01*
X2221Y2720D02*
X2247Y2720D01*
X2277Y2720D02*
X2304Y2720D01*
X2221Y2719D02*
X2247Y2719D01*
X2277Y2719D02*
X2304Y2719D01*
X2221Y2718D02*
X2247Y2718D01*
X2277Y2718D02*
X2304Y2718D01*
X2221Y2717D02*
X2247Y2717D01*
X2277Y2717D02*
X2304Y2717D01*
X2221Y2716D02*
X2247Y2716D01*
X2277Y2716D02*
X2304Y2716D01*
X2221Y2715D02*
X2247Y2715D01*
X2277Y2715D02*
X2304Y2715D01*
X2221Y2714D02*
X2247Y2714D01*
X2277Y2714D02*
X2304Y2714D01*
X2221Y2713D02*
X2248Y2713D01*
X2277Y2713D02*
X2304Y2713D01*
X2221Y2712D02*
X2248Y2712D01*
X2276Y2712D02*
X2304Y2712D01*
X2221Y2711D02*
X2248Y2711D01*
X2276Y2711D02*
X2304Y2711D01*
X2221Y2710D02*
X2249Y2710D01*
X2275Y2710D02*
X2304Y2710D01*
X2221Y2709D02*
X2250Y2709D01*
X2275Y2709D02*
X2304Y2709D01*
X2221Y2708D02*
X2250Y2708D01*
X2274Y2708D02*
X2304Y2708D01*
X2221Y2707D02*
X2251Y2707D01*
X2273Y2707D02*
X2304Y2707D01*
X2221Y2706D02*
X2252Y2706D01*
X2272Y2706D02*
X2304Y2706D01*
X2221Y2705D02*
X2254Y2705D01*
X2271Y2705D02*
X2304Y2705D01*
X2221Y2704D02*
X2256Y2704D01*
X2269Y2704D02*
X2304Y2704D01*
X2221Y2703D02*
X2259Y2703D01*
X2266Y2703D02*
X2304Y2703D01*
X2221Y2702D02*
X2304Y2702D01*
X2221Y2701D02*
X2304Y2701D01*
X2221Y2700D02*
X2304Y2700D01*
X2221Y2699D02*
X2304Y2699D01*
X2221Y2698D02*
X2304Y2698D01*
X2221Y2697D02*
X2304Y2697D01*
X2221Y2696D02*
X2304Y2696D01*
X2221Y2695D02*
X2304Y2695D01*
X2221Y2694D02*
X2304Y2694D01*
X2221Y2693D02*
X2304Y2693D01*
X2221Y2692D02*
X2304Y2692D01*
X2221Y2691D02*
X2304Y2691D01*
X2221Y2690D02*
X2304Y2690D01*
X2221Y2689D02*
X2304Y2689D01*
X2221Y2688D02*
X2304Y2688D01*
X2221Y2687D02*
X2304Y2687D01*
X2221Y2686D02*
X2304Y2686D01*
X2221Y2685D02*
X2304Y2685D01*
X2221Y2684D02*
X2304Y2684D01*
X2221Y2683D02*
X2304Y2683D01*
X2221Y2682D02*
X2304Y2682D01*
X2221Y2681D02*
X2304Y2681D01*
X2221Y2680D02*
X2304Y2680D01*
X2221Y2679D02*
X2304Y2679D01*
X2221Y2678D02*
X2304Y2678D01*
X2221Y2677D02*
X2304Y2677D01*
X2221Y2676D02*
X2304Y2676D01*
X331Y2426D02*
X413Y2426D01*
X330Y2425D02*
X413Y2425D01*
X330Y2424D02*
X413Y2424D01*
X330Y2423D02*
X413Y2423D01*
X330Y2422D02*
X413Y2422D01*
X330Y2421D02*
X413Y2421D01*
X330Y2420D02*
X413Y2420D01*
X330Y2419D02*
X413Y2419D01*
X330Y2418D02*
X413Y2418D01*
X330Y2417D02*
X413Y2417D01*
X330Y2416D02*
X413Y2416D01*
X330Y2415D02*
X413Y2415D01*
X330Y2414D02*
X413Y2414D01*
X330Y2413D02*
X413Y2413D01*
X330Y2412D02*
X413Y2412D01*
X330Y2411D02*
X413Y2411D01*
X330Y2410D02*
X413Y2410D01*
X330Y2409D02*
X413Y2409D01*
X330Y2408D02*
X413Y2408D01*
X330Y2407D02*
X413Y2407D01*
X330Y2406D02*
X413Y2406D01*
X330Y2405D02*
X413Y2405D01*
X330Y2404D02*
X413Y2404D01*
X330Y2403D02*
X413Y2403D01*
X330Y2402D02*
X413Y2402D01*
X330Y2401D02*
X413Y2401D01*
X330Y2400D02*
X413Y2400D01*
X330Y2399D02*
X413Y2399D01*
X330Y2398D02*
X367Y2398D01*
X377Y2398D02*
X413Y2398D01*
X330Y2397D02*
X365Y2397D01*
X379Y2397D02*
X413Y2397D01*
X330Y2396D02*
X363Y2396D01*
X381Y2396D02*
X413Y2396D01*
X330Y2395D02*
X362Y2395D01*
X382Y2395D02*
X413Y2395D01*
X330Y2394D02*
X361Y2394D01*
X383Y2394D02*
X413Y2394D01*
X330Y2393D02*
X360Y2393D01*
X384Y2393D02*
X413Y2393D01*
X330Y2392D02*
X359Y2392D01*
X385Y2392D02*
X413Y2392D01*
X330Y2391D02*
X359Y2391D01*
X385Y2391D02*
X413Y2391D01*
X330Y2390D02*
X358Y2390D01*
X386Y2390D02*
X413Y2390D01*
X330Y2389D02*
X358Y2389D01*
X386Y2389D02*
X413Y2389D01*
X330Y2388D02*
X357Y2388D01*
X387Y2388D02*
X413Y2388D01*
X330Y2387D02*
X357Y2387D01*
X387Y2387D02*
X413Y2387D01*
X330Y2386D02*
X357Y2386D01*
X387Y2386D02*
X413Y2386D01*
X330Y2385D02*
X357Y2385D01*
X387Y2385D02*
X413Y2385D01*
X330Y2384D02*
X357Y2384D01*
X387Y2384D02*
X413Y2384D01*
X330Y2383D02*
X357Y2383D01*
X387Y2383D02*
X413Y2383D01*
X330Y2382D02*
X357Y2382D01*
X387Y2382D02*
X413Y2382D01*
X330Y2381D02*
X357Y2381D01*
X387Y2381D02*
X413Y2381D01*
X330Y2380D02*
X357Y2380D01*
X387Y2380D02*
X413Y2380D01*
X330Y2379D02*
X358Y2379D01*
X386Y2379D02*
X413Y2379D01*
X330Y2378D02*
X358Y2378D01*
X386Y2378D02*
X413Y2378D01*
X330Y2377D02*
X359Y2377D01*
X385Y2377D02*
X413Y2377D01*
X330Y2376D02*
X359Y2376D01*
X385Y2376D02*
X413Y2376D01*
X330Y2375D02*
X360Y2375D01*
X384Y2375D02*
X413Y2375D01*
X330Y2374D02*
X361Y2374D01*
X383Y2374D02*
X413Y2374D01*
X330Y2373D02*
X362Y2373D01*
X382Y2373D02*
X413Y2373D01*
X330Y2372D02*
X363Y2372D01*
X381Y2372D02*
X413Y2372D01*
X330Y2371D02*
X365Y2371D01*
X379Y2371D02*
X413Y2371D01*
X330Y2370D02*
X367Y2370D01*
X377Y2370D02*
X413Y2370D01*
X330Y2369D02*
X413Y2369D01*
X330Y2368D02*
X413Y2368D01*
X330Y2367D02*
X413Y2367D01*
X330Y2366D02*
X413Y2366D01*
X330Y2365D02*
X413Y2365D01*
X330Y2364D02*
X413Y2364D01*
X330Y2363D02*
X413Y2363D01*
X330Y2362D02*
X413Y2362D01*
X330Y2361D02*
X413Y2361D01*
X330Y2360D02*
X413Y2360D01*
X330Y2359D02*
X413Y2359D01*
X330Y2358D02*
X413Y2358D01*
X330Y2357D02*
X413Y2357D01*
X330Y2356D02*
X413Y2356D01*
X330Y2355D02*
X413Y2355D01*
X330Y2354D02*
X413Y2354D01*
X330Y2353D02*
X413Y2353D01*
X330Y2352D02*
X413Y2352D01*
X330Y2351D02*
X413Y2351D01*
X330Y2350D02*
X413Y2350D01*
X330Y2349D02*
X413Y2349D01*
X330Y2348D02*
X413Y2348D01*
X330Y2347D02*
X413Y2347D01*
X330Y2346D02*
X413Y2346D01*
X330Y2345D02*
X413Y2345D01*
X330Y2344D02*
X413Y2344D01*
X330Y2343D02*
X413Y2343D01*
X2223Y1872D02*
X2306Y1872D01*
X2223Y1871D02*
X2306Y1871D01*
X2223Y1870D02*
X2306Y1870D01*
X2223Y1869D02*
X2306Y1869D01*
X2223Y1868D02*
X2306Y1868D01*
X2223Y1867D02*
X2306Y1867D01*
X2223Y1866D02*
X2306Y1866D01*
X2223Y1865D02*
X2306Y1865D01*
X2223Y1864D02*
X2306Y1864D01*
X2223Y1863D02*
X2306Y1863D01*
X2223Y1862D02*
X2306Y1862D01*
X2223Y1861D02*
X2306Y1861D01*
X2223Y1860D02*
X2306Y1860D01*
X2223Y1859D02*
X2306Y1859D01*
X2223Y1858D02*
X2306Y1858D01*
X2223Y1857D02*
X2306Y1857D01*
X2223Y1856D02*
X2306Y1856D01*
X2223Y1855D02*
X2306Y1855D01*
X2223Y1854D02*
X2306Y1854D01*
X2223Y1853D02*
X2306Y1853D01*
X2223Y1852D02*
X2306Y1852D01*
X2223Y1851D02*
X2306Y1851D01*
X2223Y1850D02*
X2306Y1850D01*
X2223Y1849D02*
X2306Y1849D01*
X2223Y1848D02*
X2306Y1848D01*
X2223Y1847D02*
X2306Y1847D01*
X2223Y1846D02*
X2306Y1846D01*
X2223Y1845D02*
X2263Y1845D01*
X2266Y1845D02*
X2306Y1845D01*
X2223Y1844D02*
X2258Y1844D01*
X2271Y1844D02*
X2306Y1844D01*
X2223Y1843D02*
X2257Y1843D01*
X2273Y1843D02*
X2306Y1843D01*
X2223Y1842D02*
X2255Y1842D01*
X2274Y1842D02*
X2306Y1842D01*
X2223Y1841D02*
X2254Y1841D01*
X2275Y1841D02*
X2306Y1841D01*
X2223Y1840D02*
X2253Y1840D01*
X2276Y1840D02*
X2306Y1840D01*
X2223Y1839D02*
X2252Y1839D01*
X2277Y1839D02*
X2306Y1839D01*
X2223Y1838D02*
X2252Y1838D01*
X2278Y1838D02*
X2306Y1838D01*
X2223Y1837D02*
X2251Y1837D01*
X2278Y1837D02*
X2306Y1837D01*
X2223Y1836D02*
X2251Y1836D01*
X2279Y1836D02*
X2306Y1836D01*
X2223Y1835D02*
X2250Y1835D01*
X2279Y1835D02*
X2306Y1835D01*
X2223Y1834D02*
X2250Y1834D01*
X2279Y1834D02*
X2306Y1834D01*
X2223Y1833D02*
X2250Y1833D01*
X2280Y1833D02*
X2306Y1833D01*
X2223Y1832D02*
X2250Y1832D01*
X2280Y1832D02*
X2306Y1832D01*
X2223Y1831D02*
X2250Y1831D01*
X2280Y1831D02*
X2306Y1831D01*
X2223Y1830D02*
X2250Y1830D01*
X2280Y1830D02*
X2306Y1830D01*
X2223Y1829D02*
X2250Y1829D01*
X2280Y1829D02*
X2306Y1829D01*
X2223Y1828D02*
X2250Y1828D01*
X2280Y1828D02*
X2306Y1828D01*
X2223Y1827D02*
X2250Y1827D01*
X2279Y1827D02*
X2306Y1827D01*
X2223Y1826D02*
X2250Y1826D01*
X2279Y1826D02*
X2306Y1826D01*
X2223Y1825D02*
X2250Y1825D01*
X2279Y1825D02*
X2306Y1825D01*
X2223Y1824D02*
X2251Y1824D01*
X2278Y1824D02*
X2306Y1824D01*
X2223Y1823D02*
X2251Y1823D01*
X2278Y1823D02*
X2306Y1823D01*
X2223Y1822D02*
X2252Y1822D01*
X2277Y1822D02*
X2306Y1822D01*
X2223Y1821D02*
X2253Y1821D01*
X2276Y1821D02*
X2306Y1821D01*
X2223Y1820D02*
X2254Y1820D01*
X2275Y1820D02*
X2306Y1820D01*
X2223Y1819D02*
X2255Y1819D01*
X2274Y1819D02*
X2306Y1819D01*
X2223Y1818D02*
X2256Y1818D01*
X2273Y1818D02*
X2306Y1818D01*
X2223Y1817D02*
X2258Y1817D01*
X2271Y1817D02*
X2306Y1817D01*
X2223Y1816D02*
X2261Y1816D01*
X2268Y1816D02*
X2306Y1816D01*
X2223Y1815D02*
X2306Y1815D01*
X2223Y1814D02*
X2306Y1814D01*
X2223Y1813D02*
X2306Y1813D01*
X2223Y1812D02*
X2306Y1812D01*
X2223Y1811D02*
X2306Y1811D01*
X2223Y1810D02*
X2306Y1810D01*
X2223Y1809D02*
X2306Y1809D01*
X2223Y1808D02*
X2306Y1808D01*
X2223Y1807D02*
X2306Y1807D01*
X2223Y1806D02*
X2306Y1806D01*
X2223Y1805D02*
X2306Y1805D01*
X2223Y1804D02*
X2306Y1804D01*
X2223Y1803D02*
X2306Y1803D01*
X2223Y1802D02*
X2306Y1802D01*
X2223Y1801D02*
X2306Y1801D01*
X2223Y1800D02*
X2306Y1800D01*
X2223Y1799D02*
X2306Y1799D01*
X2223Y1798D02*
X2306Y1798D01*
X2223Y1797D02*
X2306Y1797D01*
X2223Y1796D02*
X2306Y1796D01*
X2223Y1795D02*
X2306Y1795D01*
X2223Y1794D02*
X2306Y1794D01*
X2223Y1793D02*
X2306Y1793D01*
X2223Y1792D02*
X2306Y1792D01*
X2223Y1791D02*
X2306Y1791D01*
X2223Y1790D02*
X2306Y1790D01*
X2223Y1789D02*
X2306Y1789D01*
X319Y1492D02*
X402Y1492D01*
X319Y1491D02*
X402Y1491D01*
X319Y1490D02*
X402Y1490D01*
X319Y1489D02*
X402Y1489D01*
X319Y1488D02*
X402Y1488D01*
X319Y1487D02*
X402Y1487D01*
X319Y1486D02*
X402Y1486D01*
X319Y1485D02*
X402Y1485D01*
X319Y1484D02*
X402Y1484D01*
X319Y1483D02*
X402Y1483D01*
X319Y1482D02*
X402Y1482D01*
X319Y1481D02*
X402Y1481D01*
X319Y1480D02*
X402Y1480D01*
X319Y1479D02*
X402Y1479D01*
X319Y1478D02*
X402Y1478D01*
X319Y1477D02*
X402Y1477D01*
X319Y1476D02*
X402Y1476D01*
X319Y1475D02*
X402Y1475D01*
X319Y1474D02*
X402Y1474D01*
X319Y1473D02*
X402Y1473D01*
X319Y1472D02*
X402Y1472D01*
X319Y1471D02*
X402Y1471D01*
X319Y1470D02*
X402Y1470D01*
X319Y1469D02*
X402Y1469D01*
X319Y1468D02*
X402Y1468D01*
X319Y1467D02*
X402Y1467D01*
X319Y1466D02*
X402Y1466D01*
X319Y1465D02*
X359Y1465D01*
X363Y1465D02*
X402Y1465D01*
X319Y1464D02*
X354Y1464D01*
X367Y1464D02*
X402Y1464D01*
X319Y1463D02*
X353Y1463D01*
X369Y1463D02*
X402Y1463D01*
X319Y1462D02*
X351Y1462D01*
X370Y1462D02*
X402Y1462D01*
X319Y1461D02*
X350Y1461D01*
X372Y1461D02*
X402Y1461D01*
X319Y1460D02*
X349Y1460D01*
X372Y1460D02*
X402Y1460D01*
X319Y1459D02*
X348Y1459D01*
X373Y1459D02*
X402Y1459D01*
X319Y1458D02*
X348Y1458D01*
X374Y1458D02*
X402Y1458D01*
X319Y1457D02*
X347Y1457D01*
X375Y1457D02*
X402Y1457D01*
X319Y1456D02*
X347Y1456D01*
X375Y1456D02*
X402Y1456D01*
X319Y1455D02*
X346Y1455D01*
X375Y1455D02*
X402Y1455D01*
X319Y1454D02*
X346Y1454D01*
X376Y1454D02*
X402Y1454D01*
X319Y1453D02*
X346Y1453D01*
X376Y1453D02*
X402Y1453D01*
X319Y1452D02*
X346Y1452D01*
X376Y1452D02*
X402Y1452D01*
X319Y1451D02*
X346Y1451D01*
X376Y1451D02*
X402Y1451D01*
X319Y1450D02*
X346Y1450D01*
X376Y1450D02*
X402Y1450D01*
X319Y1449D02*
X346Y1449D01*
X376Y1449D02*
X402Y1449D01*
X319Y1448D02*
X346Y1448D01*
X376Y1448D02*
X402Y1448D01*
X319Y1447D02*
X346Y1447D01*
X376Y1447D02*
X402Y1447D01*
X319Y1446D02*
X346Y1446D01*
X375Y1446D02*
X402Y1446D01*
X319Y1445D02*
X347Y1445D01*
X375Y1445D02*
X402Y1445D01*
X319Y1444D02*
X347Y1444D01*
X375Y1444D02*
X402Y1444D01*
X319Y1443D02*
X348Y1443D01*
X374Y1443D02*
X402Y1443D01*
X319Y1442D02*
X348Y1442D01*
X373Y1442D02*
X402Y1442D01*
X319Y1441D02*
X349Y1441D01*
X373Y1441D02*
X402Y1441D01*
X319Y1440D02*
X350Y1440D01*
X372Y1440D02*
X402Y1440D01*
X319Y1439D02*
X351Y1439D01*
X370Y1439D02*
X402Y1439D01*
X319Y1438D02*
X353Y1438D01*
X369Y1438D02*
X402Y1438D01*
X319Y1437D02*
X354Y1437D01*
X367Y1437D02*
X402Y1437D01*
X319Y1436D02*
X358Y1436D01*
X364Y1436D02*
X402Y1436D01*
X319Y1435D02*
X402Y1435D01*
X319Y1434D02*
X402Y1434D01*
X319Y1433D02*
X402Y1433D01*
X319Y1432D02*
X402Y1432D01*
X319Y1431D02*
X402Y1431D01*
X319Y1430D02*
X402Y1430D01*
X319Y1429D02*
X402Y1429D01*
X319Y1428D02*
X402Y1428D01*
X319Y1427D02*
X402Y1427D01*
X319Y1426D02*
X402Y1426D01*
X319Y1425D02*
X402Y1425D01*
X319Y1424D02*
X402Y1424D01*
X319Y1423D02*
X402Y1423D01*
X319Y1422D02*
X402Y1422D01*
X319Y1421D02*
X402Y1421D01*
X319Y1420D02*
X402Y1420D01*
X319Y1419D02*
X402Y1419D01*
X319Y1418D02*
X402Y1418D01*
X319Y1417D02*
X402Y1417D01*
X319Y1416D02*
X402Y1416D01*
X319Y1415D02*
X402Y1415D01*
X319Y1414D02*
X402Y1414D01*
X319Y1413D02*
X402Y1413D01*
X319Y1412D02*
X402Y1412D01*
X319Y1411D02*
X402Y1411D01*
X319Y1410D02*
X402Y1410D01*
X319Y1409D02*
X402Y1409D01*
X352Y1154D02*
X366Y1154D01*
X452Y1154D02*
X466Y1154D01*
X2152Y1154D02*
X2166Y1154D01*
X2252Y1154D02*
X2266Y1154D01*
X348Y1153D02*
X370Y1153D01*
X448Y1153D02*
X470Y1153D01*
X2148Y1153D02*
X2170Y1153D01*
X2248Y1153D02*
X2270Y1153D01*
X346Y1152D02*
X372Y1152D01*
X446Y1152D02*
X472Y1152D01*
X2146Y1152D02*
X2172Y1152D01*
X2246Y1152D02*
X2272Y1152D01*
X344Y1151D02*
X375Y1151D01*
X443Y1151D02*
X474Y1151D01*
X2143Y1151D02*
X2174Y1151D01*
X2243Y1151D02*
X2274Y1151D01*
X342Y1150D02*
X376Y1150D01*
X442Y1150D02*
X476Y1150D01*
X2142Y1150D02*
X2176Y1150D01*
X2241Y1150D02*
X2276Y1150D01*
X340Y1149D02*
X378Y1149D01*
X440Y1149D02*
X478Y1149D01*
X2140Y1149D02*
X2178Y1149D01*
X2240Y1149D02*
X2278Y1149D01*
X339Y1148D02*
X380Y1148D01*
X438Y1148D02*
X480Y1148D01*
X2138Y1148D02*
X2179Y1148D01*
X2238Y1148D02*
X2279Y1148D01*
X337Y1147D02*
X381Y1147D01*
X437Y1147D02*
X481Y1147D01*
X2137Y1147D02*
X2181Y1147D01*
X2237Y1147D02*
X2281Y1147D01*
X336Y1146D02*
X382Y1146D01*
X436Y1146D02*
X482Y1146D01*
X2136Y1146D02*
X2182Y1146D01*
X2236Y1146D02*
X2282Y1146D01*
X335Y1145D02*
X383Y1145D01*
X435Y1145D02*
X483Y1145D01*
X2135Y1145D02*
X2183Y1145D01*
X2235Y1145D02*
X2283Y1145D01*
X334Y1144D02*
X384Y1144D01*
X434Y1144D02*
X484Y1144D01*
X2134Y1144D02*
X2184Y1144D01*
X2234Y1144D02*
X2284Y1144D01*
X333Y1143D02*
X385Y1143D01*
X433Y1143D02*
X485Y1143D01*
X2133Y1143D02*
X2185Y1143D01*
X2233Y1143D02*
X2285Y1143D01*
X332Y1142D02*
X386Y1142D01*
X432Y1142D02*
X486Y1142D01*
X2132Y1142D02*
X2186Y1142D01*
X2232Y1142D02*
X2286Y1142D01*
X331Y1141D02*
X387Y1141D01*
X431Y1141D02*
X487Y1141D01*
X2131Y1141D02*
X2187Y1141D01*
X2231Y1141D02*
X2287Y1141D01*
X331Y1140D02*
X388Y1140D01*
X430Y1140D02*
X488Y1140D01*
X2130Y1140D02*
X2187Y1140D01*
X2230Y1140D02*
X2287Y1140D01*
X330Y1139D02*
X388Y1139D01*
X430Y1139D02*
X488Y1139D01*
X2130Y1139D02*
X2188Y1139D01*
X2230Y1139D02*
X2288Y1139D01*
X329Y1138D02*
X389Y1138D01*
X429Y1138D02*
X489Y1138D01*
X2129Y1138D02*
X2189Y1138D01*
X2229Y1138D02*
X2289Y1138D01*
X329Y1137D02*
X390Y1137D01*
X429Y1137D02*
X489Y1137D01*
X2128Y1137D02*
X2189Y1137D01*
X2228Y1137D02*
X2289Y1137D01*
X328Y1136D02*
X390Y1136D01*
X428Y1136D02*
X490Y1136D01*
X2128Y1136D02*
X2190Y1136D01*
X2228Y1136D02*
X2290Y1136D01*
X328Y1135D02*
X391Y1135D01*
X427Y1135D02*
X491Y1135D01*
X2127Y1135D02*
X2190Y1135D01*
X2227Y1135D02*
X2290Y1135D01*
X327Y1134D02*
X391Y1134D01*
X427Y1134D02*
X491Y1134D01*
X2127Y1134D02*
X2191Y1134D01*
X2227Y1134D02*
X2291Y1134D01*
X327Y1133D02*
X392Y1133D01*
X426Y1133D02*
X491Y1133D01*
X2126Y1133D02*
X2191Y1133D01*
X2226Y1133D02*
X2291Y1133D01*
X326Y1132D02*
X355Y1132D01*
X363Y1132D02*
X392Y1132D01*
X426Y1132D02*
X455Y1132D01*
X463Y1132D02*
X492Y1132D01*
X2126Y1132D02*
X2155Y1132D01*
X2163Y1132D02*
X2192Y1132D01*
X2226Y1132D02*
X2255Y1132D01*
X2263Y1132D02*
X2292Y1132D01*
X326Y1131D02*
X352Y1131D01*
X366Y1131D02*
X392Y1131D01*
X426Y1131D02*
X452Y1131D01*
X466Y1131D02*
X492Y1131D01*
X2126Y1131D02*
X2152Y1131D01*
X2166Y1131D02*
X2192Y1131D01*
X2226Y1131D02*
X2252Y1131D01*
X2266Y1131D02*
X2292Y1131D01*
X325Y1130D02*
X351Y1130D01*
X367Y1130D02*
X393Y1130D01*
X425Y1130D02*
X451Y1130D01*
X467Y1130D02*
X493Y1130D01*
X2125Y1130D02*
X2151Y1130D01*
X2167Y1130D02*
X2193Y1130D01*
X2225Y1130D02*
X2251Y1130D01*
X2267Y1130D02*
X2292Y1130D01*
X325Y1129D02*
X350Y1129D01*
X368Y1129D02*
X393Y1129D01*
X425Y1129D02*
X450Y1129D01*
X468Y1129D02*
X493Y1129D01*
X2125Y1129D02*
X2149Y1129D01*
X2168Y1129D02*
X2193Y1129D01*
X2225Y1129D02*
X2249Y1129D01*
X2268Y1129D02*
X2293Y1129D01*
X325Y1128D02*
X349Y1128D01*
X370Y1128D02*
X393Y1128D01*
X425Y1128D02*
X449Y1128D01*
X469Y1128D02*
X493Y1128D01*
X2125Y1128D02*
X2148Y1128D01*
X2169Y1128D02*
X2193Y1128D01*
X2225Y1128D02*
X2248Y1128D01*
X2269Y1128D02*
X2293Y1128D01*
X325Y1127D02*
X348Y1127D01*
X370Y1127D02*
X393Y1127D01*
X425Y1127D02*
X448Y1127D01*
X470Y1127D02*
X493Y1127D01*
X2124Y1127D02*
X2148Y1127D01*
X2170Y1127D02*
X2193Y1127D01*
X2224Y1127D02*
X2248Y1127D01*
X2270Y1127D02*
X2293Y1127D01*
X324Y1126D02*
X347Y1126D01*
X371Y1126D02*
X394Y1126D01*
X424Y1126D02*
X447Y1126D01*
X471Y1126D02*
X494Y1126D01*
X2124Y1126D02*
X2147Y1126D01*
X2171Y1126D02*
X2194Y1126D01*
X2224Y1126D02*
X2247Y1126D01*
X2271Y1126D02*
X2294Y1126D01*
X324Y1125D02*
X346Y1125D01*
X372Y1125D02*
X394Y1125D01*
X424Y1125D02*
X446Y1125D01*
X472Y1125D02*
X494Y1125D01*
X2124Y1125D02*
X2146Y1125D01*
X2172Y1125D02*
X2194Y1125D01*
X2224Y1125D02*
X2246Y1125D01*
X2271Y1125D02*
X2294Y1125D01*
X324Y1124D02*
X346Y1124D01*
X372Y1124D02*
X394Y1124D01*
X424Y1124D02*
X446Y1124D01*
X472Y1124D02*
X494Y1124D01*
X2124Y1124D02*
X2146Y1124D01*
X2172Y1124D02*
X2194Y1124D01*
X2224Y1124D02*
X2246Y1124D01*
X2272Y1124D02*
X2294Y1124D01*
X324Y1123D02*
X346Y1123D01*
X372Y1123D02*
X394Y1123D01*
X424Y1123D02*
X446Y1123D01*
X472Y1123D02*
X494Y1123D01*
X2124Y1123D02*
X2146Y1123D01*
X2172Y1123D02*
X2194Y1123D01*
X2224Y1123D02*
X2245Y1123D01*
X2272Y1123D02*
X2294Y1123D01*
X324Y1122D02*
X345Y1122D01*
X373Y1122D02*
X394Y1122D01*
X424Y1122D02*
X445Y1122D01*
X473Y1122D02*
X494Y1122D01*
X2124Y1122D02*
X2145Y1122D01*
X2173Y1122D02*
X2194Y1122D01*
X2224Y1122D02*
X2245Y1122D01*
X2273Y1122D02*
X2294Y1122D01*
X324Y1121D02*
X345Y1121D01*
X373Y1121D02*
X394Y1121D01*
X424Y1121D02*
X445Y1121D01*
X473Y1121D02*
X494Y1121D01*
X2124Y1121D02*
X2145Y1121D01*
X2173Y1121D02*
X2194Y1121D01*
X2224Y1121D02*
X2245Y1121D01*
X2273Y1121D02*
X2294Y1121D01*
X324Y1120D02*
X345Y1120D01*
X373Y1120D02*
X394Y1120D01*
X424Y1120D02*
X445Y1120D01*
X473Y1120D02*
X494Y1120D01*
X2124Y1120D02*
X2145Y1120D01*
X2173Y1120D02*
X2194Y1120D01*
X2223Y1120D02*
X2245Y1120D01*
X2273Y1120D02*
X2294Y1120D01*
X324Y1119D02*
X345Y1119D01*
X373Y1119D02*
X394Y1119D01*
X424Y1119D02*
X445Y1119D01*
X473Y1119D02*
X494Y1119D01*
X2123Y1119D02*
X2145Y1119D01*
X2173Y1119D02*
X2194Y1119D01*
X2223Y1119D02*
X2245Y1119D01*
X2273Y1119D02*
X2294Y1119D01*
X324Y1118D02*
X345Y1118D01*
X373Y1118D02*
X394Y1118D01*
X424Y1118D02*
X445Y1118D01*
X473Y1118D02*
X494Y1118D01*
X2124Y1118D02*
X2145Y1118D01*
X2173Y1118D02*
X2194Y1118D01*
X2223Y1118D02*
X2245Y1118D01*
X2273Y1118D02*
X2294Y1118D01*
X324Y1117D02*
X345Y1117D01*
X373Y1117D02*
X394Y1117D01*
X424Y1117D02*
X445Y1117D01*
X473Y1117D02*
X494Y1117D01*
X2124Y1117D02*
X2145Y1117D01*
X2173Y1117D02*
X2194Y1117D01*
X2224Y1117D02*
X2245Y1117D01*
X2273Y1117D02*
X2294Y1117D01*
X324Y1116D02*
X345Y1116D01*
X373Y1116D02*
X394Y1116D01*
X424Y1116D02*
X445Y1116D01*
X473Y1116D02*
X494Y1116D01*
X2124Y1116D02*
X2145Y1116D01*
X2173Y1116D02*
X2194Y1116D01*
X2224Y1116D02*
X2245Y1116D01*
X2273Y1116D02*
X2294Y1116D01*
X324Y1115D02*
X346Y1115D01*
X373Y1115D02*
X394Y1115D01*
X424Y1115D02*
X446Y1115D01*
X472Y1115D02*
X494Y1115D01*
X2124Y1115D02*
X2145Y1115D01*
X2172Y1115D02*
X2194Y1115D01*
X2224Y1115D02*
X2245Y1115D01*
X2272Y1115D02*
X2294Y1115D01*
X324Y1114D02*
X346Y1114D01*
X372Y1114D02*
X394Y1114D01*
X424Y1114D02*
X446Y1114D01*
X472Y1114D02*
X494Y1114D01*
X2124Y1114D02*
X2146Y1114D01*
X2172Y1114D02*
X2194Y1114D01*
X2224Y1114D02*
X2246Y1114D01*
X2272Y1114D02*
X2294Y1114D01*
X324Y1113D02*
X346Y1113D01*
X372Y1113D02*
X394Y1113D01*
X424Y1113D02*
X446Y1113D01*
X472Y1113D02*
X494Y1113D01*
X2124Y1113D02*
X2146Y1113D01*
X2172Y1113D02*
X2194Y1113D01*
X2224Y1113D02*
X2246Y1113D01*
X2272Y1113D02*
X2294Y1113D01*
X324Y1112D02*
X347Y1112D01*
X371Y1112D02*
X394Y1112D01*
X424Y1112D02*
X447Y1112D01*
X471Y1112D02*
X494Y1112D01*
X2124Y1112D02*
X2147Y1112D01*
X2171Y1112D02*
X2194Y1112D01*
X2224Y1112D02*
X2247Y1112D01*
X2271Y1112D02*
X2294Y1112D01*
X325Y1111D02*
X348Y1111D01*
X370Y1111D02*
X394Y1111D01*
X424Y1111D02*
X448Y1111D01*
X470Y1111D02*
X493Y1111D01*
X2124Y1111D02*
X2147Y1111D01*
X2170Y1111D02*
X2193Y1111D01*
X2224Y1111D02*
X2247Y1111D01*
X2270Y1111D02*
X2293Y1111D01*
X325Y1110D02*
X348Y1110D01*
X370Y1110D02*
X393Y1110D01*
X425Y1110D02*
X448Y1110D01*
X470Y1110D02*
X493Y1110D01*
X2125Y1110D02*
X2148Y1110D01*
X2170Y1110D02*
X2193Y1110D01*
X2225Y1110D02*
X2248Y1110D01*
X2269Y1110D02*
X2293Y1110D01*
X325Y1109D02*
X349Y1109D01*
X369Y1109D02*
X393Y1109D01*
X425Y1109D02*
X449Y1109D01*
X469Y1109D02*
X493Y1109D01*
X2125Y1109D02*
X2149Y1109D01*
X2169Y1109D02*
X2193Y1109D01*
X2225Y1109D02*
X2249Y1109D01*
X2269Y1109D02*
X2293Y1109D01*
X325Y1108D02*
X351Y1108D01*
X368Y1108D02*
X393Y1108D01*
X425Y1108D02*
X451Y1108D01*
X467Y1108D02*
X493Y1108D01*
X2125Y1108D02*
X2150Y1108D01*
X2167Y1108D02*
X2193Y1108D01*
X2225Y1108D02*
X2250Y1108D01*
X2267Y1108D02*
X2293Y1108D01*
X326Y1107D02*
X352Y1107D01*
X366Y1107D02*
X392Y1107D01*
X426Y1107D02*
X452Y1107D01*
X466Y1107D02*
X492Y1107D01*
X2126Y1107D02*
X2152Y1107D01*
X2166Y1107D02*
X2192Y1107D01*
X2226Y1107D02*
X2252Y1107D01*
X2266Y1107D02*
X2292Y1107D01*
X326Y1106D02*
X355Y1106D01*
X364Y1106D02*
X392Y1106D01*
X426Y1106D02*
X455Y1106D01*
X464Y1106D02*
X492Y1106D01*
X2126Y1106D02*
X2154Y1106D01*
X2163Y1106D02*
X2192Y1106D01*
X2226Y1106D02*
X2254Y1106D01*
X2263Y1106D02*
X2292Y1106D01*
X326Y1105D02*
X392Y1105D01*
X426Y1105D02*
X492Y1105D01*
X2126Y1105D02*
X2191Y1105D01*
X2226Y1105D02*
X2291Y1105D01*
X327Y1104D02*
X391Y1104D01*
X427Y1104D02*
X491Y1104D01*
X2127Y1104D02*
X2191Y1104D01*
X2227Y1104D02*
X2291Y1104D01*
X327Y1103D02*
X391Y1103D01*
X427Y1103D02*
X491Y1103D01*
X2127Y1103D02*
X2191Y1103D01*
X2227Y1103D02*
X2290Y1103D01*
X328Y1102D02*
X390Y1102D01*
X428Y1102D02*
X490Y1102D01*
X2128Y1102D02*
X2190Y1102D01*
X2228Y1102D02*
X2290Y1102D01*
X328Y1101D02*
X390Y1101D01*
X428Y1101D02*
X490Y1101D01*
X2128Y1101D02*
X2189Y1101D01*
X2228Y1101D02*
X2289Y1101D01*
X329Y1100D02*
X389Y1100D01*
X429Y1100D02*
X489Y1100D01*
X2129Y1100D02*
X2189Y1100D01*
X2229Y1100D02*
X2289Y1100D01*
X330Y1099D02*
X388Y1099D01*
X430Y1099D02*
X488Y1099D01*
X2130Y1099D02*
X2188Y1099D01*
X2230Y1099D02*
X2288Y1099D01*
X330Y1098D02*
X388Y1098D01*
X430Y1098D02*
X488Y1098D01*
X2130Y1098D02*
X2188Y1098D01*
X2230Y1098D02*
X2288Y1098D01*
X331Y1097D02*
X387Y1097D01*
X431Y1097D02*
X487Y1097D01*
X2131Y1097D02*
X2187Y1097D01*
X2231Y1097D02*
X2287Y1097D01*
X332Y1096D02*
X386Y1096D01*
X432Y1096D02*
X486Y1096D01*
X2132Y1096D02*
X2186Y1096D01*
X2232Y1096D02*
X2286Y1096D01*
X333Y1095D02*
X385Y1095D01*
X433Y1095D02*
X485Y1095D01*
X2133Y1095D02*
X2185Y1095D01*
X2233Y1095D02*
X2285Y1095D01*
X334Y1094D02*
X384Y1094D01*
X434Y1094D02*
X484Y1094D01*
X2134Y1094D02*
X2184Y1094D01*
X2233Y1094D02*
X2284Y1094D01*
X335Y1093D02*
X383Y1093D01*
X435Y1093D02*
X483Y1093D01*
X2135Y1093D02*
X2183Y1093D01*
X2235Y1093D02*
X2283Y1093D01*
X336Y1092D02*
X382Y1092D01*
X436Y1092D02*
X482Y1092D01*
X2136Y1092D02*
X2182Y1092D01*
X2236Y1092D02*
X2282Y1092D01*
X337Y1091D02*
X381Y1091D01*
X437Y1091D02*
X481Y1091D01*
X2137Y1091D02*
X2181Y1091D01*
X2237Y1091D02*
X2281Y1091D01*
X338Y1090D02*
X380Y1090D01*
X438Y1090D02*
X480Y1090D01*
X2138Y1090D02*
X2180Y1090D01*
X2238Y1090D02*
X2280Y1090D01*
X340Y1089D02*
X378Y1089D01*
X440Y1089D02*
X478Y1089D01*
X2140Y1089D02*
X2178Y1089D01*
X2240Y1089D02*
X2278Y1089D01*
X341Y1088D02*
X377Y1088D01*
X441Y1088D02*
X477Y1088D01*
X2141Y1088D02*
X2177Y1088D01*
X2241Y1088D02*
X2277Y1088D01*
X343Y1087D02*
X375Y1087D01*
X443Y1087D02*
X475Y1087D01*
X2143Y1087D02*
X2175Y1087D01*
X2243Y1087D02*
X2275Y1087D01*
X345Y1086D02*
X373Y1086D01*
X445Y1086D02*
X473Y1086D01*
X2145Y1086D02*
X2173Y1086D01*
X2245Y1086D02*
X2273Y1086D01*
X348Y1085D02*
X370Y1085D01*
X448Y1085D02*
X470Y1085D01*
X2148Y1085D02*
X2170Y1085D01*
X2248Y1085D02*
X2270Y1085D01*
X351Y1084D02*
X367Y1084D01*
X451Y1084D02*
X467Y1084D01*
X2151Y1084D02*
X2167Y1084D01*
X2251Y1084D02*
X2267Y1084D01*
X359Y1083D02*
X359Y1083D01*
X459Y1083D02*
X459Y1083D01*
X2159Y1083D02*
X2159Y1083D01*
X2259Y1083D02*
X2259Y1083D01*
X352Y754D02*
X366Y754D01*
X452Y754D02*
X466Y754D01*
X2152Y754D02*
X2166Y754D01*
X2252Y754D02*
X2266Y754D01*
X348Y753D02*
X370Y753D01*
X448Y753D02*
X470Y753D01*
X2148Y753D02*
X2170Y753D01*
X2248Y753D02*
X2270Y753D01*
X346Y752D02*
X372Y752D01*
X445Y752D02*
X472Y752D01*
X2145Y752D02*
X2172Y752D01*
X2245Y752D02*
X2272Y752D01*
X343Y751D02*
X375Y751D01*
X443Y751D02*
X475Y751D01*
X2143Y751D02*
X2174Y751D01*
X2243Y751D02*
X2274Y751D01*
X342Y750D02*
X376Y750D01*
X441Y750D02*
X476Y750D01*
X2141Y750D02*
X2176Y750D01*
X2241Y750D02*
X2276Y750D01*
X340Y749D02*
X378Y749D01*
X440Y749D02*
X478Y749D01*
X2140Y749D02*
X2178Y749D01*
X2240Y749D02*
X2278Y749D01*
X338Y748D02*
X380Y748D01*
X438Y748D02*
X480Y748D01*
X2138Y748D02*
X2180Y748D01*
X2238Y748D02*
X2279Y748D01*
X337Y747D02*
X381Y747D01*
X437Y747D02*
X481Y747D01*
X2137Y747D02*
X2181Y747D01*
X2237Y747D02*
X2281Y747D01*
X336Y746D02*
X382Y746D01*
X436Y746D02*
X482Y746D01*
X2136Y746D02*
X2182Y746D01*
X2236Y746D02*
X2282Y746D01*
X335Y745D02*
X383Y745D01*
X435Y745D02*
X483Y745D01*
X2135Y745D02*
X2183Y745D01*
X2235Y745D02*
X2283Y745D01*
X334Y744D02*
X384Y744D01*
X434Y744D02*
X484Y744D01*
X2134Y744D02*
X2184Y744D01*
X2234Y744D02*
X2284Y744D01*
X333Y743D02*
X385Y743D01*
X433Y743D02*
X485Y743D01*
X2133Y743D02*
X2185Y743D01*
X2233Y743D02*
X2285Y743D01*
X332Y742D02*
X386Y742D01*
X432Y742D02*
X486Y742D01*
X2132Y742D02*
X2186Y742D01*
X2232Y742D02*
X2286Y742D01*
X331Y741D02*
X387Y741D01*
X431Y741D02*
X487Y741D01*
X2131Y741D02*
X2187Y741D01*
X2231Y741D02*
X2287Y741D01*
X330Y740D02*
X388Y740D01*
X430Y740D02*
X488Y740D01*
X2130Y740D02*
X2187Y740D01*
X2230Y740D02*
X2287Y740D01*
X330Y739D02*
X388Y739D01*
X430Y739D02*
X488Y739D01*
X2130Y739D02*
X2188Y739D01*
X2230Y739D02*
X2288Y739D01*
X329Y738D02*
X389Y738D01*
X429Y738D02*
X489Y738D01*
X2129Y738D02*
X2189Y738D01*
X2229Y738D02*
X2289Y738D01*
X329Y737D02*
X390Y737D01*
X428Y737D02*
X489Y737D01*
X2128Y737D02*
X2189Y737D01*
X2228Y737D02*
X2289Y737D01*
X328Y736D02*
X390Y736D01*
X428Y736D02*
X490Y736D01*
X2128Y736D02*
X2190Y736D01*
X2228Y736D02*
X2290Y736D01*
X327Y735D02*
X391Y735D01*
X427Y735D02*
X491Y735D01*
X2127Y735D02*
X2190Y735D01*
X2227Y735D02*
X2290Y735D01*
X327Y734D02*
X391Y734D01*
X427Y734D02*
X491Y734D01*
X2127Y734D02*
X2191Y734D01*
X2227Y734D02*
X2291Y734D01*
X327Y733D02*
X392Y733D01*
X426Y733D02*
X491Y733D01*
X2126Y733D02*
X2191Y733D01*
X2226Y733D02*
X2291Y733D01*
X326Y732D02*
X355Y732D01*
X363Y732D02*
X392Y732D01*
X426Y732D02*
X455Y732D01*
X463Y732D02*
X492Y732D01*
X2126Y732D02*
X2155Y732D01*
X2163Y732D02*
X2192Y732D01*
X2226Y732D02*
X2255Y732D01*
X2263Y732D02*
X2292Y732D01*
X326Y731D02*
X352Y731D01*
X366Y731D02*
X392Y731D01*
X426Y731D02*
X452Y731D01*
X466Y731D02*
X492Y731D01*
X2126Y731D02*
X2152Y731D01*
X2166Y731D02*
X2192Y731D01*
X2226Y731D02*
X2252Y731D01*
X2266Y731D02*
X2292Y731D01*
X325Y730D02*
X351Y730D01*
X367Y730D02*
X393Y730D01*
X425Y730D02*
X451Y730D01*
X467Y730D02*
X493Y730D01*
X2125Y730D02*
X2151Y730D01*
X2167Y730D02*
X2193Y730D01*
X2225Y730D02*
X2251Y730D01*
X2267Y730D02*
X2293Y730D01*
X325Y729D02*
X350Y729D01*
X369Y729D02*
X393Y729D01*
X425Y729D02*
X450Y729D01*
X469Y729D02*
X493Y729D01*
X2125Y729D02*
X2149Y729D01*
X2168Y729D02*
X2193Y729D01*
X2225Y729D02*
X2249Y729D01*
X2268Y729D02*
X2293Y729D01*
X325Y728D02*
X349Y728D01*
X370Y728D02*
X393Y728D01*
X425Y728D02*
X449Y728D01*
X470Y728D02*
X493Y728D01*
X2125Y728D02*
X2148Y728D01*
X2169Y728D02*
X2193Y728D01*
X2225Y728D02*
X2248Y728D01*
X2269Y728D02*
X2293Y728D01*
X325Y727D02*
X348Y727D01*
X370Y727D02*
X393Y727D01*
X425Y727D02*
X448Y727D01*
X470Y727D02*
X493Y727D01*
X2124Y727D02*
X2148Y727D01*
X2170Y727D02*
X2193Y727D01*
X2224Y727D02*
X2248Y727D01*
X2270Y727D02*
X2293Y727D01*
X324Y726D02*
X347Y726D01*
X371Y726D02*
X394Y726D01*
X424Y726D02*
X447Y726D01*
X471Y726D02*
X494Y726D01*
X2124Y726D02*
X2147Y726D01*
X2171Y726D02*
X2194Y726D01*
X2224Y726D02*
X2247Y726D01*
X2271Y726D02*
X2294Y726D01*
X324Y725D02*
X346Y725D01*
X372Y725D02*
X394Y725D01*
X424Y725D02*
X446Y725D01*
X472Y725D02*
X494Y725D01*
X2124Y725D02*
X2146Y725D01*
X2172Y725D02*
X2194Y725D01*
X2224Y725D02*
X2246Y725D01*
X2272Y725D02*
X2294Y725D01*
X324Y724D02*
X346Y724D01*
X372Y724D02*
X394Y724D01*
X424Y724D02*
X446Y724D01*
X472Y724D02*
X494Y724D01*
X2124Y724D02*
X2146Y724D01*
X2172Y724D02*
X2194Y724D01*
X2224Y724D02*
X2246Y724D01*
X2272Y724D02*
X2294Y724D01*
X324Y723D02*
X346Y723D01*
X372Y723D02*
X394Y723D01*
X424Y723D02*
X446Y723D01*
X472Y723D02*
X494Y723D01*
X2124Y723D02*
X2146Y723D01*
X2172Y723D02*
X2194Y723D01*
X2224Y723D02*
X2245Y723D01*
X2272Y723D02*
X2294Y723D01*
X324Y722D02*
X345Y722D01*
X373Y722D02*
X394Y722D01*
X424Y722D02*
X445Y722D01*
X473Y722D02*
X494Y722D01*
X2124Y722D02*
X2145Y722D01*
X2173Y722D02*
X2194Y722D01*
X2224Y722D02*
X2245Y722D01*
X2273Y722D02*
X2294Y722D01*
X324Y721D02*
X345Y721D01*
X373Y721D02*
X394Y721D01*
X424Y721D02*
X445Y721D01*
X473Y721D02*
X494Y721D01*
X2124Y721D02*
X2145Y721D01*
X2173Y721D02*
X2194Y721D01*
X2224Y721D02*
X2245Y721D01*
X2273Y721D02*
X2294Y721D01*
X324Y720D02*
X345Y720D01*
X373Y720D02*
X394Y720D01*
X424Y720D02*
X445Y720D01*
X473Y720D02*
X494Y720D01*
X2124Y720D02*
X2145Y720D01*
X2173Y720D02*
X2194Y720D01*
X2223Y720D02*
X2245Y720D01*
X2273Y720D02*
X2294Y720D01*
X324Y719D02*
X345Y719D01*
X373Y719D02*
X394Y719D01*
X424Y719D02*
X445Y719D01*
X473Y719D02*
X494Y719D01*
X2123Y719D02*
X2145Y719D01*
X2173Y719D02*
X2194Y719D01*
X2223Y719D02*
X2245Y719D01*
X2273Y719D02*
X2294Y719D01*
X324Y718D02*
X345Y718D01*
X373Y718D02*
X394Y718D01*
X424Y718D02*
X445Y718D01*
X473Y718D02*
X494Y718D01*
X2124Y718D02*
X2145Y718D01*
X2173Y718D02*
X2194Y718D01*
X2223Y718D02*
X2245Y718D01*
X2273Y718D02*
X2294Y718D01*
X324Y717D02*
X345Y717D01*
X373Y717D02*
X394Y717D01*
X424Y717D02*
X445Y717D01*
X473Y717D02*
X494Y717D01*
X2124Y717D02*
X2145Y717D01*
X2173Y717D02*
X2194Y717D01*
X2224Y717D02*
X2245Y717D01*
X2273Y717D02*
X2294Y717D01*
X324Y716D02*
X345Y716D01*
X373Y716D02*
X394Y716D01*
X424Y716D02*
X445Y716D01*
X473Y716D02*
X494Y716D01*
X2124Y716D02*
X2145Y716D01*
X2173Y716D02*
X2194Y716D01*
X2224Y716D02*
X2245Y716D01*
X2273Y716D02*
X2294Y716D01*
X324Y715D02*
X346Y715D01*
X372Y715D02*
X394Y715D01*
X424Y715D02*
X446Y715D01*
X472Y715D02*
X494Y715D01*
X2124Y715D02*
X2146Y715D01*
X2172Y715D02*
X2194Y715D01*
X2224Y715D02*
X2245Y715D01*
X2272Y715D02*
X2294Y715D01*
X324Y714D02*
X346Y714D01*
X372Y714D02*
X394Y714D01*
X424Y714D02*
X446Y714D01*
X472Y714D02*
X494Y714D01*
X2124Y714D02*
X2146Y714D01*
X2172Y714D02*
X2194Y714D01*
X2224Y714D02*
X2246Y714D01*
X2272Y714D02*
X2294Y714D01*
X324Y713D02*
X346Y713D01*
X372Y713D02*
X394Y713D01*
X424Y713D02*
X446Y713D01*
X472Y713D02*
X494Y713D01*
X2124Y713D02*
X2146Y713D01*
X2172Y713D02*
X2194Y713D01*
X2224Y713D02*
X2246Y713D01*
X2272Y713D02*
X2294Y713D01*
X324Y712D02*
X347Y712D01*
X371Y712D02*
X394Y712D01*
X424Y712D02*
X447Y712D01*
X471Y712D02*
X494Y712D01*
X2124Y712D02*
X2147Y712D01*
X2171Y712D02*
X2194Y712D01*
X2224Y712D02*
X2247Y712D01*
X2271Y712D02*
X2294Y712D01*
X325Y711D02*
X348Y711D01*
X370Y711D02*
X394Y711D01*
X425Y711D02*
X448Y711D01*
X470Y711D02*
X493Y711D01*
X2124Y711D02*
X2148Y711D01*
X2170Y711D02*
X2193Y711D01*
X2224Y711D02*
X2247Y711D01*
X2270Y711D02*
X2293Y711D01*
X325Y710D02*
X349Y710D01*
X370Y710D02*
X393Y710D01*
X425Y710D02*
X448Y710D01*
X470Y710D02*
X493Y710D01*
X2125Y710D02*
X2148Y710D01*
X2170Y710D02*
X2193Y710D01*
X2225Y710D02*
X2248Y710D01*
X2269Y710D02*
X2293Y710D01*
X325Y709D02*
X349Y709D01*
X369Y709D02*
X393Y709D01*
X425Y709D02*
X449Y709D01*
X469Y709D02*
X493Y709D01*
X2125Y709D02*
X2149Y709D01*
X2169Y709D02*
X2193Y709D01*
X2225Y709D02*
X2249Y709D01*
X2268Y709D02*
X2293Y709D01*
X325Y708D02*
X351Y708D01*
X367Y708D02*
X393Y708D01*
X425Y708D02*
X451Y708D01*
X467Y708D02*
X493Y708D01*
X2125Y708D02*
X2151Y708D01*
X2167Y708D02*
X2193Y708D01*
X2225Y708D02*
X2250Y708D01*
X2267Y708D02*
X2293Y708D01*
X326Y707D02*
X352Y707D01*
X366Y707D02*
X392Y707D01*
X426Y707D02*
X452Y707D01*
X466Y707D02*
X492Y707D01*
X2126Y707D02*
X2152Y707D01*
X2166Y707D02*
X2192Y707D01*
X2226Y707D02*
X2252Y707D01*
X2266Y707D02*
X2292Y707D01*
X326Y706D02*
X355Y706D01*
X363Y706D02*
X392Y706D01*
X426Y706D02*
X455Y706D01*
X463Y706D02*
X492Y706D01*
X2126Y706D02*
X2155Y706D01*
X2163Y706D02*
X2192Y706D01*
X2226Y706D02*
X2255Y706D01*
X2263Y706D02*
X2292Y706D01*
X327Y705D02*
X392Y705D01*
X426Y705D02*
X492Y705D01*
X2126Y705D02*
X2191Y705D01*
X2226Y705D02*
X2291Y705D01*
X327Y704D02*
X391Y704D01*
X427Y704D02*
X491Y704D01*
X2127Y704D02*
X2191Y704D01*
X2227Y704D02*
X2291Y704D01*
X327Y703D02*
X391Y703D01*
X427Y703D02*
X491Y703D01*
X2127Y703D02*
X2191Y703D01*
X2227Y703D02*
X2290Y703D01*
X328Y702D02*
X390Y702D01*
X428Y702D02*
X490Y702D01*
X2128Y702D02*
X2190Y702D01*
X2228Y702D02*
X2290Y702D01*
X329Y701D02*
X390Y701D01*
X428Y701D02*
X490Y701D01*
X2128Y701D02*
X2189Y701D01*
X2228Y701D02*
X2289Y701D01*
X329Y700D02*
X389Y700D01*
X429Y700D02*
X489Y700D01*
X2129Y700D02*
X2189Y700D01*
X2229Y700D02*
X2289Y700D01*
X330Y699D02*
X388Y699D01*
X430Y699D02*
X488Y699D01*
X2130Y699D02*
X2188Y699D01*
X2230Y699D02*
X2288Y699D01*
X330Y698D02*
X388Y698D01*
X430Y698D02*
X488Y698D01*
X2130Y698D02*
X2188Y698D01*
X2230Y698D02*
X2287Y698D01*
X331Y697D02*
X387Y697D01*
X431Y697D02*
X487Y697D01*
X2131Y697D02*
X2187Y697D01*
X2231Y697D02*
X2287Y697D01*
X332Y696D02*
X386Y696D01*
X432Y696D02*
X486Y696D01*
X2132Y696D02*
X2186Y696D01*
X2232Y696D02*
X2286Y696D01*
X333Y695D02*
X385Y695D01*
X433Y695D02*
X485Y695D01*
X2133Y695D02*
X2185Y695D01*
X2233Y695D02*
X2285Y695D01*
X334Y694D02*
X384Y694D01*
X434Y694D02*
X484Y694D01*
X2134Y694D02*
X2184Y694D01*
X2234Y694D02*
X2284Y694D01*
X335Y693D02*
X383Y693D01*
X435Y693D02*
X483Y693D01*
X2135Y693D02*
X2183Y693D01*
X2235Y693D02*
X2283Y693D01*
X336Y692D02*
X382Y692D01*
X436Y692D02*
X482Y692D01*
X2136Y692D02*
X2182Y692D01*
X2236Y692D02*
X2282Y692D01*
X337Y691D02*
X381Y691D01*
X437Y691D02*
X481Y691D01*
X2137Y691D02*
X2181Y691D01*
X2237Y691D02*
X2281Y691D01*
X338Y690D02*
X380Y690D01*
X438Y690D02*
X480Y690D01*
X2138Y690D02*
X2180Y690D01*
X2238Y690D02*
X2280Y690D01*
X340Y689D02*
X378Y689D01*
X440Y689D02*
X478Y689D01*
X2140Y689D02*
X2178Y689D01*
X2240Y689D02*
X2278Y689D01*
X341Y688D02*
X377Y688D01*
X441Y688D02*
X477Y688D01*
X2141Y688D02*
X2176Y688D01*
X2241Y688D02*
X2276Y688D01*
X343Y687D02*
X375Y687D01*
X443Y687D02*
X475Y687D01*
X2143Y687D02*
X2175Y687D01*
X2243Y687D02*
X2275Y687D01*
X345Y686D02*
X373Y686D01*
X445Y686D02*
X473Y686D01*
X2145Y686D02*
X2173Y686D01*
X2245Y686D02*
X2272Y686D01*
X348Y685D02*
X370Y685D01*
X448Y685D02*
X470Y685D01*
X2148Y685D02*
X2170Y685D01*
X2248Y685D02*
X2270Y685D01*
X352Y684D02*
X367Y684D01*
X451Y684D02*
X466Y684D01*
X2151Y684D02*
X2166Y684D01*
X2251Y684D02*
X2266Y684D01*
D02*
G04 End of Mask1*
M02*