; NON-PLATED HOLES START AT T1
; THROUGH (PLATED) HOLES START AT T100
M48
INCH
T1C0.125984
T100C0.039370
T101C0.048028
T102C0.036000
%
T1
X025129Y027670
X001114Y018500
X025153Y018800
X001225Y023337
X001114Y014000
X001225Y027837
X025153Y014300
X025129Y023170
T100
X021653Y016800
X021629Y026670
X003614Y016500
X021653Y017800
X022653Y015300
X022629Y026170
X022653Y018300
X021653Y015800
X003725Y026837
X003725Y023837
X003614Y017500
X021629Y025670
X022653Y017300
X022629Y024170
X003725Y024837
X003614Y015500
X004725Y024337
X003614Y014500
X022653Y016300
X021629Y024670
X004614Y017000
X021653Y014800
X004725Y026337
X003725Y025837
X004614Y018000
X022629Y027170
X004725Y025337
X022629Y025170
X021629Y023670
X004725Y027337
X004614Y016000
X004614Y015000
T101
X003595Y011185
X021596Y011185
X022595Y011185
X003595Y007185
X021596Y007185
X004595Y007185
X004595Y011185
X022595Y007185
T102
X010800Y024332
X016800Y013332
X016800Y017332
X016800Y024332
X010800Y027332
X010800Y020332
X010800Y017332
X016800Y019332
X016800Y016332
X010800Y026332
X010800Y025332
X016800Y018332
X010800Y023332
X010800Y022332
X016800Y020332
X010800Y016332
X016800Y023332
X010800Y018332
X016800Y021332
X010800Y021332
X010800Y015332
X010800Y014332
X016800Y014332
X016800Y025332
X016800Y015332
X010800Y013332
X016800Y026332
X016800Y022332
X016800Y027332
X010800Y019332
T00
M30
