G04 MADE WITH FRITZING*
G04 WWW.FRITZING.ORG*
G04 DOUBLE SIDED*
G04 HOLES PLATED*
G04 CONTOUR ON CENTER OF CONTOUR VECTOR*
%ASAXBY*%
%FSLAX23Y23*%
%MOIN*%
%OFA0B0*%
%SFA1.0B1.0*%
%ADD10C,0.010000*%
%ADD11C,0.008000*%
%ADD12R,0.001000X0.001000*%
%LNSILK0*%
G90*
G70*
G54D10*
X666Y696D02*
X266Y696D01*
D02*
X266Y696D02*
X266Y796D01*
D02*
X266Y796D02*
X666Y796D01*
D02*
X666Y796D02*
X666Y696D01*
G54D11*
D02*
X767Y10D02*
X767Y521D01*
D02*
X767Y10D02*
X167Y10D01*
D02*
X167Y521D02*
X167Y10D01*
G54D12*
X0Y1575D02*
X983Y1575D01*
X0Y1574D02*
X983Y1574D01*
X0Y1573D02*
X983Y1573D01*
X0Y1572D02*
X983Y1572D01*
X0Y1571D02*
X983Y1571D01*
X0Y1570D02*
X983Y1570D01*
X0Y1569D02*
X983Y1569D01*
X0Y1568D02*
X983Y1568D01*
X0Y1567D02*
X7Y1567D01*
X976Y1567D02*
X983Y1567D01*
X0Y1566D02*
X7Y1566D01*
X976Y1566D02*
X983Y1566D01*
X0Y1565D02*
X7Y1565D01*
X976Y1565D02*
X983Y1565D01*
X0Y1564D02*
X7Y1564D01*
X976Y1564D02*
X983Y1564D01*
X0Y1563D02*
X7Y1563D01*
X976Y1563D02*
X983Y1563D01*
X0Y1562D02*
X7Y1562D01*
X976Y1562D02*
X983Y1562D01*
X0Y1561D02*
X7Y1561D01*
X976Y1561D02*
X983Y1561D01*
X0Y1560D02*
X7Y1560D01*
X976Y1560D02*
X983Y1560D01*
X0Y1559D02*
X7Y1559D01*
X976Y1559D02*
X983Y1559D01*
X0Y1558D02*
X7Y1558D01*
X976Y1558D02*
X983Y1558D01*
X0Y1557D02*
X7Y1557D01*
X976Y1557D02*
X983Y1557D01*
X0Y1556D02*
X7Y1556D01*
X976Y1556D02*
X983Y1556D01*
X0Y1555D02*
X7Y1555D01*
X976Y1555D02*
X983Y1555D01*
X0Y1554D02*
X7Y1554D01*
X976Y1554D02*
X983Y1554D01*
X0Y1553D02*
X7Y1553D01*
X976Y1553D02*
X983Y1553D01*
X0Y1552D02*
X7Y1552D01*
X976Y1552D02*
X983Y1552D01*
X0Y1551D02*
X7Y1551D01*
X976Y1551D02*
X983Y1551D01*
X0Y1550D02*
X7Y1550D01*
X976Y1550D02*
X983Y1550D01*
X0Y1549D02*
X7Y1549D01*
X976Y1549D02*
X983Y1549D01*
X0Y1548D02*
X7Y1548D01*
X976Y1548D02*
X983Y1548D01*
X0Y1547D02*
X7Y1547D01*
X976Y1547D02*
X983Y1547D01*
X0Y1546D02*
X7Y1546D01*
X976Y1546D02*
X983Y1546D01*
X0Y1545D02*
X7Y1545D01*
X976Y1545D02*
X983Y1545D01*
X0Y1544D02*
X7Y1544D01*
X976Y1544D02*
X983Y1544D01*
X0Y1543D02*
X7Y1543D01*
X976Y1543D02*
X983Y1543D01*
X0Y1542D02*
X7Y1542D01*
X976Y1542D02*
X983Y1542D01*
X0Y1541D02*
X7Y1541D01*
X976Y1541D02*
X983Y1541D01*
X0Y1540D02*
X7Y1540D01*
X976Y1540D02*
X983Y1540D01*
X0Y1539D02*
X7Y1539D01*
X976Y1539D02*
X983Y1539D01*
X0Y1538D02*
X7Y1538D01*
X976Y1538D02*
X983Y1538D01*
X0Y1537D02*
X7Y1537D01*
X976Y1537D02*
X983Y1537D01*
X0Y1536D02*
X7Y1536D01*
X976Y1536D02*
X983Y1536D01*
X0Y1535D02*
X7Y1535D01*
X976Y1535D02*
X983Y1535D01*
X0Y1534D02*
X7Y1534D01*
X976Y1534D02*
X983Y1534D01*
X0Y1533D02*
X7Y1533D01*
X976Y1533D02*
X983Y1533D01*
X0Y1532D02*
X7Y1532D01*
X976Y1532D02*
X983Y1532D01*
X0Y1531D02*
X7Y1531D01*
X976Y1531D02*
X983Y1531D01*
X0Y1530D02*
X7Y1530D01*
X976Y1530D02*
X983Y1530D01*
X0Y1529D02*
X7Y1529D01*
X976Y1529D02*
X983Y1529D01*
X0Y1528D02*
X7Y1528D01*
X976Y1528D02*
X983Y1528D01*
X0Y1527D02*
X7Y1527D01*
X976Y1527D02*
X983Y1527D01*
X0Y1526D02*
X7Y1526D01*
X976Y1526D02*
X983Y1526D01*
X0Y1525D02*
X7Y1525D01*
X976Y1525D02*
X983Y1525D01*
X0Y1524D02*
X7Y1524D01*
X976Y1524D02*
X983Y1524D01*
X0Y1523D02*
X7Y1523D01*
X976Y1523D02*
X983Y1523D01*
X0Y1522D02*
X7Y1522D01*
X976Y1522D02*
X983Y1522D01*
X0Y1521D02*
X7Y1521D01*
X976Y1521D02*
X983Y1521D01*
X0Y1520D02*
X7Y1520D01*
X976Y1520D02*
X983Y1520D01*
X0Y1519D02*
X7Y1519D01*
X976Y1519D02*
X983Y1519D01*
X0Y1518D02*
X7Y1518D01*
X976Y1518D02*
X983Y1518D01*
X0Y1517D02*
X7Y1517D01*
X976Y1517D02*
X983Y1517D01*
X0Y1516D02*
X7Y1516D01*
X976Y1516D02*
X983Y1516D01*
X0Y1515D02*
X7Y1515D01*
X976Y1515D02*
X983Y1515D01*
X0Y1514D02*
X7Y1514D01*
X976Y1514D02*
X983Y1514D01*
X0Y1513D02*
X7Y1513D01*
X976Y1513D02*
X983Y1513D01*
X0Y1512D02*
X7Y1512D01*
X976Y1512D02*
X983Y1512D01*
X0Y1511D02*
X7Y1511D01*
X976Y1511D02*
X983Y1511D01*
X0Y1510D02*
X7Y1510D01*
X976Y1510D02*
X983Y1510D01*
X0Y1509D02*
X7Y1509D01*
X976Y1509D02*
X983Y1509D01*
X0Y1508D02*
X7Y1508D01*
X976Y1508D02*
X983Y1508D01*
X0Y1507D02*
X7Y1507D01*
X976Y1507D02*
X983Y1507D01*
X0Y1506D02*
X7Y1506D01*
X976Y1506D02*
X983Y1506D01*
X0Y1505D02*
X7Y1505D01*
X976Y1505D02*
X983Y1505D01*
X0Y1504D02*
X7Y1504D01*
X976Y1504D02*
X983Y1504D01*
X0Y1503D02*
X7Y1503D01*
X976Y1503D02*
X983Y1503D01*
X0Y1502D02*
X7Y1502D01*
X976Y1502D02*
X983Y1502D01*
X0Y1501D02*
X7Y1501D01*
X976Y1501D02*
X983Y1501D01*
X0Y1500D02*
X7Y1500D01*
X976Y1500D02*
X983Y1500D01*
X0Y1499D02*
X7Y1499D01*
X976Y1499D02*
X983Y1499D01*
X0Y1498D02*
X7Y1498D01*
X976Y1498D02*
X983Y1498D01*
X0Y1497D02*
X7Y1497D01*
X976Y1497D02*
X983Y1497D01*
X0Y1496D02*
X7Y1496D01*
X976Y1496D02*
X983Y1496D01*
X0Y1495D02*
X7Y1495D01*
X976Y1495D02*
X983Y1495D01*
X0Y1494D02*
X7Y1494D01*
X976Y1494D02*
X983Y1494D01*
X0Y1493D02*
X7Y1493D01*
X976Y1493D02*
X983Y1493D01*
X0Y1492D02*
X7Y1492D01*
X976Y1492D02*
X983Y1492D01*
X0Y1491D02*
X7Y1491D01*
X976Y1491D02*
X983Y1491D01*
X0Y1490D02*
X7Y1490D01*
X976Y1490D02*
X983Y1490D01*
X0Y1489D02*
X7Y1489D01*
X976Y1489D02*
X983Y1489D01*
X0Y1488D02*
X7Y1488D01*
X976Y1488D02*
X983Y1488D01*
X0Y1487D02*
X7Y1487D01*
X976Y1487D02*
X983Y1487D01*
X0Y1486D02*
X7Y1486D01*
X976Y1486D02*
X983Y1486D01*
X0Y1485D02*
X7Y1485D01*
X976Y1485D02*
X983Y1485D01*
X0Y1484D02*
X7Y1484D01*
X976Y1484D02*
X983Y1484D01*
X0Y1483D02*
X7Y1483D01*
X976Y1483D02*
X983Y1483D01*
X0Y1482D02*
X7Y1482D01*
X976Y1482D02*
X983Y1482D01*
X0Y1481D02*
X7Y1481D01*
X976Y1481D02*
X983Y1481D01*
X0Y1480D02*
X7Y1480D01*
X976Y1480D02*
X983Y1480D01*
X0Y1479D02*
X7Y1479D01*
X976Y1479D02*
X983Y1479D01*
X0Y1478D02*
X7Y1478D01*
X976Y1478D02*
X983Y1478D01*
X0Y1477D02*
X7Y1477D01*
X976Y1477D02*
X983Y1477D01*
X0Y1476D02*
X7Y1476D01*
X976Y1476D02*
X983Y1476D01*
X0Y1475D02*
X7Y1475D01*
X976Y1475D02*
X983Y1475D01*
X0Y1474D02*
X7Y1474D01*
X976Y1474D02*
X983Y1474D01*
X0Y1473D02*
X7Y1473D01*
X976Y1473D02*
X983Y1473D01*
X0Y1472D02*
X7Y1472D01*
X976Y1472D02*
X983Y1472D01*
X0Y1471D02*
X7Y1471D01*
X976Y1471D02*
X983Y1471D01*
X0Y1470D02*
X7Y1470D01*
X976Y1470D02*
X983Y1470D01*
X0Y1469D02*
X7Y1469D01*
X976Y1469D02*
X983Y1469D01*
X0Y1468D02*
X7Y1468D01*
X976Y1468D02*
X983Y1468D01*
X0Y1467D02*
X7Y1467D01*
X976Y1467D02*
X983Y1467D01*
X0Y1466D02*
X7Y1466D01*
X976Y1466D02*
X983Y1466D01*
X0Y1465D02*
X7Y1465D01*
X976Y1465D02*
X983Y1465D01*
X0Y1464D02*
X7Y1464D01*
X976Y1464D02*
X983Y1464D01*
X0Y1463D02*
X7Y1463D01*
X976Y1463D02*
X983Y1463D01*
X0Y1462D02*
X7Y1462D01*
X976Y1462D02*
X983Y1462D01*
X0Y1461D02*
X7Y1461D01*
X976Y1461D02*
X983Y1461D01*
X0Y1460D02*
X7Y1460D01*
X976Y1460D02*
X983Y1460D01*
X0Y1459D02*
X7Y1459D01*
X976Y1459D02*
X983Y1459D01*
X0Y1458D02*
X7Y1458D01*
X976Y1458D02*
X983Y1458D01*
X0Y1457D02*
X7Y1457D01*
X976Y1457D02*
X983Y1457D01*
X0Y1456D02*
X7Y1456D01*
X976Y1456D02*
X983Y1456D01*
X0Y1455D02*
X7Y1455D01*
X976Y1455D02*
X983Y1455D01*
X0Y1454D02*
X7Y1454D01*
X976Y1454D02*
X983Y1454D01*
X0Y1453D02*
X7Y1453D01*
X976Y1453D02*
X983Y1453D01*
X0Y1452D02*
X7Y1452D01*
X976Y1452D02*
X983Y1452D01*
X0Y1451D02*
X7Y1451D01*
X976Y1451D02*
X983Y1451D01*
X0Y1450D02*
X7Y1450D01*
X976Y1450D02*
X983Y1450D01*
X0Y1449D02*
X7Y1449D01*
X976Y1449D02*
X983Y1449D01*
X0Y1448D02*
X7Y1448D01*
X976Y1448D02*
X983Y1448D01*
X0Y1447D02*
X7Y1447D01*
X976Y1447D02*
X983Y1447D01*
X0Y1446D02*
X7Y1446D01*
X976Y1446D02*
X983Y1446D01*
X0Y1445D02*
X7Y1445D01*
X976Y1445D02*
X983Y1445D01*
X0Y1444D02*
X7Y1444D01*
X976Y1444D02*
X983Y1444D01*
X0Y1443D02*
X7Y1443D01*
X976Y1443D02*
X983Y1443D01*
X0Y1442D02*
X7Y1442D01*
X976Y1442D02*
X983Y1442D01*
X0Y1441D02*
X7Y1441D01*
X976Y1441D02*
X983Y1441D01*
X0Y1440D02*
X7Y1440D01*
X976Y1440D02*
X983Y1440D01*
X0Y1439D02*
X7Y1439D01*
X976Y1439D02*
X983Y1439D01*
X0Y1438D02*
X7Y1438D01*
X976Y1438D02*
X983Y1438D01*
X0Y1437D02*
X7Y1437D01*
X976Y1437D02*
X983Y1437D01*
X0Y1436D02*
X7Y1436D01*
X976Y1436D02*
X983Y1436D01*
X0Y1435D02*
X7Y1435D01*
X976Y1435D02*
X983Y1435D01*
X0Y1434D02*
X7Y1434D01*
X976Y1434D02*
X983Y1434D01*
X0Y1433D02*
X7Y1433D01*
X976Y1433D02*
X983Y1433D01*
X0Y1432D02*
X7Y1432D01*
X976Y1432D02*
X983Y1432D01*
X0Y1431D02*
X7Y1431D01*
X976Y1431D02*
X983Y1431D01*
X0Y1430D02*
X7Y1430D01*
X976Y1430D02*
X983Y1430D01*
X0Y1429D02*
X7Y1429D01*
X976Y1429D02*
X983Y1429D01*
X0Y1428D02*
X7Y1428D01*
X976Y1428D02*
X983Y1428D01*
X0Y1427D02*
X7Y1427D01*
X976Y1427D02*
X983Y1427D01*
X0Y1426D02*
X7Y1426D01*
X976Y1426D02*
X983Y1426D01*
X0Y1425D02*
X7Y1425D01*
X976Y1425D02*
X983Y1425D01*
X0Y1424D02*
X7Y1424D01*
X976Y1424D02*
X983Y1424D01*
X0Y1423D02*
X7Y1423D01*
X976Y1423D02*
X983Y1423D01*
X0Y1422D02*
X7Y1422D01*
X976Y1422D02*
X983Y1422D01*
X0Y1421D02*
X7Y1421D01*
X976Y1421D02*
X983Y1421D01*
X0Y1420D02*
X7Y1420D01*
X976Y1420D02*
X983Y1420D01*
X0Y1419D02*
X7Y1419D01*
X976Y1419D02*
X983Y1419D01*
X0Y1418D02*
X7Y1418D01*
X976Y1418D02*
X983Y1418D01*
X0Y1417D02*
X7Y1417D01*
X976Y1417D02*
X983Y1417D01*
X0Y1416D02*
X7Y1416D01*
X976Y1416D02*
X983Y1416D01*
X0Y1415D02*
X7Y1415D01*
X976Y1415D02*
X983Y1415D01*
X0Y1414D02*
X7Y1414D01*
X976Y1414D02*
X983Y1414D01*
X0Y1413D02*
X7Y1413D01*
X976Y1413D02*
X983Y1413D01*
X0Y1412D02*
X7Y1412D01*
X976Y1412D02*
X983Y1412D01*
X0Y1411D02*
X7Y1411D01*
X976Y1411D02*
X983Y1411D01*
X0Y1410D02*
X7Y1410D01*
X976Y1410D02*
X983Y1410D01*
X0Y1409D02*
X7Y1409D01*
X976Y1409D02*
X983Y1409D01*
X0Y1408D02*
X7Y1408D01*
X976Y1408D02*
X983Y1408D01*
X0Y1407D02*
X7Y1407D01*
X976Y1407D02*
X983Y1407D01*
X0Y1406D02*
X7Y1406D01*
X976Y1406D02*
X983Y1406D01*
X0Y1405D02*
X7Y1405D01*
X976Y1405D02*
X983Y1405D01*
X0Y1404D02*
X7Y1404D01*
X976Y1404D02*
X983Y1404D01*
X0Y1403D02*
X7Y1403D01*
X976Y1403D02*
X983Y1403D01*
X0Y1402D02*
X7Y1402D01*
X976Y1402D02*
X983Y1402D01*
X0Y1401D02*
X7Y1401D01*
X976Y1401D02*
X983Y1401D01*
X0Y1400D02*
X7Y1400D01*
X976Y1400D02*
X983Y1400D01*
X0Y1399D02*
X7Y1399D01*
X976Y1399D02*
X983Y1399D01*
X0Y1398D02*
X7Y1398D01*
X976Y1398D02*
X983Y1398D01*
X0Y1397D02*
X7Y1397D01*
X976Y1397D02*
X983Y1397D01*
X0Y1396D02*
X7Y1396D01*
X976Y1396D02*
X983Y1396D01*
X0Y1395D02*
X7Y1395D01*
X976Y1395D02*
X983Y1395D01*
X0Y1394D02*
X7Y1394D01*
X976Y1394D02*
X983Y1394D01*
X0Y1393D02*
X7Y1393D01*
X976Y1393D02*
X983Y1393D01*
X0Y1392D02*
X7Y1392D01*
X976Y1392D02*
X983Y1392D01*
X0Y1391D02*
X7Y1391D01*
X976Y1391D02*
X983Y1391D01*
X0Y1390D02*
X7Y1390D01*
X976Y1390D02*
X983Y1390D01*
X0Y1389D02*
X7Y1389D01*
X976Y1389D02*
X983Y1389D01*
X0Y1388D02*
X7Y1388D01*
X976Y1388D02*
X983Y1388D01*
X0Y1387D02*
X7Y1387D01*
X976Y1387D02*
X983Y1387D01*
X0Y1386D02*
X7Y1386D01*
X976Y1386D02*
X983Y1386D01*
X0Y1385D02*
X7Y1385D01*
X976Y1385D02*
X983Y1385D01*
X0Y1384D02*
X7Y1384D01*
X976Y1384D02*
X983Y1384D01*
X0Y1383D02*
X7Y1383D01*
X976Y1383D02*
X983Y1383D01*
X0Y1382D02*
X7Y1382D01*
X976Y1382D02*
X983Y1382D01*
X0Y1381D02*
X7Y1381D01*
X976Y1381D02*
X983Y1381D01*
X0Y1380D02*
X7Y1380D01*
X976Y1380D02*
X983Y1380D01*
X0Y1379D02*
X7Y1379D01*
X976Y1379D02*
X983Y1379D01*
X0Y1378D02*
X7Y1378D01*
X976Y1378D02*
X983Y1378D01*
X0Y1377D02*
X7Y1377D01*
X976Y1377D02*
X983Y1377D01*
X0Y1376D02*
X7Y1376D01*
X976Y1376D02*
X983Y1376D01*
X0Y1375D02*
X7Y1375D01*
X976Y1375D02*
X983Y1375D01*
X0Y1374D02*
X7Y1374D01*
X976Y1374D02*
X983Y1374D01*
X0Y1373D02*
X7Y1373D01*
X976Y1373D02*
X983Y1373D01*
X0Y1372D02*
X7Y1372D01*
X976Y1372D02*
X983Y1372D01*
X0Y1371D02*
X7Y1371D01*
X976Y1371D02*
X983Y1371D01*
X0Y1370D02*
X7Y1370D01*
X976Y1370D02*
X983Y1370D01*
X0Y1369D02*
X7Y1369D01*
X976Y1369D02*
X983Y1369D01*
X0Y1368D02*
X7Y1368D01*
X976Y1368D02*
X983Y1368D01*
X0Y1367D02*
X7Y1367D01*
X976Y1367D02*
X983Y1367D01*
X0Y1366D02*
X7Y1366D01*
X976Y1366D02*
X983Y1366D01*
X0Y1365D02*
X7Y1365D01*
X976Y1365D02*
X983Y1365D01*
X0Y1364D02*
X7Y1364D01*
X976Y1364D02*
X983Y1364D01*
X0Y1363D02*
X7Y1363D01*
X976Y1363D02*
X983Y1363D01*
X0Y1362D02*
X7Y1362D01*
X976Y1362D02*
X983Y1362D01*
X0Y1361D02*
X7Y1361D01*
X976Y1361D02*
X983Y1361D01*
X0Y1360D02*
X7Y1360D01*
X976Y1360D02*
X983Y1360D01*
X0Y1359D02*
X7Y1359D01*
X976Y1359D02*
X983Y1359D01*
X0Y1358D02*
X7Y1358D01*
X976Y1358D02*
X983Y1358D01*
X0Y1357D02*
X7Y1357D01*
X976Y1357D02*
X983Y1357D01*
X0Y1356D02*
X7Y1356D01*
X976Y1356D02*
X983Y1356D01*
X0Y1355D02*
X7Y1355D01*
X976Y1355D02*
X983Y1355D01*
X0Y1354D02*
X7Y1354D01*
X976Y1354D02*
X983Y1354D01*
X0Y1353D02*
X7Y1353D01*
X976Y1353D02*
X983Y1353D01*
X0Y1352D02*
X7Y1352D01*
X976Y1352D02*
X983Y1352D01*
X0Y1351D02*
X7Y1351D01*
X976Y1351D02*
X983Y1351D01*
X0Y1350D02*
X7Y1350D01*
X976Y1350D02*
X983Y1350D01*
X0Y1349D02*
X7Y1349D01*
X976Y1349D02*
X983Y1349D01*
X0Y1348D02*
X7Y1348D01*
X976Y1348D02*
X983Y1348D01*
X0Y1347D02*
X7Y1347D01*
X976Y1347D02*
X983Y1347D01*
X0Y1346D02*
X7Y1346D01*
X976Y1346D02*
X983Y1346D01*
X0Y1345D02*
X7Y1345D01*
X976Y1345D02*
X983Y1345D01*
X0Y1344D02*
X7Y1344D01*
X976Y1344D02*
X983Y1344D01*
X0Y1343D02*
X7Y1343D01*
X976Y1343D02*
X983Y1343D01*
X0Y1342D02*
X7Y1342D01*
X976Y1342D02*
X983Y1342D01*
X0Y1341D02*
X7Y1341D01*
X976Y1341D02*
X983Y1341D01*
X0Y1340D02*
X7Y1340D01*
X976Y1340D02*
X983Y1340D01*
X0Y1339D02*
X7Y1339D01*
X976Y1339D02*
X983Y1339D01*
X0Y1338D02*
X7Y1338D01*
X976Y1338D02*
X983Y1338D01*
X0Y1337D02*
X7Y1337D01*
X976Y1337D02*
X983Y1337D01*
X0Y1336D02*
X7Y1336D01*
X976Y1336D02*
X983Y1336D01*
X0Y1335D02*
X7Y1335D01*
X976Y1335D02*
X983Y1335D01*
X0Y1334D02*
X7Y1334D01*
X976Y1334D02*
X983Y1334D01*
X0Y1333D02*
X7Y1333D01*
X976Y1333D02*
X983Y1333D01*
X0Y1332D02*
X7Y1332D01*
X976Y1332D02*
X983Y1332D01*
X0Y1331D02*
X7Y1331D01*
X976Y1331D02*
X983Y1331D01*
X0Y1330D02*
X7Y1330D01*
X976Y1330D02*
X983Y1330D01*
X0Y1329D02*
X7Y1329D01*
X976Y1329D02*
X983Y1329D01*
X0Y1328D02*
X7Y1328D01*
X976Y1328D02*
X983Y1328D01*
X0Y1327D02*
X7Y1327D01*
X976Y1327D02*
X983Y1327D01*
X0Y1326D02*
X7Y1326D01*
X976Y1326D02*
X983Y1326D01*
X0Y1325D02*
X7Y1325D01*
X976Y1325D02*
X983Y1325D01*
X0Y1324D02*
X7Y1324D01*
X976Y1324D02*
X983Y1324D01*
X0Y1323D02*
X7Y1323D01*
X976Y1323D02*
X983Y1323D01*
X0Y1322D02*
X7Y1322D01*
X976Y1322D02*
X983Y1322D01*
X0Y1321D02*
X7Y1321D01*
X976Y1321D02*
X983Y1321D01*
X0Y1320D02*
X7Y1320D01*
X976Y1320D02*
X983Y1320D01*
X0Y1319D02*
X7Y1319D01*
X976Y1319D02*
X983Y1319D01*
X0Y1318D02*
X7Y1318D01*
X976Y1318D02*
X983Y1318D01*
X0Y1317D02*
X7Y1317D01*
X976Y1317D02*
X983Y1317D01*
X0Y1316D02*
X7Y1316D01*
X976Y1316D02*
X983Y1316D01*
X0Y1315D02*
X7Y1315D01*
X976Y1315D02*
X983Y1315D01*
X0Y1314D02*
X7Y1314D01*
X976Y1314D02*
X983Y1314D01*
X0Y1313D02*
X7Y1313D01*
X976Y1313D02*
X983Y1313D01*
X0Y1312D02*
X7Y1312D01*
X976Y1312D02*
X983Y1312D01*
X0Y1311D02*
X7Y1311D01*
X976Y1311D02*
X983Y1311D01*
X0Y1310D02*
X7Y1310D01*
X976Y1310D02*
X983Y1310D01*
X0Y1309D02*
X7Y1309D01*
X976Y1309D02*
X983Y1309D01*
X0Y1308D02*
X7Y1308D01*
X976Y1308D02*
X983Y1308D01*
X0Y1307D02*
X7Y1307D01*
X976Y1307D02*
X983Y1307D01*
X0Y1306D02*
X7Y1306D01*
X976Y1306D02*
X983Y1306D01*
X0Y1305D02*
X7Y1305D01*
X976Y1305D02*
X983Y1305D01*
X0Y1304D02*
X7Y1304D01*
X976Y1304D02*
X983Y1304D01*
X0Y1303D02*
X7Y1303D01*
X976Y1303D02*
X983Y1303D01*
X0Y1302D02*
X7Y1302D01*
X976Y1302D02*
X983Y1302D01*
X0Y1301D02*
X7Y1301D01*
X976Y1301D02*
X983Y1301D01*
X0Y1300D02*
X7Y1300D01*
X976Y1300D02*
X983Y1300D01*
X0Y1299D02*
X7Y1299D01*
X976Y1299D02*
X983Y1299D01*
X0Y1298D02*
X7Y1298D01*
X976Y1298D02*
X983Y1298D01*
X0Y1297D02*
X7Y1297D01*
X976Y1297D02*
X983Y1297D01*
X0Y1296D02*
X7Y1296D01*
X976Y1296D02*
X983Y1296D01*
X0Y1295D02*
X7Y1295D01*
X976Y1295D02*
X983Y1295D01*
X0Y1294D02*
X7Y1294D01*
X976Y1294D02*
X983Y1294D01*
X0Y1293D02*
X7Y1293D01*
X976Y1293D02*
X983Y1293D01*
X0Y1292D02*
X7Y1292D01*
X976Y1292D02*
X983Y1292D01*
X0Y1291D02*
X7Y1291D01*
X976Y1291D02*
X983Y1291D01*
X0Y1290D02*
X7Y1290D01*
X976Y1290D02*
X983Y1290D01*
X0Y1289D02*
X7Y1289D01*
X976Y1289D02*
X983Y1289D01*
X0Y1288D02*
X7Y1288D01*
X976Y1288D02*
X983Y1288D01*
X0Y1287D02*
X7Y1287D01*
X976Y1287D02*
X983Y1287D01*
X0Y1286D02*
X7Y1286D01*
X976Y1286D02*
X983Y1286D01*
X0Y1285D02*
X7Y1285D01*
X976Y1285D02*
X983Y1285D01*
X0Y1284D02*
X7Y1284D01*
X976Y1284D02*
X983Y1284D01*
X0Y1283D02*
X7Y1283D01*
X976Y1283D02*
X983Y1283D01*
X0Y1282D02*
X7Y1282D01*
X976Y1282D02*
X983Y1282D01*
X0Y1281D02*
X7Y1281D01*
X976Y1281D02*
X983Y1281D01*
X0Y1280D02*
X7Y1280D01*
X976Y1280D02*
X983Y1280D01*
X0Y1279D02*
X7Y1279D01*
X976Y1279D02*
X983Y1279D01*
X0Y1278D02*
X7Y1278D01*
X976Y1278D02*
X983Y1278D01*
X0Y1277D02*
X7Y1277D01*
X976Y1277D02*
X983Y1277D01*
X0Y1276D02*
X7Y1276D01*
X976Y1276D02*
X983Y1276D01*
X0Y1275D02*
X7Y1275D01*
X976Y1275D02*
X983Y1275D01*
X0Y1274D02*
X7Y1274D01*
X976Y1274D02*
X983Y1274D01*
X0Y1273D02*
X7Y1273D01*
X976Y1273D02*
X983Y1273D01*
X0Y1272D02*
X7Y1272D01*
X976Y1272D02*
X983Y1272D01*
X0Y1271D02*
X7Y1271D01*
X976Y1271D02*
X983Y1271D01*
X0Y1270D02*
X7Y1270D01*
X976Y1270D02*
X983Y1270D01*
X0Y1269D02*
X7Y1269D01*
X976Y1269D02*
X983Y1269D01*
X0Y1268D02*
X7Y1268D01*
X976Y1268D02*
X983Y1268D01*
X0Y1267D02*
X7Y1267D01*
X976Y1267D02*
X983Y1267D01*
X0Y1266D02*
X7Y1266D01*
X976Y1266D02*
X983Y1266D01*
X0Y1265D02*
X7Y1265D01*
X976Y1265D02*
X983Y1265D01*
X0Y1264D02*
X7Y1264D01*
X976Y1264D02*
X983Y1264D01*
X0Y1263D02*
X7Y1263D01*
X976Y1263D02*
X983Y1263D01*
X0Y1262D02*
X7Y1262D01*
X976Y1262D02*
X983Y1262D01*
X0Y1261D02*
X7Y1261D01*
X976Y1261D02*
X983Y1261D01*
X0Y1260D02*
X7Y1260D01*
X976Y1260D02*
X983Y1260D01*
X0Y1259D02*
X7Y1259D01*
X976Y1259D02*
X983Y1259D01*
X0Y1258D02*
X7Y1258D01*
X976Y1258D02*
X983Y1258D01*
X0Y1257D02*
X7Y1257D01*
X976Y1257D02*
X983Y1257D01*
X0Y1256D02*
X7Y1256D01*
X976Y1256D02*
X983Y1256D01*
X0Y1255D02*
X7Y1255D01*
X976Y1255D02*
X983Y1255D01*
X0Y1254D02*
X7Y1254D01*
X976Y1254D02*
X983Y1254D01*
X0Y1253D02*
X7Y1253D01*
X976Y1253D02*
X983Y1253D01*
X0Y1252D02*
X7Y1252D01*
X976Y1252D02*
X983Y1252D01*
X0Y1251D02*
X7Y1251D01*
X976Y1251D02*
X983Y1251D01*
X0Y1250D02*
X7Y1250D01*
X976Y1250D02*
X983Y1250D01*
X0Y1249D02*
X7Y1249D01*
X976Y1249D02*
X983Y1249D01*
X0Y1248D02*
X7Y1248D01*
X976Y1248D02*
X983Y1248D01*
X0Y1247D02*
X7Y1247D01*
X976Y1247D02*
X983Y1247D01*
X0Y1246D02*
X7Y1246D01*
X976Y1246D02*
X983Y1246D01*
X0Y1245D02*
X7Y1245D01*
X976Y1245D02*
X983Y1245D01*
X0Y1244D02*
X7Y1244D01*
X976Y1244D02*
X983Y1244D01*
X0Y1243D02*
X7Y1243D01*
X976Y1243D02*
X983Y1243D01*
X0Y1242D02*
X7Y1242D01*
X976Y1242D02*
X983Y1242D01*
X0Y1241D02*
X7Y1241D01*
X976Y1241D02*
X983Y1241D01*
X0Y1240D02*
X7Y1240D01*
X976Y1240D02*
X983Y1240D01*
X0Y1239D02*
X7Y1239D01*
X976Y1239D02*
X983Y1239D01*
X0Y1238D02*
X7Y1238D01*
X976Y1238D02*
X983Y1238D01*
X0Y1237D02*
X7Y1237D01*
X976Y1237D02*
X983Y1237D01*
X0Y1236D02*
X7Y1236D01*
X976Y1236D02*
X983Y1236D01*
X0Y1235D02*
X7Y1235D01*
X976Y1235D02*
X983Y1235D01*
X0Y1234D02*
X7Y1234D01*
X976Y1234D02*
X983Y1234D01*
X0Y1233D02*
X7Y1233D01*
X976Y1233D02*
X983Y1233D01*
X0Y1232D02*
X7Y1232D01*
X976Y1232D02*
X983Y1232D01*
X0Y1231D02*
X7Y1231D01*
X976Y1231D02*
X983Y1231D01*
X0Y1230D02*
X7Y1230D01*
X976Y1230D02*
X983Y1230D01*
X0Y1229D02*
X7Y1229D01*
X976Y1229D02*
X983Y1229D01*
X0Y1228D02*
X7Y1228D01*
X976Y1228D02*
X983Y1228D01*
X0Y1227D02*
X7Y1227D01*
X976Y1227D02*
X983Y1227D01*
X0Y1226D02*
X7Y1226D01*
X976Y1226D02*
X983Y1226D01*
X0Y1225D02*
X7Y1225D01*
X976Y1225D02*
X983Y1225D01*
X0Y1224D02*
X7Y1224D01*
X976Y1224D02*
X983Y1224D01*
X0Y1223D02*
X7Y1223D01*
X976Y1223D02*
X983Y1223D01*
X0Y1222D02*
X7Y1222D01*
X976Y1222D02*
X983Y1222D01*
X0Y1221D02*
X7Y1221D01*
X976Y1221D02*
X983Y1221D01*
X0Y1220D02*
X7Y1220D01*
X976Y1220D02*
X983Y1220D01*
X0Y1219D02*
X7Y1219D01*
X976Y1219D02*
X983Y1219D01*
X0Y1218D02*
X7Y1218D01*
X976Y1218D02*
X983Y1218D01*
X0Y1217D02*
X7Y1217D01*
X976Y1217D02*
X983Y1217D01*
X0Y1216D02*
X7Y1216D01*
X976Y1216D02*
X983Y1216D01*
X0Y1215D02*
X7Y1215D01*
X976Y1215D02*
X983Y1215D01*
X0Y1214D02*
X7Y1214D01*
X976Y1214D02*
X983Y1214D01*
X0Y1213D02*
X7Y1213D01*
X976Y1213D02*
X983Y1213D01*
X0Y1212D02*
X7Y1212D01*
X976Y1212D02*
X983Y1212D01*
X0Y1211D02*
X7Y1211D01*
X976Y1211D02*
X983Y1211D01*
X0Y1210D02*
X7Y1210D01*
X976Y1210D02*
X983Y1210D01*
X0Y1209D02*
X7Y1209D01*
X976Y1209D02*
X983Y1209D01*
X0Y1208D02*
X7Y1208D01*
X976Y1208D02*
X983Y1208D01*
X0Y1207D02*
X7Y1207D01*
X976Y1207D02*
X983Y1207D01*
X0Y1206D02*
X7Y1206D01*
X976Y1206D02*
X983Y1206D01*
X0Y1205D02*
X7Y1205D01*
X976Y1205D02*
X983Y1205D01*
X0Y1204D02*
X7Y1204D01*
X976Y1204D02*
X983Y1204D01*
X0Y1203D02*
X7Y1203D01*
X976Y1203D02*
X983Y1203D01*
X0Y1202D02*
X7Y1202D01*
X976Y1202D02*
X983Y1202D01*
X0Y1201D02*
X7Y1201D01*
X976Y1201D02*
X983Y1201D01*
X0Y1200D02*
X7Y1200D01*
X976Y1200D02*
X983Y1200D01*
X0Y1199D02*
X7Y1199D01*
X976Y1199D02*
X983Y1199D01*
X0Y1198D02*
X7Y1198D01*
X976Y1198D02*
X983Y1198D01*
X0Y1197D02*
X7Y1197D01*
X976Y1197D02*
X983Y1197D01*
X0Y1196D02*
X7Y1196D01*
X976Y1196D02*
X983Y1196D01*
X0Y1195D02*
X7Y1195D01*
X976Y1195D02*
X983Y1195D01*
X0Y1194D02*
X7Y1194D01*
X976Y1194D02*
X983Y1194D01*
X0Y1193D02*
X7Y1193D01*
X976Y1193D02*
X983Y1193D01*
X0Y1192D02*
X7Y1192D01*
X976Y1192D02*
X983Y1192D01*
X0Y1191D02*
X7Y1191D01*
X976Y1191D02*
X983Y1191D01*
X0Y1190D02*
X7Y1190D01*
X976Y1190D02*
X983Y1190D01*
X0Y1189D02*
X7Y1189D01*
X976Y1189D02*
X983Y1189D01*
X0Y1188D02*
X7Y1188D01*
X976Y1188D02*
X983Y1188D01*
X0Y1187D02*
X7Y1187D01*
X976Y1187D02*
X983Y1187D01*
X0Y1186D02*
X7Y1186D01*
X976Y1186D02*
X983Y1186D01*
X0Y1185D02*
X7Y1185D01*
X976Y1185D02*
X983Y1185D01*
X0Y1184D02*
X7Y1184D01*
X976Y1184D02*
X983Y1184D01*
X0Y1183D02*
X7Y1183D01*
X976Y1183D02*
X983Y1183D01*
X0Y1182D02*
X7Y1182D01*
X976Y1182D02*
X983Y1182D01*
X0Y1181D02*
X7Y1181D01*
X976Y1181D02*
X983Y1181D01*
X0Y1180D02*
X7Y1180D01*
X976Y1180D02*
X983Y1180D01*
X0Y1179D02*
X7Y1179D01*
X976Y1179D02*
X983Y1179D01*
X0Y1178D02*
X7Y1178D01*
X976Y1178D02*
X983Y1178D01*
X0Y1177D02*
X7Y1177D01*
X976Y1177D02*
X983Y1177D01*
X0Y1176D02*
X7Y1176D01*
X976Y1176D02*
X983Y1176D01*
X0Y1175D02*
X7Y1175D01*
X976Y1175D02*
X983Y1175D01*
X0Y1174D02*
X7Y1174D01*
X976Y1174D02*
X983Y1174D01*
X0Y1173D02*
X7Y1173D01*
X976Y1173D02*
X983Y1173D01*
X0Y1172D02*
X7Y1172D01*
X976Y1172D02*
X983Y1172D01*
X0Y1171D02*
X7Y1171D01*
X976Y1171D02*
X983Y1171D01*
X0Y1170D02*
X7Y1170D01*
X976Y1170D02*
X983Y1170D01*
X0Y1169D02*
X7Y1169D01*
X976Y1169D02*
X983Y1169D01*
X0Y1168D02*
X7Y1168D01*
X976Y1168D02*
X983Y1168D01*
X0Y1167D02*
X7Y1167D01*
X976Y1167D02*
X983Y1167D01*
X0Y1166D02*
X7Y1166D01*
X976Y1166D02*
X983Y1166D01*
X0Y1165D02*
X7Y1165D01*
X976Y1165D02*
X983Y1165D01*
X0Y1164D02*
X7Y1164D01*
X976Y1164D02*
X983Y1164D01*
X0Y1163D02*
X7Y1163D01*
X976Y1163D02*
X983Y1163D01*
X0Y1162D02*
X7Y1162D01*
X976Y1162D02*
X983Y1162D01*
X0Y1161D02*
X7Y1161D01*
X976Y1161D02*
X983Y1161D01*
X0Y1160D02*
X7Y1160D01*
X976Y1160D02*
X983Y1160D01*
X0Y1159D02*
X7Y1159D01*
X976Y1159D02*
X983Y1159D01*
X0Y1158D02*
X7Y1158D01*
X976Y1158D02*
X983Y1158D01*
X0Y1157D02*
X7Y1157D01*
X976Y1157D02*
X983Y1157D01*
X0Y1156D02*
X7Y1156D01*
X976Y1156D02*
X983Y1156D01*
X0Y1155D02*
X7Y1155D01*
X976Y1155D02*
X983Y1155D01*
X0Y1154D02*
X7Y1154D01*
X976Y1154D02*
X983Y1154D01*
X0Y1153D02*
X7Y1153D01*
X976Y1153D02*
X983Y1153D01*
X0Y1152D02*
X7Y1152D01*
X976Y1152D02*
X983Y1152D01*
X0Y1151D02*
X7Y1151D01*
X976Y1151D02*
X983Y1151D01*
X0Y1150D02*
X7Y1150D01*
X976Y1150D02*
X983Y1150D01*
X0Y1149D02*
X7Y1149D01*
X976Y1149D02*
X983Y1149D01*
X0Y1148D02*
X7Y1148D01*
X976Y1148D02*
X983Y1148D01*
X0Y1147D02*
X7Y1147D01*
X976Y1147D02*
X983Y1147D01*
X0Y1146D02*
X7Y1146D01*
X976Y1146D02*
X983Y1146D01*
X0Y1145D02*
X7Y1145D01*
X976Y1145D02*
X983Y1145D01*
X0Y1144D02*
X7Y1144D01*
X976Y1144D02*
X983Y1144D01*
X0Y1143D02*
X7Y1143D01*
X976Y1143D02*
X983Y1143D01*
X0Y1142D02*
X7Y1142D01*
X976Y1142D02*
X983Y1142D01*
X0Y1141D02*
X7Y1141D01*
X976Y1141D02*
X983Y1141D01*
X0Y1140D02*
X7Y1140D01*
X976Y1140D02*
X983Y1140D01*
X0Y1139D02*
X7Y1139D01*
X976Y1139D02*
X983Y1139D01*
X0Y1138D02*
X7Y1138D01*
X976Y1138D02*
X983Y1138D01*
X0Y1137D02*
X7Y1137D01*
X976Y1137D02*
X983Y1137D01*
X0Y1136D02*
X7Y1136D01*
X976Y1136D02*
X983Y1136D01*
X0Y1135D02*
X7Y1135D01*
X976Y1135D02*
X983Y1135D01*
X0Y1134D02*
X7Y1134D01*
X976Y1134D02*
X983Y1134D01*
X0Y1133D02*
X7Y1133D01*
X976Y1133D02*
X983Y1133D01*
X0Y1132D02*
X7Y1132D01*
X976Y1132D02*
X983Y1132D01*
X0Y1131D02*
X7Y1131D01*
X976Y1131D02*
X983Y1131D01*
X0Y1130D02*
X7Y1130D01*
X976Y1130D02*
X983Y1130D01*
X0Y1129D02*
X7Y1129D01*
X976Y1129D02*
X983Y1129D01*
X0Y1128D02*
X7Y1128D01*
X976Y1128D02*
X983Y1128D01*
X0Y1127D02*
X7Y1127D01*
X976Y1127D02*
X983Y1127D01*
X0Y1126D02*
X7Y1126D01*
X976Y1126D02*
X983Y1126D01*
X0Y1125D02*
X7Y1125D01*
X976Y1125D02*
X983Y1125D01*
X0Y1124D02*
X7Y1124D01*
X976Y1124D02*
X983Y1124D01*
X0Y1123D02*
X7Y1123D01*
X976Y1123D02*
X983Y1123D01*
X0Y1122D02*
X7Y1122D01*
X976Y1122D02*
X983Y1122D01*
X0Y1121D02*
X7Y1121D01*
X976Y1121D02*
X983Y1121D01*
X0Y1120D02*
X7Y1120D01*
X976Y1120D02*
X983Y1120D01*
X0Y1119D02*
X7Y1119D01*
X976Y1119D02*
X983Y1119D01*
X0Y1118D02*
X7Y1118D01*
X976Y1118D02*
X983Y1118D01*
X0Y1117D02*
X7Y1117D01*
X976Y1117D02*
X983Y1117D01*
X0Y1116D02*
X7Y1116D01*
X976Y1116D02*
X983Y1116D01*
X0Y1115D02*
X7Y1115D01*
X976Y1115D02*
X983Y1115D01*
X0Y1114D02*
X7Y1114D01*
X976Y1114D02*
X983Y1114D01*
X0Y1113D02*
X7Y1113D01*
X976Y1113D02*
X983Y1113D01*
X0Y1112D02*
X7Y1112D01*
X976Y1112D02*
X983Y1112D01*
X0Y1111D02*
X7Y1111D01*
X976Y1111D02*
X983Y1111D01*
X0Y1110D02*
X7Y1110D01*
X976Y1110D02*
X983Y1110D01*
X0Y1109D02*
X7Y1109D01*
X976Y1109D02*
X983Y1109D01*
X0Y1108D02*
X7Y1108D01*
X976Y1108D02*
X983Y1108D01*
X0Y1107D02*
X7Y1107D01*
X976Y1107D02*
X983Y1107D01*
X0Y1106D02*
X7Y1106D01*
X976Y1106D02*
X983Y1106D01*
X0Y1105D02*
X7Y1105D01*
X976Y1105D02*
X983Y1105D01*
X0Y1104D02*
X7Y1104D01*
X976Y1104D02*
X983Y1104D01*
X0Y1103D02*
X7Y1103D01*
X976Y1103D02*
X983Y1103D01*
X0Y1102D02*
X7Y1102D01*
X976Y1102D02*
X983Y1102D01*
X0Y1101D02*
X7Y1101D01*
X976Y1101D02*
X983Y1101D01*
X0Y1100D02*
X7Y1100D01*
X976Y1100D02*
X983Y1100D01*
X0Y1099D02*
X7Y1099D01*
X976Y1099D02*
X983Y1099D01*
X0Y1098D02*
X7Y1098D01*
X976Y1098D02*
X983Y1098D01*
X0Y1097D02*
X7Y1097D01*
X976Y1097D02*
X983Y1097D01*
X0Y1096D02*
X7Y1096D01*
X976Y1096D02*
X983Y1096D01*
X0Y1095D02*
X7Y1095D01*
X976Y1095D02*
X983Y1095D01*
X0Y1094D02*
X7Y1094D01*
X976Y1094D02*
X983Y1094D01*
X0Y1093D02*
X7Y1093D01*
X976Y1093D02*
X983Y1093D01*
X0Y1092D02*
X7Y1092D01*
X976Y1092D02*
X983Y1092D01*
X0Y1091D02*
X7Y1091D01*
X976Y1091D02*
X983Y1091D01*
X0Y1090D02*
X7Y1090D01*
X976Y1090D02*
X983Y1090D01*
X0Y1089D02*
X7Y1089D01*
X976Y1089D02*
X983Y1089D01*
X0Y1088D02*
X7Y1088D01*
X976Y1088D02*
X983Y1088D01*
X0Y1087D02*
X7Y1087D01*
X976Y1087D02*
X983Y1087D01*
X0Y1086D02*
X7Y1086D01*
X976Y1086D02*
X983Y1086D01*
X0Y1085D02*
X7Y1085D01*
X976Y1085D02*
X983Y1085D01*
X0Y1084D02*
X7Y1084D01*
X976Y1084D02*
X983Y1084D01*
X0Y1083D02*
X7Y1083D01*
X976Y1083D02*
X983Y1083D01*
X0Y1082D02*
X7Y1082D01*
X976Y1082D02*
X983Y1082D01*
X0Y1081D02*
X7Y1081D01*
X976Y1081D02*
X983Y1081D01*
X0Y1080D02*
X7Y1080D01*
X976Y1080D02*
X983Y1080D01*
X0Y1079D02*
X7Y1079D01*
X976Y1079D02*
X983Y1079D01*
X0Y1078D02*
X7Y1078D01*
X976Y1078D02*
X983Y1078D01*
X0Y1077D02*
X7Y1077D01*
X976Y1077D02*
X983Y1077D01*
X0Y1076D02*
X7Y1076D01*
X976Y1076D02*
X983Y1076D01*
X0Y1075D02*
X7Y1075D01*
X976Y1075D02*
X983Y1075D01*
X0Y1074D02*
X7Y1074D01*
X976Y1074D02*
X983Y1074D01*
X0Y1073D02*
X7Y1073D01*
X976Y1073D02*
X983Y1073D01*
X0Y1072D02*
X7Y1072D01*
X976Y1072D02*
X983Y1072D01*
X0Y1071D02*
X7Y1071D01*
X976Y1071D02*
X983Y1071D01*
X0Y1070D02*
X7Y1070D01*
X976Y1070D02*
X983Y1070D01*
X0Y1069D02*
X7Y1069D01*
X976Y1069D02*
X983Y1069D01*
X0Y1068D02*
X7Y1068D01*
X976Y1068D02*
X983Y1068D01*
X0Y1067D02*
X7Y1067D01*
X976Y1067D02*
X983Y1067D01*
X0Y1066D02*
X7Y1066D01*
X976Y1066D02*
X983Y1066D01*
X0Y1065D02*
X7Y1065D01*
X976Y1065D02*
X983Y1065D01*
X0Y1064D02*
X7Y1064D01*
X976Y1064D02*
X983Y1064D01*
X0Y1063D02*
X7Y1063D01*
X976Y1063D02*
X983Y1063D01*
X0Y1062D02*
X7Y1062D01*
X976Y1062D02*
X983Y1062D01*
X0Y1061D02*
X7Y1061D01*
X976Y1061D02*
X983Y1061D01*
X0Y1060D02*
X7Y1060D01*
X976Y1060D02*
X983Y1060D01*
X0Y1059D02*
X7Y1059D01*
X976Y1059D02*
X983Y1059D01*
X0Y1058D02*
X7Y1058D01*
X976Y1058D02*
X983Y1058D01*
X0Y1057D02*
X7Y1057D01*
X976Y1057D02*
X983Y1057D01*
X0Y1056D02*
X7Y1056D01*
X976Y1056D02*
X983Y1056D01*
X0Y1055D02*
X7Y1055D01*
X976Y1055D02*
X983Y1055D01*
X0Y1054D02*
X7Y1054D01*
X976Y1054D02*
X983Y1054D01*
X0Y1053D02*
X7Y1053D01*
X976Y1053D02*
X983Y1053D01*
X0Y1052D02*
X7Y1052D01*
X976Y1052D02*
X983Y1052D01*
X0Y1051D02*
X7Y1051D01*
X976Y1051D02*
X983Y1051D01*
X0Y1050D02*
X7Y1050D01*
X976Y1050D02*
X983Y1050D01*
X0Y1049D02*
X7Y1049D01*
X976Y1049D02*
X983Y1049D01*
X0Y1048D02*
X7Y1048D01*
X976Y1048D02*
X983Y1048D01*
X0Y1047D02*
X7Y1047D01*
X976Y1047D02*
X983Y1047D01*
X0Y1046D02*
X7Y1046D01*
X976Y1046D02*
X983Y1046D01*
X0Y1045D02*
X7Y1045D01*
X976Y1045D02*
X983Y1045D01*
X0Y1044D02*
X7Y1044D01*
X976Y1044D02*
X983Y1044D01*
X0Y1043D02*
X7Y1043D01*
X976Y1043D02*
X983Y1043D01*
X0Y1042D02*
X7Y1042D01*
X976Y1042D02*
X983Y1042D01*
X0Y1041D02*
X7Y1041D01*
X976Y1041D02*
X983Y1041D01*
X0Y1040D02*
X7Y1040D01*
X976Y1040D02*
X983Y1040D01*
X0Y1039D02*
X7Y1039D01*
X976Y1039D02*
X983Y1039D01*
X0Y1038D02*
X7Y1038D01*
X976Y1038D02*
X983Y1038D01*
X0Y1037D02*
X7Y1037D01*
X976Y1037D02*
X983Y1037D01*
X0Y1036D02*
X7Y1036D01*
X976Y1036D02*
X983Y1036D01*
X0Y1035D02*
X7Y1035D01*
X976Y1035D02*
X983Y1035D01*
X0Y1034D02*
X7Y1034D01*
X976Y1034D02*
X983Y1034D01*
X0Y1033D02*
X7Y1033D01*
X976Y1033D02*
X983Y1033D01*
X0Y1032D02*
X7Y1032D01*
X976Y1032D02*
X983Y1032D01*
X0Y1031D02*
X7Y1031D01*
X976Y1031D02*
X983Y1031D01*
X0Y1030D02*
X7Y1030D01*
X976Y1030D02*
X983Y1030D01*
X0Y1029D02*
X7Y1029D01*
X976Y1029D02*
X983Y1029D01*
X0Y1028D02*
X7Y1028D01*
X976Y1028D02*
X983Y1028D01*
X0Y1027D02*
X7Y1027D01*
X976Y1027D02*
X983Y1027D01*
X0Y1026D02*
X7Y1026D01*
X976Y1026D02*
X983Y1026D01*
X0Y1025D02*
X7Y1025D01*
X976Y1025D02*
X983Y1025D01*
X0Y1024D02*
X7Y1024D01*
X976Y1024D02*
X983Y1024D01*
X0Y1023D02*
X7Y1023D01*
X976Y1023D02*
X983Y1023D01*
X0Y1022D02*
X7Y1022D01*
X976Y1022D02*
X983Y1022D01*
X0Y1021D02*
X7Y1021D01*
X976Y1021D02*
X983Y1021D01*
X0Y1020D02*
X7Y1020D01*
X976Y1020D02*
X983Y1020D01*
X0Y1019D02*
X7Y1019D01*
X976Y1019D02*
X983Y1019D01*
X0Y1018D02*
X7Y1018D01*
X976Y1018D02*
X983Y1018D01*
X0Y1017D02*
X7Y1017D01*
X976Y1017D02*
X983Y1017D01*
X0Y1016D02*
X7Y1016D01*
X976Y1016D02*
X983Y1016D01*
X0Y1015D02*
X7Y1015D01*
X976Y1015D02*
X983Y1015D01*
X0Y1014D02*
X7Y1014D01*
X976Y1014D02*
X983Y1014D01*
X0Y1013D02*
X7Y1013D01*
X976Y1013D02*
X983Y1013D01*
X0Y1012D02*
X7Y1012D01*
X976Y1012D02*
X983Y1012D01*
X0Y1011D02*
X7Y1011D01*
X976Y1011D02*
X983Y1011D01*
X0Y1010D02*
X7Y1010D01*
X976Y1010D02*
X983Y1010D01*
X0Y1009D02*
X7Y1009D01*
X976Y1009D02*
X983Y1009D01*
X0Y1008D02*
X7Y1008D01*
X976Y1008D02*
X983Y1008D01*
X0Y1007D02*
X7Y1007D01*
X976Y1007D02*
X983Y1007D01*
X0Y1006D02*
X7Y1006D01*
X976Y1006D02*
X983Y1006D01*
X0Y1005D02*
X7Y1005D01*
X976Y1005D02*
X983Y1005D01*
X0Y1004D02*
X7Y1004D01*
X976Y1004D02*
X983Y1004D01*
X0Y1003D02*
X7Y1003D01*
X976Y1003D02*
X983Y1003D01*
X0Y1002D02*
X7Y1002D01*
X976Y1002D02*
X983Y1002D01*
X0Y1001D02*
X7Y1001D01*
X976Y1001D02*
X983Y1001D01*
X0Y1000D02*
X7Y1000D01*
X976Y1000D02*
X983Y1000D01*
X0Y999D02*
X7Y999D01*
X976Y999D02*
X983Y999D01*
X0Y998D02*
X7Y998D01*
X976Y998D02*
X983Y998D01*
X0Y997D02*
X7Y997D01*
X976Y997D02*
X983Y997D01*
X0Y996D02*
X7Y996D01*
X976Y996D02*
X983Y996D01*
X0Y995D02*
X7Y995D01*
X976Y995D02*
X983Y995D01*
X0Y994D02*
X7Y994D01*
X976Y994D02*
X983Y994D01*
X0Y993D02*
X7Y993D01*
X976Y993D02*
X983Y993D01*
X0Y992D02*
X7Y992D01*
X976Y992D02*
X983Y992D01*
X0Y991D02*
X7Y991D01*
X976Y991D02*
X983Y991D01*
X0Y990D02*
X7Y990D01*
X976Y990D02*
X983Y990D01*
X0Y989D02*
X7Y989D01*
X976Y989D02*
X983Y989D01*
X0Y988D02*
X7Y988D01*
X976Y988D02*
X983Y988D01*
X0Y987D02*
X7Y987D01*
X976Y987D02*
X983Y987D01*
X0Y986D02*
X7Y986D01*
X976Y986D02*
X983Y986D01*
X0Y985D02*
X7Y985D01*
X976Y985D02*
X983Y985D01*
X0Y984D02*
X7Y984D01*
X976Y984D02*
X983Y984D01*
X0Y983D02*
X7Y983D01*
X976Y983D02*
X983Y983D01*
X0Y982D02*
X7Y982D01*
X976Y982D02*
X983Y982D01*
X0Y981D02*
X7Y981D01*
X976Y981D02*
X983Y981D01*
X0Y980D02*
X7Y980D01*
X976Y980D02*
X983Y980D01*
X0Y979D02*
X7Y979D01*
X976Y979D02*
X983Y979D01*
X0Y978D02*
X7Y978D01*
X976Y978D02*
X983Y978D01*
X0Y977D02*
X7Y977D01*
X976Y977D02*
X983Y977D01*
X0Y976D02*
X7Y976D01*
X976Y976D02*
X983Y976D01*
X0Y975D02*
X7Y975D01*
X976Y975D02*
X983Y975D01*
X0Y974D02*
X7Y974D01*
X976Y974D02*
X983Y974D01*
X0Y973D02*
X7Y973D01*
X976Y973D02*
X983Y973D01*
X0Y972D02*
X7Y972D01*
X976Y972D02*
X983Y972D01*
X0Y971D02*
X7Y971D01*
X976Y971D02*
X983Y971D01*
X0Y970D02*
X7Y970D01*
X976Y970D02*
X983Y970D01*
X0Y969D02*
X7Y969D01*
X976Y969D02*
X983Y969D01*
X0Y968D02*
X7Y968D01*
X976Y968D02*
X983Y968D01*
X0Y967D02*
X7Y967D01*
X976Y967D02*
X983Y967D01*
X0Y966D02*
X7Y966D01*
X976Y966D02*
X983Y966D01*
X0Y965D02*
X7Y965D01*
X976Y965D02*
X983Y965D01*
X0Y964D02*
X7Y964D01*
X976Y964D02*
X983Y964D01*
X0Y963D02*
X7Y963D01*
X976Y963D02*
X983Y963D01*
X0Y962D02*
X7Y962D01*
X976Y962D02*
X983Y962D01*
X0Y961D02*
X7Y961D01*
X976Y961D02*
X983Y961D01*
X0Y960D02*
X7Y960D01*
X976Y960D02*
X983Y960D01*
X0Y959D02*
X7Y959D01*
X976Y959D02*
X983Y959D01*
X0Y958D02*
X7Y958D01*
X976Y958D02*
X983Y958D01*
X0Y957D02*
X7Y957D01*
X976Y957D02*
X983Y957D01*
X0Y956D02*
X7Y956D01*
X976Y956D02*
X983Y956D01*
X0Y955D02*
X7Y955D01*
X976Y955D02*
X983Y955D01*
X0Y954D02*
X7Y954D01*
X976Y954D02*
X983Y954D01*
X0Y953D02*
X7Y953D01*
X976Y953D02*
X983Y953D01*
X0Y952D02*
X7Y952D01*
X976Y952D02*
X983Y952D01*
X0Y951D02*
X7Y951D01*
X976Y951D02*
X983Y951D01*
X0Y950D02*
X7Y950D01*
X976Y950D02*
X983Y950D01*
X0Y949D02*
X7Y949D01*
X976Y949D02*
X983Y949D01*
X0Y948D02*
X7Y948D01*
X976Y948D02*
X983Y948D01*
X0Y947D02*
X7Y947D01*
X976Y947D02*
X983Y947D01*
X0Y946D02*
X7Y946D01*
X976Y946D02*
X983Y946D01*
X0Y945D02*
X7Y945D01*
X976Y945D02*
X983Y945D01*
X0Y944D02*
X7Y944D01*
X976Y944D02*
X983Y944D01*
X0Y943D02*
X7Y943D01*
X976Y943D02*
X983Y943D01*
X0Y942D02*
X7Y942D01*
X976Y942D02*
X983Y942D01*
X0Y941D02*
X7Y941D01*
X976Y941D02*
X983Y941D01*
X0Y940D02*
X7Y940D01*
X976Y940D02*
X983Y940D01*
X0Y939D02*
X7Y939D01*
X976Y939D02*
X983Y939D01*
X0Y938D02*
X7Y938D01*
X976Y938D02*
X983Y938D01*
X0Y937D02*
X7Y937D01*
X976Y937D02*
X983Y937D01*
X0Y936D02*
X7Y936D01*
X976Y936D02*
X983Y936D01*
X0Y935D02*
X7Y935D01*
X976Y935D02*
X983Y935D01*
X0Y934D02*
X7Y934D01*
X976Y934D02*
X983Y934D01*
X0Y933D02*
X7Y933D01*
X976Y933D02*
X983Y933D01*
X0Y932D02*
X7Y932D01*
X976Y932D02*
X983Y932D01*
X0Y931D02*
X7Y931D01*
X976Y931D02*
X983Y931D01*
X0Y930D02*
X7Y930D01*
X976Y930D02*
X983Y930D01*
X0Y929D02*
X7Y929D01*
X976Y929D02*
X983Y929D01*
X0Y928D02*
X7Y928D01*
X976Y928D02*
X983Y928D01*
X0Y927D02*
X7Y927D01*
X976Y927D02*
X983Y927D01*
X0Y926D02*
X7Y926D01*
X976Y926D02*
X983Y926D01*
X0Y925D02*
X7Y925D01*
X976Y925D02*
X983Y925D01*
X0Y924D02*
X7Y924D01*
X976Y924D02*
X983Y924D01*
X0Y923D02*
X7Y923D01*
X976Y923D02*
X983Y923D01*
X0Y922D02*
X7Y922D01*
X976Y922D02*
X983Y922D01*
X0Y921D02*
X7Y921D01*
X976Y921D02*
X983Y921D01*
X0Y920D02*
X7Y920D01*
X976Y920D02*
X983Y920D01*
X0Y919D02*
X7Y919D01*
X976Y919D02*
X983Y919D01*
X0Y918D02*
X7Y918D01*
X976Y918D02*
X983Y918D01*
X0Y917D02*
X7Y917D01*
X976Y917D02*
X983Y917D01*
X0Y916D02*
X7Y916D01*
X976Y916D02*
X983Y916D01*
X0Y915D02*
X7Y915D01*
X976Y915D02*
X983Y915D01*
X0Y914D02*
X7Y914D01*
X976Y914D02*
X983Y914D01*
X0Y913D02*
X7Y913D01*
X976Y913D02*
X983Y913D01*
X0Y912D02*
X7Y912D01*
X976Y912D02*
X983Y912D01*
X0Y911D02*
X7Y911D01*
X976Y911D02*
X983Y911D01*
X0Y910D02*
X7Y910D01*
X976Y910D02*
X983Y910D01*
X0Y909D02*
X7Y909D01*
X976Y909D02*
X983Y909D01*
X0Y908D02*
X7Y908D01*
X976Y908D02*
X983Y908D01*
X0Y907D02*
X7Y907D01*
X976Y907D02*
X983Y907D01*
X0Y906D02*
X7Y906D01*
X976Y906D02*
X983Y906D01*
X0Y905D02*
X7Y905D01*
X976Y905D02*
X983Y905D01*
X0Y904D02*
X7Y904D01*
X976Y904D02*
X983Y904D01*
X0Y903D02*
X7Y903D01*
X976Y903D02*
X983Y903D01*
X0Y902D02*
X7Y902D01*
X976Y902D02*
X983Y902D01*
X0Y901D02*
X7Y901D01*
X976Y901D02*
X983Y901D01*
X0Y900D02*
X7Y900D01*
X976Y900D02*
X983Y900D01*
X0Y899D02*
X7Y899D01*
X976Y899D02*
X983Y899D01*
X0Y898D02*
X7Y898D01*
X976Y898D02*
X983Y898D01*
X0Y897D02*
X7Y897D01*
X976Y897D02*
X983Y897D01*
X0Y896D02*
X7Y896D01*
X976Y896D02*
X983Y896D01*
X0Y895D02*
X7Y895D01*
X976Y895D02*
X983Y895D01*
X0Y894D02*
X7Y894D01*
X976Y894D02*
X983Y894D01*
X0Y893D02*
X7Y893D01*
X976Y893D02*
X983Y893D01*
X0Y892D02*
X7Y892D01*
X976Y892D02*
X983Y892D01*
X0Y891D02*
X7Y891D01*
X976Y891D02*
X983Y891D01*
X0Y890D02*
X7Y890D01*
X976Y890D02*
X983Y890D01*
X0Y889D02*
X7Y889D01*
X976Y889D02*
X983Y889D01*
X0Y888D02*
X7Y888D01*
X976Y888D02*
X983Y888D01*
X0Y887D02*
X7Y887D01*
X976Y887D02*
X983Y887D01*
X0Y886D02*
X7Y886D01*
X976Y886D02*
X983Y886D01*
X0Y885D02*
X7Y885D01*
X976Y885D02*
X983Y885D01*
X0Y884D02*
X7Y884D01*
X976Y884D02*
X983Y884D01*
X0Y883D02*
X7Y883D01*
X976Y883D02*
X983Y883D01*
X0Y882D02*
X7Y882D01*
X976Y882D02*
X983Y882D01*
X0Y881D02*
X7Y881D01*
X976Y881D02*
X983Y881D01*
X0Y880D02*
X7Y880D01*
X976Y880D02*
X983Y880D01*
X0Y879D02*
X7Y879D01*
X976Y879D02*
X983Y879D01*
X0Y878D02*
X7Y878D01*
X976Y878D02*
X983Y878D01*
X0Y877D02*
X7Y877D01*
X976Y877D02*
X983Y877D01*
X0Y876D02*
X7Y876D01*
X976Y876D02*
X983Y876D01*
X0Y875D02*
X7Y875D01*
X976Y875D02*
X983Y875D01*
X0Y874D02*
X7Y874D01*
X976Y874D02*
X983Y874D01*
X0Y873D02*
X7Y873D01*
X976Y873D02*
X983Y873D01*
X0Y872D02*
X7Y872D01*
X976Y872D02*
X983Y872D01*
X0Y871D02*
X7Y871D01*
X976Y871D02*
X983Y871D01*
X0Y870D02*
X7Y870D01*
X976Y870D02*
X983Y870D01*
X0Y869D02*
X7Y869D01*
X976Y869D02*
X983Y869D01*
X0Y868D02*
X7Y868D01*
X976Y868D02*
X983Y868D01*
X0Y867D02*
X7Y867D01*
X976Y867D02*
X983Y867D01*
X0Y866D02*
X7Y866D01*
X976Y866D02*
X983Y866D01*
X0Y865D02*
X7Y865D01*
X976Y865D02*
X983Y865D01*
X0Y864D02*
X7Y864D01*
X976Y864D02*
X983Y864D01*
X0Y863D02*
X7Y863D01*
X976Y863D02*
X983Y863D01*
X0Y862D02*
X7Y862D01*
X976Y862D02*
X983Y862D01*
X0Y861D02*
X7Y861D01*
X976Y861D02*
X983Y861D01*
X0Y860D02*
X7Y860D01*
X976Y860D02*
X983Y860D01*
X0Y859D02*
X7Y859D01*
X976Y859D02*
X983Y859D01*
X0Y858D02*
X7Y858D01*
X976Y858D02*
X983Y858D01*
X0Y857D02*
X7Y857D01*
X976Y857D02*
X983Y857D01*
X0Y856D02*
X7Y856D01*
X976Y856D02*
X983Y856D01*
X0Y855D02*
X7Y855D01*
X976Y855D02*
X983Y855D01*
X0Y854D02*
X7Y854D01*
X976Y854D02*
X983Y854D01*
X0Y853D02*
X7Y853D01*
X976Y853D02*
X983Y853D01*
X0Y852D02*
X7Y852D01*
X976Y852D02*
X983Y852D01*
X0Y851D02*
X7Y851D01*
X976Y851D02*
X983Y851D01*
X0Y850D02*
X7Y850D01*
X976Y850D02*
X983Y850D01*
X0Y849D02*
X7Y849D01*
X976Y849D02*
X983Y849D01*
X0Y848D02*
X7Y848D01*
X976Y848D02*
X983Y848D01*
X0Y847D02*
X7Y847D01*
X976Y847D02*
X983Y847D01*
X0Y846D02*
X7Y846D01*
X976Y846D02*
X983Y846D01*
X0Y845D02*
X7Y845D01*
X976Y845D02*
X983Y845D01*
X0Y844D02*
X7Y844D01*
X976Y844D02*
X983Y844D01*
X0Y843D02*
X7Y843D01*
X976Y843D02*
X983Y843D01*
X0Y842D02*
X7Y842D01*
X976Y842D02*
X983Y842D01*
X0Y841D02*
X7Y841D01*
X976Y841D02*
X983Y841D01*
X0Y840D02*
X7Y840D01*
X976Y840D02*
X983Y840D01*
X0Y839D02*
X7Y839D01*
X976Y839D02*
X983Y839D01*
X0Y838D02*
X7Y838D01*
X976Y838D02*
X983Y838D01*
X0Y837D02*
X7Y837D01*
X976Y837D02*
X983Y837D01*
X0Y836D02*
X7Y836D01*
X976Y836D02*
X983Y836D01*
X0Y835D02*
X7Y835D01*
X976Y835D02*
X983Y835D01*
X0Y834D02*
X7Y834D01*
X976Y834D02*
X983Y834D01*
X0Y833D02*
X7Y833D01*
X976Y833D02*
X983Y833D01*
X0Y832D02*
X7Y832D01*
X976Y832D02*
X983Y832D01*
X0Y831D02*
X7Y831D01*
X976Y831D02*
X983Y831D01*
X0Y830D02*
X7Y830D01*
X976Y830D02*
X983Y830D01*
X0Y829D02*
X7Y829D01*
X976Y829D02*
X983Y829D01*
X0Y828D02*
X7Y828D01*
X976Y828D02*
X983Y828D01*
X0Y827D02*
X7Y827D01*
X976Y827D02*
X983Y827D01*
X0Y826D02*
X7Y826D01*
X976Y826D02*
X983Y826D01*
X0Y825D02*
X7Y825D01*
X976Y825D02*
X983Y825D01*
X0Y824D02*
X7Y824D01*
X976Y824D02*
X983Y824D01*
X0Y823D02*
X7Y823D01*
X976Y823D02*
X983Y823D01*
X0Y822D02*
X7Y822D01*
X976Y822D02*
X983Y822D01*
X0Y821D02*
X7Y821D01*
X976Y821D02*
X983Y821D01*
X0Y820D02*
X7Y820D01*
X976Y820D02*
X983Y820D01*
X0Y819D02*
X7Y819D01*
X976Y819D02*
X983Y819D01*
X0Y818D02*
X7Y818D01*
X976Y818D02*
X983Y818D01*
X0Y817D02*
X7Y817D01*
X976Y817D02*
X983Y817D01*
X0Y816D02*
X7Y816D01*
X976Y816D02*
X983Y816D01*
X0Y815D02*
X7Y815D01*
X976Y815D02*
X983Y815D01*
X0Y814D02*
X7Y814D01*
X976Y814D02*
X983Y814D01*
X0Y813D02*
X7Y813D01*
X976Y813D02*
X983Y813D01*
X0Y812D02*
X7Y812D01*
X976Y812D02*
X983Y812D01*
X0Y811D02*
X7Y811D01*
X976Y811D02*
X983Y811D01*
X0Y810D02*
X7Y810D01*
X976Y810D02*
X983Y810D01*
X0Y809D02*
X7Y809D01*
X976Y809D02*
X983Y809D01*
X0Y808D02*
X7Y808D01*
X976Y808D02*
X983Y808D01*
X0Y807D02*
X7Y807D01*
X976Y807D02*
X983Y807D01*
X0Y806D02*
X7Y806D01*
X976Y806D02*
X983Y806D01*
X0Y805D02*
X7Y805D01*
X976Y805D02*
X983Y805D01*
X0Y804D02*
X7Y804D01*
X976Y804D02*
X983Y804D01*
X0Y803D02*
X7Y803D01*
X976Y803D02*
X983Y803D01*
X0Y802D02*
X7Y802D01*
X976Y802D02*
X983Y802D01*
X0Y801D02*
X7Y801D01*
X976Y801D02*
X983Y801D01*
X0Y800D02*
X7Y800D01*
X976Y800D02*
X983Y800D01*
X0Y799D02*
X7Y799D01*
X976Y799D02*
X983Y799D01*
X0Y798D02*
X7Y798D01*
X976Y798D02*
X983Y798D01*
X0Y797D02*
X7Y797D01*
X976Y797D02*
X983Y797D01*
X0Y796D02*
X7Y796D01*
X976Y796D02*
X983Y796D01*
X0Y795D02*
X7Y795D01*
X976Y795D02*
X983Y795D01*
X0Y794D02*
X7Y794D01*
X976Y794D02*
X983Y794D01*
X0Y793D02*
X7Y793D01*
X976Y793D02*
X983Y793D01*
X0Y792D02*
X7Y792D01*
X976Y792D02*
X983Y792D01*
X0Y791D02*
X7Y791D01*
X976Y791D02*
X983Y791D01*
X0Y790D02*
X7Y790D01*
X976Y790D02*
X983Y790D01*
X0Y789D02*
X7Y789D01*
X976Y789D02*
X983Y789D01*
X0Y788D02*
X7Y788D01*
X976Y788D02*
X983Y788D01*
X0Y787D02*
X7Y787D01*
X976Y787D02*
X983Y787D01*
X0Y786D02*
X7Y786D01*
X976Y786D02*
X983Y786D01*
X0Y785D02*
X7Y785D01*
X976Y785D02*
X983Y785D01*
X0Y784D02*
X7Y784D01*
X976Y784D02*
X983Y784D01*
X0Y783D02*
X7Y783D01*
X976Y783D02*
X983Y783D01*
X0Y782D02*
X7Y782D01*
X976Y782D02*
X983Y782D01*
X0Y781D02*
X7Y781D01*
X976Y781D02*
X983Y781D01*
X0Y780D02*
X7Y780D01*
X976Y780D02*
X983Y780D01*
X0Y779D02*
X7Y779D01*
X976Y779D02*
X983Y779D01*
X0Y778D02*
X7Y778D01*
X976Y778D02*
X983Y778D01*
X0Y777D02*
X7Y777D01*
X976Y777D02*
X983Y777D01*
X0Y776D02*
X7Y776D01*
X976Y776D02*
X983Y776D01*
X0Y775D02*
X7Y775D01*
X976Y775D02*
X983Y775D01*
X0Y774D02*
X7Y774D01*
X976Y774D02*
X983Y774D01*
X0Y773D02*
X7Y773D01*
X976Y773D02*
X983Y773D01*
X0Y772D02*
X7Y772D01*
X976Y772D02*
X983Y772D01*
X0Y771D02*
X7Y771D01*
X976Y771D02*
X983Y771D01*
X0Y770D02*
X7Y770D01*
X976Y770D02*
X983Y770D01*
X0Y769D02*
X7Y769D01*
X976Y769D02*
X983Y769D01*
X0Y768D02*
X7Y768D01*
X976Y768D02*
X983Y768D01*
X0Y767D02*
X7Y767D01*
X976Y767D02*
X983Y767D01*
X0Y766D02*
X7Y766D01*
X976Y766D02*
X983Y766D01*
X0Y765D02*
X7Y765D01*
X976Y765D02*
X983Y765D01*
X0Y764D02*
X7Y764D01*
X976Y764D02*
X983Y764D01*
X0Y763D02*
X7Y763D01*
X976Y763D02*
X983Y763D01*
X0Y762D02*
X7Y762D01*
X976Y762D02*
X983Y762D01*
X0Y761D02*
X7Y761D01*
X976Y761D02*
X983Y761D01*
X0Y760D02*
X7Y760D01*
X976Y760D02*
X983Y760D01*
X0Y759D02*
X7Y759D01*
X976Y759D02*
X983Y759D01*
X0Y758D02*
X7Y758D01*
X976Y758D02*
X983Y758D01*
X0Y757D02*
X7Y757D01*
X976Y757D02*
X983Y757D01*
X0Y756D02*
X7Y756D01*
X976Y756D02*
X983Y756D01*
X0Y755D02*
X7Y755D01*
X976Y755D02*
X983Y755D01*
X0Y754D02*
X7Y754D01*
X976Y754D02*
X983Y754D01*
X0Y753D02*
X7Y753D01*
X976Y753D02*
X983Y753D01*
X0Y752D02*
X7Y752D01*
X976Y752D02*
X983Y752D01*
X0Y751D02*
X7Y751D01*
X976Y751D02*
X983Y751D01*
X0Y750D02*
X7Y750D01*
X976Y750D02*
X983Y750D01*
X0Y749D02*
X7Y749D01*
X976Y749D02*
X983Y749D01*
X0Y748D02*
X7Y748D01*
X976Y748D02*
X983Y748D01*
X0Y747D02*
X7Y747D01*
X976Y747D02*
X983Y747D01*
X0Y746D02*
X7Y746D01*
X976Y746D02*
X983Y746D01*
X0Y745D02*
X7Y745D01*
X976Y745D02*
X983Y745D01*
X0Y744D02*
X7Y744D01*
X976Y744D02*
X983Y744D01*
X0Y743D02*
X7Y743D01*
X976Y743D02*
X983Y743D01*
X0Y742D02*
X7Y742D01*
X976Y742D02*
X983Y742D01*
X0Y741D02*
X7Y741D01*
X976Y741D02*
X983Y741D01*
X0Y740D02*
X7Y740D01*
X976Y740D02*
X983Y740D01*
X0Y739D02*
X7Y739D01*
X976Y739D02*
X983Y739D01*
X0Y738D02*
X7Y738D01*
X976Y738D02*
X983Y738D01*
X0Y737D02*
X7Y737D01*
X976Y737D02*
X983Y737D01*
X0Y736D02*
X7Y736D01*
X976Y736D02*
X983Y736D01*
X0Y735D02*
X7Y735D01*
X976Y735D02*
X983Y735D01*
X0Y734D02*
X7Y734D01*
X976Y734D02*
X983Y734D01*
X0Y733D02*
X7Y733D01*
X663Y733D02*
X664Y733D01*
X976Y733D02*
X983Y733D01*
X0Y732D02*
X7Y732D01*
X662Y732D02*
X665Y732D01*
X976Y732D02*
X983Y732D01*
X0Y731D02*
X7Y731D01*
X661Y731D02*
X666Y731D01*
X976Y731D02*
X983Y731D01*
X0Y730D02*
X7Y730D01*
X660Y730D02*
X666Y730D01*
X976Y730D02*
X983Y730D01*
X0Y729D02*
X7Y729D01*
X660Y729D02*
X665Y729D01*
X976Y729D02*
X983Y729D01*
X0Y728D02*
X7Y728D01*
X660Y728D02*
X664Y728D01*
X976Y728D02*
X983Y728D01*
X0Y727D02*
X7Y727D01*
X660Y727D02*
X663Y727D01*
X976Y727D02*
X983Y727D01*
X0Y726D02*
X7Y726D01*
X660Y726D02*
X662Y726D01*
X976Y726D02*
X983Y726D01*
X0Y725D02*
X7Y725D01*
X660Y725D02*
X661Y725D01*
X976Y725D02*
X983Y725D01*
X0Y724D02*
X7Y724D01*
X660Y724D02*
X660Y724D01*
X976Y724D02*
X983Y724D01*
X0Y723D02*
X7Y723D01*
X976Y723D02*
X983Y723D01*
X0Y722D02*
X7Y722D01*
X976Y722D02*
X983Y722D01*
X0Y721D02*
X7Y721D01*
X976Y721D02*
X983Y721D01*
X0Y720D02*
X7Y720D01*
X976Y720D02*
X983Y720D01*
X0Y719D02*
X7Y719D01*
X976Y719D02*
X983Y719D01*
X0Y718D02*
X7Y718D01*
X976Y718D02*
X983Y718D01*
X0Y717D02*
X7Y717D01*
X976Y717D02*
X983Y717D01*
X0Y716D02*
X7Y716D01*
X976Y716D02*
X983Y716D01*
X0Y715D02*
X7Y715D01*
X976Y715D02*
X983Y715D01*
X0Y714D02*
X7Y714D01*
X976Y714D02*
X983Y714D01*
X0Y713D02*
X7Y713D01*
X976Y713D02*
X983Y713D01*
X0Y712D02*
X7Y712D01*
X976Y712D02*
X983Y712D01*
X0Y711D02*
X7Y711D01*
X976Y711D02*
X983Y711D01*
X0Y710D02*
X7Y710D01*
X976Y710D02*
X983Y710D01*
X0Y709D02*
X7Y709D01*
X976Y709D02*
X983Y709D01*
X0Y708D02*
X7Y708D01*
X976Y708D02*
X983Y708D01*
X0Y707D02*
X7Y707D01*
X976Y707D02*
X983Y707D01*
X0Y706D02*
X7Y706D01*
X976Y706D02*
X983Y706D01*
X0Y705D02*
X7Y705D01*
X976Y705D02*
X983Y705D01*
X0Y704D02*
X7Y704D01*
X976Y704D02*
X983Y704D01*
X0Y703D02*
X7Y703D01*
X633Y703D02*
X639Y703D01*
X976Y703D02*
X983Y703D01*
X0Y702D02*
X7Y702D01*
X632Y702D02*
X638Y702D01*
X976Y702D02*
X983Y702D01*
X0Y701D02*
X7Y701D01*
X631Y701D02*
X637Y701D01*
X976Y701D02*
X983Y701D01*
X0Y700D02*
X7Y700D01*
X630Y700D02*
X636Y700D01*
X976Y700D02*
X983Y700D01*
X0Y699D02*
X7Y699D01*
X630Y699D02*
X635Y699D01*
X976Y699D02*
X983Y699D01*
X0Y698D02*
X7Y698D01*
X630Y698D02*
X634Y698D01*
X976Y698D02*
X983Y698D01*
X0Y697D02*
X7Y697D01*
X631Y697D02*
X633Y697D01*
X976Y697D02*
X983Y697D01*
X0Y696D02*
X7Y696D01*
X976Y696D02*
X983Y696D01*
X0Y695D02*
X7Y695D01*
X976Y695D02*
X983Y695D01*
X0Y694D02*
X7Y694D01*
X976Y694D02*
X983Y694D01*
X0Y693D02*
X7Y693D01*
X976Y693D02*
X983Y693D01*
X0Y692D02*
X7Y692D01*
X976Y692D02*
X983Y692D01*
X0Y691D02*
X7Y691D01*
X976Y691D02*
X983Y691D01*
X0Y690D02*
X7Y690D01*
X976Y690D02*
X983Y690D01*
X0Y689D02*
X7Y689D01*
X976Y689D02*
X983Y689D01*
X0Y688D02*
X7Y688D01*
X976Y688D02*
X983Y688D01*
X0Y687D02*
X7Y687D01*
X976Y687D02*
X983Y687D01*
X0Y686D02*
X7Y686D01*
X976Y686D02*
X983Y686D01*
X0Y685D02*
X7Y685D01*
X976Y685D02*
X983Y685D01*
X0Y684D02*
X7Y684D01*
X976Y684D02*
X983Y684D01*
X0Y683D02*
X7Y683D01*
X976Y683D02*
X983Y683D01*
X0Y682D02*
X7Y682D01*
X976Y682D02*
X983Y682D01*
X0Y681D02*
X7Y681D01*
X976Y681D02*
X983Y681D01*
X0Y680D02*
X7Y680D01*
X976Y680D02*
X983Y680D01*
X0Y679D02*
X7Y679D01*
X976Y679D02*
X983Y679D01*
X0Y678D02*
X7Y678D01*
X976Y678D02*
X983Y678D01*
X0Y677D02*
X7Y677D01*
X976Y677D02*
X983Y677D01*
X0Y676D02*
X7Y676D01*
X976Y676D02*
X983Y676D01*
X0Y675D02*
X7Y675D01*
X976Y675D02*
X983Y675D01*
X0Y674D02*
X7Y674D01*
X976Y674D02*
X983Y674D01*
X0Y673D02*
X7Y673D01*
X976Y673D02*
X983Y673D01*
X0Y672D02*
X7Y672D01*
X976Y672D02*
X983Y672D01*
X0Y671D02*
X7Y671D01*
X976Y671D02*
X983Y671D01*
X0Y670D02*
X7Y670D01*
X976Y670D02*
X983Y670D01*
X0Y669D02*
X7Y669D01*
X976Y669D02*
X983Y669D01*
X0Y668D02*
X7Y668D01*
X976Y668D02*
X983Y668D01*
X0Y667D02*
X7Y667D01*
X976Y667D02*
X983Y667D01*
X0Y666D02*
X7Y666D01*
X976Y666D02*
X983Y666D01*
X0Y665D02*
X7Y665D01*
X976Y665D02*
X983Y665D01*
X0Y664D02*
X7Y664D01*
X976Y664D02*
X983Y664D01*
X0Y663D02*
X7Y663D01*
X976Y663D02*
X983Y663D01*
X0Y662D02*
X7Y662D01*
X976Y662D02*
X983Y662D01*
X0Y661D02*
X7Y661D01*
X976Y661D02*
X983Y661D01*
X0Y660D02*
X7Y660D01*
X976Y660D02*
X983Y660D01*
X0Y659D02*
X7Y659D01*
X976Y659D02*
X983Y659D01*
X0Y658D02*
X7Y658D01*
X976Y658D02*
X983Y658D01*
X0Y657D02*
X7Y657D01*
X976Y657D02*
X983Y657D01*
X0Y656D02*
X7Y656D01*
X976Y656D02*
X983Y656D01*
X0Y655D02*
X7Y655D01*
X976Y655D02*
X983Y655D01*
X0Y654D02*
X7Y654D01*
X976Y654D02*
X983Y654D01*
X0Y653D02*
X7Y653D01*
X976Y653D02*
X983Y653D01*
X0Y652D02*
X7Y652D01*
X976Y652D02*
X983Y652D01*
X0Y651D02*
X7Y651D01*
X976Y651D02*
X983Y651D01*
X0Y650D02*
X7Y650D01*
X976Y650D02*
X983Y650D01*
X0Y649D02*
X7Y649D01*
X976Y649D02*
X983Y649D01*
X0Y648D02*
X7Y648D01*
X976Y648D02*
X983Y648D01*
X0Y647D02*
X7Y647D01*
X976Y647D02*
X983Y647D01*
X0Y646D02*
X7Y646D01*
X976Y646D02*
X983Y646D01*
X0Y645D02*
X7Y645D01*
X976Y645D02*
X983Y645D01*
X0Y644D02*
X7Y644D01*
X976Y644D02*
X983Y644D01*
X0Y643D02*
X7Y643D01*
X976Y643D02*
X983Y643D01*
X0Y642D02*
X7Y642D01*
X976Y642D02*
X983Y642D01*
X0Y641D02*
X7Y641D01*
X976Y641D02*
X983Y641D01*
X0Y640D02*
X7Y640D01*
X976Y640D02*
X983Y640D01*
X0Y639D02*
X7Y639D01*
X976Y639D02*
X983Y639D01*
X0Y638D02*
X7Y638D01*
X976Y638D02*
X983Y638D01*
X0Y637D02*
X7Y637D01*
X976Y637D02*
X983Y637D01*
X0Y636D02*
X7Y636D01*
X976Y636D02*
X983Y636D01*
X0Y635D02*
X7Y635D01*
X976Y635D02*
X983Y635D01*
X0Y634D02*
X7Y634D01*
X976Y634D02*
X983Y634D01*
X0Y633D02*
X7Y633D01*
X976Y633D02*
X983Y633D01*
X0Y632D02*
X7Y632D01*
X976Y632D02*
X983Y632D01*
X0Y631D02*
X7Y631D01*
X976Y631D02*
X983Y631D01*
X0Y630D02*
X7Y630D01*
X976Y630D02*
X983Y630D01*
X0Y629D02*
X7Y629D01*
X976Y629D02*
X983Y629D01*
X0Y628D02*
X7Y628D01*
X976Y628D02*
X983Y628D01*
X0Y627D02*
X7Y627D01*
X976Y627D02*
X983Y627D01*
X0Y626D02*
X7Y626D01*
X976Y626D02*
X983Y626D01*
X0Y625D02*
X7Y625D01*
X976Y625D02*
X983Y625D01*
X0Y624D02*
X7Y624D01*
X976Y624D02*
X983Y624D01*
X0Y623D02*
X7Y623D01*
X976Y623D02*
X983Y623D01*
X0Y622D02*
X7Y622D01*
X976Y622D02*
X983Y622D01*
X0Y621D02*
X7Y621D01*
X976Y621D02*
X983Y621D01*
X0Y620D02*
X7Y620D01*
X976Y620D02*
X983Y620D01*
X0Y619D02*
X7Y619D01*
X976Y619D02*
X983Y619D01*
X0Y618D02*
X7Y618D01*
X976Y618D02*
X983Y618D01*
X0Y617D02*
X7Y617D01*
X976Y617D02*
X983Y617D01*
X0Y616D02*
X7Y616D01*
X976Y616D02*
X983Y616D01*
X0Y615D02*
X7Y615D01*
X976Y615D02*
X983Y615D01*
X0Y614D02*
X7Y614D01*
X976Y614D02*
X983Y614D01*
X0Y613D02*
X7Y613D01*
X976Y613D02*
X983Y613D01*
X0Y612D02*
X7Y612D01*
X976Y612D02*
X983Y612D01*
X0Y611D02*
X7Y611D01*
X976Y611D02*
X983Y611D01*
X0Y610D02*
X7Y610D01*
X976Y610D02*
X983Y610D01*
X0Y609D02*
X7Y609D01*
X976Y609D02*
X983Y609D01*
X0Y608D02*
X7Y608D01*
X976Y608D02*
X983Y608D01*
X0Y607D02*
X7Y607D01*
X976Y607D02*
X983Y607D01*
X0Y606D02*
X7Y606D01*
X976Y606D02*
X983Y606D01*
X0Y605D02*
X7Y605D01*
X976Y605D02*
X983Y605D01*
X0Y604D02*
X7Y604D01*
X976Y604D02*
X983Y604D01*
X0Y603D02*
X7Y603D01*
X976Y603D02*
X983Y603D01*
X0Y602D02*
X7Y602D01*
X976Y602D02*
X983Y602D01*
X0Y601D02*
X7Y601D01*
X976Y601D02*
X983Y601D01*
X0Y600D02*
X7Y600D01*
X976Y600D02*
X983Y600D01*
X0Y599D02*
X7Y599D01*
X976Y599D02*
X983Y599D01*
X0Y598D02*
X7Y598D01*
X976Y598D02*
X983Y598D01*
X0Y597D02*
X7Y597D01*
X976Y597D02*
X983Y597D01*
X0Y596D02*
X7Y596D01*
X976Y596D02*
X983Y596D01*
X0Y595D02*
X7Y595D01*
X976Y595D02*
X983Y595D01*
X0Y594D02*
X7Y594D01*
X976Y594D02*
X983Y594D01*
X0Y593D02*
X7Y593D01*
X976Y593D02*
X983Y593D01*
X0Y592D02*
X7Y592D01*
X976Y592D02*
X983Y592D01*
X0Y591D02*
X7Y591D01*
X976Y591D02*
X983Y591D01*
X0Y590D02*
X7Y590D01*
X976Y590D02*
X983Y590D01*
X0Y589D02*
X7Y589D01*
X976Y589D02*
X983Y589D01*
X0Y588D02*
X7Y588D01*
X976Y588D02*
X983Y588D01*
X0Y587D02*
X7Y587D01*
X976Y587D02*
X983Y587D01*
X0Y586D02*
X7Y586D01*
X976Y586D02*
X983Y586D01*
X0Y585D02*
X7Y585D01*
X976Y585D02*
X983Y585D01*
X0Y584D02*
X7Y584D01*
X976Y584D02*
X983Y584D01*
X0Y583D02*
X7Y583D01*
X976Y583D02*
X983Y583D01*
X0Y582D02*
X7Y582D01*
X976Y582D02*
X983Y582D01*
X0Y581D02*
X7Y581D01*
X976Y581D02*
X983Y581D01*
X0Y580D02*
X7Y580D01*
X976Y580D02*
X983Y580D01*
X0Y579D02*
X7Y579D01*
X976Y579D02*
X983Y579D01*
X0Y578D02*
X7Y578D01*
X976Y578D02*
X983Y578D01*
X0Y577D02*
X7Y577D01*
X976Y577D02*
X983Y577D01*
X0Y576D02*
X7Y576D01*
X976Y576D02*
X983Y576D01*
X0Y575D02*
X7Y575D01*
X976Y575D02*
X983Y575D01*
X0Y574D02*
X7Y574D01*
X976Y574D02*
X983Y574D01*
X0Y573D02*
X7Y573D01*
X976Y573D02*
X983Y573D01*
X0Y572D02*
X7Y572D01*
X976Y572D02*
X983Y572D01*
X0Y571D02*
X7Y571D01*
X976Y571D02*
X983Y571D01*
X0Y570D02*
X7Y570D01*
X976Y570D02*
X983Y570D01*
X0Y569D02*
X7Y569D01*
X976Y569D02*
X983Y569D01*
X0Y568D02*
X7Y568D01*
X976Y568D02*
X983Y568D01*
X0Y567D02*
X7Y567D01*
X976Y567D02*
X983Y567D01*
X0Y566D02*
X7Y566D01*
X976Y566D02*
X983Y566D01*
X0Y565D02*
X7Y565D01*
X976Y565D02*
X983Y565D01*
X0Y564D02*
X7Y564D01*
X976Y564D02*
X983Y564D01*
X0Y563D02*
X7Y563D01*
X976Y563D02*
X983Y563D01*
X0Y562D02*
X7Y562D01*
X976Y562D02*
X983Y562D01*
X0Y561D02*
X7Y561D01*
X976Y561D02*
X983Y561D01*
X0Y560D02*
X7Y560D01*
X976Y560D02*
X983Y560D01*
X0Y559D02*
X7Y559D01*
X976Y559D02*
X983Y559D01*
X0Y558D02*
X7Y558D01*
X976Y558D02*
X983Y558D01*
X0Y557D02*
X7Y557D01*
X976Y557D02*
X983Y557D01*
X0Y556D02*
X7Y556D01*
X976Y556D02*
X983Y556D01*
X0Y555D02*
X7Y555D01*
X976Y555D02*
X983Y555D01*
X0Y554D02*
X7Y554D01*
X976Y554D02*
X983Y554D01*
X0Y553D02*
X7Y553D01*
X976Y553D02*
X983Y553D01*
X0Y552D02*
X7Y552D01*
X976Y552D02*
X983Y552D01*
X0Y551D02*
X7Y551D01*
X976Y551D02*
X983Y551D01*
X0Y550D02*
X7Y550D01*
X976Y550D02*
X983Y550D01*
X0Y549D02*
X7Y549D01*
X976Y549D02*
X983Y549D01*
X0Y548D02*
X7Y548D01*
X976Y548D02*
X983Y548D01*
X0Y547D02*
X7Y547D01*
X976Y547D02*
X983Y547D01*
X0Y546D02*
X7Y546D01*
X976Y546D02*
X983Y546D01*
X0Y545D02*
X7Y545D01*
X976Y545D02*
X983Y545D01*
X0Y544D02*
X7Y544D01*
X976Y544D02*
X983Y544D01*
X0Y543D02*
X7Y543D01*
X976Y543D02*
X983Y543D01*
X0Y542D02*
X7Y542D01*
X976Y542D02*
X983Y542D01*
X0Y541D02*
X7Y541D01*
X976Y541D02*
X983Y541D01*
X0Y540D02*
X7Y540D01*
X976Y540D02*
X983Y540D01*
X0Y539D02*
X7Y539D01*
X976Y539D02*
X983Y539D01*
X0Y538D02*
X7Y538D01*
X976Y538D02*
X983Y538D01*
X0Y537D02*
X7Y537D01*
X976Y537D02*
X983Y537D01*
X0Y536D02*
X7Y536D01*
X976Y536D02*
X983Y536D01*
X0Y535D02*
X7Y535D01*
X976Y535D02*
X983Y535D01*
X0Y534D02*
X7Y534D01*
X976Y534D02*
X983Y534D01*
X0Y533D02*
X7Y533D01*
X976Y533D02*
X983Y533D01*
X0Y532D02*
X7Y532D01*
X976Y532D02*
X983Y532D01*
X0Y531D02*
X7Y531D01*
X976Y531D02*
X983Y531D01*
X0Y530D02*
X7Y530D01*
X976Y530D02*
X983Y530D01*
X0Y529D02*
X7Y529D01*
X976Y529D02*
X983Y529D01*
X0Y528D02*
X7Y528D01*
X976Y528D02*
X983Y528D01*
X0Y527D02*
X7Y527D01*
X976Y527D02*
X983Y527D01*
X0Y526D02*
X7Y526D01*
X165Y526D02*
X768Y526D01*
X976Y526D02*
X983Y526D01*
X0Y525D02*
X7Y525D01*
X164Y525D02*
X769Y525D01*
X976Y525D02*
X983Y525D01*
X0Y524D02*
X7Y524D01*
X163Y524D02*
X769Y524D01*
X976Y524D02*
X983Y524D01*
X0Y523D02*
X7Y523D01*
X163Y523D02*
X770Y523D01*
X976Y523D02*
X983Y523D01*
X0Y522D02*
X7Y522D01*
X163Y522D02*
X770Y522D01*
X976Y522D02*
X983Y522D01*
X0Y521D02*
X7Y521D01*
X163Y521D02*
X769Y521D01*
X976Y521D02*
X983Y521D01*
X0Y520D02*
X7Y520D01*
X164Y520D02*
X282Y520D01*
X301Y520D02*
X382Y520D01*
X401Y520D02*
X482Y520D01*
X501Y520D02*
X582Y520D01*
X601Y520D02*
X769Y520D01*
X976Y520D02*
X983Y520D01*
X0Y519D02*
X7Y519D01*
X166Y519D02*
X278Y519D01*
X305Y519D02*
X378Y519D01*
X405Y519D02*
X478Y519D01*
X505Y519D02*
X578Y519D01*
X604Y519D02*
X767Y519D01*
X976Y519D02*
X983Y519D01*
X0Y518D02*
X7Y518D01*
X976Y518D02*
X983Y518D01*
X0Y517D02*
X7Y517D01*
X976Y517D02*
X983Y517D01*
X0Y516D02*
X7Y516D01*
X976Y516D02*
X983Y516D01*
X0Y515D02*
X7Y515D01*
X976Y515D02*
X983Y515D01*
X0Y514D02*
X7Y514D01*
X976Y514D02*
X983Y514D01*
X0Y513D02*
X7Y513D01*
X976Y513D02*
X983Y513D01*
X0Y512D02*
X7Y512D01*
X976Y512D02*
X983Y512D01*
X0Y511D02*
X7Y511D01*
X976Y511D02*
X983Y511D01*
X0Y510D02*
X7Y510D01*
X976Y510D02*
X983Y510D01*
X0Y509D02*
X7Y509D01*
X976Y509D02*
X983Y509D01*
X0Y508D02*
X7Y508D01*
X976Y508D02*
X983Y508D01*
X0Y507D02*
X7Y507D01*
X976Y507D02*
X983Y507D01*
X0Y506D02*
X7Y506D01*
X976Y506D02*
X983Y506D01*
X0Y505D02*
X7Y505D01*
X976Y505D02*
X983Y505D01*
X0Y504D02*
X7Y504D01*
X976Y504D02*
X983Y504D01*
X0Y503D02*
X7Y503D01*
X976Y503D02*
X983Y503D01*
X0Y502D02*
X7Y502D01*
X976Y502D02*
X983Y502D01*
X0Y501D02*
X7Y501D01*
X976Y501D02*
X983Y501D01*
X0Y500D02*
X7Y500D01*
X976Y500D02*
X983Y500D01*
X0Y499D02*
X7Y499D01*
X976Y499D02*
X983Y499D01*
X0Y498D02*
X7Y498D01*
X976Y498D02*
X983Y498D01*
X0Y497D02*
X7Y497D01*
X976Y497D02*
X983Y497D01*
X0Y496D02*
X7Y496D01*
X976Y496D02*
X983Y496D01*
X0Y495D02*
X7Y495D01*
X976Y495D02*
X983Y495D01*
X0Y494D02*
X7Y494D01*
X976Y494D02*
X983Y494D01*
X0Y493D02*
X7Y493D01*
X976Y493D02*
X983Y493D01*
X0Y492D02*
X7Y492D01*
X976Y492D02*
X983Y492D01*
X0Y491D02*
X7Y491D01*
X976Y491D02*
X983Y491D01*
X0Y490D02*
X7Y490D01*
X976Y490D02*
X983Y490D01*
X0Y489D02*
X7Y489D01*
X976Y489D02*
X983Y489D01*
X0Y488D02*
X7Y488D01*
X976Y488D02*
X983Y488D01*
X0Y487D02*
X7Y487D01*
X976Y487D02*
X983Y487D01*
X0Y486D02*
X7Y486D01*
X976Y486D02*
X983Y486D01*
X0Y485D02*
X7Y485D01*
X976Y485D02*
X983Y485D01*
X0Y484D02*
X7Y484D01*
X976Y484D02*
X983Y484D01*
X0Y483D02*
X7Y483D01*
X976Y483D02*
X983Y483D01*
X0Y482D02*
X7Y482D01*
X976Y482D02*
X983Y482D01*
X0Y481D02*
X7Y481D01*
X976Y481D02*
X983Y481D01*
X0Y480D02*
X7Y480D01*
X976Y480D02*
X983Y480D01*
X0Y479D02*
X7Y479D01*
X976Y479D02*
X983Y479D01*
X0Y478D02*
X7Y478D01*
X976Y478D02*
X983Y478D01*
X0Y477D02*
X7Y477D01*
X976Y477D02*
X983Y477D01*
X0Y476D02*
X7Y476D01*
X976Y476D02*
X983Y476D01*
X0Y475D02*
X7Y475D01*
X976Y475D02*
X983Y475D01*
X0Y474D02*
X7Y474D01*
X976Y474D02*
X983Y474D01*
X0Y473D02*
X7Y473D01*
X976Y473D02*
X983Y473D01*
X0Y472D02*
X7Y472D01*
X976Y472D02*
X983Y472D01*
X0Y471D02*
X7Y471D01*
X976Y471D02*
X983Y471D01*
X0Y470D02*
X7Y470D01*
X976Y470D02*
X983Y470D01*
X0Y469D02*
X7Y469D01*
X976Y469D02*
X983Y469D01*
X0Y468D02*
X7Y468D01*
X976Y468D02*
X983Y468D01*
X0Y467D02*
X7Y467D01*
X976Y467D02*
X983Y467D01*
X0Y466D02*
X7Y466D01*
X976Y466D02*
X983Y466D01*
X0Y465D02*
X7Y465D01*
X976Y465D02*
X983Y465D01*
X0Y464D02*
X7Y464D01*
X976Y464D02*
X983Y464D01*
X0Y463D02*
X7Y463D01*
X976Y463D02*
X983Y463D01*
X0Y462D02*
X7Y462D01*
X976Y462D02*
X983Y462D01*
X0Y461D02*
X7Y461D01*
X976Y461D02*
X983Y461D01*
X0Y460D02*
X7Y460D01*
X976Y460D02*
X983Y460D01*
X0Y459D02*
X7Y459D01*
X976Y459D02*
X983Y459D01*
X0Y458D02*
X7Y458D01*
X976Y458D02*
X983Y458D01*
X0Y457D02*
X7Y457D01*
X976Y457D02*
X983Y457D01*
X0Y456D02*
X7Y456D01*
X976Y456D02*
X983Y456D01*
X0Y455D02*
X7Y455D01*
X976Y455D02*
X983Y455D01*
X0Y454D02*
X7Y454D01*
X976Y454D02*
X983Y454D01*
X0Y453D02*
X7Y453D01*
X976Y453D02*
X983Y453D01*
X0Y452D02*
X7Y452D01*
X976Y452D02*
X983Y452D01*
X0Y451D02*
X7Y451D01*
X976Y451D02*
X983Y451D01*
X0Y450D02*
X7Y450D01*
X976Y450D02*
X983Y450D01*
X0Y449D02*
X7Y449D01*
X976Y449D02*
X983Y449D01*
X0Y448D02*
X7Y448D01*
X976Y448D02*
X983Y448D01*
X0Y447D02*
X7Y447D01*
X976Y447D02*
X983Y447D01*
X0Y446D02*
X7Y446D01*
X976Y446D02*
X983Y446D01*
X0Y445D02*
X7Y445D01*
X976Y445D02*
X983Y445D01*
X0Y444D02*
X7Y444D01*
X976Y444D02*
X983Y444D01*
X0Y443D02*
X7Y443D01*
X976Y443D02*
X983Y443D01*
X0Y442D02*
X7Y442D01*
X976Y442D02*
X983Y442D01*
X0Y441D02*
X7Y441D01*
X976Y441D02*
X983Y441D01*
X0Y440D02*
X7Y440D01*
X976Y440D02*
X983Y440D01*
X0Y439D02*
X7Y439D01*
X976Y439D02*
X983Y439D01*
X0Y438D02*
X7Y438D01*
X976Y438D02*
X983Y438D01*
X0Y437D02*
X7Y437D01*
X976Y437D02*
X983Y437D01*
X0Y436D02*
X7Y436D01*
X976Y436D02*
X983Y436D01*
X0Y435D02*
X7Y435D01*
X976Y435D02*
X983Y435D01*
X0Y434D02*
X7Y434D01*
X976Y434D02*
X983Y434D01*
X0Y433D02*
X7Y433D01*
X976Y433D02*
X983Y433D01*
X0Y432D02*
X7Y432D01*
X976Y432D02*
X983Y432D01*
X0Y431D02*
X7Y431D01*
X976Y431D02*
X983Y431D01*
X0Y430D02*
X7Y430D01*
X976Y430D02*
X983Y430D01*
X0Y429D02*
X7Y429D01*
X976Y429D02*
X983Y429D01*
X0Y428D02*
X7Y428D01*
X976Y428D02*
X983Y428D01*
X0Y427D02*
X7Y427D01*
X976Y427D02*
X983Y427D01*
X0Y426D02*
X7Y426D01*
X976Y426D02*
X983Y426D01*
X0Y425D02*
X7Y425D01*
X976Y425D02*
X983Y425D01*
X0Y424D02*
X7Y424D01*
X976Y424D02*
X983Y424D01*
X0Y423D02*
X7Y423D01*
X976Y423D02*
X983Y423D01*
X0Y422D02*
X7Y422D01*
X976Y422D02*
X983Y422D01*
X0Y421D02*
X7Y421D01*
X976Y421D02*
X983Y421D01*
X0Y420D02*
X7Y420D01*
X976Y420D02*
X983Y420D01*
X0Y419D02*
X7Y419D01*
X976Y419D02*
X983Y419D01*
X0Y418D02*
X7Y418D01*
X976Y418D02*
X983Y418D01*
X0Y417D02*
X7Y417D01*
X976Y417D02*
X983Y417D01*
X0Y416D02*
X7Y416D01*
X976Y416D02*
X983Y416D01*
X0Y415D02*
X7Y415D01*
X976Y415D02*
X983Y415D01*
X0Y414D02*
X7Y414D01*
X976Y414D02*
X983Y414D01*
X0Y413D02*
X7Y413D01*
X976Y413D02*
X983Y413D01*
X0Y412D02*
X7Y412D01*
X976Y412D02*
X983Y412D01*
X0Y411D02*
X7Y411D01*
X976Y411D02*
X983Y411D01*
X0Y410D02*
X7Y410D01*
X976Y410D02*
X983Y410D01*
X0Y409D02*
X7Y409D01*
X976Y409D02*
X983Y409D01*
X0Y408D02*
X7Y408D01*
X976Y408D02*
X983Y408D01*
X0Y407D02*
X7Y407D01*
X976Y407D02*
X983Y407D01*
X0Y406D02*
X7Y406D01*
X976Y406D02*
X983Y406D01*
X0Y405D02*
X7Y405D01*
X976Y405D02*
X983Y405D01*
X0Y404D02*
X7Y404D01*
X976Y404D02*
X983Y404D01*
X0Y403D02*
X7Y403D01*
X976Y403D02*
X983Y403D01*
X0Y402D02*
X7Y402D01*
X976Y402D02*
X983Y402D01*
X0Y401D02*
X7Y401D01*
X976Y401D02*
X983Y401D01*
X0Y400D02*
X7Y400D01*
X976Y400D02*
X983Y400D01*
X0Y399D02*
X7Y399D01*
X976Y399D02*
X983Y399D01*
X0Y398D02*
X7Y398D01*
X976Y398D02*
X983Y398D01*
X0Y397D02*
X7Y397D01*
X976Y397D02*
X983Y397D01*
X0Y396D02*
X7Y396D01*
X976Y396D02*
X983Y396D01*
X0Y395D02*
X7Y395D01*
X976Y395D02*
X983Y395D01*
X0Y394D02*
X7Y394D01*
X976Y394D02*
X983Y394D01*
X0Y393D02*
X7Y393D01*
X976Y393D02*
X983Y393D01*
X0Y392D02*
X7Y392D01*
X976Y392D02*
X983Y392D01*
X0Y391D02*
X7Y391D01*
X976Y391D02*
X983Y391D01*
X0Y390D02*
X7Y390D01*
X976Y390D02*
X983Y390D01*
X0Y389D02*
X7Y389D01*
X976Y389D02*
X983Y389D01*
X0Y388D02*
X7Y388D01*
X976Y388D02*
X983Y388D01*
X0Y387D02*
X7Y387D01*
X976Y387D02*
X983Y387D01*
X0Y386D02*
X7Y386D01*
X976Y386D02*
X983Y386D01*
X0Y385D02*
X7Y385D01*
X976Y385D02*
X983Y385D01*
X0Y384D02*
X7Y384D01*
X976Y384D02*
X983Y384D01*
X0Y383D02*
X7Y383D01*
X976Y383D02*
X983Y383D01*
X0Y382D02*
X7Y382D01*
X976Y382D02*
X983Y382D01*
X0Y381D02*
X7Y381D01*
X976Y381D02*
X983Y381D01*
X0Y380D02*
X7Y380D01*
X976Y380D02*
X983Y380D01*
X0Y379D02*
X7Y379D01*
X976Y379D02*
X983Y379D01*
X0Y378D02*
X7Y378D01*
X976Y378D02*
X983Y378D01*
X0Y377D02*
X7Y377D01*
X976Y377D02*
X983Y377D01*
X0Y376D02*
X7Y376D01*
X976Y376D02*
X983Y376D01*
X0Y375D02*
X7Y375D01*
X976Y375D02*
X983Y375D01*
X0Y374D02*
X7Y374D01*
X976Y374D02*
X983Y374D01*
X0Y373D02*
X7Y373D01*
X976Y373D02*
X983Y373D01*
X0Y372D02*
X7Y372D01*
X976Y372D02*
X983Y372D01*
X0Y371D02*
X7Y371D01*
X976Y371D02*
X983Y371D01*
X0Y370D02*
X7Y370D01*
X976Y370D02*
X983Y370D01*
X0Y369D02*
X7Y369D01*
X976Y369D02*
X983Y369D01*
X0Y368D02*
X7Y368D01*
X976Y368D02*
X983Y368D01*
X0Y367D02*
X7Y367D01*
X976Y367D02*
X983Y367D01*
X0Y366D02*
X7Y366D01*
X976Y366D02*
X983Y366D01*
X0Y365D02*
X7Y365D01*
X976Y365D02*
X983Y365D01*
X0Y364D02*
X7Y364D01*
X976Y364D02*
X983Y364D01*
X0Y363D02*
X7Y363D01*
X976Y363D02*
X983Y363D01*
X0Y362D02*
X7Y362D01*
X976Y362D02*
X983Y362D01*
X0Y361D02*
X7Y361D01*
X976Y361D02*
X983Y361D01*
X0Y360D02*
X7Y360D01*
X976Y360D02*
X983Y360D01*
X0Y359D02*
X7Y359D01*
X976Y359D02*
X983Y359D01*
X0Y358D02*
X7Y358D01*
X976Y358D02*
X983Y358D01*
X0Y357D02*
X7Y357D01*
X976Y357D02*
X983Y357D01*
X0Y356D02*
X7Y356D01*
X976Y356D02*
X983Y356D01*
X0Y355D02*
X7Y355D01*
X976Y355D02*
X983Y355D01*
X0Y354D02*
X7Y354D01*
X976Y354D02*
X983Y354D01*
X0Y353D02*
X7Y353D01*
X976Y353D02*
X983Y353D01*
X0Y352D02*
X7Y352D01*
X976Y352D02*
X983Y352D01*
X0Y351D02*
X7Y351D01*
X976Y351D02*
X983Y351D01*
X0Y350D02*
X7Y350D01*
X976Y350D02*
X983Y350D01*
X0Y349D02*
X7Y349D01*
X976Y349D02*
X983Y349D01*
X0Y348D02*
X7Y348D01*
X976Y348D02*
X983Y348D01*
X0Y347D02*
X7Y347D01*
X976Y347D02*
X983Y347D01*
X0Y346D02*
X7Y346D01*
X976Y346D02*
X983Y346D01*
X0Y345D02*
X7Y345D01*
X976Y345D02*
X983Y345D01*
X0Y344D02*
X7Y344D01*
X976Y344D02*
X983Y344D01*
X0Y343D02*
X7Y343D01*
X976Y343D02*
X983Y343D01*
X0Y342D02*
X7Y342D01*
X976Y342D02*
X983Y342D01*
X0Y341D02*
X7Y341D01*
X976Y341D02*
X983Y341D01*
X0Y340D02*
X7Y340D01*
X976Y340D02*
X983Y340D01*
X0Y339D02*
X7Y339D01*
X976Y339D02*
X983Y339D01*
X0Y338D02*
X7Y338D01*
X976Y338D02*
X983Y338D01*
X0Y337D02*
X7Y337D01*
X976Y337D02*
X983Y337D01*
X0Y336D02*
X7Y336D01*
X976Y336D02*
X983Y336D01*
X0Y335D02*
X7Y335D01*
X976Y335D02*
X983Y335D01*
X0Y334D02*
X7Y334D01*
X976Y334D02*
X983Y334D01*
X0Y333D02*
X7Y333D01*
X976Y333D02*
X983Y333D01*
X0Y332D02*
X7Y332D01*
X976Y332D02*
X983Y332D01*
X0Y331D02*
X7Y331D01*
X976Y331D02*
X983Y331D01*
X0Y330D02*
X7Y330D01*
X976Y330D02*
X983Y330D01*
X0Y329D02*
X7Y329D01*
X976Y329D02*
X983Y329D01*
X0Y328D02*
X7Y328D01*
X976Y328D02*
X983Y328D01*
X0Y327D02*
X7Y327D01*
X976Y327D02*
X983Y327D01*
X0Y326D02*
X7Y326D01*
X976Y326D02*
X983Y326D01*
X0Y325D02*
X7Y325D01*
X976Y325D02*
X983Y325D01*
X0Y324D02*
X7Y324D01*
X976Y324D02*
X983Y324D01*
X0Y323D02*
X7Y323D01*
X976Y323D02*
X983Y323D01*
X0Y322D02*
X7Y322D01*
X976Y322D02*
X983Y322D01*
X0Y321D02*
X7Y321D01*
X976Y321D02*
X983Y321D01*
X0Y320D02*
X7Y320D01*
X976Y320D02*
X983Y320D01*
X0Y319D02*
X7Y319D01*
X976Y319D02*
X983Y319D01*
X0Y318D02*
X7Y318D01*
X976Y318D02*
X983Y318D01*
X0Y317D02*
X7Y317D01*
X976Y317D02*
X983Y317D01*
X0Y316D02*
X7Y316D01*
X976Y316D02*
X983Y316D01*
X0Y315D02*
X7Y315D01*
X976Y315D02*
X983Y315D01*
X0Y314D02*
X7Y314D01*
X976Y314D02*
X983Y314D01*
X0Y313D02*
X7Y313D01*
X976Y313D02*
X983Y313D01*
X0Y312D02*
X7Y312D01*
X976Y312D02*
X983Y312D01*
X0Y311D02*
X7Y311D01*
X976Y311D02*
X983Y311D01*
X0Y310D02*
X7Y310D01*
X976Y310D02*
X983Y310D01*
X0Y309D02*
X7Y309D01*
X976Y309D02*
X983Y309D01*
X0Y308D02*
X7Y308D01*
X976Y308D02*
X983Y308D01*
X0Y307D02*
X7Y307D01*
X976Y307D02*
X983Y307D01*
X0Y306D02*
X7Y306D01*
X976Y306D02*
X983Y306D01*
X0Y305D02*
X7Y305D01*
X976Y305D02*
X983Y305D01*
X0Y304D02*
X7Y304D01*
X976Y304D02*
X983Y304D01*
X0Y303D02*
X7Y303D01*
X976Y303D02*
X983Y303D01*
X0Y302D02*
X7Y302D01*
X976Y302D02*
X983Y302D01*
X0Y301D02*
X7Y301D01*
X976Y301D02*
X983Y301D01*
X0Y300D02*
X7Y300D01*
X976Y300D02*
X983Y300D01*
X0Y299D02*
X7Y299D01*
X976Y299D02*
X983Y299D01*
X0Y298D02*
X7Y298D01*
X976Y298D02*
X983Y298D01*
X0Y297D02*
X7Y297D01*
X976Y297D02*
X983Y297D01*
X0Y296D02*
X7Y296D01*
X976Y296D02*
X983Y296D01*
X0Y295D02*
X7Y295D01*
X976Y295D02*
X983Y295D01*
X0Y294D02*
X7Y294D01*
X976Y294D02*
X983Y294D01*
X0Y293D02*
X7Y293D01*
X976Y293D02*
X983Y293D01*
X0Y292D02*
X7Y292D01*
X976Y292D02*
X983Y292D01*
X0Y291D02*
X7Y291D01*
X976Y291D02*
X983Y291D01*
X0Y290D02*
X7Y290D01*
X976Y290D02*
X983Y290D01*
X0Y289D02*
X7Y289D01*
X976Y289D02*
X983Y289D01*
X0Y288D02*
X7Y288D01*
X976Y288D02*
X983Y288D01*
X0Y287D02*
X7Y287D01*
X976Y287D02*
X983Y287D01*
X0Y286D02*
X7Y286D01*
X976Y286D02*
X983Y286D01*
X0Y285D02*
X7Y285D01*
X976Y285D02*
X983Y285D01*
X0Y284D02*
X7Y284D01*
X976Y284D02*
X983Y284D01*
X0Y283D02*
X7Y283D01*
X976Y283D02*
X983Y283D01*
X0Y282D02*
X7Y282D01*
X976Y282D02*
X983Y282D01*
X0Y281D02*
X7Y281D01*
X976Y281D02*
X983Y281D01*
X0Y280D02*
X7Y280D01*
X976Y280D02*
X983Y280D01*
X0Y279D02*
X7Y279D01*
X976Y279D02*
X983Y279D01*
X0Y278D02*
X7Y278D01*
X976Y278D02*
X983Y278D01*
X0Y277D02*
X7Y277D01*
X976Y277D02*
X983Y277D01*
X0Y276D02*
X7Y276D01*
X976Y276D02*
X983Y276D01*
X0Y275D02*
X7Y275D01*
X976Y275D02*
X983Y275D01*
X0Y274D02*
X7Y274D01*
X976Y274D02*
X983Y274D01*
X0Y273D02*
X7Y273D01*
X976Y273D02*
X983Y273D01*
X0Y272D02*
X7Y272D01*
X976Y272D02*
X983Y272D01*
X0Y271D02*
X7Y271D01*
X976Y271D02*
X983Y271D01*
X0Y270D02*
X7Y270D01*
X976Y270D02*
X983Y270D01*
X0Y269D02*
X7Y269D01*
X976Y269D02*
X983Y269D01*
X0Y268D02*
X7Y268D01*
X976Y268D02*
X983Y268D01*
X0Y267D02*
X7Y267D01*
X976Y267D02*
X983Y267D01*
X0Y266D02*
X7Y266D01*
X976Y266D02*
X983Y266D01*
X0Y265D02*
X7Y265D01*
X976Y265D02*
X983Y265D01*
X0Y264D02*
X7Y264D01*
X976Y264D02*
X983Y264D01*
X0Y263D02*
X7Y263D01*
X976Y263D02*
X983Y263D01*
X0Y262D02*
X7Y262D01*
X976Y262D02*
X983Y262D01*
X0Y261D02*
X7Y261D01*
X976Y261D02*
X983Y261D01*
X0Y260D02*
X7Y260D01*
X976Y260D02*
X983Y260D01*
X0Y259D02*
X7Y259D01*
X976Y259D02*
X983Y259D01*
X0Y258D02*
X7Y258D01*
X976Y258D02*
X983Y258D01*
X0Y257D02*
X7Y257D01*
X976Y257D02*
X983Y257D01*
X0Y256D02*
X7Y256D01*
X976Y256D02*
X983Y256D01*
X0Y255D02*
X7Y255D01*
X976Y255D02*
X983Y255D01*
X0Y254D02*
X7Y254D01*
X976Y254D02*
X983Y254D01*
X0Y253D02*
X7Y253D01*
X976Y253D02*
X983Y253D01*
X0Y252D02*
X7Y252D01*
X976Y252D02*
X983Y252D01*
X0Y251D02*
X7Y251D01*
X976Y251D02*
X983Y251D01*
X0Y250D02*
X7Y250D01*
X976Y250D02*
X983Y250D01*
X0Y249D02*
X7Y249D01*
X976Y249D02*
X983Y249D01*
X0Y248D02*
X7Y248D01*
X976Y248D02*
X983Y248D01*
X0Y247D02*
X7Y247D01*
X976Y247D02*
X983Y247D01*
X0Y246D02*
X7Y246D01*
X976Y246D02*
X983Y246D01*
X0Y245D02*
X7Y245D01*
X976Y245D02*
X983Y245D01*
X0Y244D02*
X7Y244D01*
X976Y244D02*
X983Y244D01*
X0Y243D02*
X7Y243D01*
X976Y243D02*
X983Y243D01*
X0Y242D02*
X7Y242D01*
X976Y242D02*
X983Y242D01*
X0Y241D02*
X7Y241D01*
X976Y241D02*
X983Y241D01*
X0Y240D02*
X7Y240D01*
X976Y240D02*
X983Y240D01*
X0Y239D02*
X7Y239D01*
X976Y239D02*
X983Y239D01*
X0Y238D02*
X7Y238D01*
X976Y238D02*
X983Y238D01*
X0Y237D02*
X7Y237D01*
X976Y237D02*
X983Y237D01*
X0Y236D02*
X7Y236D01*
X976Y236D02*
X983Y236D01*
X0Y235D02*
X7Y235D01*
X976Y235D02*
X983Y235D01*
X0Y234D02*
X7Y234D01*
X976Y234D02*
X983Y234D01*
X0Y233D02*
X7Y233D01*
X976Y233D02*
X983Y233D01*
X0Y232D02*
X7Y232D01*
X976Y232D02*
X983Y232D01*
X0Y231D02*
X7Y231D01*
X976Y231D02*
X983Y231D01*
X0Y230D02*
X7Y230D01*
X976Y230D02*
X983Y230D01*
X0Y229D02*
X7Y229D01*
X976Y229D02*
X983Y229D01*
X0Y228D02*
X7Y228D01*
X976Y228D02*
X983Y228D01*
X0Y227D02*
X7Y227D01*
X976Y227D02*
X983Y227D01*
X0Y226D02*
X7Y226D01*
X976Y226D02*
X983Y226D01*
X0Y225D02*
X7Y225D01*
X976Y225D02*
X983Y225D01*
X0Y224D02*
X7Y224D01*
X976Y224D02*
X983Y224D01*
X0Y223D02*
X7Y223D01*
X976Y223D02*
X983Y223D01*
X0Y222D02*
X7Y222D01*
X976Y222D02*
X983Y222D01*
X0Y221D02*
X7Y221D01*
X976Y221D02*
X983Y221D01*
X0Y220D02*
X7Y220D01*
X976Y220D02*
X983Y220D01*
X0Y219D02*
X7Y219D01*
X976Y219D02*
X983Y219D01*
X0Y218D02*
X7Y218D01*
X976Y218D02*
X983Y218D01*
X0Y217D02*
X7Y217D01*
X976Y217D02*
X983Y217D01*
X0Y216D02*
X7Y216D01*
X976Y216D02*
X983Y216D01*
X0Y215D02*
X7Y215D01*
X976Y215D02*
X983Y215D01*
X0Y214D02*
X7Y214D01*
X976Y214D02*
X983Y214D01*
X0Y213D02*
X7Y213D01*
X976Y213D02*
X983Y213D01*
X0Y212D02*
X7Y212D01*
X976Y212D02*
X983Y212D01*
X0Y211D02*
X7Y211D01*
X976Y211D02*
X983Y211D01*
X0Y210D02*
X7Y210D01*
X976Y210D02*
X983Y210D01*
X0Y209D02*
X7Y209D01*
X976Y209D02*
X983Y209D01*
X0Y208D02*
X7Y208D01*
X976Y208D02*
X983Y208D01*
X0Y207D02*
X7Y207D01*
X976Y207D02*
X983Y207D01*
X0Y206D02*
X7Y206D01*
X976Y206D02*
X983Y206D01*
X0Y205D02*
X7Y205D01*
X976Y205D02*
X983Y205D01*
X0Y204D02*
X7Y204D01*
X976Y204D02*
X983Y204D01*
X0Y203D02*
X7Y203D01*
X976Y203D02*
X983Y203D01*
X0Y202D02*
X7Y202D01*
X976Y202D02*
X983Y202D01*
X0Y201D02*
X7Y201D01*
X976Y201D02*
X983Y201D01*
X0Y200D02*
X7Y200D01*
X976Y200D02*
X983Y200D01*
X0Y199D02*
X7Y199D01*
X976Y199D02*
X983Y199D01*
X0Y198D02*
X7Y198D01*
X976Y198D02*
X983Y198D01*
X0Y197D02*
X7Y197D01*
X976Y197D02*
X983Y197D01*
X0Y196D02*
X7Y196D01*
X976Y196D02*
X983Y196D01*
X0Y195D02*
X7Y195D01*
X976Y195D02*
X983Y195D01*
X0Y194D02*
X7Y194D01*
X976Y194D02*
X983Y194D01*
X0Y193D02*
X7Y193D01*
X976Y193D02*
X983Y193D01*
X0Y192D02*
X7Y192D01*
X976Y192D02*
X983Y192D01*
X0Y191D02*
X7Y191D01*
X976Y191D02*
X983Y191D01*
X0Y190D02*
X7Y190D01*
X976Y190D02*
X983Y190D01*
X0Y189D02*
X7Y189D01*
X976Y189D02*
X983Y189D01*
X0Y188D02*
X7Y188D01*
X976Y188D02*
X983Y188D01*
X0Y187D02*
X7Y187D01*
X976Y187D02*
X983Y187D01*
X0Y186D02*
X7Y186D01*
X976Y186D02*
X983Y186D01*
X0Y185D02*
X7Y185D01*
X976Y185D02*
X983Y185D01*
X0Y184D02*
X7Y184D01*
X976Y184D02*
X983Y184D01*
X0Y183D02*
X7Y183D01*
X976Y183D02*
X983Y183D01*
X0Y182D02*
X7Y182D01*
X976Y182D02*
X983Y182D01*
X0Y181D02*
X7Y181D01*
X976Y181D02*
X983Y181D01*
X0Y180D02*
X7Y180D01*
X976Y180D02*
X983Y180D01*
X0Y179D02*
X7Y179D01*
X976Y179D02*
X983Y179D01*
X0Y178D02*
X7Y178D01*
X976Y178D02*
X983Y178D01*
X0Y177D02*
X7Y177D01*
X976Y177D02*
X983Y177D01*
X0Y176D02*
X7Y176D01*
X976Y176D02*
X983Y176D01*
X0Y175D02*
X7Y175D01*
X976Y175D02*
X983Y175D01*
X0Y174D02*
X7Y174D01*
X976Y174D02*
X983Y174D01*
X0Y173D02*
X7Y173D01*
X976Y173D02*
X983Y173D01*
X0Y172D02*
X7Y172D01*
X976Y172D02*
X983Y172D01*
X0Y171D02*
X7Y171D01*
X976Y171D02*
X983Y171D01*
X0Y170D02*
X7Y170D01*
X976Y170D02*
X983Y170D01*
X0Y169D02*
X7Y169D01*
X976Y169D02*
X983Y169D01*
X0Y168D02*
X7Y168D01*
X976Y168D02*
X983Y168D01*
X0Y167D02*
X7Y167D01*
X976Y167D02*
X983Y167D01*
X0Y166D02*
X7Y166D01*
X976Y166D02*
X983Y166D01*
X0Y165D02*
X7Y165D01*
X976Y165D02*
X983Y165D01*
X0Y164D02*
X7Y164D01*
X976Y164D02*
X983Y164D01*
X0Y163D02*
X7Y163D01*
X976Y163D02*
X983Y163D01*
X0Y162D02*
X7Y162D01*
X976Y162D02*
X983Y162D01*
X0Y161D02*
X7Y161D01*
X976Y161D02*
X983Y161D01*
X0Y160D02*
X7Y160D01*
X976Y160D02*
X983Y160D01*
X0Y159D02*
X7Y159D01*
X976Y159D02*
X983Y159D01*
X0Y158D02*
X7Y158D01*
X976Y158D02*
X983Y158D01*
X0Y157D02*
X7Y157D01*
X976Y157D02*
X983Y157D01*
X0Y156D02*
X7Y156D01*
X976Y156D02*
X983Y156D01*
X0Y155D02*
X7Y155D01*
X976Y155D02*
X983Y155D01*
X0Y154D02*
X7Y154D01*
X976Y154D02*
X983Y154D01*
X0Y153D02*
X7Y153D01*
X976Y153D02*
X983Y153D01*
X0Y152D02*
X7Y152D01*
X976Y152D02*
X983Y152D01*
X0Y151D02*
X7Y151D01*
X976Y151D02*
X983Y151D01*
X0Y150D02*
X7Y150D01*
X976Y150D02*
X983Y150D01*
X0Y149D02*
X7Y149D01*
X976Y149D02*
X983Y149D01*
X0Y148D02*
X7Y148D01*
X976Y148D02*
X983Y148D01*
X0Y147D02*
X7Y147D01*
X976Y147D02*
X983Y147D01*
X0Y146D02*
X7Y146D01*
X976Y146D02*
X983Y146D01*
X0Y145D02*
X7Y145D01*
X976Y145D02*
X983Y145D01*
X0Y144D02*
X7Y144D01*
X976Y144D02*
X983Y144D01*
X0Y143D02*
X7Y143D01*
X976Y143D02*
X983Y143D01*
X0Y142D02*
X7Y142D01*
X976Y142D02*
X983Y142D01*
X0Y141D02*
X7Y141D01*
X976Y141D02*
X983Y141D01*
X0Y140D02*
X7Y140D01*
X976Y140D02*
X983Y140D01*
X0Y139D02*
X7Y139D01*
X976Y139D02*
X983Y139D01*
X0Y138D02*
X7Y138D01*
X976Y138D02*
X983Y138D01*
X0Y137D02*
X7Y137D01*
X976Y137D02*
X983Y137D01*
X0Y136D02*
X7Y136D01*
X976Y136D02*
X983Y136D01*
X0Y135D02*
X7Y135D01*
X976Y135D02*
X983Y135D01*
X0Y134D02*
X7Y134D01*
X976Y134D02*
X983Y134D01*
X0Y133D02*
X7Y133D01*
X976Y133D02*
X983Y133D01*
X0Y132D02*
X7Y132D01*
X976Y132D02*
X983Y132D01*
X0Y131D02*
X7Y131D01*
X976Y131D02*
X983Y131D01*
X0Y130D02*
X7Y130D01*
X976Y130D02*
X983Y130D01*
X0Y129D02*
X7Y129D01*
X976Y129D02*
X983Y129D01*
X0Y128D02*
X7Y128D01*
X976Y128D02*
X983Y128D01*
X0Y127D02*
X7Y127D01*
X976Y127D02*
X983Y127D01*
X0Y126D02*
X7Y126D01*
X976Y126D02*
X983Y126D01*
X0Y125D02*
X7Y125D01*
X976Y125D02*
X983Y125D01*
X0Y124D02*
X7Y124D01*
X976Y124D02*
X983Y124D01*
X0Y123D02*
X7Y123D01*
X976Y123D02*
X983Y123D01*
X0Y122D02*
X7Y122D01*
X976Y122D02*
X983Y122D01*
X0Y121D02*
X7Y121D01*
X976Y121D02*
X983Y121D01*
X0Y120D02*
X7Y120D01*
X976Y120D02*
X983Y120D01*
X0Y119D02*
X7Y119D01*
X976Y119D02*
X983Y119D01*
X0Y118D02*
X7Y118D01*
X976Y118D02*
X983Y118D01*
X0Y117D02*
X7Y117D01*
X976Y117D02*
X983Y117D01*
X0Y116D02*
X7Y116D01*
X976Y116D02*
X983Y116D01*
X0Y115D02*
X7Y115D01*
X976Y115D02*
X983Y115D01*
X0Y114D02*
X7Y114D01*
X976Y114D02*
X983Y114D01*
X0Y113D02*
X7Y113D01*
X976Y113D02*
X983Y113D01*
X0Y112D02*
X7Y112D01*
X976Y112D02*
X983Y112D01*
X0Y111D02*
X7Y111D01*
X976Y111D02*
X983Y111D01*
X0Y110D02*
X7Y110D01*
X976Y110D02*
X983Y110D01*
X0Y109D02*
X7Y109D01*
X976Y109D02*
X983Y109D01*
X0Y108D02*
X7Y108D01*
X976Y108D02*
X983Y108D01*
X0Y107D02*
X7Y107D01*
X976Y107D02*
X983Y107D01*
X0Y106D02*
X7Y106D01*
X976Y106D02*
X983Y106D01*
X0Y105D02*
X7Y105D01*
X976Y105D02*
X983Y105D01*
X0Y104D02*
X7Y104D01*
X976Y104D02*
X983Y104D01*
X0Y103D02*
X7Y103D01*
X976Y103D02*
X983Y103D01*
X0Y102D02*
X7Y102D01*
X976Y102D02*
X983Y102D01*
X0Y101D02*
X7Y101D01*
X976Y101D02*
X983Y101D01*
X0Y100D02*
X7Y100D01*
X976Y100D02*
X983Y100D01*
X0Y99D02*
X7Y99D01*
X976Y99D02*
X983Y99D01*
X0Y98D02*
X7Y98D01*
X976Y98D02*
X983Y98D01*
X0Y97D02*
X7Y97D01*
X976Y97D02*
X983Y97D01*
X0Y96D02*
X7Y96D01*
X976Y96D02*
X983Y96D01*
X0Y95D02*
X7Y95D01*
X976Y95D02*
X983Y95D01*
X0Y94D02*
X7Y94D01*
X976Y94D02*
X983Y94D01*
X0Y93D02*
X7Y93D01*
X976Y93D02*
X983Y93D01*
X0Y92D02*
X7Y92D01*
X976Y92D02*
X983Y92D01*
X0Y91D02*
X7Y91D01*
X976Y91D02*
X983Y91D01*
X0Y90D02*
X7Y90D01*
X976Y90D02*
X983Y90D01*
X0Y89D02*
X7Y89D01*
X976Y89D02*
X983Y89D01*
X0Y88D02*
X7Y88D01*
X976Y88D02*
X983Y88D01*
X0Y87D02*
X7Y87D01*
X976Y87D02*
X983Y87D01*
X0Y86D02*
X7Y86D01*
X976Y86D02*
X983Y86D01*
X0Y85D02*
X7Y85D01*
X976Y85D02*
X983Y85D01*
X0Y84D02*
X7Y84D01*
X976Y84D02*
X983Y84D01*
X0Y83D02*
X7Y83D01*
X976Y83D02*
X983Y83D01*
X0Y82D02*
X7Y82D01*
X976Y82D02*
X983Y82D01*
X0Y81D02*
X7Y81D01*
X976Y81D02*
X983Y81D01*
X0Y80D02*
X7Y80D01*
X976Y80D02*
X983Y80D01*
X0Y79D02*
X7Y79D01*
X976Y79D02*
X983Y79D01*
X0Y78D02*
X7Y78D01*
X976Y78D02*
X983Y78D01*
X0Y77D02*
X7Y77D01*
X976Y77D02*
X983Y77D01*
X0Y76D02*
X7Y76D01*
X976Y76D02*
X983Y76D01*
X0Y75D02*
X7Y75D01*
X976Y75D02*
X983Y75D01*
X0Y74D02*
X7Y74D01*
X976Y74D02*
X983Y74D01*
X0Y73D02*
X7Y73D01*
X976Y73D02*
X983Y73D01*
X0Y72D02*
X7Y72D01*
X976Y72D02*
X983Y72D01*
X0Y71D02*
X7Y71D01*
X976Y71D02*
X983Y71D01*
X0Y70D02*
X7Y70D01*
X976Y70D02*
X983Y70D01*
X0Y69D02*
X7Y69D01*
X976Y69D02*
X983Y69D01*
X0Y68D02*
X7Y68D01*
X976Y68D02*
X983Y68D01*
X0Y67D02*
X7Y67D01*
X976Y67D02*
X983Y67D01*
X0Y66D02*
X7Y66D01*
X976Y66D02*
X983Y66D01*
X0Y65D02*
X7Y65D01*
X976Y65D02*
X983Y65D01*
X0Y64D02*
X7Y64D01*
X976Y64D02*
X983Y64D01*
X0Y63D02*
X7Y63D01*
X976Y63D02*
X983Y63D01*
X0Y62D02*
X7Y62D01*
X976Y62D02*
X983Y62D01*
X0Y61D02*
X7Y61D01*
X976Y61D02*
X983Y61D01*
X0Y60D02*
X7Y60D01*
X976Y60D02*
X983Y60D01*
X0Y59D02*
X7Y59D01*
X976Y59D02*
X983Y59D01*
X0Y58D02*
X7Y58D01*
X976Y58D02*
X983Y58D01*
X0Y57D02*
X7Y57D01*
X976Y57D02*
X983Y57D01*
X0Y56D02*
X7Y56D01*
X976Y56D02*
X983Y56D01*
X0Y55D02*
X7Y55D01*
X976Y55D02*
X983Y55D01*
X0Y54D02*
X7Y54D01*
X976Y54D02*
X983Y54D01*
X0Y53D02*
X7Y53D01*
X976Y53D02*
X983Y53D01*
X0Y52D02*
X7Y52D01*
X976Y52D02*
X983Y52D01*
X0Y51D02*
X7Y51D01*
X976Y51D02*
X983Y51D01*
X0Y50D02*
X7Y50D01*
X976Y50D02*
X983Y50D01*
X0Y49D02*
X7Y49D01*
X976Y49D02*
X983Y49D01*
X0Y48D02*
X7Y48D01*
X976Y48D02*
X983Y48D01*
X0Y47D02*
X7Y47D01*
X976Y47D02*
X983Y47D01*
X0Y46D02*
X7Y46D01*
X976Y46D02*
X983Y46D01*
X0Y45D02*
X7Y45D01*
X976Y45D02*
X983Y45D01*
X0Y44D02*
X7Y44D01*
X976Y44D02*
X983Y44D01*
X0Y43D02*
X7Y43D01*
X976Y43D02*
X983Y43D01*
X0Y42D02*
X7Y42D01*
X976Y42D02*
X983Y42D01*
X0Y41D02*
X7Y41D01*
X976Y41D02*
X983Y41D01*
X0Y40D02*
X7Y40D01*
X976Y40D02*
X983Y40D01*
X0Y39D02*
X7Y39D01*
X976Y39D02*
X983Y39D01*
X0Y38D02*
X7Y38D01*
X976Y38D02*
X983Y38D01*
X0Y37D02*
X7Y37D01*
X976Y37D02*
X983Y37D01*
X0Y36D02*
X7Y36D01*
X976Y36D02*
X983Y36D01*
X0Y35D02*
X7Y35D01*
X976Y35D02*
X983Y35D01*
X0Y34D02*
X7Y34D01*
X976Y34D02*
X983Y34D01*
X0Y33D02*
X7Y33D01*
X976Y33D02*
X983Y33D01*
X0Y32D02*
X7Y32D01*
X976Y32D02*
X983Y32D01*
X0Y31D02*
X7Y31D01*
X976Y31D02*
X983Y31D01*
X0Y30D02*
X7Y30D01*
X976Y30D02*
X983Y30D01*
X0Y29D02*
X7Y29D01*
X976Y29D02*
X983Y29D01*
X0Y28D02*
X7Y28D01*
X976Y28D02*
X983Y28D01*
X0Y27D02*
X7Y27D01*
X976Y27D02*
X983Y27D01*
X0Y26D02*
X7Y26D01*
X976Y26D02*
X983Y26D01*
X0Y25D02*
X7Y25D01*
X976Y25D02*
X983Y25D01*
X0Y24D02*
X7Y24D01*
X976Y24D02*
X983Y24D01*
X0Y23D02*
X7Y23D01*
X976Y23D02*
X983Y23D01*
X0Y22D02*
X7Y22D01*
X976Y22D02*
X983Y22D01*
X0Y21D02*
X7Y21D01*
X976Y21D02*
X983Y21D01*
X0Y20D02*
X7Y20D01*
X976Y20D02*
X983Y20D01*
X0Y19D02*
X7Y19D01*
X976Y19D02*
X983Y19D01*
X0Y18D02*
X7Y18D01*
X976Y18D02*
X983Y18D01*
X0Y17D02*
X7Y17D01*
X976Y17D02*
X983Y17D01*
X0Y16D02*
X7Y16D01*
X976Y16D02*
X983Y16D01*
X0Y15D02*
X7Y15D01*
X976Y15D02*
X983Y15D01*
X0Y14D02*
X7Y14D01*
X976Y14D02*
X983Y14D01*
X0Y13D02*
X7Y13D01*
X976Y13D02*
X983Y13D01*
X0Y12D02*
X7Y12D01*
X976Y12D02*
X983Y12D01*
X0Y11D02*
X7Y11D01*
X976Y11D02*
X983Y11D01*
X0Y10D02*
X7Y10D01*
X976Y10D02*
X983Y10D01*
X0Y9D02*
X983Y9D01*
X0Y8D02*
X983Y8D01*
X0Y7D02*
X983Y7D01*
X0Y6D02*
X983Y6D01*
X0Y5D02*
X983Y5D01*
X0Y4D02*
X983Y4D01*
X0Y3D02*
X983Y3D01*
X0Y2D02*
X983Y2D01*
D02*
G04 End of Silk0*
M02*