G04 MADE WITH FRITZING*
G04 WWW.FRITZING.ORG*
G04 DOUBLE SIDED*
G04 HOLES PLATED*
G04 CONTOUR ON CENTER OF CONTOUR VECTOR*
%ASAXBY*%
%FSLAX23Y23*%
%MOIN*%
%OFA0B0*%
%SFA1.0B1.0*%
%ADD10C,0.078000*%
%ADD11C,0.074000*%
%ADD12R,0.078000X0.078000*%
%ADD13C,0.024000*%
%ADD14R,0.001000X0.001000*%
%LNCOPPER0*%
G90*
G70*
G54D10*
X615Y907D03*
X515Y907D03*
X415Y907D03*
X315Y907D03*
X615Y907D03*
X515Y907D03*
X415Y907D03*
X315Y907D03*
G54D11*
X309Y478D03*
X359Y378D03*
X409Y478D03*
X509Y478D03*
X609Y478D03*
X459Y378D03*
X559Y378D03*
X659Y378D03*
X309Y478D03*
X359Y378D03*
X409Y478D03*
X509Y478D03*
X609Y478D03*
X459Y378D03*
X559Y378D03*
X659Y378D03*
G54D12*
X615Y907D03*
X615Y907D03*
G54D13*
X310Y509D02*
X315Y877D01*
D02*
X724Y485D02*
X675Y404D01*
D02*
X623Y878D02*
X724Y485D01*
D02*
X522Y877D02*
X603Y508D01*
D02*
X422Y877D02*
X503Y508D01*
G54D14*
X622Y415D02*
X695Y415D01*
X622Y414D02*
X695Y414D01*
X622Y413D02*
X695Y413D01*
X622Y412D02*
X695Y412D01*
X622Y411D02*
X695Y411D01*
X622Y410D02*
X695Y410D01*
X622Y409D02*
X695Y409D01*
X622Y408D02*
X695Y408D01*
X622Y407D02*
X695Y407D01*
X622Y406D02*
X695Y406D01*
X622Y405D02*
X695Y405D01*
X622Y404D02*
X695Y404D01*
X622Y403D02*
X695Y403D01*
X622Y402D02*
X695Y402D01*
X622Y401D02*
X695Y401D01*
X622Y400D02*
X695Y400D01*
X622Y399D02*
X695Y399D01*
X622Y398D02*
X695Y398D01*
X622Y397D02*
X653Y397D01*
X664Y397D02*
X695Y397D01*
X622Y396D02*
X650Y396D01*
X667Y396D02*
X695Y396D01*
X622Y395D02*
X648Y395D01*
X669Y395D02*
X695Y395D01*
X622Y394D02*
X646Y394D01*
X670Y394D02*
X695Y394D01*
X622Y393D02*
X645Y393D01*
X672Y393D02*
X695Y393D01*
X622Y392D02*
X644Y392D01*
X673Y392D02*
X695Y392D01*
X622Y391D02*
X643Y391D01*
X674Y391D02*
X695Y391D01*
X622Y390D02*
X642Y390D01*
X675Y390D02*
X695Y390D01*
X622Y389D02*
X642Y389D01*
X675Y389D02*
X695Y389D01*
X622Y388D02*
X641Y388D01*
X676Y388D02*
X695Y388D01*
X622Y387D02*
X640Y387D01*
X676Y387D02*
X695Y387D01*
X622Y386D02*
X640Y386D01*
X677Y386D02*
X695Y386D01*
X622Y385D02*
X640Y385D01*
X677Y385D02*
X695Y385D01*
X622Y384D02*
X639Y384D01*
X678Y384D02*
X695Y384D01*
X622Y383D02*
X639Y383D01*
X678Y383D02*
X695Y383D01*
X622Y382D02*
X639Y382D01*
X678Y382D02*
X695Y382D01*
X622Y381D02*
X639Y381D01*
X678Y381D02*
X695Y381D01*
X622Y380D02*
X638Y380D01*
X678Y380D02*
X695Y380D01*
X622Y379D02*
X638Y379D01*
X679Y379D02*
X695Y379D01*
X622Y378D02*
X638Y378D01*
X679Y378D02*
X695Y378D01*
X622Y377D02*
X638Y377D01*
X678Y377D02*
X695Y377D01*
X622Y376D02*
X638Y376D01*
X678Y376D02*
X695Y376D01*
X622Y375D02*
X639Y375D01*
X678Y375D02*
X695Y375D01*
X622Y374D02*
X639Y374D01*
X678Y374D02*
X695Y374D01*
X622Y373D02*
X639Y373D01*
X678Y373D02*
X695Y373D01*
X622Y372D02*
X639Y372D01*
X678Y372D02*
X695Y372D01*
X622Y371D02*
X640Y371D01*
X677Y371D02*
X695Y371D01*
X622Y370D02*
X640Y370D01*
X677Y370D02*
X695Y370D01*
X622Y369D02*
X641Y369D01*
X676Y369D02*
X695Y369D01*
X622Y368D02*
X641Y368D01*
X676Y368D02*
X695Y368D01*
X622Y367D02*
X642Y367D01*
X675Y367D02*
X695Y367D01*
X622Y366D02*
X643Y366D01*
X674Y366D02*
X695Y366D01*
X622Y365D02*
X643Y365D01*
X673Y365D02*
X695Y365D01*
X622Y364D02*
X644Y364D01*
X673Y364D02*
X695Y364D01*
X622Y363D02*
X645Y363D01*
X671Y363D02*
X695Y363D01*
X622Y362D02*
X647Y362D01*
X670Y362D02*
X695Y362D01*
X622Y361D02*
X648Y361D01*
X668Y361D02*
X695Y361D01*
X622Y360D02*
X650Y360D01*
X667Y360D02*
X695Y360D01*
X622Y359D02*
X654Y359D01*
X663Y359D02*
X695Y359D01*
X622Y358D02*
X695Y358D01*
X622Y357D02*
X695Y357D01*
X622Y356D02*
X695Y356D01*
X622Y355D02*
X695Y355D01*
X622Y354D02*
X695Y354D01*
X622Y353D02*
X695Y353D01*
X622Y352D02*
X695Y352D01*
X622Y351D02*
X695Y351D01*
X622Y350D02*
X695Y350D01*
X622Y349D02*
X695Y349D01*
X622Y348D02*
X695Y348D01*
X622Y347D02*
X695Y347D01*
X622Y346D02*
X695Y346D01*
X622Y345D02*
X695Y345D01*
X622Y344D02*
X695Y344D01*
X622Y343D02*
X695Y343D01*
X622Y342D02*
X695Y342D01*
D02*
G04 End of Copper0*
M02*