G04 MADE WITH FRITZING*
G04 WWW.FRITZING.ORG*
G04 DOUBLE SIDED*
G04 HOLES PLATED*
G04 CONTOUR ON CENTER OF CONTOUR VECTOR*
%ASAXBY*%
%FSLAX23Y23*%
%MOIN*%
%OFA0B0*%
%SFA1.0B1.0*%
%ADD10C,0.088000*%
%ADD11C,0.084000*%
%ADD12C,0.135984*%
%ADD13R,0.088000X0.088000*%
%ADD14R,0.001000X0.001000*%
%LNMASK0*%
G90*
G70*
G54D10*
X616Y746D03*
X516Y746D03*
X416Y746D03*
X316Y746D03*
X616Y746D03*
X516Y746D03*
X416Y746D03*
X316Y746D03*
G54D11*
X292Y478D03*
X342Y378D03*
X392Y478D03*
X492Y478D03*
X592Y478D03*
X442Y378D03*
X542Y378D03*
X642Y378D03*
G54D12*
X692Y128D03*
X242Y128D03*
G54D11*
X292Y478D03*
X342Y378D03*
X392Y478D03*
X492Y478D03*
X592Y478D03*
X442Y378D03*
X542Y378D03*
X642Y378D03*
G54D12*
X692Y128D03*
X242Y128D03*
G54D13*
X616Y746D03*
X616Y746D03*
G54D14*
X600Y421D02*
X682Y421D01*
X600Y420D02*
X683Y420D01*
X600Y419D02*
X683Y419D01*
X600Y418D02*
X683Y418D01*
X600Y417D02*
X683Y417D01*
X600Y416D02*
X683Y416D01*
X600Y415D02*
X683Y415D01*
X600Y414D02*
X683Y414D01*
X600Y413D02*
X683Y413D01*
X600Y412D02*
X683Y412D01*
X600Y411D02*
X683Y411D01*
X600Y410D02*
X683Y410D01*
X600Y409D02*
X683Y409D01*
X600Y408D02*
X683Y408D01*
X600Y407D02*
X683Y407D01*
X600Y406D02*
X683Y406D01*
X600Y405D02*
X683Y405D01*
X600Y404D02*
X683Y404D01*
X600Y403D02*
X683Y403D01*
X600Y402D02*
X683Y402D01*
X600Y401D02*
X683Y401D01*
X600Y400D02*
X683Y400D01*
X600Y399D02*
X683Y399D01*
X600Y398D02*
X683Y398D01*
X600Y397D02*
X683Y397D01*
X600Y396D02*
X683Y396D01*
X600Y395D02*
X683Y395D01*
X600Y394D02*
X683Y394D01*
X600Y393D02*
X636Y393D01*
X647Y393D02*
X683Y393D01*
X600Y392D02*
X634Y392D01*
X649Y392D02*
X683Y392D01*
X600Y391D02*
X632Y391D01*
X650Y391D02*
X683Y391D01*
X600Y390D02*
X631Y390D01*
X652Y390D02*
X683Y390D01*
X600Y389D02*
X630Y389D01*
X653Y389D02*
X683Y389D01*
X600Y388D02*
X629Y388D01*
X653Y388D02*
X683Y388D01*
X600Y387D02*
X628Y387D01*
X654Y387D02*
X683Y387D01*
X600Y386D02*
X628Y386D01*
X655Y386D02*
X683Y386D01*
X600Y385D02*
X627Y385D01*
X655Y385D02*
X683Y385D01*
X600Y384D02*
X627Y384D01*
X656Y384D02*
X683Y384D01*
X600Y383D02*
X627Y383D01*
X656Y383D02*
X683Y383D01*
X600Y382D02*
X626Y382D01*
X656Y382D02*
X683Y382D01*
X600Y381D02*
X626Y381D01*
X656Y381D02*
X683Y381D01*
X600Y380D02*
X626Y380D01*
X656Y380D02*
X683Y380D01*
X600Y379D02*
X626Y379D01*
X656Y379D02*
X683Y379D01*
X600Y378D02*
X626Y378D01*
X656Y378D02*
X683Y378D01*
X600Y377D02*
X626Y377D01*
X656Y377D02*
X683Y377D01*
X600Y376D02*
X626Y376D01*
X656Y376D02*
X683Y376D01*
X600Y375D02*
X627Y375D01*
X656Y375D02*
X683Y375D01*
X600Y374D02*
X627Y374D01*
X656Y374D02*
X683Y374D01*
X600Y373D02*
X627Y373D01*
X655Y373D02*
X683Y373D01*
X600Y372D02*
X628Y372D01*
X655Y372D02*
X683Y372D01*
X600Y371D02*
X629Y371D01*
X654Y371D02*
X683Y371D01*
X600Y370D02*
X629Y370D01*
X653Y370D02*
X683Y370D01*
X600Y369D02*
X630Y369D01*
X652Y369D02*
X683Y369D01*
X600Y368D02*
X631Y368D01*
X651Y368D02*
X683Y368D01*
X600Y367D02*
X632Y367D01*
X650Y367D02*
X683Y367D01*
X600Y366D02*
X634Y366D01*
X649Y366D02*
X683Y366D01*
X600Y365D02*
X637Y365D01*
X646Y365D02*
X683Y365D01*
X600Y364D02*
X683Y364D01*
X600Y363D02*
X683Y363D01*
X600Y362D02*
X683Y362D01*
X600Y361D02*
X683Y361D01*
X600Y360D02*
X683Y360D01*
X600Y359D02*
X683Y359D01*
X600Y358D02*
X683Y358D01*
X600Y357D02*
X683Y357D01*
X600Y356D02*
X683Y356D01*
X600Y355D02*
X683Y355D01*
X600Y354D02*
X683Y354D01*
X600Y353D02*
X683Y353D01*
X600Y352D02*
X683Y352D01*
X600Y351D02*
X683Y351D01*
X600Y350D02*
X683Y350D01*
X600Y349D02*
X683Y349D01*
X600Y348D02*
X683Y348D01*
X600Y347D02*
X683Y347D01*
X600Y346D02*
X683Y346D01*
X600Y345D02*
X683Y345D01*
X600Y344D02*
X683Y344D01*
X600Y343D02*
X683Y343D01*
X600Y342D02*
X683Y342D01*
X600Y341D02*
X683Y341D01*
X600Y340D02*
X683Y340D01*
X600Y339D02*
X683Y339D01*
X600Y338D02*
X683Y338D01*
D02*
G04 End of Mask0*
M02*