G04 MADE WITH FRITZING*
G04 WWW.FRITZING.ORG*
G04 DOUBLE SIDED*
G04 HOLES PLATED*
G04 CONTOUR ON CENTER OF CONTOUR VECTOR*
%ASAXBY*%
%FSLAX23Y23*%
%MOIN*%
%OFA0B0*%
%SFA1.0B1.0*%
%ADD10C,0.088000*%
%ADD11C,0.084000*%
%ADD12C,0.135984*%
%ADD13C,0.096614*%
%ADD14R,0.088000X0.088000*%
%ADD15R,0.001000X0.001000*%
%LNMASK0*%
G90*
G70*
G54D10*
X615Y907D03*
X515Y907D03*
X415Y907D03*
X315Y907D03*
X615Y907D03*
X515Y907D03*
X415Y907D03*
X315Y907D03*
G54D11*
X309Y478D03*
X359Y378D03*
X409Y478D03*
X509Y478D03*
X609Y478D03*
X459Y378D03*
X559Y378D03*
X659Y378D03*
G54D12*
X709Y128D03*
X259Y128D03*
G54D11*
X309Y478D03*
X359Y378D03*
X409Y478D03*
X509Y478D03*
X609Y478D03*
X459Y378D03*
X559Y378D03*
X659Y378D03*
G54D12*
X709Y128D03*
X259Y128D03*
G54D13*
X908Y1020D03*
X75Y1026D03*
X919Y101D03*
X87Y89D03*
G54D14*
X615Y907D03*
X615Y907D03*
G54D15*
X617Y420D02*
X700Y420D01*
X617Y419D02*
X700Y419D01*
X617Y418D02*
X700Y418D01*
X617Y417D02*
X700Y417D01*
X617Y416D02*
X700Y416D01*
X617Y415D02*
X700Y415D01*
X617Y414D02*
X700Y414D01*
X617Y413D02*
X700Y413D01*
X617Y412D02*
X700Y412D01*
X617Y411D02*
X700Y411D01*
X617Y410D02*
X700Y410D01*
X617Y409D02*
X700Y409D01*
X617Y408D02*
X700Y408D01*
X617Y407D02*
X700Y407D01*
X617Y406D02*
X700Y406D01*
X617Y405D02*
X700Y405D01*
X617Y404D02*
X700Y404D01*
X617Y403D02*
X700Y403D01*
X617Y402D02*
X700Y402D01*
X617Y401D02*
X700Y401D01*
X617Y400D02*
X700Y400D01*
X617Y399D02*
X700Y399D01*
X617Y398D02*
X700Y398D01*
X617Y397D02*
X700Y397D01*
X617Y396D02*
X700Y396D01*
X617Y395D02*
X700Y395D01*
X617Y394D02*
X700Y394D01*
X617Y393D02*
X700Y393D01*
X617Y392D02*
X653Y392D01*
X664Y392D02*
X700Y392D01*
X617Y391D02*
X651Y391D01*
X666Y391D02*
X700Y391D01*
X617Y390D02*
X649Y390D01*
X668Y390D02*
X700Y390D01*
X617Y389D02*
X648Y389D01*
X669Y389D02*
X700Y389D01*
X617Y388D02*
X647Y388D01*
X670Y388D02*
X700Y388D01*
X617Y387D02*
X646Y387D01*
X671Y387D02*
X700Y387D01*
X617Y386D02*
X645Y386D01*
X671Y386D02*
X700Y386D01*
X617Y385D02*
X645Y385D01*
X672Y385D02*
X700Y385D01*
X617Y384D02*
X644Y384D01*
X672Y384D02*
X700Y384D01*
X617Y383D02*
X644Y383D01*
X673Y383D02*
X700Y383D01*
X617Y382D02*
X644Y382D01*
X673Y382D02*
X700Y382D01*
X617Y381D02*
X643Y381D01*
X673Y381D02*
X700Y381D01*
X617Y380D02*
X643Y380D01*
X673Y380D02*
X700Y380D01*
X617Y379D02*
X643Y379D01*
X674Y379D02*
X700Y379D01*
X617Y378D02*
X643Y378D01*
X674Y378D02*
X700Y378D01*
X617Y377D02*
X643Y377D01*
X673Y377D02*
X700Y377D01*
X617Y376D02*
X643Y376D01*
X673Y376D02*
X700Y376D01*
X617Y375D02*
X644Y375D01*
X673Y375D02*
X700Y375D01*
X617Y374D02*
X644Y374D01*
X673Y374D02*
X700Y374D01*
X617Y373D02*
X644Y373D01*
X673Y373D02*
X700Y373D01*
X617Y372D02*
X645Y372D01*
X672Y372D02*
X700Y372D01*
X617Y371D02*
X645Y371D01*
X672Y371D02*
X700Y371D01*
X617Y370D02*
X646Y370D01*
X671Y370D02*
X700Y370D01*
X617Y369D02*
X646Y369D01*
X670Y369D02*
X700Y369D01*
X617Y368D02*
X647Y368D01*
X669Y368D02*
X700Y368D01*
X617Y367D02*
X648Y367D01*
X668Y367D02*
X700Y367D01*
X617Y366D02*
X650Y366D01*
X667Y366D02*
X700Y366D01*
X617Y365D02*
X651Y365D01*
X666Y365D02*
X700Y365D01*
X617Y364D02*
X654Y364D01*
X663Y364D02*
X700Y364D01*
X617Y363D02*
X700Y363D01*
X617Y362D02*
X700Y362D01*
X617Y361D02*
X700Y361D01*
X617Y360D02*
X700Y360D01*
X617Y359D02*
X700Y359D01*
X617Y358D02*
X700Y358D01*
X617Y357D02*
X700Y357D01*
X617Y356D02*
X700Y356D01*
X617Y355D02*
X700Y355D01*
X617Y354D02*
X700Y354D01*
X617Y353D02*
X700Y353D01*
X617Y352D02*
X700Y352D01*
X617Y351D02*
X700Y351D01*
X617Y350D02*
X700Y350D01*
X617Y349D02*
X700Y349D01*
X617Y348D02*
X700Y348D01*
X617Y347D02*
X700Y347D01*
X617Y346D02*
X700Y346D01*
X617Y345D02*
X700Y345D01*
X617Y344D02*
X700Y344D01*
X617Y343D02*
X700Y343D01*
X617Y342D02*
X700Y342D01*
X617Y341D02*
X700Y341D01*
X617Y340D02*
X700Y340D01*
X617Y339D02*
X700Y339D01*
X617Y338D02*
X700Y338D01*
X617Y337D02*
X700Y337D01*
D02*
G04 End of Mask0*
M02*