G04 MADE WITH FRITZING*
G04 WWW.FRITZING.ORG*
G04 DOUBLE SIDED*
G04 HOLES PLATED*
G04 CONTOUR ON CENTER OF CONTOUR VECTOR*
%ASAXBY*%
%FSLAX23Y23*%
%MOIN*%
%OFA0B0*%
%SFA1.0B1.0*%
%ADD10C,0.010000*%
%ADD11C,0.008000*%
%ADD12R,0.001000X0.001000*%
%LNSILK0*%
G90*
G70*
G54D10*
X665Y857D02*
X265Y857D01*
D02*
X265Y857D02*
X265Y957D01*
D02*
X265Y957D02*
X665Y957D01*
D02*
X665Y957D02*
X665Y857D01*
G54D11*
D02*
X784Y10D02*
X784Y521D01*
D02*
X784Y10D02*
X184Y10D01*
D02*
X184Y521D02*
X184Y10D01*
G54D12*
X0Y1112D02*
X1000Y1112D01*
X0Y1111D02*
X1000Y1111D01*
X0Y1110D02*
X1000Y1110D01*
X0Y1109D02*
X1000Y1109D01*
X0Y1108D02*
X1000Y1108D01*
X0Y1107D02*
X1000Y1107D01*
X0Y1106D02*
X1000Y1106D01*
X0Y1105D02*
X1000Y1105D01*
X0Y1104D02*
X7Y1104D01*
X993Y1104D02*
X1000Y1104D01*
X0Y1103D02*
X7Y1103D01*
X993Y1103D02*
X1000Y1103D01*
X0Y1102D02*
X7Y1102D01*
X993Y1102D02*
X1000Y1102D01*
X0Y1101D02*
X7Y1101D01*
X993Y1101D02*
X1000Y1101D01*
X0Y1100D02*
X7Y1100D01*
X993Y1100D02*
X1000Y1100D01*
X0Y1099D02*
X7Y1099D01*
X993Y1099D02*
X1000Y1099D01*
X0Y1098D02*
X7Y1098D01*
X993Y1098D02*
X1000Y1098D01*
X0Y1097D02*
X7Y1097D01*
X993Y1097D02*
X1000Y1097D01*
X0Y1096D02*
X7Y1096D01*
X993Y1096D02*
X1000Y1096D01*
X0Y1095D02*
X7Y1095D01*
X993Y1095D02*
X1000Y1095D01*
X0Y1094D02*
X7Y1094D01*
X993Y1094D02*
X1000Y1094D01*
X0Y1093D02*
X7Y1093D01*
X993Y1093D02*
X1000Y1093D01*
X0Y1092D02*
X7Y1092D01*
X993Y1092D02*
X1000Y1092D01*
X0Y1091D02*
X7Y1091D01*
X993Y1091D02*
X1000Y1091D01*
X0Y1090D02*
X7Y1090D01*
X993Y1090D02*
X1000Y1090D01*
X0Y1089D02*
X7Y1089D01*
X993Y1089D02*
X1000Y1089D01*
X0Y1088D02*
X7Y1088D01*
X993Y1088D02*
X1000Y1088D01*
X0Y1087D02*
X7Y1087D01*
X993Y1087D02*
X1000Y1087D01*
X0Y1086D02*
X7Y1086D01*
X993Y1086D02*
X1000Y1086D01*
X0Y1085D02*
X7Y1085D01*
X993Y1085D02*
X1000Y1085D01*
X0Y1084D02*
X7Y1084D01*
X993Y1084D02*
X1000Y1084D01*
X0Y1083D02*
X7Y1083D01*
X993Y1083D02*
X1000Y1083D01*
X0Y1082D02*
X7Y1082D01*
X993Y1082D02*
X1000Y1082D01*
X0Y1081D02*
X7Y1081D01*
X993Y1081D02*
X1000Y1081D01*
X0Y1080D02*
X7Y1080D01*
X993Y1080D02*
X1000Y1080D01*
X0Y1079D02*
X7Y1079D01*
X993Y1079D02*
X1000Y1079D01*
X0Y1078D02*
X7Y1078D01*
X993Y1078D02*
X1000Y1078D01*
X0Y1077D02*
X7Y1077D01*
X993Y1077D02*
X1000Y1077D01*
X0Y1076D02*
X7Y1076D01*
X993Y1076D02*
X1000Y1076D01*
X0Y1075D02*
X7Y1075D01*
X993Y1075D02*
X1000Y1075D01*
X0Y1074D02*
X7Y1074D01*
X993Y1074D02*
X1000Y1074D01*
X0Y1073D02*
X7Y1073D01*
X993Y1073D02*
X1000Y1073D01*
X0Y1072D02*
X7Y1072D01*
X993Y1072D02*
X1000Y1072D01*
X0Y1071D02*
X7Y1071D01*
X993Y1071D02*
X1000Y1071D01*
X0Y1070D02*
X7Y1070D01*
X993Y1070D02*
X1000Y1070D01*
X0Y1069D02*
X7Y1069D01*
X993Y1069D02*
X1000Y1069D01*
X0Y1068D02*
X7Y1068D01*
X993Y1068D02*
X1000Y1068D01*
X0Y1067D02*
X7Y1067D01*
X993Y1067D02*
X1000Y1067D01*
X0Y1066D02*
X7Y1066D01*
X993Y1066D02*
X1000Y1066D01*
X0Y1065D02*
X7Y1065D01*
X993Y1065D02*
X1000Y1065D01*
X0Y1064D02*
X7Y1064D01*
X993Y1064D02*
X1000Y1064D01*
X0Y1063D02*
X7Y1063D01*
X993Y1063D02*
X1000Y1063D01*
X0Y1062D02*
X7Y1062D01*
X993Y1062D02*
X1000Y1062D01*
X0Y1061D02*
X7Y1061D01*
X993Y1061D02*
X1000Y1061D01*
X0Y1060D02*
X7Y1060D01*
X993Y1060D02*
X1000Y1060D01*
X0Y1059D02*
X7Y1059D01*
X993Y1059D02*
X1000Y1059D01*
X0Y1058D02*
X7Y1058D01*
X993Y1058D02*
X1000Y1058D01*
X0Y1057D02*
X7Y1057D01*
X993Y1057D02*
X1000Y1057D01*
X0Y1056D02*
X7Y1056D01*
X993Y1056D02*
X1000Y1056D01*
X0Y1055D02*
X7Y1055D01*
X993Y1055D02*
X1000Y1055D01*
X0Y1054D02*
X7Y1054D01*
X993Y1054D02*
X1000Y1054D01*
X0Y1053D02*
X7Y1053D01*
X993Y1053D02*
X1000Y1053D01*
X0Y1052D02*
X7Y1052D01*
X993Y1052D02*
X1000Y1052D01*
X0Y1051D02*
X7Y1051D01*
X993Y1051D02*
X1000Y1051D01*
X0Y1050D02*
X7Y1050D01*
X993Y1050D02*
X1000Y1050D01*
X0Y1049D02*
X7Y1049D01*
X993Y1049D02*
X1000Y1049D01*
X0Y1048D02*
X7Y1048D01*
X993Y1048D02*
X1000Y1048D01*
X0Y1047D02*
X7Y1047D01*
X993Y1047D02*
X1000Y1047D01*
X0Y1046D02*
X7Y1046D01*
X993Y1046D02*
X1000Y1046D01*
X0Y1045D02*
X7Y1045D01*
X993Y1045D02*
X1000Y1045D01*
X0Y1044D02*
X7Y1044D01*
X993Y1044D02*
X1000Y1044D01*
X0Y1043D02*
X7Y1043D01*
X993Y1043D02*
X1000Y1043D01*
X0Y1042D02*
X7Y1042D01*
X993Y1042D02*
X1000Y1042D01*
X0Y1041D02*
X7Y1041D01*
X993Y1041D02*
X1000Y1041D01*
X0Y1040D02*
X7Y1040D01*
X993Y1040D02*
X1000Y1040D01*
X0Y1039D02*
X7Y1039D01*
X993Y1039D02*
X1000Y1039D01*
X0Y1038D02*
X7Y1038D01*
X993Y1038D02*
X1000Y1038D01*
X0Y1037D02*
X7Y1037D01*
X993Y1037D02*
X1000Y1037D01*
X0Y1036D02*
X7Y1036D01*
X993Y1036D02*
X1000Y1036D01*
X0Y1035D02*
X7Y1035D01*
X993Y1035D02*
X1000Y1035D01*
X0Y1034D02*
X7Y1034D01*
X993Y1034D02*
X1000Y1034D01*
X0Y1033D02*
X7Y1033D01*
X993Y1033D02*
X1000Y1033D01*
X0Y1032D02*
X7Y1032D01*
X993Y1032D02*
X1000Y1032D01*
X0Y1031D02*
X7Y1031D01*
X993Y1031D02*
X1000Y1031D01*
X0Y1030D02*
X7Y1030D01*
X993Y1030D02*
X1000Y1030D01*
X0Y1029D02*
X7Y1029D01*
X993Y1029D02*
X1000Y1029D01*
X0Y1028D02*
X7Y1028D01*
X993Y1028D02*
X1000Y1028D01*
X0Y1027D02*
X7Y1027D01*
X993Y1027D02*
X1000Y1027D01*
X0Y1026D02*
X7Y1026D01*
X993Y1026D02*
X1000Y1026D01*
X0Y1025D02*
X7Y1025D01*
X993Y1025D02*
X1000Y1025D01*
X0Y1024D02*
X7Y1024D01*
X993Y1024D02*
X1000Y1024D01*
X0Y1023D02*
X7Y1023D01*
X993Y1023D02*
X1000Y1023D01*
X0Y1022D02*
X7Y1022D01*
X993Y1022D02*
X1000Y1022D01*
X0Y1021D02*
X7Y1021D01*
X993Y1021D02*
X1000Y1021D01*
X0Y1020D02*
X7Y1020D01*
X993Y1020D02*
X1000Y1020D01*
X0Y1019D02*
X7Y1019D01*
X993Y1019D02*
X1000Y1019D01*
X0Y1018D02*
X7Y1018D01*
X993Y1018D02*
X1000Y1018D01*
X0Y1017D02*
X7Y1017D01*
X993Y1017D02*
X1000Y1017D01*
X0Y1016D02*
X7Y1016D01*
X993Y1016D02*
X1000Y1016D01*
X0Y1015D02*
X7Y1015D01*
X993Y1015D02*
X1000Y1015D01*
X0Y1014D02*
X7Y1014D01*
X993Y1014D02*
X1000Y1014D01*
X0Y1013D02*
X7Y1013D01*
X993Y1013D02*
X1000Y1013D01*
X0Y1012D02*
X7Y1012D01*
X993Y1012D02*
X1000Y1012D01*
X0Y1011D02*
X7Y1011D01*
X993Y1011D02*
X1000Y1011D01*
X0Y1010D02*
X7Y1010D01*
X993Y1010D02*
X1000Y1010D01*
X0Y1009D02*
X7Y1009D01*
X993Y1009D02*
X1000Y1009D01*
X0Y1008D02*
X7Y1008D01*
X993Y1008D02*
X1000Y1008D01*
X0Y1007D02*
X7Y1007D01*
X993Y1007D02*
X1000Y1007D01*
X0Y1006D02*
X7Y1006D01*
X993Y1006D02*
X1000Y1006D01*
X0Y1005D02*
X7Y1005D01*
X993Y1005D02*
X1000Y1005D01*
X0Y1004D02*
X7Y1004D01*
X993Y1004D02*
X1000Y1004D01*
X0Y1003D02*
X7Y1003D01*
X993Y1003D02*
X1000Y1003D01*
X0Y1002D02*
X7Y1002D01*
X993Y1002D02*
X1000Y1002D01*
X0Y1001D02*
X7Y1001D01*
X993Y1001D02*
X1000Y1001D01*
X0Y1000D02*
X7Y1000D01*
X993Y1000D02*
X1000Y1000D01*
X0Y999D02*
X7Y999D01*
X993Y999D02*
X1000Y999D01*
X0Y998D02*
X7Y998D01*
X993Y998D02*
X1000Y998D01*
X0Y997D02*
X7Y997D01*
X993Y997D02*
X1000Y997D01*
X0Y996D02*
X7Y996D01*
X993Y996D02*
X1000Y996D01*
X0Y995D02*
X7Y995D01*
X993Y995D02*
X1000Y995D01*
X0Y994D02*
X7Y994D01*
X993Y994D02*
X1000Y994D01*
X0Y993D02*
X7Y993D01*
X993Y993D02*
X1000Y993D01*
X0Y992D02*
X7Y992D01*
X993Y992D02*
X1000Y992D01*
X0Y991D02*
X7Y991D01*
X993Y991D02*
X1000Y991D01*
X0Y990D02*
X7Y990D01*
X993Y990D02*
X1000Y990D01*
X0Y989D02*
X7Y989D01*
X993Y989D02*
X1000Y989D01*
X0Y988D02*
X7Y988D01*
X993Y988D02*
X1000Y988D01*
X0Y987D02*
X7Y987D01*
X993Y987D02*
X1000Y987D01*
X0Y986D02*
X7Y986D01*
X993Y986D02*
X1000Y986D01*
X0Y985D02*
X7Y985D01*
X993Y985D02*
X1000Y985D01*
X0Y984D02*
X7Y984D01*
X993Y984D02*
X1000Y984D01*
X0Y983D02*
X7Y983D01*
X993Y983D02*
X1000Y983D01*
X0Y982D02*
X7Y982D01*
X993Y982D02*
X1000Y982D01*
X0Y981D02*
X7Y981D01*
X993Y981D02*
X1000Y981D01*
X0Y980D02*
X7Y980D01*
X993Y980D02*
X1000Y980D01*
X0Y979D02*
X7Y979D01*
X993Y979D02*
X1000Y979D01*
X0Y978D02*
X7Y978D01*
X993Y978D02*
X1000Y978D01*
X0Y977D02*
X7Y977D01*
X993Y977D02*
X1000Y977D01*
X0Y976D02*
X7Y976D01*
X993Y976D02*
X1000Y976D01*
X0Y975D02*
X7Y975D01*
X993Y975D02*
X1000Y975D01*
X0Y974D02*
X7Y974D01*
X993Y974D02*
X1000Y974D01*
X0Y973D02*
X7Y973D01*
X993Y973D02*
X1000Y973D01*
X0Y972D02*
X7Y972D01*
X993Y972D02*
X1000Y972D01*
X0Y971D02*
X7Y971D01*
X993Y971D02*
X1000Y971D01*
X0Y970D02*
X7Y970D01*
X993Y970D02*
X1000Y970D01*
X0Y969D02*
X7Y969D01*
X993Y969D02*
X1000Y969D01*
X0Y968D02*
X7Y968D01*
X993Y968D02*
X1000Y968D01*
X0Y967D02*
X7Y967D01*
X993Y967D02*
X1000Y967D01*
X0Y966D02*
X7Y966D01*
X993Y966D02*
X1000Y966D01*
X0Y965D02*
X7Y965D01*
X993Y965D02*
X1000Y965D01*
X0Y964D02*
X7Y964D01*
X993Y964D02*
X1000Y964D01*
X0Y963D02*
X7Y963D01*
X993Y963D02*
X1000Y963D01*
X0Y962D02*
X7Y962D01*
X993Y962D02*
X1000Y962D01*
X0Y961D02*
X7Y961D01*
X993Y961D02*
X1000Y961D01*
X0Y960D02*
X7Y960D01*
X993Y960D02*
X1000Y960D01*
X0Y959D02*
X7Y959D01*
X993Y959D02*
X1000Y959D01*
X0Y958D02*
X7Y958D01*
X993Y958D02*
X1000Y958D01*
X0Y957D02*
X7Y957D01*
X993Y957D02*
X1000Y957D01*
X0Y956D02*
X7Y956D01*
X993Y956D02*
X1000Y956D01*
X0Y955D02*
X7Y955D01*
X993Y955D02*
X1000Y955D01*
X0Y954D02*
X7Y954D01*
X993Y954D02*
X1000Y954D01*
X0Y953D02*
X7Y953D01*
X993Y953D02*
X1000Y953D01*
X0Y952D02*
X7Y952D01*
X993Y952D02*
X1000Y952D01*
X0Y951D02*
X7Y951D01*
X993Y951D02*
X1000Y951D01*
X0Y950D02*
X7Y950D01*
X993Y950D02*
X1000Y950D01*
X0Y949D02*
X7Y949D01*
X993Y949D02*
X1000Y949D01*
X0Y948D02*
X7Y948D01*
X993Y948D02*
X1000Y948D01*
X0Y947D02*
X7Y947D01*
X993Y947D02*
X1000Y947D01*
X0Y946D02*
X7Y946D01*
X993Y946D02*
X1000Y946D01*
X0Y945D02*
X7Y945D01*
X993Y945D02*
X1000Y945D01*
X0Y944D02*
X7Y944D01*
X993Y944D02*
X1000Y944D01*
X0Y943D02*
X7Y943D01*
X993Y943D02*
X1000Y943D01*
X0Y942D02*
X7Y942D01*
X993Y942D02*
X1000Y942D01*
X0Y941D02*
X7Y941D01*
X993Y941D02*
X1000Y941D01*
X0Y940D02*
X7Y940D01*
X993Y940D02*
X1000Y940D01*
X0Y939D02*
X7Y939D01*
X993Y939D02*
X1000Y939D01*
X0Y938D02*
X7Y938D01*
X993Y938D02*
X1000Y938D01*
X0Y937D02*
X7Y937D01*
X993Y937D02*
X1000Y937D01*
X0Y936D02*
X7Y936D01*
X993Y936D02*
X1000Y936D01*
X0Y935D02*
X7Y935D01*
X993Y935D02*
X1000Y935D01*
X0Y934D02*
X7Y934D01*
X993Y934D02*
X1000Y934D01*
X0Y933D02*
X7Y933D01*
X993Y933D02*
X1000Y933D01*
X0Y932D02*
X7Y932D01*
X993Y932D02*
X1000Y932D01*
X0Y931D02*
X7Y931D01*
X993Y931D02*
X1000Y931D01*
X0Y930D02*
X7Y930D01*
X993Y930D02*
X1000Y930D01*
X0Y929D02*
X7Y929D01*
X993Y929D02*
X1000Y929D01*
X0Y928D02*
X7Y928D01*
X993Y928D02*
X1000Y928D01*
X0Y927D02*
X7Y927D01*
X993Y927D02*
X1000Y927D01*
X0Y926D02*
X7Y926D01*
X993Y926D02*
X1000Y926D01*
X0Y925D02*
X7Y925D01*
X993Y925D02*
X1000Y925D01*
X0Y924D02*
X7Y924D01*
X993Y924D02*
X1000Y924D01*
X0Y923D02*
X7Y923D01*
X993Y923D02*
X1000Y923D01*
X0Y922D02*
X7Y922D01*
X993Y922D02*
X1000Y922D01*
X0Y921D02*
X7Y921D01*
X993Y921D02*
X1000Y921D01*
X0Y920D02*
X7Y920D01*
X993Y920D02*
X1000Y920D01*
X0Y919D02*
X7Y919D01*
X993Y919D02*
X1000Y919D01*
X0Y918D02*
X7Y918D01*
X993Y918D02*
X1000Y918D01*
X0Y917D02*
X7Y917D01*
X993Y917D02*
X1000Y917D01*
X0Y916D02*
X7Y916D01*
X993Y916D02*
X1000Y916D01*
X0Y915D02*
X7Y915D01*
X993Y915D02*
X1000Y915D01*
X0Y914D02*
X7Y914D01*
X993Y914D02*
X1000Y914D01*
X0Y913D02*
X7Y913D01*
X993Y913D02*
X1000Y913D01*
X0Y912D02*
X7Y912D01*
X993Y912D02*
X1000Y912D01*
X0Y911D02*
X7Y911D01*
X993Y911D02*
X1000Y911D01*
X0Y910D02*
X7Y910D01*
X993Y910D02*
X1000Y910D01*
X0Y909D02*
X7Y909D01*
X993Y909D02*
X1000Y909D01*
X0Y908D02*
X7Y908D01*
X993Y908D02*
X1000Y908D01*
X0Y907D02*
X7Y907D01*
X993Y907D02*
X1000Y907D01*
X0Y906D02*
X7Y906D01*
X993Y906D02*
X1000Y906D01*
X0Y905D02*
X7Y905D01*
X993Y905D02*
X1000Y905D01*
X0Y904D02*
X7Y904D01*
X993Y904D02*
X1000Y904D01*
X0Y903D02*
X7Y903D01*
X993Y903D02*
X1000Y903D01*
X0Y902D02*
X7Y902D01*
X993Y902D02*
X1000Y902D01*
X0Y901D02*
X7Y901D01*
X993Y901D02*
X1000Y901D01*
X0Y900D02*
X7Y900D01*
X993Y900D02*
X1000Y900D01*
X0Y899D02*
X7Y899D01*
X993Y899D02*
X1000Y899D01*
X0Y898D02*
X7Y898D01*
X993Y898D02*
X1000Y898D01*
X0Y897D02*
X7Y897D01*
X993Y897D02*
X1000Y897D01*
X0Y896D02*
X7Y896D01*
X993Y896D02*
X1000Y896D01*
X0Y895D02*
X7Y895D01*
X993Y895D02*
X1000Y895D01*
X0Y894D02*
X7Y894D01*
X993Y894D02*
X1000Y894D01*
X0Y893D02*
X7Y893D01*
X663Y893D02*
X663Y893D01*
X993Y893D02*
X1000Y893D01*
X0Y892D02*
X7Y892D01*
X662Y892D02*
X664Y892D01*
X993Y892D02*
X1000Y892D01*
X0Y891D02*
X7Y891D01*
X661Y891D02*
X665Y891D01*
X993Y891D02*
X1000Y891D01*
X0Y890D02*
X7Y890D01*
X660Y890D02*
X666Y890D01*
X993Y890D02*
X1000Y890D01*
X0Y889D02*
X7Y889D01*
X659Y889D02*
X665Y889D01*
X993Y889D02*
X1000Y889D01*
X0Y888D02*
X7Y888D01*
X659Y888D02*
X664Y888D01*
X993Y888D02*
X1000Y888D01*
X0Y887D02*
X7Y887D01*
X659Y887D02*
X663Y887D01*
X993Y887D02*
X1000Y887D01*
X0Y886D02*
X7Y886D01*
X659Y886D02*
X662Y886D01*
X993Y886D02*
X1000Y886D01*
X0Y885D02*
X7Y885D01*
X659Y885D02*
X661Y885D01*
X993Y885D02*
X1000Y885D01*
X0Y884D02*
X7Y884D01*
X659Y884D02*
X660Y884D01*
X993Y884D02*
X1000Y884D01*
X0Y883D02*
X7Y883D01*
X659Y883D02*
X659Y883D01*
X993Y883D02*
X1000Y883D01*
X0Y882D02*
X7Y882D01*
X993Y882D02*
X1000Y882D01*
X0Y881D02*
X7Y881D01*
X993Y881D02*
X1000Y881D01*
X0Y880D02*
X7Y880D01*
X993Y880D02*
X1000Y880D01*
X0Y879D02*
X7Y879D01*
X993Y879D02*
X1000Y879D01*
X0Y878D02*
X7Y878D01*
X993Y878D02*
X1000Y878D01*
X0Y877D02*
X7Y877D01*
X993Y877D02*
X1000Y877D01*
X0Y876D02*
X7Y876D01*
X993Y876D02*
X1000Y876D01*
X0Y875D02*
X7Y875D01*
X993Y875D02*
X1000Y875D01*
X0Y874D02*
X7Y874D01*
X993Y874D02*
X1000Y874D01*
X0Y873D02*
X7Y873D01*
X993Y873D02*
X1000Y873D01*
X0Y872D02*
X7Y872D01*
X993Y872D02*
X1000Y872D01*
X0Y871D02*
X7Y871D01*
X993Y871D02*
X1000Y871D01*
X0Y870D02*
X7Y870D01*
X993Y870D02*
X1000Y870D01*
X0Y869D02*
X7Y869D01*
X993Y869D02*
X1000Y869D01*
X0Y868D02*
X7Y868D01*
X993Y868D02*
X1000Y868D01*
X0Y867D02*
X7Y867D01*
X993Y867D02*
X1000Y867D01*
X0Y866D02*
X7Y866D01*
X993Y866D02*
X1000Y866D01*
X0Y865D02*
X7Y865D01*
X993Y865D02*
X1000Y865D01*
X0Y864D02*
X7Y864D01*
X993Y864D02*
X1000Y864D01*
X0Y863D02*
X7Y863D01*
X993Y863D02*
X1000Y863D01*
X0Y862D02*
X7Y862D01*
X632Y862D02*
X638Y862D01*
X993Y862D02*
X1000Y862D01*
X0Y861D02*
X7Y861D01*
X631Y861D02*
X637Y861D01*
X993Y861D02*
X1000Y861D01*
X0Y860D02*
X7Y860D01*
X630Y860D02*
X636Y860D01*
X993Y860D02*
X1000Y860D01*
X0Y859D02*
X7Y859D01*
X629Y859D02*
X635Y859D01*
X993Y859D02*
X1000Y859D01*
X0Y858D02*
X7Y858D01*
X629Y858D02*
X634Y858D01*
X993Y858D02*
X1000Y858D01*
X0Y857D02*
X7Y857D01*
X630Y857D02*
X633Y857D01*
X993Y857D02*
X1000Y857D01*
X0Y856D02*
X7Y856D01*
X631Y856D02*
X632Y856D01*
X993Y856D02*
X1000Y856D01*
X0Y855D02*
X7Y855D01*
X993Y855D02*
X1000Y855D01*
X0Y854D02*
X7Y854D01*
X993Y854D02*
X1000Y854D01*
X0Y853D02*
X7Y853D01*
X993Y853D02*
X1000Y853D01*
X0Y852D02*
X7Y852D01*
X993Y852D02*
X1000Y852D01*
X0Y851D02*
X7Y851D01*
X993Y851D02*
X1000Y851D01*
X0Y850D02*
X7Y850D01*
X993Y850D02*
X1000Y850D01*
X0Y849D02*
X7Y849D01*
X993Y849D02*
X1000Y849D01*
X0Y848D02*
X7Y848D01*
X993Y848D02*
X1000Y848D01*
X0Y847D02*
X7Y847D01*
X993Y847D02*
X1000Y847D01*
X0Y846D02*
X7Y846D01*
X993Y846D02*
X1000Y846D01*
X0Y845D02*
X7Y845D01*
X993Y845D02*
X1000Y845D01*
X0Y844D02*
X7Y844D01*
X993Y844D02*
X1000Y844D01*
X0Y843D02*
X7Y843D01*
X993Y843D02*
X1000Y843D01*
X0Y842D02*
X7Y842D01*
X993Y842D02*
X1000Y842D01*
X0Y841D02*
X7Y841D01*
X993Y841D02*
X1000Y841D01*
X0Y840D02*
X7Y840D01*
X993Y840D02*
X1000Y840D01*
X0Y839D02*
X7Y839D01*
X993Y839D02*
X1000Y839D01*
X0Y838D02*
X7Y838D01*
X993Y838D02*
X1000Y838D01*
X0Y837D02*
X7Y837D01*
X993Y837D02*
X1000Y837D01*
X0Y836D02*
X7Y836D01*
X993Y836D02*
X1000Y836D01*
X0Y835D02*
X7Y835D01*
X993Y835D02*
X1000Y835D01*
X0Y834D02*
X7Y834D01*
X993Y834D02*
X1000Y834D01*
X0Y833D02*
X7Y833D01*
X993Y833D02*
X1000Y833D01*
X0Y832D02*
X7Y832D01*
X993Y832D02*
X1000Y832D01*
X0Y831D02*
X7Y831D01*
X993Y831D02*
X1000Y831D01*
X0Y830D02*
X7Y830D01*
X993Y830D02*
X1000Y830D01*
X0Y829D02*
X7Y829D01*
X714Y829D02*
X714Y829D01*
X761Y829D02*
X761Y829D01*
X993Y829D02*
X1000Y829D01*
X0Y828D02*
X7Y828D01*
X712Y828D02*
X716Y828D01*
X759Y828D02*
X763Y828D01*
X993Y828D02*
X1000Y828D01*
X0Y827D02*
X7Y827D01*
X711Y827D02*
X716Y827D01*
X758Y827D02*
X764Y827D01*
X993Y827D02*
X1000Y827D01*
X0Y826D02*
X7Y826D01*
X711Y826D02*
X717Y826D01*
X758Y826D02*
X764Y826D01*
X993Y826D02*
X1000Y826D01*
X0Y825D02*
X7Y825D01*
X711Y825D02*
X717Y825D01*
X758Y825D02*
X764Y825D01*
X993Y825D02*
X1000Y825D01*
X0Y824D02*
X7Y824D01*
X711Y824D02*
X717Y824D01*
X758Y824D02*
X764Y824D01*
X993Y824D02*
X1000Y824D01*
X0Y823D02*
X7Y823D01*
X711Y823D02*
X717Y823D01*
X758Y823D02*
X764Y823D01*
X993Y823D02*
X1000Y823D01*
X0Y822D02*
X7Y822D01*
X711Y822D02*
X717Y822D01*
X758Y822D02*
X764Y822D01*
X993Y822D02*
X1000Y822D01*
X0Y821D02*
X7Y821D01*
X711Y821D02*
X717Y821D01*
X758Y821D02*
X764Y821D01*
X993Y821D02*
X1000Y821D01*
X0Y820D02*
X7Y820D01*
X711Y820D02*
X717Y820D01*
X758Y820D02*
X764Y820D01*
X993Y820D02*
X1000Y820D01*
X0Y819D02*
X7Y819D01*
X711Y819D02*
X717Y819D01*
X758Y819D02*
X764Y819D01*
X993Y819D02*
X1000Y819D01*
X0Y818D02*
X7Y818D01*
X711Y818D02*
X717Y818D01*
X758Y818D02*
X764Y818D01*
X993Y818D02*
X1000Y818D01*
X0Y817D02*
X7Y817D01*
X711Y817D02*
X717Y817D01*
X758Y817D02*
X764Y817D01*
X993Y817D02*
X1000Y817D01*
X0Y816D02*
X7Y816D01*
X711Y816D02*
X717Y816D01*
X758Y816D02*
X764Y816D01*
X993Y816D02*
X1000Y816D01*
X0Y815D02*
X7Y815D01*
X711Y815D02*
X764Y815D01*
X993Y815D02*
X1000Y815D01*
X0Y814D02*
X7Y814D01*
X711Y814D02*
X764Y814D01*
X993Y814D02*
X1000Y814D01*
X0Y813D02*
X7Y813D01*
X711Y813D02*
X764Y813D01*
X993Y813D02*
X1000Y813D01*
X0Y812D02*
X7Y812D01*
X711Y812D02*
X764Y812D01*
X993Y812D02*
X1000Y812D01*
X0Y811D02*
X7Y811D01*
X711Y811D02*
X764Y811D01*
X993Y811D02*
X1000Y811D01*
X0Y810D02*
X7Y810D01*
X711Y810D02*
X764Y810D01*
X993Y810D02*
X1000Y810D01*
X0Y809D02*
X7Y809D01*
X711Y809D02*
X764Y809D01*
X993Y809D02*
X1000Y809D01*
X0Y808D02*
X7Y808D01*
X711Y808D02*
X717Y808D01*
X758Y808D02*
X764Y808D01*
X993Y808D02*
X1000Y808D01*
X0Y807D02*
X7Y807D01*
X711Y807D02*
X717Y807D01*
X758Y807D02*
X764Y807D01*
X993Y807D02*
X1000Y807D01*
X0Y806D02*
X7Y806D01*
X711Y806D02*
X717Y806D01*
X758Y806D02*
X764Y806D01*
X993Y806D02*
X1000Y806D01*
X0Y805D02*
X7Y805D01*
X711Y805D02*
X717Y805D01*
X758Y805D02*
X764Y805D01*
X993Y805D02*
X1000Y805D01*
X0Y804D02*
X7Y804D01*
X711Y804D02*
X717Y804D01*
X758Y804D02*
X764Y804D01*
X993Y804D02*
X1000Y804D01*
X0Y803D02*
X7Y803D01*
X711Y803D02*
X717Y803D01*
X758Y803D02*
X764Y803D01*
X993Y803D02*
X1000Y803D01*
X0Y802D02*
X7Y802D01*
X711Y802D02*
X717Y802D01*
X758Y802D02*
X764Y802D01*
X993Y802D02*
X1000Y802D01*
X0Y801D02*
X7Y801D01*
X711Y801D02*
X717Y801D01*
X758Y801D02*
X764Y801D01*
X993Y801D02*
X1000Y801D01*
X0Y800D02*
X7Y800D01*
X711Y800D02*
X717Y800D01*
X758Y800D02*
X764Y800D01*
X993Y800D02*
X1000Y800D01*
X0Y799D02*
X7Y799D01*
X711Y799D02*
X717Y799D01*
X758Y799D02*
X764Y799D01*
X993Y799D02*
X1000Y799D01*
X0Y798D02*
X7Y798D01*
X711Y798D02*
X717Y798D01*
X758Y798D02*
X764Y798D01*
X993Y798D02*
X1000Y798D01*
X0Y797D02*
X7Y797D01*
X711Y797D02*
X716Y797D01*
X758Y797D02*
X764Y797D01*
X993Y797D02*
X1000Y797D01*
X0Y796D02*
X7Y796D01*
X711Y796D02*
X716Y796D01*
X759Y796D02*
X763Y796D01*
X993Y796D02*
X1000Y796D01*
X0Y795D02*
X7Y795D01*
X713Y795D02*
X715Y795D01*
X760Y795D02*
X762Y795D01*
X993Y795D02*
X1000Y795D01*
X0Y794D02*
X7Y794D01*
X993Y794D02*
X1000Y794D01*
X0Y793D02*
X7Y793D01*
X993Y793D02*
X1000Y793D01*
X0Y792D02*
X7Y792D01*
X993Y792D02*
X1000Y792D01*
X0Y791D02*
X7Y791D01*
X993Y791D02*
X1000Y791D01*
X0Y790D02*
X7Y790D01*
X993Y790D02*
X1000Y790D01*
X0Y789D02*
X7Y789D01*
X993Y789D02*
X1000Y789D01*
X0Y788D02*
X7Y788D01*
X993Y788D02*
X1000Y788D01*
X0Y787D02*
X7Y787D01*
X993Y787D02*
X1000Y787D01*
X0Y786D02*
X7Y786D01*
X993Y786D02*
X1000Y786D01*
X0Y785D02*
X7Y785D01*
X993Y785D02*
X1000Y785D01*
X0Y784D02*
X7Y784D01*
X993Y784D02*
X1000Y784D01*
X0Y783D02*
X7Y783D01*
X993Y783D02*
X1000Y783D01*
X0Y782D02*
X7Y782D01*
X993Y782D02*
X1000Y782D01*
X0Y781D02*
X7Y781D01*
X993Y781D02*
X1000Y781D01*
X0Y780D02*
X7Y780D01*
X993Y780D02*
X1000Y780D01*
X0Y779D02*
X7Y779D01*
X736Y779D02*
X739Y779D01*
X993Y779D02*
X1000Y779D01*
X0Y778D02*
X7Y778D01*
X732Y778D02*
X742Y778D01*
X993Y778D02*
X1000Y778D01*
X0Y777D02*
X7Y777D01*
X730Y777D02*
X745Y777D01*
X993Y777D02*
X1000Y777D01*
X0Y776D02*
X7Y776D01*
X728Y776D02*
X747Y776D01*
X993Y776D02*
X1000Y776D01*
X0Y775D02*
X7Y775D01*
X726Y775D02*
X749Y775D01*
X993Y775D02*
X1000Y775D01*
X0Y774D02*
X7Y774D01*
X724Y774D02*
X751Y774D01*
X993Y774D02*
X1000Y774D01*
X0Y773D02*
X7Y773D01*
X722Y773D02*
X753Y773D01*
X993Y773D02*
X1000Y773D01*
X0Y772D02*
X7Y772D01*
X720Y772D02*
X736Y772D01*
X739Y772D02*
X755Y772D01*
X993Y772D02*
X1000Y772D01*
X0Y771D02*
X7Y771D01*
X718Y771D02*
X732Y771D01*
X742Y771D02*
X757Y771D01*
X993Y771D02*
X1000Y771D01*
X0Y770D02*
X7Y770D01*
X716Y770D02*
X730Y770D01*
X744Y770D02*
X759Y770D01*
X993Y770D02*
X1000Y770D01*
X0Y769D02*
X7Y769D01*
X715Y769D02*
X728Y769D01*
X746Y769D02*
X760Y769D01*
X993Y769D02*
X1000Y769D01*
X0Y768D02*
X7Y768D01*
X714Y768D02*
X726Y768D01*
X748Y768D02*
X761Y768D01*
X993Y768D02*
X1000Y768D01*
X0Y767D02*
X7Y767D01*
X713Y767D02*
X724Y767D01*
X750Y767D02*
X762Y767D01*
X993Y767D02*
X1000Y767D01*
X0Y766D02*
X7Y766D01*
X712Y766D02*
X722Y766D01*
X752Y766D02*
X763Y766D01*
X993Y766D02*
X1000Y766D01*
X0Y765D02*
X7Y765D01*
X712Y765D02*
X720Y765D01*
X754Y765D02*
X763Y765D01*
X993Y765D02*
X1000Y765D01*
X0Y764D02*
X7Y764D01*
X711Y764D02*
X719Y764D01*
X756Y764D02*
X763Y764D01*
X993Y764D02*
X1000Y764D01*
X0Y763D02*
X7Y763D01*
X711Y763D02*
X717Y763D01*
X757Y763D02*
X764Y763D01*
X993Y763D02*
X1000Y763D01*
X0Y762D02*
X7Y762D01*
X711Y762D02*
X717Y762D01*
X758Y762D02*
X764Y762D01*
X993Y762D02*
X1000Y762D01*
X0Y761D02*
X7Y761D01*
X711Y761D02*
X717Y761D01*
X758Y761D02*
X764Y761D01*
X993Y761D02*
X1000Y761D01*
X0Y760D02*
X7Y760D01*
X711Y760D02*
X717Y760D01*
X758Y760D02*
X764Y760D01*
X993Y760D02*
X1000Y760D01*
X0Y759D02*
X7Y759D01*
X711Y759D02*
X717Y759D01*
X758Y759D02*
X764Y759D01*
X993Y759D02*
X1000Y759D01*
X0Y758D02*
X7Y758D01*
X711Y758D02*
X717Y758D01*
X758Y758D02*
X764Y758D01*
X993Y758D02*
X1000Y758D01*
X0Y757D02*
X7Y757D01*
X711Y757D02*
X717Y757D01*
X758Y757D02*
X764Y757D01*
X993Y757D02*
X1000Y757D01*
X0Y756D02*
X7Y756D01*
X711Y756D02*
X717Y756D01*
X758Y756D02*
X764Y756D01*
X993Y756D02*
X1000Y756D01*
X0Y755D02*
X7Y755D01*
X711Y755D02*
X717Y755D01*
X758Y755D02*
X764Y755D01*
X993Y755D02*
X1000Y755D01*
X0Y754D02*
X7Y754D01*
X711Y754D02*
X717Y754D01*
X758Y754D02*
X764Y754D01*
X993Y754D02*
X1000Y754D01*
X0Y753D02*
X7Y753D01*
X711Y753D02*
X717Y753D01*
X758Y753D02*
X764Y753D01*
X993Y753D02*
X1000Y753D01*
X0Y752D02*
X7Y752D01*
X711Y752D02*
X717Y752D01*
X758Y752D02*
X764Y752D01*
X993Y752D02*
X1000Y752D01*
X0Y751D02*
X7Y751D01*
X711Y751D02*
X717Y751D01*
X758Y751D02*
X764Y751D01*
X993Y751D02*
X1000Y751D01*
X0Y750D02*
X7Y750D01*
X711Y750D02*
X717Y750D01*
X758Y750D02*
X764Y750D01*
X993Y750D02*
X1000Y750D01*
X0Y749D02*
X7Y749D01*
X711Y749D02*
X717Y749D01*
X758Y749D02*
X764Y749D01*
X993Y749D02*
X1000Y749D01*
X0Y748D02*
X7Y748D01*
X711Y748D02*
X717Y748D01*
X758Y748D02*
X764Y748D01*
X993Y748D02*
X1000Y748D01*
X0Y747D02*
X7Y747D01*
X711Y747D02*
X716Y747D01*
X758Y747D02*
X764Y747D01*
X993Y747D02*
X1000Y747D01*
X0Y746D02*
X7Y746D01*
X711Y746D02*
X716Y746D01*
X759Y746D02*
X763Y746D01*
X993Y746D02*
X1000Y746D01*
X0Y745D02*
X7Y745D01*
X713Y745D02*
X715Y745D01*
X760Y745D02*
X762Y745D01*
X993Y745D02*
X1000Y745D01*
X0Y744D02*
X7Y744D01*
X993Y744D02*
X1000Y744D01*
X0Y743D02*
X7Y743D01*
X993Y743D02*
X1000Y743D01*
X0Y742D02*
X7Y742D01*
X993Y742D02*
X1000Y742D01*
X0Y741D02*
X7Y741D01*
X993Y741D02*
X1000Y741D01*
X0Y740D02*
X7Y740D01*
X993Y740D02*
X1000Y740D01*
X0Y739D02*
X7Y739D01*
X993Y739D02*
X1000Y739D01*
X0Y738D02*
X7Y738D01*
X993Y738D02*
X1000Y738D01*
X0Y737D02*
X7Y737D01*
X993Y737D02*
X1000Y737D01*
X0Y736D02*
X7Y736D01*
X993Y736D02*
X1000Y736D01*
X0Y735D02*
X7Y735D01*
X993Y735D02*
X1000Y735D01*
X0Y734D02*
X7Y734D01*
X993Y734D02*
X1000Y734D01*
X0Y733D02*
X7Y733D01*
X993Y733D02*
X1000Y733D01*
X0Y732D02*
X7Y732D01*
X993Y732D02*
X1000Y732D01*
X0Y731D02*
X7Y731D01*
X993Y731D02*
X1000Y731D01*
X0Y730D02*
X7Y730D01*
X993Y730D02*
X1000Y730D01*
X0Y729D02*
X7Y729D01*
X713Y729D02*
X714Y729D01*
X760Y729D02*
X761Y729D01*
X993Y729D02*
X1000Y729D01*
X0Y728D02*
X7Y728D01*
X712Y728D02*
X716Y728D01*
X759Y728D02*
X763Y728D01*
X993Y728D02*
X1000Y728D01*
X0Y727D02*
X7Y727D01*
X711Y727D02*
X716Y727D01*
X758Y727D02*
X764Y727D01*
X993Y727D02*
X1000Y727D01*
X0Y726D02*
X7Y726D01*
X711Y726D02*
X717Y726D01*
X758Y726D02*
X764Y726D01*
X993Y726D02*
X1000Y726D01*
X0Y725D02*
X7Y725D01*
X711Y725D02*
X717Y725D01*
X758Y725D02*
X764Y725D01*
X993Y725D02*
X1000Y725D01*
X0Y724D02*
X7Y724D01*
X711Y724D02*
X717Y724D01*
X758Y724D02*
X764Y724D01*
X993Y724D02*
X1000Y724D01*
X0Y723D02*
X7Y723D01*
X711Y723D02*
X717Y723D01*
X758Y723D02*
X764Y723D01*
X993Y723D02*
X1000Y723D01*
X0Y722D02*
X7Y722D01*
X711Y722D02*
X717Y722D01*
X758Y722D02*
X764Y722D01*
X993Y722D02*
X1000Y722D01*
X0Y721D02*
X7Y721D01*
X711Y721D02*
X717Y721D01*
X758Y721D02*
X764Y721D01*
X993Y721D02*
X1000Y721D01*
X0Y720D02*
X7Y720D01*
X711Y720D02*
X717Y720D01*
X758Y720D02*
X764Y720D01*
X993Y720D02*
X1000Y720D01*
X0Y719D02*
X7Y719D01*
X711Y719D02*
X717Y719D01*
X758Y719D02*
X764Y719D01*
X993Y719D02*
X1000Y719D01*
X0Y718D02*
X7Y718D01*
X711Y718D02*
X717Y718D01*
X758Y718D02*
X764Y718D01*
X993Y718D02*
X1000Y718D01*
X0Y717D02*
X7Y717D01*
X711Y717D02*
X717Y717D01*
X758Y717D02*
X764Y717D01*
X993Y717D02*
X1000Y717D01*
X0Y716D02*
X7Y716D01*
X711Y716D02*
X717Y716D01*
X758Y716D02*
X764Y716D01*
X993Y716D02*
X1000Y716D01*
X0Y715D02*
X7Y715D01*
X711Y715D02*
X764Y715D01*
X993Y715D02*
X1000Y715D01*
X0Y714D02*
X7Y714D01*
X711Y714D02*
X764Y714D01*
X993Y714D02*
X1000Y714D01*
X0Y713D02*
X7Y713D01*
X711Y713D02*
X764Y713D01*
X993Y713D02*
X1000Y713D01*
X0Y712D02*
X7Y712D01*
X711Y712D02*
X764Y712D01*
X993Y712D02*
X1000Y712D01*
X0Y711D02*
X7Y711D01*
X711Y711D02*
X764Y711D01*
X993Y711D02*
X1000Y711D01*
X0Y710D02*
X7Y710D01*
X711Y710D02*
X764Y710D01*
X993Y710D02*
X1000Y710D01*
X0Y709D02*
X7Y709D01*
X711Y709D02*
X764Y709D01*
X993Y709D02*
X1000Y709D01*
X0Y708D02*
X7Y708D01*
X711Y708D02*
X717Y708D01*
X993Y708D02*
X1000Y708D01*
X0Y707D02*
X7Y707D01*
X711Y707D02*
X717Y707D01*
X993Y707D02*
X1000Y707D01*
X0Y706D02*
X7Y706D01*
X711Y706D02*
X717Y706D01*
X993Y706D02*
X1000Y706D01*
X0Y705D02*
X7Y705D01*
X711Y705D02*
X717Y705D01*
X993Y705D02*
X1000Y705D01*
X0Y704D02*
X7Y704D01*
X711Y704D02*
X717Y704D01*
X993Y704D02*
X1000Y704D01*
X0Y703D02*
X7Y703D01*
X711Y703D02*
X717Y703D01*
X993Y703D02*
X1000Y703D01*
X0Y702D02*
X7Y702D01*
X711Y702D02*
X717Y702D01*
X993Y702D02*
X1000Y702D01*
X0Y701D02*
X7Y701D01*
X711Y701D02*
X733Y701D01*
X993Y701D02*
X1000Y701D01*
X0Y700D02*
X7Y700D01*
X711Y700D02*
X734Y700D01*
X993Y700D02*
X1000Y700D01*
X0Y699D02*
X7Y699D01*
X711Y699D02*
X734Y699D01*
X993Y699D02*
X1000Y699D01*
X0Y698D02*
X7Y698D01*
X711Y698D02*
X734Y698D01*
X993Y698D02*
X1000Y698D01*
X0Y697D02*
X7Y697D01*
X711Y697D02*
X734Y697D01*
X993Y697D02*
X1000Y697D01*
X0Y696D02*
X7Y696D01*
X712Y696D02*
X734Y696D01*
X993Y696D02*
X1000Y696D01*
X0Y695D02*
X7Y695D01*
X713Y695D02*
X732Y695D01*
X993Y695D02*
X1000Y695D01*
X0Y694D02*
X7Y694D01*
X993Y694D02*
X1000Y694D01*
X0Y693D02*
X7Y693D01*
X993Y693D02*
X1000Y693D01*
X0Y692D02*
X7Y692D01*
X993Y692D02*
X1000Y692D01*
X0Y691D02*
X7Y691D01*
X993Y691D02*
X1000Y691D01*
X0Y690D02*
X7Y690D01*
X993Y690D02*
X1000Y690D01*
X0Y689D02*
X7Y689D01*
X993Y689D02*
X1000Y689D01*
X0Y688D02*
X7Y688D01*
X993Y688D02*
X1000Y688D01*
X0Y687D02*
X7Y687D01*
X993Y687D02*
X1000Y687D01*
X0Y686D02*
X7Y686D01*
X993Y686D02*
X1000Y686D01*
X0Y685D02*
X7Y685D01*
X993Y685D02*
X1000Y685D01*
X0Y684D02*
X7Y684D01*
X993Y684D02*
X1000Y684D01*
X0Y683D02*
X7Y683D01*
X993Y683D02*
X1000Y683D01*
X0Y682D02*
X7Y682D01*
X993Y682D02*
X1000Y682D01*
X0Y681D02*
X7Y681D01*
X993Y681D02*
X1000Y681D01*
X0Y680D02*
X7Y680D01*
X993Y680D02*
X1000Y680D01*
X0Y679D02*
X7Y679D01*
X993Y679D02*
X1000Y679D01*
X0Y678D02*
X7Y678D01*
X993Y678D02*
X1000Y678D01*
X0Y677D02*
X7Y677D01*
X993Y677D02*
X1000Y677D01*
X0Y676D02*
X7Y676D01*
X993Y676D02*
X1000Y676D01*
X0Y675D02*
X7Y675D01*
X993Y675D02*
X1000Y675D01*
X0Y674D02*
X7Y674D01*
X993Y674D02*
X1000Y674D01*
X0Y673D02*
X7Y673D01*
X993Y673D02*
X1000Y673D01*
X0Y672D02*
X7Y672D01*
X993Y672D02*
X1000Y672D01*
X0Y671D02*
X7Y671D01*
X993Y671D02*
X1000Y671D01*
X0Y670D02*
X7Y670D01*
X993Y670D02*
X1000Y670D01*
X0Y669D02*
X7Y669D01*
X993Y669D02*
X1000Y669D01*
X0Y668D02*
X7Y668D01*
X993Y668D02*
X1000Y668D01*
X0Y667D02*
X7Y667D01*
X993Y667D02*
X1000Y667D01*
X0Y666D02*
X7Y666D01*
X993Y666D02*
X1000Y666D01*
X0Y665D02*
X7Y665D01*
X993Y665D02*
X1000Y665D01*
X0Y664D02*
X7Y664D01*
X993Y664D02*
X1000Y664D01*
X0Y663D02*
X7Y663D01*
X993Y663D02*
X1000Y663D01*
X0Y662D02*
X7Y662D01*
X993Y662D02*
X1000Y662D01*
X0Y661D02*
X7Y661D01*
X993Y661D02*
X1000Y661D01*
X0Y660D02*
X7Y660D01*
X993Y660D02*
X1000Y660D01*
X0Y659D02*
X7Y659D01*
X993Y659D02*
X1000Y659D01*
X0Y658D02*
X7Y658D01*
X993Y658D02*
X1000Y658D01*
X0Y657D02*
X7Y657D01*
X993Y657D02*
X1000Y657D01*
X0Y656D02*
X7Y656D01*
X993Y656D02*
X1000Y656D01*
X0Y655D02*
X7Y655D01*
X993Y655D02*
X1000Y655D01*
X0Y654D02*
X7Y654D01*
X993Y654D02*
X1000Y654D01*
X0Y653D02*
X7Y653D01*
X993Y653D02*
X1000Y653D01*
X0Y652D02*
X7Y652D01*
X993Y652D02*
X1000Y652D01*
X0Y651D02*
X7Y651D01*
X993Y651D02*
X1000Y651D01*
X0Y650D02*
X7Y650D01*
X993Y650D02*
X1000Y650D01*
X0Y649D02*
X7Y649D01*
X993Y649D02*
X1000Y649D01*
X0Y648D02*
X7Y648D01*
X993Y648D02*
X1000Y648D01*
X0Y647D02*
X7Y647D01*
X993Y647D02*
X1000Y647D01*
X0Y646D02*
X7Y646D01*
X993Y646D02*
X1000Y646D01*
X0Y645D02*
X7Y645D01*
X993Y645D02*
X1000Y645D01*
X0Y644D02*
X7Y644D01*
X993Y644D02*
X1000Y644D01*
X0Y643D02*
X7Y643D01*
X993Y643D02*
X1000Y643D01*
X0Y642D02*
X7Y642D01*
X993Y642D02*
X1000Y642D01*
X0Y641D02*
X7Y641D01*
X993Y641D02*
X1000Y641D01*
X0Y640D02*
X7Y640D01*
X993Y640D02*
X1000Y640D01*
X0Y639D02*
X7Y639D01*
X993Y639D02*
X1000Y639D01*
X0Y638D02*
X7Y638D01*
X993Y638D02*
X1000Y638D01*
X0Y637D02*
X7Y637D01*
X993Y637D02*
X1000Y637D01*
X0Y636D02*
X7Y636D01*
X993Y636D02*
X1000Y636D01*
X0Y635D02*
X7Y635D01*
X993Y635D02*
X1000Y635D01*
X0Y634D02*
X7Y634D01*
X993Y634D02*
X1000Y634D01*
X0Y633D02*
X7Y633D01*
X993Y633D02*
X1000Y633D01*
X0Y632D02*
X7Y632D01*
X993Y632D02*
X1000Y632D01*
X0Y631D02*
X7Y631D01*
X993Y631D02*
X1000Y631D01*
X0Y630D02*
X7Y630D01*
X993Y630D02*
X1000Y630D01*
X0Y629D02*
X7Y629D01*
X993Y629D02*
X1000Y629D01*
X0Y628D02*
X7Y628D01*
X993Y628D02*
X1000Y628D01*
X0Y627D02*
X7Y627D01*
X993Y627D02*
X1000Y627D01*
X0Y626D02*
X7Y626D01*
X993Y626D02*
X1000Y626D01*
X0Y625D02*
X7Y625D01*
X993Y625D02*
X1000Y625D01*
X0Y624D02*
X7Y624D01*
X993Y624D02*
X1000Y624D01*
X0Y623D02*
X7Y623D01*
X993Y623D02*
X1000Y623D01*
X0Y622D02*
X7Y622D01*
X993Y622D02*
X1000Y622D01*
X0Y621D02*
X7Y621D01*
X993Y621D02*
X1000Y621D01*
X0Y620D02*
X7Y620D01*
X993Y620D02*
X1000Y620D01*
X0Y619D02*
X7Y619D01*
X993Y619D02*
X1000Y619D01*
X0Y618D02*
X7Y618D01*
X993Y618D02*
X1000Y618D01*
X0Y617D02*
X7Y617D01*
X993Y617D02*
X1000Y617D01*
X0Y616D02*
X7Y616D01*
X993Y616D02*
X1000Y616D01*
X0Y615D02*
X7Y615D01*
X993Y615D02*
X1000Y615D01*
X0Y614D02*
X7Y614D01*
X993Y614D02*
X1000Y614D01*
X0Y613D02*
X7Y613D01*
X993Y613D02*
X1000Y613D01*
X0Y612D02*
X7Y612D01*
X993Y612D02*
X1000Y612D01*
X0Y611D02*
X7Y611D01*
X993Y611D02*
X1000Y611D01*
X0Y610D02*
X7Y610D01*
X993Y610D02*
X1000Y610D01*
X0Y609D02*
X7Y609D01*
X993Y609D02*
X1000Y609D01*
X0Y608D02*
X7Y608D01*
X993Y608D02*
X1000Y608D01*
X0Y607D02*
X7Y607D01*
X993Y607D02*
X1000Y607D01*
X0Y606D02*
X7Y606D01*
X993Y606D02*
X1000Y606D01*
X0Y605D02*
X7Y605D01*
X797Y605D02*
X800Y605D01*
X825Y605D02*
X828Y605D01*
X847Y605D02*
X878Y605D01*
X993Y605D02*
X1000Y605D01*
X0Y604D02*
X7Y604D01*
X796Y604D02*
X801Y604D01*
X824Y604D02*
X829Y604D01*
X846Y604D02*
X879Y604D01*
X993Y604D02*
X1000Y604D01*
X0Y603D02*
X7Y603D01*
X796Y603D02*
X802Y603D01*
X823Y603D02*
X829Y603D01*
X846Y603D02*
X879Y603D01*
X993Y603D02*
X1000Y603D01*
X0Y602D02*
X7Y602D01*
X796Y602D02*
X802Y602D01*
X823Y602D02*
X829Y602D01*
X846Y602D02*
X879Y602D01*
X993Y602D02*
X1000Y602D01*
X0Y601D02*
X7Y601D01*
X796Y601D02*
X802Y601D01*
X823Y601D02*
X829Y601D01*
X846Y601D02*
X879Y601D01*
X993Y601D02*
X1000Y601D01*
X0Y600D02*
X7Y600D01*
X796Y600D02*
X802Y600D01*
X823Y600D02*
X829Y600D01*
X846Y600D02*
X879Y600D01*
X993Y600D02*
X1000Y600D01*
X0Y599D02*
X7Y599D01*
X796Y599D02*
X802Y599D01*
X823Y599D02*
X829Y599D01*
X846Y599D02*
X879Y599D01*
X993Y599D02*
X1000Y599D01*
X0Y598D02*
X7Y598D01*
X796Y598D02*
X802Y598D01*
X823Y598D02*
X829Y598D01*
X846Y598D02*
X852Y598D01*
X873Y598D02*
X879Y598D01*
X993Y598D02*
X1000Y598D01*
X0Y597D02*
X7Y597D01*
X796Y597D02*
X802Y597D01*
X823Y597D02*
X829Y597D01*
X846Y597D02*
X852Y597D01*
X873Y597D02*
X879Y597D01*
X993Y597D02*
X1000Y597D01*
X0Y596D02*
X7Y596D01*
X796Y596D02*
X802Y596D01*
X823Y596D02*
X829Y596D01*
X846Y596D02*
X852Y596D01*
X873Y596D02*
X879Y596D01*
X993Y596D02*
X1000Y596D01*
X0Y595D02*
X7Y595D01*
X796Y595D02*
X802Y595D01*
X823Y595D02*
X829Y595D01*
X846Y595D02*
X852Y595D01*
X873Y595D02*
X879Y595D01*
X993Y595D02*
X1000Y595D01*
X0Y594D02*
X7Y594D01*
X796Y594D02*
X802Y594D01*
X823Y594D02*
X829Y594D01*
X846Y594D02*
X852Y594D01*
X873Y594D02*
X879Y594D01*
X993Y594D02*
X1000Y594D01*
X0Y593D02*
X7Y593D01*
X796Y593D02*
X802Y593D01*
X823Y593D02*
X829Y593D01*
X846Y593D02*
X852Y593D01*
X873Y593D02*
X879Y593D01*
X993Y593D02*
X1000Y593D01*
X0Y592D02*
X7Y592D01*
X796Y592D02*
X802Y592D01*
X823Y592D02*
X829Y592D01*
X846Y592D02*
X852Y592D01*
X873Y592D02*
X879Y592D01*
X993Y592D02*
X1000Y592D01*
X0Y591D02*
X7Y591D01*
X796Y591D02*
X802Y591D01*
X823Y591D02*
X829Y591D01*
X846Y591D02*
X852Y591D01*
X873Y591D02*
X879Y591D01*
X993Y591D02*
X1000Y591D01*
X0Y590D02*
X7Y590D01*
X796Y590D02*
X802Y590D01*
X823Y590D02*
X829Y590D01*
X846Y590D02*
X852Y590D01*
X873Y590D02*
X879Y590D01*
X993Y590D02*
X1000Y590D01*
X0Y589D02*
X7Y589D01*
X796Y589D02*
X802Y589D01*
X823Y589D02*
X829Y589D01*
X846Y589D02*
X852Y589D01*
X873Y589D02*
X879Y589D01*
X993Y589D02*
X1000Y589D01*
X0Y588D02*
X7Y588D01*
X796Y588D02*
X802Y588D01*
X823Y588D02*
X829Y588D01*
X846Y588D02*
X852Y588D01*
X873Y588D02*
X879Y588D01*
X993Y588D02*
X1000Y588D01*
X0Y587D02*
X7Y587D01*
X796Y587D02*
X802Y587D01*
X823Y587D02*
X829Y587D01*
X846Y587D02*
X879Y587D01*
X993Y587D02*
X1000Y587D01*
X0Y586D02*
X7Y586D01*
X796Y586D02*
X802Y586D01*
X823Y586D02*
X829Y586D01*
X846Y586D02*
X879Y586D01*
X993Y586D02*
X1000Y586D01*
X0Y585D02*
X7Y585D01*
X796Y585D02*
X802Y585D01*
X823Y585D02*
X829Y585D01*
X846Y585D02*
X879Y585D01*
X993Y585D02*
X1000Y585D01*
X0Y584D02*
X7Y584D01*
X796Y584D02*
X802Y584D01*
X823Y584D02*
X829Y584D01*
X846Y584D02*
X879Y584D01*
X993Y584D02*
X1000Y584D01*
X0Y583D02*
X7Y583D01*
X796Y583D02*
X802Y583D01*
X823Y583D02*
X829Y583D01*
X846Y583D02*
X879Y583D01*
X993Y583D02*
X1000Y583D01*
X0Y582D02*
X7Y582D01*
X796Y582D02*
X802Y582D01*
X823Y582D02*
X829Y582D01*
X847Y582D02*
X879Y582D01*
X993Y582D02*
X1000Y582D01*
X0Y581D02*
X7Y581D01*
X796Y581D02*
X802Y581D01*
X823Y581D02*
X829Y581D01*
X849Y581D02*
X879Y581D01*
X993Y581D02*
X1000Y581D01*
X0Y580D02*
X7Y580D01*
X796Y580D02*
X802Y580D01*
X823Y580D02*
X829Y580D01*
X873Y580D02*
X879Y580D01*
X993Y580D02*
X1000Y580D01*
X0Y579D02*
X7Y579D01*
X796Y579D02*
X802Y579D01*
X823Y579D02*
X829Y579D01*
X873Y579D02*
X879Y579D01*
X993Y579D02*
X1000Y579D01*
X0Y578D02*
X7Y578D01*
X796Y578D02*
X802Y578D01*
X823Y578D02*
X829Y578D01*
X873Y578D02*
X879Y578D01*
X993Y578D02*
X1000Y578D01*
X0Y577D02*
X7Y577D01*
X796Y577D02*
X802Y577D01*
X823Y577D02*
X829Y577D01*
X873Y577D02*
X879Y577D01*
X993Y577D02*
X1000Y577D01*
X0Y576D02*
X7Y576D01*
X796Y576D02*
X802Y576D01*
X823Y576D02*
X829Y576D01*
X873Y576D02*
X879Y576D01*
X993Y576D02*
X1000Y576D01*
X0Y575D02*
X7Y575D01*
X796Y575D02*
X802Y575D01*
X823Y575D02*
X829Y575D01*
X873Y575D02*
X879Y575D01*
X993Y575D02*
X1000Y575D01*
X0Y574D02*
X7Y574D01*
X796Y574D02*
X802Y574D01*
X823Y574D02*
X829Y574D01*
X873Y574D02*
X879Y574D01*
X993Y574D02*
X1000Y574D01*
X0Y573D02*
X7Y573D01*
X796Y573D02*
X802Y573D01*
X823Y573D02*
X829Y573D01*
X873Y573D02*
X879Y573D01*
X993Y573D02*
X1000Y573D01*
X0Y572D02*
X7Y572D01*
X796Y572D02*
X802Y572D01*
X823Y572D02*
X829Y572D01*
X873Y572D02*
X879Y572D01*
X993Y572D02*
X1000Y572D01*
X0Y571D02*
X7Y571D01*
X796Y571D02*
X802Y571D01*
X823Y571D02*
X829Y571D01*
X873Y571D02*
X879Y571D01*
X993Y571D02*
X1000Y571D01*
X0Y570D02*
X7Y570D01*
X796Y570D02*
X802Y570D01*
X823Y570D02*
X829Y570D01*
X873Y570D02*
X879Y570D01*
X993Y570D02*
X1000Y570D01*
X0Y569D02*
X7Y569D01*
X796Y569D02*
X802Y569D01*
X823Y569D02*
X829Y569D01*
X873Y569D02*
X879Y569D01*
X993Y569D02*
X1000Y569D01*
X0Y568D02*
X7Y568D01*
X796Y568D02*
X802Y568D01*
X823Y568D02*
X829Y568D01*
X873Y568D02*
X879Y568D01*
X993Y568D02*
X1000Y568D01*
X0Y567D02*
X7Y567D01*
X796Y567D02*
X802Y567D01*
X823Y567D02*
X829Y567D01*
X873Y567D02*
X879Y567D01*
X993Y567D02*
X1000Y567D01*
X0Y566D02*
X7Y566D01*
X796Y566D02*
X802Y566D01*
X823Y566D02*
X829Y566D01*
X873Y566D02*
X879Y566D01*
X993Y566D02*
X1000Y566D01*
X0Y565D02*
X7Y565D01*
X796Y565D02*
X802Y565D01*
X823Y565D02*
X829Y565D01*
X873Y565D02*
X879Y565D01*
X993Y565D02*
X1000Y565D01*
X0Y564D02*
X7Y564D01*
X796Y564D02*
X802Y564D01*
X823Y564D02*
X829Y564D01*
X873Y564D02*
X879Y564D01*
X993Y564D02*
X1000Y564D01*
X0Y563D02*
X7Y563D01*
X796Y563D02*
X802Y563D01*
X823Y563D02*
X829Y563D01*
X873Y563D02*
X879Y563D01*
X993Y563D02*
X1000Y563D01*
X0Y562D02*
X7Y562D01*
X796Y562D02*
X802Y562D01*
X823Y562D02*
X829Y562D01*
X873Y562D02*
X879Y562D01*
X993Y562D02*
X1000Y562D01*
X0Y561D02*
X7Y561D01*
X796Y561D02*
X802Y561D01*
X823Y561D02*
X829Y561D01*
X873Y561D02*
X879Y561D01*
X993Y561D02*
X1000Y561D01*
X0Y560D02*
X7Y560D01*
X796Y560D02*
X802Y560D01*
X823Y560D02*
X829Y560D01*
X873Y560D02*
X879Y560D01*
X993Y560D02*
X1000Y560D01*
X0Y559D02*
X7Y559D01*
X796Y559D02*
X803Y559D01*
X821Y559D02*
X829Y559D01*
X873Y559D02*
X879Y559D01*
X993Y559D02*
X1000Y559D01*
X0Y558D02*
X7Y558D01*
X796Y558D02*
X828Y558D01*
X872Y558D02*
X879Y558D01*
X993Y558D02*
X1000Y558D01*
X0Y557D02*
X7Y557D01*
X797Y557D02*
X828Y557D01*
X870Y557D02*
X879Y557D01*
X993Y557D02*
X1000Y557D01*
X0Y556D02*
X7Y556D01*
X798Y556D02*
X827Y556D01*
X870Y556D02*
X879Y556D01*
X993Y556D02*
X1000Y556D01*
X0Y555D02*
X7Y555D01*
X798Y555D02*
X826Y555D01*
X870Y555D02*
X879Y555D01*
X993Y555D02*
X1000Y555D01*
X0Y554D02*
X7Y554D01*
X799Y554D02*
X825Y554D01*
X870Y554D02*
X879Y554D01*
X993Y554D02*
X1000Y554D01*
X0Y553D02*
X7Y553D01*
X801Y553D02*
X824Y553D01*
X870Y553D02*
X879Y553D01*
X993Y553D02*
X1000Y553D01*
X0Y552D02*
X7Y552D01*
X803Y552D02*
X822Y552D01*
X871Y552D02*
X877Y552D01*
X993Y552D02*
X1000Y552D01*
X0Y551D02*
X7Y551D01*
X993Y551D02*
X1000Y551D01*
X0Y550D02*
X7Y550D01*
X993Y550D02*
X1000Y550D01*
X0Y549D02*
X7Y549D01*
X993Y549D02*
X1000Y549D01*
X0Y548D02*
X7Y548D01*
X993Y548D02*
X1000Y548D01*
X0Y547D02*
X7Y547D01*
X993Y547D02*
X1000Y547D01*
X0Y546D02*
X7Y546D01*
X993Y546D02*
X1000Y546D01*
X0Y545D02*
X7Y545D01*
X993Y545D02*
X1000Y545D01*
X0Y544D02*
X7Y544D01*
X993Y544D02*
X1000Y544D01*
X0Y543D02*
X7Y543D01*
X993Y543D02*
X1000Y543D01*
X0Y542D02*
X7Y542D01*
X993Y542D02*
X1000Y542D01*
X0Y541D02*
X7Y541D01*
X993Y541D02*
X1000Y541D01*
X0Y540D02*
X7Y540D01*
X993Y540D02*
X1000Y540D01*
X0Y539D02*
X7Y539D01*
X993Y539D02*
X1000Y539D01*
X0Y538D02*
X7Y538D01*
X993Y538D02*
X1000Y538D01*
X0Y537D02*
X7Y537D01*
X993Y537D02*
X1000Y537D01*
X0Y536D02*
X7Y536D01*
X993Y536D02*
X1000Y536D01*
X0Y535D02*
X7Y535D01*
X993Y535D02*
X1000Y535D01*
X0Y534D02*
X7Y534D01*
X993Y534D02*
X1000Y534D01*
X0Y533D02*
X7Y533D01*
X993Y533D02*
X1000Y533D01*
X0Y532D02*
X7Y532D01*
X993Y532D02*
X1000Y532D01*
X0Y531D02*
X7Y531D01*
X993Y531D02*
X1000Y531D01*
X0Y530D02*
X7Y530D01*
X993Y530D02*
X1000Y530D01*
X0Y529D02*
X7Y529D01*
X993Y529D02*
X1000Y529D01*
X0Y528D02*
X7Y528D01*
X993Y528D02*
X1000Y528D01*
X0Y527D02*
X7Y527D01*
X993Y527D02*
X1000Y527D01*
X0Y526D02*
X7Y526D01*
X993Y526D02*
X1000Y526D01*
X0Y525D02*
X7Y525D01*
X182Y525D02*
X785Y525D01*
X993Y525D02*
X1000Y525D01*
X0Y524D02*
X7Y524D01*
X181Y524D02*
X786Y524D01*
X993Y524D02*
X1000Y524D01*
X0Y523D02*
X7Y523D01*
X180Y523D02*
X787Y523D01*
X993Y523D02*
X1000Y523D01*
X0Y522D02*
X7Y522D01*
X180Y522D02*
X787Y522D01*
X993Y522D02*
X1000Y522D01*
X0Y521D02*
X7Y521D01*
X180Y521D02*
X787Y521D01*
X993Y521D02*
X1000Y521D01*
X0Y520D02*
X7Y520D01*
X181Y520D02*
X307Y520D01*
X311Y520D02*
X407Y520D01*
X411Y520D02*
X507Y520D01*
X510Y520D02*
X607Y520D01*
X610Y520D02*
X786Y520D01*
X993Y520D02*
X1000Y520D01*
X0Y519D02*
X7Y519D01*
X181Y519D02*
X299Y519D01*
X318Y519D02*
X399Y519D01*
X418Y519D02*
X499Y519D01*
X518Y519D02*
X599Y519D01*
X618Y519D02*
X786Y519D01*
X993Y519D02*
X1000Y519D01*
X0Y518D02*
X7Y518D01*
X183Y518D02*
X295Y518D01*
X322Y518D02*
X395Y518D01*
X422Y518D02*
X495Y518D01*
X522Y518D02*
X595Y518D01*
X622Y518D02*
X784Y518D01*
X993Y518D02*
X1000Y518D01*
X0Y517D02*
X7Y517D01*
X993Y517D02*
X1000Y517D01*
X0Y516D02*
X7Y516D01*
X993Y516D02*
X1000Y516D01*
X0Y515D02*
X7Y515D01*
X993Y515D02*
X1000Y515D01*
X0Y514D02*
X7Y514D01*
X993Y514D02*
X1000Y514D01*
X0Y513D02*
X7Y513D01*
X993Y513D02*
X1000Y513D01*
X0Y512D02*
X7Y512D01*
X993Y512D02*
X1000Y512D01*
X0Y511D02*
X7Y511D01*
X993Y511D02*
X1000Y511D01*
X0Y510D02*
X7Y510D01*
X993Y510D02*
X1000Y510D01*
X0Y509D02*
X7Y509D01*
X993Y509D02*
X1000Y509D01*
X0Y508D02*
X7Y508D01*
X993Y508D02*
X1000Y508D01*
X0Y507D02*
X7Y507D01*
X993Y507D02*
X1000Y507D01*
X0Y506D02*
X7Y506D01*
X993Y506D02*
X1000Y506D01*
X0Y505D02*
X7Y505D01*
X993Y505D02*
X1000Y505D01*
X0Y504D02*
X7Y504D01*
X993Y504D02*
X1000Y504D01*
X0Y503D02*
X7Y503D01*
X993Y503D02*
X1000Y503D01*
X0Y502D02*
X7Y502D01*
X993Y502D02*
X1000Y502D01*
X0Y501D02*
X7Y501D01*
X993Y501D02*
X1000Y501D01*
X0Y500D02*
X7Y500D01*
X993Y500D02*
X1000Y500D01*
X0Y499D02*
X7Y499D01*
X993Y499D02*
X1000Y499D01*
X0Y498D02*
X7Y498D01*
X993Y498D02*
X1000Y498D01*
X0Y497D02*
X7Y497D01*
X993Y497D02*
X1000Y497D01*
X0Y496D02*
X7Y496D01*
X993Y496D02*
X1000Y496D01*
X0Y495D02*
X7Y495D01*
X993Y495D02*
X1000Y495D01*
X0Y494D02*
X7Y494D01*
X993Y494D02*
X1000Y494D01*
X0Y493D02*
X7Y493D01*
X993Y493D02*
X1000Y493D01*
X0Y492D02*
X7Y492D01*
X993Y492D02*
X1000Y492D01*
X0Y491D02*
X7Y491D01*
X993Y491D02*
X1000Y491D01*
X0Y490D02*
X7Y490D01*
X993Y490D02*
X1000Y490D01*
X0Y489D02*
X7Y489D01*
X993Y489D02*
X1000Y489D01*
X0Y488D02*
X7Y488D01*
X993Y488D02*
X1000Y488D01*
X0Y487D02*
X7Y487D01*
X993Y487D02*
X1000Y487D01*
X0Y486D02*
X7Y486D01*
X993Y486D02*
X1000Y486D01*
X0Y485D02*
X7Y485D01*
X993Y485D02*
X1000Y485D01*
X0Y484D02*
X7Y484D01*
X993Y484D02*
X1000Y484D01*
X0Y483D02*
X7Y483D01*
X993Y483D02*
X1000Y483D01*
X0Y482D02*
X7Y482D01*
X993Y482D02*
X1000Y482D01*
X0Y481D02*
X7Y481D01*
X993Y481D02*
X1000Y481D01*
X0Y480D02*
X7Y480D01*
X993Y480D02*
X1000Y480D01*
X0Y479D02*
X7Y479D01*
X993Y479D02*
X1000Y479D01*
X0Y478D02*
X7Y478D01*
X993Y478D02*
X1000Y478D01*
X0Y477D02*
X7Y477D01*
X993Y477D02*
X1000Y477D01*
X0Y476D02*
X7Y476D01*
X993Y476D02*
X1000Y476D01*
X0Y475D02*
X7Y475D01*
X993Y475D02*
X1000Y475D01*
X0Y474D02*
X7Y474D01*
X993Y474D02*
X1000Y474D01*
X0Y473D02*
X7Y473D01*
X993Y473D02*
X1000Y473D01*
X0Y472D02*
X7Y472D01*
X993Y472D02*
X1000Y472D01*
X0Y471D02*
X7Y471D01*
X993Y471D02*
X1000Y471D01*
X0Y470D02*
X7Y470D01*
X993Y470D02*
X1000Y470D01*
X0Y469D02*
X7Y469D01*
X993Y469D02*
X1000Y469D01*
X0Y468D02*
X7Y468D01*
X993Y468D02*
X1000Y468D01*
X0Y467D02*
X7Y467D01*
X993Y467D02*
X1000Y467D01*
X0Y466D02*
X7Y466D01*
X993Y466D02*
X1000Y466D01*
X0Y465D02*
X7Y465D01*
X993Y465D02*
X1000Y465D01*
X0Y464D02*
X7Y464D01*
X993Y464D02*
X1000Y464D01*
X0Y463D02*
X7Y463D01*
X993Y463D02*
X1000Y463D01*
X0Y462D02*
X7Y462D01*
X993Y462D02*
X1000Y462D01*
X0Y461D02*
X7Y461D01*
X993Y461D02*
X1000Y461D01*
X0Y460D02*
X7Y460D01*
X993Y460D02*
X1000Y460D01*
X0Y459D02*
X7Y459D01*
X993Y459D02*
X1000Y459D01*
X0Y458D02*
X7Y458D01*
X993Y458D02*
X1000Y458D01*
X0Y457D02*
X7Y457D01*
X993Y457D02*
X1000Y457D01*
X0Y456D02*
X7Y456D01*
X993Y456D02*
X1000Y456D01*
X0Y455D02*
X7Y455D01*
X993Y455D02*
X1000Y455D01*
X0Y454D02*
X7Y454D01*
X993Y454D02*
X1000Y454D01*
X0Y453D02*
X7Y453D01*
X993Y453D02*
X1000Y453D01*
X0Y452D02*
X7Y452D01*
X993Y452D02*
X1000Y452D01*
X0Y451D02*
X7Y451D01*
X993Y451D02*
X1000Y451D01*
X0Y450D02*
X7Y450D01*
X993Y450D02*
X1000Y450D01*
X0Y449D02*
X7Y449D01*
X993Y449D02*
X1000Y449D01*
X0Y448D02*
X7Y448D01*
X993Y448D02*
X1000Y448D01*
X0Y447D02*
X7Y447D01*
X993Y447D02*
X1000Y447D01*
X0Y446D02*
X7Y446D01*
X993Y446D02*
X1000Y446D01*
X0Y445D02*
X7Y445D01*
X993Y445D02*
X1000Y445D01*
X0Y444D02*
X7Y444D01*
X993Y444D02*
X1000Y444D01*
X0Y443D02*
X7Y443D01*
X993Y443D02*
X1000Y443D01*
X0Y442D02*
X7Y442D01*
X993Y442D02*
X1000Y442D01*
X0Y441D02*
X7Y441D01*
X993Y441D02*
X1000Y441D01*
X0Y440D02*
X7Y440D01*
X993Y440D02*
X1000Y440D01*
X0Y439D02*
X7Y439D01*
X993Y439D02*
X1000Y439D01*
X0Y438D02*
X7Y438D01*
X993Y438D02*
X1000Y438D01*
X0Y437D02*
X7Y437D01*
X993Y437D02*
X1000Y437D01*
X0Y436D02*
X7Y436D01*
X993Y436D02*
X1000Y436D01*
X0Y435D02*
X7Y435D01*
X993Y435D02*
X1000Y435D01*
X0Y434D02*
X7Y434D01*
X993Y434D02*
X1000Y434D01*
X0Y433D02*
X7Y433D01*
X993Y433D02*
X1000Y433D01*
X0Y432D02*
X7Y432D01*
X993Y432D02*
X1000Y432D01*
X0Y431D02*
X7Y431D01*
X993Y431D02*
X1000Y431D01*
X0Y430D02*
X7Y430D01*
X993Y430D02*
X1000Y430D01*
X0Y429D02*
X7Y429D01*
X993Y429D02*
X1000Y429D01*
X0Y428D02*
X7Y428D01*
X993Y428D02*
X1000Y428D01*
X0Y427D02*
X7Y427D01*
X993Y427D02*
X1000Y427D01*
X0Y426D02*
X7Y426D01*
X993Y426D02*
X1000Y426D01*
X0Y425D02*
X7Y425D01*
X993Y425D02*
X1000Y425D01*
X0Y424D02*
X7Y424D01*
X993Y424D02*
X1000Y424D01*
X0Y423D02*
X7Y423D01*
X993Y423D02*
X1000Y423D01*
X0Y422D02*
X7Y422D01*
X993Y422D02*
X1000Y422D01*
X0Y421D02*
X7Y421D01*
X993Y421D02*
X1000Y421D01*
X0Y420D02*
X7Y420D01*
X993Y420D02*
X1000Y420D01*
X0Y419D02*
X7Y419D01*
X993Y419D02*
X1000Y419D01*
X0Y418D02*
X7Y418D01*
X993Y418D02*
X1000Y418D01*
X0Y417D02*
X7Y417D01*
X993Y417D02*
X1000Y417D01*
X0Y416D02*
X7Y416D01*
X993Y416D02*
X1000Y416D01*
X0Y415D02*
X7Y415D01*
X993Y415D02*
X1000Y415D01*
X0Y414D02*
X7Y414D01*
X993Y414D02*
X1000Y414D01*
X0Y413D02*
X7Y413D01*
X993Y413D02*
X1000Y413D01*
X0Y412D02*
X7Y412D01*
X993Y412D02*
X1000Y412D01*
X0Y411D02*
X7Y411D01*
X993Y411D02*
X1000Y411D01*
X0Y410D02*
X7Y410D01*
X993Y410D02*
X1000Y410D01*
X0Y409D02*
X7Y409D01*
X993Y409D02*
X1000Y409D01*
X0Y408D02*
X7Y408D01*
X993Y408D02*
X1000Y408D01*
X0Y407D02*
X7Y407D01*
X993Y407D02*
X1000Y407D01*
X0Y406D02*
X7Y406D01*
X993Y406D02*
X1000Y406D01*
X0Y405D02*
X7Y405D01*
X993Y405D02*
X1000Y405D01*
X0Y404D02*
X7Y404D01*
X993Y404D02*
X1000Y404D01*
X0Y403D02*
X7Y403D01*
X993Y403D02*
X1000Y403D01*
X0Y402D02*
X7Y402D01*
X993Y402D02*
X1000Y402D01*
X0Y401D02*
X7Y401D01*
X993Y401D02*
X1000Y401D01*
X0Y400D02*
X7Y400D01*
X993Y400D02*
X1000Y400D01*
X0Y399D02*
X7Y399D01*
X993Y399D02*
X1000Y399D01*
X0Y398D02*
X7Y398D01*
X993Y398D02*
X1000Y398D01*
X0Y397D02*
X7Y397D01*
X993Y397D02*
X1000Y397D01*
X0Y396D02*
X7Y396D01*
X993Y396D02*
X1000Y396D01*
X0Y395D02*
X7Y395D01*
X993Y395D02*
X1000Y395D01*
X0Y394D02*
X7Y394D01*
X993Y394D02*
X1000Y394D01*
X0Y393D02*
X7Y393D01*
X993Y393D02*
X1000Y393D01*
X0Y392D02*
X7Y392D01*
X993Y392D02*
X1000Y392D01*
X0Y391D02*
X7Y391D01*
X993Y391D02*
X1000Y391D01*
X0Y390D02*
X7Y390D01*
X993Y390D02*
X1000Y390D01*
X0Y389D02*
X7Y389D01*
X993Y389D02*
X1000Y389D01*
X0Y388D02*
X7Y388D01*
X993Y388D02*
X1000Y388D01*
X0Y387D02*
X7Y387D01*
X993Y387D02*
X1000Y387D01*
X0Y386D02*
X7Y386D01*
X993Y386D02*
X1000Y386D01*
X0Y385D02*
X7Y385D01*
X993Y385D02*
X1000Y385D01*
X0Y384D02*
X7Y384D01*
X993Y384D02*
X1000Y384D01*
X0Y383D02*
X7Y383D01*
X993Y383D02*
X1000Y383D01*
X0Y382D02*
X7Y382D01*
X993Y382D02*
X1000Y382D01*
X0Y381D02*
X7Y381D01*
X993Y381D02*
X1000Y381D01*
X0Y380D02*
X7Y380D01*
X993Y380D02*
X1000Y380D01*
X0Y379D02*
X7Y379D01*
X993Y379D02*
X1000Y379D01*
X0Y378D02*
X7Y378D01*
X993Y378D02*
X1000Y378D01*
X0Y377D02*
X7Y377D01*
X993Y377D02*
X1000Y377D01*
X0Y376D02*
X7Y376D01*
X993Y376D02*
X1000Y376D01*
X0Y375D02*
X7Y375D01*
X993Y375D02*
X1000Y375D01*
X0Y374D02*
X7Y374D01*
X993Y374D02*
X1000Y374D01*
X0Y373D02*
X7Y373D01*
X993Y373D02*
X1000Y373D01*
X0Y372D02*
X7Y372D01*
X993Y372D02*
X1000Y372D01*
X0Y371D02*
X7Y371D01*
X993Y371D02*
X1000Y371D01*
X0Y370D02*
X7Y370D01*
X993Y370D02*
X1000Y370D01*
X0Y369D02*
X7Y369D01*
X993Y369D02*
X1000Y369D01*
X0Y368D02*
X7Y368D01*
X993Y368D02*
X1000Y368D01*
X0Y367D02*
X7Y367D01*
X993Y367D02*
X1000Y367D01*
X0Y366D02*
X7Y366D01*
X993Y366D02*
X1000Y366D01*
X0Y365D02*
X7Y365D01*
X993Y365D02*
X1000Y365D01*
X0Y364D02*
X7Y364D01*
X993Y364D02*
X1000Y364D01*
X0Y363D02*
X7Y363D01*
X993Y363D02*
X1000Y363D01*
X0Y362D02*
X7Y362D01*
X993Y362D02*
X1000Y362D01*
X0Y361D02*
X7Y361D01*
X993Y361D02*
X1000Y361D01*
X0Y360D02*
X7Y360D01*
X993Y360D02*
X1000Y360D01*
X0Y359D02*
X7Y359D01*
X993Y359D02*
X1000Y359D01*
X0Y358D02*
X7Y358D01*
X993Y358D02*
X1000Y358D01*
X0Y357D02*
X7Y357D01*
X993Y357D02*
X1000Y357D01*
X0Y356D02*
X7Y356D01*
X993Y356D02*
X1000Y356D01*
X0Y355D02*
X7Y355D01*
X993Y355D02*
X1000Y355D01*
X0Y354D02*
X7Y354D01*
X993Y354D02*
X1000Y354D01*
X0Y353D02*
X7Y353D01*
X993Y353D02*
X1000Y353D01*
X0Y352D02*
X7Y352D01*
X993Y352D02*
X1000Y352D01*
X0Y351D02*
X7Y351D01*
X993Y351D02*
X1000Y351D01*
X0Y350D02*
X7Y350D01*
X993Y350D02*
X1000Y350D01*
X0Y349D02*
X7Y349D01*
X993Y349D02*
X1000Y349D01*
X0Y348D02*
X7Y348D01*
X993Y348D02*
X1000Y348D01*
X0Y347D02*
X7Y347D01*
X993Y347D02*
X1000Y347D01*
X0Y346D02*
X7Y346D01*
X993Y346D02*
X1000Y346D01*
X0Y345D02*
X7Y345D01*
X993Y345D02*
X1000Y345D01*
X0Y344D02*
X7Y344D01*
X993Y344D02*
X1000Y344D01*
X0Y343D02*
X7Y343D01*
X993Y343D02*
X1000Y343D01*
X0Y342D02*
X7Y342D01*
X993Y342D02*
X1000Y342D01*
X0Y341D02*
X7Y341D01*
X993Y341D02*
X1000Y341D01*
X0Y340D02*
X7Y340D01*
X993Y340D02*
X1000Y340D01*
X0Y339D02*
X7Y339D01*
X993Y339D02*
X1000Y339D01*
X0Y338D02*
X7Y338D01*
X993Y338D02*
X1000Y338D01*
X0Y337D02*
X7Y337D01*
X993Y337D02*
X1000Y337D01*
X0Y336D02*
X7Y336D01*
X993Y336D02*
X1000Y336D01*
X0Y335D02*
X7Y335D01*
X993Y335D02*
X1000Y335D01*
X0Y334D02*
X7Y334D01*
X993Y334D02*
X1000Y334D01*
X0Y333D02*
X7Y333D01*
X993Y333D02*
X1000Y333D01*
X0Y332D02*
X7Y332D01*
X993Y332D02*
X1000Y332D01*
X0Y331D02*
X7Y331D01*
X993Y331D02*
X1000Y331D01*
X0Y330D02*
X7Y330D01*
X993Y330D02*
X1000Y330D01*
X0Y329D02*
X7Y329D01*
X993Y329D02*
X1000Y329D01*
X0Y328D02*
X7Y328D01*
X993Y328D02*
X1000Y328D01*
X0Y327D02*
X7Y327D01*
X993Y327D02*
X1000Y327D01*
X0Y326D02*
X7Y326D01*
X993Y326D02*
X1000Y326D01*
X0Y325D02*
X7Y325D01*
X993Y325D02*
X1000Y325D01*
X0Y324D02*
X7Y324D01*
X993Y324D02*
X1000Y324D01*
X0Y323D02*
X7Y323D01*
X993Y323D02*
X1000Y323D01*
X0Y322D02*
X7Y322D01*
X993Y322D02*
X1000Y322D01*
X0Y321D02*
X7Y321D01*
X993Y321D02*
X1000Y321D01*
X0Y320D02*
X7Y320D01*
X993Y320D02*
X1000Y320D01*
X0Y319D02*
X7Y319D01*
X993Y319D02*
X1000Y319D01*
X0Y318D02*
X7Y318D01*
X993Y318D02*
X1000Y318D01*
X0Y317D02*
X7Y317D01*
X993Y317D02*
X1000Y317D01*
X0Y316D02*
X7Y316D01*
X993Y316D02*
X1000Y316D01*
X0Y315D02*
X7Y315D01*
X993Y315D02*
X1000Y315D01*
X0Y314D02*
X7Y314D01*
X993Y314D02*
X1000Y314D01*
X0Y313D02*
X7Y313D01*
X993Y313D02*
X1000Y313D01*
X0Y312D02*
X7Y312D01*
X993Y312D02*
X1000Y312D01*
X0Y311D02*
X7Y311D01*
X993Y311D02*
X1000Y311D01*
X0Y310D02*
X7Y310D01*
X993Y310D02*
X1000Y310D01*
X0Y309D02*
X7Y309D01*
X993Y309D02*
X1000Y309D01*
X0Y308D02*
X7Y308D01*
X993Y308D02*
X1000Y308D01*
X0Y307D02*
X7Y307D01*
X993Y307D02*
X1000Y307D01*
X0Y306D02*
X7Y306D01*
X993Y306D02*
X1000Y306D01*
X0Y305D02*
X7Y305D01*
X993Y305D02*
X1000Y305D01*
X0Y304D02*
X7Y304D01*
X993Y304D02*
X1000Y304D01*
X0Y303D02*
X7Y303D01*
X993Y303D02*
X1000Y303D01*
X0Y302D02*
X7Y302D01*
X993Y302D02*
X1000Y302D01*
X0Y301D02*
X7Y301D01*
X993Y301D02*
X1000Y301D01*
X0Y300D02*
X7Y300D01*
X993Y300D02*
X1000Y300D01*
X0Y299D02*
X7Y299D01*
X993Y299D02*
X1000Y299D01*
X0Y298D02*
X7Y298D01*
X993Y298D02*
X1000Y298D01*
X0Y297D02*
X7Y297D01*
X993Y297D02*
X1000Y297D01*
X0Y296D02*
X7Y296D01*
X993Y296D02*
X1000Y296D01*
X0Y295D02*
X7Y295D01*
X993Y295D02*
X1000Y295D01*
X0Y294D02*
X7Y294D01*
X993Y294D02*
X1000Y294D01*
X0Y293D02*
X7Y293D01*
X993Y293D02*
X1000Y293D01*
X0Y292D02*
X7Y292D01*
X993Y292D02*
X1000Y292D01*
X0Y291D02*
X7Y291D01*
X993Y291D02*
X1000Y291D01*
X0Y290D02*
X7Y290D01*
X993Y290D02*
X1000Y290D01*
X0Y289D02*
X7Y289D01*
X993Y289D02*
X1000Y289D01*
X0Y288D02*
X7Y288D01*
X993Y288D02*
X1000Y288D01*
X0Y287D02*
X7Y287D01*
X993Y287D02*
X1000Y287D01*
X0Y286D02*
X7Y286D01*
X993Y286D02*
X1000Y286D01*
X0Y285D02*
X7Y285D01*
X993Y285D02*
X1000Y285D01*
X0Y284D02*
X7Y284D01*
X993Y284D02*
X1000Y284D01*
X0Y283D02*
X7Y283D01*
X993Y283D02*
X1000Y283D01*
X0Y282D02*
X7Y282D01*
X993Y282D02*
X1000Y282D01*
X0Y281D02*
X7Y281D01*
X993Y281D02*
X1000Y281D01*
X0Y280D02*
X7Y280D01*
X993Y280D02*
X1000Y280D01*
X0Y279D02*
X7Y279D01*
X993Y279D02*
X1000Y279D01*
X0Y278D02*
X7Y278D01*
X993Y278D02*
X1000Y278D01*
X0Y277D02*
X7Y277D01*
X993Y277D02*
X1000Y277D01*
X0Y276D02*
X7Y276D01*
X993Y276D02*
X1000Y276D01*
X0Y275D02*
X7Y275D01*
X993Y275D02*
X1000Y275D01*
X0Y274D02*
X7Y274D01*
X993Y274D02*
X1000Y274D01*
X0Y273D02*
X7Y273D01*
X993Y273D02*
X1000Y273D01*
X0Y272D02*
X7Y272D01*
X993Y272D02*
X1000Y272D01*
X0Y271D02*
X7Y271D01*
X993Y271D02*
X1000Y271D01*
X0Y270D02*
X7Y270D01*
X993Y270D02*
X1000Y270D01*
X0Y269D02*
X7Y269D01*
X993Y269D02*
X1000Y269D01*
X0Y268D02*
X7Y268D01*
X993Y268D02*
X1000Y268D01*
X0Y267D02*
X7Y267D01*
X993Y267D02*
X1000Y267D01*
X0Y266D02*
X7Y266D01*
X993Y266D02*
X1000Y266D01*
X0Y265D02*
X7Y265D01*
X993Y265D02*
X1000Y265D01*
X0Y264D02*
X7Y264D01*
X993Y264D02*
X1000Y264D01*
X0Y263D02*
X7Y263D01*
X993Y263D02*
X1000Y263D01*
X0Y262D02*
X7Y262D01*
X993Y262D02*
X1000Y262D01*
X0Y261D02*
X7Y261D01*
X993Y261D02*
X1000Y261D01*
X0Y260D02*
X7Y260D01*
X993Y260D02*
X1000Y260D01*
X0Y259D02*
X7Y259D01*
X993Y259D02*
X1000Y259D01*
X0Y258D02*
X7Y258D01*
X993Y258D02*
X1000Y258D01*
X0Y257D02*
X7Y257D01*
X993Y257D02*
X1000Y257D01*
X0Y256D02*
X7Y256D01*
X993Y256D02*
X1000Y256D01*
X0Y255D02*
X7Y255D01*
X993Y255D02*
X1000Y255D01*
X0Y254D02*
X7Y254D01*
X993Y254D02*
X1000Y254D01*
X0Y253D02*
X7Y253D01*
X993Y253D02*
X1000Y253D01*
X0Y252D02*
X7Y252D01*
X993Y252D02*
X1000Y252D01*
X0Y251D02*
X7Y251D01*
X993Y251D02*
X1000Y251D01*
X0Y250D02*
X7Y250D01*
X993Y250D02*
X1000Y250D01*
X0Y249D02*
X7Y249D01*
X993Y249D02*
X1000Y249D01*
X0Y248D02*
X7Y248D01*
X993Y248D02*
X1000Y248D01*
X0Y247D02*
X7Y247D01*
X993Y247D02*
X1000Y247D01*
X0Y246D02*
X7Y246D01*
X993Y246D02*
X1000Y246D01*
X0Y245D02*
X7Y245D01*
X993Y245D02*
X1000Y245D01*
X0Y244D02*
X7Y244D01*
X993Y244D02*
X1000Y244D01*
X0Y243D02*
X7Y243D01*
X993Y243D02*
X1000Y243D01*
X0Y242D02*
X7Y242D01*
X993Y242D02*
X1000Y242D01*
X0Y241D02*
X7Y241D01*
X993Y241D02*
X1000Y241D01*
X0Y240D02*
X7Y240D01*
X993Y240D02*
X1000Y240D01*
X0Y239D02*
X7Y239D01*
X993Y239D02*
X1000Y239D01*
X0Y238D02*
X7Y238D01*
X993Y238D02*
X1000Y238D01*
X0Y237D02*
X7Y237D01*
X993Y237D02*
X1000Y237D01*
X0Y236D02*
X7Y236D01*
X993Y236D02*
X1000Y236D01*
X0Y235D02*
X7Y235D01*
X993Y235D02*
X1000Y235D01*
X0Y234D02*
X7Y234D01*
X993Y234D02*
X1000Y234D01*
X0Y233D02*
X7Y233D01*
X993Y233D02*
X1000Y233D01*
X0Y232D02*
X7Y232D01*
X993Y232D02*
X1000Y232D01*
X0Y231D02*
X7Y231D01*
X993Y231D02*
X1000Y231D01*
X0Y230D02*
X7Y230D01*
X993Y230D02*
X1000Y230D01*
X0Y229D02*
X7Y229D01*
X993Y229D02*
X1000Y229D01*
X0Y228D02*
X7Y228D01*
X993Y228D02*
X1000Y228D01*
X0Y227D02*
X7Y227D01*
X993Y227D02*
X1000Y227D01*
X0Y226D02*
X7Y226D01*
X993Y226D02*
X1000Y226D01*
X0Y225D02*
X7Y225D01*
X993Y225D02*
X1000Y225D01*
X0Y224D02*
X7Y224D01*
X993Y224D02*
X1000Y224D01*
X0Y223D02*
X7Y223D01*
X993Y223D02*
X1000Y223D01*
X0Y222D02*
X7Y222D01*
X993Y222D02*
X1000Y222D01*
X0Y221D02*
X7Y221D01*
X993Y221D02*
X1000Y221D01*
X0Y220D02*
X7Y220D01*
X993Y220D02*
X1000Y220D01*
X0Y219D02*
X7Y219D01*
X993Y219D02*
X1000Y219D01*
X0Y218D02*
X7Y218D01*
X993Y218D02*
X1000Y218D01*
X0Y217D02*
X7Y217D01*
X993Y217D02*
X1000Y217D01*
X0Y216D02*
X7Y216D01*
X993Y216D02*
X1000Y216D01*
X0Y215D02*
X7Y215D01*
X993Y215D02*
X1000Y215D01*
X0Y214D02*
X7Y214D01*
X993Y214D02*
X1000Y214D01*
X0Y213D02*
X7Y213D01*
X993Y213D02*
X1000Y213D01*
X0Y212D02*
X7Y212D01*
X993Y212D02*
X1000Y212D01*
X0Y211D02*
X7Y211D01*
X993Y211D02*
X1000Y211D01*
X0Y210D02*
X7Y210D01*
X993Y210D02*
X1000Y210D01*
X0Y209D02*
X7Y209D01*
X993Y209D02*
X1000Y209D01*
X0Y208D02*
X7Y208D01*
X993Y208D02*
X1000Y208D01*
X0Y207D02*
X7Y207D01*
X993Y207D02*
X1000Y207D01*
X0Y206D02*
X7Y206D01*
X993Y206D02*
X1000Y206D01*
X0Y205D02*
X7Y205D01*
X993Y205D02*
X1000Y205D01*
X0Y204D02*
X7Y204D01*
X993Y204D02*
X1000Y204D01*
X0Y203D02*
X7Y203D01*
X993Y203D02*
X1000Y203D01*
X0Y202D02*
X7Y202D01*
X993Y202D02*
X1000Y202D01*
X0Y201D02*
X7Y201D01*
X993Y201D02*
X1000Y201D01*
X0Y200D02*
X7Y200D01*
X993Y200D02*
X1000Y200D01*
X0Y199D02*
X7Y199D01*
X993Y199D02*
X1000Y199D01*
X0Y198D02*
X7Y198D01*
X993Y198D02*
X1000Y198D01*
X0Y197D02*
X7Y197D01*
X993Y197D02*
X1000Y197D01*
X0Y196D02*
X7Y196D01*
X993Y196D02*
X1000Y196D01*
X0Y195D02*
X7Y195D01*
X993Y195D02*
X1000Y195D01*
X0Y194D02*
X7Y194D01*
X993Y194D02*
X1000Y194D01*
X0Y193D02*
X7Y193D01*
X993Y193D02*
X1000Y193D01*
X0Y192D02*
X7Y192D01*
X993Y192D02*
X1000Y192D01*
X0Y191D02*
X7Y191D01*
X993Y191D02*
X1000Y191D01*
X0Y190D02*
X7Y190D01*
X993Y190D02*
X1000Y190D01*
X0Y189D02*
X7Y189D01*
X993Y189D02*
X1000Y189D01*
X0Y188D02*
X7Y188D01*
X993Y188D02*
X1000Y188D01*
X0Y187D02*
X7Y187D01*
X993Y187D02*
X1000Y187D01*
X0Y186D02*
X7Y186D01*
X993Y186D02*
X1000Y186D01*
X0Y185D02*
X7Y185D01*
X993Y185D02*
X1000Y185D01*
X0Y184D02*
X7Y184D01*
X993Y184D02*
X1000Y184D01*
X0Y183D02*
X7Y183D01*
X993Y183D02*
X1000Y183D01*
X0Y182D02*
X7Y182D01*
X993Y182D02*
X1000Y182D01*
X0Y181D02*
X7Y181D01*
X993Y181D02*
X1000Y181D01*
X0Y180D02*
X7Y180D01*
X993Y180D02*
X1000Y180D01*
X0Y179D02*
X7Y179D01*
X993Y179D02*
X1000Y179D01*
X0Y178D02*
X7Y178D01*
X993Y178D02*
X1000Y178D01*
X0Y177D02*
X7Y177D01*
X993Y177D02*
X1000Y177D01*
X0Y176D02*
X7Y176D01*
X993Y176D02*
X1000Y176D01*
X0Y175D02*
X7Y175D01*
X993Y175D02*
X1000Y175D01*
X0Y174D02*
X7Y174D01*
X993Y174D02*
X1000Y174D01*
X0Y173D02*
X7Y173D01*
X993Y173D02*
X1000Y173D01*
X0Y172D02*
X7Y172D01*
X993Y172D02*
X1000Y172D01*
X0Y171D02*
X7Y171D01*
X993Y171D02*
X1000Y171D01*
X0Y170D02*
X7Y170D01*
X993Y170D02*
X1000Y170D01*
X0Y169D02*
X7Y169D01*
X993Y169D02*
X1000Y169D01*
X0Y168D02*
X7Y168D01*
X993Y168D02*
X1000Y168D01*
X0Y167D02*
X7Y167D01*
X993Y167D02*
X1000Y167D01*
X0Y166D02*
X7Y166D01*
X993Y166D02*
X1000Y166D01*
X0Y165D02*
X7Y165D01*
X993Y165D02*
X1000Y165D01*
X0Y164D02*
X7Y164D01*
X993Y164D02*
X1000Y164D01*
X0Y163D02*
X7Y163D01*
X993Y163D02*
X1000Y163D01*
X0Y162D02*
X7Y162D01*
X993Y162D02*
X1000Y162D01*
X0Y161D02*
X7Y161D01*
X993Y161D02*
X1000Y161D01*
X0Y160D02*
X7Y160D01*
X993Y160D02*
X1000Y160D01*
X0Y159D02*
X7Y159D01*
X993Y159D02*
X1000Y159D01*
X0Y158D02*
X7Y158D01*
X993Y158D02*
X1000Y158D01*
X0Y157D02*
X7Y157D01*
X993Y157D02*
X1000Y157D01*
X0Y156D02*
X7Y156D01*
X993Y156D02*
X1000Y156D01*
X0Y155D02*
X7Y155D01*
X993Y155D02*
X1000Y155D01*
X0Y154D02*
X7Y154D01*
X993Y154D02*
X1000Y154D01*
X0Y153D02*
X7Y153D01*
X993Y153D02*
X1000Y153D01*
X0Y152D02*
X7Y152D01*
X993Y152D02*
X1000Y152D01*
X0Y151D02*
X7Y151D01*
X993Y151D02*
X1000Y151D01*
X0Y150D02*
X7Y150D01*
X993Y150D02*
X1000Y150D01*
X0Y149D02*
X7Y149D01*
X993Y149D02*
X1000Y149D01*
X0Y148D02*
X7Y148D01*
X993Y148D02*
X1000Y148D01*
X0Y147D02*
X7Y147D01*
X993Y147D02*
X1000Y147D01*
X0Y146D02*
X7Y146D01*
X993Y146D02*
X1000Y146D01*
X0Y145D02*
X7Y145D01*
X993Y145D02*
X1000Y145D01*
X0Y144D02*
X7Y144D01*
X993Y144D02*
X1000Y144D01*
X0Y143D02*
X7Y143D01*
X993Y143D02*
X1000Y143D01*
X0Y142D02*
X7Y142D01*
X993Y142D02*
X1000Y142D01*
X0Y141D02*
X7Y141D01*
X993Y141D02*
X1000Y141D01*
X0Y140D02*
X7Y140D01*
X993Y140D02*
X1000Y140D01*
X0Y139D02*
X7Y139D01*
X993Y139D02*
X1000Y139D01*
X0Y138D02*
X7Y138D01*
X993Y138D02*
X1000Y138D01*
X0Y137D02*
X7Y137D01*
X993Y137D02*
X1000Y137D01*
X0Y136D02*
X7Y136D01*
X993Y136D02*
X1000Y136D01*
X0Y135D02*
X7Y135D01*
X993Y135D02*
X1000Y135D01*
X0Y134D02*
X7Y134D01*
X993Y134D02*
X1000Y134D01*
X0Y133D02*
X7Y133D01*
X993Y133D02*
X1000Y133D01*
X0Y132D02*
X7Y132D01*
X993Y132D02*
X1000Y132D01*
X0Y131D02*
X7Y131D01*
X993Y131D02*
X1000Y131D01*
X0Y130D02*
X7Y130D01*
X993Y130D02*
X1000Y130D01*
X0Y129D02*
X7Y129D01*
X993Y129D02*
X1000Y129D01*
X0Y128D02*
X7Y128D01*
X993Y128D02*
X1000Y128D01*
X0Y127D02*
X7Y127D01*
X993Y127D02*
X1000Y127D01*
X0Y126D02*
X7Y126D01*
X993Y126D02*
X1000Y126D01*
X0Y125D02*
X7Y125D01*
X993Y125D02*
X1000Y125D01*
X0Y124D02*
X7Y124D01*
X993Y124D02*
X1000Y124D01*
X0Y123D02*
X7Y123D01*
X993Y123D02*
X1000Y123D01*
X0Y122D02*
X7Y122D01*
X993Y122D02*
X1000Y122D01*
X0Y121D02*
X7Y121D01*
X993Y121D02*
X1000Y121D01*
X0Y120D02*
X7Y120D01*
X993Y120D02*
X1000Y120D01*
X0Y119D02*
X7Y119D01*
X993Y119D02*
X1000Y119D01*
X0Y118D02*
X7Y118D01*
X993Y118D02*
X1000Y118D01*
X0Y117D02*
X7Y117D01*
X993Y117D02*
X1000Y117D01*
X0Y116D02*
X7Y116D01*
X993Y116D02*
X1000Y116D01*
X0Y115D02*
X7Y115D01*
X993Y115D02*
X1000Y115D01*
X0Y114D02*
X7Y114D01*
X993Y114D02*
X1000Y114D01*
X0Y113D02*
X7Y113D01*
X993Y113D02*
X1000Y113D01*
X0Y112D02*
X7Y112D01*
X993Y112D02*
X1000Y112D01*
X0Y111D02*
X7Y111D01*
X993Y111D02*
X1000Y111D01*
X0Y110D02*
X7Y110D01*
X993Y110D02*
X1000Y110D01*
X0Y109D02*
X7Y109D01*
X993Y109D02*
X1000Y109D01*
X0Y108D02*
X7Y108D01*
X993Y108D02*
X1000Y108D01*
X0Y107D02*
X7Y107D01*
X993Y107D02*
X1000Y107D01*
X0Y106D02*
X7Y106D01*
X993Y106D02*
X1000Y106D01*
X0Y105D02*
X7Y105D01*
X993Y105D02*
X1000Y105D01*
X0Y104D02*
X7Y104D01*
X993Y104D02*
X1000Y104D01*
X0Y103D02*
X7Y103D01*
X993Y103D02*
X1000Y103D01*
X0Y102D02*
X7Y102D01*
X993Y102D02*
X1000Y102D01*
X0Y101D02*
X7Y101D01*
X993Y101D02*
X1000Y101D01*
X0Y100D02*
X7Y100D01*
X993Y100D02*
X1000Y100D01*
X0Y99D02*
X7Y99D01*
X993Y99D02*
X1000Y99D01*
X0Y98D02*
X7Y98D01*
X993Y98D02*
X1000Y98D01*
X0Y97D02*
X7Y97D01*
X993Y97D02*
X1000Y97D01*
X0Y96D02*
X7Y96D01*
X993Y96D02*
X1000Y96D01*
X0Y95D02*
X7Y95D01*
X993Y95D02*
X1000Y95D01*
X0Y94D02*
X7Y94D01*
X993Y94D02*
X1000Y94D01*
X0Y93D02*
X7Y93D01*
X993Y93D02*
X1000Y93D01*
X0Y92D02*
X7Y92D01*
X993Y92D02*
X1000Y92D01*
X0Y91D02*
X7Y91D01*
X993Y91D02*
X1000Y91D01*
X0Y90D02*
X7Y90D01*
X993Y90D02*
X1000Y90D01*
X0Y89D02*
X7Y89D01*
X993Y89D02*
X1000Y89D01*
X0Y88D02*
X7Y88D01*
X993Y88D02*
X1000Y88D01*
X0Y87D02*
X7Y87D01*
X993Y87D02*
X1000Y87D01*
X0Y86D02*
X7Y86D01*
X993Y86D02*
X1000Y86D01*
X0Y85D02*
X7Y85D01*
X993Y85D02*
X1000Y85D01*
X0Y84D02*
X7Y84D01*
X993Y84D02*
X1000Y84D01*
X0Y83D02*
X7Y83D01*
X993Y83D02*
X1000Y83D01*
X0Y82D02*
X7Y82D01*
X993Y82D02*
X1000Y82D01*
X0Y81D02*
X7Y81D01*
X993Y81D02*
X1000Y81D01*
X0Y80D02*
X7Y80D01*
X993Y80D02*
X1000Y80D01*
X0Y79D02*
X7Y79D01*
X993Y79D02*
X1000Y79D01*
X0Y78D02*
X7Y78D01*
X993Y78D02*
X1000Y78D01*
X0Y77D02*
X7Y77D01*
X993Y77D02*
X1000Y77D01*
X0Y76D02*
X7Y76D01*
X993Y76D02*
X1000Y76D01*
X0Y75D02*
X7Y75D01*
X993Y75D02*
X1000Y75D01*
X0Y74D02*
X7Y74D01*
X993Y74D02*
X1000Y74D01*
X0Y73D02*
X7Y73D01*
X993Y73D02*
X1000Y73D01*
X0Y72D02*
X7Y72D01*
X993Y72D02*
X1000Y72D01*
X0Y71D02*
X7Y71D01*
X993Y71D02*
X1000Y71D01*
X0Y70D02*
X7Y70D01*
X993Y70D02*
X1000Y70D01*
X0Y69D02*
X7Y69D01*
X993Y69D02*
X1000Y69D01*
X0Y68D02*
X7Y68D01*
X993Y68D02*
X1000Y68D01*
X0Y67D02*
X7Y67D01*
X993Y67D02*
X1000Y67D01*
X0Y66D02*
X7Y66D01*
X993Y66D02*
X1000Y66D01*
X0Y65D02*
X7Y65D01*
X993Y65D02*
X1000Y65D01*
X0Y64D02*
X7Y64D01*
X993Y64D02*
X1000Y64D01*
X0Y63D02*
X7Y63D01*
X993Y63D02*
X1000Y63D01*
X0Y62D02*
X7Y62D01*
X993Y62D02*
X1000Y62D01*
X0Y61D02*
X7Y61D01*
X993Y61D02*
X1000Y61D01*
X0Y60D02*
X7Y60D01*
X993Y60D02*
X1000Y60D01*
X0Y59D02*
X7Y59D01*
X993Y59D02*
X1000Y59D01*
X0Y58D02*
X7Y58D01*
X993Y58D02*
X1000Y58D01*
X0Y57D02*
X7Y57D01*
X993Y57D02*
X1000Y57D01*
X0Y56D02*
X7Y56D01*
X993Y56D02*
X1000Y56D01*
X0Y55D02*
X7Y55D01*
X993Y55D02*
X1000Y55D01*
X0Y54D02*
X7Y54D01*
X993Y54D02*
X1000Y54D01*
X0Y53D02*
X7Y53D01*
X993Y53D02*
X1000Y53D01*
X0Y52D02*
X7Y52D01*
X993Y52D02*
X1000Y52D01*
X0Y51D02*
X7Y51D01*
X993Y51D02*
X1000Y51D01*
X0Y50D02*
X7Y50D01*
X993Y50D02*
X1000Y50D01*
X0Y49D02*
X7Y49D01*
X993Y49D02*
X1000Y49D01*
X0Y48D02*
X7Y48D01*
X993Y48D02*
X1000Y48D01*
X0Y47D02*
X7Y47D01*
X993Y47D02*
X1000Y47D01*
X0Y46D02*
X7Y46D01*
X993Y46D02*
X1000Y46D01*
X0Y45D02*
X7Y45D01*
X993Y45D02*
X1000Y45D01*
X0Y44D02*
X7Y44D01*
X993Y44D02*
X1000Y44D01*
X0Y43D02*
X7Y43D01*
X993Y43D02*
X1000Y43D01*
X0Y42D02*
X7Y42D01*
X993Y42D02*
X1000Y42D01*
X0Y41D02*
X7Y41D01*
X993Y41D02*
X1000Y41D01*
X0Y40D02*
X7Y40D01*
X993Y40D02*
X1000Y40D01*
X0Y39D02*
X7Y39D01*
X993Y39D02*
X1000Y39D01*
X0Y38D02*
X7Y38D01*
X993Y38D02*
X1000Y38D01*
X0Y37D02*
X7Y37D01*
X993Y37D02*
X1000Y37D01*
X0Y36D02*
X7Y36D01*
X993Y36D02*
X1000Y36D01*
X0Y35D02*
X7Y35D01*
X993Y35D02*
X1000Y35D01*
X0Y34D02*
X7Y34D01*
X993Y34D02*
X1000Y34D01*
X0Y33D02*
X7Y33D01*
X993Y33D02*
X1000Y33D01*
X0Y32D02*
X7Y32D01*
X993Y32D02*
X1000Y32D01*
X0Y31D02*
X7Y31D01*
X993Y31D02*
X1000Y31D01*
X0Y30D02*
X7Y30D01*
X993Y30D02*
X1000Y30D01*
X0Y29D02*
X7Y29D01*
X993Y29D02*
X1000Y29D01*
X0Y28D02*
X7Y28D01*
X993Y28D02*
X1000Y28D01*
X0Y27D02*
X7Y27D01*
X993Y27D02*
X1000Y27D01*
X0Y26D02*
X7Y26D01*
X993Y26D02*
X1000Y26D01*
X0Y25D02*
X7Y25D01*
X993Y25D02*
X1000Y25D01*
X0Y24D02*
X7Y24D01*
X993Y24D02*
X1000Y24D01*
X0Y23D02*
X7Y23D01*
X993Y23D02*
X1000Y23D01*
X0Y22D02*
X7Y22D01*
X993Y22D02*
X1000Y22D01*
X0Y21D02*
X7Y21D01*
X993Y21D02*
X1000Y21D01*
X0Y20D02*
X7Y20D01*
X993Y20D02*
X1000Y20D01*
X0Y19D02*
X7Y19D01*
X993Y19D02*
X1000Y19D01*
X0Y18D02*
X7Y18D01*
X993Y18D02*
X1000Y18D01*
X0Y17D02*
X7Y17D01*
X993Y17D02*
X1000Y17D01*
X0Y16D02*
X7Y16D01*
X993Y16D02*
X1000Y16D01*
X0Y15D02*
X7Y15D01*
X993Y15D02*
X1000Y15D01*
X0Y14D02*
X7Y14D01*
X993Y14D02*
X1000Y14D01*
X0Y13D02*
X7Y13D01*
X993Y13D02*
X1000Y13D01*
X0Y12D02*
X7Y12D01*
X993Y12D02*
X1000Y12D01*
X0Y11D02*
X7Y11D01*
X993Y11D02*
X1000Y11D01*
X0Y10D02*
X7Y10D01*
X993Y10D02*
X1000Y10D01*
X0Y9D02*
X7Y9D01*
X993Y9D02*
X1000Y9D01*
X0Y8D02*
X1000Y8D01*
X0Y7D02*
X1000Y7D01*
X0Y6D02*
X1000Y6D01*
X0Y5D02*
X1000Y5D01*
X0Y4D02*
X1000Y4D01*
X0Y3D02*
X1000Y3D01*
X0Y2D02*
X1000Y2D01*
X0Y1D02*
X1000Y1D01*
D02*
G04 End of Silk0*
M02*