G04 MADE WITH FRITZING*
G04 WWW.FRITZING.ORG*
G04 DOUBLE SIDED*
G04 HOLES PLATED*
G04 CONTOUR ON CENTER OF CONTOUR VECTOR*
%ASAXBY*%
%FSLAX23Y23*%
%MOIN*%
%OFA0B0*%
%SFA1.0B1.0*%
%ADD10R,0.984252X1.574800X0.968252X1.558800*%
%ADD11C,0.008000*%
%ADD12R,0.001000X0.001000*%
%LNSILK1*%
G90*
G70*
G54D11*
X4Y1571D02*
X980Y1571D01*
X980Y4D01*
X4Y4D01*
X4Y1571D01*
D02*
G54D12*
X714Y669D02*
X716Y669D01*
X761Y669D02*
X763Y669D01*
X712Y668D02*
X717Y668D01*
X760Y668D02*
X764Y668D01*
X712Y667D02*
X718Y667D01*
X759Y667D02*
X765Y667D01*
X712Y666D02*
X718Y666D01*
X759Y666D02*
X765Y666D01*
X712Y665D02*
X718Y665D01*
X759Y665D02*
X765Y665D01*
X712Y664D02*
X718Y664D01*
X759Y664D02*
X765Y664D01*
X712Y663D02*
X718Y663D01*
X759Y663D02*
X765Y663D01*
X712Y662D02*
X718Y662D01*
X759Y662D02*
X765Y662D01*
X712Y661D02*
X718Y661D01*
X759Y661D02*
X765Y661D01*
X712Y660D02*
X718Y660D01*
X759Y660D02*
X765Y660D01*
X712Y659D02*
X718Y659D01*
X759Y659D02*
X765Y659D01*
X712Y658D02*
X718Y658D01*
X759Y658D02*
X765Y658D01*
X712Y657D02*
X718Y657D01*
X759Y657D02*
X765Y657D01*
X712Y656D02*
X718Y656D01*
X759Y656D02*
X765Y656D01*
X712Y655D02*
X765Y655D01*
X712Y654D02*
X765Y654D01*
X712Y653D02*
X765Y653D01*
X712Y652D02*
X765Y652D01*
X712Y651D02*
X765Y651D01*
X712Y650D02*
X765Y650D01*
X712Y649D02*
X765Y649D01*
X712Y648D02*
X718Y648D01*
X759Y648D02*
X765Y648D01*
X712Y647D02*
X718Y647D01*
X759Y647D02*
X765Y647D01*
X712Y646D02*
X718Y646D01*
X759Y646D02*
X765Y646D01*
X712Y645D02*
X718Y645D01*
X759Y645D02*
X765Y645D01*
X712Y644D02*
X718Y644D01*
X759Y644D02*
X765Y644D01*
X712Y643D02*
X718Y643D01*
X759Y643D02*
X765Y643D01*
X712Y642D02*
X718Y642D01*
X759Y642D02*
X765Y642D01*
X712Y641D02*
X718Y641D01*
X759Y641D02*
X765Y641D01*
X712Y640D02*
X718Y640D01*
X759Y640D02*
X765Y640D01*
X712Y639D02*
X718Y639D01*
X759Y639D02*
X765Y639D01*
X712Y638D02*
X718Y638D01*
X759Y638D02*
X765Y638D01*
X712Y637D02*
X717Y637D01*
X759Y637D02*
X765Y637D01*
X713Y636D02*
X717Y636D01*
X760Y636D02*
X764Y636D01*
X735Y619D02*
X742Y619D01*
X732Y618D02*
X745Y618D01*
X730Y617D02*
X747Y617D01*
X728Y616D02*
X749Y616D01*
X726Y615D02*
X751Y615D01*
X724Y614D02*
X753Y614D01*
X722Y613D02*
X755Y613D01*
X720Y612D02*
X735Y612D01*
X742Y612D02*
X757Y612D01*
X718Y611D02*
X733Y611D01*
X744Y611D02*
X759Y611D01*
X716Y610D02*
X731Y610D01*
X746Y610D02*
X761Y610D01*
X715Y609D02*
X729Y609D01*
X748Y609D02*
X762Y609D01*
X714Y608D02*
X727Y608D01*
X750Y608D02*
X763Y608D01*
X713Y607D02*
X725Y607D01*
X752Y607D02*
X763Y607D01*
X713Y606D02*
X723Y606D01*
X754Y606D02*
X764Y606D01*
X780Y606D02*
X783Y606D01*
X808Y606D02*
X810Y606D01*
X830Y606D02*
X860Y606D01*
X713Y605D02*
X721Y605D01*
X756Y605D02*
X764Y605D01*
X779Y605D02*
X784Y605D01*
X807Y605D02*
X811Y605D01*
X829Y605D02*
X861Y605D01*
X712Y604D02*
X719Y604D01*
X758Y604D02*
X765Y604D01*
X779Y604D02*
X784Y604D01*
X806Y604D02*
X812Y604D01*
X829Y604D02*
X862Y604D01*
X712Y603D02*
X718Y603D01*
X759Y603D02*
X765Y603D01*
X779Y603D02*
X785Y603D01*
X806Y603D02*
X812Y603D01*
X829Y603D02*
X862Y603D01*
X712Y602D02*
X718Y602D01*
X759Y602D02*
X765Y602D01*
X779Y602D02*
X785Y602D01*
X806Y602D02*
X812Y602D01*
X829Y602D02*
X862Y602D01*
X712Y601D02*
X718Y601D01*
X759Y601D02*
X765Y601D01*
X779Y601D02*
X785Y601D01*
X806Y601D02*
X812Y601D01*
X829Y601D02*
X862Y601D01*
X712Y600D02*
X718Y600D01*
X759Y600D02*
X765Y600D01*
X779Y600D02*
X785Y600D01*
X806Y600D02*
X812Y600D01*
X829Y600D02*
X862Y600D01*
X712Y599D02*
X718Y599D01*
X759Y599D02*
X765Y599D01*
X779Y599D02*
X785Y599D01*
X806Y599D02*
X812Y599D01*
X829Y599D02*
X835Y599D01*
X856Y599D02*
X862Y599D01*
X712Y598D02*
X718Y598D01*
X759Y598D02*
X765Y598D01*
X779Y598D02*
X785Y598D01*
X806Y598D02*
X812Y598D01*
X829Y598D02*
X835Y598D01*
X856Y598D02*
X862Y598D01*
X712Y597D02*
X718Y597D01*
X759Y597D02*
X765Y597D01*
X779Y597D02*
X785Y597D01*
X806Y597D02*
X812Y597D01*
X829Y597D02*
X835Y597D01*
X856Y597D02*
X862Y597D01*
X712Y596D02*
X718Y596D01*
X759Y596D02*
X765Y596D01*
X779Y596D02*
X785Y596D01*
X806Y596D02*
X812Y596D01*
X829Y596D02*
X835Y596D01*
X856Y596D02*
X862Y596D01*
X712Y595D02*
X718Y595D01*
X759Y595D02*
X765Y595D01*
X779Y595D02*
X785Y595D01*
X806Y595D02*
X812Y595D01*
X829Y595D02*
X835Y595D01*
X856Y595D02*
X862Y595D01*
X712Y594D02*
X718Y594D01*
X759Y594D02*
X765Y594D01*
X779Y594D02*
X785Y594D01*
X806Y594D02*
X812Y594D01*
X829Y594D02*
X835Y594D01*
X856Y594D02*
X862Y594D01*
X712Y593D02*
X718Y593D01*
X759Y593D02*
X765Y593D01*
X779Y593D02*
X785Y593D01*
X806Y593D02*
X812Y593D01*
X829Y593D02*
X835Y593D01*
X856Y593D02*
X862Y593D01*
X712Y592D02*
X718Y592D01*
X759Y592D02*
X765Y592D01*
X779Y592D02*
X785Y592D01*
X806Y592D02*
X812Y592D01*
X829Y592D02*
X835Y592D01*
X856Y592D02*
X862Y592D01*
X712Y591D02*
X718Y591D01*
X759Y591D02*
X765Y591D01*
X779Y591D02*
X785Y591D01*
X806Y591D02*
X812Y591D01*
X829Y591D02*
X835Y591D01*
X856Y591D02*
X862Y591D01*
X712Y590D02*
X718Y590D01*
X759Y590D02*
X765Y590D01*
X779Y590D02*
X785Y590D01*
X806Y590D02*
X812Y590D01*
X829Y590D02*
X835Y590D01*
X856Y590D02*
X862Y590D01*
X712Y589D02*
X718Y589D01*
X759Y589D02*
X765Y589D01*
X779Y589D02*
X785Y589D01*
X806Y589D02*
X812Y589D01*
X829Y589D02*
X835Y589D01*
X856Y589D02*
X862Y589D01*
X712Y588D02*
X718Y588D01*
X759Y588D02*
X765Y588D01*
X779Y588D02*
X785Y588D01*
X806Y588D02*
X812Y588D01*
X829Y588D02*
X862Y588D01*
X712Y587D02*
X717Y587D01*
X759Y587D02*
X765Y587D01*
X779Y587D02*
X785Y587D01*
X806Y587D02*
X812Y587D01*
X829Y587D02*
X862Y587D01*
X713Y586D02*
X717Y586D01*
X760Y586D02*
X764Y586D01*
X779Y586D02*
X785Y586D01*
X806Y586D02*
X812Y586D01*
X829Y586D02*
X862Y586D01*
X779Y585D02*
X785Y585D01*
X806Y585D02*
X812Y585D01*
X829Y585D02*
X862Y585D01*
X779Y584D02*
X785Y584D01*
X806Y584D02*
X812Y584D01*
X829Y584D02*
X862Y584D01*
X779Y583D02*
X785Y583D01*
X806Y583D02*
X812Y583D01*
X830Y583D02*
X862Y583D01*
X779Y582D02*
X785Y582D01*
X806Y582D02*
X812Y582D01*
X831Y582D02*
X862Y582D01*
X779Y581D02*
X785Y581D01*
X806Y581D02*
X812Y581D01*
X856Y581D02*
X862Y581D01*
X779Y580D02*
X785Y580D01*
X806Y580D02*
X812Y580D01*
X856Y580D02*
X862Y580D01*
X779Y579D02*
X785Y579D01*
X806Y579D02*
X812Y579D01*
X856Y579D02*
X862Y579D01*
X779Y578D02*
X785Y578D01*
X806Y578D02*
X812Y578D01*
X856Y578D02*
X862Y578D01*
X779Y577D02*
X785Y577D01*
X806Y577D02*
X812Y577D01*
X856Y577D02*
X862Y577D01*
X779Y576D02*
X785Y576D01*
X806Y576D02*
X812Y576D01*
X856Y576D02*
X862Y576D01*
X779Y575D02*
X785Y575D01*
X806Y575D02*
X812Y575D01*
X856Y575D02*
X862Y575D01*
X779Y574D02*
X785Y574D01*
X806Y574D02*
X812Y574D01*
X856Y574D02*
X862Y574D01*
X779Y573D02*
X785Y573D01*
X806Y573D02*
X812Y573D01*
X856Y573D02*
X862Y573D01*
X779Y572D02*
X785Y572D01*
X806Y572D02*
X812Y572D01*
X856Y572D02*
X862Y572D01*
X779Y571D02*
X785Y571D01*
X806Y571D02*
X812Y571D01*
X856Y571D02*
X862Y571D01*
X779Y570D02*
X785Y570D01*
X806Y570D02*
X812Y570D01*
X856Y570D02*
X862Y570D01*
X713Y569D02*
X716Y569D01*
X761Y569D02*
X763Y569D01*
X779Y569D02*
X785Y569D01*
X806Y569D02*
X812Y569D01*
X856Y569D02*
X862Y569D01*
X712Y568D02*
X717Y568D01*
X760Y568D02*
X764Y568D01*
X779Y568D02*
X785Y568D01*
X806Y568D02*
X812Y568D01*
X856Y568D02*
X862Y568D01*
X712Y567D02*
X718Y567D01*
X759Y567D02*
X765Y567D01*
X779Y567D02*
X785Y567D01*
X806Y567D02*
X812Y567D01*
X856Y567D02*
X862Y567D01*
X712Y566D02*
X718Y566D01*
X759Y566D02*
X765Y566D01*
X779Y566D02*
X785Y566D01*
X806Y566D02*
X812Y566D01*
X856Y566D02*
X862Y566D01*
X712Y565D02*
X718Y565D01*
X759Y565D02*
X765Y565D01*
X779Y565D02*
X785Y565D01*
X806Y565D02*
X812Y565D01*
X856Y565D02*
X862Y565D01*
X712Y564D02*
X718Y564D01*
X759Y564D02*
X765Y564D01*
X779Y564D02*
X785Y564D01*
X806Y564D02*
X812Y564D01*
X856Y564D02*
X862Y564D01*
X712Y563D02*
X718Y563D01*
X759Y563D02*
X765Y563D01*
X779Y563D02*
X785Y563D01*
X806Y563D02*
X812Y563D01*
X856Y563D02*
X862Y563D01*
X712Y562D02*
X718Y562D01*
X759Y562D02*
X765Y562D01*
X779Y562D02*
X785Y562D01*
X806Y562D02*
X812Y562D01*
X856Y562D02*
X862Y562D01*
X712Y561D02*
X718Y561D01*
X759Y561D02*
X765Y561D01*
X779Y561D02*
X785Y561D01*
X805Y561D02*
X812Y561D01*
X856Y561D02*
X862Y561D01*
X712Y560D02*
X718Y560D01*
X759Y560D02*
X765Y560D01*
X779Y560D02*
X786Y560D01*
X804Y560D02*
X812Y560D01*
X856Y560D02*
X862Y560D01*
X712Y559D02*
X718Y559D01*
X759Y559D02*
X765Y559D01*
X779Y559D02*
X811Y559D01*
X855Y559D02*
X862Y559D01*
X712Y558D02*
X718Y558D01*
X759Y558D02*
X765Y558D01*
X780Y558D02*
X811Y558D01*
X853Y558D02*
X862Y558D01*
X712Y557D02*
X718Y557D01*
X759Y557D02*
X765Y557D01*
X780Y557D02*
X810Y557D01*
X853Y557D02*
X862Y557D01*
X712Y556D02*
X718Y556D01*
X759Y556D02*
X765Y556D01*
X781Y556D02*
X810Y556D01*
X853Y556D02*
X862Y556D01*
X712Y555D02*
X765Y555D01*
X782Y555D02*
X808Y555D01*
X853Y555D02*
X862Y555D01*
X712Y554D02*
X765Y554D01*
X784Y554D02*
X807Y554D01*
X853Y554D02*
X862Y554D01*
X712Y553D02*
X765Y553D01*
X786Y553D02*
X805Y553D01*
X854Y553D02*
X861Y553D01*
X712Y552D02*
X765Y552D01*
X712Y551D02*
X765Y551D01*
X712Y550D02*
X765Y550D01*
X712Y549D02*
X765Y549D01*
X712Y548D02*
X718Y548D01*
X712Y547D02*
X718Y547D01*
X712Y546D02*
X718Y546D01*
X712Y545D02*
X718Y545D01*
X712Y544D02*
X718Y544D01*
X712Y543D02*
X718Y543D01*
X712Y542D02*
X732Y542D01*
X712Y541D02*
X734Y541D01*
X712Y540D02*
X735Y540D01*
X712Y539D02*
X735Y539D01*
X712Y538D02*
X735Y538D01*
X712Y537D02*
X735Y537D01*
X713Y536D02*
X734Y536D01*
D02*
G04 End of Silk1*
M02*