G04 MADE WITH FRITZING*
G04 WWW.FRITZING.ORG*
G04 DOUBLE SIDED*
G04 HOLES PLATED*
G04 CONTOUR ON CENTER OF CONTOUR VECTOR*
%ASAXBY*%
%FSLAX23Y23*%
%MOIN*%
%OFA0B0*%
%SFA1.0B1.0*%
%ADD10C,0.084000*%
%ADD11C,0.135984*%
%ADD12C,0.088000*%
%ADD13R,0.088000X0.088000*%
%ADD14R,0.001000X0.001000*%
%LNMASK0*%
G90*
G70*
G54D10*
X180Y468D03*
X230Y368D03*
X280Y468D03*
X380Y468D03*
X480Y468D03*
X330Y368D03*
X430Y368D03*
X530Y368D03*
G54D11*
X580Y118D03*
X130Y118D03*
G54D10*
X180Y468D03*
X230Y368D03*
X280Y468D03*
X380Y468D03*
X480Y468D03*
X330Y368D03*
X430Y368D03*
X530Y368D03*
G54D11*
X580Y118D03*
X130Y118D03*
G54D12*
X932Y1402D03*
X932Y1302D03*
X932Y1202D03*
X932Y1102D03*
X932Y1402D03*
X932Y1302D03*
X932Y1202D03*
X932Y1102D03*
G54D13*
X932Y1402D03*
X932Y1402D03*
G54D14*
X488Y411D02*
X571Y411D01*
X488Y410D02*
X571Y410D01*
X488Y409D02*
X571Y409D01*
X488Y408D02*
X571Y408D01*
X488Y407D02*
X571Y407D01*
X488Y406D02*
X571Y406D01*
X488Y405D02*
X571Y405D01*
X488Y404D02*
X571Y404D01*
X488Y403D02*
X571Y403D01*
X488Y402D02*
X571Y402D01*
X488Y401D02*
X571Y401D01*
X488Y400D02*
X571Y400D01*
X488Y399D02*
X571Y399D01*
X488Y398D02*
X571Y398D01*
X488Y397D02*
X571Y397D01*
X488Y396D02*
X571Y396D01*
X488Y395D02*
X571Y395D01*
X488Y394D02*
X571Y394D01*
X488Y393D02*
X571Y393D01*
X488Y392D02*
X571Y392D01*
X488Y391D02*
X571Y391D01*
X488Y390D02*
X571Y390D01*
X488Y389D02*
X571Y389D01*
X488Y388D02*
X571Y388D01*
X488Y387D02*
X571Y387D01*
X488Y386D02*
X571Y386D01*
X488Y385D02*
X571Y385D01*
X488Y384D02*
X526Y384D01*
X533Y384D02*
X571Y384D01*
X488Y383D02*
X523Y383D01*
X536Y383D02*
X571Y383D01*
X488Y382D02*
X521Y382D01*
X538Y382D02*
X571Y382D01*
X488Y381D02*
X520Y381D01*
X539Y381D02*
X571Y381D01*
X488Y380D02*
X519Y380D01*
X541Y380D02*
X571Y380D01*
X488Y379D02*
X518Y379D01*
X541Y379D02*
X571Y379D01*
X488Y378D02*
X517Y378D01*
X542Y378D02*
X571Y378D01*
X488Y377D02*
X517Y377D01*
X543Y377D02*
X571Y377D01*
X488Y376D02*
X516Y376D01*
X543Y376D02*
X571Y376D01*
X488Y375D02*
X516Y375D01*
X544Y375D02*
X571Y375D01*
X488Y374D02*
X515Y374D01*
X544Y374D02*
X571Y374D01*
X488Y373D02*
X515Y373D01*
X545Y373D02*
X571Y373D01*
X488Y372D02*
X515Y372D01*
X545Y372D02*
X571Y372D01*
X488Y371D02*
X515Y371D01*
X545Y371D02*
X571Y371D01*
X488Y370D02*
X515Y370D01*
X545Y370D02*
X571Y370D01*
X488Y369D02*
X515Y369D01*
X545Y369D02*
X571Y369D01*
X488Y368D02*
X515Y368D01*
X545Y368D02*
X571Y368D01*
X488Y367D02*
X515Y367D01*
X545Y367D02*
X571Y367D01*
X488Y366D02*
X515Y366D01*
X545Y366D02*
X571Y366D01*
X488Y365D02*
X515Y365D01*
X544Y365D02*
X571Y365D01*
X488Y364D02*
X516Y364D01*
X544Y364D02*
X571Y364D01*
X488Y363D02*
X516Y363D01*
X543Y363D02*
X571Y363D01*
X488Y362D02*
X517Y362D01*
X543Y362D02*
X571Y362D01*
X488Y361D02*
X517Y361D01*
X542Y361D02*
X571Y361D01*
X488Y360D02*
X518Y360D01*
X541Y360D02*
X571Y360D01*
X488Y359D02*
X519Y359D01*
X540Y359D02*
X571Y359D01*
X488Y358D02*
X520Y358D01*
X539Y358D02*
X571Y358D01*
X488Y357D02*
X522Y357D01*
X538Y357D02*
X571Y357D01*
X488Y356D02*
X523Y356D01*
X536Y356D02*
X571Y356D01*
X488Y355D02*
X528Y355D01*
X532Y355D02*
X571Y355D01*
X488Y354D02*
X571Y354D01*
X488Y353D02*
X571Y353D01*
X488Y352D02*
X571Y352D01*
X488Y351D02*
X571Y351D01*
X488Y350D02*
X571Y350D01*
X488Y349D02*
X571Y349D01*
X488Y348D02*
X571Y348D01*
X488Y347D02*
X571Y347D01*
X488Y346D02*
X571Y346D01*
X488Y345D02*
X571Y345D01*
X488Y344D02*
X571Y344D01*
X488Y343D02*
X571Y343D01*
X488Y342D02*
X571Y342D01*
X488Y341D02*
X571Y341D01*
X488Y340D02*
X571Y340D01*
X488Y339D02*
X571Y339D01*
X488Y338D02*
X571Y338D01*
X488Y337D02*
X571Y337D01*
X488Y336D02*
X571Y336D01*
X488Y335D02*
X571Y335D01*
X488Y334D02*
X571Y334D01*
X488Y333D02*
X571Y333D01*
X488Y332D02*
X571Y332D01*
X488Y331D02*
X571Y331D01*
X488Y330D02*
X571Y330D01*
X488Y329D02*
X571Y329D01*
X488Y328D02*
X571Y328D01*
D02*
G04 End of Mask0*
M02*