G04 MADE WITH FRITZING*
G04 WWW.FRITZING.ORG*
G04 DOUBLE SIDED*
G04 HOLES PLATED*
G04 CONTOUR ON CENTER OF CONTOUR VECTOR*
%ASAXBY*%
%FSLAX23Y23*%
%MOIN*%
%OFA0B0*%
%SFA1.0B1.0*%
%ADD10R,1.181100X1.574800X1.165100X1.558800*%
%ADD11C,0.008000*%
%ADD12R,0.001000X0.001000*%
%LNSILK1*%
G90*
G70*
G54D11*
X4Y1571D02*
X1177Y1571D01*
X1177Y4D01*
X4Y4D01*
X4Y1571D01*
D02*
G54D12*
X500Y1566D02*
X504Y1566D01*
X563Y1566D02*
X581Y1566D01*
X600Y1566D02*
X618Y1566D01*
X700Y1566D02*
X719Y1566D01*
X750Y1566D02*
X757Y1566D01*
X800Y1566D02*
X804Y1566D01*
X828Y1566D02*
X831Y1566D01*
X850Y1566D02*
X879Y1566D01*
X950Y1566D02*
X981Y1566D01*
X1000Y1566D02*
X1029Y1566D01*
X1063Y1566D02*
X1081Y1566D01*
X500Y1565D02*
X505Y1565D01*
X561Y1565D02*
X582Y1565D01*
X600Y1565D02*
X620Y1565D01*
X700Y1565D02*
X719Y1565D01*
X750Y1565D02*
X758Y1565D01*
X800Y1565D02*
X805Y1565D01*
X827Y1565D02*
X832Y1565D01*
X850Y1565D02*
X880Y1565D01*
X950Y1565D02*
X982Y1565D01*
X1000Y1565D02*
X1030Y1565D01*
X1061Y1565D02*
X1082Y1565D01*
X499Y1564D02*
X505Y1564D01*
X560Y1564D02*
X583Y1564D01*
X599Y1564D02*
X622Y1564D01*
X699Y1564D02*
X719Y1564D01*
X749Y1564D02*
X758Y1564D01*
X799Y1564D02*
X805Y1564D01*
X826Y1564D02*
X833Y1564D01*
X849Y1564D02*
X881Y1564D01*
X949Y1564D02*
X983Y1564D01*
X999Y1564D02*
X1031Y1564D01*
X1060Y1564D02*
X1083Y1564D01*
X499Y1563D02*
X505Y1563D01*
X559Y1563D02*
X583Y1563D01*
X599Y1563D02*
X623Y1563D01*
X699Y1563D02*
X719Y1563D01*
X749Y1563D02*
X758Y1563D01*
X799Y1563D02*
X806Y1563D01*
X826Y1563D02*
X833Y1563D01*
X849Y1563D02*
X882Y1563D01*
X949Y1563D02*
X983Y1563D01*
X999Y1563D02*
X1032Y1563D01*
X1059Y1563D02*
X1083Y1563D01*
X499Y1562D02*
X505Y1562D01*
X558Y1562D02*
X582Y1562D01*
X599Y1562D02*
X623Y1562D01*
X699Y1562D02*
X719Y1562D01*
X749Y1562D02*
X758Y1562D01*
X799Y1562D02*
X806Y1562D01*
X825Y1562D02*
X832Y1562D01*
X849Y1562D02*
X882Y1562D01*
X949Y1562D02*
X982Y1562D01*
X999Y1562D02*
X1032Y1562D01*
X1058Y1562D02*
X1082Y1562D01*
X499Y1561D02*
X505Y1561D01*
X558Y1561D02*
X582Y1561D01*
X600Y1561D02*
X624Y1561D01*
X700Y1561D02*
X719Y1561D01*
X749Y1561D02*
X757Y1561D01*
X800Y1561D02*
X807Y1561D01*
X825Y1561D02*
X832Y1561D01*
X850Y1561D02*
X883Y1561D01*
X950Y1561D02*
X982Y1561D01*
X1000Y1561D02*
X1033Y1561D01*
X1058Y1561D02*
X1082Y1561D01*
X499Y1560D02*
X505Y1560D01*
X557Y1560D02*
X580Y1560D01*
X602Y1560D02*
X624Y1560D01*
X702Y1560D02*
X719Y1560D01*
X749Y1560D02*
X756Y1560D01*
X800Y1560D02*
X808Y1560D01*
X824Y1560D02*
X831Y1560D01*
X852Y1560D02*
X883Y1560D01*
X952Y1560D02*
X980Y1560D01*
X1002Y1560D02*
X1033Y1560D01*
X1057Y1560D02*
X1080Y1560D01*
X499Y1559D02*
X505Y1559D01*
X557Y1559D02*
X564Y1559D01*
X606Y1559D02*
X612Y1559D01*
X618Y1559D02*
X625Y1559D01*
X713Y1559D02*
X719Y1559D01*
X749Y1559D02*
X755Y1559D01*
X801Y1559D02*
X808Y1559D01*
X823Y1559D02*
X831Y1559D01*
X877Y1559D02*
X883Y1559D01*
X963Y1559D02*
X969Y1559D01*
X1027Y1559D02*
X1033Y1559D01*
X1057Y1559D02*
X1064Y1559D01*
X499Y1558D02*
X505Y1558D01*
X556Y1558D02*
X563Y1558D01*
X606Y1558D02*
X612Y1558D01*
X618Y1558D02*
X625Y1558D01*
X713Y1558D02*
X719Y1558D01*
X749Y1558D02*
X755Y1558D01*
X802Y1558D02*
X809Y1558D01*
X823Y1558D02*
X830Y1558D01*
X877Y1558D02*
X883Y1558D01*
X963Y1558D02*
X969Y1558D01*
X1027Y1558D02*
X1033Y1558D01*
X1056Y1558D02*
X1063Y1558D01*
X499Y1557D02*
X505Y1557D01*
X556Y1557D02*
X563Y1557D01*
X606Y1557D02*
X612Y1557D01*
X619Y1557D02*
X626Y1557D01*
X713Y1557D02*
X719Y1557D01*
X749Y1557D02*
X755Y1557D01*
X802Y1557D02*
X809Y1557D01*
X822Y1557D02*
X829Y1557D01*
X877Y1557D02*
X883Y1557D01*
X963Y1557D02*
X969Y1557D01*
X1027Y1557D02*
X1033Y1557D01*
X1056Y1557D02*
X1063Y1557D01*
X499Y1556D02*
X505Y1556D01*
X555Y1556D02*
X562Y1556D01*
X606Y1556D02*
X612Y1556D01*
X620Y1556D02*
X626Y1556D01*
X713Y1556D02*
X719Y1556D01*
X749Y1556D02*
X755Y1556D01*
X803Y1556D02*
X810Y1556D01*
X822Y1556D02*
X829Y1556D01*
X877Y1556D02*
X883Y1556D01*
X963Y1556D02*
X969Y1556D01*
X1027Y1556D02*
X1033Y1556D01*
X1055Y1556D02*
X1062Y1556D01*
X499Y1555D02*
X505Y1555D01*
X555Y1555D02*
X562Y1555D01*
X606Y1555D02*
X612Y1555D01*
X620Y1555D02*
X627Y1555D01*
X713Y1555D02*
X719Y1555D01*
X749Y1555D02*
X755Y1555D01*
X803Y1555D02*
X811Y1555D01*
X821Y1555D02*
X828Y1555D01*
X877Y1555D02*
X883Y1555D01*
X963Y1555D02*
X969Y1555D01*
X1027Y1555D02*
X1033Y1555D01*
X1055Y1555D02*
X1062Y1555D01*
X499Y1554D02*
X505Y1554D01*
X554Y1554D02*
X561Y1554D01*
X606Y1554D02*
X612Y1554D01*
X621Y1554D02*
X627Y1554D01*
X713Y1554D02*
X719Y1554D01*
X749Y1554D02*
X755Y1554D01*
X804Y1554D02*
X811Y1554D01*
X821Y1554D02*
X828Y1554D01*
X877Y1554D02*
X883Y1554D01*
X963Y1554D02*
X969Y1554D01*
X1027Y1554D02*
X1033Y1554D01*
X1054Y1554D02*
X1061Y1554D01*
X499Y1553D02*
X505Y1553D01*
X554Y1553D02*
X561Y1553D01*
X606Y1553D02*
X612Y1553D01*
X621Y1553D02*
X628Y1553D01*
X713Y1553D02*
X719Y1553D01*
X749Y1553D02*
X755Y1553D01*
X805Y1553D02*
X812Y1553D01*
X820Y1553D02*
X827Y1553D01*
X877Y1553D02*
X883Y1553D01*
X963Y1553D02*
X969Y1553D01*
X1027Y1553D02*
X1033Y1553D01*
X1054Y1553D02*
X1061Y1553D01*
X499Y1552D02*
X505Y1552D01*
X553Y1552D02*
X560Y1552D01*
X606Y1552D02*
X612Y1552D01*
X622Y1552D02*
X628Y1552D01*
X713Y1552D02*
X719Y1552D01*
X749Y1552D02*
X755Y1552D01*
X805Y1552D02*
X812Y1552D01*
X819Y1552D02*
X827Y1552D01*
X877Y1552D02*
X883Y1552D01*
X963Y1552D02*
X969Y1552D01*
X1027Y1552D02*
X1033Y1552D01*
X1053Y1552D02*
X1060Y1552D01*
X499Y1551D02*
X505Y1551D01*
X553Y1551D02*
X560Y1551D01*
X606Y1551D02*
X612Y1551D01*
X622Y1551D02*
X629Y1551D01*
X713Y1551D02*
X719Y1551D01*
X749Y1551D02*
X755Y1551D01*
X806Y1551D02*
X813Y1551D01*
X819Y1551D02*
X826Y1551D01*
X877Y1551D02*
X883Y1551D01*
X963Y1551D02*
X969Y1551D01*
X1027Y1551D02*
X1033Y1551D01*
X1053Y1551D02*
X1060Y1551D01*
X499Y1550D02*
X505Y1550D01*
X552Y1550D02*
X559Y1550D01*
X606Y1550D02*
X612Y1550D01*
X623Y1550D02*
X629Y1550D01*
X713Y1550D02*
X719Y1550D01*
X749Y1550D02*
X755Y1550D01*
X806Y1550D02*
X814Y1550D01*
X818Y1550D02*
X825Y1550D01*
X877Y1550D02*
X883Y1550D01*
X963Y1550D02*
X969Y1550D01*
X1027Y1550D02*
X1033Y1550D01*
X1052Y1550D02*
X1059Y1550D01*
X499Y1549D02*
X505Y1549D01*
X552Y1549D02*
X559Y1549D01*
X606Y1549D02*
X612Y1549D01*
X623Y1549D02*
X630Y1549D01*
X713Y1549D02*
X719Y1549D01*
X749Y1549D02*
X755Y1549D01*
X807Y1549D02*
X814Y1549D01*
X818Y1549D02*
X825Y1549D01*
X877Y1549D02*
X883Y1549D01*
X963Y1549D02*
X969Y1549D01*
X1027Y1549D02*
X1033Y1549D01*
X1052Y1549D02*
X1059Y1549D01*
X499Y1548D02*
X505Y1548D01*
X551Y1548D02*
X558Y1548D01*
X606Y1548D02*
X612Y1548D01*
X624Y1548D02*
X630Y1548D01*
X713Y1548D02*
X719Y1548D01*
X749Y1548D02*
X755Y1548D01*
X807Y1548D02*
X815Y1548D01*
X817Y1548D02*
X824Y1548D01*
X877Y1548D02*
X883Y1548D01*
X963Y1548D02*
X969Y1548D01*
X1027Y1548D02*
X1033Y1548D01*
X1051Y1548D02*
X1058Y1548D01*
X499Y1547D02*
X505Y1547D01*
X551Y1547D02*
X558Y1547D01*
X606Y1547D02*
X612Y1547D01*
X624Y1547D02*
X631Y1547D01*
X713Y1547D02*
X719Y1547D01*
X749Y1547D02*
X755Y1547D01*
X808Y1547D02*
X824Y1547D01*
X877Y1547D02*
X883Y1547D01*
X963Y1547D02*
X969Y1547D01*
X1027Y1547D02*
X1033Y1547D01*
X1051Y1547D02*
X1058Y1547D01*
X499Y1546D02*
X505Y1546D01*
X550Y1546D02*
X557Y1546D01*
X606Y1546D02*
X612Y1546D01*
X625Y1546D02*
X631Y1546D01*
X713Y1546D02*
X719Y1546D01*
X749Y1546D02*
X755Y1546D01*
X809Y1546D02*
X823Y1546D01*
X877Y1546D02*
X883Y1546D01*
X963Y1546D02*
X969Y1546D01*
X1027Y1546D02*
X1033Y1546D01*
X1050Y1546D02*
X1057Y1546D01*
X499Y1545D02*
X505Y1545D01*
X550Y1545D02*
X557Y1545D01*
X606Y1545D02*
X612Y1545D01*
X625Y1545D02*
X632Y1545D01*
X713Y1545D02*
X719Y1545D01*
X749Y1545D02*
X755Y1545D01*
X809Y1545D02*
X822Y1545D01*
X877Y1545D02*
X883Y1545D01*
X963Y1545D02*
X969Y1545D01*
X1027Y1545D02*
X1033Y1545D01*
X1050Y1545D02*
X1057Y1545D01*
X499Y1544D02*
X505Y1544D01*
X550Y1544D02*
X556Y1544D01*
X606Y1544D02*
X612Y1544D01*
X626Y1544D02*
X632Y1544D01*
X713Y1544D02*
X719Y1544D01*
X749Y1544D02*
X755Y1544D01*
X810Y1544D02*
X822Y1544D01*
X877Y1544D02*
X883Y1544D01*
X963Y1544D02*
X969Y1544D01*
X1027Y1544D02*
X1033Y1544D01*
X1050Y1544D02*
X1056Y1544D01*
X499Y1543D02*
X505Y1543D01*
X549Y1543D02*
X556Y1543D01*
X606Y1543D02*
X612Y1543D01*
X626Y1543D02*
X632Y1543D01*
X713Y1543D02*
X719Y1543D01*
X749Y1543D02*
X755Y1543D01*
X810Y1543D02*
X821Y1543D01*
X854Y1543D02*
X883Y1543D01*
X963Y1543D02*
X969Y1543D01*
X1004Y1543D02*
X1033Y1543D01*
X1049Y1543D02*
X1056Y1543D01*
X499Y1542D02*
X505Y1542D01*
X549Y1542D02*
X555Y1542D01*
X606Y1542D02*
X612Y1542D01*
X626Y1542D02*
X632Y1542D01*
X713Y1542D02*
X719Y1542D01*
X749Y1542D02*
X755Y1542D01*
X811Y1542D02*
X821Y1542D01*
X852Y1542D02*
X883Y1542D01*
X963Y1542D02*
X969Y1542D01*
X1002Y1542D02*
X1033Y1542D01*
X1049Y1542D02*
X1055Y1542D01*
X499Y1541D02*
X505Y1541D01*
X549Y1541D02*
X555Y1541D01*
X606Y1541D02*
X612Y1541D01*
X627Y1541D02*
X633Y1541D01*
X713Y1541D02*
X719Y1541D01*
X749Y1541D02*
X755Y1541D01*
X812Y1541D02*
X820Y1541D01*
X851Y1541D02*
X882Y1541D01*
X963Y1541D02*
X969Y1541D01*
X1001Y1541D02*
X1032Y1541D01*
X1049Y1541D02*
X1055Y1541D01*
X499Y1540D02*
X505Y1540D01*
X549Y1540D02*
X555Y1540D01*
X606Y1540D02*
X612Y1540D01*
X627Y1540D02*
X633Y1540D01*
X713Y1540D02*
X719Y1540D01*
X749Y1540D02*
X755Y1540D01*
X812Y1540D02*
X820Y1540D01*
X850Y1540D02*
X882Y1540D01*
X963Y1540D02*
X969Y1540D01*
X1000Y1540D02*
X1032Y1540D01*
X1049Y1540D02*
X1055Y1540D01*
X499Y1539D02*
X505Y1539D01*
X549Y1539D02*
X555Y1539D01*
X606Y1539D02*
X612Y1539D01*
X627Y1539D02*
X633Y1539D01*
X713Y1539D02*
X719Y1539D01*
X749Y1539D02*
X755Y1539D01*
X812Y1539D02*
X820Y1539D01*
X850Y1539D02*
X881Y1539D01*
X963Y1539D02*
X969Y1539D01*
X1000Y1539D02*
X1031Y1539D01*
X1049Y1539D02*
X1055Y1539D01*
X499Y1538D02*
X505Y1538D01*
X549Y1538D02*
X555Y1538D01*
X606Y1538D02*
X612Y1538D01*
X626Y1538D02*
X633Y1538D01*
X713Y1538D02*
X719Y1538D01*
X749Y1538D02*
X755Y1538D01*
X811Y1538D02*
X820Y1538D01*
X849Y1538D02*
X880Y1538D01*
X963Y1538D02*
X969Y1538D01*
X999Y1538D02*
X1030Y1538D01*
X1049Y1538D02*
X1055Y1538D01*
X499Y1537D02*
X505Y1537D01*
X549Y1537D02*
X556Y1537D01*
X606Y1537D02*
X612Y1537D01*
X626Y1537D02*
X632Y1537D01*
X713Y1537D02*
X719Y1537D01*
X728Y1537D02*
X731Y1537D01*
X749Y1537D02*
X781Y1537D01*
X811Y1537D02*
X821Y1537D01*
X849Y1537D02*
X879Y1537D01*
X963Y1537D02*
X969Y1537D01*
X999Y1537D02*
X1029Y1537D01*
X1049Y1537D02*
X1056Y1537D01*
X499Y1536D02*
X505Y1536D01*
X550Y1536D02*
X556Y1536D01*
X606Y1536D02*
X612Y1536D01*
X626Y1536D02*
X632Y1536D01*
X713Y1536D02*
X719Y1536D01*
X727Y1536D02*
X732Y1536D01*
X749Y1536D02*
X782Y1536D01*
X810Y1536D02*
X822Y1536D01*
X849Y1536D02*
X855Y1536D01*
X963Y1536D02*
X969Y1536D01*
X999Y1536D02*
X1005Y1536D01*
X1050Y1536D02*
X1056Y1536D01*
X499Y1535D02*
X505Y1535D01*
X550Y1535D02*
X556Y1535D01*
X606Y1535D02*
X612Y1535D01*
X625Y1535D02*
X632Y1535D01*
X713Y1535D02*
X719Y1535D01*
X727Y1535D02*
X732Y1535D01*
X749Y1535D02*
X782Y1535D01*
X809Y1535D02*
X822Y1535D01*
X849Y1535D02*
X855Y1535D01*
X963Y1535D02*
X969Y1535D01*
X999Y1535D02*
X1005Y1535D01*
X1050Y1535D02*
X1056Y1535D01*
X499Y1534D02*
X505Y1534D01*
X550Y1534D02*
X557Y1534D01*
X606Y1534D02*
X612Y1534D01*
X625Y1534D02*
X631Y1534D01*
X713Y1534D02*
X719Y1534D01*
X727Y1534D02*
X733Y1534D01*
X749Y1534D02*
X783Y1534D01*
X809Y1534D02*
X823Y1534D01*
X849Y1534D02*
X855Y1534D01*
X963Y1534D02*
X969Y1534D01*
X999Y1534D02*
X1005Y1534D01*
X1050Y1534D02*
X1057Y1534D01*
X499Y1533D02*
X505Y1533D01*
X551Y1533D02*
X557Y1533D01*
X606Y1533D02*
X612Y1533D01*
X624Y1533D02*
X631Y1533D01*
X713Y1533D02*
X719Y1533D01*
X727Y1533D02*
X733Y1533D01*
X749Y1533D02*
X783Y1533D01*
X808Y1533D02*
X823Y1533D01*
X849Y1533D02*
X855Y1533D01*
X963Y1533D02*
X969Y1533D01*
X999Y1533D02*
X1005Y1533D01*
X1051Y1533D02*
X1057Y1533D01*
X499Y1532D02*
X505Y1532D01*
X551Y1532D02*
X558Y1532D01*
X606Y1532D02*
X612Y1532D01*
X624Y1532D02*
X631Y1532D01*
X713Y1532D02*
X719Y1532D01*
X727Y1532D02*
X733Y1532D01*
X749Y1532D02*
X783Y1532D01*
X808Y1532D02*
X815Y1532D01*
X817Y1532D02*
X824Y1532D01*
X849Y1532D02*
X855Y1532D01*
X963Y1532D02*
X969Y1532D01*
X999Y1532D02*
X1005Y1532D01*
X1051Y1532D02*
X1058Y1532D01*
X499Y1531D02*
X505Y1531D01*
X552Y1531D02*
X558Y1531D01*
X606Y1531D02*
X612Y1531D01*
X623Y1531D02*
X630Y1531D01*
X713Y1531D02*
X719Y1531D01*
X727Y1531D02*
X733Y1531D01*
X749Y1531D02*
X783Y1531D01*
X807Y1531D02*
X814Y1531D01*
X817Y1531D02*
X825Y1531D01*
X849Y1531D02*
X855Y1531D01*
X963Y1531D02*
X969Y1531D01*
X999Y1531D02*
X1005Y1531D01*
X1052Y1531D02*
X1058Y1531D01*
X499Y1530D02*
X505Y1530D01*
X552Y1530D02*
X559Y1530D01*
X606Y1530D02*
X612Y1530D01*
X623Y1530D02*
X630Y1530D01*
X713Y1530D02*
X719Y1530D01*
X727Y1530D02*
X733Y1530D01*
X749Y1530D02*
X755Y1530D01*
X777Y1530D02*
X783Y1530D01*
X807Y1530D02*
X814Y1530D01*
X818Y1530D02*
X825Y1530D01*
X849Y1530D02*
X855Y1530D01*
X963Y1530D02*
X969Y1530D01*
X999Y1530D02*
X1005Y1530D01*
X1052Y1530D02*
X1059Y1530D01*
X499Y1529D02*
X505Y1529D01*
X553Y1529D02*
X559Y1529D01*
X606Y1529D02*
X612Y1529D01*
X622Y1529D02*
X629Y1529D01*
X713Y1529D02*
X719Y1529D01*
X727Y1529D02*
X733Y1529D01*
X749Y1529D02*
X755Y1529D01*
X777Y1529D02*
X783Y1529D01*
X806Y1529D02*
X813Y1529D01*
X819Y1529D02*
X826Y1529D01*
X849Y1529D02*
X855Y1529D01*
X963Y1529D02*
X969Y1529D01*
X999Y1529D02*
X1005Y1529D01*
X1053Y1529D02*
X1059Y1529D01*
X499Y1528D02*
X505Y1528D01*
X553Y1528D02*
X560Y1528D01*
X606Y1528D02*
X612Y1528D01*
X622Y1528D02*
X629Y1528D01*
X713Y1528D02*
X719Y1528D01*
X727Y1528D02*
X733Y1528D01*
X749Y1528D02*
X755Y1528D01*
X777Y1528D02*
X783Y1528D01*
X805Y1528D02*
X813Y1528D01*
X819Y1528D02*
X826Y1528D01*
X849Y1528D02*
X855Y1528D01*
X963Y1528D02*
X969Y1528D01*
X999Y1528D02*
X1005Y1528D01*
X1053Y1528D02*
X1060Y1528D01*
X499Y1527D02*
X505Y1527D01*
X554Y1527D02*
X560Y1527D01*
X606Y1527D02*
X612Y1527D01*
X621Y1527D02*
X628Y1527D01*
X713Y1527D02*
X719Y1527D01*
X727Y1527D02*
X733Y1527D01*
X749Y1527D02*
X755Y1527D01*
X777Y1527D02*
X783Y1527D01*
X805Y1527D02*
X812Y1527D01*
X820Y1527D02*
X827Y1527D01*
X849Y1527D02*
X855Y1527D01*
X963Y1527D02*
X969Y1527D01*
X999Y1527D02*
X1005Y1527D01*
X1054Y1527D02*
X1060Y1527D01*
X499Y1526D02*
X505Y1526D01*
X554Y1526D02*
X561Y1526D01*
X606Y1526D02*
X612Y1526D01*
X621Y1526D02*
X628Y1526D01*
X713Y1526D02*
X719Y1526D01*
X727Y1526D02*
X733Y1526D01*
X749Y1526D02*
X755Y1526D01*
X777Y1526D02*
X783Y1526D01*
X804Y1526D02*
X811Y1526D01*
X820Y1526D02*
X827Y1526D01*
X849Y1526D02*
X855Y1526D01*
X963Y1526D02*
X969Y1526D01*
X999Y1526D02*
X1005Y1526D01*
X1054Y1526D02*
X1061Y1526D01*
X499Y1525D02*
X505Y1525D01*
X555Y1525D02*
X561Y1525D01*
X606Y1525D02*
X612Y1525D01*
X620Y1525D02*
X627Y1525D01*
X713Y1525D02*
X719Y1525D01*
X727Y1525D02*
X733Y1525D01*
X749Y1525D02*
X755Y1525D01*
X777Y1525D02*
X783Y1525D01*
X804Y1525D02*
X811Y1525D01*
X821Y1525D02*
X828Y1525D01*
X849Y1525D02*
X855Y1525D01*
X963Y1525D02*
X969Y1525D01*
X999Y1525D02*
X1005Y1525D01*
X1055Y1525D02*
X1061Y1525D01*
X499Y1524D02*
X505Y1524D01*
X555Y1524D02*
X562Y1524D01*
X606Y1524D02*
X612Y1524D01*
X620Y1524D02*
X627Y1524D01*
X713Y1524D02*
X719Y1524D01*
X727Y1524D02*
X733Y1524D01*
X749Y1524D02*
X755Y1524D01*
X777Y1524D02*
X783Y1524D01*
X803Y1524D02*
X810Y1524D01*
X822Y1524D02*
X829Y1524D01*
X849Y1524D02*
X855Y1524D01*
X963Y1524D02*
X969Y1524D01*
X999Y1524D02*
X1005Y1524D01*
X1055Y1524D02*
X1062Y1524D01*
X499Y1523D02*
X505Y1523D01*
X556Y1523D02*
X563Y1523D01*
X606Y1523D02*
X612Y1523D01*
X619Y1523D02*
X626Y1523D01*
X713Y1523D02*
X719Y1523D01*
X727Y1523D02*
X733Y1523D01*
X749Y1523D02*
X755Y1523D01*
X777Y1523D02*
X783Y1523D01*
X802Y1523D02*
X810Y1523D01*
X822Y1523D02*
X829Y1523D01*
X849Y1523D02*
X855Y1523D01*
X963Y1523D02*
X969Y1523D01*
X999Y1523D02*
X1005Y1523D01*
X1056Y1523D02*
X1062Y1523D01*
X499Y1522D02*
X505Y1522D01*
X556Y1522D02*
X563Y1522D01*
X606Y1522D02*
X612Y1522D01*
X619Y1522D02*
X626Y1522D01*
X713Y1522D02*
X719Y1522D01*
X727Y1522D02*
X733Y1522D01*
X749Y1522D02*
X755Y1522D01*
X777Y1522D02*
X783Y1522D01*
X802Y1522D02*
X809Y1522D01*
X823Y1522D02*
X830Y1522D01*
X849Y1522D02*
X855Y1522D01*
X963Y1522D02*
X969Y1522D01*
X999Y1522D02*
X1005Y1522D01*
X1056Y1522D02*
X1063Y1522D01*
X499Y1521D02*
X505Y1521D01*
X557Y1521D02*
X564Y1521D01*
X606Y1521D02*
X612Y1521D01*
X618Y1521D02*
X625Y1521D01*
X713Y1521D02*
X719Y1521D01*
X727Y1521D02*
X733Y1521D01*
X749Y1521D02*
X755Y1521D01*
X777Y1521D02*
X783Y1521D01*
X801Y1521D02*
X808Y1521D01*
X823Y1521D02*
X830Y1521D01*
X849Y1521D02*
X855Y1521D01*
X963Y1521D02*
X969Y1521D01*
X999Y1521D02*
X1005Y1521D01*
X1057Y1521D02*
X1064Y1521D01*
X499Y1520D02*
X505Y1520D01*
X557Y1520D02*
X565Y1520D01*
X606Y1520D02*
X612Y1520D01*
X617Y1520D02*
X625Y1520D01*
X713Y1520D02*
X719Y1520D01*
X726Y1520D02*
X733Y1520D01*
X749Y1520D02*
X755Y1520D01*
X776Y1520D02*
X783Y1520D01*
X801Y1520D02*
X808Y1520D01*
X824Y1520D02*
X831Y1520D01*
X849Y1520D02*
X855Y1520D01*
X963Y1520D02*
X969Y1520D01*
X999Y1520D02*
X1005Y1520D01*
X1057Y1520D02*
X1065Y1520D01*
X499Y1519D02*
X531Y1519D01*
X558Y1519D02*
X581Y1519D01*
X600Y1519D02*
X624Y1519D01*
X700Y1519D02*
X733Y1519D01*
X749Y1519D02*
X783Y1519D01*
X800Y1519D02*
X807Y1519D01*
X824Y1519D02*
X832Y1519D01*
X849Y1519D02*
X881Y1519D01*
X950Y1519D02*
X981Y1519D01*
X999Y1519D02*
X1031Y1519D01*
X1058Y1519D02*
X1081Y1519D01*
X499Y1518D02*
X532Y1518D01*
X558Y1518D02*
X582Y1518D01*
X600Y1518D02*
X624Y1518D01*
X700Y1518D02*
X733Y1518D01*
X749Y1518D02*
X783Y1518D01*
X800Y1518D02*
X807Y1518D01*
X825Y1518D02*
X832Y1518D01*
X849Y1518D02*
X882Y1518D01*
X950Y1518D02*
X982Y1518D01*
X999Y1518D02*
X1032Y1518D01*
X1058Y1518D02*
X1082Y1518D01*
X499Y1517D02*
X533Y1517D01*
X559Y1517D02*
X583Y1517D01*
X599Y1517D02*
X623Y1517D01*
X699Y1517D02*
X733Y1517D01*
X749Y1517D02*
X783Y1517D01*
X799Y1517D02*
X806Y1517D01*
X826Y1517D02*
X832Y1517D01*
X849Y1517D02*
X883Y1517D01*
X949Y1517D02*
X983Y1517D01*
X999Y1517D02*
X1032Y1517D01*
X1059Y1517D02*
X1082Y1517D01*
X499Y1516D02*
X533Y1516D01*
X560Y1516D02*
X583Y1516D01*
X599Y1516D02*
X622Y1516D01*
X699Y1516D02*
X733Y1516D01*
X749Y1516D02*
X783Y1516D01*
X799Y1516D02*
X806Y1516D01*
X826Y1516D02*
X833Y1516D01*
X849Y1516D02*
X883Y1516D01*
X949Y1516D02*
X983Y1516D01*
X999Y1516D02*
X1033Y1516D01*
X1060Y1516D02*
X1083Y1516D01*
X499Y1515D02*
X532Y1515D01*
X561Y1515D02*
X582Y1515D01*
X599Y1515D02*
X621Y1515D01*
X699Y1515D02*
X732Y1515D01*
X749Y1515D02*
X782Y1515D01*
X799Y1515D02*
X805Y1515D01*
X827Y1515D02*
X832Y1515D01*
X849Y1515D02*
X882Y1515D01*
X949Y1515D02*
X982Y1515D01*
X999Y1515D02*
X1032Y1515D01*
X1061Y1515D02*
X1082Y1515D01*
X499Y1514D02*
X532Y1514D01*
X563Y1514D02*
X582Y1514D01*
X600Y1514D02*
X619Y1514D01*
X700Y1514D02*
X732Y1514D01*
X750Y1514D02*
X782Y1514D01*
X800Y1514D02*
X804Y1514D01*
X828Y1514D02*
X832Y1514D01*
X849Y1514D02*
X882Y1514D01*
X950Y1514D02*
X982Y1514D01*
X999Y1514D02*
X1032Y1514D01*
X1062Y1514D02*
X1082Y1514D01*
X499Y1513D02*
X530Y1513D01*
X565Y1513D02*
X580Y1513D01*
X601Y1513D02*
X616Y1513D01*
X701Y1513D02*
X730Y1513D01*
X751Y1513D02*
X780Y1513D01*
X801Y1513D02*
X803Y1513D01*
X829Y1513D02*
X830Y1513D01*
X849Y1513D02*
X880Y1513D01*
X951Y1513D02*
X980Y1513D01*
X999Y1513D02*
X1030Y1513D01*
X1065Y1513D02*
X1080Y1513D01*
D02*
G04 End of Silk1*
M02*