G04 MADE WITH FRITZING*
G04 WWW.FRITZING.ORG*
G04 DOUBLE SIDED*
G04 HOLES PLATED*
G04 CONTOUR ON CENTER OF CONTOUR VECTOR*
%ASAXBY*%
%FSLAX23Y23*%
%MOIN*%
%OFA0B0*%
%SFA1.0B1.0*%
%ADD10C,0.084000*%
%ADD11C,0.135984*%
%ADD12C,0.088000*%
%ADD13C,0.096614*%
%ADD14R,0.088000X0.088000*%
%ADD15R,0.001000X0.001000*%
%LNMASK0*%
G90*
G70*
G54D10*
X412Y144D03*
X512Y194D03*
X412Y244D03*
X412Y344D03*
X412Y444D03*
X512Y294D03*
X512Y394D03*
X512Y494D03*
G54D11*
X762Y544D03*
X762Y94D03*
G54D10*
X412Y144D03*
X512Y194D03*
X412Y244D03*
X412Y344D03*
X412Y444D03*
X512Y294D03*
X512Y394D03*
X512Y494D03*
G54D11*
X762Y544D03*
X762Y94D03*
G54D12*
X210Y1902D03*
X210Y1802D03*
X210Y1702D03*
X210Y1602D03*
X210Y1902D03*
X210Y1802D03*
X210Y1702D03*
X210Y1602D03*
G54D13*
X801Y2025D03*
X67Y2037D03*
X78Y83D03*
X795Y696D03*
G54D14*
X210Y1902D03*
X210Y1902D03*
G54D15*
X470Y537D02*
X553Y537D01*
X470Y536D02*
X553Y536D01*
X470Y535D02*
X553Y535D01*
X470Y534D02*
X553Y534D01*
X470Y533D02*
X553Y533D01*
X470Y532D02*
X553Y532D01*
X470Y531D02*
X553Y531D01*
X470Y530D02*
X553Y530D01*
X470Y529D02*
X553Y529D01*
X470Y528D02*
X553Y528D01*
X470Y527D02*
X553Y527D01*
X470Y526D02*
X553Y526D01*
X470Y525D02*
X553Y525D01*
X470Y524D02*
X553Y524D01*
X470Y523D02*
X553Y523D01*
X470Y522D02*
X553Y522D01*
X470Y521D02*
X553Y521D01*
X470Y520D02*
X553Y520D01*
X470Y519D02*
X553Y519D01*
X470Y518D02*
X553Y518D01*
X470Y517D02*
X553Y517D01*
X470Y516D02*
X553Y516D01*
X470Y515D02*
X553Y515D01*
X470Y514D02*
X553Y514D01*
X470Y513D02*
X553Y513D01*
X470Y512D02*
X553Y512D01*
X470Y511D02*
X553Y511D01*
X470Y510D02*
X553Y510D01*
X470Y509D02*
X506Y509D01*
X517Y509D02*
X553Y509D01*
X470Y508D02*
X504Y508D01*
X519Y508D02*
X553Y508D01*
X470Y507D02*
X502Y507D01*
X521Y507D02*
X553Y507D01*
X470Y506D02*
X501Y506D01*
X522Y506D02*
X553Y506D01*
X470Y505D02*
X500Y505D01*
X523Y505D02*
X553Y505D01*
X470Y504D02*
X499Y504D01*
X524Y504D02*
X553Y504D01*
X470Y503D02*
X498Y503D01*
X524Y503D02*
X553Y503D01*
X470Y502D02*
X498Y502D01*
X525Y502D02*
X553Y502D01*
X470Y501D02*
X497Y501D01*
X525Y501D02*
X553Y501D01*
X470Y500D02*
X497Y500D01*
X526Y500D02*
X553Y500D01*
X470Y499D02*
X497Y499D01*
X526Y499D02*
X553Y499D01*
X470Y498D02*
X496Y498D01*
X526Y498D02*
X553Y498D01*
X470Y497D02*
X496Y497D01*
X526Y497D02*
X553Y497D01*
X470Y496D02*
X496Y496D01*
X526Y496D02*
X553Y496D01*
X470Y495D02*
X496Y495D01*
X526Y495D02*
X553Y495D01*
X470Y494D02*
X496Y494D01*
X526Y494D02*
X553Y494D01*
X470Y493D02*
X496Y493D01*
X526Y493D02*
X553Y493D01*
X470Y492D02*
X496Y492D01*
X526Y492D02*
X553Y492D01*
X470Y491D02*
X497Y491D01*
X526Y491D02*
X553Y491D01*
X470Y490D02*
X497Y490D01*
X526Y490D02*
X553Y490D01*
X470Y489D02*
X497Y489D01*
X525Y489D02*
X553Y489D01*
X470Y488D02*
X498Y488D01*
X525Y488D02*
X553Y488D01*
X470Y487D02*
X499Y487D01*
X524Y487D02*
X553Y487D01*
X470Y486D02*
X499Y486D01*
X523Y486D02*
X553Y486D01*
X470Y485D02*
X500Y485D01*
X522Y485D02*
X553Y485D01*
X470Y484D02*
X501Y484D01*
X521Y484D02*
X553Y484D01*
X470Y483D02*
X503Y483D01*
X520Y483D02*
X553Y483D01*
X470Y482D02*
X504Y482D01*
X518Y482D02*
X553Y482D01*
X470Y481D02*
X507Y481D01*
X515Y481D02*
X553Y481D01*
X470Y480D02*
X553Y480D01*
X470Y479D02*
X553Y479D01*
X470Y478D02*
X553Y478D01*
X470Y477D02*
X553Y477D01*
X470Y476D02*
X553Y476D01*
X470Y475D02*
X553Y475D01*
X470Y474D02*
X553Y474D01*
X470Y473D02*
X553Y473D01*
X470Y472D02*
X553Y472D01*
X470Y471D02*
X553Y471D01*
X470Y470D02*
X553Y470D01*
X470Y469D02*
X553Y469D01*
X470Y468D02*
X553Y468D01*
X470Y467D02*
X553Y467D01*
X470Y466D02*
X553Y466D01*
X470Y465D02*
X553Y465D01*
X470Y464D02*
X553Y464D01*
X470Y463D02*
X553Y463D01*
X470Y462D02*
X553Y462D01*
X470Y461D02*
X553Y461D01*
X470Y460D02*
X553Y460D01*
X470Y459D02*
X553Y459D01*
X470Y458D02*
X553Y458D01*
X470Y457D02*
X553Y457D01*
X470Y456D02*
X553Y456D01*
X470Y455D02*
X553Y455D01*
X470Y454D02*
X553Y454D01*
D02*
G04 End of Mask0*
M02*