G04 MADE WITH FRITZING*
G04 WWW.FRITZING.ORG*
G04 DOUBLE SIDED*
G04 HOLES PLATED*
G04 CONTOUR ON CENTER OF CONTOUR VECTOR*
%ASAXBY*%
%FSLAX23Y23*%
%MOIN*%
%OFA0B0*%
%SFA1.0B1.0*%
%ADD10C,0.074000*%
%ADD11C,0.078000*%
%ADD12R,0.078000X0.078000*%
%ADD13R,0.001000X0.001000*%
%LNCOPPER1*%
G90*
G70*
G54D10*
X412Y144D03*
X512Y194D03*
X412Y244D03*
X412Y344D03*
X412Y444D03*
X512Y294D03*
X512Y394D03*
X512Y494D03*
X412Y144D03*
X512Y194D03*
X412Y244D03*
X412Y344D03*
X412Y444D03*
X512Y294D03*
X512Y394D03*
X512Y494D03*
G54D11*
X210Y1902D03*
X210Y1802D03*
X210Y1702D03*
X210Y1602D03*
X210Y1902D03*
X210Y1802D03*
X210Y1702D03*
X210Y1602D03*
G54D12*
X210Y1902D03*
X210Y1902D03*
G54D13*
X475Y532D02*
X548Y532D01*
X475Y531D02*
X548Y531D01*
X475Y530D02*
X548Y530D01*
X475Y529D02*
X548Y529D01*
X475Y528D02*
X548Y528D01*
X475Y527D02*
X548Y527D01*
X475Y526D02*
X548Y526D01*
X475Y525D02*
X548Y525D01*
X475Y524D02*
X548Y524D01*
X475Y523D02*
X548Y523D01*
X475Y522D02*
X548Y522D01*
X475Y521D02*
X548Y521D01*
X475Y520D02*
X548Y520D01*
X475Y519D02*
X548Y519D01*
X475Y518D02*
X548Y518D01*
X475Y517D02*
X548Y517D01*
X475Y516D02*
X548Y516D01*
X475Y515D02*
X548Y515D01*
X475Y514D02*
X505Y514D01*
X517Y514D02*
X548Y514D01*
X475Y513D02*
X502Y513D01*
X520Y513D02*
X548Y513D01*
X475Y512D02*
X501Y512D01*
X522Y512D02*
X548Y512D01*
X475Y511D02*
X499Y511D01*
X524Y511D02*
X548Y511D01*
X475Y510D02*
X498Y510D01*
X525Y510D02*
X548Y510D01*
X475Y509D02*
X497Y509D01*
X526Y509D02*
X548Y509D01*
X475Y508D02*
X496Y508D01*
X527Y508D02*
X548Y508D01*
X475Y507D02*
X495Y507D01*
X528Y507D02*
X548Y507D01*
X475Y506D02*
X494Y506D01*
X528Y506D02*
X548Y506D01*
X475Y505D02*
X494Y505D01*
X529Y505D02*
X548Y505D01*
X475Y504D02*
X493Y504D01*
X529Y504D02*
X548Y504D01*
X475Y503D02*
X493Y503D01*
X530Y503D02*
X548Y503D01*
X475Y502D02*
X492Y502D01*
X530Y502D02*
X548Y502D01*
X475Y501D02*
X492Y501D01*
X531Y501D02*
X548Y501D01*
X475Y500D02*
X492Y500D01*
X531Y500D02*
X548Y500D01*
X475Y499D02*
X492Y499D01*
X531Y499D02*
X548Y499D01*
X475Y498D02*
X491Y498D01*
X531Y498D02*
X548Y498D01*
X475Y497D02*
X491Y497D01*
X531Y497D02*
X548Y497D01*
X475Y496D02*
X491Y496D01*
X531Y496D02*
X548Y496D01*
X475Y495D02*
X491Y495D01*
X531Y495D02*
X548Y495D01*
X475Y494D02*
X491Y494D01*
X531Y494D02*
X548Y494D01*
X475Y493D02*
X491Y493D01*
X531Y493D02*
X548Y493D01*
X475Y492D02*
X491Y492D01*
X531Y492D02*
X548Y492D01*
X475Y491D02*
X492Y491D01*
X531Y491D02*
X548Y491D01*
X475Y490D02*
X492Y490D01*
X531Y490D02*
X548Y490D01*
X475Y489D02*
X492Y489D01*
X530Y489D02*
X548Y489D01*
X475Y488D02*
X493Y488D01*
X530Y488D02*
X548Y488D01*
X475Y487D02*
X493Y487D01*
X530Y487D02*
X548Y487D01*
X475Y486D02*
X494Y486D01*
X529Y486D02*
X548Y486D01*
X475Y485D02*
X494Y485D01*
X529Y485D02*
X548Y485D01*
X475Y484D02*
X495Y484D01*
X528Y484D02*
X548Y484D01*
X475Y483D02*
X496Y483D01*
X527Y483D02*
X548Y483D01*
X475Y482D02*
X496Y482D01*
X526Y482D02*
X548Y482D01*
X475Y481D02*
X497Y481D01*
X525Y481D02*
X548Y481D01*
X475Y480D02*
X499Y480D01*
X524Y480D02*
X548Y480D01*
X475Y479D02*
X500Y479D01*
X523Y479D02*
X548Y479D01*
X475Y478D02*
X502Y478D01*
X521Y478D02*
X548Y478D01*
X475Y477D02*
X504Y477D01*
X519Y477D02*
X548Y477D01*
X475Y476D02*
X507Y476D01*
X516Y476D02*
X548Y476D01*
X475Y475D02*
X548Y475D01*
X475Y474D02*
X548Y474D01*
X475Y473D02*
X548Y473D01*
X475Y472D02*
X548Y472D01*
X475Y471D02*
X548Y471D01*
X475Y470D02*
X548Y470D01*
X475Y469D02*
X548Y469D01*
X475Y468D02*
X548Y468D01*
X475Y467D02*
X548Y467D01*
X475Y466D02*
X548Y466D01*
X475Y465D02*
X548Y465D01*
X475Y464D02*
X548Y464D01*
X475Y463D02*
X548Y463D01*
X475Y462D02*
X548Y462D01*
X475Y461D02*
X548Y461D01*
X475Y460D02*
X548Y460D01*
X475Y459D02*
X548Y459D01*
D02*
G04 End of Copper1*
M02*