G04 MADE WITH FRITZING*
G04 WWW.FRITZING.ORG*
G04 DOUBLE SIDED*
G04 HOLES PLATED*
G04 CONTOUR ON CENTER OF CONTOUR VECTOR*
%ASAXBY*%
%FSLAX23Y23*%
%MOIN*%
%OFA0B0*%
%SFA1.0B1.0*%
%ADD10C,0.084000*%
%ADD11C,0.135984*%
%ADD12C,0.088000*%
%ADD13C,0.049370*%
%ADD14C,0.096614*%
%ADD15R,0.088000X0.088000*%
%ADD16R,0.001000X0.001000*%
%LNMASK0*%
G90*
G70*
G54D10*
X323Y482D03*
X373Y382D03*
X423Y482D03*
X523Y482D03*
X623Y482D03*
X473Y382D03*
X573Y382D03*
X673Y382D03*
G54D11*
X723Y132D03*
X273Y132D03*
G54D10*
X323Y482D03*
X373Y382D03*
X423Y482D03*
X523Y482D03*
X623Y482D03*
X473Y382D03*
X573Y382D03*
X673Y382D03*
G54D11*
X723Y132D03*
X273Y132D03*
G54D12*
X227Y946D03*
X327Y946D03*
X427Y946D03*
X527Y946D03*
X627Y946D03*
X727Y946D03*
X827Y946D03*
X927Y946D03*
X227Y946D03*
X327Y946D03*
X427Y946D03*
X527Y946D03*
X627Y946D03*
X727Y946D03*
X827Y946D03*
X927Y946D03*
G54D13*
X810Y572D03*
G54D14*
X76Y1112D03*
X977Y1117D03*
X76Y77D03*
X966Y71D03*
G54D15*
X227Y946D03*
X227Y946D03*
G54D16*
X630Y425D02*
X713Y425D01*
X630Y424D02*
X713Y424D01*
X630Y423D02*
X713Y423D01*
X630Y422D02*
X713Y422D01*
X630Y421D02*
X713Y421D01*
X630Y420D02*
X713Y420D01*
X630Y419D02*
X713Y419D01*
X630Y418D02*
X713Y418D01*
X630Y417D02*
X713Y417D01*
X630Y416D02*
X713Y416D01*
X630Y415D02*
X713Y415D01*
X630Y414D02*
X713Y414D01*
X630Y413D02*
X713Y413D01*
X630Y412D02*
X713Y412D01*
X630Y411D02*
X713Y411D01*
X630Y410D02*
X713Y410D01*
X630Y409D02*
X713Y409D01*
X630Y408D02*
X713Y408D01*
X630Y407D02*
X713Y407D01*
X630Y406D02*
X713Y406D01*
X630Y405D02*
X713Y405D01*
X630Y404D02*
X713Y404D01*
X630Y403D02*
X713Y403D01*
X630Y402D02*
X713Y402D01*
X630Y401D02*
X713Y401D01*
X630Y400D02*
X713Y400D01*
X630Y399D02*
X713Y399D01*
X630Y398D02*
X671Y398D01*
X673Y398D02*
X713Y398D01*
X630Y397D02*
X666Y397D01*
X678Y397D02*
X713Y397D01*
X630Y396D02*
X664Y396D01*
X680Y396D02*
X713Y396D01*
X630Y395D02*
X662Y395D01*
X681Y395D02*
X713Y395D01*
X630Y394D02*
X661Y394D01*
X682Y394D02*
X713Y394D01*
X630Y393D02*
X660Y393D01*
X683Y393D02*
X713Y393D01*
X630Y392D02*
X659Y392D01*
X684Y392D02*
X713Y392D01*
X630Y391D02*
X659Y391D01*
X685Y391D02*
X713Y391D01*
X630Y390D02*
X658Y390D01*
X685Y390D02*
X713Y390D01*
X630Y389D02*
X658Y389D01*
X686Y389D02*
X713Y389D01*
X630Y388D02*
X657Y388D01*
X686Y388D02*
X713Y388D01*
X630Y387D02*
X657Y387D01*
X687Y387D02*
X713Y387D01*
X630Y386D02*
X657Y386D01*
X687Y386D02*
X713Y386D01*
X630Y385D02*
X657Y385D01*
X687Y385D02*
X713Y385D01*
X630Y384D02*
X657Y384D01*
X687Y384D02*
X713Y384D01*
X630Y383D02*
X657Y383D01*
X687Y383D02*
X713Y383D01*
X630Y382D02*
X657Y382D01*
X687Y382D02*
X713Y382D01*
X630Y381D02*
X657Y381D01*
X687Y381D02*
X713Y381D01*
X630Y380D02*
X657Y380D01*
X687Y380D02*
X713Y380D01*
X630Y379D02*
X657Y379D01*
X686Y379D02*
X713Y379D01*
X630Y378D02*
X658Y378D01*
X686Y378D02*
X713Y378D01*
X630Y377D02*
X658Y377D01*
X686Y377D02*
X713Y377D01*
X630Y376D02*
X659Y376D01*
X685Y376D02*
X713Y376D01*
X630Y375D02*
X659Y375D01*
X684Y375D02*
X713Y375D01*
X630Y374D02*
X660Y374D01*
X684Y374D02*
X713Y374D01*
X630Y373D02*
X661Y373D01*
X683Y373D02*
X713Y373D01*
X630Y372D02*
X662Y372D01*
X682Y372D02*
X713Y372D01*
X630Y371D02*
X663Y371D01*
X680Y371D02*
X713Y371D01*
X630Y370D02*
X665Y370D01*
X679Y370D02*
X713Y370D01*
X630Y369D02*
X668Y369D01*
X676Y369D02*
X713Y369D01*
X630Y368D02*
X713Y368D01*
X630Y367D02*
X713Y367D01*
X630Y366D02*
X713Y366D01*
X630Y365D02*
X713Y365D01*
X630Y364D02*
X713Y364D01*
X630Y363D02*
X713Y363D01*
X630Y362D02*
X713Y362D01*
X630Y361D02*
X713Y361D01*
X630Y360D02*
X713Y360D01*
X630Y359D02*
X713Y359D01*
X630Y358D02*
X713Y358D01*
X630Y357D02*
X713Y357D01*
X630Y356D02*
X713Y356D01*
X630Y355D02*
X713Y355D01*
X630Y354D02*
X713Y354D01*
X630Y353D02*
X713Y353D01*
X630Y352D02*
X713Y352D01*
X630Y351D02*
X713Y351D01*
X630Y350D02*
X713Y350D01*
X630Y349D02*
X713Y349D01*
X630Y348D02*
X713Y348D01*
X630Y347D02*
X713Y347D01*
X630Y346D02*
X713Y346D01*
X630Y345D02*
X713Y345D01*
X630Y344D02*
X713Y344D01*
X630Y343D02*
X713Y343D01*
X630Y342D02*
X713Y342D01*
D02*
G04 End of Mask0*
M02*