; NON-PLATED HOLES START AT T1
; THROUGH (PLATED) HOLES START AT T100
M48
INCH
T1C0.086614
T2C0.125984
T100C0.039370
T101C0.015748
T102C0.038000
%
T1
X000757Y000770
X009773Y011174
X009658Y000713
X000757Y011116
T2
X007228Y001320
X002728Y001320
T100
X004228Y004820
X003228Y004820
X006228Y004820
X003728Y003820
X005728Y003820
X006728Y003820
X005228Y004820
X004728Y003820
T101
X008103Y005721
T102
X004268Y009457
X002268Y009457
X008268Y009457
X005268Y009457
X009268Y009457
X007268Y009457
X006268Y009457
X003268Y009457
T00
M30
