G04 MADE WITH FRITZING*
G04 WWW.FRITZING.ORG*
G04 DOUBLE SIDED*
G04 HOLES PLATED*
G04 CONTOUR ON CENTER OF CONTOUR VECTOR*
%ASAXBY*%
%FSLAX23Y23*%
%MOIN*%
%OFA0B0*%
%SFA1.0B1.0*%
%ADD10C,0.074000*%
%ADD11C,0.078000*%
%ADD12C,0.039370*%
%ADD13R,0.078000X0.078000*%
%ADD14C,0.024000*%
%ADD15R,0.001000X0.001000*%
%LNCOPPER1*%
G90*
G70*
G54D10*
X323Y482D03*
X373Y382D03*
X423Y482D03*
X523Y482D03*
X623Y482D03*
X473Y382D03*
X573Y382D03*
X673Y382D03*
X323Y482D03*
X373Y382D03*
X423Y482D03*
X523Y482D03*
X623Y482D03*
X473Y382D03*
X573Y382D03*
X673Y382D03*
G54D11*
X227Y946D03*
X327Y946D03*
X427Y946D03*
X527Y946D03*
X627Y946D03*
X727Y946D03*
X827Y946D03*
X927Y946D03*
X227Y946D03*
X327Y946D03*
X427Y946D03*
X527Y946D03*
X627Y946D03*
X727Y946D03*
X827Y946D03*
X927Y946D03*
G54D12*
X810Y572D03*
G54D13*
X227Y946D03*
X227Y946D03*
G54D14*
X351Y927D02*
X795Y584D01*
G54D15*
X635Y420D02*
X708Y420D01*
X635Y419D02*
X708Y419D01*
X635Y418D02*
X708Y418D01*
X635Y417D02*
X708Y417D01*
X635Y416D02*
X708Y416D01*
X635Y415D02*
X708Y415D01*
X635Y414D02*
X708Y414D01*
X635Y413D02*
X708Y413D01*
X635Y412D02*
X708Y412D01*
X635Y411D02*
X708Y411D01*
X635Y410D02*
X708Y410D01*
X635Y409D02*
X708Y409D01*
X635Y408D02*
X708Y408D01*
X635Y407D02*
X708Y407D01*
X635Y406D02*
X708Y406D01*
X635Y405D02*
X708Y405D01*
X635Y404D02*
X708Y404D01*
X635Y403D02*
X671Y403D01*
X673Y403D02*
X708Y403D01*
X635Y402D02*
X665Y402D01*
X678Y402D02*
X708Y402D01*
X635Y401D02*
X663Y401D01*
X681Y401D02*
X708Y401D01*
X635Y400D02*
X661Y400D01*
X683Y400D02*
X708Y400D01*
X635Y399D02*
X660Y399D01*
X684Y399D02*
X708Y399D01*
X635Y398D02*
X658Y398D01*
X685Y398D02*
X708Y398D01*
X635Y397D02*
X657Y397D01*
X686Y397D02*
X708Y397D01*
X635Y396D02*
X656Y396D01*
X687Y396D02*
X708Y396D01*
X635Y395D02*
X656Y395D01*
X688Y395D02*
X708Y395D01*
X635Y394D02*
X655Y394D01*
X689Y394D02*
X708Y394D01*
X635Y393D02*
X654Y393D01*
X689Y393D02*
X708Y393D01*
X635Y392D02*
X654Y392D01*
X690Y392D02*
X708Y392D01*
X635Y391D02*
X653Y391D01*
X690Y391D02*
X708Y391D01*
X635Y390D02*
X653Y390D01*
X691Y390D02*
X708Y390D01*
X635Y389D02*
X653Y389D01*
X691Y389D02*
X708Y389D01*
X635Y388D02*
X652Y388D01*
X691Y388D02*
X708Y388D01*
X635Y387D02*
X652Y387D01*
X692Y387D02*
X708Y387D01*
X635Y386D02*
X652Y386D01*
X692Y386D02*
X708Y386D01*
X635Y385D02*
X652Y385D01*
X692Y385D02*
X708Y385D01*
X635Y384D02*
X652Y384D01*
X692Y384D02*
X708Y384D01*
X635Y383D02*
X652Y383D01*
X692Y383D02*
X708Y383D01*
X635Y382D02*
X652Y382D01*
X692Y382D02*
X708Y382D01*
X635Y381D02*
X652Y381D01*
X692Y381D02*
X708Y381D01*
X635Y380D02*
X652Y380D01*
X692Y380D02*
X708Y380D01*
X635Y379D02*
X652Y379D01*
X691Y379D02*
X708Y379D01*
X635Y378D02*
X652Y378D01*
X691Y378D02*
X708Y378D01*
X635Y377D02*
X653Y377D01*
X691Y377D02*
X708Y377D01*
X635Y376D02*
X653Y376D01*
X691Y376D02*
X708Y376D01*
X635Y375D02*
X654Y375D01*
X690Y375D02*
X708Y375D01*
X635Y374D02*
X654Y374D01*
X690Y374D02*
X708Y374D01*
X635Y373D02*
X655Y373D01*
X689Y373D02*
X708Y373D01*
X635Y372D02*
X655Y372D01*
X688Y372D02*
X708Y372D01*
X635Y371D02*
X656Y371D01*
X688Y371D02*
X708Y371D01*
X635Y370D02*
X657Y370D01*
X687Y370D02*
X708Y370D01*
X635Y369D02*
X658Y369D01*
X686Y369D02*
X708Y369D01*
X635Y368D02*
X659Y368D01*
X684Y368D02*
X708Y368D01*
X635Y367D02*
X660Y367D01*
X683Y367D02*
X708Y367D01*
X635Y366D02*
X662Y366D01*
X681Y366D02*
X708Y366D01*
X635Y365D02*
X664Y365D01*
X679Y365D02*
X708Y365D01*
X635Y364D02*
X668Y364D01*
X675Y364D02*
X708Y364D01*
X635Y363D02*
X708Y363D01*
X635Y362D02*
X708Y362D01*
X635Y361D02*
X708Y361D01*
X635Y360D02*
X708Y360D01*
X635Y359D02*
X708Y359D01*
X635Y358D02*
X708Y358D01*
X635Y357D02*
X708Y357D01*
X635Y356D02*
X708Y356D01*
X635Y355D02*
X708Y355D01*
X635Y354D02*
X708Y354D01*
X635Y353D02*
X708Y353D01*
X635Y352D02*
X708Y352D01*
X635Y351D02*
X708Y351D01*
X635Y350D02*
X708Y350D01*
X635Y349D02*
X708Y349D01*
X635Y348D02*
X708Y348D01*
X635Y347D02*
X708Y347D01*
D02*
G04 End of Copper1*
M02*